<svg width="1920" height="1080" viewBox="0 0 1920 1080" fill="none" xmlns="http://www.w3.org/2000/svg">

<path d="M1689 160H1601C1594.38 160 1589 165.375 1589 172V260C1589 266.625 1594.38 272 1601 272H1689C1695.62 272 1701 266.625 1701 260V172C1701 165.375 1695.62 160 1689 160ZM1620.75 248.125C1619.38 250.525 1616.3 251.325 1613.92 249.95C1611.52 248.575 1610.73 245.5 1612.1 243.125L1615.67 236.95C1619.7 235.725 1623 236.675 1625.58 239.8L1620.75 248.125ZM1655.47 234.65H1610C1607.25 234.65 1605 232.4 1605 229.65C1605 226.9 1607.25 224.65 1610 224.65H1622.75L1639.1 196.35L1633.97 187.5C1632.6 185.1 1633.42 182.05 1635.8 180.675C1638.2 179.3 1641.25 180.125 1642.62 182.5L1644.85 186.35L1647.08 182.5C1648.45 180.1 1651.53 179.3 1653.9 180.675C1656.3 182.05 1657.1 185.125 1655.72 187.5L1634.28 224.65H1649.8C1654.85 224.65 1657.67 230.575 1655.47 234.65ZM1680 234.65H1672.75L1677.65 243.125C1679.03 245.525 1678.2 248.575 1675.82 249.95C1673.42 251.325 1670.38 250.5 1669 248.125C1660.78 233.9 1654.62 223.2 1650.5 216.1C1646.33 208.85 1649.3 201.6 1652.28 199.15C1655.55 204.825 1660.45 213.325 1667 224.65H1680C1682.75 224.65 1685 226.9 1685 229.65C1685 232.425 1682.75 234.65 1680 234.65Z" fill="black"/>
<path d="M1541.76 541.412C1543.32 542.975 1545.85 542.975 1547.42 541.412L1550.24 538.585C1551.81 537.022 1551.81 534.49 1550.24 532.928L1541.31 524L1550.24 515.07C1551.8 513.507 1551.8 510.975 1550.24 509.412L1547.41 506.585C1545.85 505.022 1543.32 505.022 1541.76 506.585L1527.17 521.17C1525.61 522.732 1525.61 525.265 1527.17 526.827L1541.76 541.412ZM1565.76 538.588L1568.59 541.415C1570.15 542.978 1572.68 542.978 1574.25 541.415L1588.83 526.83C1590.39 525.268 1590.39 522.735 1588.83 521.173L1574.25 506.587C1572.68 505.025 1570.15 505.025 1568.59 506.587L1565.76 509.415C1564.2 510.978 1564.2 513.51 1565.76 515.072L1574.69 524L1565.76 532.93C1564.2 534.493 1564.2 537.025 1565.76 538.588ZM1634 580H1573.39C1573.2 584.952 1569.71 588 1565.2 588H1550C1545.33 588 1541.74 583.632 1541.81 580H1482C1479.8 580 1478 581.8 1478 584V588C1478 596.8 1485.2 604 1494 604H1622C1630.8 604 1638 596.8 1638 588V584C1638 581.8 1636.2 580 1634 580ZM1622 488C1622 481.4 1616.6 476 1610 476H1506C1499.4 476 1494 481.4 1494 488V572H1622V488ZM1606 556H1510V492H1606V556Z" fill="black"/>
<path d="M1612.4 856.65C1613.42 853.975 1614 851.05 1614 848C1614 834.75 1603.25 824 1590 824C1585.07 824 1580.48 825.5 1576.68 828.05C1569.75 816.05 1556.82 808 1542 808C1519.9 808 1502 825.9 1502 848C1502 848.675 1502.02 849.35 1502.05 850.025C1488.05 854.95 1478 868.3 1478 884C1478 903.875 1494.12 920 1514 920H1606C1623.68 920 1638 905.675 1638 888C1638 872.525 1627 859.6 1612.4 856.65Z" fill="black"/>
<path d="M403 516H291C286.582 516 283 512.418 283 508V492C283 487.582 286.582 484 291 484H403C407.418 484 411 487.582 411 492V508C411 512.418 407.418 516 403 516ZM391 494C387.686 494 385 496.686 385 500C385 503.314 387.686 506 391 506C394.314 506 397 503.314 397 500C397 496.686 394.314 494 391 494ZM375 494C371.686 494 369 496.686 369 500C369 503.314 371.686 506 375 506C378.314 506 381 503.314 381 500C381 496.686 378.314 494 375 494ZM403 556H291C286.582 556 283 552.418 283 548V532C283 527.582 286.582 524 291 524H403C407.418 524 411 527.582 411 532V548C411 552.418 407.418 556 403 556ZM391 534C387.686 534 385 536.686 385 540C385 543.314 387.686 546 391 546C394.314 546 397 543.314 397 540C397 536.686 394.314 534 391 534ZM375 534C371.686 534 369 536.686 369 540C369 543.314 371.686 546 375 546C378.314 546 381 543.314 381 540C381 536.686 378.314 534 375 534ZM403 596H291C286.582 596 283 592.418 283 588V572C283 567.582 286.582 564 291 564H403C407.418 564 411 567.582 411 572V588C411 592.418 407.418 596 403 596ZM391 574C387.686 574 385 576.686 385 580C385 583.314 387.686 586 391 586C394.314 586 397 583.314 397 580C397 576.686 394.314 574 391 574ZM375 574C371.686 574 369 576.686 369 580C369 583.314 371.686 586 375 586C378.314 586 381 583.314 381 580C381 576.686 378.314 574 375 574Z" fill="black"/>
<path d="M1490 210.575L1434.82 155.25L1505.02 195.55L1490 210.575ZM1420.42 152C1417.17 153.7 1415 156.8 1415 160.825V271.15C1415 275.175 1417.17 278.275 1420.42 279.975L1484.57 215.975L1420.42 152ZM1526.72 208.4L1512 199.875L1495.57 216L1512 232.125L1527.02 223.6C1531.52 220.025 1531.53 211.975 1526.72 208.4ZM1434.82 276.75L1505.02 236.45L1490 221.425L1434.82 276.75Z" fill="black"/>
<path d="M1387.17 234.238C1387.86 233.039 1387.44 231.512 1386.24 230.828L1366.69 219.683C1365.49 218.999 1363.97 219.417 1363.28 220.617C1362.6 221.816 1363.02 223.343 1364.22 224.027L1381.59 233.933L1371.68 251.307C1371 252.507 1371.42 254.034 1372.62 254.718C1373.82 255.401 1375.34 254.984 1376.03 253.784L1387.17 234.238ZM468.66 486.411L1385.66 235.411L1384.34 230.589L467.34 481.589L468.66 486.411Z" fill="black"/>
<path d="M1416.76 543.771C1417.74 542.797 1417.75 541.214 1416.77 540.236L1400.9 524.293C1399.92 523.314 1398.34 523.311 1397.36 524.285C1396.38 525.259 1396.38 526.842 1397.35 527.821L1411.46 541.993L1397.29 556.105C1396.31 557.079 1396.31 558.662 1397.29 559.64C1398.26 560.619 1399.84 560.622 1400.82 559.648L1416.76 543.771ZM467.995 542.5L1414.99 544.5L1415.01 539.5L468.005 537.5L467.995 542.5Z" fill="black"/>
<path d="M1416.24 866.173C1417.44 865.49 1417.86 863.963 1417.17 862.763L1406.04 843.209C1405.36 842.009 1403.83 841.59 1402.63 842.273C1401.43 842.956 1401.01 844.482 1401.7 845.682L1411.59 863.064L1394.21 872.957C1393.01 873.64 1392.59 875.167 1393.27 876.367C1393.96 877.567 1395.48 877.986 1396.68 877.303L1416.24 866.173ZM467.338 606.411L1414.34 866.411L1415.66 861.589L468.662 601.589L467.338 606.411Z" fill="black"/>
</svg>
