<svg width="1920" height="1080" viewBox="0 0 1920 1080" fill="none" xmlns="http://www.w3.org/2000/svg">
<path d="M1004.46 500.495L983.486 479.524C981.236 477.275 978.187 476 975.013 476H923.998C917.374 476.025 912 481.399 912 488.023V592.002C912 598.626 917.374 604 923.998 604H995.984C1002.61 604 1007.98 598.626 1007.98 592.002V508.994C1007.98 505.819 1006.71 502.745 1004.46 500.495ZM995.009 508.019H975.988V488.997L995.009 508.019ZM923.998 592.002V488.023H963.99V514.018C963.99 517.342 966.664 520.016 969.989 520.016H995.984V592.002H923.998Z" fill="black"/>
<path d="M941.06 553.788C942.596 553.788 943.832 553.278 944.768 552.258C945.704 551.226 946.196 549.828 946.244 548.064V532.476C946.196 530.724 945.704 529.332 944.768 528.3C943.832 527.268 942.596 526.752 941.06 526.752C939.536 526.752 938.306 527.268 937.37 528.3C936.434 529.32 935.936 530.712 935.875 532.476V548.064C935.948 549.84 936.446 551.238 937.37 552.258C938.294 553.278 939.524 553.788 941.06 553.788ZM941.06 550.008C940.652 550.008 940.334 549.834 940.106 549.486C939.878 549.138 939.764 548.664 939.764 548.064V532.476C939.764 531.18 940.196 530.532 941.06 530.532C941.924 530.532 942.356 531.18 942.356 532.476V548.064C942.356 548.664 942.242 549.138 942.014 549.486C941.786 549.834 941.468 550.008 941.06 550.008ZM948.854 553.5H952.742V542.916C954.974 542.916 956.672 542.196 957.836 540.756C959 539.304 959.582 537.372 959.582 534.96C959.582 532.416 958.988 530.46 957.8 529.092C956.624 527.724 954.938 527.04 952.742 527.04H948.854V553.5ZM952.742 538.956V531C954.026 531 954.83 531.336 955.154 532.008C955.49 532.68 955.658 533.712 955.658 535.104C955.658 536.496 955.49 537.486 955.154 538.074C954.818 538.662 954.014 538.956 952.742 538.956ZM961.51 553.5H970.402V549.504H965.398V542.232H968.998V537.984H965.398V531.036H970.402V527.04H961.51V553.5ZM972.549 553.5H976.113V538.488H976.329L976.653 539.712L980.433 553.5H983.889V527.04H980.325V542.052H980.109L979.785 540.828L976.005 527.04H972.549V553.5Z" fill="black"/>
<path d="M943.907 583H947.687L948.407 577.6H952.151L952.871 583H956.651L952.655 556.54H947.903L943.907 583ZM948.947 573.496L950.063 565.144L950.171 564.46H950.387L950.495 565.144L951.611 573.496H948.947ZM958.452 583H962.34V572.416C964.572 572.416 966.27 571.696 967.434 570.256C968.598 568.804 969.18 566.872 969.18 564.46C969.18 561.916 968.586 559.96 967.398 558.592C966.222 557.224 964.536 556.54 962.34 556.54H958.452V583ZM962.34 568.456V560.5C963.624 560.5 964.428 560.836 964.752 561.508C965.088 562.18 965.256 563.212 965.256 564.604C965.256 565.996 965.088 566.986 964.752 567.574C964.416 568.162 963.612 568.456 962.34 568.456ZM971.108 583H974.996V556.54H971.108V583Z" fill="black"/>
<path d="M1387.43 233.598C1387.76 232.257 1386.94 230.903 1385.6 230.573L1363.75 225.191C1362.41 224.861 1361.06 225.68 1360.73 227.021C1360.4 228.361 1361.21 229.716 1362.56 230.046L1381.97 234.83L1377.19 254.249C1376.86 255.59 1377.68 256.944 1379.02 257.274C1380.36 257.605 1381.72 256.786 1382.05 255.445L1387.43 233.598ZM1090.29 414.139L1386.29 235.139L1383.71 230.861L1087.71 409.861L1090.29 414.139Z" fill="black"/>
<path d="M466.232 537.732C465.255 538.709 465.255 540.291 466.232 541.268L482.142 557.178C483.118 558.154 484.701 558.154 485.677 557.178C486.654 556.201 486.654 554.618 485.677 553.642L471.535 539.5L485.677 525.358C486.654 524.382 486.654 522.799 485.677 521.822C484.701 520.846 483.118 520.846 482.142 521.822L466.232 537.732ZM824.001 537L468 537L468 542L824.001 542L824.001 537Z" fill="black"/>
<path d="M1416.77 543.762C1417.75 542.783 1417.74 541.2 1416.76 540.227L1400.8 524.366C1399.82 523.392 1398.24 523.397 1397.27 524.377C1396.29 525.356 1396.3 526.939 1397.28 527.912L1411.46 542.011L1397.37 556.196C1396.39 557.176 1396.4 558.759 1397.38 559.732C1398.36 560.705 1399.94 560.7 1400.91 559.721L1416.77 543.762ZM1089.01 545.5L1415.01 544.5L1414.99 539.5L1088.99 540.5L1089.01 545.5Z" fill="black"/>
<path d="M1415.6 866.426C1416.94 866.092 1417.76 864.736 1417.43 863.396L1411.99 841.563C1411.65 840.223 1410.3 839.407 1408.96 839.741C1407.62 840.075 1406.8 841.431 1407.14 842.771L1411.97 862.178L1392.56 867.011C1391.22 867.345 1390.41 868.702 1390.74 870.042C1391.07 871.381 1392.43 872.197 1393.77 871.863L1415.6 866.426ZM1087.71 670.143L1413.71 866.143L1416.29 861.857L1090.29 665.857L1087.71 670.143Z" fill="black"/>
<g clip-path="url(#clip0)">
<path d="M312.337 476.829C306.145 481.184 299.127 486.12 295.367 494.286C288.836 508.532 308.731 524.072 309.581 524.727C309.779 524.879 310.016 524.955 310.251 524.955C310.502 524.955 310.753 524.869 310.956 524.699C311.351 524.368 311.463 523.807 311.226 523.35C311.154 523.212 304.013 509.34 304.278 499.389C304.372 495.923 309.223 491.992 314.358 487.829C319.061 484.016 324.392 479.695 327.511 474.64C334.359 463.513 326.748 452.571 326.67 452.462C326.368 452.037 325.81 451.884 325.333 452.093C324.856 452.303 324.592 452.818 324.701 453.328C324.716 453.4 326.196 460.636 322.078 468.091C320.382 471.171 316.654 473.793 312.337 476.829Z" fill="#DB380E"/>
<path d="M338.423 481.736C338.86 481.407 338.988 480.807 338.724 480.328C338.459 479.849 337.884 479.638 337.372 479.832C336.32 480.232 311.615 489.755 311.615 501.261C311.615 509.193 315.003 513.383 317.477 516.444C318.447 517.644 319.285 518.68 319.561 519.565C320.339 522.115 318.497 526.724 317.723 528.285C317.5 528.733 317.609 529.277 317.989 529.605C318.194 529.782 318.45 529.872 318.707 529.872C318.925 529.872 319.144 529.807 319.334 529.675C319.758 529.38 329.715 522.34 327.93 513.859C327.264 510.635 325.68 508.279 324.282 506.201C322.117 502.98 320.553 500.654 322.925 496.358C325.705 491.346 338.296 481.831 338.423 481.736Z" fill="#DB380E"/>
<path d="M274.114 530.054C273.69 531.322 273.89 532.58 274.691 533.693C277.369 537.411 286.856 539.458 301.404 539.458C301.405 539.458 301.406 539.458 301.406 539.458C303.378 539.458 305.459 539.42 307.59 539.343C330.851 538.511 339.478 531.264 339.834 530.956C340.222 530.62 340.326 530.061 340.084 529.609C339.843 529.157 339.323 528.93 338.826 529.067C330.634 531.303 315.337 532.098 304.727 532.098C292.855 532.098 286.809 531.242 285.328 530.611C286.088 529.568 290.773 527.705 296.578 526.563C297.133 526.455 297.514 525.942 297.459 525.379C297.404 524.817 296.931 524.388 296.366 524.388C292.963 524.388 275.897 524.661 274.114 530.054Z" fill="#73A1FB"/>
<path d="M351.947 522.591C347.15 522.591 342.6 524.995 342.409 525.097C341.965 525.335 341.74 525.843 341.862 526.332C341.984 526.82 342.423 527.164 342.926 527.164C343.028 527.164 353.16 527.247 354.078 533.036C354.891 538.03 344.491 546.122 340.415 548.819C339.975 549.11 339.804 549.673 340.009 550.16C340.183 550.574 340.586 550.833 341.021 550.833C341.097 550.833 341.174 550.825 341.25 550.809C342.218 550.602 364.911 545.601 362.512 532.388C361.048 524.29 355.959 522.591 351.947 522.591Z" fill="#73A1FB"/>
<path d="M336.384 547.202C336.463 546.779 336.287 546.348 335.935 546.101L330.494 542.289C330.228 542.104 329.893 542.045 329.582 542.128C329.525 542.142 323.834 543.638 315.573 544.555C312.294 544.923 308.622 545.117 304.952 545.117C296.693 545.117 291.292 544.147 290.506 543.435C290.402 543.235 290.435 543.144 290.453 543.094C290.596 542.696 291.362 542.224 291.855 542.037C292.401 541.836 292.695 541.244 292.525 540.688C292.356 540.131 291.782 539.804 291.217 539.939C285.758 541.257 283.089 543.099 283.283 545.414C283.628 549.519 293.137 551.627 301.176 552.183C302.332 552.262 303.582 552.303 304.891 552.303C304.892 552.303 304.892 552.303 304.893 552.303C318.26 552.303 335.396 548.108 335.568 548.066C335.986 547.964 336.305 547.626 336.384 547.202Z" fill="#73A1FB"/>
<path d="M295.361 556.012C295.773 555.744 295.956 555.235 295.81 554.766C295.664 554.296 295.225 553.988 294.732 553.995C294 554.014 287.574 554.304 287.124 558.395C286.988 559.618 287.338 560.735 288.166 561.716C290.473 564.45 296.701 566.075 307.203 566.684C308.446 566.759 309.708 566.796 310.955 566.796C324.307 566.796 333.299 562.616 333.675 562.438C334.04 562.265 334.281 561.906 334.303 561.503C334.324 561.1 334.123 560.718 333.778 560.507L326.902 556.309C326.663 556.163 326.378 556.115 326.105 556.171C326.062 556.18 321.696 557.086 315.106 557.98C313.859 558.15 312.298 558.236 310.466 558.236C303.884 558.236 296.562 557.161 295.158 556.456C295.138 556.325 295.164 556.158 295.361 556.012Z" fill="#73A1FB"/>
<path d="M304.732 579.418C335.315 579.392 351.73 573.954 354.892 570.531C356.011 569.32 356.132 568.174 356.037 567.425C355.802 565.583 354.124 564.455 353.933 564.332C353.474 564.037 352.858 564.114 352.5 564.527C352.143 564.94 352.134 565.544 352.493 565.956C352.686 566.205 352.797 566.62 352.233 567.184C350.969 568.365 338.22 571.949 316.991 573.026C314.083 573.177 311.033 573.253 307.926 573.254C288.919 573.254 275.009 570.65 273.183 569.133C273.887 568.122 278.807 566.507 284.04 565.593C284.63 565.49 285.028 564.934 284.937 564.343C284.845 563.751 284.3 563.344 283.704 563.422C283.557 563.442 283.056 563.472 282.476 563.507C273.842 564.034 263.865 565.209 263.344 569.658C263.186 571.013 263.589 572.244 264.542 573.315C266.874 575.935 273.576 579.418 304.731 579.418C304.732 579.418 304.732 579.418 304.732 579.418Z" fill="#73A1FB"/>
<path d="M360.899 571.495C360.467 571.296 359.956 571.397 359.633 571.745C359.589 571.793 354.99 576.601 341.165 579.425C335.873 580.485 325.938 581.023 311.637 581.023C297.309 581.023 283.675 580.459 283.539 580.453C282.97 580.426 282.483 580.84 282.405 581.4C282.327 581.96 282.688 582.488 283.238 582.619C283.38 582.653 297.668 586 317.204 586C326.574 586 335.692 585.239 344.305 583.738C360.364 580.922 361.488 572.959 361.528 572.622C361.584 572.15 361.331 571.695 360.899 571.495Z" fill="#73A1FB"/>
</g>
<path d="M1609.5 476H1506.5C1499.6 476 1494 481.596 1494 488.5V591.5C1494 598.404 1499.6 604 1506.5 604H1609.5C1616.4 604 1622 598.404 1622 591.5V488.5C1622 481.596 1616.4 476 1609.5 476Z" fill="#3178C6"/>
<path d="M1609.5 476H1506.5C1499.6 476 1494 481.596 1494 488.5V591.5C1494 598.404 1499.6 604 1506.5 604H1609.5C1616.4 604 1622 598.404 1622 591.5V488.5C1622 481.596 1616.4 476 1609.5 476Z" fill="#3178C6"/>
<path fill-rule="evenodd" clip-rule="evenodd" d="M1573.23 577.856V590.371C1575.27 591.414 1577.68 592.196 1580.45 592.718C1583.23 593.239 1586.16 593.5 1589.24 593.5C1592.24 593.5 1595.09 593.213 1597.79 592.64C1600.49 592.066 1602.85 591.121 1604.89 589.804C1606.92 588.487 1608.53 586.767 1609.72 584.642C1610.91 582.517 1611.5 579.89 1611.5 576.761C1611.5 574.493 1611.16 572.505 1610.48 570.797C1609.8 569.089 1608.83 567.57 1607.55 566.241C1606.27 564.911 1604.74 563.718 1602.95 562.662C1601.16 561.606 1599.15 560.608 1596.91 559.67C1595.26 558.992 1593.79 558.334 1592.48 557.695C1591.18 557.056 1590.07 556.404 1589.16 555.74C1588.25 555.075 1587.54 554.371 1587.05 553.628C1586.55 552.884 1586.3 552.044 1586.3 551.105C1586.3 550.245 1586.52 549.469 1586.97 548.778C1587.41 548.087 1588.04 547.494 1588.85 546.998C1589.65 546.503 1590.65 546.118 1591.82 545.844C1592.99 545.571 1594.3 545.434 1595.73 545.434C1596.78 545.434 1597.88 545.512 1599.04 545.669C1600.2 545.825 1601.37 546.066 1602.54 546.392C1603.71 546.718 1604.86 547.129 1605.96 547.624C1607.07 548.12 1608.1 548.693 1609.04 549.345V537.651C1607.13 536.921 1605.05 536.38 1602.79 536.028C1600.54 535.676 1597.95 535.5 1595.03 535.5C1592.05 535.5 1589.24 535.819 1586.58 536.458C1583.92 537.097 1581.58 538.094 1579.55 539.45C1577.53 540.806 1575.93 542.533 1574.76 544.632C1573.59 546.731 1573 549.241 1573 552.161C1573 555.889 1574.08 559.07 1576.23 561.704C1578.38 564.337 1581.65 566.566 1586.03 568.392C1587.75 569.096 1589.35 569.786 1590.84 570.464C1592.33 571.142 1593.61 571.846 1594.7 572.576C1595.78 573.306 1596.63 574.101 1597.26 574.962C1597.88 575.822 1598.2 576.8 1598.2 577.895C1598.2 578.703 1598 579.453 1597.61 580.144C1597.22 580.835 1596.63 581.435 1595.83 581.943C1595.03 582.451 1594.04 582.849 1592.86 583.136C1591.67 583.423 1590.28 583.566 1588.69 583.566C1585.98 583.566 1583.29 583.09 1580.63 582.138C1577.97 581.187 1575.5 579.76 1573.23 577.856ZM1552.19 547.021H1568.25V536.75H1523.5V547.021H1539.48V592.75H1552.19V547.021Z" fill="white"/>
<path d="M1701.99 187.454C1701.98 186.166 1701.97 184.88 1701.94 183.591C1701.86 180.787 1701.69 177.958 1701.2 175.185C1700.69 172.368 1699.86 169.749 1698.56 167.19C1697.28 164.678 1695.61 162.378 1693.62 160.384C1691.62 158.39 1689.32 156.719 1686.81 155.439C1684.25 154.138 1681.63 153.312 1678.82 152.806C1676.05 152.307 1673.22 152.142 1670.41 152.066C1669.12 152.031 1667.84 152.017 1666.55 152.009C1665.02 152 1663.49 152 1661.96 152H1614.04C1612.51 152 1610.98 152 1609.45 152.009C1608.17 152.017 1606.88 152.031 1605.59 152.066C1604.89 152.085 1604.19 152.11 1603.48 152.144C1601.37 152.245 1599.26 152.432 1597.18 152.807C1595.07 153.186 1593.07 153.745 1591.12 154.55C1590.47 154.819 1589.83 155.114 1589.19 155.439C1587.31 156.399 1585.54 157.579 1583.94 158.95C1583.4 159.407 1582.88 159.885 1582.38 160.384C1580.39 162.378 1578.72 164.677 1577.44 167.19C1576.14 169.749 1575.31 172.368 1574.81 175.185C1574.31 177.958 1574.14 180.787 1574.07 183.591C1574.03 184.879 1574.02 186.166 1574.01 187.453C1574 188.982 1574 190.511 1574 192.04V239.959C1574 241.489 1574 243.017 1574.01 244.547C1574.02 245.834 1574.03 247.121 1574.07 248.407C1574.14 251.212 1574.31 254.042 1574.81 256.814C1575.31 259.63 1576.14 262.252 1577.44 264.81C1578.72 267.323 1580.39 269.622 1582.38 271.615C1584.38 273.61 1586.68 275.281 1589.19 276.561C1591.75 277.862 1594.37 278.688 1597.18 279.193C1599.96 279.692 1602.79 279.858 1605.59 279.933C1606.88 279.968 1608.17 279.983 1609.45 279.99C1610.98 280.001 1612.51 280 1614.04 280H1661.96C1663.49 280 1665.02 280.001 1666.55 279.99C1667.84 279.983 1669.12 279.968 1670.41 279.933C1673.22 279.858 1676.05 279.692 1678.82 279.193C1681.63 278.688 1684.25 277.862 1686.81 276.561C1689.32 275.281 1691.62 273.61 1693.62 271.615C1695.61 269.622 1697.28 267.323 1698.56 264.81C1699.86 262.252 1700.69 259.63 1701.2 256.814C1701.69 254.042 1701.86 251.212 1701.94 248.407C1701.97 247.121 1701.98 245.834 1701.99 244.547C1702 243.017 1702 241.489 1702 239.959V192.04C1702 190.511 1702 188.982 1701.99 187.454H1701.99Z" fill="#F05138"/>
<path d="M1675.43 231.013C1675.42 231.009 1675.42 231.006 1675.42 231.002C1675.56 230.52 1675.71 230.042 1675.83 229.548C1681.14 208.381 1668.18 183.357 1646.23 170.182C1655.85 183.216 1660.1 199.004 1656.32 212.812C1655.99 214.044 1655.58 215.226 1655.13 216.374C1654.65 216.055 1654.04 215.693 1653.21 215.24C1653.21 215.24 1631.39 201.764 1607.73 177.928C1607.11 177.303 1620.35 196.845 1635.37 212.714C1628.29 208.742 1608.57 194.393 1596.08 182.967C1597.62 185.525 1599.44 187.989 1601.45 190.36C1611.87 203.582 1625.47 219.895 1641.76 232.424C1630.31 239.428 1614.14 239.972 1598.04 232.431C1594.06 230.564 1590.31 228.312 1586.85 225.754C1593.66 236.656 1604.16 246.062 1616.94 251.554C1632.17 258.102 1647.32 257.658 1658.61 251.661L1658.6 251.674C1658.65 251.642 1658.72 251.606 1658.77 251.573C1659.23 251.324 1659.69 251.07 1660.14 250.802C1665.57 247.988 1676.28 245.133 1682.02 256.317C1683.43 259.054 1686.42 244.549 1675.43 231.017L1675.43 231.013Z" fill="white"/>
<path d="M1416 280L1480.21 215.787L1544 280H1416Z" fill="url(#paint0_linear)"/>
<path d="M1416 152H1480.21L1416 221.333V152Z" fill="url(#paint1_linear)"/>
<path d="M1480.21 152L1416 219.627V280L1480.21 215.787L1544 152H1480.21Z" fill="url(#paint2_linear)"/>
<path d="M1758.85 969.771C1783.24 969.771 1803.01 949.998 1803.01 925.607C1803.01 901.216 1783.24 881.444 1758.85 881.444C1734.46 881.444 1714.69 901.216 1714.69 925.607C1714.69 949.998 1734.46 969.771 1758.85 969.771Z" fill="#05930C"/>
<path opacity="0.1" d="M1728.24 893.865C1723.75 897.865 1720.12 902.741 1717.59 908.192C1715.05 913.643 1713.65 919.556 1713.48 925.567C1713.3 931.578 1714.36 937.56 1716.58 943.149C1718.8 948.737 1722.14 953.813 1726.39 958.065C1730.64 962.317 1735.72 965.656 1741.31 967.877C1746.9 970.098 1752.88 971.155 1758.89 970.982C1764.9 970.809 1770.81 969.41 1776.27 966.871C1781.72 964.333 1786.59 960.708 1790.59 956.218L1728.24 893.865Z" fill="white"/>
<path d="M1756.68 941.547C1753.68 943.009 1750.36 943.711 1747.02 943.59C1744.82 943.687 1742.61 943.311 1740.56 942.487C1738.52 941.664 1736.67 940.411 1735.14 938.815C1732.07 935.376 1730.47 930.873 1730.68 926.27C1730.58 923.8 1730.96 921.335 1731.83 919.019C1732.69 916.703 1734.01 914.583 1735.71 912.786C1737.36 911.091 1739.35 909.76 1741.56 908.878C1743.76 907.996 1746.12 907.584 1748.49 907.666C1751.28 907.559 1754.07 908.029 1756.68 909.046V913.393C1754.15 911.987 1751.3 911.268 1748.4 911.309C1746.6 911.249 1744.81 911.576 1743.14 912.266C1741.47 912.956 1739.97 913.995 1738.74 915.312C1736.16 918.257 1734.82 922.093 1735.02 926.007C1734.82 929.706 1736.07 933.336 1738.49 936.137C1739.65 937.386 1741.07 938.37 1742.65 939.02C1744.23 939.67 1745.93 939.972 1747.63 939.905C1750.81 939.984 1753.95 939.177 1756.7 937.573L1756.68 941.547Z" fill="white"/>
<path d="M1787.5 917.961L1786.95 920.528H1780.6L1779.08 927.815H1785.9L1785.25 930.382H1778.57L1776.43 940.043H1773.38L1775.47 930.382H1769.39L1767.35 940.043H1764.37L1766.41 930.382H1760.01L1760.49 927.815H1766.92L1768.4 920.542H1761.68L1762.19 917.975H1768.91L1770.95 908.218H1774.03L1771.99 917.975H1778.1L1780.19 908.218H1783.17L1781.12 917.975L1787.5 917.961ZM1777.61 920.528H1771.48L1769.89 927.815H1776.05L1777.61 920.528Z" fill="white"/>
<path d="M1439.09 908.56C1438.62 908.56 1438.51 908.327 1438.74 907.977L1441.19 904.826C1441.42 904.476 1442.01 904.242 1442.47 904.242H1484.14C1484.61 904.242 1484.72 904.592 1484.49 904.942L1482.51 907.977C1482.27 908.327 1481.69 908.677 1481.34 908.677L1439.09 908.56Z" fill="#00ACD7"/>
<path d="M1421.47 919.298C1421 919.298 1420.88 919.064 1421.12 918.714L1423.57 915.563C1423.8 915.213 1424.38 914.979 1424.85 914.979H1478.07C1478.54 914.979 1478.77 915.329 1478.65 915.68L1477.72 918.481C1477.6 918.947 1477.14 919.181 1476.67 919.181L1421.47 919.298Z" fill="#00ACD7"/>
<path d="M1449.71 930.035C1449.24 930.035 1449.13 929.685 1449.36 929.335L1450.99 926.417C1451.23 926.067 1451.7 925.717 1452.16 925.717H1475.5C1475.97 925.717 1476.2 926.067 1476.2 926.534L1475.97 929.335C1475.97 929.802 1475.5 930.152 1475.15 930.152L1449.71 930.035Z" fill="#00ACD7"/>
<path d="M1570.86 906.46C1563.5 908.327 1558.48 909.727 1551.25 911.595C1549.5 912.062 1549.38 912.178 1547.86 910.428C1546.11 908.444 1544.83 907.16 1542.38 905.993C1535.03 902.375 1527.91 903.425 1521.25 907.743C1513.32 912.879 1509.23 920.465 1509.35 929.918C1509.47 939.255 1515.89 946.958 1525.11 948.242C1533.04 949.292 1539.69 946.491 1544.95 940.539C1546 939.255 1546.93 937.854 1548.1 936.221C1543.9 936.221 1538.64 936.221 1525.57 936.221C1523.12 936.221 1522.54 934.703 1523.35 932.719C1524.87 929.101 1527.67 923.032 1529.31 919.998C1529.66 919.298 1530.47 918.131 1532.22 918.131C1538.18 918.131 1560.12 918.131 1574.71 918.131C1574.47 921.282 1574.47 924.433 1574.01 927.584C1572.72 935.987 1569.57 943.69 1564.44 950.459C1556.03 961.547 1545.06 968.432 1531.17 970.3C1519.74 971.817 1509.12 969.599 1499.78 962.597C1491.14 956.061 1486.24 947.425 1484.96 936.687C1483.44 923.966 1487.17 912.528 1494.88 902.491C1503.16 891.637 1514.13 884.752 1527.56 882.301C1538.53 880.317 1549.03 881.6 1558.48 888.019C1564.67 892.104 1569.1 897.706 1572.02 904.476C1572.72 905.526 1572.26 906.109 1570.86 906.46Z" fill="#00ACD7"/>
<path d="M1609.49 971C1598.87 970.767 1589.18 967.732 1581.01 960.73C1574.12 954.777 1569.8 947.191 1568.4 938.205C1566.3 925.016 1569.92 913.345 1577.86 902.958C1586.38 891.754 1596.65 885.919 1610.54 883.468C1622.44 881.367 1633.64 882.534 1643.8 889.42C1653.02 895.722 1658.74 904.242 1660.25 915.446C1662.24 931.202 1657.69 944.04 1646.83 955.011C1639.13 962.83 1629.68 967.732 1618.82 969.95C1615.67 970.533 1612.52 970.65 1609.49 971ZM1637.26 923.849C1637.15 922.332 1637.15 921.165 1636.91 919.998C1634.81 908.444 1624.19 901.908 1613.1 904.476C1602.25 906.926 1595.25 913.812 1592.68 924.783C1590.58 933.886 1595.01 943.106 1603.42 946.841C1609.84 949.642 1616.26 949.292 1622.44 946.141C1631.66 941.356 1636.68 933.886 1637.26 923.849Z" fill="#00ACD7"/>
<path fill-rule="evenodd" clip-rule="evenodd" d="M1638.1 766C1637.87 766.003 1637.64 766.058 1637.43 766.179C1637.02 766.42 1636.76 766.863 1636.76 767.339V801.491C1636.76 801.826 1636.6 802.126 1636.31 802.295C1636.02 802.463 1635.67 802.463 1635.38 802.295L1629.8 799.08C1628.96 798.601 1627.95 798.601 1627.12 799.08L1604.84 811.937C1604.01 812.418 1603.5 813.342 1603.5 814.303V840.017C1603.5 840.978 1604.01 841.858 1604.84 842.339L1627.12 855.196C1627.95 855.676 1628.96 855.676 1629.8 855.196L1652.07 842.339C1652.91 841.858 1653.41 840.978 1653.41 840.017V775.911C1653.41 774.936 1652.88 774.02 1652.03 773.545L1638.77 766.134C1638.56 766.018 1638.33 765.998 1638.1 766V766ZM1494.8 798.098C1494.37 798.115 1493.97 798.189 1493.59 798.411L1471.32 811.268C1470.49 811.747 1469.98 812.621 1469.98 813.589L1470.02 848.098C1470.02 848.578 1470.27 849.023 1470.69 849.259C1471.1 849.506 1471.62 849.506 1472.03 849.259L1485.24 841.669C1486.08 841.172 1486.63 840.307 1486.63 839.348V823.232C1486.63 822.271 1487.13 821.388 1487.97 820.91L1493.59 817.652C1494.01 817.409 1494.46 817.294 1494.93 817.294C1495.39 817.294 1495.86 817.409 1496.27 817.652L1501.9 820.91C1502.73 821.388 1503.23 822.271 1503.23 823.232V839.348C1503.23 840.307 1503.79 841.177 1504.62 841.669L1517.83 849.259C1518.25 849.506 1518.76 849.506 1519.17 849.259C1519.58 849.023 1519.84 848.578 1519.84 848.098L1519.89 813.589C1519.89 812.621 1519.38 811.747 1518.55 811.268L1496.27 798.411C1495.89 798.189 1495.49 798.115 1495.07 798.098H1494.8H1494.8ZM1694.97 798.411C1694.51 798.41 1694.05 798.528 1693.64 798.768L1671.36 811.625C1670.53 812.105 1670.02 812.985 1670.02 813.946V839.66C1670.02 840.627 1670.56 841.504 1671.4 841.982L1693.5 854.571C1694.32 855.037 1695.31 855.072 1696.14 854.615L1709.53 847.16C1709.95 846.924 1710.24 846.484 1710.24 845.999C1710.24 845.514 1709.99 845.08 1709.57 844.838L1687.16 831.981C1686.74 831.742 1686.45 831.257 1686.45 830.776V822.74C1686.45 822.26 1686.75 821.82 1687.16 821.58L1694.13 817.562C1694.54 817.322 1695.05 817.322 1695.47 817.562L1702.43 821.58C1702.85 821.82 1703.1 822.26 1703.1 822.74V829.08C1703.1 829.561 1703.35 830 1703.77 830.24C1704.19 830.481 1704.69 830.482 1705.11 830.24L1718.46 822.473C1719.28 821.991 1719.8 821.109 1719.8 820.151V813.946C1719.8 812.987 1719.29 812.106 1718.46 811.624L1696.31 798.767C1695.9 798.526 1695.44 798.411 1694.97 798.41V798.411ZM1628.37 817.607C1628.48 817.607 1628.62 817.635 1628.72 817.695L1636.36 822.115C1636.57 822.235 1636.72 822.456 1636.72 822.695V831.535C1636.72 831.775 1636.57 831.996 1636.36 832.115L1628.72 836.535C1628.52 836.653 1628.26 836.653 1628.06 836.535L1620.42 832.115C1620.21 831.995 1620.06 831.775 1620.06 831.535V822.695C1620.06 822.456 1620.21 822.236 1620.42 822.115L1628.06 817.696C1628.16 817.636 1628.25 817.608 1628.37 817.608V817.607Z" fill="#404137"/>
<path fill-rule="evenodd" clip-rule="evenodd" d="M1761.71 797.786C1760.94 797.786 1760.19 797.945 1759.53 798.321L1738.5 810.464C1737.14 811.248 1736.31 812.728 1736.31 814.303V838.544C1736.31 840.118 1737.14 841.598 1738.5 842.383L1743.99 845.553C1746.66 846.868 1747.64 846.848 1748.86 846.848C1752.81 846.848 1755.06 844.451 1755.06 840.285V816.357C1755.06 816.019 1754.77 815.776 1754.44 815.776H1751.8C1751.47 815.776 1751.18 816.019 1751.18 816.357V840.285C1751.18 842.132 1749.26 843.989 1746.13 842.428L1740.42 839.08C1740.22 838.97 1740.06 838.776 1740.06 838.544V814.303C1740.06 814.073 1740.22 813.839 1740.42 813.723L1761.4 801.625C1761.6 801.512 1761.83 801.512 1762.03 801.625L1783.01 813.723C1783.21 813.843 1783.37 814.066 1783.37 814.303V838.544C1783.37 838.776 1783.25 839.013 1783.05 839.125L1762.03 851.223C1761.85 851.33 1761.6 851.33 1761.4 851.223L1756 848.009C1755.84 847.914 1755.62 847.921 1755.46 848.009C1753.97 848.854 1753.69 848.952 1752.3 849.437C1751.95 849.557 1751.43 849.744 1752.47 850.33L1759.53 854.482C1760.2 854.87 1760.95 855.062 1761.71 855.062C1762.49 855.062 1763.23 854.87 1763.9 854.482L1784.93 842.383C1786.29 841.592 1787.12 840.118 1787.12 838.544V814.303C1787.12 812.728 1786.29 811.251 1784.93 810.464L1763.9 798.321C1763.24 797.945 1762.49 797.786 1761.71 797.786ZM1561.72 798.277C1561.25 798.277 1560.79 798.394 1560.38 798.634L1538.1 811.446C1537.27 811.926 1536.76 812.852 1536.76 813.812V839.526C1536.76 840.488 1537.27 841.367 1538.1 841.848L1560.38 854.705C1561.21 855.186 1562.22 855.186 1563.06 854.705L1585.33 841.848C1586.16 841.367 1586.67 840.488 1586.67 839.526V813.812C1586.67 812.85 1586.17 811.926 1585.33 811.446L1563.06 798.634C1562.64 798.394 1562.18 798.277 1561.72 798.277ZM1792.92 798.411V799.036H1794.66V803.634H1795.38V799.036H1797.16V798.411H1792.92ZM1797.79 798.411V803.634H1798.46V800.554C1798.46 800.428 1798.46 800.234 1798.46 799.973C1798.45 799.708 1798.46 799.477 1798.46 799.348V799.214L1799.93 803.634H1800.64L1802.16 799.214C1802.16 799.495 1802.12 799.767 1802.12 800.018C1802.11 800.262 1802.12 800.445 1802.12 800.553V803.634H1802.79V798.41H1801.8L1800.29 802.83L1798.81 798.41H1797.79L1797.79 798.411ZM1767.34 815.107C1761.35 815.107 1757.79 817.655 1757.79 821.893C1757.79 826.49 1761.33 827.753 1767.07 828.321C1773.95 828.994 1774.48 830.004 1774.48 831.357C1774.48 833.704 1772.61 834.705 1768.19 834.705C1762.63 834.705 1761.41 833.318 1761 830.554C1760.95 830.257 1760.72 830.018 1760.42 830.018H1757.7C1757.36 830.018 1757.07 830.306 1757.07 830.643C1757.07 834.181 1759 838.366 1768.19 838.366C1774.84 838.366 1778.68 835.754 1778.68 831.179C1778.68 826.642 1775.58 825.425 1769.13 824.571C1762.6 823.709 1761.98 823.286 1761.98 821.759C1761.98 820.498 1762.51 818.812 1767.34 818.812C1771.65 818.812 1773.25 819.743 1773.9 822.652C1773.96 822.925 1774.2 823.143 1774.48 823.143H1777.21C1777.37 823.143 1777.54 823.04 1777.65 822.92C1777.77 822.791 1777.85 822.646 1777.83 822.473C1777.41 817.463 1774.07 815.107 1767.34 815.107ZM1694.93 821.223C1694.84 821.223 1694.74 821.223 1694.66 821.268L1690.38 823.768C1690.22 823.859 1690.11 824.029 1690.11 824.214V829.125C1690.11 829.309 1690.22 829.479 1690.38 829.571L1694.66 832.026C1694.82 832.119 1694.99 832.119 1695.15 832.026L1699.44 829.571C1699.6 829.48 1699.71 829.309 1699.71 829.125V824.214C1699.71 824.029 1699.6 823.86 1699.44 823.768L1695.15 821.268C1695.07 821.22 1695.02 821.223 1694.93 821.223Z" fill="#83CD29"/>
<defs>
<linearGradient id="paint0_linear" x1="1450.05" y1="309.897" x2="1510.52" y2="249.422" gradientUnits="userSpaceOnUse">
<stop offset="0.09677" stop-color="#0095D5"/>
<stop offset="0.3007" stop-color="#238AD9"/>
<stop offset="0.6211" stop-color="#557BDE"/>
<stop offset="0.8643" stop-color="#7472E2"/>
<stop offset="1" stop-color="#806EE3"/>
</linearGradient>
<linearGradient id="paint1_linear" x1="1424.98" y1="177.726" x2="1460.1" y2="142.603" gradientUnits="userSpaceOnUse">
<stop offset="0.1183" stop-color="#0095D5"/>
<stop offset="0.4178" stop-color="#3C83DC"/>
<stop offset="0.6962" stop-color="#6D74E1"/>
<stop offset="0.8333" stop-color="#806EE3"/>
</linearGradient>
<linearGradient id="paint2_linear" x1="1394.45" y1="269.683" x2="1513.56" y2="150.572" gradientUnits="userSpaceOnUse">
<stop offset="0.1075" stop-color="#C757BC"/>
<stop offset="0.2138" stop-color="#D0609A"/>
<stop offset="0.4254" stop-color="#E1725C"/>
<stop offset="0.6048" stop-color="#EE7E2F"/>
<stop offset="0.743" stop-color="#F58613"/>
<stop offset="0.8232" stop-color="#F88909"/>
</linearGradient>
<clipPath id="clip0">
<rect width="134" height="134" fill="white" transform="translate(246 452)"/>
</clipPath>
</defs>
</svg>
