<svg width="1920" height="1080" viewBox="0 0 1920 1080" fill="none" xmlns="http://www.w3.org/2000/svg">
<rect width="1920" height="1080" fill="white"/>
<path d="M1256.88 537.879C1255.71 539.05 1255.71 540.95 1256.88 542.121L1275.97 561.213C1277.14 562.385 1279.04 562.385 1280.21 561.213C1281.38 560.042 1281.38 558.142 1280.21 556.971L1263.24 540L1280.21 523.029C1281.38 521.858 1281.38 519.958 1280.21 518.787C1279.04 517.615 1277.14 517.615 1275.97 518.787L1256.88 537.879ZM1412.12 542.121C1413.29 540.95 1413.29 539.05 1412.12 537.879L1393.03 518.787C1391.86 517.615 1389.96 517.615 1388.79 518.787C1387.62 519.958 1387.62 521.858 1388.79 523.029L1405.76 540L1388.79 556.971C1387.62 558.142 1387.62 560.042 1388.79 561.213C1389.96 562.385 1391.86 562.385 1393.03 561.213L1412.12 542.121ZM1259 543L1410 543L1410 537L1259 537L1259 543Z" fill="black"/>
<path d="M517.879 537.879C516.707 539.05 516.707 540.95 517.879 542.121L536.971 561.213C538.142 562.385 540.042 562.385 541.213 561.213C542.385 560.042 542.385 558.142 541.213 556.971L524.243 540L541.213 523.029C542.385 521.858 542.385 519.958 541.213 518.787C540.042 517.615 538.142 517.615 536.971 518.787L517.879 537.879ZM672.121 542.121C673.293 540.95 673.293 539.05 672.121 537.879L653.029 518.787C651.858 517.615 649.958 517.615 648.787 518.787C647.615 519.958 647.615 521.858 648.787 523.029L665.757 540L648.787 556.971C647.615 558.142 647.615 560.042 648.787 561.213C649.958 562.385 651.858 562.385 653.029 561.213L672.121 542.121ZM520 543L670 543L670 537L520 537L520 543Z" fill="black"/>
<path d="M324.5 585H332C333.989 585 335.897 585.79 337.303 587.197C338.71 588.603 339.5 590.511 339.5 592.5H392V607.5H339.5C339.5 609.489 338.71 611.397 337.303 612.803C335.897 614.21 333.989 615 332 615H302C300.011 615 298.103 614.21 296.697 612.803C295.29 611.397 294.5 609.489 294.5 607.5H242V592.5H294.5C294.5 590.511 295.29 588.603 296.697 587.197C298.103 585.79 300.011 585 302 585H309.5V570H257C255.011 570 253.103 569.21 251.697 567.803C250.29 566.397 249.5 564.489 249.5 562.5V532.5C249.5 530.511 250.29 528.603 251.697 527.197C253.103 525.79 255.011 525 257 525H377C378.989 525 380.897 525.79 382.303 527.197C383.71 528.603 384.5 530.511 384.5 532.5V562.5C384.5 564.489 383.71 566.397 382.303 567.803C380.897 569.21 378.989 570 377 570H324.5V585ZM257 465H377C378.989 465 380.897 465.79 382.303 467.197C383.71 468.603 384.5 470.511 384.5 472.5V502.5C384.5 504.489 383.71 506.397 382.303 507.803C380.897 509.21 378.989 510 377 510H257C255.011 510 253.103 509.21 251.697 507.803C250.29 506.397 249.5 504.489 249.5 502.5V472.5C249.5 470.511 250.29 468.603 251.697 467.197C253.103 465.79 255.011 465 257 465M294.5 495H302V480H294.5V495ZM294.5 555H302V540H294.5V555ZM264.5 480V495H279.5V480H264.5ZM264.5 540V555H279.5V540H264.5Z" fill="black"/>
<path d="M1572.09 594.545H1599.36V587.727H1572.09V594.545ZM1551.64 615C1547.89 615 1544.68 613.666 1542.01 610.998C1539.34 608.325 1538 605.114 1538 601.364V478.636C1538 474.886 1539.34 471.675 1542.01 469.002C1544.68 466.334 1547.89 465 1551.64 465H1619.82C1623.57 465 1626.78 466.334 1629.45 469.002C1632.12 471.675 1633.45 474.886 1633.45 478.636V601.364C1633.45 605.114 1632.12 608.325 1629.45 610.998C1626.78 613.666 1623.57 615 1619.82 615H1551.64ZM1551.64 567.273H1619.82V499.091H1551.64V567.273Z" fill="black"/>
<path d="M782.969 521V462.818H808.082C812.401 462.818 816.179 463.604 819.418 465.176C822.656 466.748 825.175 469.011 826.974 471.966C828.774 474.92 829.673 478.462 829.673 482.591C829.673 486.758 828.745 490.271 826.889 493.131C825.052 495.991 822.467 498.15 819.134 499.608C815.819 501.066 811.946 501.795 807.514 501.795H792.514V489.523H804.332C806.188 489.523 807.77 489.295 809.077 488.841C810.402 488.367 811.416 487.619 812.116 486.597C812.836 485.574 813.196 484.239 813.196 482.591C813.196 480.924 812.836 479.57 812.116 478.528C811.416 477.468 810.402 476.691 809.077 476.199C807.77 475.687 806.188 475.432 804.332 475.432H798.764V521H782.969ZM817.06 494.295L831.605 521H814.446L800.241 494.295H817.06ZM836.406 521V462.818H878.338V475.545H852.202V485.545H876.179V498.273H852.202V508.273H878.224V521H836.406ZM917.536 481C917.384 479.106 916.674 477.629 915.405 476.568C914.155 475.508 912.251 474.977 909.695 474.977C908.066 474.977 906.731 475.176 905.689 475.574C904.666 475.953 903.909 476.473 903.416 477.136C902.924 477.799 902.668 478.557 902.649 479.409C902.611 480.11 902.734 480.744 903.018 481.312C903.321 481.862 903.795 482.364 904.439 482.818C905.083 483.254 905.907 483.652 906.911 484.011C907.914 484.371 909.107 484.693 910.49 484.977L915.263 486C918.482 486.682 921.238 487.581 923.53 488.699C925.821 489.816 927.696 491.133 929.155 492.648C930.613 494.144 931.683 495.83 932.365 497.705C933.066 499.58 933.426 501.625 933.445 503.841C933.426 507.667 932.469 510.905 930.575 513.557C928.681 516.208 925.973 518.225 922.45 519.608C918.946 520.991 914.732 521.682 909.808 521.682C904.751 521.682 900.339 520.934 896.57 519.438C892.82 517.941 889.903 515.64 887.82 512.534C885.755 509.409 884.714 505.413 884.695 500.545H899.695C899.789 502.326 900.234 503.822 901.03 505.034C901.825 506.246 902.943 507.165 904.382 507.79C905.84 508.415 907.573 508.727 909.581 508.727C911.267 508.727 912.678 508.519 913.814 508.102C914.95 507.686 915.812 507.108 916.399 506.369C916.986 505.631 917.289 504.788 917.308 503.841C917.289 502.951 916.996 502.174 916.428 501.511C915.878 500.83 914.969 500.223 913.7 499.693C912.431 499.144 910.717 498.633 908.558 498.159L902.763 496.909C897.611 495.792 893.549 493.926 890.575 491.312C887.621 488.68 886.153 485.091 886.172 480.545C886.153 476.852 887.138 473.623 889.126 470.858C891.134 468.074 893.909 465.905 897.45 464.352C901.011 462.799 905.092 462.023 909.695 462.023C914.392 462.023 918.454 462.809 921.882 464.381C925.31 465.953 927.952 468.169 929.808 471.028C931.683 473.869 932.63 477.193 932.649 481H917.536ZM937.862 475.545V462.818H988.43V475.545H970.93V521H955.362V475.545H937.862ZM994.375 521V462.818H1035.28V475.545H1010.17V485.545H1032.78V498.273H1010.17V521H994.375ZM1075.53 462.818H1091.32V500.091C1091.32 504.523 1090.26 508.358 1088.14 511.597C1086.04 514.816 1083.1 517.307 1079.33 519.068C1075.56 520.811 1071.19 521.682 1066.21 521.682C1061.19 521.682 1056.79 520.811 1053.03 519.068C1049.26 517.307 1046.32 514.816 1044.22 511.597C1042.14 508.358 1041.09 504.523 1041.09 500.091V462.818H1056.89V498.727C1056.89 500.527 1057.29 502.136 1058.08 503.557C1058.88 504.958 1059.98 506.057 1061.38 506.852C1062.8 507.648 1064.41 508.045 1066.21 508.045C1068.03 508.045 1069.64 507.648 1071.04 506.852C1072.44 506.057 1073.54 504.958 1074.33 503.557C1075.13 502.136 1075.53 500.527 1075.53 498.727V462.818ZM1098.83 521V462.818H1114.62V508.273H1138.15V521H1098.83ZM885.621 618H868.576L887.781 559.818H909.371L928.576 618H911.531L898.803 575.841H898.349L885.621 618ZM882.44 595.045H914.485V606.864H882.44V595.045ZM934.18 618V559.818H959.293C963.612 559.818 967.39 560.67 970.629 562.375C973.867 564.08 976.386 566.475 978.185 569.562C979.985 572.65 980.884 576.258 980.884 580.386C980.884 584.553 979.956 588.161 978.1 591.21C976.263 594.259 973.678 596.608 970.344 598.256C967.03 599.903 963.157 600.727 958.725 600.727H943.725V588.455H955.543C957.399 588.455 958.981 588.133 960.288 587.489C961.613 586.826 962.627 585.888 963.327 584.676C964.047 583.464 964.407 582.034 964.407 580.386C964.407 578.72 964.047 577.299 963.327 576.125C962.627 574.932 961.613 574.023 960.288 573.398C958.981 572.754 957.399 572.432 955.543 572.432H949.975V618H934.18ZM1002.48 559.818V618H986.68V559.818H1002.48ZM1050.07 588.568H1035.64C1035.57 587.678 1035.25 586.911 1034.71 586.267C1034.16 585.623 1033.45 585.131 1032.57 584.79C1031.72 584.43 1030.78 584.25 1029.73 584.25C1028.39 584.25 1027.23 584.496 1026.27 584.989C1025.3 585.481 1024.83 586.182 1024.85 587.091C1024.83 587.735 1025.1 588.331 1025.67 588.881C1026.26 589.43 1027.39 589.856 1029.05 590.159L1037.92 591.75C1042.39 592.564 1045.71 593.937 1047.89 595.869C1050.08 597.782 1051.19 600.348 1051.21 603.568C1051.19 606.674 1050.26 609.373 1048.43 611.665C1046.61 613.937 1044.12 615.699 1040.96 616.949C1037.81 618.18 1034.22 618.795 1030.19 618.795C1023.52 618.795 1018.3 617.432 1014.53 614.705C1010.78 611.977 1008.69 608.379 1008.26 603.909H1023.82C1024.03 605.292 1024.71 606.362 1025.87 607.119C1027.04 607.858 1028.52 608.227 1030.3 608.227C1031.74 608.227 1032.92 607.981 1033.85 607.489C1034.8 606.996 1035.28 606.295 1035.3 605.386C1035.28 604.553 1034.87 603.89 1034.05 603.398C1033.26 602.905 1032.01 602.508 1030.3 602.205L1022.57 600.841C1018.12 600.064 1014.79 598.587 1012.57 596.409C1010.36 594.231 1009.26 591.428 1009.28 588C1009.26 584.97 1010.06 582.403 1011.67 580.301C1013.29 578.18 1015.61 576.57 1018.63 575.472C1021.66 574.354 1025.25 573.795 1029.39 573.795C1035.7 573.795 1040.67 575.102 1044.31 577.716C1047.96 580.33 1049.89 583.947 1050.07 588.568Z" fill="black"/>
</svg>
