<svg width="1920" height="1080" viewBox="0 0 1920 1080" fill="none" xmlns="http://www.w3.org/2000/svg">
<rect width="1920" height="1080" fill="white"/>
<line x1="479" y1="535" x2="1441" y2="535" stroke="black" stroke-width="10"/>
<line x1="528.309" y1="418.175" x2="1394.31" y2="653.174" stroke="black" stroke-width="10"/>
<line x1="569.346" y1="323.584" x2="1354.35" y2="740.584" stroke="black" stroke-width="10"/>
<line x1="615.262" y1="204.527" x2="1311.64" y2="868.234" stroke="black" stroke-width="10"/>
<line x1="737.277" y1="158.41" x2="1190.28" y2="906.41" stroke="black" stroke-width="10"/>
<line x1="846.811" y1="119.638" x2="1081.81" y2="949.638" stroke="black" stroke-width="10"/>
<line x1="964" y1="73" x2="964" y2="1000" stroke="black" stroke-width="10"/>
<line x1="1081.81" y1="122.362" x2="846.811" y2="952.362" stroke="black" stroke-width="10"/>
<line x1="1190.32" y1="149.509" x2="738.325" y2="928.509" stroke="black" stroke-width="10"/>
<path d="M1304 193.5L616.5 877.5" stroke="black" stroke-width="10"/>
<path d="M1352.5 315L566.5 761.5" stroke="black" stroke-width="10"/>
<line x1="1394.31" y1="426.825" x2="528.309" y2="661.826" stroke="black" stroke-width="10"/>
<circle cx="1303.66" cy="195.523" r="26.6396" transform="rotate(45 1303.66 195.523)" fill="#ED7F53" stroke="white" stroke-width="20"/>
<circle cx="1352.4" cy="313.183" r="26.6396" transform="rotate(90 1352.4 313.183)" fill="#ED7F53" stroke="white" stroke-width="20"/>
<circle cx="1352.4" cy="313.183" r="26.6396" transform="rotate(90 1352.4 313.183)" fill="#ED7F53" stroke="white" stroke-width="20"/>
<circle cx="1186" cy="146.787" r="26.6396" transform="rotate(-180 1186 146.787)" fill="#ED7F53" stroke="white" stroke-width="20"/>
<circle cx="1186" cy="146.787" r="26.6396" transform="rotate(-180 1186 146.787)" fill="#ED7F53" stroke="white" stroke-width="20"/>
<circle cx="1303.69" cy="862.597" r="26.6396" transform="rotate(135 1303.69 862.597)" fill="#ED7F53" stroke="white" stroke-width="20"/>
<circle cx="1186.03" cy="911.334" r="26.6396" transform="rotate(-180 1186.03 911.334)" fill="#ED7F53" stroke="white" stroke-width="20"/>
<circle cx="1186.03" cy="911.334" r="26.6396" transform="rotate(-180 1186.03 911.334)" fill="#ED7F53" stroke="white" stroke-width="20"/>
<circle cx="1352.42" cy="744.938" r="26.6396" transform="rotate(-90 1352.42 744.938)" fill="#ED7F53" stroke="white" stroke-width="20"/>
<circle cx="1352.42" cy="744.938" r="26.6396" transform="rotate(-90 1352.42 744.938)" fill="#ED7F53" stroke="white" stroke-width="20"/>
<circle cx="1441.27" cy="539.431" r="26.6396" transform="rotate(90 1441.27 539.431)" fill="#ED7F53" stroke="white" stroke-width="20"/>
<circle cx="1392.53" cy="657.09" r="26.6396" transform="rotate(135 1392.53 657.09)" fill="#ED7F53" stroke="white" stroke-width="20"/>
<circle cx="1392.53" cy="657.09" r="26.6396" transform="rotate(135 1392.53 657.09)" fill="#ED7F53" stroke="white" stroke-width="20"/>
<circle cx="1392.53" cy="421.771" r="26.6396" transform="rotate(-135 1392.53 421.771)" fill="#ED7F53" stroke="white" stroke-width="20"/>
<circle cx="1392.53" cy="421.771" r="26.6396" transform="rotate(-135 1392.53 421.771)" fill="#ED7F53" stroke="white" stroke-width="20"/>
<circle cx="959.777" cy="1000.08" r="26.6396" transform="rotate(-180 959.777 1000.08)" fill="#ED7F53" stroke="white" stroke-width="20"/>
<circle cx="842.118" cy="951.341" r="26.6396" transform="rotate(-135 842.118 951.341)" fill="#ED7F53" stroke="white" stroke-width="20"/>
<circle cx="842.118" cy="951.341" r="26.6396" transform="rotate(-135 842.118 951.341)" fill="#ED7F53" stroke="white" stroke-width="20"/>
<circle cx="1077.44" cy="951.341" r="26.6396" transform="rotate(-45 1077.44 951.341)" fill="#ED7F53" stroke="white" stroke-width="20"/>
<circle cx="1077.44" cy="951.341" r="26.6396" transform="rotate(-45 1077.44 951.341)" fill="#ED7F53" stroke="white" stroke-width="20"/>
<circle cx="616.057" cy="877.194" r="26.6396" transform="rotate(-135 616.057 877.194)" fill="#ED7F53" stroke="white" stroke-width="20"/>
<circle cx="567.32" cy="759.534" r="26.6396" transform="rotate(-90 567.32 759.534)" fill="#ED7F53" stroke="white" stroke-width="20"/>
<circle cx="567.32" cy="759.534" r="26.6396" transform="rotate(-90 567.32 759.534)" fill="#ED7F53" stroke="white" stroke-width="20"/>
<circle cx="733.716" cy="925.93" r="26.6396" fill="#ED7F53" stroke="white" stroke-width="20"/>
<circle cx="733.716" cy="925.93" r="26.6396" fill="#ED7F53" stroke="white" stroke-width="20"/>
<circle cx="616.03" cy="210.12" r="26.6396" transform="rotate(-45 616.03 210.12)" fill="#ED7F53" stroke="white" stroke-width="20"/>
<circle cx="733.689" cy="161.383" r="26.6396" fill="#ED7F53" stroke="white" stroke-width="20"/>
<circle cx="733.689" cy="161.383" r="26.6396" fill="#ED7F53" stroke="white" stroke-width="20"/>
<circle cx="567.294" cy="327.779" r="26.6396" transform="rotate(90 567.294 327.779)" fill="#ED7F53" stroke="white" stroke-width="20"/>
<circle cx="567.294" cy="327.779" r="26.6396" transform="rotate(90 567.294 327.779)" fill="#ED7F53" stroke="white" stroke-width="20"/>
<circle cx="478.577" cy="540.191" r="26.6396" transform="rotate(-90 478.577 540.191)" fill="#ED7F53" stroke="white" stroke-width="20"/>
<circle cx="527.314" cy="422.532" r="26.6396" transform="rotate(-45 527.314 422.532)" fill="#ED7F53" stroke="white" stroke-width="20"/>
<circle cx="527.314" cy="422.532" r="26.6396" transform="rotate(-45 527.314 422.532)" fill="#ED7F53" stroke="white" stroke-width="20"/>
<circle cx="527.313" cy="657.851" r="26.6396" transform="rotate(45 527.313 657.851)" fill="#ED7F53" stroke="white" stroke-width="20"/>
<circle cx="527.313" cy="657.851" r="26.6396" transform="rotate(45 527.313 657.851)" fill="#ED7F53" stroke="white" stroke-width="20"/>
<circle cx="959.938" cy="72.6396" r="26.6396" fill="#ED7F53" stroke="white" stroke-width="20"/>
<circle cx="1077.6" cy="121.376" r="26.6396" transform="rotate(45 1077.6 121.376)" fill="#ED7F53" stroke="white" stroke-width="20"/>
<circle cx="1077.6" cy="121.376" r="26.6396" transform="rotate(45 1077.6 121.376)" fill="#ED7F53" stroke="white" stroke-width="20"/>
<circle cx="842.279" cy="121.376" r="26.6396" transform="rotate(135 842.279 121.376)" fill="#ED7F53" stroke="white" stroke-width="20"/>
<circle cx="842.279" cy="121.376" r="26.6396" transform="rotate(135 842.279 121.376)" fill="#ED7F53" stroke="white" stroke-width="20"/>
<circle cx="960" cy="540" r="255" fill="white"/>
<path d="M869.621 516.135L830 605.116L875.756 625.495L894.998 582.271C906.26 556.979 894.891 527.376 869.621 516.135Z" fill="black"/>
<path d="M844.216 450C832.975 475.27 844.344 504.873 869.614 516.135L889.993 470.379L844.216 450Z" fill="black"/>
<path d="M1003.52 500.626C1027.29 500.626 1046.63 519.975 1046.63 543.743C1046.63 567.511 1027.29 586.861 1003.52 586.861C979.748 586.861 960.399 567.511 960.399 543.743C960.399 519.975 979.748 500.626 1003.52 500.626ZM1003.52 457.486C955.873 457.486 917.26 496.099 917.26 543.743C917.26 591.387 955.873 630 1003.52 630C1051.16 630 1089.77 591.387 1089.77 543.743C1089.77 496.121 1051.16 457.486 1003.52 457.486Z" fill="black"/>
</svg>
