<svg width="1920" height="1080" viewBox="0 0 1920 1080" fill="none" xmlns="http://www.w3.org/2000/svg">
  <rect width="1920" height="1080" fill="white" />
  <g opacity="0.25">
    <path d="M901.159 469.385L906.55 472.498L966.606 368.48L961.215 365.368L901.159 469.385Z" fill="#E535AB" />
    <path d="M1020.04 461.075H899.925V467.3H1020.04V461.075Z" fill="#E535AB" />
    <path d="M902.302 464.572L962.381 499.26L965.493 493.869L905.415 459.181L902.302 464.572Z" fill="#E535AB" />
    <path d="M954.493 374.167L1014.57 408.855L1017.68 403.464L957.605 368.777L954.493 374.167Z" fill="#E535AB" />
    <path d="M902.318 403.44L905.431 408.831L965.509 374.144L962.397 368.753L902.318 403.44Z" fill="#E535AB" />
    <path d="M953.407 368.482L1013.46 472.499L1018.85 469.387L958.797 365.369L953.407 368.482Z" fill="#E535AB" />
    <path d="M910.912 399.312H904.688V468.688H910.912V399.312Z" fill="#E535AB" />
    <path d="M1015.31 399.312H1009.09V468.688H1015.31V399.312Z" fill="#E535AB" />
    <path d="M958.602 491.916L961.32 496.625L1013.57 466.456L1010.85 461.747L958.602 491.916Z" fill="#E535AB" />
    <path
      d="M1023.56 470.713C1019.96 476.975 1011.94 479.113 1005.67 475.513C999.412 471.913 997.274 463.888 1000.87 457.625C1004.47 451.363 1012.5 449.225 1018.76 452.825C1025.06 456.463 1027.2 464.45 1023.56 470.713Z"
      fill="#E535AB" />
    <path
      d="M919.087 410.375C915.487 416.638 907.462 418.775 901.2 415.175C894.937 411.575 892.8 403.55 896.4 397.288C900 391.025 908.025 388.888 914.287 392.488C920.55 396.125 922.687 404.113 919.087 410.375Z"
      fill="#E535AB" />
    <path
      d="M896.437 470.713C892.837 464.45 894.974 456.463 901.237 452.825C907.499 449.225 915.487 451.363 919.124 457.625C922.724 463.888 920.587 471.875 914.324 475.513C908.024 479.113 900.037 476.975 896.437 470.713Z"
      fill="#E535AB" />
    <path
      d="M1000.91 410.375C997.313 404.113 999.45 396.125 1005.71 392.488C1011.98 388.888 1019.96 391.025 1023.6 397.288C1027.2 403.55 1025.06 411.538 1018.8 415.175C1012.54 418.775 1004.51 416.638 1000.91 410.375Z"
      fill="#E535AB" />
    <path
      d="M960 507.425C952.762 507.425 946.912 501.575 946.912 494.337C946.912 487.1 952.762 481.25 960 481.25C967.237 481.25 973.087 487.1 973.087 494.337C973.087 501.537 967.237 507.425 960 507.425Z"
      fill="#E535AB" />
    <path
      d="M960 386.75C952.762 386.75 946.912 380.9 946.912 373.663C946.912 366.425 952.762 360.575 960 360.575C967.237 360.575 973.087 366.425 973.087 373.663C973.087 380.9 967.237 386.75 960 386.75Z"
      fill="#E535AB" />
    <path
      d="M878.752 616.391C878.504 615.527 878.154 614.763 877.705 614.1C877.255 613.425 876.704 612.857 876.053 612.396C875.414 611.922 874.68 611.561 873.852 611.312C873.035 611.064 872.129 610.94 871.135 610.94C869.277 610.94 867.643 611.401 866.234 612.325C864.838 613.248 863.749 614.591 862.967 616.355C862.186 618.107 861.796 620.25 861.796 622.783C861.796 625.316 862.18 627.47 862.95 629.246C863.719 631.021 864.808 632.377 866.217 633.312C867.625 634.235 869.288 634.697 871.206 634.697C872.946 634.697 874.432 634.389 875.663 633.773C876.906 633.146 877.853 632.264 878.504 631.128C879.167 629.991 879.498 628.648 879.498 627.097L881.06 627.328H871.685V621.54H886.902V626.121C886.902 629.317 886.227 632.063 884.878 634.359C883.528 636.644 881.67 638.408 879.303 639.651C876.935 640.882 874.225 641.497 871.171 641.497C867.761 641.497 864.767 640.746 862.186 639.242C859.606 637.727 857.593 635.579 856.149 632.797C854.717 630.003 854.001 626.689 854.001 622.854C854.001 619.906 854.427 617.278 855.279 614.97C856.143 612.65 857.351 610.685 858.901 609.075C860.452 607.465 862.257 606.24 864.317 605.4C866.377 604.559 868.608 604.139 871.011 604.139C873.07 604.139 874.988 604.441 876.764 605.045C878.539 605.637 880.113 606.477 881.487 607.566C882.872 608.655 884.002 609.951 884.878 611.455C885.754 612.946 886.316 614.591 886.565 616.391H878.752ZM892.535 641V613.727H899.868V618.486H900.152C900.649 616.793 901.484 615.515 902.656 614.651C903.828 613.775 905.177 613.337 906.704 613.337C907.083 613.337 907.491 613.36 907.929 613.408C908.367 613.455 908.752 613.52 909.083 613.603V620.315C908.728 620.208 908.237 620.113 907.61 620.031C906.982 619.948 906.408 619.906 905.887 619.906C904.775 619.906 903.78 620.149 902.904 620.634C902.04 621.108 901.354 621.771 900.845 622.623C900.348 623.475 900.099 624.458 900.099 625.57V641H892.535ZM919.99 641.515C918.25 641.515 916.699 641.213 915.338 640.609C913.977 639.994 912.899 639.088 912.106 637.893C911.325 636.685 910.934 635.182 910.934 633.383C910.934 631.868 911.213 630.595 911.769 629.565C912.325 628.536 913.083 627.707 914.042 627.08C915 626.452 916.089 625.979 917.309 625.659C918.54 625.339 919.83 625.115 921.179 624.984C922.766 624.819 924.044 624.665 925.015 624.523C925.985 624.369 926.69 624.144 927.128 623.848C927.566 623.552 927.785 623.114 927.785 622.534V622.428C927.785 621.303 927.429 620.433 926.719 619.817C926.021 619.202 925.026 618.894 923.736 618.894C922.375 618.894 921.292 619.196 920.487 619.8C919.682 620.392 919.149 621.137 918.889 622.037L911.893 621.469C912.248 619.812 912.947 618.379 913.988 617.172C915.03 615.953 916.374 615.018 918.019 614.366C919.676 613.704 921.594 613.372 923.772 613.372C925.287 613.372 926.737 613.55 928.122 613.905C929.519 614.26 930.756 614.81 931.833 615.556C932.922 616.302 933.78 617.261 934.407 618.433C935.035 619.593 935.348 620.983 935.348 622.605V641H928.175V637.218H927.962C927.524 638.07 926.938 638.822 926.204 639.473C925.47 640.112 924.589 640.615 923.559 640.982C922.529 641.337 921.339 641.515 919.99 641.515ZM922.156 636.295C923.269 636.295 924.251 636.076 925.103 635.638C925.956 635.188 926.624 634.584 927.11 633.827C927.595 633.069 927.838 632.211 927.838 631.252V628.358C927.601 628.512 927.276 628.654 926.861 628.784C926.459 628.902 926.003 629.015 925.494 629.121C924.985 629.216 924.476 629.305 923.967 629.388C923.458 629.459 922.996 629.524 922.582 629.583C921.694 629.713 920.919 629.92 920.256 630.205C919.593 630.489 919.078 630.873 918.711 631.359C918.344 631.832 918.161 632.424 918.161 633.134C918.161 634.164 918.534 634.951 919.28 635.496C920.037 636.028 920.996 636.295 922.156 636.295ZM941.217 651.227V613.727H948.674V618.308H949.011C949.343 617.574 949.822 616.829 950.45 616.071C951.089 615.302 951.917 614.662 952.935 614.153C953.965 613.633 955.244 613.372 956.771 613.372C958.759 613.372 960.594 613.893 962.275 614.935C963.956 615.964 965.299 617.521 966.305 619.604C967.312 621.676 967.815 624.274 967.815 627.399C967.815 630.441 967.323 633.01 966.341 635.105C965.37 637.188 964.045 638.769 962.364 639.846C960.695 640.911 958.824 641.444 956.753 641.444C955.285 641.444 954.036 641.201 953.006 640.716C951.988 640.231 951.154 639.621 950.503 638.887C949.852 638.141 949.355 637.39 949.011 636.632H948.781V651.227H941.217ZM948.621 627.364C948.621 628.985 948.846 630.4 949.296 631.607C949.745 632.815 950.396 633.756 951.249 634.43C952.101 635.093 953.137 635.425 954.356 635.425C955.587 635.425 956.629 635.087 957.481 634.413C958.333 633.726 958.978 632.779 959.416 631.572C959.866 630.353 960.091 628.95 960.091 627.364C960.091 625.789 959.872 624.404 959.434 623.209C958.996 622.013 958.351 621.078 957.499 620.403C956.646 619.729 955.599 619.391 954.356 619.391C953.125 619.391 952.083 619.717 951.231 620.368C950.39 621.019 949.745 621.942 949.296 623.138C948.846 624.333 948.621 625.742 948.621 627.364ZM980.421 625.233V641H972.857V604.636H980.208V618.539H980.528C981.143 616.929 982.138 615.669 983.511 614.757C984.884 613.834 986.606 613.372 988.678 613.372C990.572 613.372 992.223 613.786 993.631 614.615C995.052 615.432 996.153 616.61 996.934 618.148C997.727 619.675 998.118 621.504 998.106 623.635V641H990.542V624.984C990.554 623.304 990.128 621.996 989.264 621.06C988.411 620.125 987.216 619.658 985.677 619.658C984.647 619.658 983.736 619.877 982.943 620.315C982.161 620.753 981.546 621.392 981.096 622.232C980.658 623.061 980.433 624.061 980.421 625.233ZM1017.93 628.358H1024.46L1027.74 632.584L1030.98 636.348L1037.07 643.983H1029.89L1025.7 638.834L1023.55 635.78L1017.93 628.358ZM1037.62 622.818C1037.62 626.784 1036.87 630.157 1035.36 632.939C1033.87 635.721 1031.83 637.845 1029.25 639.313C1026.69 640.769 1023.8 641.497 1020.59 641.497C1017.36 641.497 1014.46 640.763 1011.89 639.295C1009.32 637.828 1007.29 635.703 1005.8 632.921C1004.31 630.139 1003.56 626.772 1003.56 622.818C1003.56 618.853 1004.31 615.479 1005.8 612.697C1007.29 609.916 1009.32 607.797 1011.89 606.341C1014.46 604.873 1017.36 604.139 1020.59 604.139C1023.8 604.139 1026.69 604.873 1029.25 606.341C1031.83 607.797 1033.87 609.916 1035.36 612.697C1036.87 615.479 1037.62 618.853 1037.62 622.818ZM1029.82 622.818C1029.82 620.25 1029.44 618.083 1028.67 616.32C1027.91 614.556 1026.84 613.218 1025.45 612.307C1024.07 611.395 1022.45 610.94 1020.59 610.94C1018.73 610.94 1017.11 611.395 1015.72 612.307C1014.34 613.218 1013.26 614.556 1012.49 616.32C1011.73 618.083 1011.36 620.25 1011.36 622.818C1011.36 625.387 1011.73 627.553 1012.49 629.317C1013.26 631.08 1014.34 632.418 1015.72 633.33C1017.11 634.241 1018.73 634.697 1020.59 634.697C1022.45 634.697 1024.07 634.241 1025.45 633.33C1026.84 632.418 1027.91 631.08 1028.67 629.317C1029.44 627.553 1029.82 625.387 1029.82 622.818ZM1043.31 641V604.636H1051V634.661H1066.59V641H1043.31Z"
      fill="black" />
    <path
      d="M902.897 689.182C902.726 687.742 902.035 686.625 900.823 685.83C899.611 685.034 898.124 684.636 896.363 684.636C895.075 684.636 893.948 684.845 892.982 685.261C892.025 685.678 891.277 686.251 890.738 686.98C890.207 687.709 889.942 688.538 889.942 689.466C889.942 690.242 890.127 690.91 890.496 691.469C890.875 692.018 891.358 692.477 891.945 692.847C892.532 693.206 893.148 693.505 893.792 693.741C894.435 693.969 895.027 694.153 895.567 694.295L898.522 695.091C899.279 695.29 900.122 695.564 901.05 695.915C901.988 696.265 902.882 696.743 903.735 697.349C904.596 697.946 905.307 698.713 905.865 699.651C906.424 700.588 906.703 701.739 906.703 703.102C906.703 704.674 906.292 706.095 905.468 707.364C904.653 708.633 903.46 709.641 901.888 710.389C900.326 711.137 898.427 711.511 896.192 711.511C894.109 711.511 892.305 711.175 890.78 710.503C889.265 709.83 888.072 708.893 887.201 707.69C886.339 706.488 885.851 705.091 885.738 703.5H889.374C889.469 704.598 889.838 705.508 890.482 706.227C891.135 706.937 891.959 707.468 892.953 707.818C893.957 708.159 895.037 708.33 896.192 708.33C897.537 708.33 898.744 708.112 899.814 707.676C900.884 707.231 901.732 706.616 902.357 705.83C902.982 705.034 903.294 704.106 903.294 703.045C903.294 702.08 903.025 701.294 902.485 700.688C901.945 700.081 901.235 699.589 900.354 699.21C899.473 698.831 898.522 698.5 897.499 698.216L893.919 697.193C891.647 696.54 889.847 695.607 888.522 694.395C887.196 693.183 886.533 691.597 886.533 689.636C886.533 688.008 886.973 686.587 887.854 685.375C888.744 684.153 889.937 683.206 891.434 682.534C892.939 681.852 894.62 681.511 896.476 681.511C898.351 681.511 900.018 681.848 901.476 682.52C902.935 683.183 904.09 684.092 904.942 685.247C905.804 686.402 906.258 687.714 906.306 689.182H902.897ZM920.904 711.455C918.859 711.455 917.098 710.972 915.62 710.006C914.143 709.04 913.007 707.709 912.211 706.014C911.416 704.319 911.018 702.383 911.018 700.205C911.018 697.989 911.425 696.033 912.24 694.338C913.064 692.634 914.209 691.303 915.677 690.347C917.154 689.381 918.878 688.898 920.848 688.898C922.382 688.898 923.764 689.182 924.995 689.75C926.226 690.318 927.235 691.114 928.021 692.136C928.807 693.159 929.295 694.352 929.484 695.716H926.132C925.876 694.722 925.308 693.841 924.427 693.074C923.556 692.297 922.382 691.909 920.904 691.909C919.598 691.909 918.452 692.25 917.467 692.932C916.492 693.604 915.729 694.556 915.18 695.787C914.64 697.009 914.37 698.443 914.37 700.091C914.37 701.777 914.636 703.244 915.166 704.494C915.706 705.744 916.463 706.715 917.439 707.406C918.423 708.098 919.579 708.443 920.904 708.443C921.776 708.443 922.566 708.292 923.277 707.989C923.987 707.686 924.588 707.25 925.081 706.682C925.573 706.114 925.923 705.432 926.132 704.636H929.484C929.295 705.924 928.826 707.084 928.078 708.116C927.339 709.139 926.359 709.954 925.137 710.56C923.925 711.156 922.514 711.455 920.904 711.455ZM937.737 697.875V711H934.385V681.909H937.737V692.591H938.021C938.532 691.464 939.299 690.569 940.322 689.906C941.354 689.234 942.727 688.898 944.441 688.898C945.928 688.898 947.23 689.196 948.348 689.793C949.465 690.38 950.332 691.284 950.947 692.506C951.572 693.718 951.885 695.261 951.885 697.136V711H948.532V697.364C948.532 695.631 948.083 694.291 947.183 693.344C946.293 692.387 945.057 691.909 943.475 691.909C942.377 691.909 941.392 692.141 940.521 692.605C939.659 693.069 938.977 693.746 938.475 694.636C937.983 695.527 937.737 696.606 937.737 697.875ZM967.165 711.455C965.063 711.455 963.249 710.991 961.725 710.062C960.21 709.125 959.04 707.818 958.216 706.142C957.402 704.456 956.995 702.496 956.995 700.261C956.995 698.027 957.402 696.057 958.216 694.352C959.04 692.638 960.186 691.303 961.654 690.347C963.131 689.381 964.855 688.898 966.824 688.898C967.961 688.898 969.083 689.087 970.191 689.466C971.299 689.845 972.307 690.46 973.216 691.312C974.125 692.155 974.85 693.273 975.39 694.665C975.929 696.057 976.199 697.771 976.199 699.807V701.227H959.381V698.33H972.79C972.79 697.098 972.544 696 972.051 695.034C971.569 694.068 970.877 693.306 969.978 692.747C969.087 692.188 968.036 691.909 966.824 691.909C965.489 691.909 964.334 692.241 963.358 692.903C962.392 693.557 961.649 694.409 961.128 695.46C960.607 696.511 960.347 697.638 960.347 698.841V700.773C960.347 702.42 960.631 703.817 961.199 704.963C961.777 706.099 962.577 706.966 963.6 707.562C964.623 708.15 965.811 708.443 967.165 708.443C968.046 708.443 968.841 708.32 969.551 708.074C970.271 707.818 970.891 707.439 971.412 706.938C971.933 706.426 972.336 705.792 972.62 705.034L975.858 705.943C975.517 707.042 974.944 708.008 974.14 708.841C973.335 709.665 972.34 710.309 971.157 710.773C969.973 711.227 968.642 711.455 967.165 711.455ZM981.299 711V689.182H984.537V692.591H984.821C985.276 691.426 986.01 690.522 987.023 689.878C988.036 689.224 989.253 688.898 990.674 688.898C992.113 688.898 993.311 689.224 994.267 689.878C995.233 690.522 995.986 691.426 996.526 692.591H996.753C997.312 691.464 998.15 690.569 999.267 689.906C1000.38 689.234 1001.72 688.898 1003.29 688.898C1005.24 688.898 1006.83 689.509 1008.07 690.73C1009.31 691.942 1009.94 693.831 1009.94 696.398V711H1006.58V696.398C1006.58 694.788 1006.14 693.637 1005.26 692.946C1004.38 692.255 1003.34 691.909 1002.15 691.909C1000.62 691.909 999.428 692.373 998.586 693.301C997.743 694.22 997.321 695.384 997.321 696.795V711H993.912V696.057C993.912 694.816 993.51 693.817 992.705 693.06C991.9 692.293 990.863 691.909 989.594 691.909C988.723 691.909 987.908 692.141 987.151 692.605C986.403 693.069 985.797 693.713 985.333 694.537C984.878 695.351 984.651 696.294 984.651 697.364V711H981.299ZM1022.48 711.511C1021.1 711.511 1019.85 711.251 1018.72 710.73C1017.59 710.2 1016.7 709.438 1016.04 708.443C1015.37 707.439 1015.04 706.227 1015.04 704.807C1015.04 703.557 1015.29 702.544 1015.78 701.767C1016.27 700.981 1016.93 700.366 1017.75 699.92C1018.58 699.475 1019.49 699.144 1020.48 698.926C1021.49 698.699 1022.49 698.519 1023.51 698.386C1024.83 698.216 1025.91 698.088 1026.73 698.003C1027.57 697.908 1028.17 697.752 1028.55 697.534C1028.94 697.316 1029.13 696.937 1029.13 696.398V696.284C1029.13 694.883 1028.75 693.794 1027.98 693.017C1027.22 692.241 1026.07 691.852 1024.53 691.852C1022.93 691.852 1021.68 692.203 1020.77 692.903C1019.86 693.604 1019.22 694.352 1018.85 695.148L1015.67 694.011C1016.23 692.686 1016.99 691.653 1017.94 690.915C1018.9 690.167 1019.94 689.646 1021.06 689.352C1022.2 689.049 1023.32 688.898 1024.42 688.898C1025.12 688.898 1025.92 688.983 1026.83 689.153C1027.75 689.314 1028.64 689.651 1029.49 690.162C1030.35 690.673 1031.06 691.445 1031.63 692.477C1032.2 693.509 1032.48 694.892 1032.48 696.625V711H1029.13V708.045H1028.96C1028.73 708.519 1028.36 709.026 1027.83 709.565C1027.3 710.105 1026.59 710.564 1025.71 710.943C1024.83 711.322 1023.75 711.511 1022.48 711.511ZM1023 708.5C1024.32 708.5 1025.44 708.24 1026.35 707.719C1027.27 707.198 1027.96 706.526 1028.42 705.702C1028.9 704.878 1029.13 704.011 1029.13 703.102V700.034C1028.99 700.205 1028.68 700.361 1028.19 700.503C1027.72 700.635 1027.17 700.754 1026.55 700.858C1025.93 700.953 1025.33 701.038 1024.74 701.114C1024.17 701.18 1023.7 701.237 1023.34 701.284C1022.47 701.398 1021.65 701.582 1020.89 701.838C1020.15 702.084 1019.54 702.458 1019.08 702.96C1018.62 703.453 1018.39 704.125 1018.39 704.977C1018.39 706.142 1018.82 707.023 1019.69 707.619C1020.56 708.206 1021.66 708.5 1023 708.5Z"
      fill="black" />
  </g>
  <g opacity="0.25">
    <g clip-path="url(#clip0_102_665)">
      <path
        d="M1352.07 479.238H1362.89V484.723H1352.07V497.17C1352.05 498.063 1352.17 498.954 1352.43 499.808C1352.63 500.442 1352.98 501.016 1353.46 501.48C1353.92 501.912 1354.47 502.224 1355.08 502.39C1355.69 502.552 1356.32 502.641 1356.94 502.654L1357.21 502.655C1357.78 502.655 1358.36 502.655 1358.97 502.575L1359.33 502.531L1360.02 502.452C1360.25 502.426 1360.47 502.397 1360.69 502.36L1361.02 502.308L1361.63 502.218C1361.82 502.188 1362.02 502.157 1362.2 502.12L1362.66 502.029L1362.87 501.985L1363.26 501.898L1363.44 501.856L1364.16 506.965C1363.58 507.295 1362.96 507.559 1362.32 507.752C1361.59 507.983 1360.85 508.165 1360.09 508.3C1359.31 508.447 1358.49 508.558 1357.63 508.638C1356.8 508.716 1355.96 508.755 1355.13 508.755C1353.67 508.776 1352.21 508.569 1350.82 508.14C1349.57 507.753 1348.44 507.079 1347.51 506.172C1346.54 505.231 1345.82 504.077 1345.39 502.802C1344.85 501.219 1344.6 499.554 1344.64 497.883V484.723H1338V479.238H1344.62V472.148H1352.07V479.238H1352.07ZM1378.59 493.634V508.195H1371.06V469.227H1384.17C1386.15 469.202 1388.12 469.459 1390.03 469.989C1391.66 470.439 1393.19 471.199 1394.53 472.228C1395.77 473.21 1396.74 474.476 1397.38 475.917C1398.08 477.52 1398.43 479.255 1398.39 481.003C1398.41 482.273 1398.24 483.538 1397.89 484.76C1397.3 486.884 1396.02 488.752 1394.25 490.073C1393.35 490.754 1392.38 491.329 1391.34 491.789L1399.73 507.869V508.22H1391.63L1384.3 493.634H1378.59ZM1378.6 487.521H1384.17C1385.21 487.542 1386.26 487.375 1387.25 487.03C1388.07 486.736 1388.81 486.244 1389.41 485.597C1389.87 485.083 1390.22 484.483 1390.45 483.831C1390.67 483.164 1390.79 482.467 1390.8 481.764L1390.8 481.501C1390.82 480.565 1390.66 479.635 1390.34 478.759C1390.04 477.995 1389.56 477.318 1388.93 476.791C1388.33 476.305 1387.64 475.941 1386.89 475.721C1386.1 475.489 1385.28 475.363 1384.45 475.347L1378.6 475.345V487.521V487.521ZM1412 508.195H1404.48V469.227H1417.82C1419.78 469.199 1421.73 469.511 1423.58 470.15C1425.2 470.707 1426.69 471.576 1427.98 472.707C1429.17 473.816 1430.11 475.166 1430.75 476.668C1431.37 478.186 1431.7 479.808 1431.72 481.45V481.778C1431.74 483.444 1431.41 485.095 1430.75 486.623C1430.11 488.083 1429.16 489.387 1427.98 490.448C1426.69 491.58 1425.19 492.445 1423.56 492.994C1421.71 493.625 1419.76 493.933 1417.8 493.904H1411.99L1412 508.195V508.195ZM1412 487.804H1417.81C1418.76 487.823 1419.71 487.658 1420.6 487.318C1421.34 487.026 1422.02 486.58 1422.58 486.009C1423.09 485.458 1423.49 484.807 1423.74 484.096C1424 483.37 1424.14 482.604 1424.14 481.833C1424.14 480.971 1424.01 480.114 1423.74 479.294C1423.5 478.533 1423.1 477.83 1422.58 477.227C1422.02 476.628 1421.35 476.154 1420.6 475.838C1419.71 475.48 1418.76 475.306 1417.81 475.327H1412V487.804ZM1462.72 501.29C1462.03 502.809 1461.05 504.175 1459.82 505.305C1458.55 506.436 1457.08 507.306 1455.48 507.863C1453.8 508.436 1452.05 508.737 1450.28 508.756L1449.9 508.755C1448.39 508.773 1446.89 508.566 1445.44 508.14C1444.12 507.746 1442.87 507.135 1441.75 506.332C1440.74 505.586 1439.84 504.693 1439.09 503.682C1438.3 502.623 1437.63 501.473 1437.12 500.257C1436.58 498.929 1436.18 497.548 1435.93 496.136C1435.64 494.564 1435.5 492.969 1435.51 491.371V486.125C1435.51 484.623 1435.63 483.123 1435.89 481.642C1436.09 480.441 1436.42 479.262 1436.85 478.121L1437.01 477.695C1437.56 476.267 1438.32 474.932 1439.27 473.734C1440.16 472.602 1441.23 471.611 1442.42 470.795C1443.5 470.103 1444.67 469.575 1445.89 469.227C1447.09 468.886 1448.33 468.702 1449.58 468.681L1449.95 468.68C1451.9 468.646 1453.83 468.954 1455.67 469.589C1457.26 470.136 1458.71 471.018 1459.93 472.177C1461.15 473.336 1462.11 474.744 1462.73 476.305C1463.44 478.056 1463.87 479.907 1464.02 481.79H1456.52C1456.47 480.747 1456.3 479.715 1456 478.715C1455.76 477.909 1455.35 477.161 1454.81 476.52C1454.25 475.937 1453.57 475.493 1452.81 475.222C1451.89 474.908 1450.93 474.758 1449.96 474.78C1449.4 474.778 1448.85 474.842 1448.31 474.971C1447.82 475.09 1447.34 475.279 1446.9 475.53C1446.15 475.99 1445.52 476.623 1445.06 477.375C1444.52 478.237 1444.1 479.171 1443.83 480.148C1443.58 481.039 1443.41 481.948 1443.32 482.866C1443.21 483.928 1443.16 484.996 1443.16 486.064V491.359C1443.15 492.75 1443.23 494.141 1443.41 495.522C1443.55 496.614 1443.82 497.688 1444.2 498.719C1444.43 499.307 1444.73 499.864 1445.1 500.38C1445.43 500.852 1445.83 501.267 1446.29 501.609C1446.78 501.969 1447.33 502.235 1447.91 502.396C1448.56 502.576 1449.23 502.663 1449.91 502.655C1450.81 502.665 1451.7 502.539 1452.56 502.28C1453.31 502.048 1454 501.644 1454.57 501.099C1455.16 500.518 1455.61 499.814 1455.88 499.039C1456.24 498.067 1456.45 497.047 1456.5 496.014H1464.03C1463.92 497.837 1463.48 499.625 1462.72 501.29H1462.72ZM1429.76 404.444L1448.7 415.371V437.238L1429.76 448.166L1421.34 443.306L1400.89 455.102L1380.56 443.374L1372.27 448.165L1353.32 437.22V415.37L1372.27 404.443L1391.22 415.371V437.219L1385.48 440.531L1400.89 449.42L1416.42 440.463L1410.81 437.219V415.37L1429.76 404.443V404.444ZM1415.73 421.066V434.403L1427.29 441.07V427.732L1415.73 421.066ZM1443.78 421.047L1432.22 427.713V441.07L1443.78 434.385V421.047V421.047ZM1358.25 421.047V434.385L1369.81 441.051V427.713L1358.25 421.047V421.047ZM1386.29 421.047L1374.73 427.713V441.05L1386.29 434.385V421.047L1386.29 421.047ZM1429.76 410.138L1418.2 416.804L1429.76 423.476L1441.31 416.804L1429.76 410.138ZM1372.27 410.12L1360.71 416.804L1372.27 423.458L1383.83 416.804L1372.27 410.12V410.12ZM1381.69 376.225V381.9L1364.16 392.017V409.118L1359.24 411.959V389.175L1381.69 376.224L1381.69 376.225ZM1400.64 359L1419.6 369.927V375.937L1442.55 389.175V411.817L1437.62 408.976V392.016L1419.6 381.619V391.782L1400.65 402.71L1381.71 391.782V369.927L1400.64 359ZM1386.63 375.603V388.941L1398.18 395.607V382.275L1386.63 375.603H1386.63ZM1414.66 375.603L1403.11 382.275V395.601L1414.66 388.941V375.603H1414.66ZM1400.64 364.682L1389.09 371.348L1400.64 378.014L1412.2 371.348L1400.64 364.682H1400.64Z"
        fill="#398CCB" />
    </g>
    <path
      d="M1357.62 613.727V619.409H1341.2V613.727H1357.62ZM1344.93 607.193H1352.49V632.619C1352.49 633.318 1352.6 633.862 1352.81 634.253C1353.02 634.632 1353.32 634.898 1353.7 635.052C1354.09 635.206 1354.54 635.283 1355.05 635.283C1355.4 635.283 1355.76 635.253 1356.11 635.194C1356.47 635.123 1356.74 635.07 1356.93 635.034L1358.12 640.663C1357.74 640.781 1357.21 640.917 1356.52 641.071C1355.84 641.237 1355 641.337 1354.02 641.373C1352.2 641.444 1350.6 641.201 1349.23 640.645C1347.86 640.089 1346.8 639.224 1346.05 638.053C1345.29 636.881 1344.92 635.401 1344.93 633.614V607.193ZM1363.28 641V604.636H1377.63C1380.37 604.636 1382.72 605.128 1384.66 606.11C1386.61 607.081 1388.1 608.46 1389.11 610.247C1390.14 612.023 1390.66 614.112 1390.66 616.515C1390.66 618.93 1390.14 621.007 1389.1 622.747C1388.05 624.475 1386.54 625.801 1384.57 626.724C1382.6 627.648 1380.22 628.109 1377.43 628.109H1367.82V621.93H1376.19C1377.65 621.93 1378.87 621.729 1379.84 621.327C1380.82 620.924 1381.54 620.321 1382.01 619.516C1382.5 618.711 1382.74 617.71 1382.74 616.515C1382.74 615.308 1382.5 614.29 1382.01 613.461C1381.54 612.632 1380.81 612.005 1379.83 611.579C1378.86 611.141 1377.63 610.922 1376.15 610.922H1370.97V641H1363.28ZM1382.92 624.452L1391.95 641H1383.47L1374.62 624.452H1382.92ZM1396.09 641V604.636H1410.44C1413.2 604.636 1415.55 605.163 1417.49 606.217C1419.43 607.258 1420.91 608.708 1421.93 610.567C1422.96 612.413 1423.47 614.544 1423.47 616.959C1423.47 619.374 1422.95 621.504 1421.91 623.351C1420.87 625.197 1419.36 626.636 1417.38 627.665C1415.42 628.695 1413.04 629.21 1410.24 629.21H1401.1V623.049H1409C1410.48 623.049 1411.7 622.795 1412.66 622.286C1413.63 621.765 1414.35 621.049 1414.82 620.137C1415.31 619.214 1415.55 618.154 1415.55 616.959C1415.55 615.751 1415.31 614.698 1414.82 613.798C1414.35 612.887 1413.63 612.183 1412.66 611.685C1411.69 611.176 1410.46 610.922 1408.96 610.922H1403.78V641H1396.09ZM1460.55 617.367H1452.77C1452.63 616.361 1452.34 615.467 1451.9 614.686C1451.46 613.893 1450.9 613.218 1450.21 612.662C1449.53 612.106 1448.74 611.679 1447.84 611.384C1446.95 611.088 1445.98 610.94 1444.94 610.94C1443.06 610.94 1441.42 611.407 1440.02 612.342C1438.63 613.266 1437.54 614.615 1436.77 616.391C1436 618.154 1435.62 620.297 1435.62 622.818C1435.62 625.411 1436 627.589 1436.77 629.352C1437.56 631.116 1438.64 632.448 1440.04 633.347C1441.44 634.247 1443.05 634.697 1444.89 634.697C1445.92 634.697 1446.87 634.561 1447.75 634.288C1448.63 634.016 1449.42 633.62 1450.11 633.099C1450.79 632.566 1451.36 631.921 1451.81 631.163C1452.27 630.406 1452.59 629.542 1452.77 628.571L1460.55 628.607C1460.35 630.276 1459.84 631.885 1459.04 633.436C1458.25 634.975 1457.18 636.354 1455.83 637.573C1454.49 638.781 1452.89 639.739 1451.03 640.45C1449.19 641.148 1447.1 641.497 1444.76 641.497C1441.52 641.497 1438.62 640.763 1436.06 639.295C1433.52 637.828 1431.51 635.703 1430.03 632.921C1428.56 630.139 1427.83 626.772 1427.83 622.818C1427.83 618.853 1428.57 615.479 1430.06 612.697C1431.55 609.916 1433.58 607.797 1436.13 606.341C1438.69 604.873 1441.57 604.139 1444.76 604.139C1446.87 604.139 1448.82 604.435 1450.62 605.027C1452.43 605.619 1454.04 606.483 1455.44 607.619C1456.83 608.744 1457.97 610.123 1458.84 611.756C1459.73 613.39 1460.3 615.26 1460.55 617.367Z"
      fill="black" />
    <path
      d="M1301.32 685.034V681.909H1323.14V685.034H1313.99V711H1310.47V685.034H1301.32ZM1327.78 719.182C1327.21 719.182 1326.71 719.134 1326.26 719.04C1325.82 718.955 1325.51 718.869 1325.34 718.784L1326.19 715.83C1327.01 716.038 1327.73 716.114 1328.35 716.057C1328.98 716 1329.53 715.721 1330.01 715.219C1330.5 714.726 1330.95 713.926 1331.36 712.818L1331.99 711.114L1323.92 689.182H1327.55L1333.58 706.568H1333.8L1339.83 689.182H1343.46L1334.2 714.182C1333.79 715.309 1333.27 716.241 1332.65 716.98C1332.04 717.728 1331.32 718.282 1330.51 718.642C1329.7 719.002 1328.8 719.182 1327.78 719.182ZM1347.89 719.182V689.182H1351.13V692.648H1351.52C1351.77 692.269 1352.11 691.786 1352.55 691.199C1352.99 690.602 1353.63 690.072 1354.45 689.608C1355.28 689.134 1356.41 688.898 1357.83 688.898C1359.67 688.898 1361.29 689.357 1362.69 690.276C1364.09 691.194 1365.18 692.496 1365.97 694.182C1366.76 695.867 1367.15 697.856 1367.15 700.148C1367.15 702.458 1366.76 704.461 1365.97 706.156C1365.18 707.842 1364.1 709.149 1362.7 710.077C1361.31 710.995 1359.71 711.455 1357.89 711.455C1356.49 711.455 1355.36 711.223 1354.52 710.759C1353.68 710.285 1353.03 709.75 1352.58 709.153C1352.12 708.547 1351.77 708.045 1351.52 707.648H1351.24V719.182H1347.89ZM1351.18 700.091C1351.18 701.739 1351.43 703.192 1351.91 704.452C1352.39 705.702 1353.1 706.682 1354.02 707.392C1354.95 708.093 1356.09 708.443 1357.43 708.443C1358.84 708.443 1360 708.074 1360.94 707.335C1361.89 706.587 1362.6 705.583 1363.07 704.324C1363.56 703.055 1363.8 701.644 1363.8 700.091C1363.8 698.557 1363.56 697.174 1363.09 695.943C1362.62 694.703 1361.92 693.723 1360.97 693.003C1360.03 692.274 1358.85 691.909 1357.43 691.909C1356.07 691.909 1354.92 692.255 1354 692.946C1353.07 693.628 1352.37 694.584 1351.89 695.815C1351.42 697.037 1351.18 698.462 1351.18 700.091ZM1381.41 711.455C1379.31 711.455 1377.5 710.991 1375.97 710.062C1374.46 709.125 1373.29 707.818 1372.46 706.142C1371.65 704.456 1371.24 702.496 1371.24 700.261C1371.24 698.027 1371.65 696.057 1372.46 694.352C1373.29 692.638 1374.43 691.303 1375.9 690.347C1377.38 689.381 1379.1 688.898 1381.07 688.898C1382.21 688.898 1383.33 689.087 1384.44 689.466C1385.54 689.845 1386.55 690.46 1387.46 691.312C1388.37 692.155 1389.1 693.273 1389.64 694.665C1390.18 696.057 1390.45 697.771 1390.45 699.807V701.227H1373.63V698.33H1387.04C1387.04 697.098 1386.79 696 1386.3 695.034C1385.81 694.068 1385.12 693.306 1384.22 692.747C1383.33 692.188 1382.28 691.909 1381.07 691.909C1379.74 691.909 1378.58 692.241 1377.6 692.903C1376.64 693.557 1375.9 694.409 1375.37 695.46C1374.85 696.511 1374.59 697.638 1374.59 698.841V700.773C1374.59 702.42 1374.88 703.817 1375.45 704.963C1376.02 706.099 1376.82 706.966 1377.85 707.562C1378.87 708.15 1380.06 708.443 1381.41 708.443C1382.29 708.443 1383.09 708.32 1383.8 708.074C1384.52 707.818 1385.14 707.439 1385.66 706.938C1386.18 706.426 1386.58 705.792 1386.87 705.034L1390.1 705.943C1389.76 707.042 1389.19 708.008 1388.39 708.841C1387.58 709.665 1386.59 710.309 1385.4 710.773C1384.22 711.227 1382.89 711.455 1381.41 711.455ZM1411.91 689.182C1411.74 687.742 1411.05 686.625 1409.83 685.83C1408.62 685.034 1407.14 684.636 1405.37 684.636C1404.09 684.636 1402.96 684.845 1401.99 685.261C1401.04 685.678 1400.29 686.251 1399.75 686.98C1399.22 687.709 1398.95 688.538 1398.95 689.466C1398.95 690.242 1399.14 690.91 1399.51 691.469C1399.89 692.018 1400.37 692.477 1400.96 692.847C1401.54 693.206 1402.16 693.505 1402.8 693.741C1403.45 693.969 1404.04 694.153 1404.58 694.295L1407.53 695.091C1408.29 695.29 1409.13 695.564 1410.06 695.915C1411 696.265 1411.89 696.743 1412.75 697.349C1413.61 697.946 1414.32 698.713 1414.88 699.651C1415.44 700.588 1415.72 701.739 1415.72 703.102C1415.72 704.674 1415.3 706.095 1414.48 707.364C1413.67 708.633 1412.47 709.641 1410.9 710.389C1409.34 711.137 1407.44 711.511 1405.2 711.511C1403.12 711.511 1401.32 711.175 1399.79 710.503C1398.28 709.83 1397.08 708.893 1396.21 707.69C1395.35 706.488 1394.86 705.091 1394.75 703.5H1398.39C1398.48 704.598 1398.85 705.508 1399.49 706.227C1400.15 706.937 1400.97 707.468 1401.97 707.818C1402.97 708.159 1404.05 708.33 1405.2 708.33C1406.55 708.33 1407.76 708.112 1408.83 707.676C1409.9 707.231 1410.74 706.616 1411.37 705.83C1411.99 705.034 1412.31 704.106 1412.31 703.045C1412.31 702.08 1412.04 701.294 1411.5 700.688C1410.96 700.081 1410.25 699.589 1409.37 699.21C1408.49 698.831 1407.53 698.5 1406.51 698.216L1402.93 697.193C1400.66 696.54 1398.86 695.607 1397.53 694.395C1396.21 693.183 1395.54 691.597 1395.54 689.636C1395.54 688.008 1395.99 686.587 1396.87 685.375C1397.76 684.153 1398.95 683.206 1400.45 682.534C1401.95 681.852 1403.63 681.511 1405.49 681.511C1407.36 681.511 1409.03 681.848 1410.49 682.52C1411.95 683.183 1413.1 684.092 1413.95 685.247C1414.82 686.402 1415.27 687.714 1415.32 689.182H1411.91ZM1429.92 711.455C1427.87 711.455 1426.11 710.972 1424.63 710.006C1423.15 709.04 1422.02 707.709 1421.22 706.014C1420.43 704.319 1420.03 702.383 1420.03 700.205C1420.03 697.989 1420.44 696.033 1421.25 694.338C1422.08 692.634 1423.22 691.303 1424.69 690.347C1426.17 689.381 1427.89 688.898 1429.86 688.898C1431.39 688.898 1432.78 689.182 1434.01 689.75C1435.24 690.318 1436.25 691.114 1437.03 692.136C1437.82 693.159 1438.31 694.352 1438.5 695.716H1435.14C1434.89 694.722 1434.32 693.841 1433.44 693.074C1432.57 692.297 1431.39 691.909 1429.92 691.909C1428.61 691.909 1427.46 692.25 1426.48 692.932C1425.5 693.604 1424.74 694.556 1424.19 695.787C1423.65 697.009 1423.38 698.443 1423.38 700.091C1423.38 701.777 1423.65 703.244 1424.18 704.494C1424.72 705.744 1425.47 706.715 1426.45 707.406C1427.44 708.098 1428.59 708.443 1429.92 708.443C1430.79 708.443 1431.58 708.292 1432.29 707.989C1433 707.686 1433.6 707.25 1434.09 706.682C1434.58 706.114 1434.94 705.432 1435.14 704.636H1438.5C1438.31 705.924 1437.84 707.084 1437.09 708.116C1436.35 709.139 1435.37 709.954 1434.15 710.56C1432.94 711.156 1431.53 711.455 1429.92 711.455ZM1443.4 711V689.182H1446.63V692.477H1446.86C1447.26 691.398 1447.98 690.522 1449.02 689.849C1450.06 689.177 1451.24 688.841 1452.54 688.841C1452.79 688.841 1453.1 688.846 1453.47 688.855C1453.84 688.865 1454.12 688.879 1454.31 688.898V692.307C1454.19 692.278 1453.93 692.236 1453.52 692.179C1453.13 692.113 1452.71 692.08 1452.26 692.08C1451.2 692.08 1450.25 692.302 1449.42 692.747C1448.6 693.183 1447.94 693.789 1447.46 694.565C1446.99 695.332 1446.75 696.208 1446.75 697.193V711H1443.4ZM1458.28 711V689.182H1461.63V711H1458.28ZM1459.98 685.545C1459.33 685.545 1458.77 685.323 1458.29 684.878C1457.83 684.433 1457.6 683.898 1457.6 683.273C1457.6 682.648 1457.83 682.113 1458.29 681.668C1458.77 681.223 1459.33 681 1459.98 681C1460.64 681 1461.2 681.223 1461.66 681.668C1462.13 682.113 1462.37 682.648 1462.37 683.273C1462.37 683.898 1462.13 684.433 1461.66 684.878C1461.2 685.323 1460.64 685.545 1459.98 685.545ZM1467.77 719.182V689.182H1471.01V692.648H1471.41C1471.65 692.269 1471.99 691.786 1472.43 691.199C1472.88 690.602 1473.51 690.072 1474.33 689.608C1475.17 689.134 1476.29 688.898 1477.71 688.898C1479.55 688.898 1481.17 689.357 1482.57 690.276C1483.97 691.194 1485.07 692.496 1485.85 694.182C1486.64 695.867 1487.03 697.856 1487.03 700.148C1487.03 702.458 1486.64 704.461 1485.85 706.156C1485.07 707.842 1483.98 709.149 1482.59 710.077C1481.19 710.995 1479.59 711.455 1477.77 711.455C1476.37 711.455 1475.25 711.223 1474.4 710.759C1473.56 710.285 1472.91 709.75 1472.46 709.153C1472 708.547 1471.65 708.045 1471.41 707.648H1471.12V719.182H1467.77ZM1471.07 700.091C1471.07 701.739 1471.31 703.192 1471.79 704.452C1472.27 705.702 1472.98 706.682 1473.91 707.392C1474.84 708.093 1475.97 708.443 1477.32 708.443C1478.72 708.443 1479.89 708.074 1480.83 707.335C1481.77 706.587 1482.48 705.583 1482.96 704.324C1483.44 703.055 1483.68 701.644 1483.68 700.091C1483.68 698.557 1483.44 697.174 1482.97 695.943C1482.51 694.703 1481.8 693.723 1480.85 693.003C1479.92 692.274 1478.74 691.909 1477.32 691.909C1475.95 691.909 1474.81 692.255 1473.88 692.946C1472.95 693.628 1472.25 694.584 1471.78 695.815C1471.3 697.037 1471.07 698.462 1471.07 700.091ZM1501.63 689.182V692.023H1490.33V689.182H1501.63ZM1493.62 683.955H1496.98V704.75C1496.98 705.697 1497.11 706.407 1497.39 706.881C1497.67 707.345 1498.03 707.657 1498.47 707.818C1498.91 707.97 1499.38 708.045 1499.87 708.045C1500.24 708.045 1500.55 708.027 1500.78 707.989C1501.02 707.941 1501.21 707.903 1501.35 707.875L1502.03 710.886C1501.81 710.972 1501.49 711.057 1501.08 711.142C1500.67 711.237 1500.16 711.284 1499.53 711.284C1498.59 711.284 1497.66 711.08 1496.75 710.673C1495.85 710.266 1495.1 709.646 1494.5 708.812C1493.92 707.979 1493.62 706.928 1493.62 705.659V683.955Z"
      fill="black" />
  </g>
  <path
    d="M380 459V409H392.537V425.667H409.252V409H421.789V459H409.252V438.167H392.537V459H380ZM442.683 459V421.5H430.147V409H467.757V421.5H455.22V459H442.683ZM488.651 459V421.5H476.114V409H513.724V421.5H501.188V459H488.651ZM522.082 459V409H551.334C554.677 409 557.603 410.25 560.11 412.75C562.617 415.25 563.871 418.167 563.871 421.5V429.833C563.871 433.167 562.617 436.083 560.11 438.583C557.603 441.083 554.677 442.333 551.334 442.333H534.619V459H522.082ZM534.619 429.833H551.334V421.5H534.619V429.833Z"
    fill="black" />
  <path
    d="M316.64 641V604.636H330.987C333.733 604.636 336.077 605.128 338.018 606.11C339.971 607.081 341.457 608.46 342.475 610.247C343.504 612.023 344.019 614.112 344.019 616.515C344.019 618.93 343.498 621.007 342.457 622.747C341.415 624.475 339.906 625.801 337.929 626.724C335.964 627.648 333.585 628.109 330.791 628.109H321.185V621.93H329.548C331.016 621.93 332.235 621.729 333.206 621.327C334.177 620.924 334.899 620.321 335.372 619.516C335.858 618.711 336.1 617.71 336.1 616.515C336.1 615.308 335.858 614.29 335.372 613.461C334.899 612.632 334.171 612.005 333.188 611.579C332.218 611.141 330.993 610.922 329.513 610.922H324.328V641H316.64ZM336.278 624.452L345.315 641H336.828L327.986 624.452H336.278ZM349.453 641V604.636H373.955V610.975H357.141V619.64H372.695V625.979H357.141V634.661H374.026V641H349.453ZM399.794 615.094C399.652 613.662 399.043 612.549 397.965 611.756C396.888 610.963 395.426 610.567 393.58 610.567C392.325 610.567 391.266 610.744 390.402 611.099C389.537 611.443 388.875 611.922 388.413 612.538C387.963 613.153 387.738 613.852 387.738 614.633C387.715 615.284 387.851 615.852 388.147 616.337C388.454 616.823 388.875 617.243 389.407 617.598C389.94 617.941 390.555 618.243 391.254 618.504C391.952 618.752 392.698 618.965 393.491 619.143L396.758 619.924C398.344 620.279 399.8 620.753 401.126 621.344C402.452 621.936 403.6 622.664 404.571 623.528C405.541 624.393 406.293 625.411 406.826 626.582C407.37 627.754 407.648 629.098 407.66 630.613C407.648 632.838 407.08 634.768 405.956 636.401C404.843 638.023 403.233 639.284 401.126 640.183C399.031 641.071 396.504 641.515 393.544 641.515C390.609 641.515 388.052 641.065 385.874 640.165C383.708 639.266 382.015 637.934 380.796 636.17C379.588 634.395 378.955 632.199 378.896 629.583H386.335C386.418 630.802 386.768 631.82 387.383 632.637C388.01 633.442 388.845 634.052 389.887 634.466C390.94 634.868 392.13 635.07 393.456 635.07C394.758 635.07 395.888 634.88 396.847 634.501C397.818 634.123 398.569 633.596 399.102 632.921C399.635 632.246 399.901 631.471 399.901 630.595C399.901 629.778 399.658 629.092 399.173 628.536C398.699 627.979 398.001 627.506 397.078 627.115C396.166 626.724 395.048 626.369 393.722 626.05L389.762 625.055C386.697 624.31 384.276 623.144 382.5 621.558C380.725 619.971 379.843 617.835 379.855 615.148C379.843 612.946 380.429 611.022 381.612 609.377C382.808 607.732 384.447 606.447 386.531 605.524C388.614 604.601 390.982 604.139 393.633 604.139C396.332 604.139 398.688 604.601 400.7 605.524C402.724 606.447 404.298 607.732 405.423 609.377C406.547 611.022 407.127 612.928 407.163 615.094H399.794ZM411.446 610.975V604.636H441.312V610.975H430.179V641H422.579V610.975H411.446ZM460.754 613.727V619.409H443.922V613.727H460.754ZM447.775 641V611.756C447.775 609.78 448.159 608.14 448.929 606.838C449.71 605.536 450.775 604.559 452.125 603.908C453.474 603.257 455.007 602.932 456.723 602.932C457.883 602.932 458.943 603.021 459.902 603.198C460.872 603.376 461.594 603.536 462.068 603.678L460.718 609.359C460.423 609.265 460.056 609.176 459.618 609.093C459.191 609.01 458.754 608.969 458.304 608.969C457.191 608.969 456.416 609.229 455.978 609.75C455.54 610.259 455.321 610.975 455.321 611.898V641H447.775ZM482.864 629.388V613.727H490.428V641H483.166V636.046H482.882C482.266 637.644 481.243 638.929 479.81 639.899C478.39 640.87 476.656 641.355 474.608 641.355C472.785 641.355 471.181 640.941 469.796 640.112C468.411 639.284 467.328 638.106 466.547 636.579C465.777 635.052 465.387 633.223 465.375 631.092V613.727H472.939V629.743C472.951 631.353 473.383 632.625 474.235 633.56C475.087 634.496 476.23 634.963 477.662 634.963C478.573 634.963 479.426 634.756 480.219 634.342C481.012 633.915 481.651 633.288 482.136 632.46C482.633 631.631 482.876 630.607 482.864 629.388ZM504.042 604.636V641H496.478V604.636H504.042ZM528.084 641H519.845L532.398 604.636H542.306L554.841 641H546.603L537.494 612.946H537.21L528.084 641ZM527.569 626.707H547.029V632.708H527.569V626.707ZM559.218 641V604.636H573.565C576.323 604.636 578.672 605.163 580.614 606.217C582.555 607.258 584.035 608.708 585.053 610.567C586.082 612.413 586.597 614.544 586.597 616.959C586.597 619.374 586.077 621.504 585.035 623.351C583.993 625.197 582.484 626.636 580.507 627.665C578.542 628.695 576.163 629.21 573.369 629.21H564.225V623.049H572.127C573.606 623.049 574.825 622.795 575.784 622.286C576.755 621.765 577.477 621.049 577.95 620.137C578.436 619.214 578.678 618.154 578.678 616.959C578.678 615.751 578.436 614.698 577.95 613.798C577.477 612.887 576.755 612.183 575.784 611.685C574.814 611.176 573.582 610.922 572.091 610.922H566.906V641H559.218ZM599.279 604.636V641H591.591V604.636H599.279ZM628.155 621.504L621.23 621.93C621.111 621.339 620.857 620.806 620.466 620.332C620.076 619.847 619.561 619.462 618.922 619.178C618.294 618.882 617.543 618.734 616.667 618.734C615.495 618.734 614.506 618.983 613.701 619.48C612.897 619.965 612.494 620.616 612.494 621.433C612.494 622.084 612.754 622.635 613.275 623.085C613.796 623.534 614.69 623.895 615.956 624.168L620.892 625.162C623.544 625.706 625.521 626.582 626.823 627.79C628.125 628.997 628.776 630.583 628.776 632.548C628.776 634.336 628.249 635.904 627.196 637.254C626.154 638.603 624.722 639.656 622.899 640.414C621.088 641.16 618.999 641.533 616.631 641.533C613.021 641.533 610.144 640.781 608.002 639.278C605.871 637.763 604.622 635.703 604.255 633.099L611.695 632.708C611.92 633.809 612.464 634.649 613.329 635.229C614.193 635.798 615.299 636.082 616.649 636.082C617.975 636.082 619.04 635.827 619.845 635.318C620.662 634.797 621.076 634.129 621.088 633.312C621.076 632.625 620.786 632.063 620.218 631.625C619.65 631.175 618.774 630.832 617.59 630.595L612.867 629.654C610.204 629.121 608.221 628.198 606.919 626.884C605.629 625.57 604.983 623.895 604.983 621.859C604.983 620.107 605.457 618.598 606.404 617.332C607.363 616.065 608.706 615.089 610.434 614.402C612.174 613.715 614.21 613.372 616.542 613.372C619.987 613.372 622.698 614.1 624.674 615.556C626.663 617.012 627.823 618.995 628.155 621.504Z"
    fill="black" />
  <path
    d="M418.303 696.455C418.303 699.523 417.749 702.174 416.641 704.409C415.533 706.644 414.013 708.367 412.081 709.58C410.149 710.792 407.943 711.398 405.462 711.398C402.981 711.398 400.774 710.792 398.842 709.58C396.911 708.367 395.391 706.644 394.283 704.409C393.175 702.174 392.621 699.523 392.621 696.455C392.621 693.386 393.175 690.735 394.283 688.5C395.391 686.265 396.911 684.542 398.842 683.33C400.774 682.117 402.981 681.511 405.462 681.511C407.943 681.511 410.149 682.117 412.081 683.33C414.013 684.542 415.533 686.265 416.641 688.5C417.749 690.735 418.303 693.386 418.303 696.455ZM414.893 696.455C414.893 693.936 414.472 691.81 413.629 690.077C412.796 688.344 411.664 687.032 410.234 686.142C408.814 685.252 407.223 684.807 405.462 684.807C403.7 684.807 402.105 685.252 400.675 686.142C399.254 687.032 398.123 688.344 397.28 690.077C396.446 691.81 396.03 693.936 396.03 696.455C396.03 698.973 396.446 701.099 397.28 702.832C398.123 704.565 399.254 705.877 400.675 706.767C402.105 707.657 403.7 708.102 405.462 708.102C407.223 708.102 408.814 707.657 410.234 706.767C411.664 705.877 412.796 704.565 413.629 702.832C414.472 701.099 414.893 698.973 414.893 696.455ZM423.771 719.182V689.182H427.01V692.648H427.408C427.654 692.269 427.995 691.786 428.43 691.199C428.875 690.602 429.51 690.072 430.334 689.608C431.167 689.134 432.294 688.898 433.714 688.898C435.552 688.898 437.171 689.357 438.572 690.276C439.974 691.194 441.068 692.496 441.854 694.182C442.64 695.867 443.033 697.856 443.033 700.148C443.033 702.458 442.64 704.461 441.854 706.156C441.068 707.842 439.979 709.149 438.587 710.077C437.195 710.995 435.589 711.455 433.771 711.455C432.37 711.455 431.248 711.223 430.405 710.759C429.562 710.285 428.913 709.75 428.459 709.153C428.004 708.547 427.654 708.045 427.408 707.648H427.124V719.182H423.771ZM427.067 700.091C427.067 701.739 427.308 703.192 427.791 704.452C428.274 705.702 428.98 706.682 429.908 707.392C430.836 708.093 431.972 708.443 433.317 708.443C434.718 708.443 435.888 708.074 436.825 707.335C437.772 706.587 438.482 705.583 438.956 704.324C439.439 703.055 439.68 701.644 439.68 700.091C439.68 698.557 439.444 697.174 438.97 695.943C438.506 694.703 437.801 693.723 436.854 693.003C435.916 692.274 434.737 691.909 433.317 691.909C431.953 691.909 430.807 692.255 429.879 692.946C428.951 693.628 428.25 694.584 427.777 695.815C427.304 697.037 427.067 698.462 427.067 700.091ZM457.294 711.455C455.192 711.455 453.378 710.991 451.854 710.062C450.339 709.125 449.169 707.818 448.345 706.142C447.531 704.456 447.124 702.496 447.124 700.261C447.124 698.027 447.531 696.057 448.345 694.352C449.169 692.638 450.315 691.303 451.783 690.347C453.26 689.381 454.983 688.898 456.953 688.898C458.089 688.898 459.212 689.087 460.32 689.466C461.428 689.845 462.436 690.46 463.345 691.312C464.254 692.155 464.979 693.273 465.518 694.665C466.058 696.057 466.328 697.771 466.328 699.807V701.227H449.51V698.33H462.919C462.919 697.098 462.673 696 462.18 695.034C461.697 694.068 461.006 693.306 460.107 692.747C459.216 692.188 458.165 691.909 456.953 691.909C455.618 691.909 454.463 692.241 453.487 692.903C452.521 693.557 451.778 694.409 451.257 695.46C450.736 696.511 450.476 697.638 450.476 698.841V700.773C450.476 702.42 450.76 703.817 451.328 704.963C451.906 706.099 452.706 706.966 453.729 707.562C454.751 708.15 455.94 708.443 457.294 708.443C458.175 708.443 458.97 708.32 459.68 708.074C460.4 707.818 461.02 707.439 461.541 706.938C462.062 706.426 462.464 705.792 462.749 705.034L465.987 705.943C465.646 707.042 465.073 708.008 464.268 708.841C463.464 709.665 462.469 710.309 461.286 710.773C460.102 711.227 458.771 711.455 457.294 711.455ZM474.78 697.875V711H471.428V689.182H474.666V692.591H474.95C475.462 691.483 476.238 690.593 477.28 689.92C478.321 689.239 479.666 688.898 481.314 688.898C482.791 688.898 484.084 689.201 485.192 689.807C486.3 690.403 487.161 691.312 487.777 692.534C488.393 693.746 488.7 695.28 488.7 697.136V711H485.348V697.364C485.348 695.65 484.903 694.314 484.013 693.358C483.123 692.392 481.901 691.909 480.348 691.909C479.278 691.909 478.321 692.141 477.479 692.605C476.645 693.069 475.987 693.746 475.504 694.636C475.021 695.527 474.78 696.606 474.78 697.875ZM496.474 711H492.781L503.462 681.909H507.099L517.781 711H514.087L505.394 686.511H505.167L496.474 711ZM497.837 699.636H512.724V702.761H497.837V699.636ZM522.312 711V681.909H532.141C534.424 681.909 536.289 682.321 537.738 683.145C539.196 683.959 540.276 685.062 540.977 686.455C541.677 687.847 542.028 689.4 542.028 691.114C542.028 692.828 541.677 694.385 540.977 695.787C540.285 697.188 539.215 698.306 537.766 699.139C536.317 699.963 534.461 700.375 532.198 700.375H525.153V697.25H532.085C533.647 697.25 534.902 696.98 535.849 696.44C536.796 695.901 537.482 695.171 537.908 694.253C538.344 693.325 538.562 692.278 538.562 691.114C538.562 689.949 538.344 688.907 537.908 687.989C537.482 687.07 536.791 686.35 535.835 685.83C534.878 685.299 533.609 685.034 532.028 685.034H525.835V711H522.312ZM551.225 681.909V711H547.702V681.909H551.225Z"
    fill="black" />
  <defs>
    <clipPath id="clip0_102_665">
      <rect width="126.031" height="150" fill="white" transform="translate(1338 359)" />
    </clipPath>
  </defs>
</svg>