<svg width="292" height="60" viewBox="0 0 292 60" fill="none" xmlns="http://www.w3.org/2000/svg">
  <path fill-rule="evenodd" clip-rule="evenodd"
    d="M34.1518 22H22.7783L35.0212 59.0909H48.7854L61.0283 22H49.6547L42.0481 48.152H41.7584L34.1518 22ZM50.4053 23L42.7987 49.152H41.0078L33.4013 23H24.1614L35.7441 58.0909H48.0624L59.6451 23H50.4053ZM69.5532 50.9915H83.2827L85.4197 58.0909H94.1598L82.577 23H70.2588L58.6761 58.0909H67.4161L69.5532 50.9915ZM68.1594 59.0909L70.2965 51.9915H82.5394L84.6764 59.0909H95.5429L83.3 22H69.5358L57.2929 59.0909H68.1594ZM71.2321 45.4574L75.5303 31.2145H77.3056L81.6037 45.4574H71.2321ZM72.5784 44.4574H80.2574L76.5628 32.2145H76.273L72.5784 44.4574ZM107.664 22H99.1153V59.0909H109.185V39.6037H109.402L122.804 59.0909H131.208V22H121.138V41.4148H120.848L107.664 22ZM122.138 23V42.4148H120.319L107.134 23H100.115V58.0909H108.185V38.6037H109.928L123.33 58.0909H130.208V23H122.138ZM155.2 43.6023H170.53V58.0909H178.6V23H170.53V37.4886H155.2V23H147.131V58.0909H155.2V43.6023ZM156.2 59.0909H146.131V22H156.2V36.4886H169.53V22H179.6V59.0909H169.53V44.6023H156.2V59.0909ZM214.367 27.0848C211.331 24.0829 207.088 22.4929 202.274 22.4929C197.423 22.4929 193.182 24.0837 190.156 27.0838C187.135 30.0795 185.236 34.5704 185.236 40.5454C185.236 46.4829 187.134 50.975 190.157 53.9809C193.184 56.9909 197.426 58.598 202.274 58.598C207.088 58.598 211.331 57.008 214.367 54.0061C217.397 51.0091 219.313 46.5179 219.313 40.5454C219.313 34.573 217.397 30.0818 214.367 27.0848ZM208.79 48.7855C207.281 50.8124 205.043 51.8324 202.274 51.8324C199.505 51.8324 197.268 50.8124 195.758 48.7855C194.284 46.8059 193.595 43.9885 193.595 40.5454C193.595 37.1024 194.284 34.285 195.758 32.3054C197.268 30.2785 199.505 29.2585 202.274 29.2585C205.043 29.2585 207.281 30.2785 208.79 32.3054C210.265 34.285 210.953 37.1024 210.953 40.5454C210.953 43.9885 210.265 46.8059 208.79 48.7855ZM254.957 27.0848C251.922 24.0829 247.679 22.4929 242.865 22.4929C238.014 22.4929 233.772 24.0837 230.747 27.0838C227.726 30.0795 225.827 34.5704 225.827 40.5454C225.827 46.4829 227.725 50.975 230.748 53.9809C233.775 56.9909 238.017 58.598 242.865 58.598C247.679 58.598 251.922 57.008 254.957 54.0061C257.988 51.0091 259.904 46.5179 259.904 40.5454C259.904 34.573 257.988 30.0818 254.957 27.0848ZM249.381 48.7855C247.872 50.8124 245.634 51.8324 242.865 51.8324C240.096 51.8324 237.859 50.8124 236.349 48.7855C234.875 46.8059 234.186 43.9885 234.186 40.5454C234.186 37.1024 234.875 34.285 236.349 32.3054C237.859 30.2785 240.096 29.2585 242.865 29.2585C245.634 29.2585 247.872 30.2785 249.381 32.3054C250.856 34.285 251.544 37.1024 251.544 40.5454C251.544 43.9885 250.856 46.8059 249.381 48.7855ZM274.632 43.6023H289.048V37.4886H274.632V29.1136H290.642V23H266.563V58.0909H274.632V43.6023ZM275.632 59.0909H265.563V22H291.642V30.1136H275.632V36.4886H290.048V44.6023H275.632V59.0909ZM202.274 21.4929C212.344 21.4929 220.313 28.1577 220.313 40.5454C220.313 52.9332 212.344 59.598 202.274 59.598C192.132 59.598 184.236 52.8608 184.236 40.5454C184.236 28.1577 192.132 21.4929 202.274 21.4929ZM202.274 50.8324C207.273 50.8324 209.953 47.2102 209.953 40.5454C209.953 33.8807 207.273 30.2585 202.274 30.2585C197.276 30.2585 194.595 33.8807 194.595 40.5454C194.595 47.2102 197.276 50.8324 202.274 50.8324ZM242.865 21.4929C252.935 21.4929 260.904 28.1577 260.904 40.5454C260.904 52.9332 252.935 59.598 242.865 59.598C232.723 59.598 224.827 52.8608 224.827 40.5454C224.827 28.1577 232.723 21.4929 242.865 21.4929ZM242.865 50.8324C247.864 50.8324 250.544 47.2102 250.544 40.5454C250.544 33.8807 247.864 30.2585 242.865 30.2585C237.867 30.2585 235.186 33.8807 235.186 40.5454C235.186 47.2102 237.867 50.8324 242.865 50.8324Z"
    fill="#1C1917" />
  <path
    d="M0 0V37.0909H9.85227V15.5028H10.142L18.4006 36.8011H24.3409L32.5994 15.6477H32.8892V37.0909H42.7415V0H30.2088L21.5881 21.0085H21.1534L12.5327 0H0Z"
    fill="#1C1917" />
  <path
    d="M57.1486 37.0909L59.2857 29.9915H71.5286L73.6657 37.0909H84.5321L72.2892 0H58.525L46.2821 37.0909H57.1486ZM61.5676 22.4574L65.2623 10.2145H65.552L69.2466 22.4574H61.5676Z"
    fill="#1C1917" />
  <path
    d="M97.7394 37.0909L99.8765 29.9915H112.119L114.256 37.0909H125.123L112.88 0H99.1159L86.873 37.0909H97.7394ZM102.158 22.4574L105.853 10.2145H106.143L109.837 22.4574H102.158Z"
    fill="#1C1917" />
  <path
    d="M128.695 37.0909H138.765V24.848H142.242L148.762 37.0909H159.701L152.167 23.2543C156.115 21.3526 158.469 17.7486 158.469 12.6051C158.469 4.70881 152.946 0 144.705 0H128.695V37.0909ZM138.765 17.0241V8.04119H142.315C145.846 8.04119 147.965 9.41762 147.965 12.6051C147.965 15.7745 145.846 17.0241 142.315 17.0241H138.765Z"
    fill="#1C1917" />
  <path d="M161.748 8.11364H172.904V37.0909H182.828V8.11364H193.985V0H161.748V8.11364Z" fill="#1C1917" />
  <path d="M197.774 37.0909H224.434V28.9773H207.844V22.6023H223.13V14.4886H207.844V8.11364H224.506V0H197.774V37.0909Z"
    fill="#1C1917" />
  <path d="M261.592 0H251.523V19.4148H251.233L238.048 0H229.5V37.0909H239.57V17.6037H239.787L253.189 37.0909H261.592V0Z"
    fill="#1C1917" />
</svg>
