<svg width="232" height="232" viewBox="0 0 232 232" fill="none" xmlns="http://www.w3.org/2000/svg">
	<g clip-path="url(#clip0_114_232)">
		<path
			d="M115 85C131.569 85 145 98.4314 145 115C145 131.569 131.569 145 115 145C98.4314 145 85 131.569 85 115C85 98.4314 98.4314 85 115 85ZM92.4688 115C92.4688 118.287 93.1766 121.411 94.4472 124.229L111.266 112.992V92.7801C100.613 94.5647 92.4688 103.848 92.4688 115ZM118.734 92.7801V112.992L135.553 124.229C136.823 121.411 137.531 118.287 137.531 115C137.531 103.848 129.387 94.5647 118.734 92.7801ZM131.397 130.435L118.735 121.974V137.22C123.686 136.39 128.096 133.941 131.397 130.435ZM111.266 137.22V121.974L98.6028 130.435C101.904 133.941 106.314 136.39 111.266 137.22Z"
			fill="black" />
		<path
			d="M176.083 207.936C176.083 210.415 176.083 212.894 176.083 215.686C168.088 215.686 160.249 215.686 152.006 215.686C152.006 213.379 152.006 211.113 152.004 208.424C152.002 208 151.93 208.07 152.389 208.037C155.111 208.005 157.374 208.005 159.68 208.005C159.68 202.419 159.68 197.24 159.68 191.93C156.883 191.93 154.406 191.93 151.966 191.965C152.002 192 152.076 192.069 152.076 192.069C152.049 189.66 152.022 187.251 152.417 184.418C155.107 183.995 157.375 183.995 159.642 183.995C159.642 181.075 159.642 178.565 159.642 176.328C156.875 176.328 154.471 176.328 152.064 176.328C152.064 179.132 152.064 181.608 152.064 184.083C149.576 184.083 147.088 184.083 144.227 184.083C144.227 178.815 144.227 173.729 144.227 168.247C138.799 168.247 133.729 168.247 128.33 168.247C128.33 165.465 128.33 163.058 128.33 160.322C135.826 160.322 143.566 160.322 151.699 160.322C151.699 162.503 151.699 164.91 151.699 167.66C154.483 167.66 156.897 167.66 159.859 167.66C159.859 154.753 159.859 141.558 159.859 128.193C162.806 128.193 165.211 128.193 167.996 128.193C167.996 130.79 167.996 133.204 167.996 135.99C170.781 135.99 173.194 135.99 175.978 135.99C175.978 138.771 175.978 141.183 175.978 143.974C181.421 143.974 186.503 143.974 191.961 143.974C191.961 149.422 191.961 154.499 191.961 159.781C197.42 159.781 202.491 159.781 208.006 159.781C208.006 157.396 208.006 155.122 208.006 152.424C208.006 152 207.938 152.073 207.938 152.073C210.404 152.073 212.871 152.073 215.858 152.073C215.858 154.581 215.858 157.111 215.858 160.006C218.632 160.006 220.892 160.006 223.576 160.006C223.999 160.005 223.926 159.936 223.926 159.936C223.926 162.42 223.926 164.904 223.926 167.755C218.84 167.755 213.765 167.755 208.307 167.755C208.307 170.495 208.307 172.897 208.307 175.683C205.541 175.683 203.137 175.683 200.36 175.683C200.36 178.569 200.36 181.084 200.36 183.988C202.782 183.988 205.191 183.988 207.967 183.988C207.967 186.762 207.967 189.173 207.967 192.006C210.606 192.006 212.88 192.006 215.577 192.004C216 192.002 215.93 191.93 215.962 192.381C215.973 195.245 215.951 197.657 215.965 200.034C216 199.997 216.069 199.924 216.069 199.924C205.508 199.924 194.947 199.924 184.023 199.924C184.023 202.778 184.023 205.182 184.023 208.005C181.394 208.005 179.124 208.005 176.425 207.582C175.996 204.892 175.996 202.625 175.996 200.357C173.075 200.357 170.565 200.357 168.328 200.357C168.328 203.124 168.328 205.529 168.328 207.936C171.132 207.936 173.608 207.936 176.083 207.936ZM180.494 192C184.263 192 188.032 192 191.714 192C191.714 183.688 191.714 175.95 191.714 168.287C183.686 168.287 175.948 168.287 168.288 168.287C168.288 176.315 168.288 184.054 168.288 192C172.218 192 175.862 192 180.494 192Z"
			fill="black" />
		<path
			d="M224.063 71.9269C218.914 71.9269 213.764 71.9269 208.206 71.9269C208.089 74.5721 207.983 76.9855 207.859 79.7899C202.779 79.7899 197.694 79.7899 192.305 79.7899C192.305 85.2452 192.305 90.3182 192.305 95.6982C194.584 95.6982 196.99 95.6982 199.79 95.6982C199.79 93.4242 199.79 91.0105 199.79 88.2978C202.574 88.2978 204.99 88.2978 208.008 88.2978C208.008 98.4189 208.008 108.688 208.095 119.38C208.181 119.803 208.254 119.721 208.254 119.721C205.644 119.721 203.034 119.721 200.032 119.721C200.032 114.582 200.032 109.497 200.032 104.214C194.571 104.214 189.502 104.214 184.215 104.214C184.215 109.431 184.215 114.503 184.215 119.961C186.757 119.961 189.168 119.961 191.786 119.961C191.786 122.747 191.786 125.154 191.786 127.782C186.594 127.782 181.519 127.782 176.048 127.782C176.048 122.586 176.048 117.502 176.048 112.216C173.252 112.216 170.847 112.216 168.055 112.216C168.055 114.735 168.055 117.15 168.055 119.779C165.269 119.779 162.862 119.779 160.225 119.779C160.225 114.606 160.225 109.529 160.225 104.068C162.733 104.068 165.142 104.068 167.938 104.068C167.938 98.6194 167.938 93.5305 167.938 88.0721C170.727 88.0721 173.138 88.0721 175.772 88.0721C175.772 85.2852 175.772 82.8764 175.772 80.0823C173.291 80.0823 170.878 80.0823 168.006 80.0823C168.006 74.7687 168.006 69.8205 168.007 64.4361C168.007 63.9998 167.938 64.073 167.938 64.073C170.419 64.073 172.901 64.073 175.795 64.073C175.903 66.5137 176.01 68.9327 176.132 71.6768C178.509 71.6768 180.918 71.6768 183.702 71.6768C183.702 69.5104 183.702 67.0976 183.702 64.3405C197.234 64.3405 210.403 64.3405 223.994 64.3405C223.994 66.6108 223.994 68.8814 223.994 71.5761C223.994 72.0001 224.063 71.9269 224.063 71.9269Z"
			fill="black" />
		<path
			d="M56.0015 29.0002C56.0015 38.1396 56.0015 46.779 56.0015 55.7095C37.4035 55.7095 19.0115 55.7095 0.327148 55.7095C0.327148 37.3763 0.327148 18.9845 0.327148 0.294922C18.656 0.294922 37.047 0.294922 56.0015 0.294922C56.0015 9.6468 56.0015 19.0735 56.0015 29.0002ZM14.5844 8.0008C12.485 8.0008 10.3856 8.0008 8.33569 8.0008C8.33569 21.6416 8.33569 34.7017 8.33569 47.7126C21.6935 47.7126 34.7591 47.7126 47.7532 47.7126C47.7532 34.3607 47.7532 21.2977 47.7532 8.0008C36.8367 8.0008 26.2026 8.0008 14.5844 8.0008Z"
			fill="#010101" />
		<path
			d="M5.12195 175.998C22.2363 175.998 38.8618 175.998 55.7436 175.998C55.7436 194.671 55.7436 213.068 55.7436 231.734C37.3513 231.734 18.9585 231.734 0.300293 231.734C0.300293 213.319 0.300293 194.926 0.300293 176.191C1.74836 176.126 3.19076 176.062 5.12195 175.998ZM31.4983 223.999C36.9326 223.999 42.3669 223.999 47.7704 223.999C47.7704 210.392 47.7704 197.33 47.7704 184.276C34.4408 184.276 21.3797 184.276 8.32129 184.276C8.32129 197.613 8.32129 210.672 8.32129 223.999C15.8958 223.999 23.1972 223.999 31.4983 223.999Z"
			fill="#010101" />
		<path
			d="M176.036 12.0153C176.036 7.87693 176.036 4.23518 176.036 0.296875C194.652 0.296875 213.043 0.296875 231.719 0.296875C231.719 18.6199 231.719 37.0164 231.719 55.7078C213.406 55.7078 195.013 55.7078 176.036 55.7078C176.036 41.353 176.036 26.9325 176.036 12.0153ZM224.037 23.503C224.037 18.408 224.037 13.3131 224.037 8.29606C210.401 8.29606 197.34 8.29606 184.341 8.29606C184.341 21.6532 184.341 34.7126 184.341 47.7086C197.703 47.7086 210.768 47.7086 224.037 47.7086C224.037 39.7803 224.037 32.1409 224.037 23.503Z"
			fill="#010101" />
		<path
			d="M96.0688 47.9247C93.6026 47.9247 91.1365 47.9247 87.9935 47.9247C87.9935 53.0705 87.9935 58.0991 87.9936 63.5639C87.9937 64.0002 88.0626 63.927 88.0626 63.927C85.575 63.927 83.0874 63.927 80.226 63.927C80.226 56.1575 80.226 48.4082 80.226 40.3316C77.469 40.3316 75.0621 40.3316 72.2622 40.3316C72.2622 45.1531 72.2622 50.2319 72.2622 55.6553C69.4927 55.6553 67.0859 55.6553 64.3369 55.6553C64.3369 40.0843 64.3369 24.2354 64.3369 8.0051C66.7937 8.0051 69.2037 8.0051 71.9831 8.0051C71.9831 5.22908 71.9831 2.80808 71.9831 0.207031C82.7617 0.207031 93.1625 0.207031 103.994 0.207031C103.994 2.60543 103.994 4.87882 103.996 7.57632C103.997 8.00043 104.07 7.93048 103.613 7.96292C100.802 7.99537 98.4479 7.99537 95.8703 7.99537C95.8703 11.0492 95.8703 13.4639 95.4271 15.9351C92.7239 15.9917 90.4638 15.9917 88.1538 15.9917C88.0226 13.0433 87.9151 10.6285 87.8097 8.26005C85.0516 8.26005 82.6449 8.26005 79.8727 8.26005C79.8727 10.927 79.8727 13.3373 79.8727 16.113C77.0888 16.113 74.6786 16.113 72.2387 16.113C72.2387 18.8978 72.2387 21.2987 72.2387 23.7806C80.2078 23.7806 87.9363 23.7806 95.7184 23.7806C95.7184 20.9563 95.7184 18.3499 96.1936 15.8621C99.1358 16.0106 101.603 16.0406 104.035 16.0355C104 16.0005 103.93 15.9304 103.962 16.401C103.973 21.9379 103.952 27.0042 103.965 32.0355C104 32.0005 104.07 31.9305 103.599 31.963C98.2071 31.9955 93.2865 31.9955 88.3489 31.9955C88.3489 34.9252 88.3489 37.4331 88.3489 40.2893C91.11 40.2893 93.5177 40.2893 95.9298 40.2893C95.9298 43.121 95.9298 45.5958 95.9648 48.0343C95.9998 47.9981 96.0688 47.9247 96.0688 47.9247Z"
			fill="black" />
		<path
			d="M120.076 8.06901C120.076 5.58153 120.076 3.09404 120.076 0.303711C133.165 0.303711 146.233 0.303711 159.65 0.303711C159.65 5.14283 159.65 10.2129 159.65 15.674C154.875 15.674 149.802 15.674 144.365 15.674C144.365 21.2343 144.365 26.4225 144.365 31.8095C146.796 31.8095 149.199 31.8095 151.98 31.8095C151.98 29.2281 151.98 26.8182 151.98 24.2086C157.427 24.2086 162.499 24.2086 167.786 24.2086C167.786 26.7524 167.786 29.1549 167.786 31.937C165.268 31.937 162.858 31.937 159.994 31.937C159.994 37.2428 159.994 42.1851 159.996 47.5638C159.998 48.0001 160.07 47.9301 159.619 47.9626C156.755 47.9734 154.343 47.9517 151.965 47.9651C152 48.0001 152.07 48.0701 152.038 47.6113C152.005 44.8866 152.005 42.6207 152.005 39.8369C146.42 39.8369 141.228 39.8369 135.713 39.8369C135.713 36.8961 135.713 34.4855 135.713 32.0693C132.878 32.0693 130.401 32.0693 127.959 31.5985C127.995 26.2026 127.995 21.2775 127.995 15.8191C130.92 15.8191 133.44 15.8191 135.837 15.8191C135.837 12.9926 135.837 10.7135 135.837 7.93017C130.433 7.93017 125.182 7.93017 119.966 7.96515C120.002 8.00013 120.076 8.06901 120.076 8.06901Z"
			fill="black" />
		<path
			d="M48.0689 159.924C45.6568 159.947 43.2447 159.971 40.4162 159.996C39.9999 159.997 40.07 160.07 40.0375 159.611C40.005 156.894 40.005 154.635 40.005 151.93C34.394 151.93 29.162 151.93 23.9649 151.965C24 152 24.0699 152.07 24.0375 151.612C24.005 148.883 24.005 146.611 24.005 143.976C26.8118 143.976 29.2302 143.976 31.8124 143.976C31.8124 141.207 31.8124 138.809 31.8124 136.339C26.454 136.339 21.2779 136.339 15.9301 136.339C15.9301 141.808 15.9301 146.939 15.965 152.034C16 151.998 16.069 151.924 16.069 151.924C10.9278 151.924 5.78656 151.924 0.323242 151.924C0.323242 149.457 0.323242 147.054 0.323242 144.264C2.52494 144.264 4.93485 144.264 7.67424 144.264C7.67424 141.492 7.67424 139.081 7.67424 136.284C5.50524 136.284 3.09103 136.284 0.337715 136.284C0.337715 133.512 0.337715 131.101 0.337715 128.307C2.47674 128.307 4.89095 128.307 7.86414 128.307C7.86414 122.754 7.86414 117.545 7.86414 112.2C10.8204 112.2 13.2212 112.2 16.0075 112.2C16.0075 117.462 16.0075 122.542 16.0075 127.973C29.449 127.973 42.5106 127.973 55.9939 127.973C55.9939 130.606 55.9939 132.879 55.9957 135.576C55.9976 136 56.07 135.93 55.599 135.962C50.208 135.995 45.288 135.995 40.1892 135.995C40.1892 138.787 40.1892 141.178 40.1892 144.07C45.5793 144.07 50.8247 144.07 56.0338 144.035C55.9976 144 55.9243 143.931 55.9243 143.931C55.9475 146.343 55.9707 148.755 55.9957 151.584C55.9976 152 56.07 151.93 55.6127 151.962C52.7835 151.995 50.4116 151.995 47.93 151.995C47.93 155.161 47.93 157.615 47.965 160.034C48 159.998 48.0689 159.924 48.0689 159.924Z"
			fill="black" />
		<path
			d="M96.076 184.069C96.076 181.583 96.076 179.097 96.076 176.249C90.8379 176.249 85.7589 176.249 80.3403 176.249C80.3403 170.713 80.3403 165.53 80.3403 160.171C82.7097 160.171 84.9937 160.171 87.8324 160.171C87.8324 162.568 87.8324 165.096 87.8324 167.989C93.4468 167.989 98.5249 167.989 103.963 167.989C103.963 170.764 103.963 173.172 103.963 176.006C106.605 176.006 108.879 176.006 111.577 176.004C112 176.002 111.93 175.93 111.963 176.401C111.995 181.792 111.995 186.712 111.995 191.811C114.787 191.811 117.179 191.811 120.07 191.811C120.07 186.42 120.07 181.175 120.035 175.966C120 176.002 119.931 176.076 119.931 176.076C125.07 176.076 130.209 176.076 135.673 176.076C135.673 181.188 135.673 186.249 135.673 191.701C133.494 191.701 131.092 191.701 128.307 191.701C128.307 194.474 128.307 196.885 128.307 199.684C125.542 199.684 123.133 199.684 120.164 199.684C120.164 205.234 120.164 210.433 120.164 215.805C117.213 215.805 114.813 215.805 112.034 215.805C112.034 210.574 112.034 205.493 112.034 199.994C109.392 199.994 107.12 199.994 104.424 199.996C104 199.998 104.07 200.07 104.038 199.599C104.005 194.099 104.005 189.071 104.005 183.93C100.863 183.93 98.3965 183.93 95.9664 183.965C96.0026 184 96.076 184.069 96.076 184.069Z"
			fill="black" />
		<path
			d="M63.9375 160.073C66.419 160.073 68.9005 160.073 71.8915 160.073C71.8915 167.918 71.8915 175.771 71.8915 184.005C79.9731 184.005 87.5517 184.005 95.6031 184.037C96.0757 184.069 96.0023 184 95.9986 184.436C95.9948 189.901 95.9949 194.929 95.9949 200.07C99.1372 200.07 101.603 200.07 104.07 200.07C104.07 200.07 104 199.998 103.965 199.961C103.952 207.658 103.973 215.391 103.994 223.562C103.994 224 104.063 223.926 104.063 223.926C98.8326 223.926 93.6025 223.926 88.0059 223.926C88.0059 221.363 88.0059 219.106 88.0041 216.424C88.0022 216 87.9298 216.07 88.3876 216.038C91.1066 216.005 93.368 216.005 95.6669 216.005C95.6669 213.09 95.6669 210.578 95.6669 207.93C92.866 207.93 90.3979 207.93 87.9648 207.965C87.9998 208 88.0697 208.07 88.0373 207.599C88.0048 202.208 88.0048 197.288 88.0048 192.189C85.2126 192.189 82.8213 192.189 79.93 192.189C79.93 197.579 79.93 202.825 79.9649 208.035C79.9999 208 80.0699 207.93 79.6188 207.962C76.7551 207.973 74.3425 207.952 71.966 207.965C72.0022 208 72.0756 208.069 72.0756 208.069C72.0756 202.941 72.0756 197.814 72.0756 192.309C69.5053 192.309 67.1059 192.309 64.0061 192.309C64.0061 181.589 64.0061 171.232 64.0062 160.437C64.0064 160 63.9375 160.073 63.9375 160.073Z"
			fill="black" />
		<path
			d="M223.924 199.931C223.924 202.414 223.924 204.898 223.924 207.742C226.527 207.742 228.944 207.742 231.682 207.742C231.682 215.956 231.682 223.814 231.682 231.836C229.273 231.836 226.986 231.836 224.315 231.836C224.315 229.538 224.315 227.128 224.315 224.356C218.76 224.356 213.574 224.356 208.005 224.356C208.005 226.791 208.005 229.196 208.005 231.796C202.561 231.796 197.491 231.796 192.043 231.796C192.043 229.242 192.043 226.832 192.043 223.993C189.398 223.993 187.122 223.993 184.423 223.993C183.999 223.993 184.073 224.062 184.073 224.062C184.073 221.582 184.073 219.102 184.073 216.257C186.518 216.257 188.929 216.257 191.707 216.257C191.707 213.502 191.707 211.089 191.707 208.336C197.248 208.336 202.435 208.336 208.001 208.336C208.001 210.801 208.001 213.206 208.001 215.801C210.771 215.801 213.171 215.801 216.005 215.801C216.005 210.735 216.005 205.801 216.037 200.395C216.069 199.924 216 199.997 216.416 200.001C219.245 200.026 221.657 200.048 224.034 200.035C223.997 200 223.924 199.931 223.924 199.931Z"
			fill="black" />
		<path
			d="M48.0693 95.924C42.9255 95.924 37.7818 95.924 32.2432 95.924C32.2432 101.204 32.2432 106.274 32.2432 111.671C29.4634 111.671 27.0566 111.671 24.2639 111.671C24.2639 106.836 24.2639 101.756 24.2639 96.3372C18.8352 96.3372 13.7671 96.3372 8.30572 96.3372C8.30572 98.4957 8.30572 100.902 8.30572 103.655C5.52676 103.655 3.11856 103.655 0.347168 103.655C0.347168 98.8781 0.347168 93.8008 0.347168 88.3295C5.11919 88.3295 10.194 88.3295 15.8279 88.3295C15.8279 80.105 15.8279 72.2388 15.8279 64.1953C18.7911 64.1953 21.1948 64.1953 23.9797 64.1953C23.9797 66.7735 23.9797 69.1867 23.9797 71.9719C26.7627 71.9719 29.1762 71.9719 31.7907 71.9719C31.7907 74.7557 31.7907 77.163 31.7907 79.9537C29.2543 79.9537 26.8411 79.9537 24.2172 79.9537C24.2172 82.7346 24.2172 85.1407 24.2172 88.0059C31.9146 88.0059 39.52 88.0059 47.5629 88.0042C48.0002 88.0024 47.9301 87.9301 47.9626 88.3811C47.9735 91.2447 47.9518 93.6573 47.9652 96.0337C48.0002 95.9975 48.0693 95.924 48.0693 95.924Z"
			fill="black" />
		<path
			d="M168.043 63.965C165.6 63.9307 163.121 63.9307 160.285 63.9307C160.285 66.4919 160.285 68.904 160.285 71.6616C152.098 71.6616 144.258 71.6616 136.006 71.6616C136.006 69.3829 136.006 67.1154 136.004 64.4239C136.002 63.9998 135.93 64.0698 136.389 64.0373C139.111 64.0048 141.374 64.0048 144.135 64.0048C144.135 58.4282 144.135 53.2367 144.135 48.0697C147.117 48.0697 149.593 48.0697 152.07 48.0697C152.07 48.0697 152 47.9997 151.997 48.4225C151.995 51.1066 151.995 53.3679 151.995 55.6668C154.91 55.6668 157.422 55.6668 160.07 55.6668C160.07 52.8659 160.07 50.3978 160.07 47.9297C160.07 47.9297 159.998 47.9998 159.961 48.0342C162.391 48.0687 164.858 48.0687 167.995 48.0687C167.995 53.0713 167.995 58.1006 167.966 63.6013C167.938 64.0726 168.007 63.9994 168.043 63.965Z"
			fill="black" />
		<path
			d="M223.957 72.034C226.409 72.0684 228.898 72.0684 231.693 72.0684C231.693 77.1642 231.693 82.2438 231.693 87.7155C229.481 87.7155 227.077 87.7155 224.334 87.7155C224.334 90.4933 224.334 92.9038 224.334 95.6957C226.48 95.6957 228.894 95.6957 231.657 95.6957C231.657 101.253 231.657 106.446 231.657 111.798C229.175 111.798 226.771 111.798 223.99 111.798C223.99 109.196 223.99 106.773 223.99 104.002C221.211 104.002 218.801 104.002 216.201 104.002C216.201 95.891 216.201 88.1574 216.201 80.0438C218.757 80.0438 221.167 80.0438 224.005 80.0438C224.005 77.3967 224.005 75.1197 224.034 72.3847C224.063 71.9265 223.994 71.9997 223.957 72.034Z"
			fill="black" />
		<path
			d="M39.9654 159.961C39.9309 162.411 39.9309 164.897 39.9309 167.692C26.7324 167.692 13.5554 167.692 0.188477 167.692C0.188477 165.201 0.188477 162.803 0.188477 160.027C5.43446 160.027 10.5143 160.027 16.0055 160.027C16.0055 157.387 16.0055 155.115 16.0372 152.384C16.069 151.924 16 151.998 16.4161 152.002C19.2447 152.027 21.6573 152.049 24.0699 152.07C24.0699 152.07 23.9999 152 23.9974 152.424C23.9948 155.106 23.9948 157.365 23.9948 160.07C29.6057 160.07 34.8378 160.07 40.0699 160.07C40.0699 160.07 39.9998 159.998 39.9654 159.961Z"
			fill="black" />
		<path
			d="M208.043 151.965C205.591 151.931 203.102 151.931 200.307 151.931C200.307 144.171 200.307 136.428 200.307 128.291C202.508 128.291 204.912 128.291 208.02 128.291C208.02 125.511 208.02 123.098 208.137 120.202C208.254 119.721 208.181 119.803 208.15 119.838C210.571 119.872 213.022 119.872 215.735 119.872C215.735 125.234 215.735 130.281 215.735 135.698C213.496 135.698 211.106 135.698 207.995 135.698C207.995 141.067 207.995 146.098 207.966 151.601C207.938 152.073 208.006 152 208.043 151.965Z"
			fill="black" />
		<path
			d="M216.035 192.04C216.069 189.595 216.069 187.114 216.069 184.265C218.505 184.265 220.919 184.265 223.709 184.265C223.709 181.512 223.709 179.102 223.709 176.345C226.467 176.345 228.869 176.345 231.644 176.345C231.644 183.898 231.644 191.738 231.644 199.995C229.383 199.995 227.113 199.995 224.384 199.963C223.924 199.932 223.998 200 224.002 199.578C224.005 196.784 224.005 194.412 224.005 191.93C220.839 191.93 218.385 191.93 215.93 191.93C215.93 191.93 216 192.003 216.035 192.04Z"
			fill="black" />
		<path
			d="M48.0759 104.069C48.0525 101.655 48.0291 99.241 48.0374 96.3754C48.0692 95.9238 48.0001 95.9972 48.4356 96.001C53.9375 96.0264 59.0039 96.048 64.034 96.0346C63.9977 95.9996 63.9243 95.9307 63.9243 95.9307C63.9243 98.4052 63.9243 100.88 63.9243 103.711C66.4813 103.711 68.8888 103.711 71.65 103.711C71.65 106.567 71.65 109.075 71.65 111.994C66.7132 111.994 61.7929 111.994 56.4364 111.996C56.0001 111.997 56.0701 112.07 56.0377 111.612C56.0052 108.783 56.0052 106.411 56.0052 103.93C52.8393 103.93 50.3847 103.93 47.9663 103.965C48.0025 104 48.0759 104.069 48.0759 104.069Z"
			fill="black" />
		<path
			d="M61.9709 64.001C65.4458 64.001 68.4263 64.001 71.7022 64.001C71.7022 66.5982 71.7022 69.0058 71.7022 71.7103C61.4208 71.7103 51.0072 71.7103 40.2959 71.7103C40.2959 69.3984 40.2959 66.9942 40.2959 64.001C47.2665 64.001 54.3715 64.001 61.9709 64.001Z"
			fill="black" />
		<path
			d="M183.965 223.957C183.931 226.407 183.931 228.893 183.931 231.69C173.401 231.69 162.886 231.69 152.189 231.69C152.189 229.195 152.189 226.798 152.189 224.006C162.624 224.006 172.876 224.006 183.6 224.034C184.073 224.062 183.999 223.994 183.965 223.957Z"
			fill="black" />
		<path
			d="M136.039 63.9652C131.008 63.9516 125.94 63.9725 120.436 63.9933C120 63.9933 120.073 64.0622 120.073 64.0622C120.051 61.652 120.029 59.2418 120.004 56.4156C120.002 55.9995 119.93 56.0696 120.387 56.0371C123.217 56.0047 125.589 56.0047 127.931 56.0047C127.931 52.835 127.931 50.3794 128.389 47.959C131.106 47.9941 133.365 47.9941 135.93 47.9941C135.93 53.6048 135.93 58.8372 135.93 64.0696C135.93 64.0696 136.002 63.9996 136.039 63.9652Z"
			fill="black" />
		<path
			d="M136.279 208.254C136.279 205.643 136.279 203.031 136.279 200.042C138.753 200.042 141.166 200.042 143.952 200.042C143.952 197.262 143.952 194.837 143.952 192.006C146.603 192.006 148.881 192.006 151.617 192.038C152.076 192.069 152.002 192 151.999 192.436C151.973 197.938 151.952 203.004 151.93 208.07C151.93 208.07 152.002 208 152.039 207.966C147.064 207.957 142.052 207.983 136.618 208.095C136.197 208.181 136.279 208.254 136.279 208.254Z"
			fill="black" />
		<path
			d="M55.9609 136.034C58.4034 136.069 60.8826 136.069 63.725 136.069C63.725 133.501 63.725 131.092 63.725 128.34C66.4714 128.34 68.8719 128.34 71.6441 128.34C71.6441 133.225 71.6441 138.397 71.6441 143.994C66.7174 143.994 61.7924 143.994 56.3959 143.962C55.9243 143.931 55.9977 144 56.0014 143.584C56.0267 140.755 56.0484 138.342 56.0701 135.93C56.0701 135.93 55.9976 136 55.9609 136.034Z"
			fill="black" />
		<path
			d="M103.961 8.03407C108.994 8.04739 114.064 8.02629 119.605 8.03687C120.076 8.06856 120.003 7.99969 119.999 8.43578C119.995 13.7924 119.995 18.713 119.995 23.6506C117.079 23.6506 114.569 23.6506 111.711 23.6506C111.711 20.8895 111.711 18.4818 111.711 15.9296C108.88 15.9296 106.405 15.9296 103.93 15.9296C103.93 15.9296 104 15.9997 104.003 15.5836C104.027 12.7549 104.048 10.3423 104.07 7.92969C104.07 7.92969 103.998 7.99964 103.961 8.03407Z"
			fill="black" />
		<path
			d="M55.9654 111.961C55.9309 114.407 55.9309 116.889 55.9309 119.686C50.8679 119.686 45.7964 119.686 40.3613 119.686C40.3613 114.77 40.3613 109.594 40.3613 104.006C42.6213 104.006 44.8891 104.006 47.6164 104.038C48.0757 104.069 48.0023 104 47.9986 104.423C47.9948 107.217 47.9948 109.589 47.9948 112.07C51.1607 112.07 53.6153 112.07 56.0699 112.07C56.0699 112.07 55.9999 111.998 55.9654 111.961Z"
			fill="black" />
		<path
			d="M48.0343 88.0392C48.0688 85.5992 48.0688 83.1225 48.0688 80.3232C53.2396 80.3232 58.4171 80.3232 63.9937 80.3232C63.9937 82.626 63.9937 84.8891 63.9956 87.5762C63.9975 88.0002 64.0699 87.9302 63.5994 87.9626C58.0624 87.9735 52.9961 87.9518 47.9297 87.9302C47.9297 87.9302 47.9998 88.0025 48.0343 88.0392Z"
			fill="black" />
		<path
			d="M112.069 47.9239C109.657 47.9471 107.245 47.9703 104.416 47.9954C104 47.9973 104.07 48.0697 104.038 47.5992C104.027 42.0623 104.048 36.996 104.07 31.9297C104.07 31.9297 104 31.9996 104.424 32.0022C107.106 32.0047 109.365 32.0047 111.93 32.0047C111.93 37.6046 111.93 42.8372 111.965 48.0335C112 47.9973 112.069 47.9239 112.069 47.9239Z"
			fill="black" />
		<path
			d="M112.035 176.039C112.069 170.829 112.069 165.582 112.069 160.19C114.821 160.19 117.213 160.19 119.995 160.19C119.995 165.291 119.995 170.212 119.963 175.604C119.931 176.076 120 176.002 119.584 175.999C116.755 175.973 114.343 175.952 111.93 175.93C111.93 175.93 112 176.002 112.035 176.039Z"
			fill="black" />
		<path
			d="M79.9244 215.931C79.9244 221.176 79.9244 226.421 79.9244 231.81C77.1786 231.81 74.7876 231.81 72.0061 231.81C72.0061 226.711 72.0061 221.792 72.0043 216.436C72.0025 216 71.9301 216.07 72.3812 216.037C75.2449 216.026 77.6576 216.048 80.034 216.035C79.9978 216 79.9244 215.931 79.9244 215.931Z"
			fill="black" />
		<path
			d="M135.937 216.074C138.416 216.074 140.896 216.074 143.687 216.074C143.687 221.26 143.687 226.445 143.687 231.817C141.196 231.817 138.804 231.817 136.006 231.817C136.006 226.722 136.006 221.798 136.006 216.437C136.005 216.001 135.937 216.074 135.937 216.074Z"
			fill="black" />
		<path
			d="M224.033 160.042C224.068 154.824 224.068 149.569 224.068 144.162C226.724 144.162 229.004 144.162 231.643 144.162C231.643 149.228 231.643 154.405 231.643 159.994C229.38 159.994 227.112 159.994 224.385 159.965C223.926 159.936 223.999 160.005 224.033 160.042Z"
			fill="black" />
		<path
			d="M231.973 134.741C229.474 135.565 226.999 135.911 224.235 136.298C224.235 130.665 224.235 125.625 224.235 120.291C226.591 120.291 228.983 120.291 231.996 120.291C231.996 124.83 231.996 129.547 231.973 134.741Z"
			fill="black" />
		<path
			d="M72.039 215.966C69.6066 215.931 67.1375 215.931 64.3345 215.931C64.3345 213.423 64.3345 210.913 64.3345 208.006C66.6347 208.006 68.8969 208.006 71.6174 208.038C72.0757 208.069 72.0023 208 71.9986 208.416C71.9732 211.245 71.9516 213.658 71.9299 216.07C71.9299 216.07 72.0023 216 72.039 215.966Z"
			fill="black" />
		<path
			d="M120.039 55.9654C117.62 55.9309 115.164 55.9309 112.006 55.9309C112.006 53.5862 112.006 51.2131 112.038 48.3821C112.069 47.9242 112 47.9976 112.416 48.0013C115.245 47.9781 117.657 47.9511 120.037 48.3757C119.98 51.2415 119.955 53.6558 119.93 56.07C119.93 56.07 120.003 55.9999 120.039 55.9654Z"
			fill="black" />
		<path
			d="M88.0389 215.965C85.6597 215.952 83.2437 215.973 80.3759 215.962C79.9241 215.931 79.9975 216 80.0012 215.584C80.0266 212.755 80.0483 210.342 80.0699 207.93C80.0699 207.93 79.9999 208 80.416 208.002C83.2447 208.026 85.6572 208.048 88.0698 208.07C88.0698 208.07 87.9999 208 87.9974 208.416C87.9732 211.245 87.9515 213.657 87.9298 216.07C87.9298 216.07 88.0022 216 88.0389 215.965Z"
			fill="black" />
		<path
			d="M136.042 215.967C133.598 215.932 131.116 215.932 128.318 215.932C128.318 213.497 128.318 211.088 128.318 208.021C130.496 208.021 132.906 208.021 135.797 208.138C136.279 208.255 136.197 208.181 136.162 208.151C136.083 210.472 136.039 212.824 135.966 215.626C135.937 216.074 136.006 216.001 136.042 215.967Z"
			fill="black" />
		<path
			d="M103.958 224.034C106.395 224.068 108.87 224.068 111.672 224.068C111.672 226.473 111.672 228.876 111.672 231.642C109.435 231.642 106.925 231.642 104.005 231.642C104.005 229.376 104.005 227.109 104.034 224.385C104.063 223.926 103.994 224 103.958 224.034Z"
			fill="black" />
		<path
			d="M87.957 64.0341C90.3948 64.0684 92.8692 64.0684 95.6714 64.0684C95.6714 66.4724 95.6714 68.8758 95.6714 71.6421C93.4349 71.6421 90.9249 71.6421 88.005 71.6421C88.005 69.376 88.005 67.1094 88.0338 64.3846C88.0626 63.9265 87.9937 63.9997 87.957 64.0341Z"
			fill="black" />
		<path
			d="M119.966 63.957C119.931 66.3948 119.931 68.8692 119.931 71.6715C117.528 71.6715 115.124 71.6715 112.358 71.6715C112.358 69.4351 112.358 66.9252 112.358 64.0052C114.624 64.0052 116.89 64.0052 119.615 64.0339C120.073 64.0626 120 63.9937 119.966 63.957Z"
			fill="black" />
		<path
			d="M103.966 47.9609C103.931 50.3934 103.931 52.8625 103.931 55.6655C101.422 55.6655 98.9098 55.6655 96.0059 55.6655C96.0059 53.3653 96.0059 51.103 96.0375 48.3825C96.0692 47.9242 96.0003 47.9976 96.4164 48.0013C99.245 48.0267 101.658 48.0484 104.07 48.0701C104.07 48.0701 104 47.9976 103.966 47.9609Z"
			fill="black" />
		<path
			d="M63.9609 88.0342C66.3934 88.0687 68.8625 88.0687 71.6654 88.0687C71.6654 90.5775 71.6654 93.09 71.6654 95.9939C69.3652 95.9939 67.103 95.9939 64.3825 95.9622C63.9242 95.9305 63.9976 95.9995 64.0013 95.5834C64.0267 92.7548 64.0484 90.3422 64.0701 87.9297C64.0701 87.9297 63.9976 87.9997 63.9609 88.0342Z"
			fill="black" />
		<path
			d="M55.9244 159.931C55.9244 162.399 55.9244 164.866 55.9244 167.667C53.4199 167.667 50.9078 167.667 48.0059 167.667C48.0059 165.364 48.0059 163.102 48.0376 160.382C48.0693 159.924 48.0003 159.997 48.4163 160.001C51.245 160.026 53.6577 160.048 56.0341 160.035C55.9978 160 55.9244 159.931 55.9244 159.931Z"
			fill="black" />
		<path
			d="M64.0432 159.965C61.6625 159.952 59.2452 159.973 56.376 159.962C55.9242 159.931 55.9976 160 56.0013 159.584C56.0267 156.755 56.0484 154.342 56.07 151.93C56.07 151.93 55.9976 152 55.9609 152.034C58.38 152.069 60.8357 152.069 63.9948 152.069C63.9948 154.413 63.9948 156.785 63.9662 159.615C63.9376 160.073 64.0065 159.999 64.0432 159.965Z"
			fill="black" />
		<path
			d="M179.066 184C172.911 182.894 177.826 178.718 175.136 176.191C178.769 176.191 181.153 176.191 183.77 176.191C183.77 178.683 183.77 181.068 183.77 183.792C182.374 183.861 180.956 183.93 179.066 184Z"
			fill="black" />
		<path
			d="M16.0015 30.9662C16.0015 25.8316 16.0015 21.1922 16.0015 16.2783C23.971 16.2783 31.7076 16.2783 39.7225 16.2783C39.7225 23.973 39.7225 31.7095 39.7225 39.7236C32.0253 39.7236 24.2888 39.7236 16.0015 39.7236C16.0015 37.0046 16.0015 34.233 16.0015 30.9662Z"
			fill="black" />
		<path
			d="M24.0499 192.002C29.5133 192.002 34.4856 192.002 39.7262 192.002C39.7262 199.981 39.7262 207.718 39.7262 215.728C32.0156 215.728 24.2788 215.728 16.2705 215.728C16.2705 208.013 16.2705 200.276 16.2705 192.002C18.686 192.002 21.1225 192.002 24.0499 192.002Z"
			fill="black" />
		<path
			d="M213.802 16.0038C214.856 17.1032 215.895 18.1898 215.921 19.3C216.076 25.9582 215.998 32.6218 215.998 39.6409C208.196 39.6409 200.455 39.6409 192.356 39.6409C192.356 32.1903 192.356 24.4486 192.356 16.002C199.154 16.002 206.236 16.002 213.802 16.0038Z"
			fill="black" />
		<path
			d="M128.037 47.6C125.657 48.0489 123.245 48.0272 120.381 48.038C119.93 42.8384 119.93 37.6063 119.93 31.9954C122.635 31.9954 124.894 31.9954 127.611 31.9629C128.048 36.9968 128.027 42.0631 128.037 47.6Z"
			fill="black" />
		<rect x="175" y="175" width="10" height="10" fill="black" />
		<rect x="192" y="16" width="24" height="24" fill="black" />
	</g>
	<defs>
		<clipPath id="clip0_114_232">
			<rect width="232" height="232" fill="white" />
		</clipPath>
	</defs>
</svg>