<svg width="1920" height="1080" viewBox="0 0 1920 1080" fill="none" xmlns="http://www.w3.org/2000/svg">
  <rect width="1920" height="1080" fill="white" />
  <path
    d="M937 530H932C929.348 530 926.804 528.946 924.929 527.071C923.054 525.196 922 522.652 922 520V500C922 497.348 923.054 494.804 924.929 492.929C926.804 491.054 929.348 490 932 490H1012C1014.65 490 1017.2 491.054 1019.07 492.929C1020.95 494.804 1022 497.348 1022 500V520C1022 522.652 1020.95 525.196 1019.07 527.071C1017.2 528.946 1014.65 530 1012 530H1007M937 550H932C929.348 550 926.804 551.054 924.929 552.929C923.054 554.804 922 557.348 922 560V580C922 582.652 923.054 585.196 924.929 587.071C926.804 588.946 929.348 590 932 590H1012C1014.65 590 1017.2 588.946 1019.07 587.071C1020.95 585.196 1022 582.652 1022 580V560C1022 557.348 1020.95 554.804 1019.07 552.929C1017.2 551.054 1014.65 550 1012 550H1007M942 510H942.05M942 570H942.05"
    stroke="black" stroke-width="10" stroke-linecap="round" stroke-linejoin="round" />
  <path
    d="M972 555C980.284 555 987 548.284 987 540C987 531.716 980.284 525 972 525C963.715 525 957 531.716 957 540C957 548.284 963.715 555 972 555Z"
    stroke="black" stroke-width="10" stroke-linecap="round" stroke-linejoin="round" />
  <path
    d="M972 520V525M972 555V560M992 540H987M957 540H952M987 525L982.6 529.4M961.4 550.6L957 555M987 555L982.6 550.6M961.4 529.4L957 525"
    stroke="black" stroke-width="10" stroke-linecap="round" stroke-linejoin="round" />
  <rect x="837" y="382" width="115" height="134" fill="white" />
  <path
    d="M942.457 405.495L921.486 384.524C919.236 382.275 916.187 381 913.013 381H861.998C855.374 381.025 850 386.399 850 393.023V497.002C850 503.626 855.374 509 861.998 509H933.984C940.607 509 945.981 503.626 945.981 497.002V413.994C945.981 410.819 944.707 407.745 942.457 405.495ZM933.009 413.019H913.988V393.997L933.009 413.019ZM861.998 497.002V393.023H901.99V419.018C901.99 422.342 904.664 425.016 907.989 425.016H933.984V497.002H861.998Z"
    fill="black" />
  <path
    d="M879.06 458.788C880.596 458.788 881.832 458.278 882.768 457.258C883.704 456.226 884.196 454.828 884.244 453.064V437.476C884.196 435.724 883.704 434.332 882.768 433.3C881.832 432.268 880.596 431.752 879.06 431.752C877.536 431.752 876.306 432.268 875.37 433.3C874.434 434.32 873.936 435.712 873.875 437.476V453.064C873.948 454.84 874.446 456.238 875.37 457.258C876.294 458.278 877.524 458.788 879.06 458.788ZM879.06 455.008C878.652 455.008 878.334 454.834 878.106 454.486C877.878 454.138 877.764 453.664 877.764 453.064V437.476C877.764 436.18 878.196 435.532 879.06 435.532C879.924 435.532 880.356 436.18 880.356 437.476V453.064C880.356 453.664 880.242 454.138 880.014 454.486C879.786 454.834 879.468 455.008 879.06 455.008ZM886.854 458.5H890.742V447.916C892.974 447.916 894.672 447.196 895.836 445.756C897 444.304 897.582 442.372 897.582 439.96C897.582 437.416 896.988 435.46 895.8 434.092C894.624 432.724 892.938 432.04 890.742 432.04H886.854V458.5ZM890.742 443.956V436C892.026 436 892.83 436.336 893.154 437.008C893.49 437.68 893.658 438.712 893.658 440.104C893.658 441.496 893.49 442.486 893.154 443.074C892.818 443.662 892.014 443.956 890.742 443.956ZM899.51 458.5H908.402V454.504H903.398V447.232H906.998V442.984H903.398V436.036H908.402V432.04H899.51V458.5ZM910.549 458.5H914.113V443.488H914.329L914.653 444.712L918.433 458.5H921.889V432.04H918.325V447.052H918.109L917.785 445.828L914.005 432.04H910.549V458.5Z"
    fill="black" />
  <path
    d="M881.907 488H885.687L886.407 482.6H890.151L890.871 488H894.651L890.655 461.54H885.903L881.907 488ZM886.947 478.496L888.063 470.144L888.171 469.46H888.387L888.495 470.144L889.611 478.496H886.947ZM896.452 488H900.34V477.416C902.572 477.416 904.27 476.696 905.434 475.256C906.598 473.804 907.18 471.872 907.18 469.46C907.18 466.916 906.586 464.96 905.398 463.592C904.222 462.224 902.536 461.54 900.34 461.54H896.452V488ZM900.34 473.456V465.5C901.624 465.5 902.428 465.836 902.752 466.508C903.088 467.18 903.256 468.212 903.256 469.604C903.256 470.996 903.088 471.986 902.752 472.574C902.416 473.162 901.612 473.456 900.34 473.456ZM909.108 488H912.996V461.54H909.108V488Z"
    fill="black" />
  <g opacity="0.1">
    <path
      d="M403 519H291C286.582 519 283 515.418 283 511V495C283 490.582 286.582 487 291 487H403C407.418 487 411 490.582 411 495V511C411 515.418 407.418 519 403 519ZM391 497C387.686 497 385 499.686 385 503C385 506.314 387.686 509 391 509C394.314 509 397 506.314 397 503C397 499.686 394.314 497 391 497ZM375 497C371.686 497 369 499.686 369 503C369 506.314 371.686 509 375 509C378.314 509 381 506.314 381 503C381 499.686 378.314 497 375 497ZM403 559H291C286.582 559 283 555.418 283 551V535C283 530.582 286.582 527 291 527H403C407.418 527 411 530.582 411 535V551C411 555.418 407.418 559 403 559ZM391 537C387.686 537 385 539.686 385 543C385 546.314 387.686 549 391 549C394.314 549 397 546.314 397 543C397 539.686 394.314 537 391 537ZM375 537C371.686 537 369 539.686 369 543C369 546.314 371.686 549 375 549C378.314 549 381 546.314 381 543C381 539.686 378.314 537 375 537ZM403 599H291C286.582 599 283 595.418 283 591V575C283 570.582 286.582 567 291 567H403C407.418 567 411 570.582 411 575V591C411 595.418 407.418 599 403 599ZM391 577C387.686 577 385 579.686 385 583C385 586.314 387.686 589 391 589C394.314 589 397 586.314 397 583C397 579.686 394.314 577 391 577ZM375 577C371.686 577 369 579.686 369 583C369 586.314 371.686 589 375 589C378.314 589 381 586.314 381 583C381 579.686 378.314 577 375 577Z"
      fill="black" />
    <path
      d="M466.232 540.732C465.255 541.709 465.255 543.291 466.232 544.268L482.141 560.178C483.118 561.154 484.701 561.154 485.677 560.178C486.653 559.201 486.653 557.618 485.677 556.642L471.535 542.5L485.677 528.358C486.653 527.382 486.653 525.799 485.677 524.822C484.701 523.846 483.118 523.846 482.141 524.822L466.232 540.732ZM824.001 540L467.999 540L467.999 545L824.001 545L824.001 540Z"
      fill="black" />
  </g>
  <g opacity="0.1">
    <path
      d="M973.768 270.232C972.791 269.256 971.209 269.256 970.232 270.232L954.322 286.142C953.346 287.118 953.346 288.701 954.322 289.678C955.299 290.654 956.882 290.654 957.858 289.678L972 275.536L986.142 289.678C987.118 290.654 988.701 290.654 989.678 289.678C990.654 288.701 990.654 287.118 989.678 286.142L973.768 270.232ZM974.5 412L974.5 272L969.5 272L969.5 412L974.5 412Z"
      fill="black" />
    <path
      d="M929.333 129C929.333 125.464 930.738 122.072 933.238 119.572C935.739 117.071 939.13 115.667 942.667 115.667H1004C1005.75 115.667 1007.48 116.011 1009.1 116.681C1010.72 117.352 1012.19 118.334 1013.43 119.572C1014.67 120.81 1015.65 122.28 1016.32 123.897C1016.99 125.515 1017.33 127.249 1017.33 129V205C1017.33 206.061 1016.91 207.078 1016.16 207.828C1015.41 208.578 1014.39 209 1013.33 209H937.333C937.333 210.414 937.895 211.771 938.895 212.771C939.896 213.771 941.252 214.333 942.667 214.333H1013.33C1014.39 214.333 1015.41 214.755 1016.16 215.505C1016.91 216.255 1017.33 217.272 1017.33 218.333C1017.33 219.394 1016.91 220.411 1016.16 221.162C1015.41 221.912 1014.39 222.333 1013.33 222.333H942.667C939.13 222.333 935.739 220.928 933.238 218.428C930.738 215.927 929.333 212.536 929.333 209V129ZM973.333 147.667C974.748 147.667 976.104 147.105 977.104 146.104C978.105 145.104 978.667 143.748 978.667 142.333C978.667 140.919 978.105 139.562 977.104 138.562C976.104 137.562 974.748 137 973.333 137C971.919 137 970.562 137.562 969.562 138.562C968.562 139.562 968 140.919 968 142.333C968 143.748 968.562 145.104 969.562 146.104C970.562 147.105 971.919 147.667 973.333 147.667ZM969.333 157V183.667C969.333 184.727 969.755 185.745 970.505 186.495C971.255 187.245 972.272 187.667 973.333 187.667C974.394 187.667 975.412 187.245 976.162 186.495C976.912 185.745 977.333 184.727 977.333 183.667V157C977.333 155.939 976.912 154.922 976.162 154.171C975.412 153.421 974.394 153 973.333 153C972.272 153 971.255 153.421 970.505 154.171C969.755 154.922 969.333 155.939 969.333 157Z"
      fill="black" />
  </g>
  <g opacity="0.1">
    <path
      d="M1689 160H1601C1594.38 160 1589 165.375 1589 172V260C1589 266.625 1594.38 272 1601 272H1689C1695.62 272 1701 266.625 1701 260V172C1701 165.375 1695.62 160 1689 160ZM1620.75 248.125C1619.38 250.525 1616.3 251.325 1613.92 249.95C1611.52 248.575 1610.73 245.5 1612.1 243.125L1615.67 236.95C1619.7 235.725 1623 236.675 1625.58 239.8L1620.75 248.125ZM1655.47 234.65H1610C1607.25 234.65 1605 232.4 1605 229.65C1605 226.9 1607.25 224.65 1610 224.65H1622.75L1639.1 196.35L1633.97 187.5C1632.6 185.1 1633.42 182.05 1635.8 180.675C1638.2 179.3 1641.25 180.125 1642.62 182.5L1644.85 186.35L1647.08 182.5C1648.45 180.1 1651.53 179.3 1653.9 180.675C1656.3 182.05 1657.1 185.125 1655.72 187.5L1634.28 224.65H1649.8C1654.85 224.65 1657.67 230.575 1655.47 234.65ZM1680 234.65H1672.75L1677.65 243.125C1679.03 245.525 1678.2 248.575 1675.82 249.95C1673.42 251.325 1670.38 250.5 1669 248.125C1660.78 233.9 1654.62 223.2 1650.5 216.1C1646.33 208.85 1649.3 201.6 1652.28 199.15C1655.55 204.825 1660.45 213.325 1667 224.65H1680C1682.75 224.65 1685 226.9 1685 229.65C1685 232.425 1682.75 234.65 1680 234.65Z"
      fill="black" />
    <path
      d="M1541.76 541.412C1543.32 542.975 1545.85 542.975 1547.42 541.412L1550.24 538.585C1551.81 537.022 1551.81 534.49 1550.24 532.928L1541.31 524L1550.24 515.07C1551.8 513.507 1551.8 510.975 1550.24 509.412L1547.41 506.585C1545.85 505.022 1543.32 505.022 1541.76 506.585L1527.17 521.17C1525.61 522.732 1525.61 525.265 1527.17 526.827L1541.76 541.412ZM1565.76 538.588L1568.59 541.415C1570.15 542.978 1572.68 542.978 1574.25 541.415L1588.83 526.83C1590.39 525.268 1590.39 522.735 1588.83 521.173L1574.25 506.587C1572.68 505.025 1570.15 505.025 1568.59 506.587L1565.76 509.415C1564.2 510.978 1564.2 513.51 1565.76 515.072L1574.69 524L1565.76 532.93C1564.2 534.493 1564.2 537.025 1565.76 538.588ZM1634 580H1573.39C1573.2 584.952 1569.71 588 1565.2 588H1550C1545.33 588 1541.74 583.632 1541.81 580H1482C1479.8 580 1478 581.8 1478 584V588C1478 596.8 1485.2 604 1494 604H1622C1630.8 604 1638 596.8 1638 588V584C1638 581.8 1636.2 580 1634 580ZM1622 488C1622 481.4 1616.6 476 1610 476H1506C1499.4 476 1494 481.4 1494 488V572H1622V488ZM1606 556H1510V492H1606V556Z"
      fill="black" />
    <path
      d="M1612.4 856.65C1613.42 853.975 1614 851.05 1614 848C1614 834.75 1603.25 824 1590 824C1585.07 824 1580.48 825.5 1576.68 828.05C1569.75 816.05 1556.82 808 1542 808C1519.9 808 1502 825.9 1502 848C1502 848.675 1502.02 849.35 1502.05 850.025C1488.05 854.95 1478 868.3 1478 884C1478 903.875 1494.12 920 1514 920H1606C1623.68 920 1638 905.675 1638 888C1638 872.525 1627 859.6 1612.4 856.65Z"
      fill="black" />
    <path
      d="M1490 210.575L1434.82 155.25L1505.02 195.55L1490 210.575ZM1420.42 152C1417.17 153.7 1415 156.8 1415 160.825V271.15C1415 275.175 1417.17 278.275 1420.42 279.975L1484.57 215.975L1420.42 152ZM1526.72 208.4L1512 199.875L1495.57 216L1512 232.125L1527.02 223.6C1531.52 220.025 1531.53 211.975 1526.72 208.4ZM1434.82 276.75L1505.02 236.45L1490 221.425L1434.82 276.75Z"
      fill="black" />
    <path
      d="M1387.43 233.598C1387.76 232.257 1386.94 230.903 1385.6 230.573L1363.75 225.191C1362.41 224.861 1361.06 225.68 1360.73 227.021C1360.4 228.361 1361.21 229.716 1362.56 230.046L1381.97 234.83L1377.19 254.249C1376.86 255.59 1377.68 256.944 1379.02 257.274C1380.36 257.605 1381.72 256.786 1382.05 255.445L1387.43 233.598ZM1090.29 414.139L1386.29 235.139L1383.71 230.861L1087.71 409.861L1090.29 414.139Z"
      fill="black" />
    <path
      d="M1416.77 543.762C1417.75 542.783 1417.74 541.2 1416.76 540.227L1400.8 524.366C1399.82 523.392 1398.24 523.397 1397.27 524.377C1396.29 525.356 1396.3 526.939 1397.28 527.912L1411.46 542.011L1397.37 556.196C1396.39 557.176 1396.4 558.759 1397.38 559.732C1398.36 560.705 1399.94 560.7 1400.91 559.721L1416.77 543.762ZM1089.01 545.5L1415.01 544.5L1414.99 539.5L1088.99 540.5L1089.01 545.5Z"
      fill="black" />
    <path
      d="M1415.6 871.426C1416.94 871.092 1417.76 869.736 1417.43 868.396L1411.99 846.563C1411.65 845.223 1410.3 844.407 1408.96 844.741C1407.62 845.075 1406.8 846.431 1407.14 847.771L1411.97 867.178L1392.56 872.011C1391.22 872.345 1390.41 873.702 1390.74 875.042C1391.07 876.381 1392.43 877.197 1393.77 876.863L1415.6 871.426ZM1087.71 675.143L1413.71 871.143L1416.29 866.857L1090.29 670.857L1087.71 675.143Z"
      fill="black" />
  </g>
</svg>