<svg width="1080" height="1080" viewBox="0 0 1080 1080" fill="none" xmlns="http://www.w3.org/2000/svg">
<rect width="1080" height="1080" fill="#FBDFD4"/>
<path d="M341.5 959.805V563.944H737.36V959.805H341.5Z" fill="#FEF9F6" stroke="#743E29" stroke-width="3"/>
<path d="M738.86 562.444H340V591.989H738.86V562.444Z" fill="#743E29"/>
<path d="M707.469 575.37H665.367C664.755 575.37 664.259 575.867 664.259 576.478V577.956C664.259 578.568 664.755 579.064 665.367 579.064H707.469C708.081 579.064 708.577 578.568 708.577 577.956V576.478C708.577 575.867 708.081 575.37 707.469 575.37Z" fill="#F2A587"/>
<path d="M720.613 579.12L717.81 576.316C717.673 576.181 717.673 575.961 717.81 575.826L718.135 575.499C718.271 575.364 718.489 575.364 718.626 575.499L720.857 577.721L723.087 575.499C723.224 575.364 723.442 575.364 723.578 575.499L723.903 575.826C724.04 575.961 724.04 576.181 723.903 576.316L721.1 579.12C720.967 579.255 720.746 579.255 720.613 579.12Z" fill="#FEF9F6"/>
<path d="M347.947 580.541H349.309V578.451H350.455C351.937 578.451 352.8 577.566 352.8 576.279C352.8 574.998 351.953 574.094 350.49 574.094H347.947V580.541ZM349.309 577.358V575.209H350.228C351.016 575.209 351.396 575.637 351.396 576.279C351.396 576.918 351.016 577.358 350.234 577.358H349.309ZM355.785 580.635C356.981 580.635 357.787 580.053 357.976 579.156L356.736 579.074C356.601 579.443 356.254 579.634 355.807 579.634C355.137 579.634 354.712 579.19 354.712 578.47V578.466H358.004V578.099C358.004 576.455 357.01 575.643 355.732 575.643C354.309 575.643 353.387 576.654 353.387 578.146C353.387 579.679 354.297 580.635 355.785 580.635ZM354.712 577.635C354.74 577.085 355.159 576.644 355.754 576.644C356.336 576.644 356.739 577.06 356.743 577.635H354.712ZM361.451 575.706H360.542V574.548H359.2V575.706H358.54V576.714H359.2V579.231C359.194 580.179 359.84 580.648 360.812 580.607C361.158 580.594 361.404 580.525 361.539 580.481L361.328 579.484C361.262 579.496 361.121 579.527 360.995 579.527C360.727 579.527 360.542 579.426 360.542 579.055V576.714H361.451V575.706ZM364.476 580.635C365.672 580.635 366.477 580.053 366.666 579.156L365.427 579.074C365.291 579.443 364.945 579.634 364.498 579.634C363.827 579.634 363.402 579.19 363.402 578.47V578.466H366.695V578.099C366.695 576.455 365.7 575.643 364.422 575.643C363 575.643 362.077 576.654 362.077 578.146C362.077 579.679 362.987 580.635 364.476 580.635ZM363.402 577.635C363.431 577.085 363.849 576.644 364.444 576.644C365.027 576.644 365.429 577.06 365.433 577.635H363.402ZM367.57 580.541H368.911V577.806C368.911 577.211 369.345 576.802 369.937 576.802C370.123 576.802 370.377 576.833 370.504 576.874V575.684C370.384 575.656 370.217 575.637 370.082 575.637C369.54 575.637 369.097 575.952 368.92 576.55H368.87V575.706H367.57V580.541ZM372.468 574.094H371.46V574.781C371.46 575.313 371.272 575.7 371.06 576.033L371.652 576.383C372.096 576.012 372.468 575.35 372.468 574.775V574.094ZM376.777 577.085C376.658 576.194 375.94 575.643 374.719 575.643C373.482 575.643 372.666 576.216 372.67 577.148C372.666 577.871 373.123 578.341 374.067 578.53L374.905 578.696C375.326 578.782 375.518 578.936 375.524 579.178C375.518 579.464 375.207 579.669 374.738 579.669C374.259 579.669 373.941 579.464 373.86 579.071L372.541 579.14C372.666 580.066 373.454 580.635 374.734 580.635C375.988 580.635 376.884 579.996 376.888 579.043C376.884 578.344 376.428 577.925 375.49 577.733L374.615 577.557C374.165 577.459 373.998 577.305 374.001 577.072C373.998 576.783 374.326 576.594 374.741 576.594C375.207 576.594 375.484 576.849 375.55 577.16L376.777 577.085ZM379.736 576.109H380.743V575.423C380.743 574.929 380.907 574.542 381.143 574.17L380.551 573.821C380.114 574.176 379.736 574.853 379.736 575.429V576.109ZM381.955 580.541H383.318V578.451H384.464C385.946 578.451 386.809 577.566 386.809 576.279C386.809 574.998 385.962 574.094 384.498 574.094H381.955V580.541ZM383.318 577.358V575.209H384.237C385.024 575.209 385.405 575.637 385.405 576.279C385.405 576.918 385.024 577.358 384.243 577.358H383.318ZM390.769 578.482C390.772 579.131 390.329 579.471 389.847 579.471C389.34 579.471 389.013 579.115 389.01 578.545V575.706H387.669V578.784C387.672 579.915 388.333 580.604 389.306 580.604C390.032 580.604 390.555 580.229 390.772 579.662H390.823V580.541H392.11V575.706H390.769V578.482ZM395.754 575.706H394.845V574.548H393.504V575.706H392.843V576.714H393.504V579.231C393.497 580.179 394.142 580.648 395.115 580.607C395.461 580.594 395.707 580.525 395.842 580.481L395.631 579.484C395.565 579.496 395.424 579.527 395.298 579.527C395.03 579.527 394.845 579.426 394.845 579.055V576.714H395.754V575.706ZM398.779 580.635C399.975 580.635 400.781 580.053 400.969 579.156L399.73 579.074C399.594 579.443 399.248 579.634 398.801 579.634C398.13 579.634 397.705 579.19 397.705 578.47V578.466H400.998V578.099C400.998 576.455 400.003 575.643 398.725 575.643C397.303 575.643 396.38 576.654 396.38 578.146C396.38 579.679 397.29 580.635 398.779 580.635ZM397.705 577.635C397.734 577.085 398.153 576.644 398.748 576.644C399.33 576.644 399.732 577.06 399.736 577.635H397.705ZM401.873 580.541H403.214V577.806C403.214 577.211 403.649 576.802 404.24 576.802C404.426 576.802 404.681 576.833 404.806 576.874V575.684C404.687 575.656 404.52 575.637 404.385 575.637C403.843 575.637 403.399 575.952 403.223 576.55H403.173V575.706H401.873V580.541ZM409.522 577.085C409.403 576.194 408.685 575.643 407.464 575.643C406.227 575.643 405.411 576.216 405.415 577.148C405.411 577.871 405.868 578.341 406.812 578.53L407.649 578.696C408.071 578.782 408.263 578.936 408.27 579.178C408.263 579.464 407.952 579.669 407.483 579.669C407.004 579.669 406.686 579.464 406.604 579.071L405.286 579.14C405.411 580.066 406.198 580.635 407.48 580.635C408.732 580.635 409.629 579.996 409.633 579.043C409.629 578.344 409.173 577.925 408.235 577.733L407.36 577.557C406.91 577.459 406.743 577.305 406.746 577.072C406.743 576.783 407.07 576.594 407.486 576.594C407.952 576.594 408.229 576.849 408.295 577.16L409.522 577.085ZM414.839 580.541C416.803 580.541 417.993 579.326 417.993 577.311C417.993 575.303 416.803 574.094 414.858 574.094H412.554V580.541H414.839ZM413.916 579.373V575.262H414.785C415.994 575.262 416.633 575.879 416.633 577.311C416.633 578.75 415.994 579.373 414.782 579.373H413.916ZM420.355 580.632C421.07 580.632 421.533 580.321 421.769 579.87H421.807V580.541H423.078V577.28C423.078 576.128 422.102 575.643 421.026 575.643C419.868 575.643 419.106 576.197 418.92 577.079L420.16 577.179C420.252 576.858 420.538 576.622 421.02 576.622C421.476 576.622 421.737 576.852 421.737 577.248V577.268C421.737 577.579 421.407 577.62 420.566 577.702C419.61 577.79 418.75 578.111 418.75 579.19C418.75 580.147 419.433 580.632 420.355 580.632ZM420.74 579.707C420.328 579.707 420.031 579.515 420.031 579.147C420.031 578.769 420.343 578.583 420.815 578.517C421.107 578.476 421.586 578.407 421.747 578.3V578.813C421.747 579.32 421.328 579.707 420.74 579.707ZM428.141 577.085C428.021 576.194 427.304 575.643 426.082 575.643C424.846 575.643 424.03 576.216 424.034 577.148C424.03 577.871 424.487 578.341 425.431 578.53L426.268 578.696C426.69 578.782 426.882 578.936 426.888 579.178C426.882 579.464 426.57 579.669 426.101 579.669C425.623 579.669 425.305 579.464 425.224 579.071L423.905 579.14C424.03 580.066 424.817 580.635 426.098 580.635C427.351 580.635 428.248 579.996 428.252 579.043C428.248 578.344 427.792 577.925 426.853 577.733L425.979 577.557C425.528 577.459 425.362 577.305 425.365 577.072C425.362 576.783 425.689 576.594 426.104 576.594C426.57 576.594 426.847 576.849 426.913 577.16L428.141 577.085ZM430.436 577.746C430.44 577.122 430.82 576.757 431.368 576.757C431.913 576.757 432.233 577.107 432.23 577.702V580.541H433.571V577.463C433.575 576.329 432.907 575.643 431.9 575.643C431.167 575.643 430.676 575.99 430.455 576.559H430.399V574.094H429.096V580.541H430.436V577.746ZM434.652 580.541H435.974V579.767H436.034C436.219 580.169 436.625 580.62 437.406 580.62C438.508 580.62 439.367 579.748 439.367 578.13C439.367 576.468 438.47 575.643 437.409 575.643C436.6 575.643 436.213 576.125 436.034 576.518H435.993V574.094H434.652V580.541ZM435.964 578.124C435.964 577.261 436.33 576.71 436.981 576.71C437.645 576.71 437.998 577.286 437.998 578.124C437.998 578.967 437.639 579.553 436.981 579.553C436.336 579.553 435.964 578.986 435.964 578.124ZM442.446 580.635C443.912 580.635 444.825 579.631 444.825 578.142C444.825 576.644 443.912 575.643 442.446 575.643C440.979 575.643 440.067 576.644 440.067 578.142C440.067 579.631 440.979 580.635 442.446 580.635ZM442.452 579.597C441.776 579.597 441.429 578.977 441.429 578.133C441.429 577.289 441.776 576.666 442.452 576.666C443.116 576.666 443.463 577.289 443.463 578.133C443.463 578.977 443.116 579.597 442.452 579.597ZM447.076 580.632C447.79 580.632 448.253 580.321 448.489 579.87H448.527V580.541H449.799V577.28C449.799 576.128 448.823 575.643 447.746 575.643C446.588 575.643 445.826 576.197 445.641 577.079L446.881 577.179C446.972 576.858 447.258 576.622 447.74 576.622C448.197 576.622 448.458 576.852 448.458 577.248V577.268C448.458 577.579 448.127 577.62 447.287 577.702C446.33 577.79 445.471 578.111 445.471 579.19C445.471 580.147 446.154 580.632 447.076 580.632ZM447.46 579.707C447.048 579.707 446.752 579.515 446.752 579.147C446.752 578.769 447.063 578.583 447.535 578.517C447.828 578.476 448.306 578.407 448.467 578.3V578.813C448.467 579.32 448.048 579.707 447.46 579.707ZM450.839 580.541H452.18V577.806C452.18 577.211 452.614 576.802 453.206 576.802C453.392 576.802 453.647 576.833 453.773 576.874V575.684C453.653 575.656 453.486 575.637 453.351 575.637C452.809 575.637 452.365 575.952 452.189 576.55H452.139V575.706H450.839V580.541ZM456.022 580.62C456.803 580.62 457.209 580.169 457.394 579.767H457.451V580.541H458.773V574.094H457.435V576.518H457.394C457.215 576.125 456.828 575.643 456.019 575.643C454.959 575.643 454.061 576.468 454.061 578.13C454.061 579.748 454.921 580.62 456.022 580.62ZM456.447 579.553C455.79 579.553 455.431 578.967 455.431 578.124C455.431 577.286 455.783 576.71 456.447 576.71C457.099 576.71 457.464 577.261 457.464 578.124C457.464 578.986 457.092 579.553 456.447 579.553Z" fill="#FEF9F6"/>
<rect x="456.334" y="664.375" width="166.192" height="11.0795" rx="5.53973" fill="#F2A587"/>
<rect x="395.397" y="627.259" width="288.066" height="28.8066" rx="6" fill="#F2A587"/>
<path d="M669.06 708.693H592.611V785.141H669.06V708.693Z" fill="#FBDFD4"/>
<path d="M616.594 727.323C616.6 727.269 616.617 727.217 616.617 727.162C616.617 726.143 615.789 725.315 614.77 725.315C614.407 725.315 614.072 725.425 613.786 725.604C613.279 724.484 612.156 723.7 610.847 723.7C609.063 723.7 607.615 725.145 607.615 726.931C607.615 727.018 607.635 727.099 607.641 727.182C606.21 727.289 605.076 728.472 605.076 729.932C605.076 731.461 606.316 732.702 607.846 732.702H615.694C617.223 732.702 618.464 731.461 618.464 729.932C618.464 728.717 617.679 727.698 616.594 727.323ZM604.176 726.671C602.915 725.411 602.915 723.362 604.176 722.104C605.436 720.843 607.485 720.843 608.746 722.104C609.026 722.384 609.233 722.707 609.39 723.047C609.672 722.941 609.969 722.874 610.275 722.831L611.135 720.266C611.25 719.923 610.924 719.599 610.581 719.712L608.048 720.558L606.85 718.168C606.692 717.846 606.23 717.846 606.069 718.168L604.874 720.558L602.338 719.712C601.997 719.599 601.671 719.926 601.784 720.266L602.629 722.799L600.24 723.997C599.917 724.159 599.917 724.617 600.24 724.779L602.629 725.973L601.784 728.506C601.668 728.85 601.994 729.173 602.338 729.06L604.533 728.331C604.71 727.973 604.937 727.646 605.214 727.364C604.837 727.208 604.481 726.977 604.176 726.671ZM604.037 724.386C604.037 725.563 604.882 726.545 605.996 726.761C606.227 726.625 606.467 726.507 606.723 726.423C606.879 725.145 607.618 724.043 608.668 723.394C608.287 722.554 607.442 721.966 606.461 721.966C605.125 721.966 604.037 723.051 604.037 724.386Z" fill="#743E29"/>
<path d="M641.406 730.852H648.299V729.181H644.239V729.114L645.65 727.732C647.638 725.919 648.172 725.012 648.172 723.912C648.172 722.236 646.803 721.051 644.73 721.051C642.7 721.051 641.307 722.264 641.312 724.162H643.252C643.247 723.237 643.833 722.67 644.716 722.67C645.566 722.67 646.198 723.199 646.198 724.049C646.198 724.818 645.726 725.347 644.848 726.192L641.406 729.379V730.852ZM653.279 721.051C651.117 721.041 649.658 722.458 649.667 724.403C649.672 726.206 650.923 727.515 652.637 727.515C653.699 727.515 654.645 726.999 655.073 726.15H655.14C655.136 728.066 654.468 729.233 653.208 729.233C652.467 729.233 651.933 728.827 651.778 728.123H649.762C649.95 729.752 651.273 730.985 653.208 730.985C655.602 730.985 657.145 729.049 657.142 725.767C657.138 722.264 655.266 721.06 653.279 721.051ZM653.293 722.656C654.231 722.656 654.926 723.421 654.937 724.341C654.94 725.267 654.209 726.032 653.274 726.032C652.33 726.032 651.655 725.295 651.65 724.346C651.641 723.402 652.344 722.656 653.293 722.656ZM660.827 725.758C662.113 725.758 663.147 724.719 663.147 723.44C663.147 722.155 662.113 721.117 660.827 721.117C659.549 721.117 658.512 722.155 658.512 723.44C658.512 724.719 659.549 725.758 660.827 725.758ZM660.827 724.417C660.292 724.417 659.852 723.978 659.852 723.44C659.852 722.897 660.292 722.458 660.827 722.458C661.37 722.458 661.806 722.897 661.806 723.44C661.806 723.978 661.37 724.417 660.827 724.417Z" fill="#743E29"/>
<path fill-rule="evenodd" clip-rule="evenodd" d="M669.06 765.072V785.141H592.611V757.767C595.772 758.715 598.731 764.317 601.54 769.632C604.295 774.847 606.904 779.786 609.415 779.786C612.694 779.786 614.715 776.237 616.763 772.64C618.868 768.945 621.001 765.198 624.557 765.198C628.138 765.198 630.084 767.506 631.989 769.767C633.819 771.936 635.611 774.062 638.776 774.062C641.535 774.062 642.848 769.92 644.351 765.174C646.368 758.805 648.729 751.349 655.395 751.349C660.141 751.349 661.78 755.009 663.372 758.566C664.705 761.539 666.006 764.441 669.06 765.072Z" fill="#743E29"/>
<rect x="409.801" y="708.693" width="166.192" height="11.0795" rx="5.53973" fill="#F2A587"/>
<rect x="409.801" y="725.312" width="166.192" height="11.0795" rx="5.53973" fill="#F2A587"/>
<rect x="409.801" y="757.443" width="166.192" height="11.0795" rx="5.53973" fill="#F2A587"/>
<rect x="409.801" y="741.932" width="166.192" height="11.0795" rx="5.53973" fill="#F2A587"/>
<rect x="409.801" y="774.062" width="166.192" height="11.0795" rx="5.53973" fill="#F2A587"/>
<rect x="428.636" y="816.718" width="221.589" height="5.53973" rx="2.76986" fill="#F2A587"/>
<rect x="428.636" y="905.354" width="221.589" height="5.53973" rx="2.76986" fill="#F2A587"/>
<rect x="428.636" y="861.036" width="221.589" height="5.53973" rx="2.76986" fill="#F2A587"/>
<rect x="428.636" y="949.671" width="221.589" height="5.53973" rx="2.76986" fill="#F2A587"/>
<rect x="428.636" y="838.877" width="221.589" height="5.53973" rx="2.76986" fill="#F2A587"/>
<rect x="428.636" y="927.512" width="221.589" height="5.53973" rx="2.76986" fill="#F2A587"/>
<rect x="428.636" y="883.195" width="221.589" height="5.53973" rx="2.76986" fill="#F2A587"/>
<rect x="428.636" y="827.797" width="221.589" height="5.53973" rx="2.76986" fill="#F2A587"/>
<rect x="428.636" y="916.433" width="221.589" height="5.53973" rx="2.76986" fill="#F2A587"/>
<rect x="428.636" y="872.115" width="221.589" height="5.53973" rx="2.76986" fill="#F2A587"/>
<rect x="428.636" y="849.956" width="221.589" height="5.53973" rx="2.76986" fill="#F2A587"/>
<rect x="428.636" y="938.592" width="221.589" height="5.53973" rx="2.76986" fill="#F2A587"/>
<rect x="428.636" y="894.274" width="221.589" height="5.53973" rx="2.76986" fill="#F2A587"/>
<path d="M740 118H341.14V516.86H740V118Z" fill="#FEF9F6"/>
<mask id="mask0_305_835" style="mask-type:alpha" maskUnits="userSpaceOnUse" x="466" y="344" width="260" height="171">
<rect x="466.337" y="344.021" width="259.259" height="170.624" fill="#D9D9D9"/>
</mask>
<g mask="url(#mask0_305_835)">
<path d="M725.597 344.575H466.891V530.71H725.597V344.575Z" fill="#FBDFD4"/>
<path fill-rule="evenodd" clip-rule="evenodd" d="M485.173 363.594C489.252 363.594 492.559 360.288 492.559 356.208C492.559 352.129 489.252 348.822 485.173 348.822C481.093 348.822 477.786 352.129 477.786 356.208C477.786 360.288 481.093 363.594 485.173 363.594ZM486.927 354.362C486.927 355.382 486.1 356.208 485.08 356.208C484.06 356.208 483.234 355.382 483.234 354.362C483.234 353.341 484.06 352.515 485.08 352.515C486.1 352.515 486.927 353.341 486.927 354.362ZM486.132 356.67H486.373C487.443 356.67 488.312 357.538 488.312 358.609V359.209C488.312 359.591 488.002 359.901 487.619 359.901H482.541C482.159 359.901 481.849 359.591 481.849 359.209V358.609C481.849 357.538 482.717 356.67 483.788 356.67H484.029C484.35 356.817 484.705 356.901 485.08 356.901C485.456 356.901 485.811 356.817 486.132 356.67Z" fill="#743E29"/>
<path d="M570.484 354.362H504.377C503.765 354.362 503.269 354.858 503.269 355.47V356.947C503.269 357.559 503.765 358.055 504.377 358.055H570.484C571.096 358.055 571.592 357.559 571.592 356.947V355.47C571.592 354.858 571.096 354.362 570.484 354.362Z" fill="#F2A587"/>
<path d="M625.882 354.362H587.473C586.861 354.362 586.365 354.858 586.365 355.47V356.947C586.365 357.559 586.861 358.055 587.473 358.055H625.882C626.494 358.055 626.99 357.559 626.99 356.947V355.47C626.99 354.858 626.494 354.362 625.882 354.362Z" fill="#F2A587"/>
<path d="M681.279 354.362H642.87C642.258 354.362 641.762 354.858 641.762 355.47V356.947C641.762 357.559 642.258 358.055 642.87 358.055H681.279C681.891 358.055 682.387 357.559 682.387 356.947V355.47C682.387 354.858 681.891 354.362 681.279 354.362Z" fill="#F2A587"/>
<path d="M696.715 354.523L697.692 355.499C697.732 355.54 697.732 355.607 697.692 355.648L695.328 358.011L694.323 358.123C694.189 358.138 694.076 358.024 694.091 357.89L694.203 356.886L696.566 354.523C696.607 354.482 696.674 354.482 696.715 354.523ZM698.468 354.274L697.94 353.746C697.776 353.582 697.509 353.582 697.343 353.746L696.96 354.129C696.919 354.171 696.919 354.238 696.96 354.279L697.936 355.255C697.977 355.296 698.044 355.296 698.085 355.255L698.468 354.872C698.633 354.706 698.633 354.439 698.468 354.274ZM696.514 357.369V358.47H693.051V355.007H695.538C695.573 355.007 695.605 354.993 695.63 354.969L696.063 354.536C696.145 354.454 696.087 354.314 695.971 354.314H692.878C692.591 354.314 692.358 354.547 692.358 354.834V358.643C692.358 358.93 692.591 359.163 692.878 359.163H696.687C696.974 359.163 697.207 358.93 697.207 358.643V356.936C697.207 356.82 697.067 356.763 696.985 356.844L696.552 357.277C696.528 357.301 696.514 357.334 696.514 357.369Z" fill="#743E29"/>
<path d="M710.699 353.97H709.399L709.297 353.767C709.276 353.724 709.243 353.687 709.202 353.662C709.16 353.636 709.113 353.623 709.065 353.623H707.828C707.78 353.623 707.732 353.636 707.691 353.662C707.65 353.687 707.618 353.724 707.597 353.767L707.495 353.97H706.196C706.15 353.97 706.107 353.987 706.074 354.02C706.041 354.053 706.023 354.096 706.023 354.142V354.489C706.023 354.535 706.041 354.578 706.074 354.611C706.107 354.643 706.15 354.662 706.196 354.662H710.699C710.743 354.662 710.788 354.643 710.821 354.611C710.854 354.578 710.869 354.535 710.869 354.489V354.142C710.869 354.096 710.854 354.053 710.821 354.02C710.788 353.987 710.743 353.97 710.699 353.97ZM706.599 358.676C706.607 358.808 706.666 358.932 706.761 359.022C706.858 359.113 706.985 359.163 707.117 359.163H709.777C709.909 359.163 710.036 359.113 710.132 359.022C710.228 358.932 710.287 358.808 710.295 358.676L710.525 355.008H706.369L706.599 358.676Z" fill="#743E29"/>
<path fill-rule="evenodd" clip-rule="evenodd" d="M485.173 453.707C489.252 453.707 492.559 450.401 492.559 446.321C492.559 442.242 489.252 438.935 485.173 438.935C481.093 438.935 477.786 442.242 477.786 446.321C477.786 450.401 481.093 453.707 485.173 453.707ZM486.927 444.474C486.927 445.495 486.1 446.321 485.08 446.321C484.06 446.321 483.234 445.495 483.234 444.474C483.234 443.454 484.06 442.628 485.08 442.628C486.1 442.628 486.927 443.454 486.927 444.474ZM486.132 446.783H486.373C487.443 446.783 488.312 447.651 488.312 448.722V449.322C488.312 449.704 488.002 450.014 487.619 450.014H482.541C482.159 450.014 481.849 449.704 481.849 449.322V448.722C481.849 447.651 482.717 446.783 483.788 446.783H484.029C484.35 446.93 484.705 447.014 485.08 447.014C485.456 447.014 485.811 446.93 486.132 446.783Z" fill="#743E29"/>
<path d="M570.484 444.475H504.377C503.765 444.475 503.269 444.971 503.269 445.583V447.06C503.269 447.672 503.765 448.168 504.377 448.168H570.484C571.096 448.168 571.592 447.672 571.592 447.06V445.583C571.592 444.971 571.096 444.475 570.484 444.475Z" fill="#F2A587"/>
<path d="M625.882 444.475H587.473C586.861 444.475 586.365 444.971 586.365 445.583V447.06C586.365 447.672 586.861 448.168 587.473 448.168H625.882C626.494 448.168 626.99 447.672 626.99 447.06V445.583C626.99 444.971 626.494 444.475 625.882 444.475Z" fill="#F2A587"/>
<path d="M681.279 444.475H642.87C642.258 444.475 641.762 444.971 641.762 445.583V447.06C641.762 447.672 642.258 448.168 642.87 448.168H681.279C681.891 448.168 682.387 447.672 682.387 447.06V445.583C682.387 444.971 681.891 444.475 681.279 444.475Z" fill="#F2A587"/>
<path d="M696.715 444.635L697.692 445.611C697.732 445.652 697.732 445.72 697.692 445.761L695.328 448.124L694.323 448.236C694.189 448.251 694.076 448.137 694.091 448.003L694.203 446.999L696.566 444.635C696.607 444.594 696.674 444.594 696.715 444.635ZM698.468 444.387L697.94 443.859C697.776 443.695 697.509 443.695 697.343 443.859L696.96 444.242C696.919 444.284 696.919 444.35 696.96 444.392L697.936 445.368C697.977 445.409 698.044 445.409 698.085 445.368L698.468 444.985C698.633 444.819 698.633 444.552 698.468 444.387ZM696.514 447.481V448.583H693.051V445.12H695.538C695.573 445.12 695.605 445.106 695.63 445.082L696.063 444.649C696.145 444.567 696.087 444.427 695.971 444.427H692.878C692.591 444.427 692.358 444.66 692.358 444.947V448.756C692.358 449.043 692.591 449.276 692.878 449.276H696.687C696.974 449.276 697.207 449.043 697.207 448.756V447.049C697.207 446.933 697.067 446.875 696.985 446.956L696.552 447.389C696.528 447.414 696.514 447.447 696.514 447.481Z" fill="#743E29"/>
<path d="M710.699 444.082H709.399L709.297 443.88C709.276 443.837 709.243 443.8 709.202 443.775C709.16 443.749 709.113 443.736 709.065 443.736H707.828C707.78 443.736 707.732 443.749 707.691 443.775C707.65 443.8 707.618 443.836 707.597 443.88L707.495 444.082H706.196C706.15 444.082 706.107 444.1 706.074 444.133C706.041 444.165 706.023 444.209 706.023 444.255V444.602C706.023 444.647 706.041 444.691 706.074 444.724C706.107 444.756 706.15 444.775 706.196 444.775H710.699C710.743 444.775 710.788 444.756 710.821 444.724C710.854 444.691 710.869 444.647 710.869 444.602V444.255C710.869 444.209 710.854 444.165 710.821 444.133C710.788 444.1 710.743 444.082 710.699 444.082ZM706.599 448.789C706.607 448.92 706.666 449.045 706.761 449.135C706.858 449.225 706.985 449.276 707.117 449.276H709.777C709.909 449.276 710.036 449.225 710.132 449.135C710.228 449.045 710.287 448.92 710.295 448.789L710.525 445.121H706.369L706.599 448.789Z" fill="#743E29"/>
<path fill-rule="evenodd" clip-rule="evenodd" d="M485.173 407.912C489.252 407.912 492.559 404.605 492.559 400.526C492.559 396.447 489.252 393.14 485.173 393.14C481.093 393.14 477.786 396.447 477.786 400.526C477.786 404.605 481.093 407.912 485.173 407.912ZM486.927 398.68C486.927 399.699 486.1 400.526 485.08 400.526C484.06 400.526 483.234 399.699 483.234 398.68C483.234 397.659 484.06 396.833 485.08 396.833C486.1 396.833 486.927 397.659 486.927 398.68ZM486.132 400.987H486.373C487.443 400.987 488.312 401.856 488.312 402.926V403.527C488.312 403.909 488.002 404.219 487.619 404.219H482.541C482.159 404.219 481.849 403.909 481.849 403.527V402.926C481.849 401.856 482.717 400.987 483.788 400.987H484.029C484.35 401.135 484.705 401.218 485.08 401.218C485.456 401.218 485.811 401.135 486.132 400.987Z" fill="#743E29"/>
<path d="M570.484 398.68H504.377C503.765 398.68 503.269 399.175 503.269 399.788V401.265C503.269 401.877 503.765 402.372 504.377 402.372H570.484C571.096 402.372 571.592 401.877 571.592 401.265V399.788C571.592 399.175 571.096 398.68 570.484 398.68Z" fill="#F2A587"/>
<path d="M625.882 398.68H587.473C586.861 398.68 586.365 399.175 586.365 399.788V401.265C586.365 401.877 586.861 402.372 587.473 402.372H625.882C626.494 402.372 626.99 401.877 626.99 401.265V399.788C626.99 399.175 626.494 398.68 625.882 398.68Z" fill="#F2A587"/>
<path d="M681.279 398.68H642.87C642.258 398.68 641.762 399.175 641.762 399.788V401.265C641.762 401.877 642.258 402.372 642.87 402.372H681.279C681.891 402.372 682.387 401.877 682.387 401.265V399.788C682.387 399.175 681.891 398.68 681.279 398.68Z" fill="#F2A587"/>
<path d="M696.715 398.84L697.692 399.817C697.732 399.858 697.732 399.925 697.692 399.966L695.328 402.329L694.323 402.441C694.189 402.456 694.076 402.342 694.091 402.208L694.203 401.204L696.566 398.84C696.607 398.799 696.674 398.799 696.715 398.84ZM698.468 398.592L697.94 398.064C697.776 397.9 697.509 397.9 697.343 398.064L696.96 398.447C696.919 398.489 696.919 398.556 696.96 398.597L697.936 399.573C697.977 399.614 698.044 399.614 698.085 399.573L698.468 399.19C698.633 399.024 698.633 398.757 698.468 398.592ZM696.514 401.687V402.788H693.051V399.325H695.538C695.573 399.325 695.605 399.311 695.63 399.287L696.063 398.854C696.145 398.772 696.087 398.632 695.971 398.632H692.878C692.591 398.632 692.358 398.865 692.358 399.152V402.961C692.358 403.248 692.591 403.48 692.878 403.48H696.687C696.974 403.48 697.207 403.248 697.207 402.961V401.254C697.207 401.138 697.067 401.081 696.985 401.162L696.552 401.595C696.528 401.619 696.514 401.652 696.514 401.687Z" fill="#743E29"/>
<path d="M710.699 398.287H709.399L709.297 398.085C709.276 398.042 709.243 398.005 709.202 397.979C709.16 397.954 709.113 397.941 709.065 397.941H707.828C707.78 397.941 707.732 397.954 707.691 397.979C707.65 398.005 707.618 398.042 707.597 398.085L707.495 398.287H706.196C706.15 398.287 706.107 398.305 706.074 398.338C706.041 398.371 706.023 398.414 706.023 398.46V398.807C706.023 398.853 706.041 398.896 706.074 398.929C706.107 398.961 706.15 398.98 706.196 398.98H710.699C710.743 398.98 710.788 398.961 710.821 398.929C710.854 398.896 710.869 398.853 710.869 398.807V398.46C710.869 398.414 710.854 398.371 710.821 398.338C710.788 398.305 710.743 398.287 710.699 398.287ZM706.599 402.994C706.607 403.126 706.666 403.249 706.761 403.34C706.858 403.431 706.985 403.48 707.117 403.48H709.777C709.909 403.48 710.036 403.431 710.132 403.34C710.228 403.249 710.287 403.126 710.295 402.994L710.525 399.326H706.369L706.599 402.994Z" fill="#743E29"/>
<path fill-rule="evenodd" clip-rule="evenodd" d="M485.173 498.025C489.252 498.025 492.559 494.72 492.559 490.639C492.559 486.56 489.252 483.252 485.173 483.252C481.093 483.252 477.786 486.56 477.786 490.639C477.786 494.72 481.093 498.025 485.173 498.025ZM486.927 488.792C486.927 489.811 486.1 490.639 485.08 490.639C484.06 490.639 483.234 489.811 483.234 488.792C483.234 487.773 484.06 486.946 485.08 486.946C486.1 486.946 486.927 487.773 486.927 488.792ZM486.132 491.101H486.373C487.443 491.101 488.312 491.969 488.312 493.039V493.638C488.312 494.022 488.002 494.332 487.619 494.332H482.541C482.159 494.332 481.849 494.022 481.849 493.638V493.039C481.849 491.969 482.717 491.101 483.788 491.101H484.029C484.35 491.248 484.705 491.333 485.08 491.333C485.456 491.333 485.811 491.248 486.132 491.101Z" fill="#743E29"/>
<path d="M570.484 488.792H504.377C503.765 488.792 503.269 489.289 503.269 489.9V491.378C503.269 491.99 503.765 492.486 504.377 492.486H570.484C571.096 492.486 571.592 491.99 571.592 491.378V489.9C571.592 489.289 571.096 488.792 570.484 488.792Z" fill="#F2A587"/>
<path d="M625.882 488.792H587.473C586.861 488.792 586.365 489.289 586.365 489.9V491.378C586.365 491.99 586.861 492.486 587.473 492.486H625.882C626.494 492.486 626.99 491.99 626.99 491.378V489.9C626.99 489.289 626.494 488.792 625.882 488.792Z" fill="#F2A587"/>
<path d="M681.279 488.792H642.87C642.258 488.792 641.762 489.289 641.762 489.9V491.378C641.762 491.99 642.258 492.486 642.87 492.486H681.279C681.891 492.486 682.387 491.99 682.387 491.378V489.9C682.387 489.289 681.891 488.792 681.279 488.792Z" fill="#F2A587"/>
<path d="M696.715 488.955L697.692 489.93C697.732 489.971 697.732 490.037 697.692 490.078L695.328 492.441L694.323 492.552C694.189 492.57 694.076 492.456 694.091 492.319L694.203 491.315L696.566 488.955C696.607 488.911 696.674 488.911 696.715 488.955ZM698.468 488.704L697.94 488.176C697.776 488.013 697.509 488.013 697.343 488.176L696.96 488.56C696.919 488.601 696.919 488.667 696.96 488.711L697.936 489.686C697.977 489.727 698.044 489.727 698.085 489.686L698.468 489.302C698.633 489.136 698.633 488.87 698.468 488.704ZM696.514 491.799V492.899H693.051V489.439H695.538C695.573 489.439 695.605 489.424 695.63 489.402L696.063 488.966C696.145 488.885 696.087 488.745 695.971 488.745H692.878C692.591 488.745 692.358 488.977 692.358 489.265V493.073C692.358 493.361 692.591 493.594 692.878 493.594H696.687C696.974 493.594 697.207 493.361 697.207 493.073V491.367C697.207 491.252 697.067 491.193 696.985 491.274L696.552 491.706C696.528 491.732 696.514 491.765 696.514 491.799Z" fill="#743E29"/>
<path d="M710.699 488.401H709.399L709.297 488.198C709.276 488.153 709.243 488.116 709.202 488.094C709.16 488.069 709.113 488.054 709.065 488.054H707.828C707.78 488.054 707.732 488.069 707.691 488.091C707.65 488.116 707.618 488.153 707.597 488.198L707.495 488.401H706.196C706.15 488.401 706.107 488.419 706.074 488.449C706.041 488.482 706.023 488.526 706.023 488.574V488.918C706.023 488.966 706.041 489.01 706.074 489.044C706.107 489.073 706.15 489.091 706.196 489.091H710.699C710.743 489.091 710.788 489.073 710.821 489.044C710.854 489.01 710.869 488.966 710.869 488.918V488.574C710.869 488.526 710.854 488.482 710.821 488.449C710.788 488.419 710.743 488.401 710.699 488.401ZM706.599 493.106C706.607 493.239 706.666 493.361 706.761 493.453C706.858 493.542 706.985 493.593 707.117 493.593H709.777C709.909 493.593 710.036 493.542 710.132 493.453C710.228 493.361 710.287 493.239 710.295 493.106L710.525 489.439H706.369L706.599 493.106Z" fill="#743E29"/>
<path fill-rule="evenodd" clip-rule="evenodd" d="M485.173 385.753C489.252 385.753 492.559 382.447 492.559 378.367C492.559 374.288 489.252 370.981 485.173 370.981C481.093 370.981 477.786 374.288 477.786 378.367C477.786 382.447 481.093 385.753 485.173 385.753ZM486.927 376.521C486.927 377.541 486.1 378.367 485.08 378.367C484.06 378.367 483.234 377.541 483.234 376.521C483.234 375.501 484.06 374.674 485.08 374.674C486.1 374.674 486.927 375.501 486.927 376.521ZM486.132 378.829H486.373C487.443 378.829 488.312 379.697 488.312 380.768V381.368C488.312 381.75 488.002 382.061 487.619 382.061H482.541C482.159 382.061 481.849 381.75 481.849 381.368V380.768C481.849 379.697 482.717 378.829 483.788 378.829H484.029C484.35 378.976 484.705 379.06 485.08 379.06C485.456 379.06 485.811 378.976 486.132 378.829Z" fill="#743E29"/>
<path d="M570.484 376.521H504.377C503.765 376.521 503.269 377.017 503.269 377.629V379.106C503.269 379.718 503.765 380.214 504.377 380.214H570.484C571.096 380.214 571.592 379.718 571.592 379.106V377.629C571.592 377.017 571.096 376.521 570.484 376.521Z" fill="#F2A587"/>
<path d="M625.882 376.521H587.473C586.861 376.521 586.365 377.017 586.365 377.629V379.106C586.365 379.718 586.861 380.214 587.473 380.214H625.882C626.494 380.214 626.99 379.718 626.99 379.106V377.629C626.99 377.017 626.494 376.521 625.882 376.521Z" fill="#F2A587"/>
<path d="M681.279 376.521H642.87C642.258 376.521 641.762 377.017 641.762 377.629V379.106C641.762 379.718 642.258 380.214 642.87 380.214H681.279C681.891 380.214 682.387 379.718 682.387 379.106V377.629C682.387 377.017 681.891 376.521 681.279 376.521Z" fill="#F2A587"/>
<path d="M696.715 376.681L697.692 377.658C697.732 377.699 697.732 377.766 697.692 377.807L695.328 380.17L694.323 380.282C694.189 380.297 694.076 380.183 694.091 380.049L694.203 379.045L696.566 376.681C696.607 376.64 696.674 376.64 696.715 376.681ZM698.468 376.433L697.94 375.905C697.776 375.741 697.509 375.741 697.343 375.905L696.96 376.288C696.919 376.33 696.919 376.397 696.96 376.438L697.936 377.414C697.977 377.455 698.044 377.455 698.085 377.414L698.468 377.031C698.633 376.865 698.633 376.598 698.468 376.433ZM696.514 379.528V380.629H693.051V377.166H695.538C695.573 377.166 695.605 377.152 695.63 377.128L696.063 376.695C696.145 376.613 696.087 376.473 695.971 376.473H692.878C692.591 376.473 692.358 376.706 692.358 376.993V380.802C692.358 381.089 692.591 381.322 692.878 381.322H696.687C696.974 381.322 697.207 381.089 697.207 380.802V379.095C697.207 378.979 697.067 378.922 696.985 379.003L696.552 379.436C696.528 379.46 696.514 379.493 696.514 379.528Z" fill="#743E29"/>
<path d="M710.699 376.129H709.399L709.297 375.926C709.276 375.883 709.243 375.846 709.202 375.821C709.16 375.795 709.113 375.782 709.065 375.782H707.828C707.78 375.782 707.732 375.795 707.691 375.821C707.65 375.846 707.618 375.883 707.597 375.926L707.495 376.129H706.196C706.15 376.129 706.107 376.146 706.074 376.179C706.041 376.212 706.023 376.256 706.023 376.302V376.648C706.023 376.694 706.041 376.738 706.074 376.77C706.107 376.802 706.15 376.821 706.196 376.821H710.699C710.743 376.821 710.788 376.802 710.821 376.77C710.854 376.738 710.869 376.694 710.869 376.648V376.302C710.869 376.256 710.854 376.212 710.821 376.179C710.788 376.146 710.743 376.129 710.699 376.129ZM706.599 380.835C706.607 380.967 706.666 381.091 706.761 381.181C706.858 381.272 706.985 381.322 707.117 381.322H709.777C709.909 381.322 710.036 381.272 710.132 381.181C710.228 381.091 710.287 380.967 710.295 380.835L710.525 377.167H706.369L706.599 380.835Z" fill="#743E29"/>
<path fill-rule="evenodd" clip-rule="evenodd" d="M485.173 475.867C489.252 475.867 492.559 472.56 492.559 468.48C492.559 464.401 489.252 461.094 485.173 461.094C481.093 461.094 477.786 464.401 477.786 468.48C477.786 472.56 481.093 475.867 485.173 475.867ZM486.927 466.633C486.927 467.654 486.1 468.48 485.08 468.48C484.06 468.48 483.234 467.654 483.234 466.633C483.234 465.614 484.06 464.787 485.08 464.787C486.1 464.787 486.927 465.614 486.927 466.633ZM486.132 468.942H486.373C487.443 468.942 488.312 469.811 488.312 470.881V471.481C488.312 471.863 488.002 472.173 487.619 472.173H482.541C482.159 472.173 481.849 471.863 481.849 471.481V470.881C481.849 469.811 482.717 468.942 483.788 468.942H484.029C484.35 469.089 484.705 469.173 485.08 469.173C485.456 469.173 485.811 469.089 486.132 468.942Z" fill="#743E29"/>
<path d="M570.484 466.633H504.377C503.765 466.633 503.269 467.13 503.269 467.741V469.219C503.269 469.831 503.765 470.327 504.377 470.327H570.484C571.096 470.327 571.592 469.831 571.592 469.219V467.741C571.592 467.13 571.096 466.633 570.484 466.633Z" fill="#F2A587"/>
<path d="M625.882 466.633H587.473C586.861 466.633 586.365 467.13 586.365 467.741V469.219C586.365 469.831 586.861 470.327 587.473 470.327H625.882C626.494 470.327 626.99 469.831 626.99 469.219V467.741C626.99 467.13 626.494 466.633 625.882 466.633Z" fill="#F2A587"/>
<path d="M681.279 466.633H642.87C642.258 466.633 641.762 467.13 641.762 467.741V469.219C641.762 469.831 642.258 470.327 642.87 470.327H681.279C681.891 470.327 682.387 469.831 682.387 469.219V467.741C682.387 467.13 681.891 466.633 681.279 466.633Z" fill="#F2A587"/>
<path d="M696.715 466.794L697.692 467.77C697.732 467.811 697.732 467.879 697.692 467.92L695.328 470.283L694.323 470.395C694.189 470.41 694.076 470.296 694.091 470.162L694.203 469.158L696.566 466.794C696.607 466.753 696.674 466.753 696.715 466.794ZM698.468 466.546L697.94 466.018C697.776 465.854 697.509 465.854 697.343 466.018L696.96 466.401C696.919 466.443 696.919 466.509 696.96 466.551L697.936 467.527C697.977 467.568 698.044 467.568 698.085 467.527L698.468 467.144C698.633 466.978 698.633 466.711 698.468 466.546ZM696.514 469.64V470.742H693.051V467.279H695.538C695.573 467.279 695.605 467.265 695.63 467.241L696.063 466.808C696.145 466.726 696.087 466.586 695.971 466.586H692.878C692.591 466.586 692.358 466.819 692.358 467.106V470.915C692.358 471.202 692.591 471.435 692.878 471.435H696.687C696.974 471.435 697.207 471.202 697.207 470.915V469.208C697.207 469.092 697.067 469.034 696.985 469.115L696.552 469.548C696.528 469.573 696.514 469.606 696.514 469.64Z" fill="#743E29"/>
<path d="M710.699 466.241H709.399L709.297 466.039C709.276 465.996 709.243 465.959 709.202 465.934C709.16 465.908 709.113 465.895 709.065 465.895H707.828C707.78 465.895 707.732 465.908 707.691 465.934C707.65 465.959 707.618 465.995 707.597 466.039L707.495 466.241H706.196C706.15 466.241 706.107 466.26 706.074 466.292C706.041 466.324 706.023 466.369 706.023 466.414V466.761C706.023 466.806 706.041 466.851 706.074 466.883C706.107 466.915 706.15 466.934 706.196 466.934H710.699C710.743 466.934 710.788 466.915 710.821 466.883C710.854 466.851 710.869 466.806 710.869 466.761V466.414C710.869 466.369 710.854 466.324 710.821 466.292C710.788 466.26 710.743 466.241 710.699 466.241ZM706.599 470.948C706.607 471.08 706.666 471.204 706.761 471.294C706.858 471.384 706.985 471.435 707.117 471.435H709.777C709.909 471.435 710.036 471.384 710.132 471.294C710.228 471.204 710.287 471.08 710.295 470.948L710.525 467.28H706.369L706.599 470.948Z" fill="#743E29"/>
<path fill-rule="evenodd" clip-rule="evenodd" d="M485.173 430.071C489.252 430.071 492.559 426.765 492.559 422.685C492.559 418.606 489.252 415.299 485.173 415.299C481.093 415.299 477.786 418.606 477.786 422.685C477.786 426.765 481.093 430.071 485.173 430.071ZM486.927 420.839C486.927 421.859 486.1 422.685 485.08 422.685C484.06 422.685 483.234 421.859 483.234 420.839C483.234 419.818 484.06 418.992 485.08 418.992C486.1 418.992 486.927 419.818 486.927 420.839ZM486.132 423.147H486.373C487.443 423.147 488.312 424.015 488.312 425.086V425.686C488.312 426.068 488.002 426.379 487.619 426.379H482.541C482.159 426.379 481.849 426.068 481.849 425.686V425.086C481.849 424.015 482.717 423.147 483.788 423.147H484.029C484.35 423.294 484.705 423.378 485.08 423.378C485.456 423.378 485.811 423.294 486.132 423.147Z" fill="#743E29"/>
<path d="M570.484 420.839H504.377C503.765 420.839 503.269 421.334 503.269 421.947V423.423C503.269 424.036 503.765 424.531 504.377 424.531H570.484C571.096 424.531 571.592 424.036 571.592 423.423V421.947C571.592 421.334 571.096 420.839 570.484 420.839Z" fill="#F2A587"/>
<path d="M625.882 420.839H587.473C586.861 420.839 586.365 421.334 586.365 421.947V423.423C586.365 424.036 586.861 424.531 587.473 424.531H625.882C626.494 424.531 626.99 424.036 626.99 423.423V421.947C626.99 421.334 626.494 420.839 625.882 420.839Z" fill="#F2A587"/>
<path d="M681.279 420.839H642.87C642.258 420.839 641.762 421.334 641.762 421.947V423.423C641.762 424.036 642.258 424.531 642.87 424.531H681.279C681.891 424.531 682.387 424.036 682.387 423.423V421.947C682.387 421.334 681.891 420.839 681.279 420.839Z" fill="#F2A587"/>
<path d="M696.715 420.999L697.692 421.975C697.732 422.016 697.732 422.083 697.692 422.125L695.328 424.488L694.323 424.6C694.189 424.615 694.076 424.501 694.091 424.367L694.203 423.363L696.566 420.999C696.607 420.958 696.674 420.958 696.715 420.999ZM698.468 420.751L697.94 420.223C697.776 420.059 697.509 420.059 697.343 420.223L696.96 420.606C696.919 420.648 696.919 420.715 696.96 420.756L697.936 421.732C697.977 421.773 698.044 421.773 698.085 421.732L698.468 421.349C698.633 421.183 698.633 420.916 698.468 420.751ZM696.514 423.846V424.947H693.051V421.484H695.538C695.573 421.484 695.605 421.47 695.63 421.446L696.063 421.013C696.145 420.931 696.087 420.791 695.971 420.791H692.878C692.591 420.791 692.358 421.024 692.358 421.311V425.12C692.358 425.407 692.591 425.639 692.878 425.639H696.687C696.974 425.639 697.207 425.407 697.207 425.12V423.412C697.207 423.297 697.067 423.24 696.985 423.32L696.552 423.754C696.528 423.778 696.514 423.811 696.514 423.846Z" fill="#743E29"/>
<path d="M710.699 420.447H709.399L709.297 420.244C709.276 420.201 709.243 420.164 709.202 420.139C709.16 420.113 709.113 420.1 709.065 420.1H707.828C707.78 420.1 707.732 420.113 707.691 420.139C707.65 420.164 707.618 420.201 707.597 420.244L707.495 420.447H706.196C706.15 420.447 706.107 420.464 706.074 420.497C706.041 420.53 706.023 420.573 706.023 420.619V420.966C706.023 421.012 706.041 421.055 706.074 421.088C706.107 421.12 706.15 421.139 706.196 421.139H710.699C710.743 421.139 710.788 421.12 710.821 421.088C710.854 421.055 710.869 421.012 710.869 420.966V420.619C710.869 420.573 710.854 420.53 710.821 420.497C710.788 420.464 710.743 420.447 710.699 420.447ZM706.599 425.153C706.607 425.285 706.666 425.409 706.761 425.499C706.858 425.59 706.985 425.64 707.117 425.64H709.777C709.909 425.64 710.036 425.59 710.132 425.499C710.228 425.409 710.287 425.285 710.295 425.153L710.525 421.485H706.369L706.599 425.153Z" fill="#743E29"/>
<path fill-rule="evenodd" clip-rule="evenodd" d="M485.173 520.184C489.252 520.184 492.559 516.879 492.559 512.798C492.559 508.717 489.252 505.412 485.173 505.412C481.093 505.412 477.786 508.717 477.786 512.798C477.786 516.879 481.093 520.184 485.173 520.184ZM486.927 510.951C486.927 511.971 486.1 512.798 485.08 512.798C484.06 512.798 483.234 511.971 483.234 510.951C483.234 509.932 484.06 509.105 485.08 509.105C486.1 509.105 486.927 509.932 486.927 510.951ZM486.132 513.26H486.373C487.443 513.26 488.312 514.128 488.312 515.199V515.797C488.312 516.181 488.002 516.491 487.619 516.491H482.541C482.159 516.491 481.849 516.181 481.849 515.797V515.199C481.849 514.128 482.717 513.26 483.788 513.26H484.029C484.35 513.408 484.705 513.492 485.08 513.492C485.456 513.492 485.811 513.408 486.132 513.26Z" fill="#743E29"/>
<path d="M570.484 510.951H504.377C503.765 510.951 503.269 511.448 503.269 512.059V513.537C503.269 514.149 503.765 514.645 504.377 514.645H570.484C571.096 514.645 571.592 514.149 571.592 513.537V512.059C571.592 511.448 571.096 510.951 570.484 510.951Z" fill="#F2A587"/>
<path d="M625.882 510.951H587.473C586.861 510.951 586.365 511.448 586.365 512.059V513.537C586.365 514.149 586.861 514.645 587.473 514.645H625.882C626.494 514.645 626.99 514.149 626.99 513.537V512.059C626.99 511.448 626.494 510.951 625.882 510.951Z" fill="#F2A587"/>
<path d="M681.279 510.951H642.87C642.258 510.951 641.762 511.448 641.762 512.059V513.537C641.762 514.149 642.258 514.645 642.87 514.645H681.279C681.891 514.645 682.387 514.149 682.387 513.537V512.059C682.387 511.448 681.891 510.951 681.279 510.951Z" fill="#F2A587"/>
<path d="M696.715 511.114L697.692 512.089C697.732 512.13 697.732 512.196 697.692 512.236L695.328 514.6L694.323 514.711C694.189 514.729 694.076 514.615 694.091 514.478L694.203 513.474L696.566 511.114C696.607 511.07 696.674 511.07 696.715 511.114ZM698.468 510.863L697.94 510.335C697.776 510.172 697.509 510.172 697.343 510.335L696.96 510.719C696.919 510.76 696.919 510.826 696.96 510.87L697.936 511.845C697.977 511.886 698.044 511.886 698.085 511.845L698.468 511.461C698.633 511.295 698.633 511.029 698.468 510.863ZM696.514 513.958V515.058H693.051V511.598H695.538C695.573 511.598 695.605 511.583 695.63 511.561L696.063 511.125C696.145 511.044 696.087 510.904 695.971 510.904H692.878C692.591 510.904 692.358 511.136 692.358 511.424V515.232C692.358 515.52 692.591 515.752 692.878 515.752H696.687C696.974 515.752 697.207 515.52 697.207 515.232V513.526C697.207 513.411 697.067 513.352 696.985 513.433L696.552 513.865C696.528 513.891 696.514 513.924 696.514 513.958Z" fill="#743E29"/>
<path d="M710.699 510.56H709.399L709.297 510.357C709.276 510.313 709.243 510.275 709.202 510.253C709.16 510.228 709.113 510.213 709.065 510.213H707.828C707.78 510.213 707.732 510.228 707.691 510.25C707.65 510.275 707.618 510.313 707.597 510.357L707.495 510.56H706.196C706.15 510.56 706.107 510.579 706.074 510.608C706.041 510.641 706.023 510.685 706.023 510.734V511.077C706.023 511.125 706.041 511.17 706.074 511.203C706.107 511.232 706.15 511.25 706.196 511.25H710.699C710.743 511.25 710.788 511.232 710.821 511.203C710.854 511.17 710.869 511.125 710.869 511.077V510.734C710.869 510.685 710.854 510.641 710.821 510.608C710.788 510.579 710.743 510.56 710.699 510.56ZM706.599 515.265C706.607 515.398 706.666 515.52 706.761 515.612C706.858 515.701 706.985 515.753 707.117 515.753H709.777C709.909 515.753 710.036 515.701 710.132 515.612C710.228 515.52 710.287 515.398 710.295 515.265L710.525 511.598H706.369L706.599 515.265Z" fill="#743E29"/>
<path d="M725.597 366.918H465.968V367.288H725.597V366.918Z" fill="#FEF9F6"/>
<path d="M725.597 457.031H465.968V457.401H725.597V457.031Z" fill="#FEF9F6"/>
<path d="M725.597 389.447H465.968V389.816H725.597V389.447Z" fill="#FEF9F6"/>
<path d="M725.597 479.56H465.968V479.929H725.597V479.56Z" fill="#FEF9F6"/>
<path d="M725.597 411.606H465.968V411.975H725.597V411.606Z" fill="#FEF9F6"/>
<path d="M725.597 501.719H465.968V502.088H725.597V501.719Z" fill="#FEF9F6"/>
<path d="M725.597 433.764H465.968V434.134H725.597V433.764Z" fill="#FEF9F6"/>
</g>
<path d="M725.597 162.318H557.928V329.987H725.597V162.318Z" fill="#FBDFD4"/>
<path d="M610.526 203.178C610.539 203.058 610.577 202.944 610.577 202.824C610.577 200.59 608.761 198.774 606.527 198.774C605.729 198.774 604.996 199.014 604.369 199.407C603.255 196.951 600.794 195.23 597.921 195.23C594.01 195.23 590.833 198.401 590.833 202.317C590.833 202.507 590.877 202.684 590.89 202.868C587.752 203.102 585.265 205.696 585.265 208.898C585.265 212.253 587.986 214.974 591.339 214.974H608.552C611.906 214.974 614.627 212.253 614.627 208.898C614.627 206.235 612.906 204.001 610.526 203.178ZM583.29 201.748C580.525 198.982 580.525 194.49 583.29 191.731C586.056 188.965 590.548 188.965 593.314 191.731C593.928 192.345 594.384 193.053 594.725 193.8C595.345 193.566 595.997 193.42 596.668 193.325L598.554 187.7C598.807 186.947 598.092 186.238 597.339 186.485L591.783 188.339L589.157 183.099C588.808 182.39 587.796 182.39 587.442 183.099L584.821 188.339L579.26 186.485C578.513 186.238 577.798 186.953 578.044 187.7L579.899 193.255L574.659 195.882C573.95 196.236 573.95 197.242 574.659 197.597L579.899 200.217L578.044 205.773C577.792 206.526 578.506 207.234 579.26 206.988L584.075 205.387C584.461 204.602 584.961 203.887 585.568 203.267C584.739 202.925 583.961 202.419 583.29 201.748ZM582.987 196.736C582.987 199.318 584.841 201.47 587.283 201.944C587.79 201.647 588.315 201.387 588.878 201.204C589.22 198.401 590.84 195.983 593.143 194.559C592.308 192.718 590.454 191.427 588.302 191.427C585.372 191.427 582.987 193.806 582.987 196.736Z" fill="#743E29"/>
<path d="M630.728 195.494H637.621V193.822H633.561V193.756L634.973 192.373C636.96 190.56 637.494 189.654 637.494 188.553C637.494 186.877 636.124 185.692 634.052 185.692C632.022 185.692 630.629 186.906 630.633 188.804H632.574C632.569 187.878 633.155 187.311 634.038 187.311C634.888 187.311 635.52 187.84 635.52 188.69C635.52 189.46 635.048 189.989 634.17 190.834L630.728 194.021V195.494ZM642.601 185.692C640.439 185.683 638.98 187.099 638.989 189.044C638.994 190.848 640.245 192.156 641.959 192.156C643.021 192.156 643.966 191.641 644.395 190.791H644.462C644.457 192.708 643.791 193.874 642.53 193.874C641.789 193.874 641.255 193.468 641.1 192.765H639.084C639.272 194.393 640.595 195.626 642.53 195.626C644.924 195.626 646.468 193.69 646.463 190.409C646.459 186.906 644.589 185.702 642.601 185.692ZM642.615 187.298C643.555 187.298 644.249 188.063 644.258 188.983C644.263 189.908 643.531 190.673 642.596 190.673C641.652 190.673 640.977 189.937 640.972 188.988C640.963 188.044 641.666 187.298 642.615 187.298ZM650.151 190.399C651.435 190.399 652.469 189.361 652.469 188.081C652.469 186.797 651.435 185.758 650.151 185.758C648.871 185.758 647.833 186.797 647.833 188.081C647.833 189.361 648.871 190.399 650.151 190.399ZM650.151 189.059C649.612 189.059 649.173 188.619 649.173 188.081C649.173 187.539 649.612 187.099 650.151 187.099C650.694 187.099 651.128 187.539 651.128 188.081C651.128 188.619 650.694 189.059 650.151 189.059Z" fill="#743E29"/>
<path fill-rule="evenodd" clip-rule="evenodd" d="M719.684 268.763C719.415 269.032 719.415 269.468 719.684 269.737C719.954 270.005 720.39 270.005 720.656 269.737L724.666 265.726H725.597V268.691L717.638 276.65C717.369 276.918 717.369 277.354 717.638 277.623C717.908 277.892 718.344 277.892 718.613 277.623L725.597 270.637V274.531L725.523 274.604C725.257 274.872 725.257 275.308 725.523 275.577C725.549 275.6 725.571 275.621 725.597 275.64V280.372L723.477 282.49C723.211 282.759 723.211 283.195 723.477 283.463C723.747 283.733 724.183 283.733 724.452 283.463L725.597 282.319V286.213L723.917 287.892C722.768 287.811 721.627 287.648 720.5 287.417L720.995 286.92C721.265 286.651 721.265 286.216 720.995 285.946C720.726 285.678 720.29 285.678 720.024 285.946L718.92 287.048C717.923 286.787 716.937 286.475 715.954 286.122L723.042 279.034C723.311 278.765 723.311 278.329 723.042 278.06C722.772 277.792 722.336 277.792 722.067 278.06L714.544 285.585C713.635 285.22 712.734 284.822 711.836 284.398L715.156 281.079C715.422 280.81 715.422 280.374 715.156 280.106C714.887 279.837 714.451 279.837 714.181 280.106L710.529 283.759C709.631 283.309 708.74 282.835 707.855 282.346C707.997 282.325 708.133 282.26 708.242 282.151L717.199 273.193C717.469 272.924 717.469 272.488 717.199 272.219C716.933 271.951 716.497 271.951 716.228 272.219L707.269 281.178C707.064 281.383 707.015 281.685 707.123 281.936C706.166 281.396 705.218 280.84 704.275 280.277L709.314 275.239C709.583 274.97 709.583 274.534 709.314 274.265C709.045 273.996 708.609 273.996 708.341 274.265L703.06 279.546C702.319 279.096 701.581 278.644 700.848 278.195H700.847L700.847 278.195L700.846 278.193C699.553 277.402 698.272 276.618 697.004 275.867L703.474 269.398C703.742 269.129 703.742 268.693 703.474 268.424C703.205 268.155 702.769 268.155 702.5 268.424L695.776 275.148C694.925 274.656 694.079 274.183 693.239 273.737C693.361 273.481 693.316 273.165 693.104 272.952C692.836 272.684 692.4 272.684 692.131 272.952L691.991 273.092C691.098 272.644 690.211 272.23 689.33 271.86L695.463 265.726H699.357L695.587 269.496C695.319 269.765 695.319 270.201 695.587 270.469C695.856 270.739 696.292 270.739 696.561 270.469L701.304 265.726H705.811C705.844 265.804 705.893 265.877 705.956 265.941C706.225 266.21 706.661 266.21 706.93 265.941L707.145 265.726H716.881L711.796 270.808C711.53 271.077 711.53 271.513 711.796 271.782C712.065 272.05 712.501 272.05 712.771 271.782L718.827 265.726H722.72L719.684 268.763ZM623.298 272.669C623.029 272.399 623.029 271.964 623.298 271.695L629.267 265.726H625.372C625.362 265.736 625.353 265.746 625.343 265.756L616.385 274.714C616.116 274.983 615.68 274.983 615.412 274.714C615.143 274.445 615.143 274.009 615.412 273.741L623.426 265.726H619.532L618.43 266.828C618.162 267.097 617.726 267.097 617.457 266.828C617.188 266.559 617.188 266.123 617.457 265.854L617.585 265.726H613.691L610.544 268.873C610.275 269.142 609.839 269.142 609.571 268.873C609.302 268.604 609.302 268.168 609.571 267.9L611.745 265.726H607.851L600.175 273.402C599.906 273.67 599.47 273.67 599.201 273.402C598.933 273.133 598.933 272.697 599.201 272.428L605.903 265.726H601.391C601.501 265.978 601.453 266.283 601.247 266.489L592.288 275.447C592.02 275.716 591.584 275.716 591.315 275.447C591.046 275.178 591.046 274.743 591.315 274.474L600.063 265.726H596.169L594.334 267.561C594.066 267.83 593.63 267.83 593.361 267.561C593.092 267.292 593.092 266.856 593.361 266.587L594.222 265.726H590.328L586.448 269.606C586.179 269.875 585.743 269.875 585.475 269.606C585.205 269.337 585.205 268.902 585.475 268.632L588.381 265.726H584.487L576.079 274.135C575.81 274.404 575.374 274.404 575.105 274.135C574.836 273.866 574.836 273.43 575.105 273.161L582.54 265.726H572.805L570.238 268.293C569.969 268.563 569.533 268.563 569.264 268.293C568.996 268.025 568.996 267.589 569.264 267.321L570.859 265.726H566.965L562.352 270.339C562.083 270.608 561.647 270.608 561.378 270.339C561.109 270.071 561.109 269.635 561.378 269.366L565.017 265.726H561.072C561.039 265.792 560.996 265.854 560.94 265.909L557.928 268.922V272.816C558.197 272.553 558.628 272.556 558.895 272.822C559.164 273.091 559.164 273.527 558.895 273.795L557.928 274.763V278.657L565.808 270.776C566.077 270.508 566.513 270.508 566.781 270.776C567.05 271.046 567.05 271.481 566.781 271.75L557.928 280.604V284.498L563.762 278.663C564.031 278.395 564.467 278.395 564.736 278.663C565.005 278.932 565.005 279.367 564.736 279.637L557.928 286.444V292.543C558.933 292.697 560.02 292.819 561.201 292.906L569.603 284.504C569.872 284.235 570.308 284.235 570.577 284.504C570.845 284.773 570.845 285.208 570.577 285.478L563.045 293.009C563.838 293.039 564.67 293.055 565.543 293.055C568.404 293.055 570.95 292.879 573.23 292.559L575.444 290.345C575.713 290.076 576.149 290.076 576.418 290.345C576.686 290.614 576.686 291.05 576.418 291.318L575.571 292.165C577.603 291.761 579.401 291.236 581.011 290.62L583.331 288.3C583.599 288.03 584.035 288.03 584.304 288.3C584.5 288.495 584.553 288.779 584.464 289.023C588.301 286.914 590.892 284.267 593.289 281.819C595.977 279.073 598.421 276.576 602.106 275.365L606.115 271.356C606.383 271.088 606.819 271.088 607.088 271.356C607.356 271.625 607.356 272.06 607.088 272.33L604.642 274.776C605.465 274.657 606.347 274.594 607.296 274.594C607.776 274.594 608.244 274.6 608.699 274.612L614.001 269.311C614.27 269.042 614.706 269.042 614.974 269.311C615.243 269.58 615.243 270.015 614.974 270.284L610.56 274.698C613.841 274.917 616.482 275.458 618.843 276.15L619.841 275.152C620.11 274.882 620.546 274.882 620.815 275.152C621.084 275.42 621.084 275.856 620.815 276.125L620.326 276.614C621.309 276.94 622.254 277.288 623.191 277.643L630.211 270.623C630.479 270.354 630.915 270.354 631.184 270.623C631.453 270.892 631.453 271.328 631.184 271.597L624.599 278.182C626.863 279.05 629.165 279.92 631.927 280.588L636.052 276.464C636.32 276.195 636.756 276.195 637.025 276.464C637.294 276.733 637.294 277.169 637.025 277.437L633.523 280.94C634.571 281.148 635.687 281.327 636.89 281.466L643.938 274.419C644.207 274.15 644.643 274.15 644.911 274.419C645.18 274.687 645.18 275.123 644.911 275.392L638.666 281.638C640.007 281.741 641.45 281.798 643.019 281.798C645.086 281.798 646.963 281.635 648.691 281.347L649.779 280.259C650.048 279.991 650.483 279.991 650.753 280.259C650.922 280.429 650.985 280.666 650.94 280.885C653.285 280.311 655.356 279.506 657.287 278.592L660.148 275.731C660.417 275.462 660.853 275.462 661.122 275.731C661.331 275.941 661.378 276.253 661.259 276.507C661.707 276.256 662.152 276.003 662.597 275.75L662.599 275.749C665.485 274.11 668.349 272.483 671.76 271.369C671.662 271.337 671.569 271.281 671.491 271.203C671.222 270.934 671.222 270.498 671.491 270.229L675.994 265.726H672.1L664.578 273.248C664.309 273.517 663.873 273.517 663.605 273.248C663.335 272.979 663.335 272.544 663.605 272.274L670.153 265.726H660.418L658.737 267.407C658.468 267.676 658.032 267.676 657.764 267.407C657.495 267.138 657.495 266.702 657.764 266.434L658.471 265.726H654.577L648.368 271.935C648.099 272.204 647.664 272.204 647.394 271.935C647.126 271.667 647.126 271.231 647.394 270.962L652.63 265.726H648.737L640.482 273.981C640.213 274.25 639.777 274.25 639.508 273.981C639.239 273.712 639.239 273.276 639.508 273.008L646.789 265.726H642.896L642.527 266.095C642.258 266.363 641.822 266.363 641.553 266.095C641.449 265.991 641.385 265.861 641.362 265.726H637.055L634.641 268.141C634.372 268.409 633.936 268.409 633.667 268.141C633.398 267.871 633.398 267.436 633.667 267.167L635.108 265.726H631.214L624.272 272.669C624.002 272.937 623.567 272.937 623.298 272.669ZM677.94 265.726L672.54 271.127C674.043 270.683 675.654 270.341 677.42 270.141L678.404 269.157C678.673 268.888 679.108 268.888 679.377 269.157C679.599 269.379 679.638 269.715 679.493 269.976C680.003 269.953 680.525 269.941 681.06 269.941C681.803 269.941 682.549 269.996 683.3 270.102L686.29 267.111C686.559 266.843 686.995 266.843 687.263 267.111C687.532 267.38 687.532 267.816 687.263 268.085L684.942 270.407C685.932 270.635 686.929 270.94 687.933 271.309L693.516 265.726H683.781L682.834 266.674C682.565 266.943 682.129 266.943 681.86 266.674C681.599 266.414 681.591 265.997 681.836 265.726H677.94ZM557.928 265.726H559.177L557.928 266.975V265.726ZM573.06 282.021C572.791 281.752 572.791 281.316 573.06 281.048L582.018 272.089C582.287 271.82 582.722 271.82 582.992 272.089C583.26 272.358 583.26 272.794 582.992 273.063L574.033 282.021C573.764 282.29 573.328 282.29 573.06 282.021ZM567.219 276.18C566.95 275.911 566.95 275.475 567.219 275.206L576.177 266.248C576.446 265.979 576.882 265.979 577.151 266.248C577.419 266.517 577.419 266.953 577.151 267.222L568.192 276.18C567.924 276.449 567.488 276.449 567.219 276.18ZM578.901 287.862C578.632 287.593 578.632 287.157 578.901 286.888L587.859 277.93C588.128 277.661 588.564 277.661 588.832 277.93C589.101 278.199 589.101 278.635 588.832 278.904L579.874 287.862C579.605 288.131 579.169 288.131 578.901 287.862ZM645.349 278.848C645.08 279.117 645.08 279.553 645.349 279.822C645.618 280.091 646.054 280.091 646.322 279.822L655.281 270.864C655.549 270.595 655.549 270.159 655.281 269.89C655.011 269.621 654.576 269.621 654.307 269.89L645.349 278.848ZM653.235 276.803C652.966 277.072 652.966 277.508 653.235 277.776C653.504 278.046 653.94 278.046 654.209 277.776L663.167 268.818C663.436 268.549 663.436 268.113 663.167 267.845C662.898 267.575 662.462 267.575 662.193 267.845L653.235 276.803ZM701.428 275.337C701.159 275.606 701.159 276.041 701.428 276.311C701.697 276.579 702.132 276.579 702.402 276.311L711.36 267.352C711.63 267.084 711.63 266.648 711.36 266.379C711.09 266.11 710.655 266.11 710.387 266.379L701.428 275.337ZM568.531 292.39C568.263 292.121 568.263 291.685 568.531 291.417L577.49 282.459C577.758 282.189 578.194 282.189 578.463 282.459C578.732 282.727 578.732 283.163 578.463 283.432L569.505 292.39C569.236 292.659 568.8 292.659 568.531 292.39ZM562.691 286.549C562.422 286.28 562.422 285.844 562.691 285.576L571.649 276.617C571.918 276.349 572.353 276.349 572.622 276.617C572.891 276.887 572.891 277.322 572.622 277.591L563.664 286.549C563.395 286.818 562.959 286.818 562.691 286.549ZM580.946 279.976C580.677 279.706 580.677 279.271 580.946 279.002L589.904 270.044C590.173 269.775 590.609 269.775 590.878 270.044C591.147 270.313 591.147 270.749 590.878 271.017L581.919 279.976C581.651 280.244 581.215 280.244 580.946 279.976ZM629.139 278.51C628.87 278.241 628.87 277.805 629.139 277.536L638.097 268.578C638.366 268.309 638.802 268.309 639.07 268.578C639.34 268.846 639.34 269.282 639.07 269.551L630.113 278.51C629.843 278.778 629.408 278.778 629.139 278.51ZM586.787 285.817C586.518 285.547 586.518 285.112 586.787 284.843L595.745 275.885C596.014 275.616 596.45 275.616 596.719 275.885C596.987 276.153 596.987 276.589 596.719 276.858L587.76 285.817C587.492 286.085 587.056 286.085 586.787 285.817Z" fill="#F2A587"/>
<path fill-rule="evenodd" clip-rule="evenodd" d="M725.597 225.654V269.671H557.928V209.633C564.859 211.711 571.35 223.997 577.51 235.656C583.552 247.092 589.276 257.926 594.782 257.926C601.974 257.926 606.407 250.142 610.899 242.253C615.515 234.148 620.194 225.931 627.993 225.931C635.846 225.931 640.113 230.993 644.293 235.951C648.305 240.709 652.236 245.371 659.177 245.371C665.231 245.371 668.108 236.286 671.406 225.876C675.829 211.909 681.008 195.556 695.627 195.556C706.037 195.556 709.632 203.584 713.125 211.385C716.047 217.906 718.898 224.269 725.597 225.654Z" fill="#743E29"/>
<path d="M569.149 304.84V309.675H570.141V306.516H570.18L571.431 309.651H572.107L573.358 306.527H573.398V309.675H574.39V304.84H573.129L571.797 308.089H571.74L570.409 304.84H569.149ZM576.851 309.746C577.951 309.746 578.636 308.993 578.636 307.876C578.636 306.752 577.951 306.001 576.851 306.001C575.751 306.001 575.066 306.752 575.066 307.876C575.066 308.993 575.751 309.746 576.851 309.746ZM576.856 308.966C576.348 308.966 576.089 308.501 576.089 307.869C576.089 307.236 576.348 306.768 576.856 306.768C577.354 306.768 577.614 307.236 577.614 307.869C577.614 308.501 577.354 308.966 576.856 308.966Z" fill="#743E29"/>
<path d="M568.435 321.493H571.882V320.657H569.852V320.624L570.558 319.933C571.551 319.026 571.818 318.573 571.818 318.023C571.818 317.185 571.134 316.592 570.097 316.592C569.082 316.592 568.385 317.199 568.388 318.148H569.358C569.356 317.685 569.648 317.402 570.091 317.402C570.515 317.402 570.832 317.666 570.832 318.091C570.832 318.476 570.595 318.741 570.156 319.163L568.435 320.757V321.493ZM574.388 321.559C575.465 321.559 576.196 320.858 576.194 319.881C576.196 318.956 575.55 318.29 574.679 318.29C574.254 318.29 573.888 318.466 573.718 318.705H573.69L573.815 317.494H575.927V316.658H572.972L572.743 319.208L573.652 319.371C573.801 319.17 574.089 319.045 574.374 319.045C574.86 319.047 575.21 319.399 575.21 319.907C575.21 320.409 574.867 320.757 574.388 320.757C573.982 320.757 573.654 320.501 573.63 320.126H572.639C572.658 320.962 573.388 321.559 574.388 321.559ZM578.043 318.946C578.685 318.946 579.202 318.426 579.202 317.787C579.202 317.145 578.685 316.626 578.043 316.626C577.403 316.626 576.883 317.145 576.883 317.787C576.883 318.426 577.403 318.946 578.043 318.946ZM578.043 318.275C577.774 318.275 577.554 318.056 577.554 317.787C577.554 317.515 577.774 317.296 578.043 317.296C578.314 317.296 578.531 317.515 578.531 317.787C578.531 318.056 578.314 318.275 578.043 318.275Z" fill="#743E29"/>
<path d="M592.901 305.683H594.381V309.675H595.391V305.683H596.871V304.84H592.901V305.683ZM599.338 308.131C599.34 308.617 599.008 308.872 598.647 308.872C598.267 308.872 598.021 308.605 598.018 308.178V306.049H597.013V308.357C597.015 309.205 597.511 309.722 598.241 309.722C598.786 309.722 599.177 309.441 599.34 309.016H599.378V309.675H600.344V306.049H599.338V308.131Z" fill="#743E29"/>
<path d="M591.314 321.493H594.76V320.657H592.73V320.624L593.436 319.933C594.43 319.026 594.697 318.573 594.697 318.023C594.697 317.185 594.012 316.592 592.976 316.592C591.96 316.592 591.264 317.199 591.267 318.148H592.237C592.234 317.685 592.527 317.402 592.968 317.402C593.393 317.402 593.71 317.666 593.71 318.091C593.71 318.476 593.474 318.741 593.035 319.163L591.314 320.757V321.493ZM595.692 321.493H596.748L598.754 317.506V316.658H595.362V317.494H597.696V317.527L595.692 321.493ZM600.59 318.946C601.232 318.946 601.749 318.426 601.749 317.787C601.749 317.145 601.232 316.626 600.59 316.626C599.95 316.626 599.431 317.145 599.431 317.787C599.431 318.426 599.95 318.946 600.59 318.946ZM600.59 318.275C600.321 318.275 600.101 318.056 600.101 317.787C600.101 317.515 600.321 317.296 600.59 317.296C600.861 317.296 601.079 317.515 601.079 317.787C601.079 318.056 600.861 318.275 600.59 318.275Z" fill="#743E29"/>
<path d="M615.691 309.675H616.687L617.605 306.514H617.643L618.564 309.675H619.56L620.944 304.84H619.827L619.027 308.206H618.984L618.103 304.84H617.148L616.265 308.199H616.224L615.424 304.84H614.308L615.691 309.675ZM622.735 309.746C623.632 309.746 624.236 309.308 624.378 308.636L623.448 308.574C623.346 308.851 623.086 308.995 622.751 308.995C622.248 308.995 621.93 308.662 621.93 308.121V308.119H624.399V307.843C624.399 306.611 623.653 306.001 622.694 306.001C621.627 306.001 620.936 306.759 620.936 307.878C620.936 309.028 621.618 309.746 622.735 309.746ZM621.93 307.496C621.951 307.083 622.265 306.752 622.711 306.752C623.148 306.752 623.45 307.064 623.452 307.496H621.93Z" fill="#743E29"/>
<path d="M613.861 321.493H617.307V320.657H615.277V320.624L615.983 319.933C616.977 319.026 617.244 318.573 617.244 318.023C617.244 317.185 616.559 316.592 615.523 316.592C614.508 316.592 613.811 317.199 613.813 318.148H614.783C614.781 317.685 615.074 317.402 615.516 317.402C615.94 317.402 616.257 317.666 616.257 318.091C616.257 318.476 616.021 318.741 615.582 319.163L613.861 320.757V321.493ZM619.814 321.559C620.89 321.559 621.622 320.858 621.62 319.881C621.622 318.956 620.975 318.29 620.104 318.29C619.679 318.29 619.313 318.466 619.143 318.705H619.115L619.24 317.494H621.353V316.658H618.398L618.168 319.208L619.077 319.371C619.226 319.17 619.514 319.045 619.799 319.045C620.286 319.047 620.635 319.399 620.635 319.907C620.635 320.409 620.293 320.757 619.814 320.757C619.407 320.757 619.08 320.501 619.056 320.126H618.064C618.083 320.962 618.813 321.559 619.814 321.559ZM623.468 318.946C624.11 318.946 624.627 318.426 624.627 317.787C624.627 317.145 624.11 316.626 623.468 316.626C622.828 316.626 622.309 317.145 622.309 317.787C622.309 318.426 622.828 318.946 623.468 318.946ZM623.468 318.275C623.199 318.275 622.98 318.056 622.98 317.787C622.98 317.515 623.199 317.296 623.468 317.296C623.74 317.296 623.957 317.515 623.957 317.787C623.957 318.056 623.74 318.275 623.468 318.275Z" fill="#743E29"/>
<path d="M638.073 305.683H639.553V309.675H640.564V305.683H642.044V304.84H638.073V305.683ZM643.685 307.578C643.687 307.111 643.973 306.837 644.384 306.837C644.792 306.837 645.033 307.099 645.031 307.545V309.675H646.036V307.366C646.038 306.516 645.538 306.001 644.782 306.001C644.232 306.001 643.864 306.261 643.699 306.688H643.656V304.84H642.679V309.675H643.685V307.578Z" fill="#743E29"/>
<path d="M636.739 321.493H640.186V320.657H638.156V320.624L638.862 319.933C639.856 319.026 640.123 318.573 640.123 318.023C640.123 317.185 639.438 316.592 638.401 316.592C637.386 316.592 636.69 317.199 636.692 318.148H637.662C637.66 317.685 637.953 317.402 638.394 317.402C638.819 317.402 639.135 317.666 639.135 318.091C639.135 318.476 638.899 318.741 638.461 319.163L636.739 320.757V321.493ZM641.118 321.493H642.173L644.18 317.506V316.658H640.787V317.494H643.122V317.527L641.118 321.493ZM646.016 318.946C646.658 318.946 647.175 318.426 647.175 317.787C647.175 317.145 646.658 316.626 646.016 316.626C645.376 316.626 644.857 317.145 644.857 317.787C644.857 318.426 645.376 318.946 646.016 318.946ZM646.016 318.275C645.746 318.275 645.527 318.056 645.527 317.787C645.527 317.515 645.746 317.296 646.016 317.296C646.287 317.296 646.504 317.515 646.504 317.787C646.504 318.056 646.287 318.275 646.016 318.275Z" fill="#743E29"/>
<path d="M661.083 309.674H662.106V307.677H664.072V306.834H662.106V305.683H664.284V304.84H661.083V309.674ZM664.895 309.674H665.9V307.623C665.9 307.177 666.227 306.87 666.67 306.87C666.809 306.87 667 306.893 667.095 306.924V306.032C667.005 306.011 666.88 305.997 666.778 305.997C666.373 305.997 666.04 306.233 665.907 306.681H665.87V306.049H664.895V309.674ZM667.615 309.674H668.621V306.049H667.615V309.674ZM668.12 305.581C668.42 305.581 668.665 305.352 668.665 305.071C668.665 304.792 668.42 304.563 668.12 304.563C667.823 304.563 667.577 304.792 667.577 305.071C667.577 305.352 667.823 305.581 668.12 305.581Z" fill="#743E29"/>
<path d="M659.228 321.493H662.674V320.657H660.645V320.624L661.35 319.933C662.344 319.026 662.611 318.573 662.611 318.023C662.611 317.185 661.927 316.592 660.89 316.592C659.875 316.592 659.178 317.199 659.181 318.148H660.151C660.148 317.685 660.441 317.402 660.883 317.402C661.308 317.402 661.624 317.666 661.624 318.091C661.624 318.476 661.388 318.741 660.949 319.163L659.228 320.757V321.493ZM663.238 320.643H665.558V321.493H666.536V320.643H667.136V319.824H666.536V316.658H665.257L663.238 319.838V320.643ZM665.578 319.824H664.268V319.786L665.54 317.772H665.578V319.824ZM668.952 318.946C669.595 318.946 670.111 318.426 670.111 317.787C670.111 317.145 669.595 316.626 668.952 316.626C668.313 316.626 667.793 317.145 667.793 317.787C667.793 318.426 668.313 318.946 668.952 318.946ZM668.952 318.275C668.683 318.275 668.464 318.056 668.464 317.787C668.464 317.515 668.683 317.296 668.952 317.296C669.224 317.296 669.441 317.515 669.441 317.787C669.441 318.056 669.224 318.275 668.952 318.275Z" fill="#743E29"/>
<path d="M686.679 306.23H687.659C687.645 305.368 686.936 304.773 685.86 304.773C684.799 304.773 684.023 305.359 684.028 306.237C684.026 306.951 684.528 307.358 685.345 307.554L685.871 307.687C686.398 307.814 686.691 307.965 686.693 308.291C686.691 308.645 686.355 308.886 685.836 308.886C685.305 308.886 684.922 308.64 684.889 308.157H683.9C683.926 309.202 684.674 309.743 685.848 309.743C687.028 309.743 687.722 309.179 687.724 308.293C687.722 307.488 687.116 307.061 686.275 306.872L685.841 306.768C685.42 306.671 685.069 306.516 685.076 306.169C685.076 305.857 685.352 305.628 685.853 305.628C686.341 305.628 686.641 305.85 686.679 306.23ZM689.427 309.743C689.963 309.743 690.31 309.509 690.487 309.171H690.515V309.674H691.469V307.229C691.469 306.364 690.738 306.001 689.93 306.001C689.061 306.001 688.49 306.417 688.35 307.078L689.281 307.153C689.349 306.912 689.564 306.736 689.925 306.736C690.268 306.736 690.463 306.908 690.463 307.205V307.219C690.463 307.453 690.216 307.483 689.585 307.545C688.868 307.611 688.223 307.852 688.223 308.662C688.223 309.379 688.735 309.743 689.427 309.743ZM689.715 309.049C689.406 309.049 689.184 308.905 689.184 308.629C689.184 308.345 689.418 308.206 689.772 308.157C689.991 308.126 690.35 308.074 690.47 307.994V308.379C690.47 308.759 690.156 309.049 689.715 309.049Z" fill="#743E29"/>
<path d="M682.129 321.493H685.576V320.657H683.546V320.624L684.251 319.933C685.245 319.026 685.512 318.573 685.512 318.023C685.512 317.185 684.827 316.592 683.791 316.592C682.776 316.592 682.079 317.199 682.082 318.148H683.052C683.05 317.685 683.342 317.402 683.784 317.402C684.209 317.402 684.525 317.666 684.525 318.091C684.525 318.476 684.289 318.741 683.85 319.163L682.129 320.757V321.493ZM688.12 321.559C689.211 321.559 689.995 320.976 689.997 320.192C689.995 319.588 689.529 319.095 688.949 318.998V318.964C689.454 318.861 689.815 318.424 689.817 317.893C689.815 317.145 689.097 316.592 688.12 316.592C687.14 316.592 686.422 317.145 686.425 317.893C686.422 318.422 686.779 318.861 687.293 318.964V318.998C686.703 319.095 686.243 319.588 686.245 320.192C686.243 320.976 687.03 321.559 688.12 321.559ZM688.12 320.808C687.633 320.808 687.308 320.52 687.308 320.112C687.308 319.694 687.65 319.392 688.12 319.392C688.587 319.392 688.932 319.694 688.932 320.112C688.932 320.523 688.604 320.808 688.12 320.808ZM688.12 318.649C687.712 318.649 687.421 318.382 687.421 317.999C687.421 317.622 687.707 317.362 688.12 317.362C688.531 317.362 688.819 317.624 688.819 317.999C688.819 318.382 688.526 318.649 688.12 318.649ZM691.847 318.946C692.489 318.946 693.006 318.426 693.006 317.787C693.006 317.145 692.489 316.626 691.847 316.626C691.207 316.626 690.688 317.145 690.688 317.787C690.688 318.426 691.207 318.946 691.847 318.946ZM691.847 318.275C691.578 318.275 691.358 318.056 691.358 317.787C691.358 317.515 691.578 317.296 691.847 317.296C692.118 317.296 692.336 317.515 692.336 317.787C692.336 318.056 692.118 318.275 691.847 318.275Z" fill="#743E29"/>
<path d="M708.698 306.23H709.678C709.664 305.368 708.955 304.773 707.879 304.773C706.819 304.773 706.042 305.359 706.047 306.237C706.045 306.951 706.547 307.358 707.364 307.554L707.89 307.687C708.417 307.814 708.71 307.965 708.712 308.291C708.71 308.645 708.375 308.886 707.855 308.886C707.324 308.886 706.942 308.64 706.908 308.157H705.919C705.945 309.202 706.693 309.743 707.867 309.743C709.047 309.743 709.741 309.179 709.744 308.293C709.741 307.488 709.135 307.061 708.294 306.872L707.86 306.768C707.44 306.671 707.088 306.516 707.095 306.169C707.095 305.857 707.371 305.628 707.872 305.628C708.36 305.628 708.66 305.85 708.698 306.23ZM712.737 308.131C712.741 308.617 712.408 308.872 712.046 308.872C711.666 308.872 711.419 308.605 711.419 308.178V306.049H710.412V308.357C710.415 309.205 710.909 309.722 711.64 309.722C712.187 309.722 712.578 309.441 712.741 309.016H712.778V309.674H713.742V306.049H712.737V308.131Z" fill="#743E29"/>
<path d="M706.734 321.559C707.82 321.559 708.597 320.962 708.594 320.135C708.597 319.534 708.214 319.104 707.504 319.014V318.977C708.044 318.88 708.417 318.497 708.414 317.954C708.417 317.192 707.749 316.592 706.748 316.592C705.756 316.592 705.011 317.173 704.996 318.008H705.976C705.988 317.64 706.325 317.402 706.744 317.402C707.156 317.402 707.433 317.652 707.43 318.016C707.433 318.396 707.109 318.653 706.644 318.653H706.193V319.404H706.644C707.192 319.404 707.534 319.678 707.532 320.067C707.534 320.452 707.203 320.716 706.736 320.716C706.285 320.716 705.948 320.48 705.929 320.126H704.9C704.916 320.971 705.672 321.559 706.734 321.559ZM711.433 316.658H710.47L709.275 317.416V318.322L710.382 317.628H710.41V321.493H711.433V316.658ZM713.716 318.946C714.358 318.946 714.876 318.426 714.876 317.787C714.876 317.145 714.358 316.626 713.716 316.626C713.077 316.626 712.556 317.145 712.556 317.787C712.556 318.426 713.077 318.946 713.716 318.946ZM713.716 318.275C713.447 318.275 713.228 318.056 713.228 317.787C713.228 317.515 713.447 317.296 713.716 317.296C713.989 317.296 714.207 317.515 714.207 317.787C714.207 318.056 713.989 318.275 713.716 318.275Z" fill="#743E29"/>
<path d="M542.416 253.539H465.968V329.987H542.416V253.539Z" fill="#FBDFD4"/>
<path d="M500.923 294.625V272.032C500.923 271.123 500.125 270.375 499.227 270.503C487.901 272.106 479.243 282.019 479.646 293.899C480.06 306.1 490.547 316.105 502.731 315.952C507.521 315.891 511.948 314.345 515.587 311.759C516.338 311.226 516.387 310.118 515.736 309.466L500.923 294.625Z" fill="#8E4C32"/>
<path d="M507.082 267.206C518.436 267.991 527.509 277.08 528.292 288.454C528.352 289.323 527.622 290.054 526.753 290.054H505.485V268.749C505.485 267.879 506.215 267.146 507.082 267.206Z" fill="#F2A587"/>
<path d="M507.243 294.625H529.796C530.704 294.625 531.45 295.424 531.322 296.325C530.58 301.586 528.05 306.265 524.372 309.737C523.781 310.293 522.837 310.247 522.262 309.672L507.243 294.625Z" fill="#B25F3E"/>
<path d="M451.934 147.545H341.14V516.86H451.934V147.545Z" fill="#FBDFD4"/>
<path d="M428.667 162.318H349.634C349.022 162.318 348.526 162.814 348.526 163.426V164.903C348.526 165.515 349.022 166.011 349.634 166.011H428.667C429.279 166.011 429.775 165.515 429.775 164.903V163.426C429.775 162.814 429.279 162.318 428.667 162.318Z" fill="#F2A587"/>
<path d="M444.235 164.409L441.431 167.213C441.296 167.348 441.076 167.348 440.941 167.213L440.614 166.886C440.479 166.751 440.479 166.532 440.614 166.397L442.835 164.164L440.614 161.932C440.479 161.796 440.479 161.578 440.614 161.443L440.941 161.116C441.076 160.98 441.296 160.98 441.431 161.116L444.235 163.919C444.37 164.054 444.37 164.274 444.235 164.409Z" fill="#743E29"/>
<path d="M451.934 179.307H341.14V178.937H451.934V179.307Z" fill="#FEF9F6"/>
<path d="M428.667 222.147H349.634C349.022 222.147 348.526 222.643 348.526 223.255V224.732C348.526 225.344 349.022 225.84 349.634 225.84H428.667C429.279 225.84 429.775 225.344 429.775 224.732V223.255C429.775 222.643 429.279 222.147 428.667 222.147Z" fill="#F2A587"/>
<path d="M444.235 224.238L441.431 227.042C441.296 227.177 441.076 227.177 440.941 227.042L440.614 226.715C440.479 226.58 440.479 226.361 440.614 226.226L442.835 223.993L440.614 221.761C440.479 221.626 440.479 221.407 440.614 221.272L440.941 220.945C441.076 220.81 441.296 220.81 441.431 220.945L444.235 223.748C444.37 223.884 444.37 224.103 444.235 224.238Z" fill="#743E29"/>
<path d="M451.934 239.136H341.14V238.766H451.934V239.136Z" fill="#FEF9F6"/>
<path d="M428.667 192.232H349.634C349.022 192.232 348.526 192.728 348.526 193.34V194.818C348.526 195.429 349.022 195.926 349.634 195.926H428.667C429.279 195.926 429.775 195.429 429.775 194.818V193.34C429.775 192.728 429.279 192.232 428.667 192.232Z" fill="#F2A587"/>
<path d="M444.235 194.324L441.431 197.127C441.296 197.263 441.076 197.263 440.941 197.127L440.614 196.8C440.479 196.666 440.479 196.446 440.614 196.311L442.835 194.079L440.614 191.846C440.479 191.711 440.479 191.493 440.614 191.358L440.941 191.031C441.076 190.895 441.296 190.895 441.431 191.031L444.235 193.834C444.37 193.969 444.37 194.188 444.235 194.324Z" fill="#743E29"/>
<path d="M451.934 209.221H341.14V208.852H451.934V209.221Z" fill="#FEF9F6"/>
<path d="M428.667 252.062H349.634C349.022 252.062 348.526 252.557 348.526 253.169V254.647C348.526 255.258 349.022 255.755 349.634 255.755H428.667C429.279 255.755 429.775 255.258 429.775 254.647V253.169C429.775 252.557 429.279 252.062 428.667 252.062Z" fill="#F2A587"/>
<path d="M444.235 254.153L441.431 256.956C441.296 257.092 441.076 257.092 440.941 256.956L440.614 256.629C440.479 256.495 440.479 256.275 440.614 256.14L442.835 253.908L440.614 251.675C440.479 251.54 440.479 251.322 440.614 251.187L440.941 250.86C441.076 250.724 441.296 250.724 441.431 250.86L444.235 253.663C444.37 253.798 444.37 254.017 444.235 254.153Z" fill="#743E29"/>
<path d="M451.934 269.05H341.14V268.68H451.934V269.05Z" fill="#FEF9F6"/>
<path d="M415.741 502.088H377.332C376.721 502.088 376.224 502.584 376.224 503.196V504.673C376.224 505.285 376.721 505.781 377.332 505.781H415.741C416.353 505.781 416.849 505.285 416.849 504.673V503.196C416.849 502.584 416.353 502.088 415.741 502.088Z" fill="#F2A587"/>
<path d="M740 118H341.14V147.545H740V118Z" fill="#743E29"/>
<path d="M708.608 130.926H666.506C665.895 130.926 665.398 131.422 665.398 132.034V133.511C665.398 134.124 665.895 134.619 666.506 134.619H708.608C709.22 134.619 709.716 134.124 709.716 133.511V132.034C709.716 131.422 709.22 130.926 708.608 130.926Z" fill="#F2A587"/>
<path d="M721.752 134.675L718.949 131.872C718.812 131.736 718.812 131.517 718.949 131.382L719.274 131.055C719.411 130.92 719.629 130.92 719.765 131.055L721.996 133.276L724.227 131.055C724.363 130.92 724.582 130.92 724.718 131.055L725.043 131.382C725.18 131.517 725.18 131.736 725.043 131.872L722.24 134.675C722.107 134.81 721.885 134.81 721.752 134.675Z" fill="#FEF9F6"/>
<path d="M349.086 136.096H350.449V134.006H351.595C353.077 134.006 353.94 133.122 353.94 131.834C353.94 130.553 353.093 129.65 351.629 129.65H349.086V136.096ZM350.449 132.914V130.764H351.368C352.155 130.764 352.536 131.192 352.536 131.834C352.536 132.473 352.155 132.914 351.374 132.914H350.449ZM356.925 136.191C358.121 136.191 358.927 135.608 359.116 134.712L357.876 134.63C357.74 134.998 357.394 135.19 356.947 135.19C356.277 135.19 355.852 134.746 355.852 134.025V134.022H359.144V133.654C359.144 132.011 358.15 131.199 356.872 131.199C355.449 131.199 354.527 132.209 354.527 133.701C354.527 135.234 355.436 136.191 356.925 136.191ZM355.852 133.191C355.88 132.64 356.299 132.2 356.894 132.2C357.476 132.2 357.879 132.615 357.882 133.191H355.852ZM362.591 131.261H361.681V130.103H360.34V131.261H359.679V132.269H360.34V134.787C360.334 135.734 360.979 136.203 361.952 136.162C362.298 136.15 362.543 136.08 362.679 136.037L362.468 135.039C362.402 135.051 362.26 135.083 362.134 135.083C361.867 135.083 361.681 134.982 361.681 134.611V132.269H362.591V131.261ZM365.616 136.191C366.812 136.191 367.617 135.608 367.806 134.712L366.566 134.63C366.431 134.998 366.084 135.19 365.638 135.19C364.967 135.19 364.542 134.746 364.542 134.025V134.022H367.835V133.654C367.835 132.011 366.84 131.199 365.562 131.199C364.139 131.199 363.217 132.209 363.217 133.701C363.217 135.234 364.127 136.191 365.616 136.191ZM364.542 133.191C364.57 132.64 364.989 132.2 365.584 132.2C366.166 132.2 366.569 132.615 366.572 133.191H364.542ZM368.71 136.096H370.051V133.361C370.051 132.766 370.485 132.357 371.077 132.357C371.262 132.357 371.517 132.388 371.643 132.429V131.24C371.524 131.211 371.356 131.192 371.221 131.192C370.68 131.192 370.236 131.507 370.06 132.105H370.01V131.261H368.71V136.096ZM373.607 129.65H372.6V130.336C372.6 130.868 372.411 131.255 372.2 131.589L372.792 131.938C373.236 131.567 373.607 130.906 373.607 130.33V129.65ZM377.917 132.64C377.797 131.749 377.08 131.199 375.859 131.199C374.622 131.199 373.806 131.772 373.809 132.703C373.806 133.427 374.263 133.896 375.207 134.085L376.044 134.252C376.466 134.337 376.658 134.491 376.664 134.733C376.658 135.02 376.347 135.225 375.877 135.225C375.399 135.225 375.081 135.02 374.999 134.626L373.68 134.695C373.806 135.621 374.593 136.191 375.874 136.191C377.127 136.191 378.024 135.552 378.027 134.598C378.024 133.899 377.568 133.481 376.63 133.288L375.754 133.112C375.305 133.015 375.138 132.861 375.141 132.627C375.138 132.338 375.465 132.149 375.881 132.149C376.347 132.149 376.624 132.404 376.69 132.716L377.917 132.64ZM380.875 131.665H381.883V130.978C381.883 130.484 382.046 130.097 382.282 129.726L381.691 129.376C381.253 129.732 380.875 130.409 380.875 130.984V131.665ZM383.095 136.096H384.457V134.006H385.604C387.086 134.006 387.948 133.122 387.948 131.834C387.948 130.553 387.101 129.65 385.638 129.65H383.095V136.096ZM384.457 132.914V130.764H385.377C386.164 130.764 386.545 131.192 386.545 131.834C386.545 132.473 386.164 132.914 385.383 132.914H384.457ZM391.909 134.038C391.912 134.686 391.468 135.026 390.986 135.026C390.48 135.026 390.152 134.671 390.149 134.101V131.261H388.808V134.34C388.812 135.47 389.472 136.159 390.445 136.159C391.172 136.159 391.694 135.785 391.912 135.218H391.963V136.096H393.249V131.261H391.909V134.038ZM396.894 131.261H395.984V130.103H394.643V131.261H393.982V132.269H394.643V134.787C394.637 135.734 395.282 136.203 396.255 136.162C396.601 136.15 396.846 136.08 396.982 136.037L396.771 135.039C396.705 135.051 396.563 135.083 396.438 135.083C396.169 135.083 395.984 134.982 395.984 134.611V132.269H396.894V131.261ZM399.919 136.191C401.115 136.191 401.92 135.608 402.109 134.712L400.869 134.63C400.734 134.998 400.387 135.19 399.941 135.19C399.27 135.19 398.845 134.746 398.845 134.025V134.022H402.137V133.654C402.137 132.011 401.143 131.199 399.865 131.199C398.442 131.199 397.52 132.209 397.52 133.701C397.52 135.234 398.43 136.191 399.919 136.191ZM398.845 133.191C398.873 132.64 399.292 132.2 399.887 132.2C400.469 132.2 400.872 132.615 400.875 133.191H398.845ZM403.013 136.096H404.353V133.361C404.353 132.766 404.788 132.357 405.38 132.357C405.565 132.357 405.82 132.388 405.946 132.429V131.24C405.826 131.211 405.66 131.192 405.524 131.192C404.983 131.192 404.539 131.507 404.363 132.105H404.313V131.261H403.013V136.096ZM410.662 132.64C410.542 131.749 409.825 131.199 408.603 131.199C407.366 131.199 406.551 131.772 406.554 132.703C406.551 133.427 407.007 133.896 407.952 134.085L408.789 134.252C409.211 134.337 409.403 134.491 409.409 134.733C409.403 135.02 409.091 135.225 408.622 135.225C408.144 135.225 407.826 135.02 407.744 134.626L406.426 134.695C406.551 135.621 407.338 136.191 408.619 136.191C409.872 136.191 410.769 135.552 410.772 134.598C410.769 133.899 410.312 133.481 409.374 133.288L408.5 133.112C408.049 133.015 407.883 132.861 407.886 132.627C407.883 132.338 408.21 132.149 408.626 132.149C409.091 132.149 409.368 132.404 409.434 132.716L410.662 132.64ZM415.978 136.096C417.942 136.096 419.132 134.881 419.132 132.867C419.132 130.859 417.942 129.65 415.997 129.65H413.693V136.096H415.978ZM415.056 134.929V130.818H415.925C417.133 130.818 417.772 131.435 417.772 132.867C417.772 134.305 417.133 134.929 415.922 134.929H415.056ZM421.495 136.187C422.209 136.187 422.673 135.876 422.909 135.426H422.946V136.096H424.218V132.835C424.218 131.684 423.242 131.199 422.166 131.199C421.007 131.199 420.246 131.753 420.06 132.634L421.3 132.734C421.391 132.414 421.678 132.178 422.16 132.178C422.616 132.178 422.877 132.408 422.877 132.804V132.823C422.877 133.134 422.546 133.175 421.706 133.257C420.749 133.345 419.89 133.666 419.89 134.746C419.89 135.703 420.573 136.187 421.495 136.187ZM421.879 135.262C421.467 135.262 421.171 135.07 421.171 134.702C421.171 134.324 421.483 134.139 421.955 134.072C422.247 134.031 422.726 133.962 422.886 133.855V134.368C422.886 134.875 422.468 135.262 421.879 135.262ZM429.28 132.64C429.161 131.749 428.443 131.199 427.222 131.199C425.985 131.199 425.17 131.772 425.173 132.703C425.17 133.427 425.626 133.896 426.57 134.085L427.408 134.252C427.83 134.337 428.022 134.491 428.028 134.733C428.022 135.02 427.71 135.225 427.241 135.225C426.763 135.225 426.445 135.02 426.363 134.626L425.044 134.695C425.17 135.621 425.957 136.191 427.238 136.191C428.49 136.191 429.388 135.552 429.391 134.598C429.388 133.899 428.931 133.481 427.993 133.288L427.118 133.112C426.668 133.015 426.502 132.861 426.504 132.627C426.502 132.338 426.829 132.149 427.244 132.149C427.71 132.149 427.987 132.404 428.053 132.716L429.28 132.64ZM431.576 133.301C431.579 132.678 431.96 132.313 432.508 132.313C433.052 132.313 433.373 132.662 433.37 133.257V136.096H434.711V133.018C434.714 131.885 434.047 131.199 433.04 131.199C432.306 131.199 431.815 131.545 431.595 132.115H431.538V129.65H430.235V136.096H431.576V133.301ZM435.791 136.096H437.114V135.322H437.173C437.359 135.725 437.765 136.175 438.546 136.175C439.647 136.175 440.507 135.303 440.507 133.685C440.507 132.023 439.61 131.199 438.548 131.199C437.74 131.199 437.353 131.68 437.173 132.074H437.132V129.65H435.791V136.096ZM437.104 133.679C437.104 132.816 437.469 132.266 438.121 132.266C438.785 132.266 439.137 132.842 439.137 133.679C439.137 134.523 438.779 135.108 438.121 135.108C437.475 135.108 437.104 134.541 437.104 133.679ZM443.586 136.191C445.052 136.191 445.965 135.187 445.965 133.698C445.965 132.2 445.052 131.199 443.586 131.199C442.119 131.199 441.206 132.2 441.206 133.698C441.206 135.187 442.119 136.191 443.586 136.191ZM443.592 135.152C442.915 135.152 442.569 134.532 442.569 133.688C442.569 132.845 442.915 132.221 443.592 132.221C444.256 132.221 444.602 132.845 444.602 133.688C444.602 134.532 444.256 135.152 443.592 135.152ZM448.216 136.187C448.93 136.187 449.393 135.876 449.629 135.426H449.667V136.096H450.939V132.835C450.939 131.684 449.962 131.199 448.886 131.199C447.728 131.199 446.966 131.753 446.78 132.634L448.02 132.734C448.112 132.414 448.398 132.178 448.88 132.178C449.336 132.178 449.597 132.408 449.597 132.804V132.823C449.597 133.134 449.267 133.175 448.427 133.257C447.47 133.345 446.61 133.666 446.61 134.746C446.61 135.703 447.293 136.187 448.216 136.187ZM448.6 135.262C448.187 135.262 447.892 135.07 447.892 134.702C447.892 134.324 448.203 134.139 448.675 134.072C448.968 134.031 449.446 133.962 449.607 133.855V134.368C449.607 134.875 449.188 135.262 448.6 135.262ZM451.979 136.096H453.319V133.361C453.319 132.766 453.754 132.357 454.345 132.357C454.532 132.357 454.786 132.388 454.912 132.429V131.24C454.793 131.211 454.626 131.192 454.491 131.192C453.949 131.192 453.505 131.507 453.329 132.105H453.278V131.261H451.979V136.096ZM457.162 136.175C457.942 136.175 458.348 135.725 458.534 135.322H458.591V136.096H459.913V129.65H458.575V132.074H458.534C458.355 131.68 457.967 131.199 457.159 131.199C456.098 131.199 455.201 132.023 455.201 133.685C455.201 135.303 456.061 136.175 457.162 136.175ZM457.587 135.108C456.929 135.108 456.57 134.523 456.57 133.679C456.57 132.842 456.923 132.266 457.587 132.266C458.238 132.266 458.603 132.816 458.603 133.679C458.603 134.541 458.232 135.108 457.587 135.108Z" fill="#FEF9F6"/>
<path d="M543.155 162.318H466.707V238.766H543.155V162.318Z" fill="#FBDFD4"/>
<path d="M511.948 207.836H515.548C516.149 207.836 516.749 207.236 516.749 206.636V194.033C516.749 193.433 516.149 192.832 515.548 192.832H511.948C511.348 192.832 510.748 193.433 510.748 194.033V206.636C510.748 207.236 511.348 207.836 511.948 207.836ZM493.944 207.836H497.544C498.145 207.836 498.745 207.236 498.745 206.636V200.034C498.745 199.434 498.145 198.834 497.544 198.834H493.944C493.344 198.834 492.744 199.434 492.744 200.034V206.636C492.744 207.236 493.344 207.836 493.944 207.836ZM502.946 207.836H506.546C507.147 207.836 507.747 207.236 507.747 206.636V188.032C507.747 187.431 507.147 186.831 506.546 186.831H502.946C502.346 186.831 501.746 187.431 501.746 188.032V206.636C501.746 207.236 502.346 207.836 502.946 207.836ZM527.252 213.837H486.742V185.33C486.742 184.502 486.07 183.83 485.242 183.83H482.241C481.412 183.83 480.741 184.502 480.741 185.33V216.838C480.741 218.495 482.084 219.839 483.742 219.839H527.252C528.08 219.839 528.752 219.167 528.752 218.338V215.338C528.752 214.509 528.08 213.837 527.252 213.837Z" fill="#8E4C32"/>
<path d="M738.892 119.108H342.248V515.752H738.892V119.108Z" stroke="#743E29" stroke-width="4"/>
</svg>
