<svg width="1080" height="1080" viewBox="0 0 1080 1080" fill="none" xmlns="http://www.w3.org/2000/svg">
<rect width="1080" height="1080" fill="#FBDFD4"/>
<path d="M181.5 898.5V181.5H898.5V898.5H181.5Z" fill="#FEF9F6" stroke="#743E29" stroke-width="3"/>
<path d="M900 180H180V233.333H900V180Z" fill="#743E29"/>
<path d="M843.333 203.333H767.333C766.229 203.333 765.333 204.229 765.333 205.333V208C765.333 209.105 766.229 210 767.333 210H843.333C844.438 210 845.333 209.105 845.333 208V205.333C845.333 204.229 844.438 203.333 843.333 203.333Z" fill="#F2A587"/>
<path d="M867.06 210.101L862 205.04C861.753 204.796 861.753 204.4 862 204.156L862.587 203.566C862.833 203.322 863.227 203.322 863.473 203.565L867.5 207.576L871.527 203.565C871.773 203.322 872.167 203.322 872.413 203.566L873 204.156C873.247 204.4 873.247 204.796 873 205.04L867.94 210.101C867.7 210.345 867.3 210.345 867.06 210.101Z" fill="#FEF9F6"/>
<path d="M194.345 212.667H196.805V208.894H198.873C201.549 208.894 203.106 207.297 203.106 204.973C203.106 202.661 201.578 201.03 198.936 201.03H194.345V212.667ZM196.805 206.922V203.042H198.464C199.885 203.042 200.572 203.814 200.572 204.973C200.572 206.127 199.885 206.922 198.475 206.922H196.805ZM208.495 212.837C210.654 212.837 212.109 211.786 212.45 210.167L210.211 210.019C209.967 210.684 209.342 211.03 208.535 211.03C207.325 211.03 206.558 210.229 206.558 208.928V208.922H212.501V208.258C212.501 205.292 210.706 203.826 208.399 203.826C205.831 203.826 204.166 205.65 204.166 208.343C204.166 211.11 205.808 212.837 208.495 212.837ZM206.558 207.422C206.609 206.428 207.365 205.633 208.439 205.633C209.49 205.633 210.217 206.383 210.223 207.422H206.558ZM218.723 203.939H217.081V201.848H214.66V203.939H213.467V205.758H214.66V210.303C214.649 212.013 215.814 212.86 217.569 212.786C218.194 212.763 218.637 212.638 218.882 212.559L218.501 210.758C218.382 210.78 218.126 210.837 217.899 210.837C217.416 210.837 217.081 210.655 217.081 209.985V205.758H218.723V203.939ZM224.183 212.837C226.342 212.837 227.796 211.786 228.137 210.167L225.899 210.019C225.654 210.684 225.029 211.03 224.223 211.03C223.012 211.03 222.245 210.229 222.245 208.928V208.922H228.189V208.258C228.189 205.292 226.393 203.826 224.086 203.826C221.518 203.826 219.853 205.65 219.853 208.343C219.853 211.11 221.495 212.837 224.183 212.837ZM222.245 207.422C222.296 206.428 223.052 205.633 224.126 205.633C225.177 205.633 225.904 206.383 225.91 207.422H222.245ZM229.768 212.667H232.189V207.729C232.189 206.655 232.973 205.917 234.041 205.917C234.376 205.917 234.836 205.973 235.064 206.047V203.9C234.848 203.848 234.546 203.814 234.302 203.814C233.325 203.814 232.524 204.383 232.206 205.462H232.115V203.939H229.768V212.667ZM238.609 201.03H236.791V202.269C236.791 203.229 236.45 203.928 236.069 204.53L237.137 205.161C237.939 204.491 238.609 203.297 238.609 202.258V201.03ZM246.389 206.428C246.173 204.82 244.877 203.826 242.673 203.826C240.44 203.826 238.968 204.86 238.974 206.542C238.968 207.848 239.792 208.695 241.497 209.036L243.008 209.337C243.769 209.491 244.116 209.769 244.127 210.206C244.116 210.723 243.554 211.093 242.707 211.093C241.843 211.093 241.269 210.723 241.122 210.013L238.741 210.138C238.968 211.809 240.389 212.837 242.701 212.837C244.963 212.837 246.582 211.684 246.588 209.962C246.582 208.701 245.758 207.945 244.065 207.598L242.485 207.28C241.673 207.104 241.372 206.826 241.377 206.405C241.372 205.883 241.963 205.542 242.713 205.542C243.554 205.542 244.054 206.002 244.173 206.564L246.389 206.428ZM251.729 204.667H253.548V203.428C253.548 202.536 253.843 201.837 254.269 201.167L253.201 200.536C252.411 201.178 251.729 202.4 251.729 203.439V204.667ZM255.735 212.667H258.195V208.894H260.264C262.94 208.894 264.497 207.297 264.497 204.973C264.497 202.661 262.968 201.03 260.326 201.03H255.735V212.667ZM258.195 206.922V203.042H259.855C261.275 203.042 261.963 203.814 261.963 204.973C261.963 206.127 261.275 206.922 259.866 206.922H258.195ZM271.646 208.951C271.651 210.121 270.851 210.735 269.981 210.735C269.066 210.735 268.475 210.093 268.47 209.064V203.939H266.049V209.496C266.055 211.536 267.248 212.78 269.004 212.78C270.316 212.78 271.259 212.104 271.651 211.081H271.743V212.667H274.066V203.939H271.646V208.951ZM280.645 203.939H279.003V201.848H276.582V203.939H275.389V205.758H276.582V210.303C276.571 212.013 277.735 212.86 279.491 212.786C280.116 212.763 280.559 212.638 280.803 212.559L280.423 210.758C280.303 210.78 280.048 210.837 279.821 210.837C279.337 210.837 279.003 210.655 279.003 209.985V205.758H280.645V203.939ZM286.105 212.837C288.264 212.837 289.718 211.786 290.059 210.167L287.821 210.019C287.576 210.684 286.951 211.03 286.145 211.03C284.934 211.03 284.167 210.229 284.167 208.928V208.922H290.11V208.258C290.11 205.292 288.315 203.826 286.008 203.826C283.44 203.826 281.775 205.65 281.775 208.343C281.775 211.11 283.417 212.837 286.105 212.837ZM284.167 207.422C284.218 206.428 284.974 205.633 286.048 205.633C287.099 205.633 287.826 206.383 287.832 207.422H284.167ZM291.69 212.667H294.11V207.729C294.11 206.655 294.895 205.917 295.963 205.917C296.298 205.917 296.758 205.973 296.985 206.047V203.9C296.769 203.848 296.468 203.814 296.224 203.814C295.247 203.814 294.445 204.383 294.127 205.462H294.037V203.939H291.69V212.667ZM305.498 206.428C305.282 204.82 303.987 203.826 301.782 203.826C299.549 203.826 298.077 204.86 298.083 206.542C298.077 207.848 298.901 208.695 300.606 209.036L302.117 209.337C302.879 209.491 303.225 209.769 303.237 210.206C303.225 210.723 302.663 211.093 301.816 211.093C300.953 211.093 300.379 210.723 300.231 210.013L297.851 210.138C298.077 211.809 299.498 212.837 301.811 212.837C304.072 212.837 305.691 211.684 305.697 209.962C305.691 208.701 304.867 207.945 303.174 207.598L301.595 207.28C300.782 207.104 300.481 206.826 300.487 206.405C300.481 205.883 301.072 205.542 301.822 205.542C302.663 205.542 303.163 206.002 303.282 206.564L305.498 206.428ZM315.095 212.667C318.64 212.667 320.788 210.473 320.788 206.837C320.788 203.212 318.64 201.03 315.129 201.03H310.97V212.667H315.095ZM313.43 210.559V203.138H314.998C317.18 203.138 318.333 204.252 318.333 206.837C318.333 209.434 317.18 210.559 314.993 210.559H313.43ZM325.053 212.831C326.343 212.831 327.179 212.269 327.605 211.456H327.673V212.667H329.968V206.78C329.968 204.701 328.207 203.826 326.264 203.826C324.173 203.826 322.798 204.826 322.463 206.417L324.701 206.598C324.866 206.019 325.383 205.593 326.253 205.593C327.076 205.593 327.548 206.008 327.548 206.723V206.758C327.548 207.32 326.951 207.394 325.434 207.542C323.707 207.701 322.156 208.28 322.156 210.229C322.156 211.956 323.389 212.831 325.053 212.831ZM325.747 211.161C325.003 211.161 324.468 210.814 324.468 210.15C324.468 209.468 325.031 209.133 325.883 209.013C326.411 208.939 327.275 208.814 327.565 208.621V209.547C327.565 210.462 326.809 211.161 325.747 211.161ZM339.107 206.428C338.891 204.82 337.596 203.826 335.391 203.826C333.159 203.826 331.687 204.86 331.693 206.542C331.687 207.848 332.511 208.695 334.215 209.036L335.727 209.337C336.488 209.491 336.835 209.769 336.846 210.206C336.835 210.723 336.272 211.093 335.425 211.093C334.562 211.093 333.988 210.723 333.841 210.013L331.46 210.138C331.687 211.809 333.107 212.837 335.42 212.837C337.681 212.837 339.301 211.684 339.307 209.962C339.301 208.701 338.477 207.945 336.783 207.598L335.204 207.28C334.391 207.104 334.091 206.826 334.096 206.405C334.091 205.883 334.681 205.542 335.431 205.542C336.272 205.542 336.772 206.002 336.891 206.564L339.107 206.428ZM343.251 207.621C343.257 206.496 343.944 205.837 344.933 205.837C345.916 205.837 346.495 206.468 346.489 207.542V212.667H348.91V207.11C348.916 205.064 347.711 203.826 345.893 203.826C344.569 203.826 343.683 204.451 343.285 205.479H343.183V201.03H340.831V212.667H343.251V207.621ZM350.86 212.667H353.247V211.269H353.355C353.69 211.996 354.423 212.809 355.832 212.809C357.821 212.809 359.372 211.235 359.372 208.314C359.372 205.314 357.753 203.826 355.837 203.826C354.377 203.826 353.679 204.695 353.355 205.405H353.281V201.03H350.86V212.667ZM353.229 208.303C353.229 206.746 353.889 205.752 355.065 205.752C356.264 205.752 356.9 206.792 356.9 208.303C356.9 209.826 356.253 210.883 355.065 210.883C353.9 210.883 353.229 209.86 353.229 208.303ZM364.93 212.837C367.577 212.837 369.225 211.025 369.225 208.337C369.225 205.633 367.577 203.826 364.93 203.826C362.282 203.826 360.635 205.633 360.635 208.337C360.635 211.025 362.282 212.837 364.93 212.837ZM364.941 210.962C363.72 210.962 363.095 209.843 363.095 208.32C363.095 206.797 363.72 205.672 364.941 205.672C366.14 205.672 366.765 206.797 366.765 208.32C366.765 209.843 366.14 210.962 364.941 210.962ZM373.288 212.831C374.577 212.831 375.413 212.269 375.839 211.456H375.907V212.667H378.203V206.78C378.203 204.701 376.441 203.826 374.498 203.826C372.407 203.826 371.032 204.826 370.697 206.417L372.935 206.598C373.101 206.019 373.617 205.593 374.487 205.593C375.311 205.593 375.782 206.008 375.782 206.723V206.758C375.782 207.32 375.185 207.394 373.669 207.542C371.941 207.701 370.39 208.28 370.39 210.229C370.39 211.956 371.623 212.831 373.288 212.831ZM373.981 211.161C373.237 211.161 372.703 210.814 372.703 210.15C372.703 209.468 373.265 209.133 374.117 209.013C374.646 208.939 375.509 208.814 375.799 208.621V209.547C375.799 210.462 375.043 211.161 373.981 211.161ZM380.081 212.667H382.501V207.729C382.501 206.655 383.285 205.917 384.353 205.917C384.689 205.917 385.149 205.973 385.376 206.047V203.9C385.16 203.848 384.859 203.814 384.615 203.814C383.637 203.814 382.836 204.383 382.518 205.462H382.427V203.939H380.081V212.667ZM389.437 212.809C390.846 212.809 391.579 211.996 391.914 211.269H392.017V212.667H394.403V201.03H391.988V205.405H391.914C391.591 204.695 390.891 203.826 389.431 203.826C387.517 203.826 385.897 205.314 385.897 208.314C385.897 211.235 387.449 212.809 389.437 212.809ZM390.204 210.883C389.017 210.883 388.369 209.826 388.369 208.303C388.369 206.792 389.005 205.752 390.204 205.752C391.38 205.752 392.039 206.746 392.039 208.303C392.039 209.86 391.369 210.883 390.204 210.883Z" fill="#FEF9F6"/>
<path d="M803 271H278V451H803V271Z" fill="#FBDFD4"/>
<path d="M375.888 338.155C375.915 337.892 375.998 337.641 375.998 337.381C375.998 332.485 371.965 328.506 366.999 328.506C365.228 328.506 363.595 329.033 362.204 329.893C359.729 324.513 354.258 320.743 347.876 320.743C339.185 320.743 332.124 327.688 332.124 336.271C332.124 336.686 332.224 337.074 332.251 337.476C325.277 337.99 319.75 343.673 319.75 350.69C319.75 358.037 325.796 364 333.25 364H371.5C378.952 364 385 358.037 385 350.69C385 344.853 381.174 339.957 375.888 338.155ZM315.363 335.022C309.218 328.964 309.218 319.12 315.363 313.074C321.508 307.016 331.492 307.016 337.638 313.074C339.001 314.419 340.013 315.973 340.775 317.608C342.152 317.097 343.599 316.777 345.089 316.569L349.28 304.245C349.844 302.594 348.254 301.04 346.58 301.583L334.236 305.645L328.398 294.164C327.626 292.612 325.374 292.612 324.589 294.164L318.765 305.645L306.405 301.583C304.747 301.04 303.157 302.608 303.705 304.245L307.825 316.415L296.183 322.17C294.606 322.948 294.606 325.152 296.183 325.929L307.825 331.668L303.705 343.839C303.143 345.489 304.731 347.043 306.405 346.5L317.107 342.995C317.966 341.275 319.075 339.707 320.425 338.35C318.584 337.602 316.853 336.492 315.363 335.022ZM314.688 324.042C314.688 329.698 318.808 334.412 324.235 335.453C325.361 334.801 326.53 334.232 327.78 333.83C328.539 327.688 332.14 322.391 337.26 319.274C335.402 315.239 331.282 312.412 326.5 312.412C319.991 312.412 314.688 317.624 314.688 324.042Z" fill="#743E29"/>
<path d="M739.222 323.174H755.453V319.239H745.892V319.082L749.216 315.826C753.896 311.557 755.153 309.422 755.153 306.832C755.153 302.886 751.929 300.096 747.048 300.096C742.269 300.096 738.99 302.953 739 307.421H743.569C743.557 305.243 744.936 303.909 747.015 303.909C749.016 303.909 750.506 305.154 750.506 307.155C750.506 308.967 749.394 310.213 747.327 312.202L739.222 319.706V323.174ZM767.178 300.096C762.087 300.074 758.651 303.409 758.674 307.989C758.685 312.234 761.63 315.315 765.666 315.315C768.168 315.315 770.394 314.102 771.403 312.101H771.559C771.551 316.614 769.977 319.361 767.011 319.361C765.266 319.361 764.01 318.405 763.643 316.749H758.897C759.34 320.583 762.453 323.486 767.011 323.486C772.647 323.486 776.281 318.927 776.273 311.201C776.264 302.953 771.855 300.118 767.178 300.096ZM767.21 303.876C769.42 303.876 771.056 305.676 771.082 307.844C771.09 310.022 769.368 311.823 767.166 311.823C764.943 311.823 763.353 310.09 763.342 307.856C763.321 305.632 764.977 303.876 767.21 303.876ZM784.951 311.179C787.977 311.179 790.412 308.733 790.412 305.72C790.412 302.697 787.977 300.251 784.951 300.251C781.942 300.251 779.499 302.697 779.499 305.72C779.499 308.733 781.942 311.179 784.951 311.179ZM784.951 308.021C783.69 308.021 782.655 306.988 782.655 305.72C782.655 304.442 783.69 303.409 784.951 303.409C786.229 303.409 787.256 304.442 787.256 305.72C787.256 306.988 786.229 308.021 784.951 308.021Z" fill="#743E29"/>
<path fill-rule="evenodd" clip-rule="evenodd" d="M803 403.488V451H278V386.193C299.704 388.437 320.027 401.699 339.315 414.283C358.234 426.629 376.156 438.322 393.397 438.322C415.915 438.322 429.797 429.921 443.862 421.404C458.315 412.656 472.965 403.787 497.385 403.787C521.973 403.787 535.338 409.251 548.424 414.603C560.986 419.738 573.294 424.77 595.028 424.77C613.981 424.77 622.993 414.965 633.315 403.728C647.17 388.651 663.384 371 709.158 371C741.75 371 753.011 379.665 763.941 388.086C773.098 395.125 782.027 401.994 803 403.488Z" fill="#743E29"/>
<rect x="278" y="489" width="100" height="6" rx="3" fill="#F2A587"/>
<rect x="278" y="561" width="100" height="6" rx="3" fill="#F2A587"/>
<rect x="278" y="525" width="100" height="6" rx="3" fill="#F2A587"/>
<rect x="278" y="597" width="100" height="6" rx="3" fill="#F2A587"/>
<rect x="278" y="507" width="100" height="6" rx="3" fill="#F2A587"/>
<rect x="278" y="579" width="100" height="6" rx="3" fill="#F2A587"/>
<rect x="278" y="543" width="100" height="6" rx="3" fill="#F2A587"/>
<rect x="278" y="615" width="100" height="6" rx="3" fill="#F2A587"/>
<rect x="432" y="489" width="371" height="10" rx="5" fill="#F2A587"/>
<rect x="432" y="589" width="371" height="10" rx="5" fill="#F2A587"/>
<rect x="432" y="539" width="371" height="10" rx="5" fill="#F2A587"/>
<rect x="432" y="639" width="371" height="10" rx="5" fill="#F2A587"/>
<rect x="432" y="514" width="371" height="10" rx="5" fill="#F2A587"/>
<rect x="432" y="614" width="371" height="10" rx="5" fill="#F2A587"/>
<rect x="432" y="564" width="371" height="10" rx="5" fill="#F2A587"/>
<rect x="432" y="664" width="371" height="10" rx="5" fill="#F2A587"/>
<rect x="432" y="689" width="371" height="10" rx="5" fill="#F2A587"/>
<rect x="432" y="789" width="371" height="10" rx="5" fill="#F2A587"/>
<rect x="432" y="739" width="371" height="10" rx="5" fill="#F2A587"/>
<rect x="432" y="839" width="371" height="10" rx="5" fill="#F2A587"/>
<rect x="432" y="714" width="371" height="10" rx="5" fill="#F2A587"/>
<rect x="432" y="814" width="371" height="10" rx="5" fill="#F2A587"/>
<rect x="432" y="764" width="371" height="10" rx="5" fill="#F2A587"/>
<rect x="432" y="864" width="371" height="10" rx="5" fill="#F2A587"/>
</svg>
