<svg width="800" height="800" viewBox="0 0 800 800" fill="none" xmlns="http://www.w3.org/2000/svg">
<rect y="100" width="800" height="100" fill="#AAAAAA"/>
<path d="M329.405 136.818L328.817 154.984H323.562L322.974 136.818H329.405ZM326.183 163.371C325.271 163.371 324.487 163.047 323.831 162.399C323.183 161.751 322.859 160.967 322.859 160.047C322.859 159.143 323.183 158.372 323.831 157.733C324.487 157.085 325.271 156.761 326.183 156.761C327.061 156.761 327.832 157.085 328.497 157.733C329.17 158.372 329.507 159.143 329.507 160.047C329.507 160.661 329.349 161.219 329.034 161.722C328.727 162.224 328.322 162.625 327.819 162.923C327.325 163.222 326.78 163.371 326.183 163.371ZM334.288 163V136.818H340.54V146.726H340.667C340.923 146.129 341.285 145.554 341.754 145C342.231 144.446 342.836 143.994 343.569 143.645C344.311 143.287 345.197 143.108 346.229 143.108C347.592 143.108 348.866 143.466 350.051 144.182C351.244 144.898 352.207 146.001 352.94 147.493C353.673 148.984 354.04 150.885 354.04 153.195C354.04 155.419 353.686 157.281 352.979 158.781C352.28 160.281 351.334 161.406 350.14 162.156C348.956 162.906 347.639 163.281 346.19 163.281C345.202 163.281 344.345 163.119 343.621 162.795C342.896 162.472 342.287 162.045 341.792 161.517C341.307 160.989 340.932 160.422 340.667 159.817H340.476V163H334.288ZM340.412 153.182C340.412 154.239 340.552 155.159 340.834 155.943C341.123 156.727 341.537 157.337 342.074 157.771C342.619 158.197 343.271 158.411 344.03 158.411C344.797 158.411 345.449 158.197 345.986 157.771C346.523 157.337 346.927 156.727 347.2 155.943C347.481 155.159 347.622 154.239 347.622 153.182C347.622 152.125 347.481 151.209 347.2 150.433C346.927 149.658 346.523 149.057 345.986 148.631C345.457 148.205 344.805 147.991 344.03 147.991C343.263 147.991 342.611 148.2 342.074 148.618C341.537 149.036 341.123 149.632 340.834 150.408C340.552 151.183 340.412 152.108 340.412 153.182ZM357.316 163V143.364H363.388V146.943H363.593C363.95 145.648 364.534 144.685 365.344 144.054C366.154 143.415 367.095 143.095 368.169 143.095C368.459 143.095 368.757 143.116 369.064 143.159C369.371 143.193 369.656 143.249 369.921 143.325V148.759C369.622 148.656 369.23 148.575 368.744 148.516C368.267 148.456 367.841 148.426 367.466 148.426C366.725 148.426 366.056 148.592 365.459 148.925C364.871 149.249 364.406 149.705 364.066 150.293C363.733 150.872 363.567 151.554 363.567 152.338V163H357.316ZM380.615 163.371C378.552 163.371 376.779 162.949 375.296 162.105C373.822 161.253 372.684 160.068 371.883 158.551C371.09 157.026 370.694 155.257 370.694 153.246C370.694 151.226 371.09 149.457 371.883 147.94C372.684 146.415 373.822 145.23 375.296 144.386C376.779 143.534 378.552 143.108 380.615 143.108C382.677 143.108 384.445 143.534 385.92 144.386C387.403 145.23 388.541 146.415 389.333 147.94C390.134 149.457 390.535 151.226 390.535 153.246C390.535 155.257 390.134 157.026 389.333 158.551C388.541 160.068 387.403 161.253 385.92 162.105C384.445 162.949 382.677 163.371 380.615 163.371ZM380.653 158.653C381.403 158.653 382.038 158.423 382.558 157.963C383.078 157.503 383.474 156.864 383.747 156.045C384.028 155.227 384.169 154.281 384.169 153.207C384.169 152.116 384.028 151.162 383.747 150.344C383.474 149.526 383.078 148.886 382.558 148.426C382.038 147.966 381.403 147.736 380.653 147.736C379.877 147.736 379.221 147.966 378.684 148.426C378.156 148.886 377.751 149.526 377.47 150.344C377.197 151.162 377.061 152.116 377.061 153.207C377.061 154.281 377.197 155.227 377.47 156.045C377.751 156.864 378.156 157.503 378.684 157.963C379.221 158.423 379.877 158.653 380.653 158.653ZM396.985 163L391.871 143.364H398.148L400.794 155.943H400.96L403.798 143.364H409.922L412.837 155.854H413.003L415.573 143.364H421.85L416.723 163H410.037L406.969 151.558H406.752L403.683 163H396.985ZM441.502 149.359L435.762 149.513C435.702 149.104 435.54 148.741 435.276 148.426C435.012 148.102 434.667 147.851 434.241 147.672C433.823 147.484 433.337 147.391 432.783 147.391C432.059 147.391 431.441 147.536 430.93 147.825C430.427 148.115 430.18 148.507 430.188 149.001C430.18 149.385 430.333 149.717 430.648 149.999C430.972 150.28 431.547 150.506 432.374 150.676L436.158 151.392C438.118 151.767 439.576 152.389 440.53 153.259C441.493 154.128 441.979 155.278 441.988 156.71C441.979 158.057 441.579 159.229 440.786 160.226C440.002 161.223 438.928 161.999 437.564 162.553C436.201 163.098 434.641 163.371 432.885 163.371C430.081 163.371 427.87 162.795 426.251 161.645C424.64 160.486 423.719 158.935 423.489 156.991L429.664 156.838C429.8 157.554 430.154 158.099 430.725 158.474C431.296 158.849 432.025 159.037 432.911 159.037C433.712 159.037 434.364 158.888 434.867 158.589C435.37 158.291 435.626 157.895 435.634 157.401C435.626 156.957 435.43 156.604 435.046 156.339C434.662 156.067 434.062 155.854 433.243 155.7L429.817 155.048C427.849 154.69 426.383 154.03 425.42 153.067C424.456 152.095 423.979 150.859 423.988 149.359C423.979 148.047 424.329 146.926 425.036 145.997C425.743 145.06 426.749 144.344 428.053 143.849C429.357 143.355 430.895 143.108 432.668 143.108C435.327 143.108 437.424 143.666 438.958 144.783C440.492 145.891 441.34 147.416 441.502 149.359ZM454.244 163.371C452.191 163.371 450.418 162.966 448.926 162.156C447.443 161.338 446.301 160.175 445.5 158.666C444.708 157.149 444.311 155.347 444.311 153.259C444.311 151.23 444.712 149.457 445.513 147.94C446.314 146.415 447.443 145.23 448.901 144.386C450.358 143.534 452.075 143.108 454.053 143.108C455.45 143.108 456.729 143.325 457.888 143.76C459.047 144.195 460.048 144.838 460.892 145.69C461.736 146.543 462.392 147.595 462.861 148.848C463.33 150.092 463.564 151.52 463.564 153.131V154.69H446.497V151.06H457.747C457.739 150.395 457.581 149.803 457.274 149.283C456.968 148.763 456.546 148.358 456.009 148.068C455.48 147.77 454.871 147.621 454.181 147.621C453.482 147.621 452.855 147.778 452.301 148.094C451.747 148.401 451.308 148.822 450.985 149.359C450.661 149.888 450.49 150.489 450.473 151.162V154.857C450.473 155.658 450.631 156.361 450.946 156.966C451.262 157.562 451.709 158.027 452.289 158.359C452.868 158.692 453.558 158.858 454.36 158.858C454.914 158.858 455.416 158.781 455.868 158.628C456.32 158.474 456.708 158.249 457.031 157.95C457.355 157.652 457.598 157.286 457.76 156.851L463.5 157.017C463.262 158.304 462.737 159.425 461.928 160.379C461.127 161.325 460.074 162.062 458.77 162.591C457.466 163.111 455.958 163.371 454.244 163.371ZM466.757 163V143.364H472.829V146.943H473.034C473.392 145.648 473.976 144.685 474.785 144.054C475.595 143.415 476.537 143.095 477.611 143.095C477.9 143.095 478.199 143.116 478.506 143.159C478.812 143.193 479.098 143.249 479.362 143.325V148.759C479.064 148.656 478.672 148.575 478.186 148.516C477.709 148.456 477.282 148.426 476.907 148.426C476.166 148.426 475.497 148.592 474.9 148.925C474.312 149.249 473.848 149.705 473.507 150.293C473.175 150.872 473.008 151.554 473.008 152.338V163H466.757Z" fill="black"/>
<rect y="300" width="800" height="100" fill="#AAAAAA"/>
<path d="M343.713 336.818L343.125 354.984H337.871L337.283 336.818H343.713ZM340.492 363.371C339.58 363.371 338.796 363.047 338.139 362.399C337.492 361.751 337.168 360.967 337.168 360.047C337.168 359.143 337.492 358.372 338.139 357.733C338.796 357.085 339.58 356.761 340.492 356.761C341.369 356.761 342.141 357.085 342.806 357.733C343.479 358.372 343.816 359.143 343.816 360.047C343.816 360.661 343.658 361.219 343.343 361.722C343.036 362.224 342.631 362.625 342.128 362.923C341.634 363.222 341.088 363.371 340.492 363.371ZM354.132 363.332C352.879 363.332 351.767 363.124 350.796 362.706C349.833 362.28 349.07 361.641 348.507 360.788C347.953 359.928 347.676 358.849 347.676 357.554C347.676 356.463 347.868 355.543 348.252 354.793C348.635 354.043 349.164 353.433 349.837 352.964C350.51 352.496 351.286 352.142 352.164 351.903C353.041 351.656 353.979 351.49 354.976 351.405C356.093 351.303 356.992 351.196 357.673 351.085C358.355 350.966 358.85 350.8 359.156 350.587C359.472 350.365 359.629 350.054 359.629 349.653V349.589C359.629 348.933 359.404 348.426 358.952 348.068C358.5 347.71 357.891 347.531 357.124 347.531C356.297 347.531 355.632 347.71 355.129 348.068C354.627 348.426 354.307 348.92 354.171 349.551L348.405 349.347C348.575 348.153 349.014 347.088 349.722 346.151C350.438 345.205 351.418 344.463 352.662 343.926C353.915 343.381 355.419 343.108 357.175 343.108C358.428 343.108 359.583 343.257 360.639 343.555C361.696 343.845 362.617 344.271 363.401 344.834C364.185 345.388 364.79 346.07 365.216 346.879C365.651 347.689 365.868 348.614 365.868 349.653V363H359.987V360.264H359.834C359.485 360.929 359.037 361.491 358.492 361.952C357.955 362.412 357.32 362.757 356.587 362.987C355.862 363.217 355.044 363.332 354.132 363.332ZM356.063 359.241C356.736 359.241 357.341 359.105 357.878 358.832C358.423 358.56 358.858 358.185 359.182 357.707C359.506 357.222 359.668 356.659 359.668 356.02V354.153C359.489 354.247 359.271 354.332 359.016 354.409C358.769 354.486 358.496 354.558 358.198 354.626C357.899 354.695 357.593 354.754 357.277 354.805C356.962 354.857 356.659 354.903 356.369 354.946C355.781 355.04 355.279 355.185 354.861 355.381C354.452 355.577 354.137 355.832 353.915 356.148C353.702 356.455 353.595 356.821 353.595 357.247C353.595 357.895 353.825 358.389 354.286 358.73C354.754 359.071 355.347 359.241 356.063 359.241ZM382.36 354.524V343.364H388.598V363H382.641V359.344H382.436C382.002 360.545 381.26 361.5 380.212 362.207C379.172 362.906 377.915 363.256 376.441 363.256C375.102 363.256 373.926 362.949 372.912 362.335C371.898 361.722 371.11 360.865 370.547 359.766C369.985 358.658 369.699 357.362 369.691 355.879V343.364H375.942V354.652C375.95 355.717 376.232 356.557 376.786 357.17C377.34 357.784 378.094 358.091 379.048 358.091C379.671 358.091 380.229 357.955 380.723 357.682C381.226 357.401 381.622 356.996 381.912 356.467C382.21 355.93 382.36 355.283 382.36 354.524ZM403.661 343.364V347.966H391.273V343.364H403.661ZM393.868 338.659H400.12V356.825C400.12 357.209 400.18 357.52 400.299 357.759C400.427 357.989 400.61 358.155 400.849 358.257C401.087 358.351 401.373 358.398 401.705 358.398C401.944 358.398 402.195 358.376 402.459 358.334C402.732 358.283 402.937 358.24 403.073 358.206L404.019 362.719C403.721 362.804 403.299 362.911 402.753 363.038C402.216 363.166 401.573 363.247 400.823 363.281C399.357 363.349 398.1 363.179 397.052 362.77C396.012 362.352 395.215 361.705 394.661 360.827C394.116 359.949 393.851 358.845 393.868 357.516V338.659ZM413.524 351.801V363H407.273V336.818H413.319V346.969H413.537C413.98 345.759 414.704 344.812 415.71 344.131C416.724 343.449 417.964 343.108 419.43 343.108C420.811 343.108 422.013 343.415 423.035 344.028C424.058 344.634 424.851 345.49 425.413 346.598C425.984 347.706 426.265 349.001 426.257 350.484V363H420.006V351.712C420.014 350.621 419.741 349.768 419.187 349.155C418.633 348.541 417.854 348.234 416.848 348.234C416.192 348.234 415.612 348.379 415.109 348.669C414.615 348.95 414.227 349.355 413.946 349.884C413.673 350.412 413.532 351.051 413.524 351.801ZM439.325 363.371C437.263 363.371 435.49 362.949 434.007 362.105C432.533 361.253 431.395 360.068 430.594 358.551C429.801 357.026 429.405 355.257 429.405 353.246C429.405 351.226 429.801 349.457 430.594 347.94C431.395 346.415 432.533 345.23 434.007 344.386C435.49 343.534 437.263 343.108 439.325 343.108C441.388 343.108 443.156 343.534 444.631 344.386C446.114 345.23 447.252 346.415 448.044 347.94C448.845 349.457 449.246 351.226 449.246 353.246C449.246 355.257 448.845 357.026 448.044 358.551C447.252 360.068 446.114 361.253 444.631 362.105C443.156 362.949 441.388 363.371 439.325 363.371ZM439.364 358.653C440.114 358.653 440.749 358.423 441.269 357.963C441.789 357.503 442.185 356.864 442.458 356.045C442.739 355.227 442.879 354.281 442.879 353.207C442.879 352.116 442.739 351.162 442.458 350.344C442.185 349.526 441.789 348.886 441.269 348.426C440.749 347.966 440.114 347.736 439.364 347.736C438.588 347.736 437.932 347.966 437.395 348.426C436.867 348.886 436.462 349.526 436.181 350.344C435.908 351.162 435.771 352.116 435.771 353.207C435.771 354.281 435.908 355.227 436.181 356.045C436.462 356.864 436.867 357.503 437.395 357.963C437.932 358.423 438.588 358.653 439.364 358.653ZM452.448 363V343.364H458.521V346.943H458.725C459.083 345.648 459.667 344.685 460.477 344.054C461.286 343.415 462.228 343.095 463.302 343.095C463.592 343.095 463.89 343.116 464.197 343.159C464.504 343.193 464.789 343.249 465.053 343.325V348.759C464.755 348.656 464.363 348.575 463.877 348.516C463.4 348.456 462.974 348.426 462.599 348.426C461.857 348.426 461.188 348.592 460.592 348.925C460.004 349.249 459.539 349.705 459.198 350.293C458.866 350.872 458.7 351.554 458.7 352.338V363H452.448Z" fill="black"/>
<rect y="500" width="800" height="100" fill="#AAAAAA"/>
<path d="M348.015 563.332C346.762 563.332 345.65 563.124 344.678 562.706C343.715 562.28 342.953 561.641 342.39 560.788C341.836 559.928 341.559 558.849 341.559 557.554C341.559 556.463 341.751 555.543 342.134 554.793C342.518 554.043 343.046 553.433 343.72 552.964C344.393 552.496 345.169 552.142 346.046 551.903C346.924 551.656 347.862 551.49 348.859 551.405C349.975 551.303 350.874 551.196 351.556 551.085C352.238 550.966 352.732 550.8 353.039 550.587C353.355 550.365 353.512 550.054 353.512 549.653V549.589C353.512 548.933 353.286 548.426 352.835 548.068C352.383 547.71 351.774 547.531 351.007 547.531C350.18 547.531 349.515 547.71 349.012 548.068C348.509 548.426 348.19 548.92 348.053 549.551L342.288 549.347C342.458 548.153 342.897 547.088 343.605 546.151C344.32 545.205 345.301 544.463 346.545 543.926C347.798 543.381 349.302 543.108 351.058 543.108C352.311 543.108 353.465 543.257 354.522 543.555C355.579 543.845 356.499 544.271 357.284 544.834C358.068 545.388 358.673 546.07 359.099 546.879C359.534 547.689 359.751 548.614 359.751 549.653V563H353.87V560.264H353.717C353.367 560.929 352.92 561.491 352.374 561.952C351.838 562.412 351.203 562.757 350.47 562.987C349.745 563.217 348.927 563.332 348.015 563.332ZM349.945 559.241C350.619 559.241 351.224 559.105 351.761 558.832C352.306 558.56 352.741 558.185 353.065 557.707C353.389 557.222 353.551 556.659 353.551 556.02V554.153C353.372 554.247 353.154 554.332 352.899 554.409C352.651 554.486 352.379 554.558 352.08 554.626C351.782 554.695 351.475 554.754 351.16 554.805C350.845 554.857 350.542 554.903 350.252 554.946C349.664 555.04 349.161 555.185 348.744 555.381C348.335 555.577 348.019 555.832 347.798 556.148C347.585 556.455 347.478 556.821 347.478 557.247C347.478 557.895 347.708 558.389 348.169 558.73C348.637 559.071 349.23 559.241 349.945 559.241ZM376.242 554.524V543.364H382.481V563H376.524V559.344H376.319C375.884 560.545 375.143 561.5 374.095 562.207C373.055 562.906 371.798 563.256 370.323 563.256C368.985 563.256 367.809 562.949 366.795 562.335C365.781 561.722 364.992 560.865 364.43 559.766C363.867 558.658 363.582 557.362 363.573 555.879V543.364H369.825V554.652C369.833 555.717 370.115 556.557 370.669 557.17C371.222 557.784 371.977 558.091 372.931 558.091C373.553 558.091 374.112 557.955 374.606 557.682C375.109 557.401 375.505 556.996 375.795 556.467C376.093 555.93 376.242 555.283 376.242 554.524ZM397.544 543.364V547.966H385.156V543.364H397.544ZM387.751 538.659H394.003V556.825C394.003 557.209 394.062 557.52 394.182 557.759C394.309 557.989 394.493 558.155 394.731 558.257C394.97 558.351 395.256 558.398 395.588 558.398C395.827 558.398 396.078 558.376 396.342 558.334C396.615 558.283 396.819 558.24 396.956 558.206L397.902 562.719C397.604 562.804 397.182 562.911 396.636 563.038C396.099 563.166 395.456 563.247 394.706 563.281C393.24 563.349 391.983 563.179 390.934 562.77C389.895 562.352 389.098 561.705 388.544 560.827C387.998 559.949 387.734 558.845 387.751 557.516V538.659ZM407.407 551.801V563H401.155V536.818H407.202V546.969H407.42C407.863 545.759 408.587 544.812 409.593 544.131C410.607 543.449 411.847 543.108 413.313 543.108C414.694 543.108 415.895 543.415 416.918 544.028C417.941 544.634 418.733 545.49 419.296 546.598C419.867 547.706 420.148 549.001 420.14 550.484V563H413.888V551.712C413.897 550.621 413.624 549.768 413.07 549.155C412.516 548.541 411.736 548.234 410.731 548.234C410.074 548.234 409.495 548.379 408.992 548.669C408.498 548.95 408.11 549.355 407.829 549.884C407.556 550.412 407.415 551.051 407.407 551.801ZM433.208 563.371C431.146 563.371 429.373 562.949 427.89 562.105C426.416 561.253 425.278 560.068 424.477 558.551C423.684 557.026 423.288 555.257 423.288 553.246C423.288 551.226 423.684 549.457 424.477 547.94C425.278 546.415 426.416 545.23 427.89 544.386C429.373 543.534 431.146 543.108 433.208 543.108C435.271 543.108 437.039 543.534 438.514 544.386C439.997 545.23 441.134 546.415 441.927 547.94C442.728 549.457 443.129 551.226 443.129 553.246C443.129 555.257 442.728 557.026 441.927 558.551C441.134 560.068 439.997 561.253 438.514 562.105C437.039 562.949 435.271 563.371 433.208 563.371ZM433.247 558.653C433.997 558.653 434.632 558.423 435.151 557.963C435.671 557.503 436.068 556.864 436.34 556.045C436.622 555.227 436.762 554.281 436.762 553.207C436.762 552.116 436.622 551.162 436.34 550.344C436.068 549.526 435.671 548.886 435.151 548.426C434.632 547.966 433.997 547.736 433.247 547.736C432.471 547.736 431.815 547.966 431.278 548.426C430.749 548.886 430.345 549.526 430.063 550.344C429.791 551.162 429.654 552.116 429.654 553.207C429.654 554.281 429.791 555.227 430.063 556.045C430.345 556.864 430.749 557.503 431.278 557.963C431.815 558.423 432.471 558.653 433.247 558.653ZM446.331 563V543.364H452.404V546.943H452.608C452.966 545.648 453.55 544.685 454.36 544.054C455.169 543.415 456.111 543.095 457.185 543.095C457.475 543.095 457.773 543.116 458.08 543.159C458.387 543.193 458.672 543.249 458.936 543.325V548.759C458.638 548.656 458.246 548.575 457.76 548.516C457.283 548.456 456.857 548.426 456.482 548.426C455.74 548.426 455.071 548.592 454.475 548.925C453.887 549.249 453.422 549.705 453.081 550.293C452.749 550.872 452.583 551.554 452.583 552.338V563H446.331Z" fill="black"/>
<rect y="700" width="800" height="100" fill="#AAAAAA"/>
<path d="M328.171 763V736.818H334.422V746.726H334.55C334.806 746.129 335.168 745.554 335.637 745C336.114 744.446 336.719 743.994 337.452 743.645C338.194 743.287 339.08 743.108 340.111 743.108C341.475 743.108 342.749 743.466 343.934 744.182C345.127 744.898 346.09 746.001 346.823 747.493C347.556 748.984 347.922 750.885 347.922 753.195C347.922 755.419 347.569 757.281 346.861 758.781C346.162 760.281 345.216 761.406 344.023 762.156C342.839 762.906 341.522 763.281 340.073 763.281C339.084 763.281 338.228 763.119 337.503 762.795C336.779 762.472 336.17 762.045 335.675 761.517C335.189 760.989 334.814 760.422 334.55 759.817H334.358V763H328.171ZM334.295 753.182C334.295 754.239 334.435 755.159 334.716 755.943C335.006 756.727 335.42 757.337 335.956 757.771C336.502 758.197 337.154 758.411 337.912 758.411C338.68 758.411 339.331 758.197 339.868 757.771C340.405 757.337 340.81 756.727 341.083 755.943C341.364 755.159 341.505 754.239 341.505 753.182C341.505 752.125 341.364 751.209 341.083 750.433C340.81 749.658 340.405 749.057 339.868 748.631C339.34 748.205 338.688 747.991 337.912 747.991C337.145 747.991 336.493 748.2 335.956 748.618C335.42 749.036 335.006 749.632 334.716 750.408C334.435 751.183 334.295 752.108 334.295 753.182ZM351.198 763V743.364H357.271V746.943H357.475C357.833 745.648 358.417 744.685 359.227 744.054C360.036 743.415 360.978 743.095 362.052 743.095C362.342 743.095 362.64 743.116 362.947 743.159C363.254 743.193 363.539 743.249 363.803 743.325V748.759C363.505 748.656 363.113 748.575 362.627 748.516C362.15 748.456 361.724 748.426 361.349 748.426C360.607 748.426 359.938 748.592 359.342 748.925C358.754 749.249 358.289 749.705 357.948 750.293C357.616 750.872 357.45 751.554 357.45 752.338V763H351.198ZM374.497 763.371C372.435 763.371 370.662 762.949 369.179 762.105C367.705 761.253 366.567 760.068 365.766 758.551C364.973 757.026 364.577 755.257 364.577 753.246C364.577 751.226 364.973 749.457 365.766 747.94C366.567 746.415 367.705 745.23 369.179 744.386C370.662 743.534 372.435 743.108 374.497 743.108C376.56 743.108 378.328 743.534 379.803 744.386C381.286 745.23 382.423 746.415 383.216 747.94C384.017 749.457 384.418 751.226 384.418 753.246C384.418 755.257 384.017 757.026 383.216 758.551C382.423 760.068 381.286 761.253 379.803 762.105C378.328 762.949 376.56 763.371 374.497 763.371ZM374.536 758.653C375.286 758.653 375.921 758.423 376.441 757.963C376.96 757.503 377.357 756.864 377.629 756.045C377.911 755.227 378.051 754.281 378.051 753.207C378.051 752.116 377.911 751.162 377.629 750.344C377.357 749.526 376.96 748.886 376.441 748.426C375.921 747.966 375.286 747.736 374.536 747.736C373.76 747.736 373.104 747.966 372.567 748.426C372.039 748.886 371.634 749.526 371.352 750.344C371.08 751.162 370.943 752.116 370.943 753.207C370.943 754.281 371.08 755.227 371.352 756.045C371.634 756.864 372.039 757.503 372.567 757.963C373.104 758.423 373.76 758.653 374.536 758.653ZM390.867 763L385.754 743.364H392.031L394.677 755.943H394.843L397.681 743.364H403.805L406.72 755.854H406.886L409.455 743.364H415.732L410.606 763H403.92L400.852 751.558H400.634L397.566 763H390.867ZM435.385 749.359L429.645 749.513C429.585 749.104 429.423 748.741 429.159 748.426C428.895 748.102 428.55 747.851 428.123 747.672C427.706 747.484 427.22 747.391 426.666 747.391C425.942 747.391 425.324 747.536 424.812 747.825C424.309 748.115 424.062 748.507 424.071 749.001C424.062 749.385 424.216 749.717 424.531 749.999C424.855 750.28 425.43 750.506 426.257 750.676L430.041 751.392C432.001 751.767 433.459 752.389 434.413 753.259C435.376 754.128 435.862 755.278 435.871 756.71C435.862 758.057 435.461 759.229 434.669 760.226C433.885 761.223 432.811 761.999 431.447 762.553C430.084 763.098 428.524 763.371 426.768 763.371C423.964 763.371 421.753 762.795 420.133 761.645C418.523 760.486 417.602 758.935 417.372 756.991L423.547 756.838C423.683 757.554 424.037 758.099 424.608 758.474C425.179 758.849 425.907 759.037 426.794 759.037C427.595 759.037 428.247 758.888 428.75 758.589C429.253 758.291 429.508 757.895 429.517 757.401C429.508 756.957 429.312 756.604 428.929 756.339C428.545 756.067 427.944 755.854 427.126 755.7L423.7 755.048C421.731 754.69 420.265 754.03 419.302 753.067C418.339 752.095 417.862 750.859 417.871 749.359C417.862 748.047 418.211 746.926 418.919 745.997C419.626 745.06 420.632 744.344 421.936 743.849C423.24 743.355 424.778 743.108 426.551 743.108C429.21 743.108 431.307 743.666 432.841 744.783C434.375 745.891 435.223 747.416 435.385 749.359ZM448.127 763.371C446.073 763.371 444.301 762.966 442.809 762.156C441.326 761.338 440.184 760.175 439.383 758.666C438.59 757.149 438.194 755.347 438.194 753.259C438.194 751.23 438.595 749.457 439.396 747.94C440.197 746.415 441.326 745.23 442.784 744.386C444.241 743.534 445.958 743.108 447.936 743.108C449.333 743.108 450.612 743.325 451.771 743.76C452.93 744.195 453.931 744.838 454.775 745.69C455.619 746.543 456.275 747.595 456.744 748.848C457.213 750.092 457.447 751.52 457.447 753.131V754.69H440.38V751.06H451.63C451.622 750.395 451.464 749.803 451.157 749.283C450.85 748.763 450.428 748.358 449.892 748.068C449.363 747.77 448.754 747.621 448.063 747.621C447.365 747.621 446.738 747.778 446.184 748.094C445.63 748.401 445.191 748.822 444.867 749.359C444.544 749.888 444.373 750.489 444.356 751.162V754.857C444.356 755.658 444.514 756.361 444.829 756.966C445.144 757.562 445.592 758.027 446.171 758.359C446.751 758.692 447.441 758.858 448.242 758.858C448.796 758.858 449.299 758.781 449.751 758.628C450.203 758.474 450.59 758.249 450.914 757.95C451.238 757.652 451.481 757.286 451.643 756.851L457.383 757.017C457.144 758.304 456.62 759.425 455.811 760.379C455.009 761.325 453.957 762.062 452.653 762.591C451.349 763.111 449.84 763.371 448.127 763.371ZM460.64 763V743.364H466.712V746.943H466.917C467.275 745.648 467.858 744.685 468.668 744.054C469.478 743.415 470.42 743.095 471.493 743.095C471.783 743.095 472.081 743.116 472.388 743.159C472.695 743.193 472.981 743.249 473.245 743.325V748.759C472.947 748.656 472.555 748.575 472.069 748.516C471.591 748.456 471.165 748.426 470.79 748.426C470.049 748.426 469.38 748.592 468.783 748.925C468.195 749.249 467.731 749.705 467.39 750.293C467.057 750.872 466.891 751.554 466.891 752.338V763H460.64Z" fill="black"/>
<rect y="200" width="800" height="100" fill="#DDDDDD"/>
<path d="M362.996 236.818L362.408 254.984H357.154L356.566 236.818H362.996ZM359.775 263.371C358.863 263.371 358.079 263.047 357.423 262.399C356.775 261.751 356.451 260.967 356.451 260.047C356.451 259.143 356.775 258.372 357.423 257.733C358.079 257.085 358.863 256.761 359.775 256.761C360.653 256.761 361.424 257.085 362.089 257.733C362.762 258.372 363.099 259.143 363.099 260.047C363.099 260.661 362.941 261.219 362.626 261.722C362.319 262.224 361.914 262.625 361.411 262.923C360.917 263.222 360.371 263.371 359.775 263.371ZM380.549 254.524V243.364H386.788V263H380.83V259.344H380.626C380.191 260.545 379.45 261.5 378.401 262.207C377.362 262.906 376.104 263.256 374.63 263.256C373.292 263.256 372.116 262.949 371.102 262.335C370.087 261.722 369.299 260.865 368.737 259.766C368.174 258.658 367.888 257.362 367.88 255.879V243.364H374.131V254.652C374.14 255.717 374.421 256.557 374.975 257.17C375.529 257.784 376.283 258.091 377.238 258.091C377.86 258.091 378.418 257.955 378.913 257.682C379.415 257.401 379.812 256.996 380.102 256.467C380.4 255.93 380.549 255.283 380.549 254.524ZM407.91 249.359L402.17 249.513C402.11 249.104 401.949 248.741 401.684 248.426C401.42 248.102 401.075 247.851 400.649 247.672C400.231 247.484 399.745 247.391 399.191 247.391C398.467 247.391 397.849 247.536 397.338 247.825C396.835 248.115 396.588 248.507 396.596 249.001C396.588 249.385 396.741 249.717 397.056 249.999C397.38 250.28 397.956 250.506 398.782 250.676L402.566 251.392C404.527 251.767 405.984 252.389 406.939 253.259C407.902 254.128 408.387 255.278 408.396 256.71C408.387 258.057 407.987 259.229 407.194 260.226C406.41 261.223 405.336 261.999 403.973 262.553C402.609 263.098 401.049 263.371 399.294 263.371C396.49 263.371 394.278 262.795 392.659 261.645C391.048 260.486 390.127 258.935 389.897 256.991L396.072 256.838C396.208 257.554 396.562 258.099 397.133 258.474C397.704 258.849 398.433 259.037 399.319 259.037C400.12 259.037 400.772 258.888 401.275 258.589C401.778 258.291 402.034 257.895 402.042 257.401C402.034 256.957 401.838 256.604 401.454 256.339C401.071 256.067 400.47 255.854 399.652 255.7L396.225 255.048C394.257 254.69 392.791 254.03 391.828 253.067C390.865 252.095 390.387 250.859 390.396 249.359C390.387 248.047 390.737 246.926 391.444 245.997C392.152 245.06 393.157 244.344 394.461 243.849C395.765 243.355 397.304 243.108 399.076 243.108C401.735 243.108 403.832 243.666 405.366 244.783C406.9 245.891 407.748 247.416 407.91 249.359ZM420.653 263.371C418.599 263.371 416.826 262.966 415.335 262.156C413.852 261.338 412.71 260.175 411.908 258.666C411.116 257.149 410.719 255.347 410.719 253.259C410.719 251.23 411.12 249.457 411.921 247.94C412.722 246.415 413.852 245.23 415.309 244.386C416.766 243.534 418.484 243.108 420.461 243.108C421.859 243.108 423.137 243.325 424.296 243.76C425.455 244.195 426.457 244.838 427.3 245.69C428.144 246.543 428.8 247.595 429.269 248.848C429.738 250.092 429.972 251.52 429.972 253.131V254.69H412.906V251.06H424.156C424.147 250.395 423.989 249.803 423.683 249.283C423.376 248.763 422.954 248.358 422.417 248.068C421.888 247.77 421.279 247.621 420.589 247.621C419.89 247.621 419.263 247.778 418.71 248.094C418.156 248.401 417.717 248.822 417.393 249.359C417.069 249.888 416.898 250.489 416.881 251.162V254.857C416.881 255.658 417.039 256.361 417.354 256.966C417.67 257.562 418.117 258.027 418.697 258.359C419.276 258.692 419.967 258.858 420.768 258.858C421.322 258.858 421.825 258.781 422.276 258.628C422.728 258.474 423.116 258.249 423.44 257.95C423.763 257.652 424.006 257.286 424.168 256.851L429.908 257.017C429.67 258.304 429.146 259.425 428.336 260.379C427.535 261.325 426.482 262.062 425.178 262.591C423.874 263.111 422.366 263.371 420.653 263.371ZM433.165 263V243.364H439.238V246.943H439.442C439.8 245.648 440.384 244.685 441.194 244.054C442.003 243.415 442.945 243.095 444.019 243.095C444.309 243.095 444.607 243.116 444.914 243.159C445.221 243.193 445.506 243.249 445.77 243.325V248.759C445.472 248.656 445.08 248.575 444.594 248.516C444.117 248.456 443.691 248.426 443.316 248.426C442.574 248.426 441.905 248.592 441.309 248.925C440.721 249.249 440.256 249.705 439.915 250.293C439.583 250.872 439.417 251.554 439.417 252.338V263H433.165Z" fill="black"/>
<rect width="800" height="100" fill="#DDDDDD"/>
<path d="M196.81 41.9574L197.679 36.8182H219.808L218.939 41.9574H211L207.523 63H201.284L204.761 41.9574H196.81ZM216.513 63L219.786 43.3636H225.858L225.257 46.9432H225.462C226.033 45.6477 226.779 44.6847 227.699 44.054C228.62 43.4148 229.617 43.0952 230.691 43.0952C230.98 43.0952 231.27 43.1165 231.56 43.1591C231.858 43.1932 232.14 43.2443 232.404 43.3125L231.483 48.7585C231.194 48.6477 230.814 48.5668 230.346 48.5156C229.877 48.456 229.451 48.4261 229.067 48.4261C228.326 48.4261 227.635 48.5923 226.996 48.9247C226.365 49.2486 225.828 49.7045 225.385 50.2926C224.951 50.8722 224.665 51.554 224.529 52.3381L222.765 63H216.513ZM236.412 63.3324C235.167 63.3324 234.093 63.1236 233.19 62.706C232.295 62.2798 231.639 61.6364 231.221 60.7756C230.812 59.9148 230.714 58.8409 230.927 57.554C231.115 56.4631 231.46 55.5469 231.963 54.8054C232.474 54.0554 233.1 53.446 233.842 52.9773C234.592 52.5085 235.427 52.1506 236.348 51.9034C237.268 51.6562 238.231 51.4901 239.237 51.4048C240.362 51.3026 241.274 51.1918 241.973 51.0724C242.68 50.9531 243.208 50.7869 243.558 50.5739C243.907 50.3523 244.12 50.0455 244.197 49.6534V49.5895C244.299 48.9332 244.159 48.4261 243.775 48.0682C243.392 47.7102 242.816 47.5312 242.049 47.5312C241.231 47.5312 240.532 47.7102 239.953 48.0682C239.373 48.4261 238.968 48.9205 238.738 49.5511L233.011 49.3466C233.369 48.1534 233.983 47.0881 234.852 46.1506C235.721 45.2045 236.825 44.4631 238.163 43.9261C239.51 43.3807 241.065 43.108 242.829 43.108C244.074 43.108 245.199 43.2571 246.204 43.5554C247.21 43.8452 248.058 44.2713 248.748 44.8338C249.447 45.3878 249.946 46.0696 250.244 46.8793C250.542 47.6889 250.606 48.6136 250.436 49.6534L248.199 63H242.318L242.778 60.2642H242.625C242.164 60.929 241.623 61.4915 241.001 61.9517C240.387 62.4119 239.697 62.7571 238.93 62.9872C238.163 63.2173 237.324 63.3324 236.412 63.3324ZM239.045 59.2415C239.701 59.2415 240.324 59.1051 240.912 58.8324C241.5 58.5597 241.994 58.1847 242.395 57.7074C242.804 57.2216 243.064 56.6591 243.174 56.0199L243.468 54.1534C243.289 54.2472 243.064 54.3324 242.791 54.4091C242.518 54.4858 242.228 54.5582 241.922 54.6264C241.615 54.6861 241.299 54.7457 240.975 54.8054C240.66 54.8565 240.358 54.9034 240.068 54.946C239.454 55.0398 238.922 55.1847 238.47 55.3807C238.018 55.5767 237.656 55.8324 237.383 56.1477C237.119 56.4545 236.957 56.821 236.897 57.2472C236.795 57.8864 236.944 58.3807 237.345 58.7301C237.745 59.071 238.312 59.2415 239.045 59.2415ZM260.177 51.8011L258.311 63H252.059L255.332 43.3636H261.277L260.689 46.9688H260.906C261.52 45.767 262.41 44.8253 263.578 44.1435C264.745 43.4531 266.058 43.108 267.515 43.108C268.887 43.108 270.034 43.4148 270.954 44.0284C271.875 44.642 272.527 45.5028 272.91 46.6108C273.294 47.7102 273.358 49.0014 273.102 50.4844L271.005 63H264.754L266.633 51.7116C266.821 50.6293 266.689 49.7812 266.237 49.1676C265.794 48.5455 265.069 48.2344 264.064 48.2344C263.407 48.2344 262.806 48.3793 262.261 48.669C261.724 48.9503 261.272 49.3551 260.906 49.8835C260.548 50.4119 260.305 51.0511 260.177 51.8011ZM294.205 49.3594L288.567 49.5128C288.576 49.0952 288.482 48.7287 288.286 48.4134C288.09 48.0895 287.813 47.8381 287.455 47.6591C287.097 47.4801 286.671 47.3906 286.177 47.3906C285.376 47.3906 284.656 47.5696 284.016 47.9276C283.386 48.2855 283.032 48.75 282.955 49.321C282.896 49.6278 282.981 49.8963 283.211 50.1264C283.441 50.348 283.952 50.544 284.745 50.7145L288.427 51.4304C290.319 51.8054 291.691 52.4574 292.543 53.3864C293.404 54.3068 293.711 55.5256 293.464 57.0426C293.242 58.3381 292.671 59.4588 291.751 60.4048C290.839 61.3509 289.675 62.0838 288.261 62.6037C286.854 63.1151 285.299 63.3707 283.594 63.3707C280.714 63.3707 278.54 62.7912 277.075 61.6321C275.617 60.4645 274.935 58.9176 275.029 56.9915L281.114 56.8381C281.14 57.5625 281.383 58.108 281.843 58.4744C282.312 58.8324 282.947 59.0199 283.748 59.0369C284.626 59.054 285.384 58.8707 286.023 58.4872C286.663 58.1037 287.021 57.6307 287.097 57.0682C287.148 56.7017 287.025 56.4162 286.727 56.2116C286.437 56.0071 285.896 55.8239 285.103 55.6619L281.779 55.0099C279.87 54.6435 278.489 53.9531 277.637 52.9389C276.793 51.9162 276.504 50.6122 276.768 49.027C276.989 47.7656 277.509 46.696 278.327 45.8182C279.154 44.9318 280.232 44.2585 281.562 43.7983C282.9 43.3381 284.425 43.108 286.138 43.108C288.883 43.108 290.954 43.6662 292.352 44.7827C293.758 45.8906 294.376 47.4162 294.205 49.3594ZM295.544 63L298.817 43.3636H305.069L301.796 63H295.544ZM302.384 41.0625C301.498 41.0625 300.777 40.7685 300.223 40.1804C299.669 39.5923 299.452 38.8892 299.571 38.071C299.691 37.2443 300.108 36.5412 300.824 35.9616C301.54 35.3821 302.337 35.0923 303.215 35.0923C304.101 35.0923 304.813 35.3821 305.35 35.9616C305.895 36.5412 306.108 37.2443 305.989 38.071C305.887 38.8892 305.478 39.5923 304.762 40.1804C304.054 40.7685 303.262 41.0625 302.384 41.0625ZM320.131 43.3636L319.352 47.9659H306.964L307.744 43.3636H320.131ZM311.106 38.6591H317.357L314.34 56.8253C314.281 57.2088 314.289 57.5199 314.366 57.7585C314.451 57.9886 314.604 58.1548 314.826 58.2571C315.056 58.3509 315.337 58.3977 315.67 58.3977C315.9 58.3977 316.156 58.3722 316.437 58.321C316.718 58.2699 316.931 58.2315 317.076 58.206L317.281 62.7188C316.948 62.8125 316.501 62.919 315.938 63.0384C315.384 63.1662 314.737 63.2472 313.995 63.2812C312.495 63.3409 311.255 63.1662 310.275 62.7571C309.303 62.3395 308.617 61.6918 308.217 60.8139C307.825 59.9361 307.748 58.8366 307.987 57.5156L311.106 38.6591ZM320.048 63L323.321 43.3636H329.572L326.3 63H320.048ZM326.888 41.0625C326.001 41.0625 325.281 40.7685 324.727 40.1804C324.173 39.5923 323.956 38.8892 324.075 38.071C324.195 37.2443 324.612 36.5412 325.328 35.9616C326.044 35.3821 326.841 35.0923 327.719 35.0923C328.605 35.0923 329.317 35.3821 329.854 35.9616C330.399 36.5412 330.612 37.2443 330.493 38.071C330.391 38.8892 329.982 39.5923 329.266 40.1804C328.558 40.7685 327.766 41.0625 326.888 41.0625ZM339.432 63.3707C337.361 63.3707 335.652 62.9446 334.306 62.0923C332.968 61.2401 332.026 60.0511 331.48 58.5256C330.935 57 330.828 55.2273 331.161 53.2074C331.493 51.196 332.179 49.4318 333.219 47.9148C334.259 46.3977 335.588 45.2173 337.208 44.3736C338.827 43.5298 340.664 43.108 342.718 43.108C344.78 43.108 346.48 43.5341 347.819 44.3864C349.165 45.2386 350.111 46.4276 350.657 47.9531C351.211 49.4787 351.321 51.2557 350.989 53.2841C350.657 55.2955 349.966 57.0597 348.918 58.5767C347.87 60.0852 346.54 61.2614 344.929 62.1051C343.319 62.9489 341.486 63.3707 339.432 63.3707ZM340.135 58.6534C340.902 58.6534 341.588 58.4233 342.194 57.9631C342.807 57.5028 343.323 56.8594 343.74 56.0327C344.158 55.206 344.456 54.2472 344.635 53.1562C344.814 52.0824 344.831 51.1406 344.686 50.331C344.55 49.5128 344.26 48.8778 343.817 48.4261C343.374 47.9659 342.773 47.7358 342.015 47.7358C341.248 47.7358 340.557 47.9702 339.944 48.4389C339.33 48.8991 338.814 49.5426 338.397 50.3693C337.988 51.1875 337.694 52.1463 337.515 53.2457C337.336 54.3196 337.314 55.2614 337.451 56.071C337.587 56.8807 337.881 57.5156 338.333 57.9759C338.784 58.4276 339.385 58.6534 340.135 58.6534ZM360.724 51.8011L358.858 63H352.606L355.879 43.3636H361.824L361.235 46.9688H361.453C362.066 45.767 362.957 44.8253 364.125 44.1435C365.292 43.4531 366.605 43.108 368.062 43.108C369.434 43.108 370.581 43.4148 371.501 44.0284C372.422 44.642 373.074 45.5028 373.457 46.6108C373.841 47.7102 373.904 49.0014 373.649 50.4844L371.552 63H365.301L367.18 51.7116C367.368 50.6293 367.235 49.7812 366.784 49.1676C366.341 48.5455 365.616 48.2344 364.61 48.2344C363.954 48.2344 363.353 48.3793 362.808 48.669C362.271 48.9503 361.819 49.3551 361.453 49.8835C361.095 50.4119 360.852 51.0511 360.724 51.8011ZM390.265 63.2812C388.816 63.2812 387.559 62.9062 386.494 62.1562C385.428 61.4062 384.665 60.2812 384.205 58.7812C383.754 57.2812 383.711 55.419 384.077 53.1946C384.461 50.8849 385.143 48.9844 386.123 47.4929C387.103 46.0014 388.245 44.8977 389.549 44.1818C390.862 43.4659 392.2 43.108 393.563 43.108C394.594 43.108 395.447 43.2869 396.12 43.6449C396.802 43.9943 397.335 44.446 397.718 45C398.102 45.554 398.366 46.1293 398.511 46.7259H398.651L400.3 36.8182H406.552L402.205 63H396.018L396.542 59.8168H396.35C395.984 60.4219 395.515 60.9886 394.944 61.517C394.373 62.0455 393.695 62.4716 392.911 62.7955C392.136 63.1193 391.254 63.2812 390.265 63.2812ZM393.218 58.4105C393.977 58.4105 394.663 58.1974 395.276 57.7713C395.89 57.3366 396.406 56.7273 396.823 55.9432C397.249 55.1591 397.548 54.2386 397.718 53.1818C397.897 52.108 397.906 51.1832 397.744 50.4077C397.582 49.6321 397.262 49.0355 396.785 48.6179C396.316 48.2003 395.698 47.9915 394.931 47.9915C394.164 47.9915 393.478 48.2045 392.873 48.6307C392.268 49.0568 391.765 49.6577 391.364 50.4332C390.964 51.2088 390.674 52.125 390.495 53.1818C390.325 54.2386 390.308 55.1591 390.444 55.9432C390.589 56.7273 390.891 57.3366 391.352 57.7713C391.82 58.1974 392.442 58.4105 393.218 58.4105ZM415.309 63.3707C413.255 63.3707 411.55 62.9659 410.195 62.1562C408.849 61.3381 407.903 60.1747 407.357 58.6662C406.812 57.1491 406.714 55.3466 407.063 53.2585C407.404 51.2301 408.099 49.4574 409.147 47.9403C410.204 46.4148 411.533 45.2301 413.136 44.3864C414.738 43.5341 416.523 43.108 418.492 43.108C419.89 43.108 421.13 43.3253 422.212 43.7599C423.295 44.1946 424.19 44.8423 424.897 45.7031C425.604 46.5554 426.086 47.6037 426.342 48.848C426.597 50.0923 426.589 51.5199 426.316 53.1307L426.073 54.6903H409.019L409.594 51.0597H420.844C420.947 50.3949 420.891 49.8026 420.678 49.2827C420.465 48.7628 420.12 48.358 419.643 48.0682C419.174 47.7699 418.599 47.6207 417.917 47.6207C417.227 47.6207 416.579 47.7827 415.974 48.1065C415.377 48.4219 414.87 48.848 414.452 49.3849C414.035 49.9219 413.762 50.527 413.634 51.2003L412.957 54.9205C412.82 55.7472 412.859 56.4545 413.072 57.0426C413.285 57.6307 413.651 58.0824 414.171 58.3977C414.691 58.7045 415.36 58.858 416.178 58.858C416.724 58.858 417.235 58.7855 417.712 58.6406C418.19 58.4872 418.616 58.2614 418.991 57.9631C419.374 57.6562 419.685 57.2855 419.924 56.8509L425.626 57.017C425.165 58.304 424.454 59.4247 423.491 60.3793C422.528 61.3253 421.352 62.0625 419.962 62.5909C418.582 63.1108 417.031 63.3707 415.309 63.3707ZM436.988 63.3707C434.917 63.3707 433.208 62.9446 431.861 62.0923C430.523 61.2401 429.586 60.0554 429.049 58.5384C428.512 57.0128 428.414 55.2486 428.755 53.2457C429.078 51.2344 429.765 49.4702 430.813 47.9531C431.861 46.4276 433.199 45.2386 434.827 44.3864C436.455 43.5341 438.296 43.108 440.35 43.108C442.165 43.108 443.691 43.4361 444.926 44.0923C446.171 44.7486 447.07 45.6776 447.624 46.8793C448.186 48.0724 448.353 49.4744 448.123 51.0852H442.28C442.331 50.0881 442.127 49.304 441.667 48.733C441.206 48.1534 440.537 47.8636 439.659 47.8636C438.918 47.8636 438.236 48.0682 437.614 48.4773C437 48.8778 436.476 49.4744 436.042 50.267C435.615 51.0511 435.309 52.0227 435.121 53.1818C434.934 54.3409 434.921 55.321 435.083 56.1222C435.253 56.9148 435.573 57.5156 436.042 57.9247C436.519 58.3253 437.124 58.5256 437.857 58.5256C438.436 58.5256 438.973 58.402 439.468 58.1548C439.962 57.9077 440.392 57.5455 440.759 57.0682C441.125 56.5824 441.411 55.9943 441.615 55.304H447.445C447.113 56.9318 446.469 58.3509 445.515 59.5611C444.569 60.7628 443.371 61.7003 441.922 62.3736C440.473 63.0384 438.828 63.3707 436.988 63.3707ZM459.951 36.8182L455.604 63H449.353L453.7 36.8182H459.951ZM465.068 63.3324C463.824 63.3324 462.75 63.1236 461.846 62.706C460.951 62.2798 460.295 61.6364 459.877 60.7756C459.468 59.9148 459.37 58.8409 459.583 57.554C459.771 56.4631 460.116 55.5469 460.619 54.8054C461.13 54.0554 461.757 53.446 462.498 52.9773C463.248 52.5085 464.083 52.1506 465.004 51.9034C465.924 51.6562 466.887 51.4901 467.893 51.4048C469.018 51.3026 469.93 51.1918 470.629 51.0724C471.336 50.9531 471.865 50.7869 472.214 50.5739C472.564 50.3523 472.777 50.0455 472.853 49.6534V49.5895C472.956 48.9332 472.815 48.4261 472.431 48.0682C472.048 47.7102 471.473 47.5312 470.706 47.5312C469.887 47.5312 469.189 47.7102 468.609 48.0682C468.029 48.4261 467.625 48.9205 467.395 49.5511L461.667 49.3466C462.025 48.1534 462.639 47.0881 463.508 46.1506C464.377 45.2045 465.481 44.4631 466.819 43.9261C468.166 43.3807 469.721 43.108 471.485 43.108C472.73 43.108 473.855 43.2571 474.86 43.5554C475.866 43.8452 476.714 44.2713 477.404 44.8338C478.103 45.3878 478.602 46.0696 478.9 46.8793C479.199 47.6889 479.262 48.6136 479.092 49.6534L476.855 63H470.974L471.434 60.2642H471.281C470.821 60.929 470.279 61.4915 469.657 61.9517C469.044 62.4119 468.353 62.7571 467.586 62.9872C466.819 63.2173 465.98 63.3324 465.068 63.3324ZM467.701 59.2415C468.358 59.2415 468.98 59.1051 469.568 58.8324C470.156 58.5597 470.65 58.1847 471.051 57.7074C471.46 57.2216 471.72 56.6591 471.831 56.0199L472.125 54.1534C471.946 54.2472 471.72 54.3324 471.447 54.4091C471.174 54.4858 470.885 54.5582 470.578 54.6264C470.271 54.6861 469.956 54.7457 469.632 54.8054C469.316 54.8565 469.014 54.9034 468.724 54.946C468.11 55.0398 467.578 55.1847 467.126 55.3807C466.674 55.5767 466.312 55.8324 466.039 56.1477C465.775 56.4545 465.613 56.821 465.554 57.2472C465.451 57.8864 465.6 58.3807 466.001 58.7301C466.402 59.071 466.968 59.2415 467.701 59.2415ZM480.677 63L483.95 43.3636H490.022L489.422 46.9432H489.626C490.197 45.6477 490.943 44.6847 491.863 44.054C492.784 43.4148 493.781 43.0952 494.855 43.0952C495.145 43.0952 495.434 43.1165 495.724 43.1591C496.022 43.1932 496.304 43.2443 496.568 43.3125L495.647 48.7585C495.358 48.6477 494.978 48.5668 494.51 48.5156C494.041 48.456 493.615 48.4261 493.231 48.4261C492.49 48.4261 491.799 48.5923 491.16 48.9247C490.529 49.2486 489.993 49.7045 489.549 50.2926C489.115 50.8722 488.829 51.554 488.693 52.3381L486.929 63H480.677ZM500.576 63.3324C499.331 63.3324 498.257 63.1236 497.354 62.706C496.459 62.2798 495.803 61.6364 495.385 60.7756C494.976 59.9148 494.878 58.8409 495.091 57.554C495.279 56.4631 495.624 55.5469 496.127 54.8054C496.638 54.0554 497.265 53.446 498.006 52.9773C498.756 52.5085 499.591 52.1506 500.512 51.9034C501.432 51.6562 502.395 51.4901 503.401 51.4048C504.526 51.3026 505.438 51.1918 506.137 51.0724C506.844 50.9531 507.373 50.7869 507.722 50.5739C508.071 50.3523 508.284 50.0455 508.361 49.6534V49.5895C508.463 48.9332 508.323 48.4261 507.939 48.0682C507.556 47.7102 506.98 47.5312 506.213 47.5312C505.395 47.5312 504.696 47.7102 504.117 48.0682C503.537 48.4261 503.132 48.9205 502.902 49.5511L497.175 49.3466C497.533 48.1534 498.147 47.0881 499.016 46.1506C499.885 45.2045 500.989 44.4631 502.327 43.9261C503.674 43.3807 505.229 43.108 506.993 43.108C508.238 43.108 509.363 43.2571 510.368 43.5554C511.374 43.8452 512.222 44.2713 512.912 44.8338C513.611 45.3878 514.11 46.0696 514.408 46.8793C514.706 47.6889 514.77 48.6136 514.6 49.6534L512.363 63H506.482L506.942 60.2642H506.789C506.328 60.929 505.787 61.4915 505.165 61.9517C504.551 62.4119 503.861 62.7571 503.094 62.9872C502.327 63.2173 501.488 63.3324 500.576 63.3324ZM503.209 59.2415C503.865 59.2415 504.488 59.1051 505.076 58.8324C505.664 58.5597 506.158 58.1847 506.559 57.7074C506.968 57.2216 507.228 56.6591 507.338 56.0199L507.632 54.1534C507.453 54.2472 507.228 54.3324 506.955 54.4091C506.682 54.4858 506.392 54.5582 506.086 54.6264C505.779 54.6861 505.463 54.7457 505.14 54.8054C504.824 54.8565 504.522 54.9034 504.232 54.946C503.618 55.0398 503.086 55.1847 502.634 55.3807C502.182 55.5767 501.82 55.8324 501.547 56.1477C501.283 56.4545 501.121 56.821 501.061 57.2472C500.959 57.8864 501.108 58.3807 501.509 58.7301C501.909 59.071 502.476 59.2415 503.209 59.2415ZM530.542 43.3636L529.762 47.9659H517.374L518.154 43.3636H530.542ZM521.516 38.6591H527.767L524.75 56.8253C524.691 57.2088 524.699 57.5199 524.776 57.7585C524.861 57.9886 525.015 58.1548 525.236 58.2571C525.466 58.3509 525.748 58.3977 526.08 58.3977C526.31 58.3977 526.566 58.3722 526.847 58.321C527.128 58.2699 527.341 58.2315 527.486 58.206L527.691 62.7188C527.358 62.8125 526.911 62.919 526.348 63.0384C525.794 63.1662 525.147 63.2472 524.405 63.2812C522.905 63.3409 521.665 63.1662 520.685 62.7571C519.713 62.3395 519.027 61.6918 518.627 60.8139C518.235 59.9361 518.158 58.8366 518.397 57.5156L521.516 38.6591ZM530.458 63L533.731 43.3636H539.983L536.71 63H530.458ZM537.298 41.0625C536.412 41.0625 535.691 40.7685 535.137 40.1804C534.583 39.5923 534.366 38.8892 534.485 38.071C534.605 37.2443 535.022 36.5412 535.738 35.9616C536.454 35.3821 537.251 35.0923 538.129 35.0923C539.015 35.0923 539.727 35.3821 540.264 35.9616C540.809 36.5412 541.022 37.2443 540.903 38.071C540.801 38.8892 540.392 39.5923 539.676 40.1804C538.968 40.7685 538.176 41.0625 537.298 41.0625ZM549.842 63.3707C547.771 63.3707 546.063 62.9446 544.716 62.0923C543.378 61.2401 542.436 60.0511 541.891 58.5256C541.345 57 541.239 55.2273 541.571 53.2074C541.903 51.196 542.589 49.4318 543.629 47.9148C544.669 46.3977 545.999 45.2173 547.618 44.3736C549.237 43.5298 551.074 43.108 553.128 43.108C555.19 43.108 556.891 43.5341 558.229 44.3864C559.575 45.2386 560.521 46.4276 561.067 47.9531C561.621 49.4787 561.732 51.2557 561.399 53.2841C561.067 55.2955 560.376 57.0597 559.328 58.5767C558.28 60.0852 556.95 61.2614 555.339 62.1051C553.729 62.9489 551.896 63.3707 549.842 63.3707ZM550.545 58.6534C551.312 58.6534 551.999 58.4233 552.604 57.9631C553.217 57.5028 553.733 56.8594 554.151 56.0327C554.568 55.206 554.866 54.2472 555.045 53.1562C555.224 52.0824 555.241 51.1406 555.097 50.331C554.96 49.5128 554.67 48.8778 554.227 48.4261C553.784 47.9659 553.183 47.7358 552.425 47.7358C551.658 47.7358 550.967 47.9702 550.354 48.4389C549.74 48.8991 549.224 49.5426 548.807 50.3693C548.398 51.1875 548.104 52.1463 547.925 53.2457C547.746 54.3196 547.724 55.2614 547.861 56.071C547.997 56.8807 548.291 57.5156 548.743 57.9759C549.195 58.4276 549.795 58.6534 550.545 58.6534ZM571.134 51.8011L569.268 63H563.016L566.289 43.3636H572.234L571.646 46.9688H571.863C572.477 45.767 573.367 44.8253 574.535 44.1435C575.702 43.4531 577.015 43.108 578.472 43.108C579.844 43.108 580.991 43.4148 581.911 44.0284C582.832 44.642 583.484 45.5028 583.867 46.6108C584.251 47.7102 584.315 49.0014 584.059 50.4844L581.962 63H575.711L577.59 51.7116C577.778 50.6293 577.646 49.7812 577.194 49.1676C576.751 48.5455 576.026 48.2344 575.021 48.2344C574.364 48.2344 573.763 48.3793 573.218 48.669C572.681 48.9503 572.229 49.3551 571.863 49.8835C571.505 50.4119 571.262 51.0511 571.134 51.8011ZM605.162 49.3594L599.525 49.5128C599.533 49.0952 599.439 48.7287 599.243 48.4134C599.047 48.0895 598.77 47.8381 598.412 47.6591C598.054 47.4801 597.628 47.3906 597.134 47.3906C596.333 47.3906 595.613 47.5696 594.973 47.9276C594.343 48.2855 593.989 48.75 593.912 49.321C593.853 49.6278 593.938 49.8963 594.168 50.1264C594.398 50.348 594.909 50.544 595.702 50.7145L599.384 51.4304C601.276 51.8054 602.648 52.4574 603.5 53.3864C604.361 54.3068 604.668 55.5256 604.421 57.0426C604.199 58.3381 603.628 59.4588 602.708 60.4048C601.796 61.3509 600.632 62.0838 599.218 62.6037C597.811 63.1151 596.256 63.3707 594.551 63.3707C591.671 63.3707 589.498 62.7912 588.032 61.6321C586.574 60.4645 585.892 58.9176 585.986 56.9915L592.071 56.8381C592.097 57.5625 592.34 58.108 592.8 58.4744C593.269 58.8324 593.904 59.0199 594.705 59.0369C595.583 59.054 596.341 58.8707 596.98 58.4872C597.62 58.1037 597.978 57.6307 598.054 57.0682C598.105 56.7017 597.982 56.4162 597.684 56.2116C597.394 56.0071 596.853 55.8239 596.06 55.6619L592.736 55.0099C590.827 54.6435 589.446 53.9531 588.594 52.9389C587.75 51.9162 587.461 50.6122 587.725 49.027C587.946 47.7656 588.466 46.696 589.284 45.8182C590.111 44.9318 591.189 44.2585 592.519 43.7983C593.857 43.3381 595.382 43.108 597.096 43.108C599.84 43.108 601.911 43.6662 603.309 44.7827C604.715 45.8906 605.333 47.4162 605.162 49.3594Z" fill="black"/>
<rect y="400" width="800" height="100" fill="#DDDDDD"/>
<path d="M198.024 463H191.223L204.403 436.818H212.828L217.315 463H210.514L207.638 443.415H207.433L198.024 463ZM198.842 452.696H213.058L212.24 457.503H198.024L198.842 452.696ZM228.29 451.801L226.424 463H220.173L223.445 443.364H229.39L228.802 446.969H229.019C229.633 445.767 230.523 444.825 231.691 444.143C232.859 443.453 234.171 443.108 235.629 443.108C237.001 443.108 238.147 443.415 239.067 444.028C239.988 444.642 240.64 445.503 241.023 446.611C241.407 447.71 241.471 449.001 241.215 450.484L239.119 463H232.867L234.746 451.712C234.934 450.629 234.802 449.781 234.35 449.168C233.907 448.545 233.183 448.234 232.177 448.234C231.521 448.234 230.92 448.379 230.374 448.669C229.837 448.95 229.386 449.355 229.019 449.884C228.661 450.412 228.418 451.051 228.29 451.801ZM242.951 463L246.223 443.364H252.475L249.202 463H242.951ZM249.79 441.062C248.904 441.062 248.184 440.768 247.63 440.18C247.076 439.592 246.858 438.889 246.978 438.071C247.097 437.244 247.515 436.541 248.23 435.962C248.946 435.382 249.743 435.092 250.621 435.092C251.507 435.092 252.219 435.382 252.756 435.962C253.301 436.541 253.515 437.244 253.395 438.071C253.293 438.889 252.884 439.592 252.168 440.18C251.461 440.768 250.668 441.062 249.79 441.062ZM253.219 463L256.492 443.364H262.437L261.849 446.969H262.066C262.663 445.776 263.506 444.834 264.597 444.143C265.688 443.453 266.907 443.108 268.254 443.108C269.609 443.108 270.712 443.457 271.565 444.156C272.425 444.855 272.89 445.793 272.958 446.969H273.163C273.725 445.801 274.594 444.868 275.771 444.169C276.955 443.462 278.276 443.108 279.734 443.108C281.575 443.108 282.977 443.705 283.94 444.898C284.911 446.082 285.222 447.71 284.873 449.781L282.674 463H276.435L278.43 451.213C278.566 450.233 278.421 449.487 277.995 448.976C277.577 448.456 276.968 448.196 276.167 448.196C275.306 448.196 274.586 448.473 274.006 449.027C273.435 449.581 273.082 450.331 272.945 451.277L270.964 463H264.942L266.95 451.149C267.077 450.237 266.937 449.517 266.528 448.989C266.127 448.46 265.518 448.196 264.7 448.196C264.163 448.196 263.664 448.328 263.204 448.592C262.744 448.848 262.356 449.214 262.04 449.692C261.734 450.169 261.533 450.732 261.44 451.379L259.471 463H253.219ZM291.994 463.332C290.749 463.332 289.675 463.124 288.772 462.706C287.877 462.28 287.221 461.636 286.803 460.776C286.394 459.915 286.296 458.841 286.509 457.554C286.697 456.463 287.042 455.547 287.545 454.805C288.056 454.055 288.683 453.446 289.424 452.977C290.174 452.509 291.009 452.151 291.93 451.903C292.85 451.656 293.813 451.49 294.819 451.405C295.944 451.303 296.856 451.192 297.555 451.072C298.262 450.953 298.79 450.787 299.14 450.574C299.489 450.352 299.702 450.045 299.779 449.653V449.589C299.881 448.933 299.741 448.426 299.357 448.068C298.974 447.71 298.398 447.531 297.631 447.531C296.813 447.531 296.114 447.71 295.535 448.068C294.955 448.426 294.55 448.92 294.32 449.551L288.593 449.347C288.951 448.153 289.565 447.088 290.434 446.151C291.303 445.205 292.407 444.463 293.745 443.926C295.092 443.381 296.647 443.108 298.411 443.108C299.656 443.108 300.781 443.257 301.786 443.555C302.792 443.845 303.64 444.271 304.33 444.834C305.029 445.388 305.528 446.07 305.826 446.879C306.124 447.689 306.188 448.614 306.018 449.653L303.781 463H297.9L298.36 460.264H298.207C297.746 460.929 297.205 461.491 296.583 461.952C295.969 462.412 295.279 462.757 294.512 462.987C293.745 463.217 292.906 463.332 291.994 463.332ZM294.627 459.241C295.283 459.241 295.906 459.105 296.494 458.832C297.082 458.56 297.576 458.185 297.977 457.707C298.386 457.222 298.646 456.659 298.756 456.02L299.05 454.153C298.871 454.247 298.646 454.332 298.373 454.409C298.1 454.486 297.81 454.558 297.504 454.626C297.197 454.686 296.881 454.746 296.558 454.805C296.242 454.857 295.94 454.903 295.65 454.946C295.036 455.04 294.504 455.185 294.052 455.381C293.6 455.577 293.238 455.832 292.965 456.148C292.701 456.455 292.539 456.821 292.479 457.247C292.377 457.886 292.526 458.381 292.927 458.73C293.327 459.071 293.894 459.241 294.627 459.241ZM321.96 443.364L321.18 447.966H308.792L309.572 443.364H321.96ZM312.934 438.659H319.185L316.168 456.825C316.109 457.209 316.117 457.52 316.194 457.759C316.279 457.989 316.433 458.155 316.654 458.257C316.884 458.351 317.165 458.398 317.498 458.398C317.728 458.398 317.984 458.372 318.265 458.321C318.546 458.27 318.759 458.232 318.904 458.206L319.109 462.719C318.776 462.812 318.329 462.919 317.766 463.038C317.212 463.166 316.565 463.247 315.823 463.281C314.323 463.341 313.083 463.166 312.103 462.757C311.131 462.339 310.445 461.692 310.045 460.814C309.653 459.936 309.576 458.837 309.815 457.516L312.934 438.659ZM321.876 463L325.149 443.364H331.401L328.128 463H321.876ZM328.716 441.062C327.83 441.062 327.109 440.768 326.555 440.18C326.001 439.592 325.784 438.889 325.903 438.071C326.023 437.244 326.44 436.541 327.156 435.962C327.872 435.382 328.669 435.092 329.547 435.092C330.433 435.092 331.145 435.382 331.682 435.962C332.227 436.541 332.44 437.244 332.321 438.071C332.219 438.889 331.81 439.592 331.094 440.18C330.386 440.768 329.594 441.062 328.716 441.062ZM341.26 463.371C339.189 463.371 337.48 462.945 336.134 462.092C334.796 461.24 333.854 460.051 333.309 458.526C332.763 457 332.657 455.227 332.989 453.207C333.321 451.196 334.007 449.432 335.047 447.915C336.087 446.398 337.417 445.217 339.036 444.374C340.655 443.53 342.492 443.108 344.546 443.108C346.608 443.108 348.309 443.534 349.647 444.386C350.993 445.239 351.939 446.428 352.485 447.953C353.039 449.479 353.15 451.256 352.817 453.284C352.485 455.295 351.794 457.06 350.746 458.577C349.698 460.085 348.368 461.261 346.757 462.105C345.147 462.949 343.314 463.371 341.26 463.371ZM341.963 458.653C342.73 458.653 343.417 458.423 344.022 457.963C344.635 457.503 345.151 456.859 345.569 456.033C345.986 455.206 346.284 454.247 346.463 453.156C346.642 452.082 346.659 451.141 346.515 450.331C346.378 449.513 346.088 448.878 345.645 448.426C345.202 447.966 344.601 447.736 343.843 447.736C343.076 447.736 342.385 447.97 341.772 448.439C341.158 448.899 340.642 449.543 340.225 450.369C339.816 451.187 339.522 452.146 339.343 453.246C339.164 454.32 339.142 455.261 339.279 456.071C339.415 456.881 339.709 457.516 340.161 457.976C340.613 458.428 341.213 458.653 341.963 458.653ZM362.552 451.801L360.686 463H354.434L357.707 443.364H363.652L363.064 446.969H363.281C363.895 445.767 364.785 444.825 365.953 444.143C367.12 443.453 368.433 443.108 369.89 443.108C371.262 443.108 372.409 443.415 373.329 444.028C374.25 444.642 374.902 445.503 375.285 446.611C375.669 447.71 375.733 449.001 375.477 450.484L373.38 463H367.129L369.008 451.712C369.196 450.629 369.064 449.781 368.612 449.168C368.169 448.545 367.444 448.234 366.439 448.234C365.782 448.234 365.181 448.379 364.636 448.669C364.099 448.95 363.647 449.355 363.281 449.884C362.923 450.412 362.68 451.051 362.552 451.801ZM392.093 463.281C390.644 463.281 389.387 462.906 388.322 462.156C387.256 461.406 386.494 460.281 386.033 458.781C385.582 457.281 385.539 455.419 385.906 453.195C386.289 450.885 386.971 448.984 387.951 447.493C388.931 446.001 390.073 444.898 391.377 444.182C392.69 443.466 394.028 443.108 395.391 443.108C396.423 443.108 397.275 443.287 397.948 443.645C398.63 443.994 399.163 444.446 399.546 445C399.93 445.554 400.194 446.129 400.339 446.726H400.479L402.129 436.818H408.38L404.033 463H397.846L398.37 459.817H398.178C397.812 460.422 397.343 460.989 396.772 461.517C396.201 462.045 395.523 462.472 394.739 462.795C393.964 463.119 393.082 463.281 392.093 463.281ZM395.046 458.411C395.805 458.411 396.491 458.197 397.104 457.771C397.718 457.337 398.234 456.727 398.651 455.943C399.077 455.159 399.376 454.239 399.546 453.182C399.725 452.108 399.734 451.183 399.572 450.408C399.41 449.632 399.09 449.036 398.613 448.618C398.144 448.2 397.526 447.991 396.759 447.991C395.992 447.991 395.306 448.205 394.701 448.631C394.096 449.057 393.593 449.658 393.192 450.433C392.792 451.209 392.502 452.125 392.323 453.182C392.153 454.239 392.136 455.159 392.272 455.943C392.417 456.727 392.719 457.337 393.18 457.771C393.648 458.197 394.271 458.411 395.046 458.411ZM417.137 463.371C415.083 463.371 413.379 462.966 412.023 462.156C410.677 461.338 409.731 460.175 409.185 458.666C408.64 457.149 408.542 455.347 408.891 453.259C409.232 451.23 409.927 449.457 410.975 447.94C412.032 446.415 413.362 445.23 414.964 444.386C416.566 443.534 418.352 443.108 420.32 443.108C421.718 443.108 422.958 443.325 424.04 443.76C425.123 444.195 426.018 444.842 426.725 445.703C427.433 446.555 427.914 447.604 428.17 448.848C428.425 450.092 428.417 451.52 428.144 453.131L427.901 454.69H410.847L411.423 451.06H422.673C422.775 450.395 422.719 449.803 422.506 449.283C422.293 448.763 421.948 448.358 421.471 448.068C421.002 447.77 420.427 447.621 419.745 447.621C419.055 447.621 418.407 447.783 417.802 448.107C417.205 448.422 416.698 448.848 416.281 449.385C415.863 449.922 415.59 450.527 415.462 451.2L414.785 454.92C414.648 455.747 414.687 456.455 414.9 457.043C415.113 457.631 415.479 458.082 415.999 458.398C416.519 458.705 417.188 458.858 418.006 458.858C418.552 458.858 419.063 458.786 419.54 458.641C420.018 458.487 420.444 458.261 420.819 457.963C421.202 457.656 421.513 457.286 421.752 456.851L427.454 457.017C426.994 458.304 426.282 459.425 425.319 460.379C424.356 461.325 423.18 462.062 421.79 462.591C420.41 463.111 418.859 463.371 417.137 463.371ZM438.816 463.371C436.745 463.371 435.036 462.945 433.689 462.092C432.351 461.24 431.414 460.055 430.877 458.538C430.34 457.013 430.242 455.249 430.583 453.246C430.907 451.234 431.593 449.47 432.641 447.953C433.689 446.428 435.027 445.239 436.655 444.386C438.283 443.534 440.124 443.108 442.178 443.108C443.993 443.108 445.519 443.436 446.755 444.092C447.999 444.749 448.898 445.678 449.452 446.879C450.015 448.072 450.181 449.474 449.951 451.085H444.108C444.159 450.088 443.955 449.304 443.495 448.733C443.034 448.153 442.365 447.864 441.488 447.864C440.746 447.864 440.064 448.068 439.442 448.477C438.828 448.878 438.304 449.474 437.87 450.267C437.444 451.051 437.137 452.023 436.949 453.182C436.762 454.341 436.749 455.321 436.911 456.122C437.081 456.915 437.401 457.516 437.87 457.925C438.347 458.325 438.952 458.526 439.685 458.526C440.265 458.526 440.801 458.402 441.296 458.155C441.79 457.908 442.221 457.545 442.587 457.068C442.953 456.582 443.239 455.994 443.444 455.304H449.273C448.941 456.932 448.297 458.351 447.343 459.561C446.397 460.763 445.199 461.7 443.75 462.374C442.301 463.038 440.657 463.371 438.816 463.371ZM461.779 436.818L457.433 463H451.181L455.528 436.818H461.779ZM466.896 463.332C465.652 463.332 464.578 463.124 463.674 462.706C462.779 462.28 462.123 461.636 461.706 460.776C461.297 459.915 461.199 458.841 461.412 457.554C461.599 456.463 461.944 455.547 462.447 454.805C462.958 454.055 463.585 453.446 464.326 452.977C465.076 452.509 465.912 452.151 466.832 451.903C467.752 451.656 468.716 451.49 469.721 451.405C470.846 451.303 471.758 451.192 472.457 451.072C473.164 450.953 473.693 450.787 474.042 450.574C474.392 450.352 474.605 450.045 474.681 449.653V449.589C474.784 448.933 474.643 448.426 474.26 448.068C473.876 447.71 473.301 447.531 472.534 447.531C471.716 447.531 471.017 447.71 470.437 448.068C469.858 448.426 469.453 448.92 469.223 449.551L463.495 449.347C463.853 448.153 464.467 447.088 465.336 446.151C466.206 445.205 467.309 444.463 468.647 443.926C469.994 443.381 471.549 443.108 473.314 443.108C474.558 443.108 475.683 443.257 476.689 443.555C477.694 443.845 478.542 444.271 479.233 444.834C479.931 445.388 480.43 446.07 480.728 446.879C481.027 447.689 481.091 448.614 480.92 449.653L478.683 463H472.802L473.262 460.264H473.109C472.649 460.929 472.108 461.491 471.485 461.952C470.872 462.412 470.181 462.757 469.414 462.987C468.647 463.217 467.808 463.332 466.896 463.332ZM469.529 459.241C470.186 459.241 470.808 459.105 471.396 458.832C471.984 458.56 472.478 458.185 472.879 457.707C473.288 457.222 473.548 456.659 473.659 456.02L473.953 454.153C473.774 454.247 473.548 454.332 473.275 454.409C473.002 454.486 472.713 454.558 472.406 454.626C472.099 454.686 471.784 454.746 471.46 454.805C471.145 454.857 470.842 454.903 470.552 454.946C469.939 455.04 469.406 455.185 468.954 455.381C468.502 455.577 468.14 455.832 467.868 456.148C467.603 456.455 467.441 456.821 467.382 457.247C467.279 457.886 467.429 458.381 467.829 458.73C468.23 459.071 468.797 459.241 469.529 459.241ZM482.505 463L485.778 443.364H491.85L491.25 446.943H491.454C492.025 445.648 492.771 444.685 493.691 444.054C494.612 443.415 495.609 443.095 496.683 443.095C496.973 443.095 497.262 443.116 497.552 443.159C497.85 443.193 498.132 443.244 498.396 443.312L497.475 448.759C497.186 448.648 496.806 448.567 496.338 448.516C495.869 448.456 495.443 448.426 495.059 448.426C494.318 448.426 493.627 448.592 492.988 448.925C492.358 449.249 491.821 449.705 491.377 450.293C490.943 450.872 490.657 451.554 490.521 452.338L488.757 463H482.505ZM502.404 463.332C501.159 463.332 500.086 463.124 499.182 462.706C498.287 462.28 497.631 461.636 497.213 460.776C496.804 459.915 496.706 458.841 496.919 457.554C497.107 456.463 497.452 455.547 497.955 454.805C498.466 454.055 499.093 453.446 499.834 452.977C500.584 452.509 501.419 452.151 502.34 451.903C503.26 451.656 504.223 451.49 505.229 451.405C506.354 451.303 507.266 451.192 507.965 451.072C508.672 450.953 509.201 450.787 509.55 450.574C509.9 450.352 510.113 450.045 510.189 449.653V449.589C510.292 448.933 510.151 448.426 509.767 448.068C509.384 447.71 508.809 447.531 508.042 447.531C507.223 447.531 506.525 447.71 505.945 448.068C505.365 448.426 504.961 448.92 504.73 449.551L499.003 449.347C499.361 448.153 499.975 447.088 500.844 446.151C501.713 445.205 502.817 444.463 504.155 443.926C505.502 443.381 507.057 443.108 508.821 443.108C510.066 443.108 511.191 443.257 512.196 443.555C513.202 443.845 514.05 444.271 514.74 444.834C515.439 445.388 515.938 446.07 516.236 446.879C516.534 447.689 516.598 448.614 516.428 449.653L514.191 463H508.31L508.77 460.264H508.617C508.157 460.929 507.615 461.491 506.993 461.952C506.38 462.412 505.689 462.757 504.922 462.987C504.155 463.217 503.316 463.332 502.404 463.332ZM505.037 459.241C505.694 459.241 506.316 459.105 506.904 458.832C507.492 458.56 507.986 458.185 508.387 457.707C508.796 457.222 509.056 456.659 509.167 456.02L509.461 454.153C509.282 454.247 509.056 454.332 508.783 454.409C508.51 454.486 508.221 454.558 507.914 454.626C507.607 454.686 507.292 454.746 506.968 454.805C506.652 454.857 506.35 454.903 506.06 454.946C505.446 455.04 504.914 455.185 504.462 455.381C504.01 455.577 503.648 455.832 503.375 456.148C503.111 456.455 502.949 456.821 502.89 457.247C502.787 457.886 502.936 458.381 503.337 458.73C503.738 459.071 504.304 459.241 505.037 459.241ZM532.37 443.364L531.59 447.966H519.202L519.982 443.364H532.37ZM523.344 438.659H529.596L526.578 456.825C526.519 457.209 526.527 457.52 526.604 457.759C526.689 457.989 526.843 458.155 527.064 458.257C527.294 458.351 527.576 458.398 527.908 458.398C528.138 458.398 528.394 458.372 528.675 458.321C528.956 458.27 529.169 458.232 529.314 458.206L529.519 462.719C529.186 462.812 528.739 462.919 528.176 463.038C527.623 463.166 526.975 463.247 526.233 463.281C524.733 463.341 523.493 463.166 522.513 462.757C521.542 462.339 520.855 461.692 520.455 460.814C520.063 459.936 519.986 458.837 520.225 457.516L523.344 438.659ZM532.287 463L535.559 443.364H541.811L538.538 463H532.287ZM539.126 441.062C538.24 441.062 537.52 440.768 536.966 440.18C536.412 439.592 536.194 438.889 536.314 438.071C536.433 437.244 536.85 436.541 537.566 435.962C538.282 435.382 539.079 435.092 539.957 435.092C540.843 435.092 541.555 435.382 542.092 435.962C542.637 436.541 542.85 437.244 542.731 438.071C542.629 438.889 542.22 439.592 541.504 440.18C540.797 440.768 540.004 441.062 539.126 441.062ZM551.67 463.371C549.599 463.371 547.891 462.945 546.544 462.092C545.206 461.24 544.264 460.051 543.719 458.526C543.173 457 543.067 455.227 543.399 453.207C543.732 451.196 544.418 449.432 545.457 447.915C546.497 446.398 547.827 445.217 549.446 444.374C551.065 443.53 552.902 443.108 554.956 443.108C557.018 443.108 558.719 443.534 560.057 444.386C561.403 445.239 562.349 446.428 562.895 447.953C563.449 449.479 563.56 451.256 563.227 453.284C562.895 455.295 562.205 457.06 561.156 458.577C560.108 460.085 558.778 461.261 557.168 462.105C555.557 462.949 553.724 463.371 551.67 463.371ZM552.374 458.653C553.141 458.653 553.827 458.423 554.432 457.963C555.045 457.503 555.561 456.859 555.979 456.033C556.396 455.206 556.695 454.247 556.874 453.156C557.053 452.082 557.07 451.141 556.925 450.331C556.788 449.513 556.499 448.878 556.055 448.426C555.612 447.966 555.011 447.736 554.253 447.736C553.486 447.736 552.795 447.97 552.182 448.439C551.568 448.899 551.053 449.543 550.635 450.369C550.226 451.187 549.932 452.146 549.753 453.246C549.574 454.32 549.553 455.261 549.689 456.071C549.825 456.881 550.119 457.516 550.571 457.976C551.023 458.428 551.624 458.653 552.374 458.653ZM572.962 451.801L571.096 463H564.844L568.117 443.364H574.062L573.474 446.969H573.691C574.305 445.767 575.195 444.825 576.363 444.143C577.531 443.453 578.843 443.108 580.3 443.108C581.673 443.108 582.819 443.415 583.739 444.028C584.66 444.642 585.312 445.503 585.695 446.611C586.079 447.71 586.143 449.001 585.887 450.484L583.79 463H577.539L579.418 451.712C579.606 450.629 579.474 449.781 579.022 449.168C578.579 448.545 577.854 448.234 576.849 448.234C576.192 448.234 575.592 448.379 575.046 448.669C574.509 448.95 574.058 449.355 573.691 449.884C573.333 450.412 573.09 451.051 572.962 451.801ZM606.99 449.359L601.353 449.513C601.361 449.095 601.267 448.729 601.071 448.413C600.875 448.089 600.598 447.838 600.24 447.659C599.882 447.48 599.456 447.391 598.962 447.391C598.161 447.391 597.441 447.57 596.801 447.928C596.171 448.286 595.817 448.75 595.74 449.321C595.681 449.628 595.766 449.896 595.996 450.126C596.226 450.348 596.738 450.544 597.53 450.714L601.212 451.43C603.104 451.805 604.476 452.457 605.328 453.386C606.189 454.307 606.496 455.526 606.249 457.043C606.027 458.338 605.456 459.459 604.536 460.405C603.624 461.351 602.461 462.084 601.046 462.604C599.64 463.115 598.084 463.371 596.38 463.371C593.499 463.371 591.326 462.791 589.86 461.632C588.402 460.464 587.721 458.918 587.814 456.991L593.9 456.838C593.925 457.562 594.168 458.108 594.628 458.474C595.097 458.832 595.732 459.02 596.533 459.037C597.411 459.054 598.169 458.871 598.809 458.487C599.448 458.104 599.806 457.631 599.882 457.068C599.934 456.702 599.81 456.416 599.512 456.212C599.222 456.007 598.681 455.824 597.888 455.662L594.564 455.01C592.655 454.643 591.275 453.953 590.422 452.939C589.578 451.916 589.289 450.612 589.553 449.027C589.775 447.766 590.294 446.696 591.113 445.818C591.939 444.932 593.017 444.259 594.347 443.798C595.685 443.338 597.211 443.108 598.924 443.108C601.668 443.108 603.739 443.666 605.137 444.783C606.543 445.891 607.161 447.416 606.99 449.359Z" fill="black"/>
<rect y="600" width="800" height="100" fill="#DDDDDD"/>
<path d="M374.432 654.524V643.364H380.67V663H374.713V659.344H374.509C374.074 660.545 373.332 661.5 372.284 662.207C371.244 662.906 369.987 663.256 368.513 663.256C367.175 663.256 365.999 662.949 364.984 662.335C363.97 661.722 363.182 660.865 362.619 659.766C362.057 658.658 361.771 657.362 361.763 655.879V643.364H368.014V654.652C368.023 655.717 368.304 656.557 368.858 657.17C369.412 657.784 370.166 658.091 371.121 658.091C371.743 658.091 372.301 657.955 372.795 657.682C373.298 657.401 373.695 656.996 373.984 656.467C374.283 655.93 374.432 655.283 374.432 654.524ZM401.793 649.359L396.053 649.513C395.993 649.104 395.831 648.741 395.567 648.426C395.303 648.102 394.958 647.851 394.532 647.672C394.114 647.484 393.628 647.391 393.074 647.391C392.35 647.391 391.732 647.536 391.221 647.825C390.718 648.115 390.471 648.507 390.479 649.001C390.471 649.385 390.624 649.717 390.939 649.999C391.263 650.28 391.838 650.506 392.665 650.676L396.449 651.392C398.409 651.767 399.867 652.389 400.821 653.259C401.784 654.128 402.27 655.278 402.279 656.71C402.27 658.057 401.87 659.229 401.077 660.226C400.293 661.223 399.219 661.999 397.855 662.553C396.492 663.098 394.932 663.371 393.176 663.371C390.373 663.371 388.161 662.795 386.542 661.645C384.931 660.486 384.01 658.935 383.78 656.991L389.955 656.838C390.091 657.554 390.445 658.099 391.016 658.474C391.587 658.849 392.316 659.037 393.202 659.037C394.003 659.037 394.655 658.888 395.158 658.589C395.661 658.291 395.917 657.895 395.925 657.401C395.917 656.957 395.721 656.604 395.337 656.339C394.953 656.067 394.353 655.854 393.534 655.7L390.108 655.048C388.14 654.69 386.674 654.03 385.711 653.067C384.748 652.095 384.27 650.859 384.279 649.359C384.27 648.047 384.62 646.926 385.327 645.997C386.034 645.06 387.04 644.344 388.344 643.849C389.648 643.355 391.186 643.108 392.959 643.108C395.618 643.108 397.715 643.666 399.249 644.783C400.783 645.891 401.631 647.416 401.793 649.359ZM414.536 663.371C412.482 663.371 410.709 662.966 409.217 662.156C407.734 661.338 406.592 660.175 405.791 658.666C404.999 657.149 404.602 655.347 404.602 653.259C404.602 651.23 405.003 649.457 405.804 647.94C406.605 646.415 407.734 645.23 409.192 644.386C410.649 643.534 412.366 643.108 414.344 643.108C415.741 643.108 417.02 643.325 418.179 643.76C419.338 644.195 420.339 644.838 421.183 645.69C422.027 646.543 422.683 647.595 423.152 648.848C423.621 650.092 423.855 651.52 423.855 653.131V654.69H406.788V651.06H418.038C418.03 650.395 417.872 649.803 417.565 649.283C417.259 648.763 416.837 648.358 416.3 648.068C415.771 647.77 415.162 647.621 414.472 647.621C413.773 647.621 413.146 647.778 412.592 648.094C412.038 648.401 411.599 648.822 411.276 649.359C410.952 649.888 410.781 650.489 410.764 651.162V654.857C410.764 655.658 410.922 656.361 411.237 656.966C411.553 657.562 412 658.027 412.58 658.359C413.159 658.692 413.849 658.858 414.651 658.858C415.205 658.858 415.707 658.781 416.159 658.628C416.611 658.474 416.999 658.249 417.322 657.95C417.646 657.652 417.889 657.286 418.051 656.851L423.791 657.017C423.553 658.304 423.028 659.425 422.219 660.379C421.418 661.325 420.365 662.062 419.061 662.591C417.757 663.111 416.249 663.371 414.536 663.371ZM427.048 663V643.364H433.12V646.943H433.325C433.683 645.648 434.267 644.685 435.076 644.054C435.886 643.415 436.828 643.095 437.902 643.095C438.191 643.095 438.49 643.116 438.797 643.159C439.103 643.193 439.389 643.249 439.653 643.325V648.759C439.355 648.656 438.963 648.575 438.477 648.516C438 648.456 437.574 648.426 437.199 648.426C436.457 648.426 435.788 648.592 435.191 648.925C434.603 649.249 434.139 649.705 433.798 650.293C433.466 650.872 433.299 651.554 433.299 652.338V663H427.048Z" fill="black"/>
</svg>
