<svg width="1089" height="565" viewBox="0 0 1089 565" fill="none" xmlns="http://www.w3.org/2000/svg">
<g opacity="0.33">
<rect x="208" y="86" width="258" height="221" fill="#DDDDDD"/>
<path d="M253.087 174.909C253.087 171.747 253.513 168.841 254.365 166.19C255.218 163.531 256.547 161.064 258.354 158.788H264.414C263.732 159.632 263.097 160.659 262.509 161.869C261.921 163.08 261.409 164.405 260.975 165.845C260.548 167.286 260.212 168.777 259.965 170.32C259.726 171.862 259.607 173.392 259.607 174.909C259.607 176.92 259.816 178.953 260.233 181.007C260.651 183.053 261.222 184.953 261.946 186.709C262.671 188.456 263.493 189.892 264.414 191.017H258.354C256.547 188.741 255.218 186.278 254.365 183.628C253.513 180.969 253.087 178.062 253.087 174.909ZM281.292 169.668C281.206 168.73 280.827 168.001 280.154 167.482C279.489 166.953 278.539 166.689 277.303 166.689C276.485 166.689 275.803 166.795 275.258 167.009C274.712 167.222 274.303 167.516 274.03 167.891C273.758 168.257 273.617 168.679 273.608 169.156C273.591 169.548 273.668 169.893 273.839 170.192C274.018 170.49 274.273 170.754 274.606 170.984C274.947 171.206 275.356 171.402 275.833 171.572C276.31 171.743 276.847 171.892 277.444 172.02L279.694 172.531C280.989 172.812 282.131 173.188 283.12 173.656C284.117 174.125 284.952 174.683 285.626 175.331C286.307 175.979 286.823 176.724 287.172 177.568C287.522 178.412 287.701 179.358 287.709 180.406C287.701 182.06 287.283 183.479 286.456 184.663C285.63 185.848 284.441 186.756 282.89 187.386C281.347 188.017 279.485 188.332 277.303 188.332C275.113 188.332 273.204 188.004 271.576 187.348C269.948 186.692 268.682 185.695 267.779 184.357C266.876 183.018 266.411 181.327 266.385 179.281H272.445C272.496 180.125 272.722 180.828 273.123 181.391C273.523 181.953 274.073 182.379 274.772 182.669C275.479 182.959 276.297 183.104 277.226 183.104C278.079 183.104 278.803 182.989 279.4 182.759C280.005 182.528 280.469 182.209 280.793 181.8C281.117 181.391 281.283 180.922 281.292 180.393C281.283 179.899 281.13 179.477 280.831 179.128C280.533 178.77 280.073 178.463 279.451 178.207C278.837 177.943 278.053 177.7 277.099 177.479L274.363 176.839C272.096 176.32 270.31 175.48 269.006 174.321C267.702 173.153 267.055 171.577 267.063 169.591C267.055 167.972 267.489 166.553 268.367 165.334C269.245 164.115 270.459 163.165 272.01 162.483C273.562 161.801 275.33 161.46 277.316 161.46C279.344 161.46 281.104 161.805 282.596 162.496C284.096 163.178 285.259 164.136 286.086 165.372C286.912 166.608 287.334 168.04 287.351 169.668H281.292ZM297.157 176.801V188H290.905V161.818H296.952V171.969H297.17C297.613 170.759 298.337 169.812 299.343 169.131C300.357 168.449 301.597 168.108 303.063 168.108C304.444 168.108 305.645 168.415 306.668 169.028C307.691 169.634 308.483 170.49 309.046 171.598C309.617 172.706 309.898 174.001 309.89 175.484V188H303.638V176.712C303.647 175.621 303.374 174.768 302.82 174.155C302.266 173.541 301.486 173.234 300.481 173.234C299.824 173.234 299.245 173.379 298.742 173.669C298.248 173.95 297.86 174.355 297.579 174.884C297.306 175.412 297.165 176.051 297.157 176.801ZM319.328 188.332C318.075 188.332 316.963 188.124 315.991 187.706C315.028 187.28 314.265 186.641 313.703 185.788C313.149 184.928 312.872 183.849 312.872 182.554C312.872 181.463 313.063 180.543 313.447 179.793C313.83 179.043 314.359 178.433 315.032 177.964C315.705 177.496 316.481 177.142 317.359 176.903C318.237 176.656 319.174 176.49 320.171 176.405C321.288 176.303 322.187 176.196 322.869 176.085C323.551 175.966 324.045 175.8 324.352 175.587C324.667 175.365 324.825 175.054 324.825 174.653V174.589C324.825 173.933 324.599 173.426 324.147 173.068C323.695 172.71 323.086 172.531 322.319 172.531C321.492 172.531 320.828 172.71 320.325 173.068C319.822 173.426 319.502 173.92 319.366 174.551L313.6 174.347C313.771 173.153 314.21 172.088 314.917 171.151C315.633 170.205 316.613 169.463 317.857 168.926C319.11 168.381 320.615 168.108 322.37 168.108C323.623 168.108 324.778 168.257 325.835 168.555C326.892 168.845 327.812 169.271 328.596 169.834C329.38 170.388 329.985 171.07 330.411 171.879C330.846 172.689 331.063 173.614 331.063 174.653V188H325.183V185.264H325.029C324.68 185.929 324.232 186.491 323.687 186.952C323.15 187.412 322.515 187.757 321.782 187.987C321.058 188.217 320.24 188.332 319.328 188.332ZM321.258 184.241C321.931 184.241 322.536 184.105 323.073 183.832C323.619 183.56 324.053 183.185 324.377 182.707C324.701 182.222 324.863 181.659 324.863 181.02V179.153C324.684 179.247 324.467 179.332 324.211 179.409C323.964 179.486 323.691 179.558 323.393 179.626C323.095 179.695 322.788 179.754 322.472 179.805C322.157 179.857 321.855 179.903 321.565 179.946C320.977 180.04 320.474 180.185 320.056 180.381C319.647 180.577 319.332 180.832 319.11 181.148C318.897 181.455 318.791 181.821 318.791 182.247C318.791 182.895 319.021 183.389 319.481 183.73C319.95 184.071 320.542 184.241 321.258 184.241ZM342.058 188.281C340.609 188.281 339.292 187.906 338.107 187.156C336.923 186.406 335.977 185.281 335.269 183.781C334.562 182.281 334.208 180.419 334.208 178.195C334.208 175.885 334.575 173.984 335.308 172.493C336.041 171.001 336.999 169.898 338.184 169.182C339.377 168.466 340.66 168.108 342.032 168.108C343.063 168.108 343.945 168.287 344.678 168.645C345.411 168.994 346.017 169.446 346.494 170C346.971 170.554 347.333 171.129 347.58 171.726H347.708V161.818H353.96V188H347.772V184.817H347.58C347.316 185.422 346.941 185.989 346.455 186.517C345.97 187.045 345.36 187.472 344.627 187.795C343.903 188.119 343.046 188.281 342.058 188.281ZM344.231 183.411C344.99 183.411 345.637 183.197 346.174 182.771C346.711 182.337 347.124 181.727 347.414 180.943C347.704 180.159 347.849 179.239 347.849 178.182C347.849 177.108 347.704 176.183 347.414 175.408C347.133 174.632 346.72 174.036 346.174 173.618C345.637 173.2 344.99 172.991 344.231 172.991C343.455 172.991 342.799 173.205 342.262 173.631C341.725 174.057 341.316 174.658 341.035 175.433C340.762 176.209 340.626 177.125 340.626 178.182C340.626 179.239 340.767 180.159 341.048 180.943C341.329 181.727 341.734 182.337 342.262 182.771C342.799 183.197 343.455 183.411 344.231 183.411ZM367.079 188.371C365.017 188.371 363.244 187.949 361.761 187.105C360.287 186.253 359.149 185.068 358.348 183.551C357.555 182.026 357.159 180.257 357.159 178.246C357.159 176.226 357.555 174.457 358.348 172.94C359.149 171.415 360.287 170.23 361.761 169.386C363.244 168.534 365.017 168.108 367.079 168.108C369.142 168.108 370.91 168.534 372.385 169.386C373.868 170.23 375.006 171.415 375.798 172.94C376.599 174.457 377 176.226 377 178.246C377 180.257 376.599 182.026 375.798 183.551C375.006 185.068 373.868 186.253 372.385 187.105C370.91 187.949 369.142 188.371 367.079 188.371ZM367.118 183.653C367.868 183.653 368.503 183.423 369.023 182.963C369.542 182.503 369.939 181.864 370.211 181.045C370.493 180.227 370.633 179.281 370.633 178.207C370.633 177.116 370.493 176.162 370.211 175.344C369.939 174.526 369.542 173.886 369.023 173.426C368.503 172.966 367.868 172.736 367.118 172.736C366.342 172.736 365.686 172.966 365.149 173.426C364.621 173.886 364.216 174.526 363.934 175.344C363.662 176.162 363.525 177.116 363.525 178.207C363.525 179.281 363.662 180.227 363.934 181.045C364.216 181.864 364.621 182.503 365.149 182.963C365.686 183.423 366.342 183.653 367.118 183.653ZM383.449 188L378.336 168.364H384.613L387.259 180.943H387.425L390.263 168.364H396.387L399.302 180.854H399.468L402.037 168.364H408.314L403.188 188H396.502L393.434 176.558H393.216L390.148 188H383.449ZM420.91 177.696C420.91 180.849 420.484 183.756 419.632 186.415C418.779 189.065 417.45 191.528 415.643 193.804H409.583C410.274 192.96 410.909 191.933 411.488 190.723C412.076 189.513 412.583 188.188 413.009 186.747C413.444 185.307 413.781 183.815 414.019 182.273C414.267 180.73 414.39 179.205 414.39 177.696C414.39 175.676 414.181 173.643 413.764 171.598C413.346 169.544 412.775 167.643 412.051 165.896C411.326 164.141 410.504 162.7 409.583 161.575H415.643C417.45 163.851 418.779 166.318 419.632 168.977C420.484 171.628 420.91 174.534 420.91 177.696ZM291.099 215.304H284.707C284.621 214.648 284.447 214.055 284.183 213.527C283.918 212.999 283.569 212.547 283.134 212.172C282.7 211.797 282.184 211.511 281.587 211.315C280.999 211.111 280.347 211.009 279.631 211.009C278.362 211.009 277.266 211.32 276.346 211.942C275.434 212.564 274.731 213.463 274.237 214.639C273.751 215.815 273.508 217.239 273.508 218.909C273.508 220.648 273.755 222.105 274.249 223.281C274.752 224.449 275.455 225.331 276.359 225.928C277.271 226.516 278.349 226.81 279.593 226.81C280.292 226.81 280.927 226.72 281.498 226.541C282.077 226.362 282.585 226.102 283.019 225.761C283.462 225.412 283.825 224.99 284.106 224.496C284.396 223.993 284.596 223.426 284.707 222.795L291.099 222.834C290.988 223.993 290.651 225.135 290.089 226.26C289.535 227.385 288.772 228.412 287.8 229.341C286.829 230.261 285.644 230.994 284.246 231.54C282.857 232.085 281.263 232.358 279.465 232.358C277.096 232.358 274.974 231.838 273.099 230.798C271.232 229.75 269.758 228.224 268.675 226.222C267.593 224.219 267.052 221.781 267.052 218.909C267.052 216.028 267.602 213.587 268.701 211.584C269.8 209.581 271.288 208.06 273.163 207.02C275.038 205.98 277.138 205.46 279.465 205.46C281.05 205.46 282.516 205.682 283.863 206.125C285.21 206.56 286.394 207.199 287.417 208.043C288.44 208.878 289.271 209.905 289.91 211.124C290.549 212.342 290.945 213.736 291.099 215.304ZM303.886 232.371C301.824 232.371 300.051 231.949 298.568 231.105C297.093 230.253 295.956 229.068 295.154 227.551C294.362 226.026 293.966 224.257 293.966 222.246C293.966 220.226 294.362 218.457 295.154 216.94C295.956 215.415 297.093 214.23 298.568 213.386C300.051 212.534 301.824 212.108 303.886 212.108C305.949 212.108 307.717 212.534 309.191 213.386C310.674 214.23 311.812 215.415 312.605 216.94C313.406 218.457 313.806 220.226 313.806 222.246C313.806 224.257 313.406 226.026 312.605 227.551C311.812 229.068 310.674 230.253 309.191 231.105C307.717 231.949 305.949 232.371 303.886 232.371ZM303.924 227.653C304.674 227.653 305.309 227.423 305.829 226.963C306.349 226.503 306.745 225.864 307.018 225.045C307.299 224.227 307.44 223.281 307.44 222.207C307.44 221.116 307.299 220.162 307.018 219.344C306.745 218.526 306.349 217.886 305.829 217.426C305.309 216.966 304.674 216.736 303.924 216.736C303.149 216.736 302.493 216.966 301.956 217.426C301.427 217.886 301.022 218.526 300.741 219.344C300.468 220.162 300.332 221.116 300.332 222.207C300.332 223.281 300.468 224.227 300.741 225.045C301.022 225.864 301.427 226.503 301.956 226.963C302.493 227.423 303.149 227.653 303.924 227.653ZM323.26 220.801V232H317.009V212.364H322.953V215.969H323.171C323.605 214.767 324.347 213.825 325.395 213.143C326.444 212.453 327.692 212.108 329.141 212.108C330.522 212.108 331.719 212.419 332.733 213.041C333.756 213.655 334.549 214.516 335.111 215.624C335.682 216.723 335.963 218.01 335.955 219.484V232H329.703V220.712C329.712 219.621 329.435 218.768 328.873 218.155C328.319 217.541 327.547 217.234 326.559 217.234C325.902 217.234 325.323 217.379 324.82 217.669C324.326 217.95 323.942 218.355 323.669 218.884C323.405 219.412 323.269 220.051 323.26 220.801ZM350.909 212.364V216.966H338.521V212.364H350.909ZM341.116 207.659H347.368V225.825C347.368 226.209 347.428 226.52 347.547 226.759C347.675 226.989 347.858 227.155 348.097 227.257C348.335 227.351 348.621 227.398 348.953 227.398C349.192 227.398 349.443 227.376 349.707 227.334C349.98 227.283 350.185 227.24 350.321 227.206L351.267 231.719C350.969 231.804 350.547 231.911 350.001 232.038C349.464 232.166 348.821 232.247 348.071 232.281C346.605 232.349 345.348 232.179 344.3 231.77C343.26 231.352 342.463 230.705 341.909 229.827C341.364 228.949 341.099 227.845 341.116 226.516V207.659ZM363.067 232.371C361.013 232.371 359.24 231.966 357.749 231.156C356.266 230.338 355.124 229.175 354.322 227.666C353.53 226.149 353.134 224.347 353.134 222.259C353.134 220.23 353.534 218.457 354.335 216.94C355.136 215.415 356.266 214.23 357.723 213.386C359.18 212.534 360.898 212.108 362.875 212.108C364.273 212.108 365.551 212.325 366.71 212.76C367.869 213.195 368.871 213.838 369.714 214.69C370.558 215.543 371.214 216.595 371.683 217.848C372.152 219.092 372.386 220.52 372.386 222.131V223.69H355.32V220.06H366.57C366.561 219.395 366.403 218.803 366.097 218.283C365.79 217.763 365.368 217.358 364.831 217.068C364.303 216.77 363.693 216.621 363.003 216.621C362.304 216.621 361.678 216.778 361.124 217.094C360.57 217.401 360.131 217.822 359.807 218.359C359.483 218.888 359.313 219.489 359.295 220.162V223.857C359.295 224.658 359.453 225.361 359.768 225.966C360.084 226.562 360.531 227.027 361.111 227.359C361.69 227.692 362.381 227.858 363.182 227.858C363.736 227.858 364.239 227.781 364.69 227.628C365.142 227.474 365.53 227.249 365.854 226.95C366.178 226.652 366.42 226.286 366.582 225.851L372.322 226.017C372.084 227.304 371.56 228.425 370.75 229.379C369.949 230.325 368.896 231.062 367.592 231.591C366.288 232.111 364.78 232.371 363.067 232.371ZM380.616 212.364L383.85 218.832L387.2 212.364H393.502L388.018 222.182L393.707 232H387.456L383.85 225.48L380.335 232H373.994L379.696 222.182L374.275 212.364H380.616ZM407.44 212.364V216.966H395.053V212.364H407.44ZM397.648 207.659H403.899V225.825C403.899 226.209 403.959 226.52 404.078 226.759C404.206 226.989 404.389 227.155 404.628 227.257C404.866 227.351 405.152 227.398 405.484 227.398C405.723 227.398 405.974 227.376 406.239 227.334C406.511 227.283 406.716 227.24 406.852 227.206L407.798 231.719C407.5 231.804 407.078 231.911 406.533 232.038C405.996 232.166 405.352 232.247 404.602 232.281C403.136 232.349 401.879 232.179 400.831 231.77C399.791 231.352 398.994 230.705 398.44 229.827C397.895 228.949 397.631 227.845 397.648 226.516V207.659Z" fill="black"/>
</g>
<g opacity="0.33">
<rect x="415" y="172" width="258" height="221" fill="#AAAAAA"/>
<path d="M472.857 274V247.818H491.112V252.957H479.185V258.327H490.179V263.479H479.185V268.861H491.112V274H472.857ZM501.327 247.818V274H495.075V247.818H501.327ZM514.485 274.371C512.431 274.371 510.658 273.966 509.167 273.156C507.684 272.338 506.542 271.175 505.74 269.666C504.948 268.149 504.551 266.347 504.551 264.259C504.551 262.23 504.952 260.457 505.753 258.94C506.554 257.415 507.684 256.23 509.141 255.386C510.598 254.534 512.316 254.108 514.293 254.108C515.691 254.108 516.969 254.325 518.128 254.76C519.287 255.195 520.289 255.838 521.132 256.69C521.976 257.543 522.632 258.595 523.101 259.848C523.57 261.092 523.804 262.52 523.804 264.131V265.69H506.738V262.06H517.988C517.979 261.395 517.821 260.803 517.515 260.283C517.208 259.763 516.786 259.358 516.249 259.068C515.721 258.77 515.111 258.621 514.421 258.621C513.722 258.621 513.096 258.778 512.542 259.094C511.988 259.401 511.549 259.822 511.225 260.359C510.901 260.888 510.73 261.489 510.713 262.162V265.857C510.713 266.658 510.871 267.361 511.186 267.966C511.502 268.562 511.949 269.027 512.529 269.359C513.108 269.692 513.799 269.858 514.6 269.858C515.154 269.858 515.657 269.781 516.108 269.628C516.56 269.474 516.948 269.249 517.272 268.95C517.596 268.652 517.838 268.286 518 267.851L523.74 268.017C523.502 269.304 522.978 270.425 522.168 271.379C521.367 272.325 520.314 273.062 519.01 273.591C517.706 274.111 516.198 274.371 514.485 274.371ZM526.997 274V254.364H532.942V257.969H533.159C533.568 256.776 534.259 255.834 535.23 255.143C536.202 254.453 537.361 254.108 538.707 254.108C540.071 254.108 541.239 254.457 542.21 255.156C543.182 255.855 543.8 256.793 544.064 257.969H544.268C544.635 256.801 545.351 255.868 546.416 255.169C547.482 254.462 548.739 254.108 550.188 254.108C552.045 254.108 553.554 254.705 554.713 255.898C555.872 257.082 556.452 258.71 556.452 260.781V274H550.2V262.213C550.2 261.233 549.949 260.487 549.446 259.976C548.943 259.456 548.291 259.196 547.49 259.196C546.629 259.196 545.952 259.477 545.457 260.04C544.972 260.594 544.729 261.339 544.729 262.277V274H538.72V262.149C538.72 261.237 538.473 260.517 537.979 259.989C537.484 259.46 536.832 259.196 536.023 259.196C535.477 259.196 534.996 259.328 534.578 259.592C534.161 259.848 533.832 260.214 533.594 260.692C533.364 261.169 533.249 261.732 533.249 262.379V274H526.997ZM569.504 274.371C567.45 274.371 565.678 273.966 564.186 273.156C562.703 272.338 561.561 271.175 560.76 269.666C559.967 268.149 559.571 266.347 559.571 264.259C559.571 262.23 559.972 260.457 560.773 258.94C561.574 257.415 562.703 256.23 564.161 255.386C565.618 254.534 567.335 254.108 569.312 254.108C570.71 254.108 571.989 254.325 573.148 254.76C574.307 255.195 575.308 255.838 576.152 256.69C576.996 257.543 577.652 258.595 578.121 259.848C578.589 261.092 578.824 262.52 578.824 264.131V265.69H561.757V262.06H573.007C572.999 261.395 572.841 260.803 572.534 260.283C572.227 259.763 571.805 259.358 571.268 259.068C570.74 258.77 570.131 258.621 569.44 258.621C568.741 258.621 568.115 258.778 567.561 259.094C567.007 259.401 566.568 259.822 566.244 260.359C565.92 260.888 565.75 261.489 565.733 262.162V265.857C565.733 266.658 565.891 267.361 566.206 267.966C566.521 268.562 566.969 269.027 567.548 269.359C568.128 269.692 568.818 269.858 569.619 269.858C570.173 269.858 570.676 269.781 571.128 269.628C571.58 269.474 571.967 269.249 572.291 268.95C572.615 268.652 572.858 268.286 573.02 267.851L578.76 268.017C578.521 269.304 577.997 270.425 577.188 271.379C576.386 272.325 575.334 273.062 574.03 273.591C572.726 274.111 571.217 274.371 569.504 274.371ZM588.268 262.801V274H582.017V254.364H587.961V257.969H588.179C588.613 256.767 589.355 255.825 590.403 255.143C591.451 254.453 592.7 254.108 594.149 254.108C595.529 254.108 596.727 254.419 597.741 255.041C598.764 255.655 599.556 256.516 600.119 257.624C600.69 258.723 600.971 260.01 600.963 261.484V274H594.711V262.712C594.72 261.621 594.443 260.768 593.88 260.155C593.326 259.541 592.555 259.234 591.566 259.234C590.91 259.234 590.331 259.379 589.828 259.669C589.333 259.95 588.95 260.355 588.677 260.884C588.413 261.412 588.277 262.051 588.268 262.801ZM615.917 254.364V258.966H603.529V254.364H615.917ZM606.124 249.659H612.376V267.825C612.376 268.209 612.435 268.52 612.555 268.759C612.683 268.989 612.866 269.155 613.104 269.257C613.343 269.351 613.629 269.398 613.961 269.398C614.2 269.398 614.451 269.376 614.715 269.334C614.988 269.283 615.192 269.24 615.329 269.206L616.275 273.719C615.977 273.804 615.555 273.911 615.009 274.038C614.472 274.166 613.829 274.247 613.079 274.281C611.613 274.349 610.356 274.179 609.308 273.77C608.268 273.352 607.471 272.705 606.917 271.827C606.371 270.949 606.107 269.845 606.124 268.516V249.659ZM469.01 318H462.209L471.043 291.818H479.468L488.301 318H481.5L475.351 298.415H475.146L469.01 318ZM468.102 307.696H482.318V312.503H468.102V307.696ZM500.974 298.364V302.966H488.586V298.364H500.974ZM491.181 293.659H497.432V311.825C497.432 312.209 497.492 312.52 497.611 312.759C497.739 312.989 497.922 313.155 498.161 313.257C498.4 313.351 498.685 313.398 499.018 313.398C499.256 313.398 499.508 313.376 499.772 313.334C500.045 313.283 500.249 313.24 500.385 313.206L501.331 317.719C501.033 317.804 500.611 317.911 500.066 318.038C499.529 318.166 498.885 318.247 498.135 318.281C496.67 318.349 495.412 318.179 494.364 317.77C493.324 317.352 492.528 316.705 491.974 315.827C491.428 314.949 491.164 313.845 491.181 312.516V293.659ZM515.247 298.364V302.966H502.859V298.364H515.247ZM505.454 293.659H511.706V311.825C511.706 312.209 511.765 312.52 511.885 312.759C512.013 312.989 512.196 313.155 512.434 313.257C512.673 313.351 512.959 313.398 513.291 313.398C513.53 313.398 513.781 313.376 514.045 313.334C514.318 313.283 514.523 313.24 514.659 313.206L515.605 317.719C515.307 317.804 514.885 317.911 514.339 318.038C513.802 318.166 513.159 318.247 512.409 318.281C510.943 318.349 509.686 318.179 508.638 317.77C507.598 317.352 506.801 316.705 506.247 315.827C505.702 314.949 505.437 313.845 505.454 312.516V293.659ZM523.972 318.332C522.719 318.332 521.607 318.124 520.635 317.706C519.672 317.28 518.91 316.641 518.347 315.788C517.793 314.928 517.516 313.849 517.516 312.554C517.516 311.463 517.708 310.543 518.091 309.793C518.475 309.043 519.003 308.433 519.677 307.964C520.35 307.496 521.126 307.142 522.003 306.903C522.881 306.656 523.819 306.49 524.816 306.405C525.932 306.303 526.831 306.196 527.513 306.085C528.195 305.966 528.689 305.8 528.996 305.587C529.312 305.365 529.469 305.054 529.469 304.653V304.589C529.469 303.933 529.243 303.426 528.792 303.068C528.34 302.71 527.731 302.531 526.964 302.531C526.137 302.531 525.472 302.71 524.969 303.068C524.466 303.426 524.147 303.92 524.01 304.551L518.245 304.347C518.415 303.153 518.854 302.088 519.562 301.151C520.278 300.205 521.258 299.463 522.502 298.926C523.755 298.381 525.259 298.108 527.015 298.108C528.268 298.108 529.422 298.257 530.479 298.555C531.536 298.845 532.456 299.271 533.241 299.834C534.025 300.388 534.63 301.07 535.056 301.879C535.491 302.689 535.708 303.614 535.708 304.653V318H529.827V315.264H529.674C529.324 315.929 528.877 316.491 528.331 316.952C527.795 317.412 527.16 317.757 526.427 317.987C525.702 318.217 524.884 318.332 523.972 318.332ZM525.903 314.241C526.576 314.241 527.181 314.105 527.718 313.832C528.263 313.56 528.698 313.185 529.022 312.707C529.346 312.222 529.508 311.659 529.508 311.02V309.153C529.329 309.247 529.111 309.332 528.856 309.409C528.608 309.486 528.336 309.558 528.037 309.626C527.739 309.695 527.432 309.754 527.117 309.805C526.802 309.857 526.499 309.903 526.209 309.946C525.621 310.04 525.118 310.185 524.701 310.381C524.292 310.577 523.976 310.832 523.755 311.148C523.542 311.455 523.435 311.821 523.435 312.247C523.435 312.895 523.665 313.389 524.126 313.73C524.594 314.071 525.187 314.241 525.903 314.241ZM548.697 318.371C546.626 318.371 544.849 317.945 543.366 317.092C541.891 316.24 540.758 315.055 539.965 313.538C539.172 312.013 538.776 310.249 538.776 308.246C538.776 306.234 539.172 304.47 539.965 302.953C540.766 301.428 541.904 300.239 543.378 299.386C544.861 298.534 546.63 298.108 548.684 298.108C550.499 298.108 552.08 298.436 553.427 299.092C554.782 299.749 555.839 300.678 556.597 301.879C557.364 303.072 557.769 304.474 557.812 306.085H551.969C551.85 305.08 551.509 304.291 550.947 303.72C550.393 303.149 549.668 302.864 548.773 302.864C548.049 302.864 547.414 303.068 546.868 303.477C546.323 303.878 545.897 304.474 545.59 305.267C545.292 306.051 545.143 307.023 545.143 308.182C545.143 309.341 545.292 310.321 545.59 311.122C545.897 311.915 546.323 312.516 546.868 312.925C547.414 313.325 548.049 313.526 548.773 313.526C549.353 313.526 549.864 313.402 550.307 313.155C550.759 312.908 551.13 312.545 551.42 312.068C551.709 311.582 551.893 310.994 551.969 310.304H557.812C557.752 311.923 557.347 313.338 556.597 314.548C555.856 315.759 554.812 316.7 553.465 317.374C552.127 318.038 550.537 318.371 548.697 318.371ZM567.262 306.801V318H561.011V291.818H567.058V301.969H567.275C567.718 300.759 568.443 299.812 569.448 299.131C570.463 298.449 571.703 298.108 573.169 298.108C574.549 298.108 575.751 298.415 576.774 299.028C577.796 299.634 578.589 300.49 579.151 301.598C579.722 302.706 580.004 304.001 579.995 305.484V318H573.744V306.712C573.752 305.621 573.48 304.768 572.926 304.155C572.372 303.541 571.592 303.234 570.586 303.234C569.93 303.234 569.35 303.379 568.847 303.669C568.353 303.95 567.965 304.355 567.684 304.884C567.411 305.412 567.271 306.051 567.262 306.801ZM593.077 318.371C591.023 318.371 589.25 317.966 587.758 317.156C586.275 316.338 585.133 315.175 584.332 313.666C583.54 312.149 583.143 310.347 583.143 308.259C583.143 306.23 583.544 304.457 584.345 302.94C585.146 301.415 586.275 300.23 587.733 299.386C589.19 298.534 590.907 298.108 592.885 298.108C594.282 298.108 595.561 298.325 596.72 298.76C597.879 299.195 598.881 299.838 599.724 300.69C600.568 301.543 601.224 302.595 601.693 303.848C602.162 305.092 602.396 306.52 602.396 308.131V309.69H585.329V306.06H596.579C596.571 305.395 596.413 304.803 596.106 304.283C595.8 303.763 595.378 303.358 594.841 303.068C594.312 302.77 593.703 302.621 593.013 302.621C592.314 302.621 591.687 302.778 591.133 303.094C590.579 303.401 590.14 303.822 589.817 304.359C589.493 304.888 589.322 305.489 589.305 306.162V309.857C589.305 310.658 589.463 311.361 589.778 311.966C590.094 312.562 590.541 313.027 591.121 313.359C591.7 313.692 592.39 313.858 593.192 313.858C593.746 313.858 594.248 313.781 594.7 313.628C595.152 313.474 595.54 313.249 595.863 312.95C596.187 312.652 596.43 312.286 596.592 311.851L602.332 312.017C602.094 313.304 601.569 314.425 600.76 315.379C599.959 316.325 598.906 317.062 597.602 317.591C596.298 318.111 594.79 318.371 593.077 318.371ZM612.761 318.281C611.312 318.281 609.995 317.906 608.811 317.156C607.626 316.406 606.68 315.281 605.972 313.781C605.265 312.281 604.911 310.419 604.911 308.195C604.911 305.885 605.278 303.984 606.011 302.493C606.744 301.001 607.703 299.898 608.887 299.182C610.08 298.466 611.363 298.108 612.735 298.108C613.767 298.108 614.649 298.287 615.382 298.645C616.115 298.994 616.72 299.446 617.197 300C617.674 300.554 618.036 301.129 618.284 301.726H618.411V291.818H624.663V318H618.475V314.817H618.284C618.019 315.422 617.644 315.989 617.159 316.517C616.673 317.045 616.063 317.472 615.33 317.795C614.606 318.119 613.749 318.281 612.761 318.281ZM614.934 313.411C615.693 313.411 616.34 313.197 616.877 312.771C617.414 312.337 617.828 311.727 618.117 310.943C618.407 310.159 618.552 309.239 618.552 308.182C618.552 307.108 618.407 306.183 618.117 305.408C617.836 304.632 617.423 304.036 616.877 303.618C616.34 303.2 615.693 302.991 614.934 302.991C614.159 302.991 613.502 303.205 612.965 303.631C612.428 304.057 612.019 304.658 611.738 305.433C611.465 306.209 611.329 307.125 611.329 308.182C611.329 309.239 611.47 310.159 611.751 310.943C612.032 311.727 612.437 312.337 612.965 312.771C613.502 313.197 614.159 313.411 614.934 313.411Z" fill="black"/>
</g>
<g opacity="0.33">
<rect x="624" y="258" width="258" height="221" fill="#DDDDDD"/>
<path d="M694.952 341.668C694.867 340.73 694.487 340.001 693.814 339.482C693.149 338.953 692.199 338.689 690.963 338.689C690.145 338.689 689.463 338.795 688.918 339.009C688.372 339.222 687.963 339.516 687.691 339.891C687.418 340.257 687.277 340.679 687.269 341.156C687.252 341.548 687.328 341.893 687.499 342.192C687.678 342.49 687.933 342.754 688.266 342.984C688.607 343.206 689.016 343.402 689.493 343.572C689.97 343.743 690.507 343.892 691.104 344.02L693.354 344.531C694.649 344.812 695.791 345.188 696.78 345.656C697.777 346.125 698.612 346.683 699.286 347.331C699.968 347.979 700.483 348.724 700.833 349.568C701.182 350.412 701.361 351.358 701.369 352.406C701.361 354.06 700.943 355.479 700.117 356.663C699.29 357.848 698.101 358.756 696.55 359.386C695.007 360.017 693.145 360.332 690.963 360.332C688.773 360.332 686.864 360.004 685.236 359.348C683.608 358.692 682.343 357.695 681.439 356.357C680.536 355.018 680.071 353.327 680.046 351.281H686.105C686.156 352.125 686.382 352.828 686.783 353.391C687.183 353.953 687.733 354.379 688.432 354.669C689.139 354.959 689.958 355.104 690.887 355.104C691.739 355.104 692.463 354.989 693.06 354.759C693.665 354.528 694.129 354.209 694.453 353.8C694.777 353.391 694.943 352.922 694.952 352.393C694.943 351.899 694.79 351.477 694.492 351.128C694.193 350.77 693.733 350.463 693.111 350.207C692.497 349.943 691.713 349.7 690.759 349.479L688.023 348.839C685.756 348.32 683.97 347.48 682.666 346.321C681.362 345.153 680.715 343.577 680.723 341.591C680.715 339.972 681.149 338.553 682.027 337.334C682.905 336.115 684.119 335.165 685.671 334.483C687.222 333.801 688.99 333.46 690.976 333.46C693.004 333.46 694.764 333.805 696.256 334.496C697.756 335.178 698.919 336.136 699.746 337.372C700.573 338.608 700.994 340.04 701.012 341.668H694.952ZM713.744 360.371C711.691 360.371 709.918 359.966 708.426 359.156C706.943 358.338 705.801 357.175 705 355.666C704.208 354.149 703.811 352.347 703.811 350.259C703.811 348.23 704.212 346.457 705.013 344.94C705.814 343.415 706.943 342.23 708.401 341.386C709.858 340.534 711.575 340.108 713.553 340.108C714.95 340.108 716.229 340.325 717.388 340.76C718.547 341.195 719.548 341.838 720.392 342.69C721.236 343.543 721.892 344.595 722.361 345.848C722.83 347.092 723.064 348.52 723.064 350.131V351.69H705.997V348.06H717.247C717.239 347.395 717.081 346.803 716.774 346.283C716.468 345.763 716.046 345.358 715.509 345.068C714.98 344.77 714.371 344.621 713.681 344.621C712.982 344.621 712.355 344.778 711.801 345.094C711.247 345.401 710.808 345.822 710.485 346.359C710.161 346.888 709.99 347.489 709.973 348.162V351.857C709.973 352.658 710.131 353.361 710.446 353.966C710.762 354.562 711.209 355.027 711.789 355.359C712.368 355.692 713.058 355.858 713.86 355.858C714.414 355.858 714.916 355.781 715.368 355.628C715.82 355.474 716.208 355.249 716.531 354.95C716.855 354.652 717.098 354.286 717.26 353.851L723 354.017C722.762 355.304 722.237 356.425 721.428 357.379C720.627 358.325 719.574 359.062 718.27 359.591C716.966 360.111 715.458 360.371 713.744 360.371ZM732.508 333.818V360H726.257V333.818H732.508ZM745.666 360.371C743.612 360.371 741.84 359.966 740.348 359.156C738.865 358.338 737.723 357.175 736.922 355.666C736.129 354.149 735.733 352.347 735.733 350.259C735.733 348.23 736.134 346.457 736.935 344.94C737.736 343.415 738.865 342.23 740.323 341.386C741.78 340.534 743.497 340.108 745.475 340.108C746.872 340.108 748.151 340.325 749.31 340.76C750.469 341.195 751.47 341.838 752.314 342.69C753.158 343.543 753.814 344.595 754.283 345.848C754.752 347.092 754.986 348.52 754.986 350.131V351.69H737.919V348.06H749.169C749.161 347.395 749.003 346.803 748.696 346.283C748.389 345.763 747.968 345.358 747.431 345.068C746.902 344.77 746.293 344.621 745.602 344.621C744.904 344.621 744.277 344.778 743.723 345.094C743.169 345.401 742.73 345.822 742.406 346.359C742.083 346.888 741.912 347.489 741.895 348.162V351.857C741.895 352.658 742.053 353.361 742.368 353.966C742.683 354.562 743.131 355.027 743.71 355.359C744.29 355.692 744.98 355.858 745.781 355.858C746.335 355.858 746.838 355.781 747.29 355.628C747.742 355.474 748.129 355.249 748.453 354.95C748.777 354.652 749.02 354.286 749.182 353.851L754.922 354.017C754.683 355.304 754.159 356.425 753.35 357.379C752.548 358.325 751.496 359.062 750.192 359.591C748.888 360.111 747.379 360.371 745.666 360.371ZM767.345 360.371C765.274 360.371 763.497 359.945 762.014 359.092C760.54 358.24 759.406 357.055 758.613 355.538C757.821 354.013 757.425 352.249 757.425 350.246C757.425 348.234 757.821 346.47 758.613 344.953C759.415 343.428 760.552 342.239 762.027 341.386C763.51 340.534 765.278 340.108 767.332 340.108C769.148 340.108 770.729 340.436 772.075 341.092C773.43 341.749 774.487 342.678 775.246 343.879C776.013 345.072 776.417 346.474 776.46 348.085H770.618C770.498 347.08 770.157 346.291 769.595 345.72C769.041 345.149 768.317 344.864 767.422 344.864C766.697 344.864 766.062 345.068 765.517 345.477C764.971 345.878 764.545 346.474 764.238 347.267C763.94 348.051 763.791 349.023 763.791 350.182C763.791 351.341 763.94 352.321 764.238 353.122C764.545 353.915 764.971 354.516 765.517 354.925C766.062 355.325 766.697 355.526 767.422 355.526C768.001 355.526 768.513 355.402 768.956 355.155C769.407 354.908 769.778 354.545 770.068 354.068C770.358 353.582 770.541 352.994 770.618 352.304H776.46C776.4 353.923 775.996 355.338 775.246 356.548C774.504 357.759 773.46 358.7 772.113 359.374C770.775 360.038 769.186 360.371 767.345 360.371ZM790.743 340.364V344.966H778.355V340.364H790.743ZM780.95 335.659H787.202V353.825C787.202 354.209 787.262 354.52 787.381 354.759C787.509 354.989 787.692 355.155 787.931 355.257C788.169 355.351 788.455 355.398 788.787 355.398C789.026 355.398 789.277 355.376 789.541 355.334C789.814 355.283 790.019 355.24 790.155 355.206L791.101 359.719C790.803 359.804 790.381 359.911 789.835 360.038C789.298 360.166 788.655 360.247 787.905 360.281C786.439 360.349 785.182 360.179 784.134 359.77C783.094 359.352 782.297 358.705 781.743 357.827C781.198 356.949 780.933 355.845 780.95 354.516V335.659ZM802.888 360.371C800.825 360.371 799.053 359.949 797.57 359.105C796.095 358.253 794.958 357.068 794.156 355.551C793.364 354.026 792.968 352.257 792.968 350.246C792.968 348.226 793.364 346.457 794.156 344.94C794.958 343.415 796.095 342.23 797.57 341.386C799.053 340.534 800.825 340.108 802.888 340.108C804.95 340.108 806.719 340.534 808.193 341.386C809.676 342.23 810.814 343.415 811.607 344.94C812.408 346.457 812.808 348.226 812.808 350.246C812.808 352.257 812.408 354.026 811.607 355.551C810.814 357.068 809.676 358.253 808.193 359.105C806.719 359.949 804.95 360.371 802.888 360.371ZM802.926 355.653C803.676 355.653 804.311 355.423 804.831 354.963C805.351 354.503 805.747 353.864 806.02 353.045C806.301 352.227 806.442 351.281 806.442 350.207C806.442 349.116 806.301 348.162 806.02 347.344C805.747 346.526 805.351 345.886 804.831 345.426C804.311 344.966 803.676 344.736 802.926 344.736C802.151 344.736 801.494 344.966 800.958 345.426C800.429 345.886 800.024 346.526 799.743 347.344C799.47 348.162 799.334 349.116 799.334 350.207C799.334 351.281 799.47 352.227 799.743 353.045C800.024 353.864 800.429 354.503 800.958 354.963C801.494 355.423 802.151 355.653 802.926 355.653ZM816.011 360V340.364H822.083V343.943H822.288C822.646 342.648 823.23 341.685 824.039 341.054C824.849 340.415 825.791 340.095 826.865 340.095C827.154 340.095 827.453 340.116 827.759 340.159C828.066 340.193 828.352 340.249 828.616 340.325V345.759C828.318 345.656 827.926 345.575 827.44 345.516C826.963 345.456 826.536 345.426 826.161 345.426C825.42 345.426 824.751 345.592 824.154 345.925C823.566 346.249 823.102 346.705 822.761 347.293C822.428 347.872 822.262 348.554 822.262 349.338V360H816.011ZM674.122 385.668C674.037 384.73 673.657 384.001 672.984 383.482C672.319 382.953 671.369 382.689 670.133 382.689C669.315 382.689 668.633 382.795 668.088 383.009C667.542 383.222 667.133 383.516 666.86 383.891C666.588 384.257 666.447 384.679 666.439 385.156C666.422 385.548 666.498 385.893 666.669 386.192C666.848 386.49 667.103 386.754 667.436 386.984C667.777 387.206 668.186 387.402 668.663 387.572C669.14 387.743 669.677 387.892 670.274 388.02L672.524 388.531C673.819 388.812 674.961 389.188 675.95 389.656C676.947 390.125 677.782 390.683 678.456 391.331C679.137 391.979 679.653 392.724 680.002 393.568C680.352 394.412 680.531 395.358 680.539 396.406C680.531 398.06 680.113 399.479 679.287 400.663C678.46 401.848 677.271 402.756 675.72 403.386C674.177 404.017 672.315 404.332 670.133 404.332C667.943 404.332 666.034 404.004 664.406 403.348C662.778 402.692 661.512 401.695 660.609 400.357C659.706 399.018 659.241 397.327 659.216 395.281H665.275C665.326 396.125 665.552 396.828 665.953 397.391C666.353 397.953 666.903 398.379 667.602 398.669C668.309 398.959 669.127 399.104 670.056 399.104C670.909 399.104 671.633 398.989 672.23 398.759C672.835 398.528 673.299 398.209 673.623 397.8C673.947 397.391 674.113 396.922 674.122 396.393C674.113 395.899 673.96 395.477 673.662 395.128C673.363 394.77 672.903 394.463 672.281 394.207C671.667 393.943 670.883 393.7 669.929 393.479L667.193 392.839C664.926 392.32 663.14 391.48 661.836 390.321C660.532 389.153 659.885 387.577 659.893 385.591C659.885 383.972 660.319 382.553 661.197 381.334C662.075 380.115 663.289 379.165 664.841 378.483C666.392 377.801 668.16 377.46 670.146 377.46C672.174 377.46 673.934 377.805 675.426 378.496C676.926 379.178 678.089 380.136 678.916 381.372C679.743 382.608 680.164 384.04 680.181 385.668H674.122ZM683.735 411.364V384.364H689.923V387.726H690.115C690.37 387.129 690.733 386.554 691.201 386C691.679 385.446 692.284 384.994 693.017 384.645C693.758 384.287 694.645 384.108 695.676 384.108C697.039 384.108 698.314 384.466 699.498 385.182C700.691 385.898 701.654 387.001 702.387 388.493C703.12 389.984 703.487 391.885 703.487 394.195C703.487 396.419 703.133 398.281 702.426 399.781C701.727 401.281 700.781 402.406 699.588 403.156C698.403 403.906 697.086 404.281 695.637 404.281C694.649 404.281 693.792 404.119 693.068 403.795C692.343 403.472 691.734 403.045 691.24 402.517C690.754 401.989 690.379 401.422 690.115 400.817H689.987V411.364H683.735ZM689.859 394.182C689.859 395.239 690 396.159 690.281 396.943C690.571 397.727 690.984 398.337 691.521 398.771C692.066 399.197 692.718 399.411 693.477 399.411C694.244 399.411 694.896 399.197 695.433 398.771C695.97 398.337 696.375 397.727 696.647 396.943C696.929 396.159 697.069 395.239 697.069 394.182C697.069 393.125 696.929 392.209 696.647 391.433C696.375 390.658 695.97 390.057 695.433 389.631C694.904 389.205 694.252 388.991 693.477 388.991C692.71 388.991 692.058 389.2 691.521 389.618C690.984 390.036 690.571 390.632 690.281 391.408C690 392.183 689.859 393.108 689.859 394.182ZM715.942 404.371C713.888 404.371 712.115 403.966 710.624 403.156C709.141 402.338 707.999 401.175 707.197 399.666C706.405 398.149 706.009 396.347 706.009 394.259C706.009 392.23 706.409 390.457 707.21 388.94C708.011 387.415 709.141 386.23 710.598 385.386C712.055 384.534 713.773 384.108 715.75 384.108C717.148 384.108 718.426 384.325 719.585 384.76C720.744 385.195 721.746 385.838 722.589 386.69C723.433 387.543 724.089 388.595 724.558 389.848C725.027 391.092 725.261 392.52 725.261 394.131V395.69H708.195V392.06H719.445C719.436 391.395 719.278 390.803 718.972 390.283C718.665 389.763 718.243 389.358 717.706 389.068C717.178 388.77 716.568 388.621 715.878 388.621C715.179 388.621 714.553 388.778 713.999 389.094C713.445 389.401 713.006 389.822 712.682 390.359C712.358 390.888 712.188 391.489 712.17 392.162V395.857C712.17 396.658 712.328 397.361 712.643 397.966C712.959 398.562 713.406 399.027 713.986 399.359C714.565 399.692 715.256 399.858 716.057 399.858C716.611 399.858 717.114 399.781 717.565 399.628C718.017 399.474 718.405 399.249 718.729 398.95C719.053 398.652 719.295 398.286 719.457 397.851L725.197 398.017C724.959 399.304 724.435 400.425 723.625 401.379C722.824 402.325 721.771 403.062 720.467 403.591C719.163 404.111 717.655 404.371 715.942 404.371ZM737.62 404.371C735.549 404.371 733.772 403.945 732.289 403.092C730.815 402.24 729.681 401.055 728.889 399.538C728.096 398.013 727.7 396.249 727.7 394.246C727.7 392.234 728.096 390.47 728.889 388.953C729.69 387.428 730.828 386.239 732.302 385.386C733.785 384.534 735.554 384.108 737.608 384.108C739.423 384.108 741.004 384.436 742.35 385.092C743.706 385.749 744.762 386.678 745.521 387.879C746.288 389.072 746.693 390.474 746.735 392.085H740.893C740.774 391.08 740.433 390.291 739.87 389.72C739.316 389.149 738.592 388.864 737.697 388.864C736.973 388.864 736.338 389.068 735.792 389.477C735.247 389.878 734.821 390.474 734.514 391.267C734.216 392.051 734.066 393.023 734.066 394.182C734.066 395.341 734.216 396.321 734.514 397.122C734.821 397.915 735.247 398.516 735.792 398.925C736.338 399.325 736.973 399.526 737.697 399.526C738.277 399.526 738.788 399.402 739.231 399.155C739.683 398.908 740.054 398.545 740.343 398.068C740.633 397.582 740.816 396.994 740.893 396.304H746.735C746.676 397.923 746.271 399.338 745.521 400.548C744.779 401.759 743.735 402.7 742.389 403.374C741.051 404.038 739.461 404.371 737.62 404.371ZM749.935 404V384.364H756.186V404H749.935ZM753.067 382.075C752.189 382.075 751.435 381.786 750.804 381.206C750.173 380.618 749.858 379.911 749.858 379.084C749.858 378.266 750.173 377.567 750.804 376.987C751.435 376.399 752.189 376.105 753.067 376.105C753.953 376.105 754.707 376.399 755.33 376.987C755.96 377.567 756.276 378.266 756.276 379.084C756.276 379.911 755.96 380.618 755.33 381.206C754.707 381.786 753.953 382.075 753.067 382.075ZM771.326 384.364V388.966H758.695V384.364H771.326ZM761.328 404V383.366C761.328 381.849 761.614 380.592 762.185 379.595C762.756 378.589 763.549 377.839 764.563 377.345C765.577 376.842 766.749 376.591 768.078 376.591C768.948 376.591 769.766 376.659 770.533 376.795C771.309 376.923 771.884 377.038 772.259 377.141L771.262 381.717C771.032 381.641 770.75 381.577 770.418 381.526C770.094 381.474 769.787 381.449 769.498 381.449C768.765 381.449 768.262 381.611 767.989 381.935C767.716 382.259 767.58 382.702 767.58 383.264V404H761.328ZM774.333 404V384.364H780.585V404H774.333ZM777.465 382.075C776.587 382.075 775.833 381.786 775.202 381.206C774.572 380.618 774.256 379.911 774.256 379.084C774.256 378.266 774.572 377.567 775.202 376.987C775.833 376.399 776.587 376.105 777.465 376.105C778.352 376.105 779.106 376.399 779.728 376.987C780.359 377.567 780.674 378.266 780.674 379.084C780.674 379.911 780.359 380.618 779.728 381.206C779.106 381.786 778.352 382.075 777.465 382.075ZM793.73 404.371C791.659 404.371 789.882 403.945 788.399 403.092C786.924 402.24 785.791 401.055 784.998 399.538C784.206 398.013 783.809 396.249 783.809 394.246C783.809 392.234 784.206 390.47 784.998 388.953C785.799 387.428 786.937 386.239 788.412 385.386C789.895 384.534 791.663 384.108 793.717 384.108C795.532 384.108 797.113 384.436 798.46 385.092C799.815 385.749 800.872 386.678 801.63 387.879C802.397 389.072 802.802 390.474 802.845 392.085H797.002C796.883 391.08 796.542 390.291 795.98 389.72C795.426 389.149 794.701 388.864 793.806 388.864C793.082 388.864 792.447 389.068 791.902 389.477C791.356 389.878 790.93 390.474 790.623 391.267C790.325 392.051 790.176 393.023 790.176 394.182C790.176 395.341 790.325 396.321 790.623 397.122C790.93 397.915 791.356 398.516 791.902 398.925C792.447 399.325 793.082 399.526 793.806 399.526C794.386 399.526 794.897 399.402 795.341 399.155C795.792 398.908 796.163 398.545 796.453 398.068C796.743 397.582 796.926 396.994 797.002 396.304H802.845C802.785 397.923 802.38 399.338 801.63 400.548C800.889 401.759 799.845 402.7 798.498 403.374C797.16 404.038 795.571 404.371 793.73 404.371ZM806.044 404V384.364H812.295V404H806.044ZM809.176 382.075C808.298 382.075 807.544 381.786 806.913 381.206C806.283 380.618 805.967 379.911 805.967 379.084C805.967 378.266 806.283 377.567 806.913 376.987C807.544 376.399 808.298 376.105 809.176 376.105C810.063 376.105 810.817 376.399 811.439 376.987C812.07 377.567 812.385 378.266 812.385 379.084C812.385 379.911 812.07 380.618 811.439 381.206C810.817 381.786 810.063 382.075 809.176 382.075ZM827.358 384.364V388.966H814.971V384.364H827.358ZM817.566 379.659H823.817V397.825C823.817 398.209 823.877 398.52 823.996 398.759C824.124 398.989 824.307 399.155 824.546 399.257C824.784 399.351 825.07 399.398 825.402 399.398C825.641 399.398 825.892 399.376 826.157 399.334C826.429 399.283 826.634 399.24 826.77 399.206L827.716 403.719C827.418 403.804 826.996 403.911 826.451 404.038C825.914 404.166 825.27 404.247 824.52 404.281C823.054 404.349 821.797 404.179 820.749 403.77C819.709 403.352 818.912 402.705 818.358 401.827C817.813 400.949 817.549 399.845 817.566 398.516V379.659ZM834.37 411.364C833.62 411.364 832.913 411.304 832.248 411.185C831.583 411.074 831.012 410.925 830.535 410.737L831.916 406.199C832.529 406.403 833.083 406.523 833.578 406.557C834.081 406.591 834.511 406.51 834.869 406.314C835.235 406.126 835.517 405.79 835.713 405.304L835.956 404.716L828.975 384.364H835.521L839.139 398.375H839.343L843.012 384.364H849.596L842.194 405.879C841.836 406.953 841.329 407.899 840.673 408.717C840.025 409.544 839.186 410.192 838.154 410.661C837.132 411.129 835.87 411.364 834.37 411.364Z" fill="black"/>
</g>
<g opacity="0.33">
<rect x="831" y="344" width="258" height="221" fill="#AAAAAA"/>
<path d="M913.392 432.909C913.392 435.79 912.838 438.232 911.73 440.234C910.623 442.237 909.123 443.759 907.23 444.798C905.347 445.838 903.233 446.358 900.89 446.358C898.537 446.358 896.419 445.834 894.536 444.786C892.652 443.737 891.157 442.216 890.049 440.222C888.949 438.219 888.4 435.781 888.4 432.909C888.4 430.028 888.949 427.587 890.049 425.584C891.157 423.581 892.652 422.06 894.536 421.02C896.419 419.98 898.537 419.46 900.89 419.46C903.233 419.46 905.347 419.98 907.23 421.02C909.123 422.06 910.623 423.581 911.73 425.584C912.838 427.587 913.392 430.028 913.392 432.909ZM906.924 432.909C906.924 431.205 906.681 429.764 906.195 428.588C905.718 427.412 905.027 426.521 904.124 425.916C903.229 425.311 902.151 425.009 900.89 425.009C899.637 425.009 898.559 425.311 897.655 425.916C896.752 426.521 896.057 427.412 895.571 428.588C895.094 429.764 894.855 431.205 894.855 432.909C894.855 434.614 895.094 436.054 895.571 437.23C896.057 438.406 896.752 439.297 897.655 439.902C898.559 440.507 899.637 440.81 900.89 440.81C902.151 440.81 903.229 440.507 904.124 439.902C905.027 439.297 905.718 438.406 906.195 437.23C906.681 436.054 906.924 434.614 906.924 432.909ZM917.087 446V426.364H923.159V429.943H923.364C923.722 428.648 924.306 427.685 925.115 427.054C925.925 426.415 926.867 426.095 927.941 426.095C928.23 426.095 928.529 426.116 928.836 426.159C929.142 426.193 929.428 426.249 929.692 426.325V431.759C929.394 431.656 929.002 431.575 928.516 431.516C928.039 431.456 927.613 431.426 927.238 431.426C926.496 431.426 925.827 431.592 925.23 431.925C924.642 432.249 924.178 432.705 923.837 433.293C923.505 433.872 923.338 434.554 923.338 435.338V446H917.087ZM938.392 446.281C936.943 446.281 935.626 445.906 934.441 445.156C933.257 444.406 932.311 443.281 931.603 441.781C930.896 440.281 930.542 438.419 930.542 436.195C930.542 433.885 930.909 431.984 931.642 430.493C932.375 429.001 933.333 427.898 934.518 427.182C935.711 426.466 936.994 426.108 938.366 426.108C939.397 426.108 940.279 426.287 941.012 426.645C941.745 426.994 942.35 427.446 942.828 428C943.305 428.554 943.667 429.129 943.914 429.726H944.042V419.818H950.294V446H944.106V442.817H943.914C943.65 443.422 943.275 443.989 942.789 444.517C942.304 445.045 941.694 445.472 940.961 445.795C940.237 446.119 939.38 446.281 938.392 446.281ZM940.565 441.411C941.324 441.411 941.971 441.197 942.508 440.771C943.045 440.337 943.458 439.727 943.748 438.943C944.038 438.159 944.183 437.239 944.183 436.182C944.183 435.108 944.038 434.183 943.748 433.408C943.467 432.632 943.054 432.036 942.508 431.618C941.971 431.2 941.324 430.991 940.565 430.991C939.789 430.991 939.133 431.205 938.596 431.631C938.059 432.057 937.65 432.658 937.369 433.433C937.096 434.209 936.96 435.125 936.96 436.182C936.96 437.239 937.1 438.159 937.382 438.943C937.663 439.727 938.068 440.337 938.596 440.771C939.133 441.197 939.789 441.411 940.565 441.411ZM963.426 446.371C961.372 446.371 959.599 445.966 958.108 445.156C956.625 444.338 955.483 443.175 954.682 441.666C953.889 440.149 953.493 438.347 953.493 436.259C953.493 434.23 953.893 432.457 954.695 430.94C955.496 429.415 956.625 428.23 958.082 427.386C959.54 426.534 961.257 426.108 963.234 426.108C964.632 426.108 965.911 426.325 967.07 426.76C968.229 427.195 969.23 427.838 970.074 428.69C970.918 429.543 971.574 430.595 972.043 431.848C972.511 433.092 972.746 434.52 972.746 436.131V437.69H955.679V434.06H966.929C966.92 433.395 966.763 432.803 966.456 432.283C966.149 431.763 965.727 431.358 965.19 431.068C964.662 430.77 964.053 430.621 963.362 430.621C962.663 430.621 962.037 430.778 961.483 431.094C960.929 431.401 960.49 431.822 960.166 432.359C959.842 432.888 959.672 433.489 959.655 434.162V437.857C959.655 438.658 959.813 439.361 960.128 439.966C960.443 440.562 960.891 441.027 961.47 441.359C962.05 441.692 962.74 441.858 963.541 441.858C964.095 441.858 964.598 441.781 965.05 441.628C965.501 441.474 965.889 441.249 966.213 440.95C966.537 440.652 966.78 440.286 966.942 439.851L972.682 440.017C972.443 441.304 971.919 442.425 971.109 443.379C970.308 444.325 969.256 445.062 967.952 445.591C966.648 446.111 965.139 446.371 963.426 446.371ZM975.939 446V426.364H982.011V429.943H982.216C982.574 428.648 983.157 427.685 983.967 427.054C984.777 426.415 985.718 426.095 986.792 426.095C987.082 426.095 987.38 426.116 987.687 426.159C987.994 426.193 988.279 426.249 988.544 426.325V431.759C988.245 431.656 987.853 431.575 987.368 431.516C986.89 431.456 986.464 431.426 986.089 431.426C985.348 431.426 984.679 431.592 984.082 431.925C983.494 432.249 983.029 432.705 982.689 433.293C982.356 433.872 982.19 434.554 982.19 435.338V446H975.939ZM1007.99 446.371C1005.93 446.371 1004.16 445.949 1002.67 445.105C1001.2 444.253 1000.06 443.068 999.26 441.551C998.467 440.026 998.071 438.257 998.071 436.246C998.071 434.226 998.467 432.457 999.26 430.94C1000.06 429.415 1001.2 428.23 1002.67 427.386C1004.16 426.534 1005.93 426.108 1007.99 426.108C1010.05 426.108 1011.82 426.534 1013.3 427.386C1014.78 428.23 1015.92 429.415 1016.71 430.94C1017.51 432.457 1017.91 434.226 1017.91 436.246C1017.91 438.257 1017.51 440.026 1016.71 441.551C1015.92 443.068 1014.78 444.253 1013.3 445.105C1011.82 445.949 1010.05 446.371 1007.99 446.371ZM1008.03 441.653C1008.78 441.653 1009.41 441.423 1009.93 440.963C1010.45 440.503 1010.85 439.864 1011.12 439.045C1011.4 438.227 1011.55 437.281 1011.55 436.207C1011.55 435.116 1011.4 434.162 1011.12 433.344C1010.85 432.526 1010.45 431.886 1009.93 431.426C1009.41 430.966 1008.78 430.736 1008.03 430.736C1007.25 430.736 1006.6 430.966 1006.06 431.426C1005.53 431.886 1005.13 432.526 1004.85 433.344C1004.57 434.162 1004.44 435.116 1004.44 436.207C1004.44 437.281 1004.57 438.227 1004.85 439.045C1005.13 439.864 1005.53 440.503 1006.06 440.963C1006.6 441.423 1007.25 441.653 1008.03 441.653ZM1032.27 426.364V430.966H1019.64V426.364H1032.27ZM1022.28 446V425.366C1022.28 423.849 1022.56 422.592 1023.13 421.595C1023.71 420.589 1024.5 419.839 1025.51 419.345C1026.53 418.842 1027.7 418.591 1029.03 418.591C1029.9 418.591 1030.72 418.659 1031.48 418.795C1032.26 418.923 1032.83 419.038 1033.21 419.141L1032.21 423.717C1031.98 423.641 1031.7 423.577 1031.37 423.526C1031.04 423.474 1030.74 423.449 1030.45 423.449C1029.71 423.449 1029.21 423.611 1028.94 423.935C1028.67 424.259 1028.53 424.702 1028.53 425.264V446H1022.28ZM858.59 490H851.789L860.623 463.818H869.048L877.881 490H871.08L864.931 470.415H864.727L858.59 490ZM857.683 479.696H871.898V484.503H857.683V479.696ZM880.7 497.364V470.364H886.888V473.726H887.08C887.335 473.129 887.697 472.554 888.166 472C888.643 471.446 889.249 470.994 889.982 470.645C890.723 470.287 891.609 470.108 892.641 470.108C894.004 470.108 895.278 470.466 896.463 471.182C897.656 471.898 898.619 473.001 899.352 474.493C900.085 475.984 900.452 477.885 900.452 480.195C900.452 482.419 900.098 484.281 899.391 485.781C898.692 487.281 897.746 488.406 896.553 489.156C895.368 489.906 894.051 490.281 892.602 490.281C891.614 490.281 890.757 490.119 890.033 489.795C889.308 489.472 888.699 489.045 888.205 488.517C887.719 487.989 887.344 487.422 887.08 486.817H886.952V497.364H880.7ZM886.824 480.182C886.824 481.239 886.964 482.159 887.246 482.943C887.536 483.727 887.949 484.337 888.486 484.771C889.031 485.197 889.683 485.411 890.442 485.411C891.209 485.411 891.861 485.197 892.398 484.771C892.935 484.337 893.339 483.727 893.612 482.943C893.893 482.159 894.034 481.239 894.034 480.182C894.034 479.125 893.893 478.209 893.612 477.433C893.339 476.658 892.935 476.057 892.398 475.631C891.869 475.205 891.217 474.991 890.442 474.991C889.675 474.991 889.023 475.2 888.486 475.618C887.949 476.036 887.536 476.632 887.246 477.408C886.964 478.183 886.824 479.108 886.824 480.182ZM903.728 497.364V470.364H909.915V473.726H910.107C910.363 473.129 910.725 472.554 911.194 472C911.671 471.446 912.276 470.994 913.009 470.645C913.75 470.287 914.637 470.108 915.668 470.108C917.032 470.108 918.306 470.466 919.49 471.182C920.684 471.898 921.647 473.001 922.38 474.493C923.113 475.984 923.479 477.885 923.479 480.195C923.479 482.419 923.125 484.281 922.418 485.781C921.719 487.281 920.773 488.406 919.58 489.156C918.395 489.906 917.078 490.281 915.63 490.281C914.641 490.281 913.784 490.119 913.06 489.795C912.336 489.472 911.726 489.045 911.232 488.517C910.746 487.989 910.371 487.422 910.107 486.817H909.979V497.364H903.728ZM909.851 480.182C909.851 481.239 909.992 482.159 910.273 482.943C910.563 483.727 910.976 484.337 911.513 484.771C912.059 485.197 912.711 485.411 913.469 485.411C914.236 485.411 914.888 485.197 915.425 484.771C915.962 484.337 916.367 483.727 916.64 482.943C916.921 482.159 917.061 481.239 917.061 480.182C917.061 479.125 916.921 478.209 916.64 477.433C916.367 476.658 915.962 476.057 915.425 475.631C914.897 475.205 914.245 474.991 913.469 474.991C912.702 474.991 912.05 475.2 911.513 475.618C910.976 476.036 910.563 476.632 910.273 477.408C909.992 478.183 909.851 479.108 909.851 480.182ZM935.934 490.371C933.88 490.371 932.107 489.966 930.616 489.156C929.133 488.338 927.991 487.175 927.19 485.666C926.397 484.149 926.001 482.347 926.001 480.259C926.001 478.23 926.401 476.457 927.202 474.94C928.004 473.415 929.133 472.23 930.59 471.386C932.048 470.534 933.765 470.108 935.742 470.108C937.14 470.108 938.418 470.325 939.577 470.76C940.737 471.195 941.738 471.838 942.582 472.69C943.425 473.543 944.082 474.595 944.55 475.848C945.019 477.092 945.254 478.52 945.254 480.131V481.69H928.187V478.06H939.437C939.428 477.395 939.271 476.803 938.964 476.283C938.657 475.763 938.235 475.358 937.698 475.068C937.17 474.77 936.56 474.621 935.87 474.621C935.171 474.621 934.545 474.778 933.991 475.094C933.437 475.401 932.998 475.822 932.674 476.359C932.35 476.888 932.18 477.489 932.163 478.162V481.857C932.163 482.658 932.32 483.361 932.636 483.966C932.951 484.562 933.398 485.027 933.978 485.359C934.558 485.692 935.248 485.858 936.049 485.858C936.603 485.858 937.106 485.781 937.558 485.628C938.009 485.474 938.397 485.249 938.721 484.95C939.045 484.652 939.288 484.286 939.45 483.851L945.19 484.017C944.951 485.304 944.427 486.425 943.617 487.379C942.816 488.325 941.763 489.062 940.46 489.591C939.156 490.111 937.647 490.371 935.934 490.371ZM953.982 490.332C952.729 490.332 951.617 490.124 950.645 489.706C949.682 489.28 948.919 488.641 948.357 487.788C947.803 486.928 947.526 485.849 947.526 484.554C947.526 483.463 947.718 482.543 948.101 481.793C948.485 481.043 949.013 480.433 949.686 479.964C950.36 479.496 951.135 479.142 952.013 478.903C952.891 478.656 953.828 478.49 954.826 478.405C955.942 478.303 956.841 478.196 957.523 478.085C958.205 477.966 958.699 477.8 959.006 477.587C959.321 477.365 959.479 477.054 959.479 476.653V476.589C959.479 475.933 959.253 475.426 958.801 475.068C958.35 474.71 957.74 474.531 956.973 474.531C956.147 474.531 955.482 474.71 954.979 475.068C954.476 475.426 954.157 475.92 954.02 476.551L948.255 476.347C948.425 475.153 948.864 474.088 949.571 473.151C950.287 472.205 951.267 471.463 952.512 470.926C953.765 470.381 955.269 470.108 957.025 470.108C958.277 470.108 959.432 470.257 960.489 470.555C961.546 470.845 962.466 471.271 963.25 471.834C964.034 472.388 964.64 473.07 965.066 473.879C965.5 474.689 965.718 475.614 965.718 476.653V490H959.837V487.264H959.684C959.334 487.929 958.887 488.491 958.341 488.952C957.804 489.412 957.169 489.757 956.436 489.987C955.712 490.217 954.894 490.332 953.982 490.332ZM955.912 486.241C956.586 486.241 957.191 486.105 957.728 485.832C958.273 485.56 958.708 485.185 959.032 484.707C959.355 484.222 959.517 483.659 959.517 483.02V481.153C959.338 481.247 959.121 481.332 958.865 481.409C958.618 481.486 958.346 481.558 958.047 481.626C957.749 481.695 957.442 481.754 957.127 481.805C956.811 481.857 956.509 481.903 956.219 481.946C955.631 482.04 955.128 482.185 954.711 482.381C954.301 482.577 953.986 482.832 953.765 483.148C953.551 483.455 953.445 483.821 953.445 484.247C953.445 484.895 953.675 485.389 954.135 485.73C954.604 486.071 955.196 486.241 955.912 486.241ZM969.54 490V470.364H975.613V473.943H975.817C976.175 472.648 976.759 471.685 977.569 471.054C978.378 470.415 979.32 470.095 980.394 470.095C980.684 470.095 980.982 470.116 981.289 470.159C981.596 470.193 981.881 470.249 982.145 470.325V475.759C981.847 475.656 981.455 475.575 980.969 475.516C980.492 475.456 980.066 475.426 979.691 475.426C978.949 475.426 978.28 475.592 977.684 475.925C977.096 476.249 976.631 476.705 976.29 477.293C975.958 477.872 975.792 478.554 975.792 479.338V490H969.54ZM989.49 490.332C988.237 490.332 987.125 490.124 986.153 489.706C985.19 489.28 984.427 488.641 983.865 487.788C983.311 486.928 983.034 485.849 983.034 484.554C983.034 483.463 983.225 482.543 983.609 481.793C983.993 481.043 984.521 480.433 985.194 479.964C985.868 479.496 986.643 479.142 987.521 478.903C988.399 478.656 989.336 478.49 990.333 478.405C991.45 478.303 992.349 478.196 993.031 478.085C993.713 477.966 994.207 477.8 994.514 477.587C994.829 477.365 994.987 477.054 994.987 476.653V476.589C994.987 475.933 994.761 475.426 994.309 475.068C993.858 474.71 993.248 474.531 992.481 474.531C991.654 474.531 990.99 474.71 990.487 475.068C989.984 475.426 989.664 475.92 989.528 476.551L983.762 476.347C983.933 475.153 984.372 474.088 985.079 473.151C985.795 472.205 986.775 471.463 988.02 470.926C989.272 470.381 990.777 470.108 992.532 470.108C993.785 470.108 994.94 470.257 995.997 470.555C997.054 470.845 997.974 471.271 998.758 471.834C999.542 472.388 1000.15 473.07 1000.57 473.879C1001.01 474.689 1001.23 475.614 1001.23 476.653V490H995.345V487.264H995.191C994.842 487.929 994.395 488.491 993.849 488.952C993.312 489.412 992.677 489.757 991.944 489.987C991.22 490.217 990.402 490.332 989.49 490.332ZM991.42 486.241C992.093 486.241 992.699 486.105 993.235 485.832C993.781 485.56 994.216 485.185 994.539 484.707C994.863 484.222 995.025 483.659 995.025 483.02V481.153C994.846 481.247 994.629 481.332 994.373 481.409C994.126 481.486 993.853 481.558 993.555 481.626C993.257 481.695 992.95 481.754 992.635 481.805C992.319 481.857 992.017 481.903 991.727 481.946C991.139 482.04 990.636 482.185 990.218 482.381C989.809 482.577 989.494 482.832 989.272 483.148C989.059 483.455 988.953 483.821 988.953 484.247C988.953 484.895 989.183 485.389 989.643 485.73C990.112 486.071 990.704 486.241 991.42 486.241ZM1011.3 478.801V490H1005.05V470.364H1010.99V473.969H1011.21C1011.64 472.767 1012.39 471.825 1013.43 471.143C1014.48 470.453 1015.73 470.108 1017.18 470.108C1018.56 470.108 1019.76 470.419 1020.77 471.041C1021.8 471.655 1022.59 472.516 1023.15 473.624C1023.72 474.723 1024 476.01 1023.99 477.484V490H1017.74V478.712C1017.75 477.621 1017.47 476.768 1016.91 476.155C1016.36 475.541 1015.59 475.234 1014.6 475.234C1013.94 475.234 1013.36 475.379 1012.86 475.669C1012.36 475.95 1011.98 476.355 1011.71 476.884C1011.44 477.412 1011.31 478.051 1011.3 478.801ZM1037.03 490.371C1034.96 490.371 1033.18 489.945 1031.7 489.092C1030.23 488.24 1029.09 487.055 1028.3 485.538C1027.51 484.013 1027.11 482.249 1027.11 480.246C1027.11 478.234 1027.51 476.47 1028.3 474.953C1029.1 473.428 1030.24 472.239 1031.71 471.386C1033.2 470.534 1034.96 470.108 1037.02 470.108C1038.83 470.108 1040.41 470.436 1041.76 471.092C1043.12 471.749 1044.17 472.678 1044.93 473.879C1045.7 475.072 1046.1 476.474 1046.15 478.085H1040.3C1040.18 477.08 1039.84 476.291 1039.28 475.72C1038.73 475.149 1038 474.864 1037.11 474.864C1036.38 474.864 1035.75 475.068 1035.2 475.477C1034.66 475.878 1034.23 476.474 1033.92 477.267C1033.63 478.051 1033.48 479.023 1033.48 480.182C1033.48 481.341 1033.63 482.321 1033.92 483.122C1034.23 483.915 1034.66 484.516 1035.2 484.925C1035.75 485.325 1036.38 485.526 1037.11 485.526C1037.69 485.526 1038.2 485.402 1038.64 485.155C1039.09 484.908 1039.46 484.545 1039.75 484.068C1040.04 483.582 1040.23 482.994 1040.3 482.304H1046.15C1046.09 483.923 1045.68 485.338 1044.93 486.548C1044.19 487.759 1043.15 488.7 1041.8 489.374C1040.46 490.038 1038.87 490.371 1037.03 490.371ZM1058.52 490.371C1056.47 490.371 1054.7 489.966 1053.21 489.156C1051.72 488.338 1050.58 487.175 1049.78 485.666C1048.99 484.149 1048.59 482.347 1048.59 480.259C1048.59 478.23 1048.99 476.457 1049.79 474.94C1050.59 473.415 1051.72 472.23 1053.18 471.386C1054.64 470.534 1056.35 470.108 1058.33 470.108C1059.73 470.108 1061.01 470.325 1062.17 470.76C1063.33 471.195 1064.33 471.838 1065.17 472.69C1066.02 473.543 1066.67 474.595 1067.14 475.848C1067.61 477.092 1067.84 478.52 1067.84 480.131V481.69H1050.78V478.06H1062.03C1062.02 477.395 1061.86 476.803 1061.55 476.283C1061.25 475.763 1060.82 475.358 1060.29 475.068C1059.76 474.77 1059.15 474.621 1058.46 474.621C1057.76 474.621 1057.13 474.778 1056.58 475.094C1056.03 475.401 1055.59 475.822 1055.26 476.359C1054.94 476.888 1054.77 477.489 1054.75 478.162V481.857C1054.75 482.658 1054.91 483.361 1055.23 483.966C1055.54 484.562 1055.99 485.027 1056.57 485.359C1057.15 485.692 1057.84 485.858 1058.64 485.858C1059.19 485.858 1059.7 485.781 1060.15 485.628C1060.6 485.474 1060.99 485.249 1061.31 484.95C1061.63 484.652 1061.88 484.286 1062.04 483.851L1067.78 484.017C1067.54 485.304 1067.02 486.425 1066.21 487.379C1065.41 488.325 1064.35 489.062 1063.05 489.591C1061.75 490.111 1060.24 490.371 1058.52 490.371Z" fill="black"/>
</g>
<rect width="258" height="221" fill="#AAAAAA"/>
<path d="M84.5194 88.9091C84.5194 91.7898 83.9654 94.2315 82.8574 96.2344C81.7495 98.2372 80.2495 99.7585 78.3574 100.798C76.4739 101.838 74.3603 102.358 72.0165 102.358C69.6642 102.358 67.5463 101.834 65.6628 100.786C63.7793 99.7372 62.2836 98.2159 61.1756 96.2216C60.0762 94.2187 59.5265 91.7812 59.5265 88.9091C59.5265 86.0284 60.0762 83.5866 61.1756 81.5838C62.2836 79.581 63.7793 78.0597 65.6628 77.0199C67.5463 75.9801 69.6642 75.4602 72.0165 75.4602C74.3603 75.4602 76.4739 75.9801 78.3574 77.0199C80.2495 78.0597 81.7495 79.581 82.8574 81.5838C83.9654 83.5866 84.5194 86.0284 84.5194 88.9091ZM78.0506 88.9091C78.0506 87.2045 77.8077 85.7642 77.3219 84.5881C76.8446 83.4119 76.1543 82.5213 75.2509 81.9162C74.356 81.3111 73.2779 81.0085 72.0165 81.0085C70.7637 81.0085 69.6855 81.3111 68.7821 81.9162C67.8787 82.5213 67.1841 83.4119 66.6983 84.5881C66.2211 85.7642 65.9824 87.2045 65.9824 88.9091C65.9824 90.6136 66.2211 92.054 66.6983 93.2301C67.1841 94.4062 67.8787 95.2969 68.7821 95.902C69.6855 96.5071 70.7637 96.8097 72.0165 96.8097C73.2779 96.8097 74.356 96.5071 75.2509 95.902C76.1543 95.2969 76.8446 94.4062 77.3219 93.2301C77.8077 92.054 78.0506 90.6136 78.0506 88.9091ZM88.214 102V82.3636H94.2864V85.9432H94.4909C94.8489 84.6477 95.4327 83.6847 96.2424 83.054C97.052 82.4148 97.9938 82.0952 99.0676 82.0952C99.3574 82.0952 99.6557 82.1165 99.9625 82.1591C100.269 82.1932 100.555 82.2486 100.819 82.3253V87.7585C100.521 87.6562 100.129 87.5753 99.6429 87.5156C99.1657 87.456 98.7395 87.4261 98.3645 87.4261C97.623 87.4261 96.954 87.5923 96.3574 87.9247C95.7694 88.2486 95.3049 88.7045 94.964 89.2926C94.6316 89.8722 94.4654 90.554 94.4654 91.3381V102H88.214ZM103.366 102V82.3636H109.618V102H103.366ZM106.498 80.0753C105.621 80.0753 104.866 79.7855 104.236 79.206C103.605 78.6179 103.29 77.9105 103.29 77.0838C103.29 76.2656 103.605 75.5668 104.236 74.9872C104.866 74.3991 105.621 74.1051 106.498 74.1051C107.385 74.1051 108.139 74.3991 108.761 74.9872C109.392 75.5668 109.707 76.2656 109.707 77.0838C109.707 77.9105 109.392 78.6179 108.761 79.206C108.139 79.7855 107.385 80.0753 106.498 80.0753ZM122.75 109.773C120.884 109.773 119.286 109.513 117.956 108.993C116.627 108.473 115.583 107.761 114.824 106.858C114.066 105.955 113.61 104.932 113.456 103.79L119.375 103.457C119.486 103.858 119.691 104.207 119.989 104.506C120.296 104.804 120.692 105.034 121.178 105.196C121.672 105.358 122.252 105.439 122.916 105.439C123.965 105.439 124.83 105.183 125.512 104.672C126.202 104.169 126.547 103.287 126.547 102.026V98.5739H126.33C126.083 99.179 125.708 99.7202 125.205 100.197C124.702 100.675 124.075 101.05 123.325 101.322C122.584 101.595 121.732 101.732 120.769 101.732C119.337 101.732 118.024 101.399 116.831 100.734C115.646 100.061 114.696 99.0213 113.98 97.6151C113.273 96.2003 112.919 94.3807 112.919 92.1562C112.919 89.8636 113.286 87.9759 114.019 86.4929C114.752 85.0014 115.71 83.8977 116.895 83.1818C118.088 82.4659 119.371 82.108 120.743 82.108C121.774 82.108 122.656 82.2869 123.389 82.6449C124.131 82.9943 124.74 83.446 125.218 84C125.695 84.554 126.057 85.1293 126.304 85.7259H126.483V82.3636H132.709V102.077C132.709 103.739 132.291 105.141 131.456 106.283C130.621 107.425 129.453 108.29 127.953 108.878C126.453 109.474 124.719 109.773 122.75 109.773ZM122.942 97.1804C123.7 97.1804 124.348 96.9801 124.885 96.5795C125.422 96.179 125.835 95.6037 126.125 94.8537C126.415 94.1037 126.56 93.2045 126.56 92.1562C126.56 91.0909 126.415 90.1747 126.125 89.4077C125.844 88.6321 125.431 88.0355 124.885 87.6179C124.348 87.2003 123.7 86.9915 122.942 86.9915C122.166 86.9915 121.51 87.2045 120.973 87.6307C120.436 88.0568 120.027 88.6577 119.746 89.4332C119.473 90.2003 119.337 91.108 119.337 92.1562C119.337 93.2045 119.477 94.1037 119.759 94.8537C120.04 95.6037 120.445 96.179 120.973 96.5795C121.51 96.9801 122.166 97.1804 122.942 97.1804ZM136.694 102V82.3636H142.946V102H136.694ZM139.827 80.0753C138.949 80.0753 138.194 79.7855 137.564 79.206C136.933 78.6179 136.618 77.9105 136.618 77.0838C136.618 76.2656 136.933 75.5668 137.564 74.9872C138.194 74.3991 138.949 74.1051 139.827 74.1051C140.713 74.1051 141.467 74.3991 142.089 74.9872C142.72 75.5668 143.035 76.2656 143.035 77.0838C143.035 77.9105 142.72 78.6179 142.089 79.206C141.467 79.7855 140.713 80.0753 139.827 80.0753ZM153.176 90.8011V102H146.925V82.3636H152.869V85.9688H153.087C153.521 84.767 154.263 83.8253 155.311 83.1435C156.36 82.4531 157.608 82.108 159.057 82.108C160.438 82.108 161.635 82.419 162.649 83.0412C163.672 83.6548 164.465 84.5156 165.027 85.6236C165.598 86.723 165.879 88.0099 165.871 89.4844V102H159.619V90.7116C159.628 89.6207 159.351 88.7685 158.789 88.1548C158.235 87.5412 157.463 87.2344 156.475 87.2344C155.818 87.2344 155.239 87.3793 154.736 87.669C154.242 87.9503 153.858 88.3551 153.585 88.8835C153.321 89.4119 153.185 90.0511 153.176 90.8011ZM185.709 102.396C183.868 102.396 182.278 102.068 180.94 101.412C179.611 100.756 178.588 99.8736 177.872 98.7656C177.156 97.6491 176.798 96.4091 176.798 95.0455C176.798 94.0398 176.994 93.1534 177.386 92.3864C177.787 91.6108 178.336 90.8991 179.035 90.2514C179.743 89.5952 180.565 88.9517 181.503 88.321L187 84.8054C187.622 84.4134 188.061 84 188.317 83.5653C188.581 83.1307 188.713 82.696 188.713 82.2614C188.713 81.7926 188.53 81.3665 188.163 80.983C187.805 80.5994 187.273 80.4119 186.565 80.4205C186.113 80.4205 185.721 80.5142 185.389 80.7017C185.057 80.8892 184.797 81.1406 184.609 81.456C184.43 81.7713 184.341 82.1293 184.341 82.5298C184.341 83.0497 184.49 83.5824 184.788 84.1278C185.086 84.6733 185.487 85.2528 185.99 85.8665C186.501 86.4801 187.068 87.1577 187.69 87.8991L200.231 102H193.865L183.369 90.6094C182.773 89.9446 182.146 89.1989 181.49 88.3722C180.834 87.5455 180.28 86.642 179.828 85.6619C179.376 84.6733 179.15 83.5994 179.15 82.4403C179.15 81.1364 179.457 79.956 180.071 78.8991C180.684 77.8423 181.545 77.0028 182.653 76.3807C183.77 75.75 185.069 75.4347 186.552 75.4347C187.984 75.4347 189.22 75.7287 190.26 76.3168C191.3 76.9048 192.101 77.6847 192.663 78.6562C193.226 79.6278 193.507 80.6932 193.507 81.8523C193.507 83.0795 193.204 84.2088 192.599 85.2401C191.994 86.2628 191.138 87.1705 190.03 87.9631L184.648 91.8111C184.077 92.2202 183.629 92.6591 183.305 93.1278C182.981 93.5881 182.819 94.0909 182.819 94.6364C182.819 95.1989 182.952 95.6889 183.216 96.1065C183.488 96.5241 183.872 96.8523 184.366 97.0909C184.861 97.3295 185.44 97.4489 186.105 97.4489C186.991 97.4489 187.878 97.2401 188.764 96.8224C189.65 96.3963 190.46 95.7997 191.193 95.0327C191.926 94.2571 192.514 93.3409 192.957 92.2841C193.4 91.2188 193.622 90.0511 193.622 88.7812H198.659C198.659 90.3494 198.493 91.8068 198.16 93.1534C197.828 94.4915 197.329 95.6932 196.665 96.7585C196.008 97.8153 195.194 98.6932 194.223 99.392C193.916 99.5625 193.618 99.7244 193.328 99.8778C193.038 100.031 192.74 100.193 192.433 100.364C191.427 101.088 190.336 101.608 189.16 101.923C187.993 102.239 186.842 102.396 185.709 102.396ZM34.1261 119.818V146H27.7979V119.818H34.1261ZM38.0987 146V126.364H44.0433V129.969H44.2607C44.6697 128.776 45.3601 127.834 46.3317 127.143C47.3033 126.453 48.4624 126.108 49.8089 126.108C51.1726 126.108 52.3402 126.457 53.3118 127.156C54.2834 127.855 54.9013 128.793 55.1655 129.969H55.37C55.7365 128.801 56.4524 127.868 57.5178 127.169C58.5831 126.462 59.8402 126.108 61.2891 126.108C63.147 126.108 64.6555 126.705 65.8146 127.898C66.9737 129.082 67.5533 130.71 67.5533 132.781V146H61.3018V134.213C61.3018 133.233 61.0504 132.487 60.5476 131.976C60.0447 131.456 59.3928 131.196 58.5916 131.196C57.7308 131.196 57.0533 131.477 56.559 132.04C56.0732 132.594 55.8303 133.339 55.8303 134.277V146H49.8217V134.149C49.8217 133.237 49.5746 132.517 49.0803 131.989C48.5859 131.46 47.9339 131.196 47.1243 131.196C46.5788 131.196 46.0973 131.328 45.6797 131.592C45.2621 131.848 44.9339 132.214 44.6953 132.692C44.4652 133.169 44.3501 133.732 44.3501 134.379V146H38.0987ZM71.4268 153.364V126.364H77.6143V129.726H77.8061C78.0618 129.129 78.424 128.554 78.8928 128C79.37 127.446 79.9751 126.994 80.7081 126.645C81.4496 126.287 82.3359 126.108 83.3672 126.108C84.7308 126.108 86.005 126.466 87.1896 127.182C88.3828 127.898 89.3459 129.001 90.0788 130.493C90.8118 131.984 91.1783 133.885 91.1783 136.195C91.1783 138.419 90.8246 140.281 90.1172 141.781C89.4183 143.281 88.4723 144.406 87.2791 145.156C86.0945 145.906 84.7777 146.281 83.3288 146.281C82.3402 146.281 81.4837 146.119 80.7592 145.795C80.0348 145.472 79.4254 145.045 78.9311 144.517C78.4453 143.989 78.0703 143.422 77.8061 142.817H77.6783V153.364H71.4268ZM77.5504 136.182C77.5504 137.239 77.6911 138.159 77.9723 138.943C78.2621 139.727 78.6754 140.337 79.2124 140.771C79.7578 141.197 80.4098 141.411 81.1683 141.411C81.9354 141.411 82.5874 141.197 83.1243 140.771C83.6612 140.337 84.0661 139.727 84.3388 138.943C84.62 138.159 84.7607 137.239 84.7607 136.182C84.7607 135.125 84.62 134.209 84.3388 133.433C84.0661 132.658 83.6612 132.057 83.1243 131.631C82.5959 131.205 81.9439 130.991 81.1683 130.991C80.4013 130.991 79.7493 131.2 79.2124 131.618C78.6754 132.036 78.2621 132.632 77.9723 133.408C77.6911 134.183 77.5504 135.108 77.5504 136.182ZM103.62 146.371C101.558 146.371 99.7852 145.949 98.3022 145.105C96.8278 144.253 95.69 143.068 94.8888 141.551C94.0962 140.026 93.6999 138.257 93.6999 136.246C93.6999 134.226 94.0962 132.457 94.8888 130.94C95.69 129.415 96.8278 128.23 98.3022 127.386C99.7852 126.534 101.558 126.108 103.62 126.108C105.683 126.108 107.451 126.534 108.926 127.386C110.409 128.23 111.547 129.415 112.339 130.94C113.14 132.457 113.541 134.226 113.541 136.246C113.541 138.257 113.14 140.026 112.339 141.551C111.547 143.068 110.409 144.253 108.926 145.105C107.451 145.949 105.683 146.371 103.62 146.371ZM103.659 141.653C104.409 141.653 105.044 141.423 105.564 140.963C106.083 140.503 106.48 139.864 106.752 139.045C107.034 138.227 107.174 137.281 107.174 136.207C107.174 135.116 107.034 134.162 106.752 133.344C106.48 132.526 106.083 131.886 105.564 131.426C105.044 130.966 104.409 130.736 103.659 130.736C102.883 130.736 102.227 130.966 101.69 131.426C101.162 131.886 100.757 132.526 100.475 133.344C100.203 134.162 100.066 135.116 100.066 136.207C100.066 137.281 100.203 138.227 100.475 139.045C100.757 139.864 101.162 140.503 101.69 140.963C102.227 141.423 102.883 141.653 103.659 141.653ZM116.743 146V126.364H122.816V129.943H123.02C123.378 128.648 123.962 127.685 124.772 127.054C125.581 126.415 126.523 126.095 127.597 126.095C127.887 126.095 128.185 126.116 128.492 126.159C128.799 126.193 129.084 126.249 129.348 126.325V131.759C129.05 131.656 128.658 131.575 128.172 131.516C127.695 131.456 127.269 131.426 126.894 131.426C126.152 131.426 125.483 131.592 124.887 131.925C124.299 132.249 123.834 132.705 123.493 133.293C123.161 133.872 122.995 134.554 122.995 135.338V146H116.743ZM143.893 126.364V130.966H131.506V126.364H143.893ZM134.101 121.659H140.352V139.825C140.352 140.209 140.412 140.52 140.531 140.759C140.659 140.989 140.842 141.155 141.081 141.257C141.32 141.351 141.605 141.398 141.938 141.398C142.176 141.398 142.428 141.376 142.692 141.334C142.964 141.283 143.169 141.24 143.305 141.206L144.251 145.719C143.953 145.804 143.531 145.911 142.986 146.038C142.449 146.166 141.805 146.247 141.055 146.281C139.589 146.349 138.332 146.179 137.284 145.77C136.244 145.352 135.447 144.705 134.893 143.827C134.348 142.949 134.084 141.845 134.101 140.516V121.659ZM152.619 146.332C151.366 146.332 150.254 146.124 149.282 145.706C148.319 145.28 147.556 144.641 146.994 143.788C146.44 142.928 146.163 141.849 146.163 140.554C146.163 139.463 146.354 138.543 146.738 137.793C147.121 137.043 147.65 136.433 148.323 135.964C148.996 135.496 149.772 135.142 150.65 134.903C151.528 134.656 152.465 134.49 153.462 134.405C154.579 134.303 155.478 134.196 156.16 134.085C156.842 133.966 157.336 133.8 157.643 133.587C157.958 133.365 158.116 133.054 158.116 132.653V132.589C158.116 131.933 157.89 131.426 157.438 131.068C156.987 130.71 156.377 130.531 155.61 130.531C154.783 130.531 154.119 130.71 153.616 131.068C153.113 131.426 152.793 131.92 152.657 132.551L146.891 132.347C147.062 131.153 147.501 130.088 148.208 129.151C148.924 128.205 149.904 127.463 151.148 126.926C152.401 126.381 153.906 126.108 155.661 126.108C156.914 126.108 158.069 126.257 159.126 126.555C160.183 126.845 161.103 127.271 161.887 127.834C162.671 128.388 163.276 129.07 163.702 129.879C164.137 130.689 164.354 131.614 164.354 132.653V146H158.474V143.264H158.32C157.971 143.929 157.523 144.491 156.978 144.952C156.441 145.412 155.806 145.757 155.073 145.987C154.349 146.217 153.531 146.332 152.619 146.332ZM154.549 142.241C155.222 142.241 155.827 142.105 156.364 141.832C156.91 141.56 157.344 141.185 157.668 140.707C157.992 140.222 158.154 139.659 158.154 139.02V137.153C157.975 137.247 157.758 137.332 157.502 137.409C157.255 137.486 156.982 137.558 156.684 137.626C156.386 137.695 156.079 137.754 155.763 137.805C155.448 137.857 155.146 137.903 154.856 137.946C154.268 138.04 153.765 138.185 153.347 138.381C152.938 138.577 152.623 138.832 152.401 139.148C152.188 139.455 152.082 139.821 152.082 140.247C152.082 140.895 152.312 141.389 152.772 141.73C153.241 142.071 153.833 142.241 154.549 142.241ZM174.428 134.801V146H168.177V126.364H174.121V129.969H174.339C174.773 128.767 175.515 127.825 176.563 127.143C177.612 126.453 178.86 126.108 180.309 126.108C181.69 126.108 182.887 126.419 183.901 127.041C184.924 127.655 185.717 128.516 186.279 129.624C186.85 130.723 187.131 132.01 187.123 133.484V146H180.871V134.712C180.88 133.621 180.603 132.768 180.04 132.155C179.487 131.541 178.715 131.234 177.727 131.234C177.07 131.234 176.491 131.379 175.988 131.669C175.494 131.95 175.11 132.355 174.837 132.884C174.573 133.412 174.437 134.051 174.428 134.801ZM200.159 146.371C198.088 146.371 196.311 145.945 194.828 145.092C193.354 144.24 192.221 143.055 191.428 141.538C190.635 140.013 190.239 138.249 190.239 136.246C190.239 134.234 190.635 132.47 191.428 130.953C192.229 129.428 193.367 128.239 194.841 127.386C196.324 126.534 198.093 126.108 200.147 126.108C201.962 126.108 203.543 126.436 204.89 127.092C206.245 127.749 207.301 128.678 208.06 129.879C208.827 131.072 209.232 132.474 209.275 134.085H203.432C203.313 133.08 202.972 132.291 202.409 131.72C201.855 131.149 201.131 130.864 200.236 130.864C199.512 130.864 198.877 131.068 198.331 131.477C197.786 131.878 197.36 132.474 197.053 133.267C196.755 134.051 196.605 135.023 196.605 136.182C196.605 137.341 196.755 138.321 197.053 139.122C197.36 139.915 197.786 140.516 198.331 140.925C198.877 141.325 199.512 141.526 200.236 141.526C200.816 141.526 201.327 141.402 201.77 141.155C202.222 140.908 202.593 140.545 202.882 140.068C203.172 139.582 203.355 138.994 203.432 138.304H209.275C209.215 139.923 208.81 141.338 208.06 142.548C207.319 143.759 206.275 144.7 204.928 145.374C203.59 146.038 202 146.371 200.159 146.371ZM221.653 146.371C219.599 146.371 217.826 145.966 216.335 145.156C214.852 144.338 213.71 143.175 212.908 141.666C212.116 140.149 211.719 138.347 211.719 136.259C211.719 134.23 212.12 132.457 212.921 130.94C213.722 129.415 214.852 128.23 216.309 127.386C217.766 126.534 219.484 126.108 221.461 126.108C222.859 126.108 224.137 126.325 225.296 126.76C226.455 127.195 227.457 127.838 228.3 128.69C229.144 129.543 229.8 130.595 230.269 131.848C230.738 133.092 230.972 134.52 230.972 136.131V137.69H213.906V134.06H225.156C225.147 133.395 224.989 132.803 224.683 132.283C224.376 131.763 223.954 131.358 223.417 131.068C222.888 130.77 222.279 130.621 221.589 130.621C220.89 130.621 220.263 130.778 219.71 131.094C219.156 131.401 218.717 131.822 218.393 132.359C218.069 132.888 217.898 133.489 217.881 134.162V137.857C217.881 138.658 218.039 139.361 218.354 139.966C218.67 140.562 219.117 141.027 219.697 141.359C220.276 141.692 220.967 141.858 221.768 141.858C222.322 141.858 222.825 141.781 223.276 141.628C223.728 141.474 224.116 141.249 224.44 140.95C224.763 140.652 225.006 140.286 225.168 139.851L230.908 140.017C230.67 141.304 230.146 142.425 229.336 143.379C228.535 144.325 227.482 145.062 226.178 145.591C224.874 146.111 223.366 146.371 221.653 146.371Z" fill="black"/>
</svg>
