<svg width="1297" height="651" viewBox="0 0 1297 651" fill="none" xmlns="http://www.w3.org/2000/svg">
<g opacity="0.25">
<rect width="258" height="221" fill="#AAAAAA"/>
<path d="M85.1985 88.9091C85.1985 91.7642 84.6573 94.1932 83.5749 96.196C82.5011 98.1989 81.0352 99.7287 79.1772 100.786C77.3278 101.834 75.2482 102.358 72.9386 102.358C70.6119 102.358 68.5238 101.83 66.6744 100.773C64.8249 99.7159 63.3633 98.1861 62.2894 96.1832C61.2156 94.1804 60.6786 91.7557 60.6786 88.9091C60.6786 86.054 61.2156 83.625 62.2894 81.6222C63.3633 79.6193 64.8249 78.0937 66.6744 77.0455C68.5238 75.9886 70.6119 75.4602 72.9386 75.4602C75.2482 75.4602 77.3278 75.9886 79.1772 77.0455C81.0352 78.0937 82.5011 79.6193 83.5749 81.6222C84.6573 83.625 85.1985 86.054 85.1985 88.9091ZM79.5863 88.9091C79.5863 87.0597 79.3093 85.5 78.7553 84.2301C78.2099 82.9602 77.4386 81.9972 76.4414 81.3409C75.4442 80.6847 74.2766 80.3565 72.9386 80.3565C71.6005 80.3565 70.4329 80.6847 69.4357 81.3409C68.4386 81.9972 67.663 82.9602 67.109 84.2301C66.5636 85.5 66.2908 87.0597 66.2908 88.9091C66.2908 90.7585 66.5636 92.3182 67.109 93.5881C67.663 94.858 68.4386 95.821 69.4357 96.4773C70.4329 97.1335 71.6005 97.4616 72.9386 97.4616C74.2766 97.4616 75.4442 97.1335 76.4414 96.4773C77.4386 95.821 78.2099 94.858 78.7553 93.5881C79.3093 92.3182 79.5863 90.7585 79.5863 88.9091ZM89.1967 102V82.3636H94.4766V85.7898H94.6811C95.0391 84.571 95.6399 83.6506 96.4837 83.0284C97.3274 82.3977 98.299 82.0824 99.3984 82.0824C99.6712 82.0824 99.9652 82.0994 100.281 82.1335C100.596 82.1676 100.873 82.2145 101.112 82.2741V87.1065C100.856 87.0298 100.502 86.9616 100.05 86.902C99.5987 86.8423 99.1854 86.8125 98.8104 86.8125C98.0092 86.8125 97.2933 86.9872 96.6626 87.3366C96.0405 87.6776 95.5462 88.1548 95.1797 88.7685C94.8217 89.3821 94.6428 90.0895 94.6428 90.8906V102H89.1967ZM103.927 102V82.3636H109.373V102H103.927ZM106.663 79.8324C105.853 79.8324 105.159 79.5639 104.579 79.027C104.008 78.4815 103.723 77.8295 103.723 77.071C103.723 76.321 104.008 75.6776 104.579 75.1406C105.159 74.5952 105.853 74.3224 106.663 74.3224C107.473 74.3224 108.163 74.5952 108.734 75.1406C109.314 75.6776 109.603 76.321 109.603 77.071C109.603 77.8295 109.314 78.4815 108.734 79.027C108.163 79.5639 107.473 79.8324 106.663 79.8324ZM122.582 109.773C120.818 109.773 119.305 109.53 118.044 109.044C116.791 108.567 115.794 107.915 115.053 107.088C114.311 106.261 113.83 105.332 113.608 104.301L118.645 103.624C118.798 104.016 119.041 104.382 119.374 104.723C119.706 105.064 120.145 105.337 120.69 105.541C121.244 105.754 121.918 105.861 122.71 105.861C123.895 105.861 124.871 105.571 125.638 104.991C126.413 104.42 126.801 103.462 126.801 102.115V98.5227H126.571C126.332 99.0682 125.974 99.5838 125.497 100.07C125.02 100.555 124.406 100.952 123.656 101.259C122.906 101.565 122.011 101.719 120.972 101.719C119.497 101.719 118.155 101.378 116.945 100.696C115.743 100.006 114.784 98.9531 114.068 97.5384C113.361 96.1151 113.007 94.3168 113.007 92.1435C113.007 89.919 113.369 88.0611 114.094 86.5696C114.818 85.0781 115.781 83.9616 116.983 83.2202C118.193 82.4787 119.518 82.108 120.959 82.108C122.058 82.108 122.979 82.2955 123.72 82.6705C124.462 83.0369 125.058 83.4972 125.51 84.0511C125.97 84.5966 126.324 85.1335 126.571 85.6619H126.776V82.3636H132.183V102.192C132.183 103.862 131.774 105.26 130.956 106.385C130.138 107.51 129.004 108.354 127.555 108.916C126.115 109.487 124.457 109.773 122.582 109.773ZM122.697 97.6278C123.575 97.6278 124.317 97.4105 124.922 96.9759C125.536 96.5327 126.004 95.902 126.328 95.0838C126.661 94.2571 126.827 93.2685 126.827 92.1179C126.827 90.9673 126.665 89.9702 126.341 89.1264C126.017 88.2741 125.548 87.6136 124.935 87.1449C124.321 86.6761 123.575 86.4418 122.697 86.4418C121.803 86.4418 121.048 86.6847 120.435 87.1705C119.821 87.6477 119.357 88.3125 119.041 89.1648C118.726 90.017 118.568 91.0014 118.568 92.1179C118.568 93.2514 118.726 94.2315 119.041 95.0582C119.365 95.8764 119.83 96.5114 120.435 96.9631C121.048 97.4062 121.803 97.6278 122.697 97.6278ZM136.517 102V82.3636H141.963V102H136.517ZM139.253 79.8324C138.443 79.8324 137.749 79.5639 137.169 79.027C136.598 78.4815 136.312 77.8295 136.312 77.071C136.312 76.321 136.598 75.6776 137.169 75.1406C137.749 74.5952 138.443 74.3224 139.253 74.3224C140.063 74.3224 140.753 74.5952 141.324 75.1406C141.903 75.6776 142.193 76.321 142.193 77.071C142.193 77.8295 141.903 78.4815 141.324 79.027C140.753 79.5639 140.063 79.8324 139.253 79.8324ZM151.772 90.6477V102H146.326V82.3636H151.516V85.8281H151.746C152.181 84.6861 152.909 83.7827 153.932 83.1179C154.955 82.4446 156.195 82.108 157.652 82.108C159.016 82.108 160.205 82.4062 161.219 83.0028C162.233 83.5994 163.022 84.4517 163.584 85.5597C164.147 86.6591 164.428 87.9716 164.428 89.4972V102H158.982V90.4688C158.99 89.267 158.684 88.3295 158.061 87.6562C157.439 86.9744 156.583 86.6335 155.492 86.6335C154.759 86.6335 154.111 86.7912 153.549 87.1065C152.995 87.4219 152.56 87.8821 152.245 88.4872C151.938 89.0838 151.78 89.804 151.772 90.6477ZM185.081 102.384C183.274 102.384 181.714 102.06 180.402 101.412C179.089 100.764 178.079 99.8864 177.372 98.7784C176.673 97.6619 176.324 96.4176 176.324 95.0455C176.324 94.0227 176.528 93.1151 176.937 92.3224C177.346 91.5298 177.917 90.8011 178.65 90.1364C179.383 89.4631 180.235 88.794 181.207 88.1293L186.282 84.7926C186.939 84.375 187.42 83.9361 187.727 83.4759C188.034 83.0071 188.187 82.5 188.187 81.9545C188.187 81.4347 187.978 80.9531 187.561 80.5099C187.143 80.0668 186.551 79.8494 185.784 79.858C185.272 79.858 184.829 79.973 184.454 80.2031C184.079 80.4247 183.785 80.7187 183.572 81.0852C183.368 81.4432 183.265 81.8438 183.265 82.2869C183.265 82.8324 183.419 83.3864 183.725 83.9489C184.032 84.5114 184.441 85.108 184.953 85.7386C185.464 86.3608 186.022 87.0341 186.627 87.7585L199.041 102H193.365L183.01 90.4688C182.328 89.6932 181.646 88.8835 180.964 88.0398C180.291 87.1875 179.728 86.2841 179.277 85.3295C178.825 84.3665 178.599 83.3224 178.599 82.1974C178.599 80.9276 178.893 79.7855 179.481 78.7713C180.078 77.7571 180.913 76.956 181.987 76.3679C183.061 75.7713 184.314 75.473 185.745 75.473C187.143 75.473 188.349 75.7585 189.363 76.3295C190.386 76.892 191.17 77.642 191.716 78.5795C192.27 79.5085 192.547 80.5312 192.547 81.6477C192.547 82.8835 192.24 84.0043 191.626 85.0099C191.021 86.0071 190.169 86.902 189.069 87.6946L183.725 91.5426C183.001 92.071 182.464 92.6122 182.115 93.1662C181.774 93.7116 181.603 94.2358 181.603 94.7386C181.603 95.3608 181.757 95.919 182.064 96.4134C182.37 96.9077 182.805 97.2997 183.368 97.5895C183.93 97.8707 184.591 98.0114 185.349 98.0114C186.27 98.0114 187.177 97.8026 188.072 97.3849C188.975 96.9588 189.794 96.358 190.527 95.5824C191.268 94.7983 191.86 93.8693 192.304 92.7955C192.747 91.7216 192.968 90.5327 192.968 89.2287H197.481C197.481 90.831 197.306 92.2756 196.957 93.5625C196.608 94.8409 196.122 95.9574 195.5 96.9119C194.877 97.858 194.166 98.6335 193.365 99.2386C193.109 99.4006 192.862 99.554 192.623 99.6989C192.385 99.8438 192.137 99.9972 191.882 100.159C190.91 100.943 189.824 101.51 188.622 101.859C187.429 102.209 186.248 102.384 185.081 102.384ZM35.104 119.818V146H29.5685V119.818H35.104ZM39.5561 146V126.364H44.7464V129.828H44.9766C45.3857 128.678 46.0675 127.77 47.022 127.105C47.9766 126.44 49.1186 126.108 50.4482 126.108C51.7947 126.108 52.9411 126.445 53.8871 127.118C54.8331 127.783 55.4638 128.686 55.7791 129.828H55.9837C56.3842 128.703 57.1087 127.804 58.157 127.131C59.2138 126.449 60.4624 126.108 61.9027 126.108C63.7351 126.108 65.2223 126.692 66.3643 127.859C67.5149 129.018 68.0902 130.663 68.0902 132.794V146H62.657V133.868C62.657 132.777 62.3672 131.959 61.7876 131.413C61.2081 130.868 60.4837 130.595 59.6143 130.595C58.6257 130.595 57.8544 130.911 57.3004 131.541C56.7464 132.163 56.4695 132.986 56.4695 134.009V146H51.1896V133.753C51.1896 132.79 50.9126 132.023 50.3587 131.452C49.8132 130.881 49.093 130.595 48.1982 130.595C47.593 130.595 47.0476 130.749 46.5618 131.055C46.0845 131.354 45.7053 131.776 45.424 132.321C45.1428 132.858 45.0021 133.489 45.0021 134.213V146H39.5561ZM72.392 153.364V126.364H77.7614V129.662H78.0043C78.2429 129.134 78.5881 128.597 79.0398 128.051C79.5 127.497 80.0966 127.037 80.8295 126.67C81.571 126.295 82.4915 126.108 83.5909 126.108C85.0227 126.108 86.3438 126.483 87.554 127.233C88.7642 127.974 89.7315 129.095 90.456 130.595C91.1804 132.087 91.5426 133.957 91.5426 136.207C91.5426 138.398 91.1889 140.247 90.4815 141.756C89.7827 143.256 88.8281 144.393 87.6179 145.169C86.4162 145.936 85.0696 146.32 83.5781 146.32C82.5213 146.32 81.6222 146.145 80.8807 145.795C80.1477 145.446 79.5469 145.007 79.0781 144.479C78.6094 143.942 78.2514 143.401 78.0043 142.855H77.8381V153.364H72.392ZM77.723 136.182C77.723 137.349 77.8849 138.368 78.2088 139.237C78.5327 140.107 79.0014 140.784 79.6151 141.27C80.2287 141.747 80.9744 141.986 81.8523 141.986C82.7386 141.986 83.4886 141.743 84.1023 141.257C84.7159 140.763 85.1804 140.081 85.4957 139.212C85.8196 138.334 85.9815 137.324 85.9815 136.182C85.9815 135.048 85.8239 134.051 85.5085 133.19C85.1932 132.33 84.7287 131.656 84.1151 131.17C83.5014 130.685 82.7472 130.442 81.8523 130.442C80.9659 130.442 80.2159 130.676 79.6023 131.145C78.9972 131.614 78.5327 132.278 78.2088 133.139C77.8849 134 77.723 135.014 77.723 136.182ZM104.045 146.384C102.06 146.384 100.342 145.962 98.8935 145.118C97.4531 144.266 96.3409 143.081 95.5568 141.564C94.7727 140.038 94.3807 138.27 94.3807 136.259C94.3807 134.23 94.7727 132.457 95.5568 130.94C96.3409 129.415 97.4531 128.23 98.8935 127.386C100.342 126.534 102.06 126.108 104.045 126.108C106.031 126.108 107.744 126.534 109.185 127.386C110.634 128.23 111.75 129.415 112.534 130.94C113.318 132.457 113.71 134.23 113.71 136.259C113.71 138.27 113.318 140.038 112.534 141.564C111.75 143.081 110.634 144.266 109.185 145.118C107.744 145.962 106.031 146.384 104.045 146.384ZM104.071 142.165C104.974 142.165 105.729 141.909 106.334 141.398C106.939 140.878 107.395 140.17 107.702 139.276C108.017 138.381 108.175 137.362 108.175 136.22C108.175 135.078 108.017 134.06 107.702 133.165C107.395 132.27 106.939 131.562 106.334 131.043C105.729 130.523 104.974 130.263 104.071 130.263C103.159 130.263 102.392 130.523 101.77 131.043C101.156 131.562 100.692 132.27 100.376 133.165C100.07 134.06 99.9162 135.078 99.9162 136.22C99.9162 137.362 100.07 138.381 100.376 139.276C100.692 140.17 101.156 140.878 101.77 141.398C102.392 141.909 103.159 142.165 104.071 142.165ZM117.251 146V126.364H122.531V129.79H122.736C123.094 128.571 123.695 127.651 124.538 127.028C125.382 126.398 126.354 126.082 127.453 126.082C127.726 126.082 128.02 126.099 128.335 126.134C128.651 126.168 128.928 126.214 129.166 126.274V131.107C128.911 131.03 128.557 130.962 128.105 130.902C127.653 130.842 127.24 130.812 126.865 130.812C126.064 130.812 125.348 130.987 124.717 131.337C124.095 131.678 123.601 132.155 123.234 132.768C122.876 133.382 122.697 134.089 122.697 134.891V146H117.251ZM143.411 126.364V130.455H131.586V126.364H143.411ZM134.27 121.659H139.716V139.966C139.716 140.469 139.793 140.861 139.946 141.142C140.1 141.415 140.313 141.607 140.586 141.717C140.867 141.828 141.191 141.884 141.557 141.884C141.813 141.884 142.069 141.862 142.324 141.82C142.58 141.768 142.776 141.73 142.912 141.705L143.769 145.757C143.496 145.842 143.113 145.94 142.618 146.051C142.124 146.17 141.523 146.243 140.816 146.268C139.503 146.32 138.353 146.145 137.364 145.744C136.384 145.344 135.621 144.722 135.076 143.878C134.53 143.034 134.262 141.969 134.27 140.682V121.659ZM152.558 146.371C151.305 146.371 150.189 146.153 149.208 145.719C148.228 145.276 147.453 144.624 146.882 143.763C146.319 142.893 146.038 141.811 146.038 140.516C146.038 139.425 146.238 138.509 146.639 137.767C147.039 137.026 147.585 136.429 148.275 135.977C148.966 135.526 149.75 135.185 150.627 134.955C151.514 134.724 152.443 134.562 153.414 134.469C154.556 134.349 155.477 134.239 156.176 134.136C156.875 134.026 157.382 133.864 157.697 133.651C158.012 133.437 158.17 133.122 158.17 132.705V132.628C158.17 131.818 157.914 131.192 157.403 130.749C156.9 130.305 156.184 130.084 155.255 130.084C154.275 130.084 153.495 130.301 152.916 130.736C152.336 131.162 151.953 131.699 151.765 132.347L146.728 131.938C146.984 130.744 147.487 129.713 148.237 128.844C148.987 127.966 149.954 127.293 151.139 126.824C152.332 126.347 153.713 126.108 155.281 126.108C156.372 126.108 157.416 126.236 158.413 126.491C159.419 126.747 160.309 127.143 161.085 127.68C161.869 128.217 162.487 128.908 162.939 129.751C163.39 130.587 163.616 131.588 163.616 132.756V146H158.451V143.277H158.298C157.983 143.891 157.561 144.432 157.032 144.901C156.504 145.361 155.869 145.723 155.127 145.987C154.386 146.243 153.529 146.371 152.558 146.371ZM154.118 142.612C154.919 142.612 155.626 142.455 156.24 142.139C156.853 141.815 157.335 141.381 157.684 140.835C158.034 140.29 158.208 139.672 158.208 138.982V136.898C158.038 137.009 157.804 137.111 157.505 137.205C157.216 137.29 156.887 137.371 156.521 137.447C156.154 137.516 155.788 137.58 155.422 137.639C155.055 137.69 154.723 137.737 154.424 137.78C153.785 137.874 153.227 138.023 152.75 138.227C152.272 138.432 151.902 138.709 151.637 139.058C151.373 139.399 151.241 139.825 151.241 140.337C151.241 141.078 151.51 141.645 152.047 142.037C152.592 142.42 153.282 142.612 154.118 142.612ZM173.287 134.648V146H167.841V126.364H173.032V129.828H173.262C173.696 128.686 174.425 127.783 175.448 127.118C176.471 126.445 177.711 126.108 179.168 126.108C180.532 126.108 181.721 126.406 182.735 127.003C183.749 127.599 184.537 128.452 185.1 129.56C185.662 130.659 185.944 131.972 185.944 133.497V146H180.498V134.469C180.506 133.267 180.199 132.33 179.577 131.656C178.955 130.974 178.098 130.634 177.007 130.634C176.275 130.634 175.627 130.791 175.064 131.107C174.51 131.422 174.076 131.882 173.76 132.487C173.453 133.084 173.296 133.804 173.287 134.648ZM199.108 146.384C197.097 146.384 195.366 145.957 193.918 145.105C192.477 144.244 191.369 143.051 190.594 141.526C189.827 140 189.443 138.244 189.443 136.259C189.443 134.247 189.831 132.483 190.607 130.966C191.391 129.44 192.503 128.251 193.943 127.399C195.384 126.538 197.097 126.108 199.082 126.108C200.795 126.108 202.295 126.419 203.582 127.041C204.869 127.663 205.888 128.537 206.638 129.662C207.388 130.787 207.801 132.108 207.878 133.625H202.739C202.594 132.645 202.21 131.857 201.588 131.26C200.974 130.655 200.169 130.352 199.172 130.352C198.328 130.352 197.591 130.582 196.96 131.043C196.338 131.494 195.852 132.155 195.503 133.024C195.153 133.893 194.979 134.946 194.979 136.182C194.979 137.435 195.149 138.5 195.49 139.378C195.839 140.256 196.33 140.925 196.96 141.385C197.591 141.845 198.328 142.075 199.172 142.075C199.794 142.075 200.352 141.947 200.847 141.692C201.349 141.436 201.763 141.065 202.087 140.58C202.419 140.085 202.636 139.493 202.739 138.803H207.878C207.793 140.303 207.384 141.624 206.651 142.766C205.926 143.899 204.925 144.786 203.646 145.425C202.368 146.064 200.855 146.384 199.108 146.384ZM220.314 146.384C218.294 146.384 216.555 145.974 215.098 145.156C213.649 144.33 212.532 143.162 211.748 141.653C210.964 140.136 210.572 138.342 210.572 136.271C210.572 134.251 210.964 132.479 211.748 130.953C212.532 129.428 213.636 128.239 215.059 127.386C216.491 126.534 218.17 126.108 220.096 126.108C221.392 126.108 222.598 126.317 223.714 126.734C224.839 127.143 225.819 127.761 226.654 128.588C227.498 129.415 228.154 130.455 228.623 131.707C229.092 132.952 229.326 134.409 229.326 136.08V137.575H212.745V134.2H224.2C224.2 133.416 224.029 132.722 223.689 132.116C223.348 131.511 222.875 131.038 222.27 130.697C221.673 130.348 220.978 130.173 220.186 130.173C219.359 130.173 218.626 130.365 217.987 130.749C217.356 131.124 216.862 131.631 216.504 132.27C216.146 132.901 215.963 133.604 215.954 134.379V137.588C215.954 138.56 216.133 139.399 216.491 140.107C216.858 140.814 217.373 141.359 218.038 141.743C218.703 142.126 219.491 142.318 220.403 142.318C221.008 142.318 221.562 142.233 222.065 142.062C222.568 141.892 222.998 141.636 223.356 141.295C223.714 140.955 223.987 140.537 224.174 140.043L229.211 140.375C228.956 141.585 228.431 142.642 227.639 143.545C226.855 144.44 225.841 145.139 224.596 145.642C223.36 146.136 221.933 146.384 220.314 146.384Z" fill="black"/>
</g>
<g opacity="0.25">
<rect x="208" y="86" width="258" height="221" fill="#DDDDDD"/>
<path d="M254.629 174.909C254.629 171.739 255.051 168.82 255.895 166.152C256.747 163.484 258.047 161.013 259.794 158.737H264.997C264.332 159.581 263.714 160.612 263.143 161.831C262.572 163.041 262.074 164.371 261.647 165.82C261.221 167.268 260.889 168.768 260.65 170.32C260.412 171.862 260.292 173.392 260.292 174.909C260.292 176.929 260.497 178.97 260.906 181.033C261.324 183.087 261.886 184.996 262.593 186.76C263.309 188.524 264.11 189.969 264.997 191.094H259.794C258.047 188.818 256.747 186.347 255.895 183.679C255.051 181.011 254.629 178.088 254.629 174.909ZM282.463 169.348C282.361 168.317 281.922 167.516 281.146 166.945C280.371 166.374 279.318 166.088 277.989 166.088C277.085 166.088 276.322 166.216 275.7 166.472C275.078 166.719 274.601 167.064 274.268 167.507C273.945 167.95 273.783 168.453 273.783 169.016C273.766 169.484 273.864 169.893 274.077 170.243C274.298 170.592 274.601 170.895 274.984 171.151C275.368 171.398 275.811 171.615 276.314 171.803C276.817 171.982 277.354 172.135 277.925 172.263L280.277 172.825C281.419 173.081 282.467 173.422 283.422 173.848C284.376 174.274 285.203 174.798 285.902 175.42C286.601 176.043 287.142 176.776 287.526 177.619C287.918 178.463 288.118 179.43 288.126 180.521C288.118 182.124 287.709 183.513 286.899 184.689C286.098 185.857 284.939 186.764 283.422 187.412C281.913 188.051 280.094 188.371 277.963 188.371C275.849 188.371 274.009 188.047 272.44 187.399C270.881 186.751 269.662 185.793 268.784 184.523C267.915 183.244 267.459 181.663 267.416 179.78H272.773C272.832 180.658 273.084 181.391 273.527 181.979C273.979 182.558 274.58 182.997 275.33 183.295C276.088 183.585 276.945 183.73 277.899 183.73C278.837 183.73 279.651 183.594 280.341 183.321C281.04 183.048 281.581 182.669 281.964 182.183C282.348 181.697 282.54 181.139 282.54 180.509C282.54 179.92 282.365 179.426 282.016 179.026C281.675 178.625 281.172 178.284 280.507 178.003C279.851 177.722 279.045 177.466 278.091 177.236L275.24 176.52C273.033 175.983 271.29 175.143 270.011 174.001C268.733 172.859 268.098 171.321 268.107 169.386C268.098 167.801 268.52 166.416 269.372 165.232C270.233 164.047 271.413 163.122 272.913 162.457C274.413 161.793 276.118 161.46 278.027 161.46C279.97 161.46 281.666 161.793 283.115 162.457C284.572 163.122 285.706 164.047 286.516 165.232C287.325 166.416 287.743 167.788 287.768 169.348H282.463ZM297.194 176.648V188H291.748V161.818H297.04V171.828H297.27C297.713 170.669 298.429 169.761 299.418 169.105C300.407 168.44 301.647 168.108 303.138 168.108C304.502 168.108 305.691 168.406 306.705 169.003C307.728 169.591 308.52 170.439 309.083 171.547C309.654 172.646 309.935 173.963 309.926 175.497V188H304.48V176.469C304.489 175.259 304.182 174.317 303.56 173.643C302.946 172.97 302.086 172.634 300.978 172.634C300.236 172.634 299.58 172.791 299.009 173.107C298.446 173.422 298.003 173.882 297.679 174.487C297.364 175.084 297.202 175.804 297.194 176.648ZM319.812 188.371C318.559 188.371 317.442 188.153 316.462 187.719C315.482 187.276 314.707 186.624 314.136 185.763C313.573 184.893 313.292 183.811 313.292 182.516C313.292 181.425 313.492 180.509 313.893 179.767C314.293 179.026 314.839 178.429 315.529 177.977C316.219 177.526 317.004 177.185 317.881 176.955C318.768 176.724 319.697 176.562 320.668 176.469C321.81 176.349 322.731 176.239 323.43 176.136C324.129 176.026 324.636 175.864 324.951 175.651C325.266 175.437 325.424 175.122 325.424 174.705V174.628C325.424 173.818 325.168 173.192 324.657 172.749C324.154 172.305 323.438 172.084 322.509 172.084C321.529 172.084 320.749 172.301 320.17 172.736C319.59 173.162 319.207 173.699 319.019 174.347L313.982 173.938C314.238 172.744 314.741 171.713 315.491 170.844C316.241 169.966 317.208 169.293 318.393 168.824C319.586 168.347 320.967 168.108 322.535 168.108C323.626 168.108 324.67 168.236 325.667 168.491C326.673 168.747 327.563 169.143 328.339 169.68C329.123 170.217 329.741 170.908 330.192 171.751C330.644 172.587 330.87 173.588 330.87 174.756V188H325.705V185.277H325.552C325.237 185.891 324.815 186.432 324.286 186.901C323.758 187.361 323.123 187.723 322.381 187.987C321.64 188.243 320.783 188.371 319.812 188.371ZM321.371 184.612C322.173 184.612 322.88 184.455 323.494 184.139C324.107 183.815 324.589 183.381 324.938 182.835C325.288 182.29 325.462 181.672 325.462 180.982V178.898C325.292 179.009 325.058 179.111 324.759 179.205C324.469 179.29 324.141 179.371 323.775 179.447C323.408 179.516 323.042 179.58 322.675 179.639C322.309 179.69 321.977 179.737 321.678 179.78C321.039 179.874 320.481 180.023 320.004 180.227C319.526 180.432 319.156 180.709 318.891 181.058C318.627 181.399 318.495 181.825 318.495 182.337C318.495 183.078 318.763 183.645 319.3 184.037C319.846 184.42 320.536 184.612 321.371 184.612ZM342.331 188.32C340.839 188.32 339.489 187.936 338.278 187.169C337.077 186.393 336.122 185.256 335.415 183.756C334.716 182.247 334.366 180.398 334.366 178.207C334.366 175.957 334.729 174.087 335.453 172.595C336.178 171.095 337.141 169.974 338.342 169.233C339.553 168.483 340.878 168.108 342.318 168.108C343.418 168.108 344.334 168.295 345.067 168.67C345.808 169.037 346.405 169.497 346.857 170.051C347.317 170.597 347.666 171.134 347.905 171.662H348.071V161.818H353.504V188H348.135V184.855H347.905C347.649 185.401 347.287 185.942 346.818 186.479C346.358 187.007 345.757 187.446 345.016 187.795C344.283 188.145 343.388 188.32 342.331 188.32ZM344.057 183.986C344.935 183.986 345.676 183.747 346.281 183.27C346.895 182.784 347.364 182.107 347.688 181.237C348.02 180.368 348.186 179.349 348.186 178.182C348.186 177.014 348.024 176 347.7 175.139C347.376 174.278 346.908 173.614 346.294 173.145C345.68 172.676 344.935 172.442 344.057 172.442C343.162 172.442 342.408 172.685 341.794 173.17C341.18 173.656 340.716 174.33 340.401 175.19C340.085 176.051 339.928 177.048 339.928 178.182C339.928 179.324 340.085 180.334 340.401 181.212C340.724 182.081 341.189 182.763 341.794 183.257C342.408 183.743 343.162 183.986 344.057 183.986ZM366.854 188.384C364.868 188.384 363.151 187.962 361.702 187.118C360.262 186.266 359.15 185.081 358.365 183.564C357.581 182.038 357.189 180.27 357.189 178.259C357.189 176.23 357.581 174.457 358.365 172.94C359.15 171.415 360.262 170.23 361.702 169.386C363.151 168.534 364.868 168.108 366.854 168.108C368.84 168.108 370.553 168.534 371.993 169.386C373.442 170.23 374.559 171.415 375.343 172.94C376.127 174.457 376.519 176.23 376.519 178.259C376.519 180.27 376.127 182.038 375.343 183.564C374.559 185.081 373.442 186.266 371.993 187.118C370.553 187.962 368.84 188.384 366.854 188.384ZM366.88 184.165C367.783 184.165 368.537 183.909 369.142 183.398C369.748 182.878 370.203 182.17 370.51 181.276C370.826 180.381 370.983 179.362 370.983 178.22C370.983 177.078 370.826 176.06 370.51 175.165C370.203 174.27 369.748 173.562 369.142 173.043C368.537 172.523 367.783 172.263 366.88 172.263C365.968 172.263 365.201 172.523 364.578 173.043C363.965 173.562 363.5 174.27 363.185 175.165C362.878 176.06 362.725 177.078 362.725 178.22C362.725 179.362 362.878 180.381 363.185 181.276C363.5 182.17 363.965 182.878 364.578 183.398C365.201 183.909 365.968 184.165 366.88 184.165ZM383.441 188L378.098 168.364H383.608L386.65 181.557H386.829L390 168.364H395.407L398.629 181.48H398.795L401.787 168.364H407.284L401.953 188H396.187L392.812 175.651H392.569L389.194 188H383.441ZM419.368 177.504C419.368 180.683 418.942 183.607 418.089 186.274C417.246 188.942 415.95 191.413 414.203 193.689H409C409.665 192.845 410.283 191.814 410.854 190.595C411.425 189.376 411.923 188.047 412.349 186.607C412.776 185.158 413.108 183.658 413.347 182.107C413.585 180.555 413.705 179.021 413.705 177.504C413.705 175.484 413.496 173.447 413.078 171.393C412.669 169.331 412.107 167.422 411.391 165.666C410.683 163.902 409.886 162.457 409 161.332H414.203C415.95 163.608 417.246 166.08 418.089 168.747C418.942 171.415 419.368 174.334 419.368 177.504ZM291.8 214.984H286.201C286.099 214.26 285.89 213.616 285.574 213.054C285.259 212.483 284.854 211.997 284.36 211.597C283.866 211.196 283.295 210.889 282.647 210.676C282.008 210.463 281.313 210.357 280.563 210.357C279.208 210.357 278.028 210.693 277.022 211.366C276.016 212.031 275.236 213.003 274.682 214.281C274.128 215.551 273.851 217.094 273.851 218.909C273.851 220.776 274.128 222.344 274.682 223.614C275.245 224.884 276.029 225.842 277.035 226.49C278.04 227.138 279.204 227.462 280.525 227.462C281.266 227.462 281.952 227.364 282.583 227.168C283.222 226.972 283.789 226.686 284.283 226.311C284.778 225.928 285.187 225.463 285.51 224.918C285.843 224.372 286.073 223.75 286.201 223.051L291.8 223.077C291.655 224.278 291.293 225.438 290.714 226.554C290.143 227.662 289.371 228.655 288.4 229.533C287.437 230.402 286.286 231.092 284.948 231.604C283.618 232.107 282.114 232.358 280.435 232.358C278.1 232.358 276.012 231.83 274.171 230.773C272.339 229.716 270.89 228.186 269.824 226.183C268.768 224.18 268.239 221.756 268.239 218.909C268.239 216.054 268.776 213.625 269.85 211.622C270.924 209.619 272.381 208.094 274.222 207.045C276.063 205.989 278.134 205.46 280.435 205.46C281.952 205.46 283.358 205.673 284.654 206.099C285.958 206.526 287.113 207.148 288.118 207.966C289.124 208.776 289.942 209.768 290.573 210.945C291.212 212.121 291.621 213.467 291.8 214.984ZM304.54 232.384C302.554 232.384 300.836 231.962 299.388 231.118C297.947 230.266 296.835 229.081 296.051 227.564C295.267 226.038 294.875 224.27 294.875 222.259C294.875 220.23 295.267 218.457 296.051 216.94C296.835 215.415 297.947 214.23 299.388 213.386C300.836 212.534 302.554 212.108 304.54 212.108C306.525 212.108 308.238 212.534 309.679 213.386C311.128 214.23 312.244 215.415 313.028 216.94C313.812 218.457 314.204 220.23 314.204 222.259C314.204 224.27 313.812 226.038 313.028 227.564C312.244 229.081 311.128 230.266 309.679 231.118C308.238 231.962 306.525 232.384 304.54 232.384ZM304.565 228.165C305.469 228.165 306.223 227.909 306.828 227.398C307.433 226.878 307.889 226.17 308.196 225.276C308.511 224.381 308.669 223.362 308.669 222.22C308.669 221.078 308.511 220.06 308.196 219.165C307.889 218.27 307.433 217.562 306.828 217.043C306.223 216.523 305.469 216.263 304.565 216.263C303.653 216.263 302.886 216.523 302.264 217.043C301.65 217.562 301.186 218.27 300.871 219.165C300.564 220.06 300.41 221.078 300.41 222.22C300.41 223.362 300.564 224.381 300.871 225.276C301.186 226.17 301.65 226.878 302.264 227.398C302.886 227.909 303.653 228.165 304.565 228.165ZM323.192 220.648V232H317.746V212.364H322.936V215.828H323.166C323.601 214.686 324.329 213.783 325.352 213.118C326.375 212.445 327.615 212.108 329.072 212.108C330.436 212.108 331.625 212.406 332.639 213.003C333.653 213.599 334.442 214.452 335.004 215.56C335.567 216.659 335.848 217.972 335.848 219.497V232H330.402V220.469C330.41 219.267 330.104 218.33 329.481 217.656C328.859 216.974 328.003 216.634 326.912 216.634C326.179 216.634 325.531 216.791 324.969 217.107C324.415 217.422 323.98 217.882 323.665 218.487C323.358 219.084 323.2 219.804 323.192 220.648ZM350.585 212.364V216.455H338.759V212.364H350.585ZM341.444 207.659H346.89V225.966C346.89 226.469 346.967 226.861 347.12 227.142C347.274 227.415 347.487 227.607 347.759 227.717C348.041 227.828 348.365 227.884 348.731 227.884C348.987 227.884 349.242 227.862 349.498 227.82C349.754 227.768 349.95 227.73 350.086 227.705L350.943 231.757C350.67 231.842 350.286 231.94 349.792 232.051C349.298 232.17 348.697 232.243 347.99 232.268C346.677 232.32 345.526 232.145 344.538 231.744C343.558 231.344 342.795 230.722 342.249 229.878C341.704 229.034 341.436 227.969 341.444 226.682V207.659ZM362.87 232.384C360.85 232.384 359.112 231.974 357.654 231.156C356.205 230.33 355.089 229.162 354.305 227.653C353.521 226.136 353.129 224.342 353.129 222.271C353.129 220.251 353.521 218.479 354.305 216.953C355.089 215.428 356.193 214.239 357.616 213.386C359.048 212.534 360.727 212.108 362.653 212.108C363.948 212.108 365.154 212.317 366.271 212.734C367.396 213.143 368.376 213.761 369.211 214.588C370.055 215.415 370.711 216.455 371.18 217.707C371.649 218.952 371.883 220.409 371.883 222.08V223.575H355.302V220.2H366.757C366.757 219.416 366.586 218.722 366.245 218.116C365.904 217.511 365.431 217.038 364.826 216.697C364.23 216.348 363.535 216.173 362.742 216.173C361.916 216.173 361.183 216.365 360.544 216.749C359.913 217.124 359.419 217.631 359.061 218.27C358.703 218.901 358.519 219.604 358.511 220.379V223.588C358.511 224.56 358.69 225.399 359.048 226.107C359.414 226.814 359.93 227.359 360.595 227.743C361.259 228.126 362.048 228.318 362.96 228.318C363.565 228.318 364.119 228.233 364.622 228.062C365.124 227.892 365.555 227.636 365.913 227.295C366.271 226.955 366.544 226.537 366.731 226.043L371.768 226.375C371.512 227.585 370.988 228.642 370.195 229.545C369.411 230.44 368.397 231.139 367.153 231.642C365.917 232.136 364.49 232.384 362.87 232.384ZM379.637 212.364L383.242 219.229L386.936 212.364H392.523L386.834 222.182L392.676 232H387.115L383.242 225.212L379.432 232H373.807L379.637 222.182L374.012 212.364H379.637ZM406.202 212.364V216.455H394.377V212.364H406.202ZM397.061 207.659H402.507V225.966C402.507 226.469 402.584 226.861 402.737 227.142C402.891 227.415 403.104 227.607 403.377 227.717C403.658 227.828 403.982 227.884 404.348 227.884C404.604 227.884 404.86 227.862 405.115 227.82C405.371 227.768 405.567 227.73 405.703 227.705L406.56 231.757C406.287 231.842 405.904 231.94 405.409 232.051C404.915 232.17 404.314 232.243 403.607 232.268C402.294 232.32 401.144 232.145 400.155 231.744C399.175 231.344 398.412 230.722 397.867 229.878C397.321 229.034 397.053 227.969 397.061 226.682V207.659Z" fill="black"/>
</g>
<g opacity="0.25">
<rect x="415" y="172" width="258" height="221" fill="#AAAAAA"/>
<path d="M474.223 274V247.818H491.865V252.382H479.758V258.621H490.957V263.185H479.758V269.436H491.916V274H474.223ZM501.61 247.818V274H496.164V247.818H501.61ZM514.921 274.384C512.901 274.384 511.162 273.974 509.705 273.156C508.256 272.33 507.14 271.162 506.356 269.653C505.572 268.136 505.18 266.342 505.18 264.271C505.18 262.251 505.572 260.479 506.356 258.953C507.14 257.428 508.243 256.239 509.667 255.386C511.099 254.534 512.778 254.108 514.704 254.108C515.999 254.108 517.205 254.317 518.322 254.734C519.447 255.143 520.427 255.761 521.262 256.588C522.106 257.415 522.762 258.455 523.231 259.707C523.699 260.952 523.934 262.409 523.934 264.08V265.575H507.353V262.2H518.807C518.807 261.416 518.637 260.722 518.296 260.116C517.955 259.511 517.482 259.038 516.877 258.697C516.28 258.348 515.586 258.173 514.793 258.173C513.966 258.173 513.233 258.365 512.594 258.749C511.964 259.124 511.469 259.631 511.111 260.27C510.753 260.901 510.57 261.604 510.562 262.379V265.588C510.562 266.56 510.741 267.399 511.099 268.107C511.465 268.814 511.981 269.359 512.645 269.743C513.31 270.126 514.099 270.318 515.01 270.318C515.616 270.318 516.17 270.233 516.672 270.062C517.175 269.892 517.606 269.636 517.964 269.295C518.322 268.955 518.594 268.537 518.782 268.043L523.819 268.375C523.563 269.585 523.039 270.642 522.246 271.545C521.462 272.44 520.448 273.139 519.204 273.642C517.968 274.136 516.54 274.384 514.921 274.384ZM527.488 274V254.364H532.678V257.828H532.908C533.317 256.678 533.999 255.77 534.954 255.105C535.908 254.44 537.05 254.108 538.38 254.108C539.726 254.108 540.873 254.445 541.819 255.118C542.765 255.783 543.395 256.686 543.711 257.828H543.915C544.316 256.703 545.04 255.804 546.089 255.131C547.145 254.449 548.394 254.108 549.834 254.108C551.667 254.108 553.154 254.692 554.296 255.859C555.447 257.018 556.022 258.663 556.022 260.794V274H550.589V261.868C550.589 260.777 550.299 259.959 549.719 259.413C549.14 258.868 548.415 258.595 547.546 258.595C546.557 258.595 545.786 258.911 545.232 259.541C544.678 260.163 544.401 260.986 544.401 262.009V274H539.121V261.753C539.121 260.79 538.844 260.023 538.29 259.452C537.745 258.881 537.025 258.595 536.13 258.595C535.525 258.595 534.979 258.749 534.493 259.055C534.016 259.354 533.637 259.776 533.356 260.321C533.074 260.858 532.934 261.489 532.934 262.213V274H527.488ZM569.273 274.384C567.253 274.384 565.514 273.974 564.057 273.156C562.608 272.33 561.491 271.162 560.707 269.653C559.923 268.136 559.531 266.342 559.531 264.271C559.531 262.251 559.923 260.479 560.707 258.953C561.491 257.428 562.595 256.239 564.018 255.386C565.45 254.534 567.129 254.108 569.055 254.108C570.351 254.108 571.557 254.317 572.673 254.734C573.798 255.143 574.778 255.761 575.613 256.588C576.457 257.415 577.113 258.455 577.582 259.707C578.051 260.952 578.285 262.409 578.285 264.08V265.575H561.704V262.2H573.159C573.159 261.416 572.988 260.722 572.648 260.116C572.307 259.511 571.834 259.038 571.229 258.697C570.632 258.348 569.937 258.173 569.145 258.173C568.318 258.173 567.585 258.365 566.946 258.749C566.315 259.124 565.821 259.631 565.463 260.27C565.105 260.901 564.922 261.604 564.913 262.379V265.588C564.913 266.56 565.092 267.399 565.45 268.107C565.817 268.814 566.332 269.359 566.997 269.743C567.662 270.126 568.45 270.318 569.362 270.318C569.967 270.318 570.521 270.233 571.024 270.062C571.527 269.892 571.957 269.636 572.315 269.295C572.673 268.955 572.946 268.537 573.133 268.043L578.17 268.375C577.915 269.585 577.39 270.642 576.598 271.545C575.814 272.44 574.8 273.139 573.555 273.642C572.319 274.136 570.892 274.384 569.273 274.384ZM587.285 262.648V274H581.839V254.364H587.03V257.828H587.26C587.694 256.686 588.423 255.783 589.446 255.118C590.469 254.445 591.709 254.108 593.166 254.108C594.53 254.108 595.719 254.406 596.733 255.003C597.747 255.599 598.535 256.452 599.098 257.56C599.66 258.659 599.942 259.972 599.942 261.497V274H594.496V262.469C594.504 261.267 594.197 260.33 593.575 259.656C592.953 258.974 592.096 258.634 591.006 258.634C590.273 258.634 589.625 258.791 589.062 259.107C588.508 259.422 588.074 259.882 587.758 260.487C587.452 261.084 587.294 261.804 587.285 262.648ZM614.678 254.364V258.455H602.853V254.364H614.678ZM605.538 249.659H610.984V267.966C610.984 268.469 611.061 268.861 611.214 269.142C611.367 269.415 611.58 269.607 611.853 269.717C612.134 269.828 612.458 269.884 612.825 269.884C613.08 269.884 613.336 269.862 613.592 269.82C613.847 269.768 614.044 269.73 614.18 269.705L615.036 273.757C614.764 273.842 614.38 273.94 613.886 274.051C613.392 274.17 612.791 274.243 612.083 274.268C610.771 274.32 609.62 274.145 608.632 273.744C607.651 273.344 606.889 272.722 606.343 271.878C605.798 271.034 605.529 269.969 605.538 268.682V249.659ZM469.507 318H463.575L472.614 291.818H479.747L488.773 318H482.841L476.283 297.801H476.078L469.507 318ZM469.136 307.709H483.148V312.03H469.136V307.709ZM501.036 298.364V302.455H489.211V298.364H501.036ZM491.895 293.659H497.341V311.966C497.341 312.469 497.418 312.861 497.571 313.142C497.725 313.415 497.938 313.607 498.211 313.717C498.492 313.828 498.816 313.884 499.182 313.884C499.438 313.884 499.694 313.862 499.949 313.82C500.205 313.768 500.401 313.73 500.537 313.705L501.394 317.757C501.121 317.842 500.738 317.94 500.243 318.051C499.749 318.17 499.148 318.243 498.441 318.268C497.128 318.32 495.978 318.145 494.989 317.744C494.009 317.344 493.246 316.722 492.701 315.878C492.155 315.034 491.887 313.969 491.895 312.682V293.659ZM515.028 298.364V302.455H503.203V298.364H515.028ZM505.887 293.659H511.333V311.966C511.333 312.469 511.41 312.861 511.564 313.142C511.717 313.415 511.93 313.607 512.203 313.717C512.484 313.828 512.808 313.884 513.174 313.884C513.43 313.884 513.686 313.862 513.941 313.82C514.197 313.768 514.393 313.73 514.529 313.705L515.386 317.757C515.113 317.842 514.73 317.94 514.235 318.051C513.741 318.17 513.14 318.243 512.433 318.268C511.12 318.32 509.97 318.145 508.981 317.744C508.001 317.344 507.238 316.722 506.693 315.878C506.147 315.034 505.879 313.969 505.887 312.682V293.659ZM524.175 318.371C522.922 318.371 521.806 318.153 520.826 317.719C519.846 317.276 519.07 316.624 518.499 315.763C517.936 314.893 517.655 313.811 517.655 312.516C517.655 311.425 517.855 310.509 518.256 309.767C518.657 309.026 519.202 308.429 519.892 307.977C520.583 307.526 521.367 307.185 522.245 306.955C523.131 306.724 524.06 306.562 525.032 306.469C526.174 306.349 527.094 306.239 527.793 306.136C528.492 306.026 528.999 305.864 529.314 305.651C529.63 305.437 529.787 305.122 529.787 304.705V304.628C529.787 303.818 529.532 303.192 529.02 302.749C528.517 302.305 527.801 302.084 526.873 302.084C525.892 302.084 525.113 302.301 524.533 302.736C523.953 303.162 523.57 303.699 523.382 304.347L518.346 303.938C518.601 302.744 519.104 301.713 519.854 300.844C520.604 299.966 521.571 299.293 522.756 298.824C523.949 298.347 525.33 298.108 526.898 298.108C527.989 298.108 529.033 298.236 530.03 298.491C531.036 298.747 531.926 299.143 532.702 299.68C533.486 300.217 534.104 300.908 534.556 301.751C535.007 302.587 535.233 303.588 535.233 304.756V318H530.069V315.277H529.915C529.6 315.891 529.178 316.432 528.65 316.901C528.121 317.361 527.486 317.723 526.745 317.987C526.003 318.243 525.147 318.371 524.175 318.371ZM525.735 314.612C526.536 314.612 527.243 314.455 527.857 314.139C528.471 313.815 528.952 313.381 529.301 312.835C529.651 312.29 529.826 311.672 529.826 310.982V308.898C529.655 309.009 529.421 309.111 529.123 309.205C528.833 309.29 528.505 309.371 528.138 309.447C527.772 309.516 527.405 309.58 527.039 309.639C526.672 309.69 526.34 309.737 526.042 309.78C525.402 309.874 524.844 310.023 524.367 310.227C523.89 310.432 523.519 310.709 523.255 311.058C522.99 311.399 522.858 311.825 522.858 312.337C522.858 313.078 523.127 313.645 523.664 314.037C524.209 314.42 524.9 314.612 525.735 314.612ZM548.331 318.384C546.319 318.384 544.589 317.957 543.14 317.105C541.7 316.244 540.592 315.051 539.816 313.526C539.049 312 538.666 310.244 538.666 308.259C538.666 306.247 539.054 304.483 539.829 302.966C540.613 301.44 541.725 300.251 543.166 299.399C544.606 298.538 546.319 298.108 548.305 298.108C550.018 298.108 551.518 298.419 552.805 299.041C554.092 299.663 555.11 300.537 555.86 301.662C556.61 302.787 557.024 304.108 557.1 305.625H551.961C551.816 304.645 551.433 303.857 550.811 303.26C550.197 302.655 549.392 302.352 548.395 302.352C547.551 302.352 546.814 302.582 546.183 303.043C545.561 303.494 545.075 304.155 544.725 305.024C544.376 305.893 544.201 306.946 544.201 308.182C544.201 309.435 544.372 310.5 544.713 311.378C545.062 312.256 545.552 312.925 546.183 313.385C546.814 313.845 547.551 314.075 548.395 314.075C549.017 314.075 549.575 313.947 550.069 313.692C550.572 313.436 550.985 313.065 551.309 312.58C551.642 312.085 551.859 311.493 551.961 310.803H557.1C557.015 312.303 556.606 313.624 555.873 314.766C555.149 315.899 554.147 316.786 552.869 317.425C551.591 318.064 550.078 318.384 548.331 318.384ZM566.033 306.648V318H560.587V291.818H565.88V301.828H566.11C566.553 300.669 567.269 299.761 568.258 299.105C569.246 298.44 570.487 298.108 571.978 298.108C573.342 298.108 574.531 298.406 575.545 299.003C576.567 299.591 577.36 300.439 577.923 301.547C578.494 302.646 578.775 303.963 578.766 305.497V318H573.32V306.469C573.329 305.259 573.022 304.317 572.4 303.643C571.786 302.97 570.925 302.634 569.817 302.634C569.076 302.634 568.42 302.791 567.849 303.107C567.286 303.422 566.843 303.882 566.519 304.487C566.204 305.084 566.042 305.804 566.033 306.648ZM592.001 318.384C589.981 318.384 588.243 317.974 586.785 317.156C585.336 316.33 584.22 315.162 583.436 313.653C582.652 312.136 582.26 310.342 582.26 308.271C582.26 306.251 582.652 304.479 583.436 302.953C584.22 301.428 585.324 300.239 586.747 299.386C588.179 298.534 589.858 298.108 591.784 298.108C593.079 298.108 594.285 298.317 595.402 298.734C596.527 299.143 597.507 299.761 598.342 300.588C599.186 301.415 599.842 302.455 600.311 303.707C600.779 304.952 601.014 306.409 601.014 308.08V309.575H584.433V306.2H595.887C595.887 305.416 595.717 304.722 595.376 304.116C595.035 303.511 594.562 303.038 593.957 302.697C593.36 302.348 592.666 302.173 591.873 302.173C591.047 302.173 590.314 302.365 589.674 302.749C589.044 303.124 588.549 303.631 588.191 304.27C587.833 304.901 587.65 305.604 587.642 306.379V309.588C587.642 310.56 587.821 311.399 588.179 312.107C588.545 312.814 589.061 313.359 589.725 313.743C590.39 314.126 591.179 314.318 592.091 314.318C592.696 314.318 593.25 314.233 593.752 314.062C594.255 313.892 594.686 313.636 595.044 313.295C595.402 312.955 595.674 312.537 595.862 312.043L600.899 312.375C600.643 313.585 600.119 314.642 599.326 315.545C598.542 316.44 597.528 317.139 596.284 317.642C595.048 318.136 593.62 318.384 592.001 318.384ZM611.804 318.32C610.312 318.32 608.961 317.936 607.751 317.169C606.549 316.393 605.595 315.256 604.887 313.756C604.189 312.247 603.839 310.398 603.839 308.207C603.839 305.957 604.201 304.087 604.926 302.595C605.65 301.095 606.613 299.974 607.815 299.233C609.025 298.483 610.35 298.108 611.791 298.108C612.89 298.108 613.806 298.295 614.539 298.67C615.281 299.037 615.877 299.497 616.329 300.051C616.789 300.597 617.139 301.134 617.377 301.662H617.544V291.818H622.977V318H617.608V314.855H617.377C617.122 315.401 616.76 315.942 616.291 316.479C615.831 317.007 615.23 317.446 614.488 317.795C613.755 318.145 612.86 318.32 611.804 318.32ZM613.529 313.986C614.407 313.986 615.149 313.747 615.754 313.27C616.368 312.784 616.836 312.107 617.16 311.237C617.493 310.368 617.659 309.349 617.659 308.182C617.659 307.014 617.497 306 617.173 305.139C616.849 304.278 616.38 303.614 615.767 303.145C615.153 302.676 614.407 302.442 613.529 302.442C612.635 302.442 611.88 302.685 611.267 303.17C610.653 303.656 610.189 304.33 609.873 305.19C609.558 306.051 609.4 307.048 609.4 308.182C609.4 309.324 609.558 310.334 609.873 311.212C610.197 312.081 610.662 312.763 611.267 313.257C611.88 313.743 612.635 313.986 613.529 313.986Z" fill="black"/>
</g>
<g opacity="0.25">
<rect x="831" y="344" width="258" height="221" fill="#AAAAAA"/>
<path d="M907.404 427.348C907.302 426.317 906.863 425.516 906.088 424.945C905.312 424.374 904.26 424.088 902.93 424.088C902.027 424.088 901.264 424.216 900.642 424.472C900.02 424.719 899.542 425.064 899.21 425.507C898.886 425.95 898.724 426.453 898.724 427.016C898.707 427.484 898.805 427.893 899.018 428.243C899.24 428.592 899.542 428.895 899.926 429.151C900.309 429.398 900.752 429.615 901.255 429.803C901.758 429.982 902.295 430.135 902.866 430.263L905.218 430.825C906.36 431.081 907.409 431.422 908.363 431.848C909.318 432.274 910.145 432.798 910.843 433.42C911.542 434.043 912.083 434.776 912.467 435.619C912.859 436.463 913.059 437.43 913.068 438.521C913.059 440.124 912.65 441.513 911.841 442.689C911.039 443.857 909.88 444.764 908.363 445.412C906.855 446.051 905.035 446.371 902.904 446.371C900.791 446.371 898.95 446.047 897.382 445.399C895.822 444.751 894.603 443.793 893.725 442.523C892.856 441.244 892.4 439.663 892.358 437.78H897.714C897.774 438.658 898.025 439.391 898.468 439.979C898.92 440.558 899.521 440.997 900.271 441.295C901.029 441.585 901.886 441.73 902.841 441.73C903.778 441.73 904.592 441.594 905.282 441.321C905.981 441.048 906.522 440.669 906.906 440.183C907.289 439.697 907.481 439.139 907.481 438.509C907.481 437.92 907.306 437.426 906.957 437.026C906.616 436.625 906.113 436.284 905.449 436.003C904.792 435.722 903.987 435.466 903.032 435.236L900.181 434.52C897.974 433.983 896.231 433.143 894.953 432.001C893.674 430.859 893.039 429.321 893.048 427.386C893.039 425.801 893.461 424.416 894.314 423.232C895.174 422.047 896.355 421.122 897.855 420.457C899.355 419.793 901.059 419.46 902.968 419.46C904.912 419.46 906.608 419.793 908.056 420.457C909.514 421.122 910.647 422.047 911.457 423.232C912.267 424.416 912.684 425.788 912.71 427.348H907.404ZM925.638 446.384C923.618 446.384 921.879 445.974 920.422 445.156C918.973 444.33 917.857 443.162 917.072 441.653C916.288 440.136 915.896 438.342 915.896 436.271C915.896 434.251 916.288 432.479 917.072 430.953C917.857 429.428 918.96 428.239 920.384 427.386C921.815 426.534 923.494 426.108 925.42 426.108C926.716 426.108 927.922 426.317 929.038 426.734C930.163 427.143 931.143 427.761 931.979 428.588C932.822 429.415 933.479 430.455 933.947 431.707C934.416 432.952 934.651 434.409 934.651 436.08V437.575H918.07V434.2H929.524C929.524 433.416 929.354 432.722 929.013 432.116C928.672 431.511 928.199 431.038 927.594 430.697C926.997 430.348 926.303 430.173 925.51 430.173C924.683 430.173 923.95 430.365 923.311 430.749C922.68 431.124 922.186 431.631 921.828 432.27C921.47 432.901 921.287 433.604 921.278 434.379V437.588C921.278 438.56 921.457 439.399 921.815 440.107C922.182 440.814 922.697 441.359 923.362 441.743C924.027 442.126 924.815 442.318 925.727 442.318C926.332 442.318 926.886 442.233 927.389 442.062C927.892 441.892 928.322 441.636 928.68 441.295C929.038 440.955 929.311 440.537 929.499 440.043L934.536 440.375C934.28 441.585 933.756 442.642 932.963 443.545C932.179 444.44 931.165 445.139 929.92 445.642C928.685 446.136 927.257 446.384 925.638 446.384ZM943.651 419.818V446H938.205V419.818H943.651ZM956.962 446.384C954.942 446.384 953.203 445.974 951.746 445.156C950.297 444.33 949.181 443.162 948.397 441.653C947.613 440.136 947.221 438.342 947.221 436.271C947.221 434.251 947.613 432.479 948.397 430.953C949.181 429.428 950.284 428.239 951.708 427.386C953.14 426.534 954.819 426.108 956.745 426.108C958.04 426.108 959.246 426.317 960.363 426.734C961.488 427.143 962.468 427.761 963.303 428.588C964.147 429.415 964.803 430.455 965.272 431.707C965.74 432.952 965.975 434.409 965.975 436.08V437.575H949.394V434.2H960.848C960.848 433.416 960.678 432.722 960.337 432.116C959.996 431.511 959.523 431.038 958.918 430.697C958.321 430.348 957.627 430.173 956.834 430.173C956.007 430.173 955.275 430.365 954.635 430.749C954.005 431.124 953.51 431.631 953.152 432.27C952.794 432.901 952.611 433.604 952.603 434.379V437.588C952.603 438.56 952.782 439.399 953.14 440.107C953.506 440.814 954.022 441.359 954.686 441.743C955.351 442.126 956.14 442.318 957.051 442.318C957.657 442.318 958.211 442.233 958.713 442.062C959.216 441.892 959.647 441.636 960.005 441.295C960.363 440.955 960.635 440.537 960.823 440.043L965.86 440.375C965.604 441.585 965.08 442.642 964.287 443.545C963.503 444.44 962.489 445.139 961.245 445.642C960.009 446.136 958.581 446.384 956.962 446.384ZM978.401 446.384C976.39 446.384 974.659 445.957 973.211 445.105C971.77 444.244 970.662 443.051 969.887 441.526C969.12 440 968.736 438.244 968.736 436.259C968.736 434.247 969.124 432.483 969.9 430.966C970.684 429.44 971.796 428.251 973.236 427.399C974.676 426.538 976.39 426.108 978.375 426.108C980.088 426.108 981.588 426.419 982.875 427.041C984.162 427.663 985.181 428.537 985.931 429.662C986.681 430.787 987.094 432.108 987.171 433.625H982.032C981.887 432.645 981.503 431.857 980.881 431.26C980.267 430.655 979.462 430.352 978.465 430.352C977.621 430.352 976.884 430.582 976.253 431.043C975.631 431.494 975.145 432.155 974.796 433.024C974.446 433.893 974.272 434.946 974.272 436.182C974.272 437.435 974.442 438.5 974.783 439.378C975.132 440.256 975.623 440.925 976.253 441.385C976.884 441.845 977.621 442.075 978.465 442.075C979.087 442.075 979.645 441.947 980.14 441.692C980.642 441.436 981.056 441.065 981.38 440.58C981.712 440.085 981.929 439.493 982.032 438.803H987.171C987.086 440.303 986.676 441.624 985.944 442.766C985.219 443.899 984.218 444.786 982.939 445.425C981.661 446.064 980.148 446.384 978.401 446.384ZM1001.1 426.364V430.455H989.277V426.364H1001.1ZM991.962 421.659H997.408V439.966C997.408 440.469 997.484 440.861 997.638 441.142C997.791 441.415 998.004 441.607 998.277 441.717C998.558 441.828 998.882 441.884 999.249 441.884C999.504 441.884 999.76 441.862 1000.02 441.82C1000.27 441.768 1000.47 441.73 1000.6 441.705L1001.46 445.757C1001.19 445.842 1000.8 445.94 1000.31 446.051C999.815 446.17 999.214 446.243 998.507 446.268C997.195 446.32 996.044 446.145 995.055 445.744C994.075 445.344 993.313 444.722 992.767 443.878C992.222 443.034 991.953 441.969 991.962 440.682V421.659ZM1013.31 446.384C1011.33 446.384 1009.61 445.962 1008.16 445.118C1006.72 444.266 1005.61 443.081 1004.82 441.564C1004.04 440.038 1003.65 438.27 1003.65 436.259C1003.65 434.23 1004.04 432.457 1004.82 430.94C1005.61 429.415 1006.72 428.23 1008.16 427.386C1009.61 426.534 1011.33 426.108 1013.31 426.108C1015.3 426.108 1017.01 426.534 1018.45 427.386C1019.9 428.23 1021.02 429.415 1021.8 430.94C1022.58 432.457 1022.98 434.23 1022.98 436.259C1022.98 438.27 1022.58 440.038 1021.8 441.564C1021.02 443.081 1019.9 444.266 1018.45 445.118C1017.01 445.962 1015.3 446.384 1013.31 446.384ZM1013.34 442.165C1014.24 442.165 1014.99 441.909 1015.6 441.398C1016.2 440.878 1016.66 440.17 1016.97 439.276C1017.28 438.381 1017.44 437.362 1017.44 436.22C1017.44 435.078 1017.28 434.06 1016.97 433.165C1016.66 432.27 1016.2 431.562 1015.6 431.043C1014.99 430.523 1014.24 430.263 1013.34 430.263C1012.42 430.263 1011.66 430.523 1011.04 431.043C1010.42 431.562 1009.96 432.27 1009.64 433.165C1009.34 434.06 1009.18 435.078 1009.18 436.22C1009.18 437.362 1009.34 438.381 1009.64 439.276C1009.96 440.17 1010.42 440.878 1011.04 441.398C1011.66 441.909 1012.42 442.165 1013.34 442.165ZM1026.52 446V426.364H1031.8V429.79H1032C1032.36 428.571 1032.96 427.651 1033.8 427.028C1034.65 426.398 1035.62 426.082 1036.72 426.082C1036.99 426.082 1037.29 426.099 1037.6 426.134C1037.92 426.168 1038.19 426.214 1038.43 426.274V431.107C1038.18 431.03 1037.82 430.962 1037.37 430.902C1036.92 430.842 1036.51 430.812 1036.13 430.812C1035.33 430.812 1034.61 430.987 1033.98 431.337C1033.36 431.678 1032.87 432.155 1032.5 432.768C1032.14 433.382 1031.96 434.089 1031.96 434.891V446H1026.52ZM887.207 471.348C887.105 470.317 886.666 469.516 885.89 468.945C885.115 468.374 884.062 468.088 882.733 468.088C881.829 468.088 881.067 468.216 880.444 468.472C879.822 468.719 879.345 469.064 879.013 469.507C878.689 469.95 878.527 470.453 878.527 471.016C878.51 471.484 878.608 471.893 878.821 472.243C879.042 472.592 879.345 472.895 879.729 473.151C880.112 473.398 880.555 473.615 881.058 473.803C881.561 473.982 882.098 474.135 882.669 474.263L885.021 474.825C886.163 475.081 887.211 475.422 888.166 475.848C889.121 476.274 889.947 476.798 890.646 477.42C891.345 478.043 891.886 478.776 892.27 479.619C892.662 480.463 892.862 481.43 892.871 482.521C892.862 484.124 892.453 485.513 891.643 486.689C890.842 487.857 889.683 488.764 888.166 489.412C886.657 490.051 884.838 490.371 882.707 490.371C880.594 490.371 878.753 490.047 877.184 489.399C875.625 488.751 874.406 487.793 873.528 486.523C872.659 485.244 872.203 483.663 872.16 481.78H877.517C877.577 482.658 877.828 483.391 878.271 483.979C878.723 484.558 879.324 484.997 880.074 485.295C880.832 485.585 881.689 485.73 882.643 485.73C883.581 485.73 884.395 485.594 885.085 485.321C885.784 485.048 886.325 484.669 886.709 484.183C887.092 483.697 887.284 483.139 887.284 482.509C887.284 481.92 887.109 481.426 886.76 481.026C886.419 480.625 885.916 480.284 885.251 480.003C884.595 479.722 883.79 479.466 882.835 479.236L879.984 478.52C877.777 477.983 876.034 477.143 874.756 476.001C873.477 474.859 872.842 473.321 872.851 471.386C872.842 469.801 873.264 468.416 874.116 467.232C874.977 466.047 876.157 465.122 877.657 464.457C879.157 463.793 880.862 463.46 882.771 463.46C884.714 463.46 886.41 463.793 887.859 464.457C889.317 465.122 890.45 466.047 891.26 467.232C892.069 468.416 892.487 469.788 892.513 471.348H887.207ZM896.492 497.364V470.364H901.861V473.662H902.104C902.343 473.134 902.688 472.597 903.139 472.051C903.6 471.497 904.196 471.037 904.929 470.67C905.671 470.295 906.591 470.108 907.691 470.108C909.122 470.108 910.443 470.483 911.654 471.233C912.864 471.974 913.831 473.095 914.556 474.595C915.28 476.087 915.642 477.957 915.642 480.207C915.642 482.398 915.289 484.247 914.581 485.756C913.882 487.256 912.928 488.393 911.718 489.169C910.516 489.936 909.169 490.32 907.678 490.32C906.621 490.32 905.722 490.145 904.98 489.795C904.247 489.446 903.646 489.007 903.178 488.479C902.709 487.942 902.351 487.401 902.104 486.855H901.938V497.364H896.492ZM901.823 480.182C901.823 481.349 901.985 482.368 902.308 483.237C902.632 484.107 903.101 484.784 903.715 485.27C904.328 485.747 905.074 485.986 905.952 485.986C906.838 485.986 907.588 485.743 908.202 485.257C908.816 484.763 909.28 484.081 909.595 483.212C909.919 482.334 910.081 481.324 910.081 480.182C910.081 479.048 909.923 478.051 909.608 477.19C909.293 476.33 908.828 475.656 908.215 475.17C907.601 474.685 906.847 474.442 905.952 474.442C905.066 474.442 904.316 474.676 903.702 475.145C903.097 475.614 902.632 476.278 902.308 477.139C901.985 478 901.823 479.014 901.823 480.182ZM928.222 490.384C926.202 490.384 924.463 489.974 923.006 489.156C921.557 488.33 920.441 487.162 919.656 485.653C918.872 484.136 918.48 482.342 918.48 480.271C918.48 478.251 918.872 476.479 919.656 474.953C920.441 473.428 921.544 472.239 922.968 471.386C924.399 470.534 926.078 470.108 928.004 470.108C929.3 470.108 930.506 470.317 931.622 470.734C932.747 471.143 933.727 471.761 934.563 472.588C935.406 473.415 936.063 474.455 936.531 475.707C937 476.952 937.235 478.409 937.235 480.08V481.575H920.654V478.2H932.108C932.108 477.416 931.938 476.722 931.597 476.116C931.256 475.511 930.783 475.038 930.178 474.697C929.581 474.348 928.887 474.173 928.094 474.173C927.267 474.173 926.534 474.365 925.895 474.749C925.264 475.124 924.77 475.631 924.412 476.27C924.054 476.901 923.871 477.604 923.862 478.379V481.588C923.862 482.56 924.041 483.399 924.399 484.107C924.766 484.814 925.281 485.359 925.946 485.743C926.611 486.126 927.399 486.318 928.311 486.318C928.916 486.318 929.47 486.233 929.973 486.062C930.476 485.892 930.906 485.636 931.264 485.295C931.622 484.955 931.895 484.537 932.083 484.043L937.119 484.375C936.864 485.585 936.34 486.642 935.547 487.545C934.763 488.44 933.749 489.139 932.504 489.642C931.269 490.136 929.841 490.384 928.222 490.384ZM949.661 490.384C947.649 490.384 945.919 489.957 944.47 489.105C943.03 488.244 941.922 487.051 941.146 485.526C940.379 484 939.996 482.244 939.996 480.259C939.996 478.247 940.384 476.483 941.159 474.966C941.943 473.44 943.056 472.251 944.496 471.399C945.936 470.538 947.649 470.108 949.635 470.108C951.348 470.108 952.848 470.419 954.135 471.041C955.422 471.663 956.441 472.537 957.191 473.662C957.941 474.787 958.354 476.108 958.431 477.625H953.291C953.146 476.645 952.763 475.857 952.141 475.26C951.527 474.655 950.722 474.352 949.725 474.352C948.881 474.352 948.144 474.582 947.513 475.043C946.891 475.494 946.405 476.155 946.056 477.024C945.706 477.893 945.531 478.946 945.531 480.182C945.531 481.435 945.702 482.5 946.043 483.378C946.392 484.256 946.882 484.925 947.513 485.385C948.144 485.845 948.881 486.075 949.725 486.075C950.347 486.075 950.905 485.947 951.399 485.692C951.902 485.436 952.316 485.065 952.639 484.58C952.972 484.085 953.189 483.493 953.291 482.803H958.431C958.345 484.303 957.936 485.624 957.203 486.766C956.479 487.899 955.477 488.786 954.199 489.425C952.921 490.064 951.408 490.384 949.661 490.384ZM961.917 490V470.364H967.363V490H961.917ZM964.653 467.832C963.844 467.832 963.149 467.564 962.569 467.027C961.998 466.482 961.713 465.83 961.713 465.071C961.713 464.321 961.998 463.678 962.569 463.141C963.149 462.595 963.844 462.322 964.653 462.322C965.463 462.322 966.153 462.595 966.724 463.141C967.304 463.678 967.594 464.321 967.594 465.071C967.594 465.83 967.304 466.482 966.724 467.027C966.153 467.564 965.463 467.832 964.653 467.832ZM982.286 470.364V474.455H970.166V470.364H982.286ZM972.941 490V468.945C972.941 467.521 973.218 466.341 973.771 465.403C974.334 464.466 975.101 463.763 976.073 463.294C977.044 462.825 978.148 462.591 979.384 462.591C980.219 462.591 980.982 462.655 981.672 462.783C982.371 462.911 982.891 463.026 983.232 463.128L982.26 467.219C982.047 467.151 981.783 467.087 981.468 467.027C981.161 466.967 980.845 466.938 980.521 466.938C979.72 466.938 979.162 467.125 978.847 467.5C978.531 467.866 978.374 468.382 978.374 469.047V490H972.941ZM985.613 490V470.364H991.059V490H985.613ZM988.349 467.832C987.539 467.832 986.844 467.564 986.265 467.027C985.694 466.482 985.408 465.83 985.408 465.071C985.408 464.321 985.694 463.678 986.265 463.141C986.844 462.595 987.539 462.322 988.349 462.322C989.158 462.322 989.849 462.595 990.42 463.141C990.999 463.678 991.289 464.321 991.289 465.071C991.289 465.83 990.999 466.482 990.42 467.027C989.849 467.564 989.158 467.832 988.349 467.832ZM1004.29 490.384C1002.28 490.384 1000.55 489.957 999.103 489.105C997.663 488.244 996.555 487.051 995.779 485.526C995.012 484 994.629 482.244 994.629 480.259C994.629 478.247 995.017 476.483 995.792 474.966C996.576 473.44 997.688 472.251 999.129 471.399C1000.57 470.538 1002.28 470.108 1004.27 470.108C1005.98 470.108 1007.48 470.419 1008.77 471.041C1010.05 471.663 1011.07 472.537 1011.82 473.662C1012.57 474.787 1012.99 476.108 1013.06 477.625H1007.92C1007.78 476.645 1007.4 475.857 1006.77 475.26C1006.16 474.655 1005.35 474.352 1004.36 474.352C1003.51 474.352 1002.78 474.582 1002.15 475.043C1001.52 475.494 1001.04 476.155 1000.69 477.024C1000.34 477.893 1000.16 478.946 1000.16 480.182C1000.16 481.435 1000.33 482.5 1000.68 483.378C1001.03 484.256 1001.52 484.925 1002.15 485.385C1002.78 485.845 1003.51 486.075 1004.36 486.075C1004.98 486.075 1005.54 485.947 1006.03 485.692C1006.53 485.436 1006.95 485.065 1007.27 484.58C1007.6 484.085 1007.82 483.493 1007.92 482.803H1013.06C1012.98 484.303 1012.57 485.624 1011.84 486.766C1011.11 487.899 1010.11 488.786 1008.83 489.425C1007.55 490.064 1006.04 490.384 1004.29 490.384ZM1016.55 490V470.364H1022V490H1016.55ZM1019.29 467.832C1018.48 467.832 1017.78 467.564 1017.2 467.027C1016.63 466.482 1016.35 465.83 1016.35 465.071C1016.35 464.321 1016.63 463.678 1017.2 463.141C1017.78 462.595 1018.48 462.322 1019.29 462.322C1020.1 462.322 1020.79 462.595 1021.36 463.141C1021.94 463.678 1022.23 464.321 1022.23 465.071C1022.23 465.83 1021.94 466.482 1021.36 467.027C1020.79 467.564 1020.1 467.832 1019.29 467.832ZM1036.8 470.364V474.455H1024.98V470.364H1036.8ZM1027.66 465.659H1033.11V483.966C1033.11 484.469 1033.19 484.861 1033.34 485.142C1033.49 485.415 1033.71 485.607 1033.98 485.717C1034.26 485.828 1034.58 485.884 1034.95 485.884C1035.21 485.884 1035.46 485.862 1035.72 485.82C1035.97 485.768 1036.17 485.73 1036.3 485.705L1037.16 489.757C1036.89 489.842 1036.51 489.94 1036.01 490.051C1035.52 490.17 1034.92 490.243 1034.21 490.268C1032.9 490.32 1031.75 490.145 1030.76 489.744C1029.78 489.344 1029.01 488.722 1028.47 487.878C1027.92 487.034 1027.65 485.969 1027.66 484.682V465.659ZM1043.71 497.364C1043.02 497.364 1042.38 497.308 1041.77 497.197C1041.17 497.095 1040.68 496.963 1040.29 496.801L1041.51 492.736C1042.15 492.932 1042.73 493.038 1043.24 493.055C1043.76 493.072 1044.21 492.953 1044.58 492.697C1044.97 492.442 1045.28 492.007 1045.52 491.393L1045.84 490.562L1038.79 470.364H1044.52L1048.58 484.784H1048.79L1052.89 470.364H1058.66L1051.03 492.122C1050.66 493.179 1050.16 494.099 1049.53 494.884C1048.91 495.676 1048.12 496.286 1047.16 496.712C1046.21 497.146 1045.06 497.364 1043.71 497.364Z" fill="black"/>
</g>
<g opacity="0.25">
<rect x="1039" y="430" width="258" height="221" fill="#DDDDDD"/>
<path d="M1121.63 518.909C1121.63 521.764 1121.09 524.193 1120.01 526.196C1118.93 528.199 1117.47 529.729 1115.61 530.786C1113.76 531.834 1111.68 532.358 1109.37 532.358C1107.05 532.358 1104.96 531.83 1103.11 530.773C1101.26 529.716 1099.8 528.186 1098.72 526.183C1097.65 524.18 1097.11 521.756 1097.11 518.909C1097.11 516.054 1097.65 513.625 1098.72 511.622C1099.8 509.619 1101.26 508.094 1103.11 507.045C1104.96 505.989 1107.05 505.46 1109.37 505.46C1111.68 505.46 1113.76 505.989 1115.61 507.045C1117.47 508.094 1118.93 509.619 1120.01 511.622C1121.09 513.625 1121.63 516.054 1121.63 518.909ZM1116.02 518.909C1116.02 517.06 1115.74 515.5 1115.19 514.23C1114.64 512.96 1113.87 511.997 1112.88 511.341C1111.88 510.685 1110.71 510.357 1109.37 510.357C1108.03 510.357 1106.87 510.685 1105.87 511.341C1104.87 511.997 1104.1 512.96 1103.54 514.23C1103 515.5 1102.72 517.06 1102.72 518.909C1102.72 520.759 1103 522.318 1103.54 523.588C1104.1 524.858 1104.87 525.821 1105.87 526.477C1106.87 527.134 1108.03 527.462 1109.37 527.462C1110.71 527.462 1111.88 527.134 1112.88 526.477C1113.87 525.821 1114.64 524.858 1115.19 523.588C1115.74 522.318 1116.02 520.759 1116.02 518.909ZM1125.63 532V512.364H1130.91V515.79H1131.11C1131.47 514.571 1132.07 513.651 1132.92 513.028C1133.76 512.398 1134.73 512.082 1135.83 512.082C1136.1 512.082 1136.4 512.099 1136.71 512.134C1137.03 512.168 1137.31 512.214 1137.55 512.274V517.107C1137.29 517.03 1136.94 516.962 1136.48 516.902C1136.03 516.842 1135.62 516.812 1135.24 516.812C1134.44 516.812 1133.73 516.987 1133.1 517.337C1132.47 517.678 1131.98 518.155 1131.61 518.768C1131.26 519.382 1131.08 520.089 1131.08 520.891V532H1125.63ZM1146.68 532.32C1145.19 532.32 1143.84 531.936 1142.63 531.169C1141.43 530.393 1140.47 529.256 1139.77 527.756C1139.07 526.247 1138.72 524.398 1138.72 522.207C1138.72 519.957 1139.08 518.087 1139.8 516.595C1140.53 515.095 1141.49 513.974 1142.69 513.233C1143.9 512.483 1145.23 512.108 1146.67 512.108C1147.77 512.108 1148.69 512.295 1149.42 512.67C1150.16 513.037 1150.76 513.497 1151.21 514.051C1151.67 514.597 1152.02 515.134 1152.26 515.662H1152.42V505.818H1157.86V532H1152.49V528.855H1152.26C1152 529.401 1151.64 529.942 1151.17 530.479C1150.71 531.007 1150.11 531.446 1149.37 531.795C1148.63 532.145 1147.74 532.32 1146.68 532.32ZM1148.41 527.986C1149.29 527.986 1150.03 527.747 1150.63 527.27C1151.25 526.784 1151.72 526.107 1152.04 525.237C1152.37 524.368 1152.54 523.349 1152.54 522.182C1152.54 521.014 1152.38 520 1152.05 519.139C1151.73 518.278 1151.26 517.614 1150.65 517.145C1150.03 516.676 1149.29 516.442 1148.41 516.442C1147.51 516.442 1146.76 516.685 1146.15 517.17C1145.53 517.656 1145.07 518.33 1144.75 519.19C1144.44 520.051 1144.28 521.048 1144.28 522.182C1144.28 523.324 1144.44 524.334 1144.75 525.212C1145.08 526.081 1145.54 526.763 1146.15 527.257C1146.76 527.743 1147.51 527.986 1148.41 527.986ZM1171.28 532.384C1169.26 532.384 1167.52 531.974 1166.07 531.156C1164.62 530.33 1163.5 529.162 1162.72 527.653C1161.93 526.136 1161.54 524.342 1161.54 522.271C1161.54 520.251 1161.93 518.479 1162.72 516.953C1163.5 515.428 1164.6 514.239 1166.03 513.386C1167.46 512.534 1169.14 512.108 1171.06 512.108C1172.36 512.108 1173.57 512.317 1174.68 512.734C1175.81 513.143 1176.79 513.761 1177.62 514.588C1178.47 515.415 1179.12 516.455 1179.59 517.707C1180.06 518.952 1180.3 520.409 1180.3 522.08V523.575H1163.71V520.2H1175.17C1175.17 519.416 1175 518.722 1174.66 518.116C1174.32 517.511 1173.84 517.038 1173.24 516.697C1172.64 516.348 1171.95 516.173 1171.15 516.173C1170.33 516.173 1169.59 516.365 1168.96 516.749C1168.32 517.124 1167.83 517.631 1167.47 518.27C1167.11 518.901 1166.93 519.604 1166.92 520.379V523.588C1166.92 524.56 1167.1 525.399 1167.46 526.107C1167.83 526.814 1168.34 527.359 1169.01 527.743C1169.67 528.126 1170.46 528.318 1171.37 528.318C1171.98 528.318 1172.53 528.233 1173.03 528.062C1173.54 527.892 1173.97 527.636 1174.32 527.295C1174.68 526.955 1174.96 526.537 1175.14 526.043L1180.18 526.375C1179.92 527.585 1179.4 528.642 1178.61 529.545C1177.82 530.44 1176.81 531.139 1175.56 531.642C1174.33 532.136 1172.9 532.384 1171.28 532.384ZM1183.85 532V512.364H1189.13V515.79H1189.33C1189.69 514.571 1190.29 513.651 1191.14 513.028C1191.98 512.398 1192.95 512.082 1194.05 512.082C1194.32 512.082 1194.62 512.099 1194.93 512.134C1195.25 512.168 1195.53 512.214 1195.76 512.274V517.107C1195.51 517.03 1195.15 516.962 1194.7 516.902C1194.25 516.842 1193.84 516.812 1193.46 516.812C1192.66 516.812 1191.95 516.987 1191.31 517.337C1190.69 517.678 1190.2 518.155 1189.83 518.768C1189.47 519.382 1189.3 520.089 1189.3 520.891V532H1183.85ZM1215.78 532.384C1213.8 532.384 1212.08 531.962 1210.63 531.118C1209.19 530.266 1208.08 529.081 1207.3 527.564C1206.51 526.038 1206.12 524.27 1206.12 522.259C1206.12 520.23 1206.51 518.457 1207.3 516.94C1208.08 515.415 1209.19 514.23 1210.63 513.386C1212.08 512.534 1213.8 512.108 1215.78 512.108C1217.77 512.108 1219.48 512.534 1220.92 513.386C1222.37 514.23 1223.49 515.415 1224.27 516.94C1225.06 518.457 1225.45 520.23 1225.45 522.259C1225.45 524.27 1225.06 526.038 1224.27 527.564C1223.49 529.081 1222.37 530.266 1220.92 531.118C1219.48 531.962 1217.77 532.384 1215.78 532.384ZM1215.81 528.165C1216.71 528.165 1217.47 527.909 1218.07 527.398C1218.68 526.878 1219.13 526.17 1219.44 525.276C1219.76 524.381 1219.91 523.362 1219.91 522.22C1219.91 521.078 1219.76 520.06 1219.44 519.165C1219.13 518.27 1218.68 517.562 1218.07 517.043C1217.47 516.523 1216.71 516.263 1215.81 516.263C1214.9 516.263 1214.13 516.523 1213.51 517.043C1212.89 517.562 1212.43 518.27 1212.11 519.165C1211.81 520.06 1211.65 521.078 1211.65 522.22C1211.65 523.362 1211.81 524.381 1212.11 525.276C1212.43 526.17 1212.89 526.878 1213.51 527.398C1214.13 527.909 1214.9 528.165 1215.81 528.165ZM1239.55 512.364V516.455H1227.43V512.364H1239.55ZM1230.2 532V510.945C1230.2 509.521 1230.48 508.341 1231.04 507.403C1231.6 506.466 1232.36 505.763 1233.34 505.294C1234.31 504.825 1235.41 504.591 1236.65 504.591C1237.48 504.591 1238.25 504.655 1238.94 504.783C1239.63 504.911 1240.15 505.026 1240.5 505.128L1239.52 509.219C1239.31 509.151 1239.05 509.087 1238.73 509.027C1238.42 508.967 1238.11 508.938 1237.79 508.938C1236.98 508.938 1236.43 509.125 1236.11 509.5C1235.8 509.866 1235.64 510.382 1235.64 511.047V532H1230.2ZM1067.3 576H1061.37L1070.4 549.818H1077.54L1086.56 576H1080.63L1074.07 555.801H1073.87L1067.3 576ZM1066.93 565.709H1080.94V570.03H1066.93V565.709ZM1089.61 583.364V556.364H1094.98V559.662H1095.22C1095.46 559.134 1095.81 558.597 1096.26 558.051C1096.72 557.497 1097.32 557.037 1098.05 556.67C1098.79 556.295 1099.71 556.108 1100.81 556.108C1102.24 556.108 1103.56 556.483 1104.77 557.233C1105.98 557.974 1106.95 559.095 1107.68 560.595C1108.4 562.087 1108.76 563.957 1108.76 566.207C1108.76 568.398 1108.41 570.247 1107.7 571.756C1107 573.256 1106.05 574.393 1104.84 575.169C1103.64 575.936 1102.29 576.32 1100.8 576.32C1099.74 576.32 1098.84 576.145 1098.1 575.795C1097.37 575.446 1096.77 575.007 1096.3 574.479C1095.83 573.942 1095.47 573.401 1095.22 572.855H1095.06V583.364H1089.61ZM1094.94 566.182C1094.94 567.349 1095.11 568.368 1095.43 569.237C1095.75 570.107 1096.22 570.784 1096.84 571.27C1097.45 571.747 1098.2 571.986 1099.07 571.986C1099.96 571.986 1100.71 571.743 1101.32 571.257C1101.94 570.763 1102.4 570.081 1102.72 569.212C1103.04 568.334 1103.2 567.324 1103.2 566.182C1103.2 565.048 1103.04 564.051 1102.73 563.19C1102.41 562.33 1101.95 561.656 1101.34 561.17C1100.72 560.685 1099.97 560.442 1099.07 560.442C1098.19 560.442 1097.44 560.676 1096.82 561.145C1096.22 561.614 1095.75 562.278 1095.43 563.139C1095.11 564 1094.94 565.014 1094.94 566.182ZM1112.39 583.364V556.364H1117.76V559.662H1118.01C1118.24 559.134 1118.59 558.597 1119.04 558.051C1119.5 557.497 1120.1 557.037 1120.83 556.67C1121.57 556.295 1122.49 556.108 1123.59 556.108C1125.02 556.108 1126.35 556.483 1127.56 557.233C1128.77 557.974 1129.73 559.095 1130.46 560.595C1131.18 562.087 1131.54 563.957 1131.54 566.207C1131.54 568.398 1131.19 570.247 1130.48 571.756C1129.78 573.256 1128.83 574.393 1127.62 575.169C1126.42 575.936 1125.07 576.32 1123.58 576.32C1122.52 576.32 1121.62 576.145 1120.88 575.795C1120.15 575.446 1119.55 575.007 1119.08 574.479C1118.61 573.942 1118.25 573.401 1118.01 572.855H1117.84V583.364H1112.39ZM1117.72 566.182C1117.72 567.349 1117.89 568.368 1118.21 569.237C1118.53 570.107 1119 570.784 1119.62 571.27C1120.23 571.747 1120.98 571.986 1121.85 571.986C1122.74 571.986 1123.49 571.743 1124.1 571.257C1124.72 570.763 1125.18 570.081 1125.5 569.212C1125.82 568.334 1125.98 567.324 1125.98 566.182C1125.98 565.048 1125.83 564.051 1125.51 563.19C1125.2 562.33 1124.73 561.656 1124.12 561.17C1123.5 560.685 1122.75 560.442 1121.85 560.442C1120.97 560.442 1120.22 560.676 1119.6 561.145C1119 561.614 1118.53 562.278 1118.21 563.139C1117.89 564 1117.72 565.014 1117.72 566.182ZM1144.12 576.384C1142.1 576.384 1140.37 575.974 1138.91 575.156C1137.46 574.33 1136.34 573.162 1135.56 571.653C1134.77 570.136 1134.38 568.342 1134.38 566.271C1134.38 564.251 1134.77 562.479 1135.56 560.953C1136.34 559.428 1137.45 558.239 1138.87 557.386C1140.3 556.534 1141.98 556.108 1143.91 556.108C1145.2 556.108 1146.41 556.317 1147.52 556.734C1148.65 557.143 1149.63 557.761 1150.47 558.588C1151.31 559.415 1151.97 560.455 1152.43 561.707C1152.9 562.952 1153.14 564.409 1153.14 566.08V567.575H1136.56V564.2H1148.01C1148.01 563.416 1147.84 562.722 1147.5 562.116C1147.16 561.511 1146.69 561.038 1146.08 560.697C1145.48 560.348 1144.79 560.173 1144 560.173C1143.17 560.173 1142.44 560.365 1141.8 560.749C1141.17 561.124 1140.67 561.631 1140.31 562.27C1139.96 562.901 1139.77 563.604 1139.76 564.379V567.588C1139.76 568.56 1139.94 569.399 1140.3 570.107C1140.67 570.814 1141.18 571.359 1141.85 571.743C1142.51 572.126 1143.3 572.318 1144.21 572.318C1144.82 572.318 1145.37 572.233 1145.88 572.062C1146.38 571.892 1146.81 571.636 1147.17 571.295C1147.52 570.955 1147.8 570.537 1147.98 570.043L1153.02 570.375C1152.77 571.585 1152.24 572.642 1151.45 573.545C1150.67 574.44 1149.65 575.139 1148.41 575.642C1147.17 576.136 1145.74 576.384 1144.12 576.384ZM1162.29 576.371C1161.04 576.371 1159.92 576.153 1158.94 575.719C1157.96 575.276 1157.19 574.624 1156.61 573.763C1156.05 572.893 1155.77 571.811 1155.77 570.516C1155.77 569.425 1155.97 568.509 1156.37 567.767C1156.77 567.026 1157.32 566.429 1158.01 565.977C1158.7 565.526 1159.48 565.185 1160.36 564.955C1161.25 564.724 1162.18 564.562 1163.15 564.469C1164.29 564.349 1165.21 564.239 1165.91 564.136C1166.61 564.026 1167.11 563.864 1167.43 563.651C1167.74 563.437 1167.9 563.122 1167.9 562.705V562.628C1167.9 561.818 1167.65 561.192 1167.14 560.749C1166.63 560.305 1165.92 560.084 1164.99 560.084C1164.01 560.084 1163.23 560.301 1162.65 560.736C1162.07 561.162 1161.69 561.699 1161.5 562.347L1156.46 561.938C1156.72 560.744 1157.22 559.713 1157.97 558.844C1158.72 557.966 1159.69 557.293 1160.87 556.824C1162.06 556.347 1163.45 556.108 1165.01 556.108C1166.1 556.108 1167.15 556.236 1168.15 556.491C1169.15 556.747 1170.04 557.143 1170.82 557.68C1171.6 558.217 1172.22 558.908 1172.67 559.751C1173.12 560.587 1173.35 561.588 1173.35 562.756V576H1168.18V573.277H1168.03C1167.72 573.891 1167.29 574.432 1166.76 574.901C1166.24 575.361 1165.6 575.723 1164.86 575.987C1164.12 576.243 1163.26 576.371 1162.29 576.371ZM1163.85 572.612C1164.65 572.612 1165.36 572.455 1165.97 572.139C1166.59 571.815 1167.07 571.381 1167.42 570.835C1167.77 570.29 1167.94 569.672 1167.94 568.982V566.898C1167.77 567.009 1167.54 567.111 1167.24 567.205C1166.95 567.29 1166.62 567.371 1166.25 567.447C1165.89 567.516 1165.52 567.58 1165.15 567.639C1164.79 567.69 1164.46 567.737 1164.16 567.78C1163.52 567.874 1162.96 568.023 1162.48 568.227C1162 568.432 1161.63 568.709 1161.37 569.058C1161.11 569.399 1160.97 569.825 1160.97 570.337C1160.97 571.078 1161.24 571.645 1161.78 572.037C1162.32 572.42 1163.01 572.612 1163.85 572.612ZM1177.57 576V556.364H1182.85V559.79H1183.06C1183.42 558.571 1184.02 557.651 1184.86 557.028C1185.7 556.398 1186.68 556.082 1187.78 556.082C1188.05 556.082 1188.34 556.099 1188.66 556.134C1188.97 556.168 1189.25 556.214 1189.49 556.274V561.107C1189.23 561.03 1188.88 560.962 1188.43 560.902C1187.98 560.842 1187.56 560.812 1187.19 560.812C1186.39 560.812 1185.67 560.987 1185.04 561.337C1184.42 561.678 1183.92 562.155 1183.56 562.768C1183.2 563.382 1183.02 564.089 1183.02 564.891V576H1177.57ZM1197.34 576.371C1196.09 576.371 1194.97 576.153 1193.99 575.719C1193.01 575.276 1192.24 574.624 1191.66 573.763C1191.1 572.893 1190.82 571.811 1190.82 570.516C1190.82 569.425 1191.02 568.509 1191.42 567.767C1191.82 567.026 1192.37 566.429 1193.06 565.977C1193.75 565.526 1194.53 565.185 1195.41 564.955C1196.3 564.724 1197.23 564.562 1198.2 564.469C1199.34 564.349 1200.26 564.239 1200.96 564.136C1201.66 564.026 1202.16 563.864 1202.48 563.651C1202.8 563.437 1202.95 563.122 1202.95 562.705V562.628C1202.95 561.818 1202.7 561.192 1202.19 560.749C1201.68 560.305 1200.97 560.084 1200.04 560.084C1199.06 560.084 1198.28 560.301 1197.7 560.736C1197.12 561.162 1196.74 561.699 1196.55 562.347L1191.51 561.938C1191.77 560.744 1192.27 559.713 1193.02 558.844C1193.77 557.966 1194.74 557.293 1195.92 556.824C1197.12 556.347 1198.5 556.108 1200.06 556.108C1201.16 556.108 1202.2 556.236 1203.2 556.491C1204.2 556.747 1205.09 557.143 1205.87 557.68C1206.65 558.217 1207.27 558.908 1207.72 559.751C1208.17 560.587 1208.4 561.588 1208.4 562.756V576H1203.23V573.277H1203.08C1202.77 573.891 1202.34 574.432 1201.82 574.901C1201.29 575.361 1200.65 575.723 1199.91 575.987C1199.17 576.243 1198.31 576.371 1197.34 576.371ZM1198.9 572.612C1199.7 572.612 1200.41 572.455 1201.02 572.139C1201.64 571.815 1202.12 571.381 1202.47 570.835C1202.82 570.29 1202.99 569.672 1202.99 568.982V566.898C1202.82 567.009 1202.59 567.111 1202.29 567.205C1202 567.29 1201.67 567.371 1201.3 567.447C1200.94 567.516 1200.57 567.58 1200.2 567.639C1199.84 567.69 1199.51 567.737 1199.21 567.78C1198.57 567.874 1198.01 568.023 1197.53 568.227C1197.06 568.432 1196.68 568.709 1196.42 569.058C1196.16 569.399 1196.02 569.825 1196.02 570.337C1196.02 571.078 1196.29 571.645 1196.83 572.037C1197.38 572.42 1198.07 572.612 1198.9 572.612ZM1218.07 564.648V576H1212.62V556.364H1217.81V559.828H1218.04C1218.48 558.686 1219.21 557.783 1220.23 557.118C1221.25 556.445 1222.49 556.108 1223.95 556.108C1225.31 556.108 1226.5 556.406 1227.52 557.003C1228.53 557.599 1229.32 558.452 1229.88 559.56C1230.45 560.659 1230.73 561.972 1230.73 563.497V576H1225.28V564.469C1225.29 563.267 1224.98 562.33 1224.36 561.656C1223.74 560.974 1222.88 560.634 1221.79 560.634C1221.06 560.634 1220.41 560.791 1219.85 561.107C1219.29 561.422 1218.86 561.882 1218.54 562.487C1218.24 563.084 1218.08 563.804 1218.07 564.648ZM1243.89 576.384C1241.88 576.384 1240.15 575.957 1238.7 575.105C1237.26 574.244 1236.15 573.051 1235.38 571.526C1234.61 570 1234.23 568.244 1234.23 566.259C1234.23 564.247 1234.61 562.483 1235.39 560.966C1236.17 559.44 1237.29 558.251 1238.73 557.399C1240.17 556.538 1241.88 556.108 1243.87 556.108C1245.58 556.108 1247.08 556.419 1248.37 557.041C1249.65 557.663 1250.67 558.537 1251.42 559.662C1252.17 560.787 1252.58 562.108 1252.66 563.625H1247.52C1247.38 562.645 1246.99 561.857 1246.37 561.26C1245.76 560.655 1244.95 560.352 1243.96 560.352C1243.11 560.352 1242.37 560.582 1241.74 561.043C1241.12 561.494 1240.64 562.155 1240.29 563.024C1239.94 563.893 1239.76 564.946 1239.76 566.182C1239.76 567.435 1239.93 568.5 1240.27 569.378C1240.62 570.256 1241.11 570.925 1241.74 571.385C1242.37 571.845 1243.11 572.075 1243.96 572.075C1244.58 572.075 1245.14 571.947 1245.63 571.692C1246.13 571.436 1246.55 571.065 1246.87 570.58C1247.2 570.085 1247.42 569.493 1247.52 568.803H1252.66C1252.58 570.303 1252.17 571.624 1251.43 572.766C1250.71 573.899 1249.71 574.786 1248.43 575.425C1247.15 576.064 1245.64 576.384 1243.89 576.384ZM1265.1 576.384C1263.08 576.384 1261.34 575.974 1259.88 575.156C1258.43 574.33 1257.32 573.162 1256.53 571.653C1255.75 570.136 1255.36 568.342 1255.36 566.271C1255.36 564.251 1255.75 562.479 1256.53 560.953C1257.32 559.428 1258.42 558.239 1259.84 557.386C1261.27 556.534 1262.95 556.108 1264.88 556.108C1266.17 556.108 1267.38 556.317 1268.5 556.734C1269.62 557.143 1270.6 557.761 1271.44 558.588C1272.28 559.415 1272.94 560.455 1273.41 561.707C1273.88 562.952 1274.11 564.409 1274.11 566.08V567.575H1257.53V564.2H1268.98C1268.98 563.416 1268.81 562.722 1268.47 562.116C1268.13 561.511 1267.66 561.038 1267.05 560.697C1266.46 560.348 1265.76 560.173 1264.97 560.173C1264.14 560.173 1263.41 560.365 1262.77 560.749C1262.14 561.124 1261.65 561.631 1261.29 562.27C1260.93 562.901 1260.75 563.604 1260.74 564.379V567.588C1260.74 568.56 1260.92 569.399 1261.27 570.107C1261.64 570.814 1262.16 571.359 1262.82 571.743C1263.49 572.126 1264.27 572.318 1265.19 572.318C1265.79 572.318 1266.35 572.233 1266.85 572.062C1267.35 571.892 1267.78 571.636 1268.14 571.295C1268.5 570.955 1268.77 570.537 1268.96 570.043L1273.99 570.375C1273.74 571.585 1273.21 572.642 1272.42 573.545C1271.64 574.44 1270.62 575.139 1269.38 575.642C1268.14 576.136 1266.72 576.384 1265.1 576.384Z" fill="black"/>
</g>
<rect x="624" y="258" width="258" height="221" fill="#0065FF"/>
<path d="M701.085 342.984H695.486C695.384 342.26 695.175 341.616 694.86 341.054C694.544 340.483 694.139 339.997 693.645 339.597C693.151 339.196 692.58 338.889 691.932 338.676C691.293 338.463 690.598 338.357 689.848 338.357C688.493 338.357 687.313 338.693 686.307 339.366C685.301 340.031 684.521 341.003 683.968 342.281C683.414 343.551 683.137 345.094 683.137 346.909C683.137 348.776 683.414 350.344 683.968 351.614C684.53 352.884 685.314 353.842 686.32 354.49C687.325 355.138 688.489 355.462 689.81 355.462C690.551 355.462 691.237 355.364 691.868 355.168C692.507 354.972 693.074 354.686 693.568 354.311C694.063 353.928 694.472 353.463 694.796 352.918C695.128 352.372 695.358 351.75 695.486 351.051L701.085 351.077C700.941 352.278 700.578 353.438 699.999 354.554C699.428 355.662 698.656 356.655 697.685 357.533C696.722 358.402 695.571 359.092 694.233 359.604C692.904 360.107 691.399 360.358 689.72 360.358C687.385 360.358 685.297 359.83 683.456 358.773C681.624 357.716 680.175 356.186 679.11 354.183C678.053 352.18 677.524 349.756 677.524 346.909C677.524 344.054 678.061 341.625 679.135 339.622C680.209 337.619 681.666 336.094 683.507 335.045C685.348 333.989 687.419 333.46 689.72 333.46C691.237 333.46 692.644 333.673 693.939 334.099C695.243 334.526 696.398 335.148 697.404 335.966C698.409 336.776 699.227 337.768 699.858 338.945C700.497 340.121 700.906 341.467 701.085 342.984ZM710.552 360.371C709.299 360.371 708.183 360.153 707.203 359.719C706.222 359.276 705.447 358.624 704.876 357.763C704.313 356.893 704.032 355.811 704.032 354.516C704.032 353.425 704.232 352.509 704.633 351.767C705.034 351.026 705.579 350.429 706.269 349.977C706.96 349.526 707.744 349.185 708.622 348.955C709.508 348.724 710.437 348.562 711.409 348.469C712.551 348.349 713.471 348.239 714.17 348.136C714.869 348.026 715.376 347.864 715.691 347.651C716.007 347.437 716.164 347.122 716.164 346.705V346.628C716.164 345.818 715.909 345.192 715.397 344.749C714.894 344.305 714.178 344.084 713.249 344.084C712.269 344.084 711.49 344.301 710.91 344.736C710.33 345.162 709.947 345.699 709.759 346.347L704.722 345.938C704.978 344.744 705.481 343.713 706.231 342.844C706.981 341.966 707.948 341.293 709.133 340.824C710.326 340.347 711.707 340.108 713.275 340.108C714.366 340.108 715.41 340.236 716.407 340.491C717.413 340.747 718.303 341.143 719.079 341.68C719.863 342.217 720.481 342.908 720.933 343.751C721.384 344.587 721.61 345.588 721.61 346.756V360H716.445V357.277H716.292C715.977 357.891 715.555 358.432 715.026 358.901C714.498 359.361 713.863 359.723 713.122 359.987C712.38 360.243 711.524 360.371 710.552 360.371ZM712.112 356.612C712.913 356.612 713.62 356.455 714.234 356.139C714.847 355.815 715.329 355.381 715.678 354.835C716.028 354.29 716.203 353.672 716.203 352.982V350.898C716.032 351.009 715.798 351.111 715.499 351.205C715.21 351.29 714.882 351.371 714.515 351.447C714.149 351.516 713.782 351.58 713.416 351.639C713.049 351.69 712.717 351.737 712.419 351.78C711.779 351.874 711.221 352.023 710.744 352.227C710.267 352.432 709.896 352.709 709.632 353.058C709.367 353.399 709.235 353.825 709.235 354.337C709.235 355.078 709.504 355.645 710.041 356.037C710.586 356.42 711.276 356.612 712.112 356.612ZM742.173 345.963L737.188 346.27C737.102 345.844 736.919 345.46 736.638 345.119C736.357 344.77 735.986 344.493 735.526 344.288C735.074 344.075 734.533 343.969 733.902 343.969C733.058 343.969 732.347 344.148 731.767 344.506C731.188 344.855 730.898 345.324 730.898 345.912C730.898 346.381 731.085 346.777 731.46 347.101C731.835 347.425 732.479 347.685 733.391 347.881L736.945 348.597C738.854 348.989 740.277 349.619 741.215 350.489C742.152 351.358 742.621 352.5 742.621 353.915C742.621 355.202 742.242 356.331 741.483 357.303C740.733 358.274 739.702 359.033 738.389 359.578C737.085 360.115 735.581 360.384 733.877 360.384C731.277 360.384 729.206 359.842 727.664 358.76C726.129 357.669 725.23 356.186 724.966 354.311L730.323 354.03C730.485 354.822 730.877 355.428 731.499 355.845C732.121 356.254 732.918 356.459 733.889 356.459C734.844 356.459 735.611 356.276 736.191 355.909C736.779 355.534 737.077 355.053 737.085 354.464C737.077 353.97 736.868 353.565 736.459 353.25C736.05 352.926 735.419 352.679 734.567 352.509L731.166 351.831C729.249 351.447 727.821 350.783 726.884 349.837C725.955 348.891 725.49 347.685 725.49 346.219C725.49 344.957 725.831 343.871 726.513 342.959C727.203 342.047 728.171 341.344 729.415 340.849C730.668 340.355 732.134 340.108 733.813 340.108C736.293 340.108 738.244 340.632 739.668 341.68C741.1 342.729 741.935 344.156 742.173 345.963ZM754.922 360.384C752.911 360.384 751.181 359.957 749.732 359.105C748.292 358.244 747.184 357.051 746.408 355.526C745.641 354 745.258 352.244 745.258 350.259C745.258 348.247 745.645 346.483 746.421 344.966C747.205 343.44 748.317 342.251 749.758 341.399C751.198 340.538 752.911 340.108 754.897 340.108C756.61 340.108 758.11 340.419 759.397 341.041C760.684 341.663 761.702 342.537 762.452 343.662C763.202 344.787 763.616 346.108 763.692 347.625H758.553C758.408 346.645 758.025 345.857 757.403 345.26C756.789 344.655 755.983 344.352 754.986 344.352C754.143 344.352 753.405 344.582 752.775 345.043C752.153 345.494 751.667 346.155 751.317 347.024C750.968 347.893 750.793 348.946 750.793 350.182C750.793 351.435 750.964 352.5 751.305 353.378C751.654 354.256 752.144 354.925 752.775 355.385C753.405 355.845 754.143 356.075 754.986 356.075C755.608 356.075 756.167 355.947 756.661 355.692C757.164 355.436 757.577 355.065 757.901 354.58C758.233 354.085 758.451 353.493 758.553 352.803H763.692C763.607 354.303 763.198 355.624 762.465 356.766C761.741 357.899 760.739 358.786 759.461 359.425C758.182 360.064 756.67 360.384 754.922 360.384ZM772.779 360.371C771.526 360.371 770.409 360.153 769.429 359.719C768.449 359.276 767.673 358.624 767.102 357.763C766.54 356.893 766.259 355.811 766.259 354.516C766.259 353.425 766.459 352.509 766.86 351.767C767.26 351.026 767.806 350.429 768.496 349.977C769.186 349.526 769.97 349.185 770.848 348.955C771.735 348.724 772.664 348.562 773.635 348.469C774.777 348.349 775.698 348.239 776.396 348.136C777.095 348.026 777.602 347.864 777.918 347.651C778.233 347.437 778.391 347.122 778.391 346.705V346.628C778.391 345.818 778.135 345.192 777.624 344.749C777.121 344.305 776.405 344.084 775.476 344.084C774.496 344.084 773.716 344.301 773.137 344.736C772.557 345.162 772.173 345.699 771.986 346.347L766.949 345.938C767.205 344.744 767.708 343.713 768.458 342.844C769.208 341.966 770.175 341.293 771.36 340.824C772.553 340.347 773.933 340.108 775.502 340.108C776.593 340.108 777.637 340.236 778.634 340.491C779.639 340.747 780.53 341.143 781.306 341.68C782.09 342.217 782.708 342.908 783.159 343.751C783.611 344.587 783.837 345.588 783.837 346.756V360H778.672V357.277H778.519C778.203 357.891 777.781 358.432 777.253 358.901C776.725 359.361 776.09 359.723 775.348 359.987C774.607 360.243 773.75 360.371 772.779 360.371ZM774.338 356.612C775.139 356.612 775.847 356.455 776.46 356.139C777.074 355.815 777.556 355.381 777.905 354.835C778.254 354.29 778.429 353.672 778.429 352.982V350.898C778.259 351.009 778.024 351.111 777.726 351.205C777.436 351.29 777.108 351.371 776.742 351.447C776.375 351.516 776.009 351.58 775.642 351.639C775.276 351.69 774.943 351.737 774.645 351.78C774.006 351.874 773.448 352.023 772.97 352.227C772.493 352.432 772.122 352.709 771.858 353.058C771.594 353.399 771.462 353.825 771.462 354.337C771.462 355.078 771.73 355.645 772.267 356.037C772.813 356.42 773.503 356.612 774.338 356.612ZM795.298 360.32C793.806 360.32 792.455 359.936 791.245 359.169C790.044 358.393 789.089 357.256 788.382 355.756C787.683 354.247 787.333 352.398 787.333 350.207C787.333 347.957 787.695 346.087 788.42 344.595C789.144 343.095 790.107 341.974 791.309 341.233C792.519 340.483 793.845 340.108 795.285 340.108C796.384 340.108 797.301 340.295 798.034 340.67C798.775 341.037 799.372 341.497 799.823 342.051C800.284 342.597 800.633 343.134 800.872 343.662H801.038V333.818H806.471V360H801.102V356.855H800.872C800.616 357.401 800.254 357.942 799.785 358.479C799.325 359.007 798.724 359.446 797.982 359.795C797.249 360.145 796.355 360.32 795.298 360.32ZM797.024 355.986C797.901 355.986 798.643 355.747 799.248 355.27C799.862 354.784 800.33 354.107 800.654 353.237C800.987 352.368 801.153 351.349 801.153 350.182C801.153 349.014 800.991 348 800.667 347.139C800.343 346.278 799.874 345.614 799.261 345.145C798.647 344.676 797.901 344.442 797.024 344.442C796.129 344.442 795.374 344.685 794.761 345.17C794.147 345.656 793.683 346.33 793.367 347.19C793.052 348.051 792.894 349.048 792.894 350.182C792.894 351.324 793.052 352.334 793.367 353.212C793.691 354.081 794.156 354.763 794.761 355.257C795.374 355.743 796.129 355.986 797.024 355.986ZM819.898 360.384C817.878 360.384 816.139 359.974 814.682 359.156C813.233 358.33 812.116 357.162 811.332 355.653C810.548 354.136 810.156 352.342 810.156 350.271C810.156 348.251 810.548 346.479 811.332 344.953C812.116 343.428 813.22 342.239 814.643 341.386C816.075 340.534 817.754 340.108 819.68 340.108C820.976 340.108 822.182 340.317 823.298 340.734C824.423 341.143 825.403 341.761 826.238 342.588C827.082 343.415 827.738 344.455 828.207 345.707C828.676 346.952 828.91 348.409 828.91 350.08V351.575H812.329V348.2H823.784C823.784 347.416 823.613 346.722 823.273 346.116C822.932 345.511 822.459 345.038 821.854 344.697C821.257 344.348 820.562 344.173 819.77 344.173C818.943 344.173 818.21 344.365 817.571 344.749C816.94 345.124 816.446 345.631 816.088 346.27C815.73 346.901 815.547 347.604 815.538 348.379V351.588C815.538 352.56 815.717 353.399 816.075 354.107C816.442 354.814 816.957 355.359 817.622 355.743C818.287 356.126 819.075 356.318 819.987 356.318C820.592 356.318 821.146 356.233 821.649 356.062C822.152 355.892 822.582 355.636 822.94 355.295C823.298 354.955 823.571 354.537 823.758 354.043L828.795 354.375C828.54 355.585 828.015 356.642 827.223 357.545C826.439 358.44 825.425 359.139 824.18 359.642C822.944 360.136 821.517 360.384 819.898 360.384ZM696.512 404V377.818H702.047V399.436H713.272V404H696.512ZM722.435 404.371C721.182 404.371 720.066 404.153 719.085 403.719C718.105 403.276 717.33 402.624 716.759 401.763C716.196 400.893 715.915 399.811 715.915 398.516C715.915 397.425 716.115 396.509 716.516 395.767C716.916 395.026 717.462 394.429 718.152 393.977C718.843 393.526 719.627 393.185 720.504 392.955C721.391 392.724 722.32 392.562 723.291 392.469C724.433 392.349 725.354 392.239 726.053 392.136C726.752 392.026 727.259 391.864 727.574 391.651C727.889 391.437 728.047 391.122 728.047 390.705V390.628C728.047 389.818 727.791 389.192 727.28 388.749C726.777 388.305 726.061 388.084 725.132 388.084C724.152 388.084 723.372 388.301 722.793 388.736C722.213 389.162 721.83 389.699 721.642 390.347L716.605 389.938C716.861 388.744 717.364 387.713 718.114 386.844C718.864 385.966 719.831 385.293 721.016 384.824C722.209 384.347 723.59 384.108 725.158 384.108C726.249 384.108 727.293 384.236 728.29 384.491C729.296 384.747 730.186 385.143 730.962 385.68C731.746 386.217 732.364 386.908 732.816 387.751C733.267 388.587 733.493 389.588 733.493 390.756V404H728.328V401.277H728.175C727.86 401.891 727.438 402.432 726.909 402.901C726.381 403.361 725.746 403.723 725.004 403.987C724.263 404.243 723.406 404.371 722.435 404.371ZM723.994 400.612C724.796 400.612 725.503 400.455 726.117 400.139C726.73 399.815 727.212 399.381 727.561 398.835C727.911 398.29 728.085 397.672 728.085 396.982V394.898C727.915 395.009 727.681 395.111 727.382 395.205C727.093 395.29 726.764 395.371 726.398 395.447C726.031 395.516 725.665 395.58 725.298 395.639C724.932 395.69 724.6 395.737 724.301 395.78C723.662 395.874 723.104 396.023 722.627 396.227C722.149 396.432 721.779 396.709 721.514 397.058C721.25 397.399 721.118 397.825 721.118 398.337C721.118 399.078 721.387 399.645 721.923 400.037C722.469 400.42 723.159 400.612 723.994 400.612ZM740.377 411.364C739.687 411.364 739.039 411.308 738.434 411.197C737.838 411.095 737.343 410.963 736.951 410.801L738.178 406.736C738.818 406.932 739.393 407.038 739.904 407.055C740.424 407.072 740.872 406.953 741.247 406.697C741.63 406.442 741.941 406.007 742.18 405.393L742.499 404.562L735.455 384.364H741.183L745.248 398.784H745.453L749.556 384.364H755.322L747.69 406.122C747.323 407.179 746.825 408.099 746.194 408.884C745.572 409.676 744.784 410.286 743.829 410.712C742.874 411.146 741.724 411.364 740.377 411.364ZM766.425 404.384C764.405 404.384 762.666 403.974 761.209 403.156C759.76 402.33 758.644 401.162 757.86 399.653C757.075 398.136 756.683 396.342 756.683 394.271C756.683 392.251 757.075 390.479 757.86 388.953C758.644 387.428 759.747 386.239 761.171 385.386C762.602 384.534 764.281 384.108 766.208 384.108C767.503 384.108 768.709 384.317 769.825 384.734C770.95 385.143 771.931 385.761 772.766 386.588C773.61 387.415 774.266 388.455 774.735 389.707C775.203 390.952 775.438 392.409 775.438 394.08V395.575H758.857V392.2H770.311C770.311 391.416 770.141 390.722 769.8 390.116C769.459 389.511 768.986 389.038 768.381 388.697C767.784 388.348 767.09 388.173 766.297 388.173C765.47 388.173 764.737 388.365 764.098 388.749C763.468 389.124 762.973 389.631 762.615 390.27C762.257 390.901 762.074 391.604 762.066 392.379V395.588C762.066 396.56 762.244 397.399 762.602 398.107C762.969 398.814 763.485 399.359 764.149 399.743C764.814 400.126 765.602 400.318 766.514 400.318C767.119 400.318 767.673 400.233 768.176 400.062C768.679 399.892 769.11 399.636 769.468 399.295C769.825 398.955 770.098 398.537 770.286 398.043L775.323 398.375C775.067 399.585 774.543 400.642 773.75 401.545C772.966 402.44 771.952 403.139 770.708 403.642C769.472 404.136 768.044 404.384 766.425 404.384ZM778.992 404V384.364H784.271V387.79H784.476C784.834 386.571 785.435 385.651 786.279 385.028C787.122 384.398 788.094 384.082 789.193 384.082C789.466 384.082 789.76 384.099 790.075 384.134C790.391 384.168 790.668 384.214 790.906 384.274V389.107C790.651 389.03 790.297 388.962 789.845 388.902C789.394 388.842 788.98 388.812 788.605 388.812C787.804 388.812 787.088 388.987 786.458 389.337C785.835 389.678 785.341 390.155 784.975 390.768C784.617 391.382 784.438 392.089 784.438 392.891V404H778.992ZM810.06 389.963L805.074 390.27C804.989 389.844 804.806 389.46 804.525 389.119C804.243 388.77 803.873 388.493 803.412 388.288C802.961 388.075 802.42 387.969 801.789 387.969C800.945 387.969 800.233 388.148 799.654 388.506C799.074 388.855 798.785 389.324 798.785 389.912C798.785 390.381 798.972 390.777 799.347 391.101C799.722 391.425 800.366 391.685 801.278 391.881L804.831 392.597C806.741 392.989 808.164 393.619 809.101 394.489C810.039 395.358 810.508 396.5 810.508 397.915C810.508 399.202 810.128 400.331 809.37 401.303C808.62 402.274 807.589 403.033 806.276 403.578C804.972 404.115 803.468 404.384 801.763 404.384C799.164 404.384 797.093 403.842 795.55 402.76C794.016 401.669 793.117 400.186 792.853 398.311L798.209 398.03C798.371 398.822 798.763 399.428 799.385 399.845C800.008 400.254 800.805 400.459 801.776 400.459C802.731 400.459 803.498 400.276 804.077 399.909C804.665 399.534 804.964 399.053 804.972 398.464C804.964 397.97 804.755 397.565 804.346 397.25C803.937 396.926 803.306 396.679 802.454 396.509L799.053 395.831C797.135 395.447 795.708 394.783 794.77 393.837C793.841 392.891 793.377 391.685 793.377 390.219C793.377 388.957 793.718 387.871 794.4 386.959C795.09 386.047 796.057 385.344 797.302 384.849C798.555 384.355 800.02 384.108 801.699 384.108C804.18 384.108 806.131 384.632 807.555 385.68C808.986 386.729 809.822 388.156 810.06 389.963Z" fill="white"/>
</svg>
