<svg width="800" height="400" viewBox="0 0 800 400" fill="none" xmlns="http://www.w3.org/2000/svg">
<rect width="800" height="400" fill="white"/>
<rect width="800" height="100" fill="#AAAAAA"/>
<path d="M332.903 36.8182L332.315 54.9844H327.06L326.472 36.8182H332.903ZM329.681 63.3707C328.769 63.3707 327.985 63.0469 327.329 62.3991C326.681 61.7514 326.357 60.9673 326.357 60.0469C326.357 59.1435 326.681 58.3722 327.329 57.733C327.985 57.0852 328.769 56.7614 329.681 56.7614C330.559 56.7614 331.33 57.0852 331.995 57.733C332.668 58.3722 333.005 59.1435 333.005 60.0469C333.005 60.6605 332.847 61.2187 332.532 61.7216C332.225 62.2244 331.82 62.625 331.317 62.9233C330.823 63.2216 330.278 63.3707 329.681 63.3707ZM354.93 49.3594L349.19 49.5128C349.13 49.1037 348.968 48.7415 348.704 48.4261C348.44 48.1023 348.094 47.8509 347.668 47.6719C347.251 47.4844 346.765 47.3906 346.211 47.3906C345.487 47.3906 344.869 47.5355 344.357 47.8253C343.854 48.1151 343.607 48.5071 343.616 49.0014C343.607 49.3849 343.761 49.7173 344.076 49.9986C344.4 50.2798 344.975 50.5057 345.802 50.6761L349.586 51.392C351.546 51.767 353.004 52.3892 353.958 53.2585C354.921 54.1278 355.407 55.2784 355.415 56.7102C355.407 58.0568 355.006 59.2287 354.214 60.2259C353.43 61.223 352.356 61.9986 350.992 62.5526C349.629 63.098 348.069 63.3707 346.313 63.3707C343.509 63.3707 341.298 62.7955 339.678 61.6449C338.067 60.4858 337.147 58.9347 336.917 56.9915L343.092 56.8381C343.228 57.554 343.582 58.0994 344.153 58.4744C344.724 58.8494 345.452 59.0369 346.339 59.0369C347.14 59.0369 347.792 58.8878 348.295 58.5895C348.798 58.2912 349.053 57.8949 349.062 57.4006C349.053 56.9574 348.857 56.6037 348.474 56.3395C348.09 56.0668 347.489 55.8537 346.671 55.7003L343.245 55.0483C341.276 54.6903 339.81 54.0298 338.847 53.0668C337.884 52.0952 337.407 50.8594 337.415 49.3594C337.407 48.0469 337.756 46.9261 338.464 45.9972C339.171 45.0597 340.177 44.3438 341.481 43.8494C342.785 43.3551 344.323 43.108 346.096 43.108C348.755 43.108 350.852 43.6662 352.386 44.7827C353.92 45.8906 354.768 47.4162 354.93 49.3594ZM364.745 51.8011V63H358.493V36.8182H364.54V46.9688H364.757C365.201 45.7585 365.925 44.8125 366.931 44.1307C367.945 43.4489 369.185 43.108 370.651 43.108C372.032 43.108 373.233 43.4148 374.256 44.0284C375.279 44.6335 376.071 45.4901 376.634 46.598C377.205 47.706 377.486 49.0014 377.478 50.4844V63H371.226V51.7116C371.235 50.6207 370.962 49.7685 370.408 49.1548C369.854 48.5412 369.074 48.2344 368.069 48.2344C367.412 48.2344 366.833 48.3793 366.33 48.669C365.836 48.9503 365.448 49.3551 365.167 49.8835C364.894 50.4119 364.753 51.0511 364.745 51.8011ZM386.915 63.3324C385.663 63.3324 384.55 63.1236 383.579 62.706C382.616 62.2798 381.853 61.6406 381.29 60.7884C380.737 59.9276 380.46 58.8494 380.46 57.554C380.46 56.4631 380.651 55.5426 381.035 54.7926C381.418 54.0426 381.947 53.4332 382.62 52.9645C383.293 52.4957 384.069 52.142 384.947 51.9034C385.825 51.6562 386.762 51.4901 387.759 51.4048C388.876 51.3026 389.775 51.196 390.457 51.0852C391.138 50.9659 391.633 50.7997 391.94 50.5866C392.255 50.3651 392.413 50.054 392.413 49.6534V49.5895C392.413 48.9332 392.187 48.4261 391.735 48.0682C391.283 47.7102 390.674 47.5312 389.907 47.5312C389.08 47.5312 388.415 47.7102 387.913 48.0682C387.41 48.4261 387.09 48.9205 386.954 49.5511L381.188 49.3466C381.359 48.1534 381.798 47.0881 382.505 46.1506C383.221 45.2045 384.201 44.4631 385.445 43.9261C386.698 43.3807 388.202 43.108 389.958 43.108C391.211 43.108 392.366 43.2571 393.423 43.5554C394.479 43.8452 395.4 44.2713 396.184 44.8338C396.968 45.3878 397.573 46.0696 397.999 46.8793C398.434 47.6889 398.651 48.6136 398.651 49.6534V63H392.771V60.2642H392.617C392.268 60.929 391.82 61.4915 391.275 61.9517C390.738 62.4119 390.103 62.7571 389.37 62.9872C388.646 63.2173 387.827 63.3324 386.915 63.3324ZM388.846 59.2415C389.519 59.2415 390.124 59.1051 390.661 58.8324C391.207 58.5597 391.641 58.1847 391.965 57.7074C392.289 57.2216 392.451 56.6591 392.451 56.0199V54.1534C392.272 54.2472 392.055 54.3324 391.799 54.4091C391.552 54.4858 391.279 54.5582 390.981 54.6264C390.683 54.6946 390.376 54.7543 390.06 54.8054C389.745 54.8565 389.442 54.9034 389.153 54.946C388.565 55.0398 388.062 55.1847 387.644 55.3807C387.235 55.5767 386.92 55.8324 386.698 56.1477C386.485 56.4545 386.379 56.821 386.379 57.2472C386.379 57.8949 386.609 58.3892 387.069 58.7301C387.538 59.071 388.13 59.2415 388.846 59.2415ZM409.646 63.2812C408.197 63.2812 406.88 62.9062 405.695 62.1562C404.511 61.4062 403.565 60.2812 402.857 58.7812C402.15 57.2812 401.796 55.419 401.796 53.1946C401.796 50.8849 402.163 48.9844 402.896 47.4929C403.629 46.0014 404.587 44.8977 405.772 44.1818C406.965 43.4659 408.248 43.108 409.62 43.108C410.651 43.108 411.533 43.2869 412.266 43.6449C412.999 43.9943 413.604 44.446 414.082 45C414.559 45.554 414.921 46.1293 415.168 46.7259H415.296V36.8182H421.548V63H415.36V59.8168H415.168C414.904 60.4219 414.529 60.9886 414.043 61.517C413.558 62.0455 412.948 62.4716 412.215 62.7955C411.491 63.1193 410.634 63.2812 409.646 63.2812ZM411.819 58.4105C412.577 58.4105 413.225 58.1974 413.762 57.7713C414.299 57.3366 414.712 56.7273 415.002 55.9432C415.292 55.1591 415.437 54.2386 415.437 53.1818C415.437 52.108 415.292 51.1832 415.002 50.4077C414.721 49.6321 414.308 49.0355 413.762 48.6179C413.225 48.2003 412.577 47.9915 411.819 47.9915C411.043 47.9915 410.387 48.2045 409.85 48.6307C409.313 49.0568 408.904 49.6577 408.623 50.4332C408.35 51.2088 408.214 52.125 408.214 53.1818C408.214 54.2386 408.354 55.1591 408.636 55.9432C408.917 56.7273 409.322 57.3366 409.85 57.7713C410.387 58.1974 411.043 58.4105 411.819 58.4105ZM434.667 63.3707C432.605 63.3707 430.832 62.9489 429.349 62.1051C427.875 61.2528 426.737 60.0682 425.936 58.5511C425.143 57.0256 424.747 55.2571 424.747 53.2457C424.747 51.2259 425.143 49.4574 425.936 47.9403C426.737 46.4148 427.875 45.2301 429.349 44.3864C430.832 43.5341 432.605 43.108 434.667 43.108C436.73 43.108 438.498 43.5341 439.973 44.3864C441.456 45.2301 442.593 46.4148 443.386 47.9403C444.187 49.4574 444.588 51.2259 444.588 53.2457C444.588 55.2571 444.187 57.0256 443.386 58.5511C442.593 60.0682 441.456 61.2528 439.973 62.1051C438.498 62.9489 436.73 63.3707 434.667 63.3707ZM434.706 58.6534C435.456 58.6534 436.091 58.4233 436.61 57.9631C437.13 57.5028 437.527 56.8636 437.799 56.0455C438.081 55.2273 438.221 54.2812 438.221 53.2074C438.221 52.1165 438.081 51.1619 437.799 50.3438C437.527 49.5256 437.13 48.8864 436.61 48.4261C436.091 47.9659 435.456 47.7358 434.706 47.7358C433.93 47.7358 433.274 47.9659 432.737 48.4261C432.208 48.8864 431.804 49.5256 431.522 50.3438C431.25 51.1619 431.113 52.1165 431.113 53.2074C431.113 54.2812 431.25 55.2273 431.522 56.0455C431.804 56.8636 432.208 57.5028 432.737 57.9631C433.274 58.4233 433.93 58.6534 434.706 58.6534ZM451.037 63L445.924 43.3636H452.201L454.847 55.9432H455.013L457.851 43.3636H463.975L466.89 55.8537H467.056L469.625 43.3636H475.902L470.776 63H464.09L461.022 51.5582H460.804L457.736 63H451.037Z" fill="black"/>
<rect y="200" width="800" height="100" fill="#AAAAAA"/>
<path d="M368.155 251.801V263H361.903V236.818H367.95V246.969H368.168C368.611 245.759 369.335 244.812 370.341 244.131C371.355 243.449 372.595 243.108 374.061 243.108C375.442 243.108 376.643 243.415 377.666 244.028C378.689 244.634 379.482 245.49 380.044 246.598C380.615 247.706 380.896 249.001 380.888 250.484V263H374.636V251.712C374.645 250.621 374.372 249.768 373.818 249.155C373.264 248.541 372.484 248.234 371.479 248.234C370.822 248.234 370.243 248.379 369.74 248.669C369.246 248.95 368.858 249.355 368.577 249.884C368.304 250.412 368.163 251.051 368.155 251.801ZM393.956 263.371C391.894 263.371 390.121 262.949 388.638 262.105C387.164 261.253 386.026 260.068 385.225 258.551C384.432 257.026 384.036 255.257 384.036 253.246C384.036 251.226 384.432 249.457 385.225 247.94C386.026 246.415 387.164 245.23 388.638 244.386C390.121 243.534 391.894 243.108 393.956 243.108C396.019 243.108 397.787 243.534 399.262 244.386C400.745 245.23 401.882 246.415 402.675 247.94C403.476 249.457 403.877 251.226 403.877 253.246C403.877 255.257 403.476 257.026 402.675 258.551C401.882 260.068 400.745 261.253 399.262 262.105C397.787 262.949 396.019 263.371 393.956 263.371ZM393.995 258.653C394.745 258.653 395.38 258.423 395.9 257.963C396.419 257.503 396.816 256.864 397.088 256.045C397.37 255.227 397.51 254.281 397.51 253.207C397.51 252.116 397.37 251.162 397.088 250.344C396.816 249.526 396.419 248.886 395.9 248.426C395.38 247.966 394.745 247.736 393.995 247.736C393.219 247.736 392.563 247.966 392.026 248.426C391.498 248.886 391.093 249.526 390.811 250.344C390.539 251.162 390.402 252.116 390.402 253.207C390.402 254.281 390.539 255.227 390.811 256.045C391.093 256.864 391.498 257.503 392.026 257.963C392.563 258.423 393.219 258.653 393.995 258.653ZM424.223 249.359L418.483 249.513C418.423 249.104 418.261 248.741 417.997 248.426C417.733 248.102 417.387 247.851 416.961 247.672C416.544 247.484 416.058 247.391 415.504 247.391C414.779 247.391 414.162 247.536 413.65 247.825C413.147 248.115 412.9 248.507 412.909 249.001C412.9 249.385 413.054 249.717 413.369 249.999C413.693 250.28 414.268 250.506 415.095 250.676L418.879 251.392C420.839 251.767 422.297 252.389 423.251 253.259C424.214 254.128 424.7 255.278 424.708 256.71C424.7 258.057 424.299 259.229 423.507 260.226C422.723 261.223 421.649 261.999 420.285 262.553C418.922 263.098 417.362 263.371 415.606 263.371C412.802 263.371 410.591 262.795 408.971 261.645C407.36 260.486 406.44 258.935 406.21 256.991L412.385 256.838C412.521 257.554 412.875 258.099 413.446 258.474C414.017 258.849 414.745 259.037 415.632 259.037C416.433 259.037 417.085 258.888 417.588 258.589C418.091 258.291 418.346 257.895 418.355 257.401C418.346 256.957 418.15 256.604 417.767 256.339C417.383 256.067 416.782 255.854 415.964 255.7L412.538 255.048C410.569 254.69 409.103 254.03 408.14 253.067C407.177 252.095 406.7 250.859 406.708 249.359C406.7 248.047 407.049 246.926 407.757 245.997C408.464 245.06 409.47 244.344 410.774 243.849C412.078 243.355 413.616 243.108 415.389 243.108C418.048 243.108 420.145 243.666 421.679 244.783C423.213 245.891 424.061 247.416 424.223 249.359ZM438.87 243.364V247.966H426.482V243.364H438.87ZM429.077 238.659H435.329V256.825C435.329 257.209 435.388 257.52 435.508 257.759C435.636 257.989 435.819 258.155 436.058 258.257C436.296 258.351 436.582 258.398 436.914 258.398C437.153 258.398 437.404 258.376 437.668 258.334C437.941 258.283 438.146 258.24 438.282 258.206L439.228 262.719C438.93 262.804 438.508 262.911 437.962 263.038C437.425 263.166 436.782 263.247 436.032 263.281C434.566 263.349 433.309 263.179 432.261 262.77C431.221 262.352 430.424 261.705 429.87 260.827C429.325 259.949 429.06 258.845 429.077 257.516V238.659Z" fill="black"/>
<rect y="100" width="800" height="100" fill="#DDDDDD"/>
<path d="M363.137 136.818L362.549 154.984H357.295L356.707 136.818H363.137ZM359.915 163.371C359.004 163.371 358.219 163.047 357.563 162.399C356.915 161.751 356.592 160.967 356.592 160.047C356.592 159.143 356.915 158.372 357.563 157.733C358.219 157.085 359.004 156.761 359.915 156.761C360.793 156.761 361.565 157.085 362.229 157.733C362.903 158.372 363.239 159.143 363.239 160.047C363.239 160.661 363.082 161.219 362.766 161.722C362.46 162.224 362.055 162.625 361.552 162.923C361.058 163.222 360.512 163.371 359.915 163.371ZM374.272 151.801V163H368.021V136.818H374.067V146.969H374.285C374.728 145.759 375.452 144.812 376.458 144.131C377.472 143.449 378.712 143.108 380.178 143.108C381.559 143.108 382.761 143.415 383.783 144.028C384.806 144.634 385.599 145.49 386.161 146.598C386.732 147.706 387.013 149.001 387.005 150.484V163H380.754V151.712C380.762 150.621 380.489 149.768 379.935 149.155C379.381 148.541 378.602 148.234 377.596 148.234C376.94 148.234 376.36 148.379 375.857 148.669C375.363 148.95 374.975 149.355 374.694 149.884C374.421 150.412 374.281 151.051 374.272 151.801ZM400.074 163.371C398.011 163.371 396.238 162.949 394.755 162.105C393.281 161.253 392.143 160.068 391.342 158.551C390.549 157.026 390.153 155.257 390.153 153.246C390.153 151.226 390.549 149.457 391.342 147.94C392.143 146.415 393.281 145.23 394.755 144.386C396.238 143.534 398.011 143.108 400.074 143.108C402.136 143.108 403.904 143.534 405.379 144.386C406.862 145.23 408 146.415 408.792 147.94C409.593 149.457 409.994 151.226 409.994 153.246C409.994 155.257 409.593 157.026 408.792 158.551C408 160.068 406.862 161.253 405.379 162.105C403.904 162.949 402.136 163.371 400.074 163.371ZM400.112 158.653C400.862 158.653 401.497 158.423 402.017 157.963C402.537 157.503 402.933 156.864 403.206 156.045C403.487 155.227 403.627 154.281 403.627 153.207C403.627 152.116 403.487 151.162 403.206 150.344C402.933 149.526 402.537 148.886 402.017 148.426C401.497 147.966 400.862 147.736 400.112 147.736C399.336 147.736 398.68 147.966 398.143 148.426C397.615 148.886 397.21 149.526 396.929 150.344C396.656 151.162 396.52 152.116 396.52 153.207C396.52 154.281 396.656 155.227 396.929 156.045C397.21 156.864 397.615 157.503 398.143 157.963C398.68 158.423 399.336 158.653 400.112 158.653ZM430.34 149.359L424.6 149.513C424.54 149.104 424.378 148.741 424.114 148.426C423.85 148.102 423.505 147.851 423.078 147.672C422.661 147.484 422.175 147.391 421.621 147.391C420.897 147.391 420.279 147.536 419.767 147.825C419.265 148.115 419.017 148.507 419.026 149.001C419.017 149.385 419.171 149.717 419.486 149.999C419.81 150.28 420.385 150.506 421.212 150.676L424.996 151.392C426.956 151.767 428.414 152.389 429.368 153.259C430.331 154.128 430.817 155.278 430.826 156.71C430.817 158.057 430.417 159.229 429.624 160.226C428.84 161.223 427.766 161.999 426.402 162.553C425.039 163.098 423.479 163.371 421.723 163.371C418.919 163.371 416.708 162.795 415.088 161.645C413.478 160.486 412.557 158.935 412.327 156.991L418.502 156.838C418.638 157.554 418.992 158.099 419.563 158.474C420.134 158.849 420.863 159.037 421.749 159.037C422.55 159.037 423.202 158.888 423.705 158.589C424.208 158.291 424.463 157.895 424.472 157.401C424.463 156.957 424.267 156.604 423.884 156.339C423.5 156.067 422.9 155.854 422.081 155.7L418.655 155.048C416.686 154.69 415.221 154.03 414.257 153.067C413.294 152.095 412.817 150.859 412.826 149.359C412.817 148.047 413.167 146.926 413.874 145.997C414.581 145.06 415.587 144.344 416.891 143.849C418.195 143.355 419.733 143.108 421.506 143.108C424.165 143.108 426.262 143.666 427.796 144.783C429.33 145.891 430.178 147.416 430.34 149.359ZM444.987 143.364V147.966H432.599V143.364H444.987ZM435.195 138.659H441.446V156.825C441.446 157.209 441.506 157.52 441.625 157.759C441.753 157.989 441.936 158.155 442.175 158.257C442.413 158.351 442.699 158.398 443.031 158.398C443.27 158.398 443.521 158.376 443.786 158.334C444.058 158.283 444.263 158.24 444.399 158.206L445.345 162.719C445.047 162.804 444.625 162.911 444.08 163.038C443.543 163.166 442.899 163.247 442.149 163.281C440.683 163.349 439.426 163.179 438.378 162.77C437.338 162.352 436.541 161.705 435.987 160.827C435.442 159.949 435.178 158.845 435.195 157.516V138.659Z" fill="black"/>
<rect y="300" width="800" height="100" fill="#DDDDDD"/>
<path d="M348.812 349.359L343.072 349.513C343.013 349.104 342.851 348.741 342.587 348.426C342.322 348.102 341.977 347.851 341.551 347.672C341.134 347.484 340.648 347.391 340.094 347.391C339.369 347.391 338.751 347.536 338.24 347.825C337.737 348.115 337.49 348.507 337.499 349.001C337.49 349.385 337.643 349.717 337.959 349.999C338.283 350.28 338.858 350.506 339.685 350.676L343.469 351.392C345.429 351.767 346.886 352.389 347.841 353.259C348.804 354.128 349.29 355.278 349.298 356.71C349.29 358.057 348.889 359.229 348.097 360.226C347.312 361.223 346.239 361.999 344.875 362.553C343.511 363.098 341.952 363.371 340.196 363.371C337.392 363.371 335.18 362.795 333.561 361.645C331.95 360.486 331.03 358.935 330.8 356.991L336.974 356.838C337.111 357.554 337.464 358.099 338.036 358.474C338.607 358.849 339.335 359.037 340.222 359.037C341.023 359.037 341.675 358.888 342.178 358.589C342.68 358.291 342.936 357.895 342.945 357.401C342.936 356.957 342.74 356.604 342.357 356.339C341.973 356.067 341.372 355.854 340.554 355.7L337.128 355.048C335.159 354.69 333.693 354.03 332.73 353.067C331.767 352.095 331.29 350.859 331.298 349.359C331.29 348.047 331.639 346.926 332.347 345.997C333.054 345.06 334.06 344.344 335.364 343.849C336.668 343.355 338.206 343.108 339.979 343.108C342.638 343.108 344.734 343.666 346.268 344.783C347.803 345.891 348.651 347.416 348.812 349.359ZM358.627 351.801V363H352.376V336.818H358.423V346.969H358.64C359.083 345.759 359.808 344.812 360.814 344.131C361.828 343.449 363.068 343.108 364.534 343.108C365.914 343.108 367.116 343.415 368.139 344.028C369.162 344.634 369.954 345.49 370.517 346.598C371.088 347.706 371.369 349.001 371.36 350.484V363H365.109V351.712C365.118 350.621 364.845 349.768 364.291 349.155C363.737 348.541 362.957 348.234 361.951 348.234C361.295 348.234 360.716 348.379 360.213 348.669C359.718 348.95 359.331 349.355 359.049 349.884C358.777 350.412 358.636 351.051 358.627 351.801ZM380.798 363.332C379.545 363.332 378.433 363.124 377.462 362.706C376.499 362.28 375.736 361.641 375.173 360.788C374.619 359.928 374.342 358.849 374.342 357.554C374.342 356.463 374.534 355.543 374.918 354.793C375.301 354.043 375.83 353.433 376.503 352.964C377.176 352.496 377.952 352.142 378.83 351.903C379.707 351.656 380.645 351.49 381.642 351.405C382.759 351.303 383.658 351.196 384.339 351.085C385.021 350.966 385.516 350.8 385.822 350.587C386.138 350.365 386.295 350.054 386.295 349.653V349.589C386.295 348.933 386.07 348.426 385.618 348.068C385.166 347.71 384.557 347.531 383.79 347.531C382.963 347.531 382.298 347.71 381.795 348.068C381.293 348.426 380.973 348.92 380.837 349.551L375.071 349.347C375.241 348.153 375.68 347.088 376.388 346.151C377.104 345.205 378.084 344.463 379.328 343.926C380.581 343.381 382.085 343.108 383.841 343.108C385.094 343.108 386.249 343.257 387.305 343.555C388.362 343.845 389.283 344.271 390.067 344.834C390.851 345.388 391.456 346.07 391.882 346.879C392.317 347.689 392.534 348.614 392.534 349.653V363H386.653V360.264H386.5C386.151 360.929 385.703 361.491 385.158 361.952C384.621 362.412 383.986 362.757 383.253 362.987C382.528 363.217 381.71 363.332 380.798 363.332ZM382.729 359.241C383.402 359.241 384.007 359.105 384.544 358.832C385.089 358.56 385.524 358.185 385.848 357.707C386.172 357.222 386.334 356.659 386.334 356.02V354.153C386.155 354.247 385.938 354.332 385.682 354.409C385.435 354.486 385.162 354.558 384.864 354.626C384.565 354.695 384.259 354.754 383.943 354.805C383.628 354.857 383.325 354.903 383.036 354.946C382.447 355.04 381.945 355.185 381.527 355.381C381.118 355.577 380.803 355.832 380.581 356.148C380.368 356.455 380.261 356.821 380.261 357.247C380.261 357.895 380.491 358.389 380.952 358.73C381.42 359.071 382.013 359.241 382.729 359.241ZM403.528 363.281C402.08 363.281 400.763 362.906 399.578 362.156C398.393 361.406 397.447 360.281 396.74 358.781C396.033 357.281 395.679 355.419 395.679 353.195C395.679 350.885 396.045 348.984 396.778 347.493C397.511 346.001 398.47 344.898 399.655 344.182C400.848 343.466 402.131 343.108 403.503 343.108C404.534 343.108 405.416 343.287 406.149 343.645C406.882 343.994 407.487 344.446 407.964 345C408.442 345.554 408.804 346.129 409.051 346.726H409.179V336.818H415.43V363H409.243V359.817H409.051C408.787 360.422 408.412 360.989 407.926 361.517C407.44 362.045 406.831 362.472 406.098 362.795C405.374 363.119 404.517 363.281 403.528 363.281ZM405.702 358.411C406.46 358.411 407.108 358.197 407.645 357.771C408.182 357.337 408.595 356.727 408.885 355.943C409.175 355.159 409.32 354.239 409.32 353.182C409.32 352.108 409.175 351.183 408.885 350.408C408.604 349.632 408.19 349.036 407.645 348.618C407.108 348.2 406.46 347.991 405.702 347.991C404.926 347.991 404.27 348.205 403.733 348.631C403.196 349.057 402.787 349.658 402.506 350.433C402.233 351.209 402.097 352.125 402.097 353.182C402.097 354.239 402.237 355.159 402.518 355.943C402.8 356.727 403.205 357.337 403.733 357.771C404.27 358.197 404.926 358.411 405.702 358.411ZM428.55 363.371C426.488 363.371 424.715 362.949 423.232 362.105C421.757 361.253 420.62 360.068 419.819 358.551C419.026 357.026 418.63 355.257 418.63 353.246C418.63 351.226 419.026 349.457 419.819 347.94C420.62 346.415 421.757 345.23 423.232 344.386C424.715 343.534 426.488 343.108 428.55 343.108C430.613 343.108 432.381 343.534 433.855 344.386C435.338 345.23 436.476 346.415 437.269 347.94C438.07 349.457 438.471 351.226 438.471 353.246C438.471 355.257 438.07 357.026 437.269 358.551C436.476 360.068 435.338 361.253 433.855 362.105C432.381 362.949 430.613 363.371 428.55 363.371ZM428.588 358.653C429.338 358.653 429.973 358.423 430.493 357.963C431.013 357.503 431.409 356.864 431.682 356.045C431.963 355.227 432.104 354.281 432.104 353.207C432.104 352.116 431.963 351.162 431.682 350.344C431.409 349.526 431.013 348.886 430.493 348.426C429.973 347.966 429.338 347.736 428.588 347.736C427.813 347.736 427.157 347.966 426.62 348.426C426.091 348.886 425.686 349.526 425.405 350.344C425.132 351.162 424.996 352.116 424.996 353.207C424.996 354.281 425.132 355.227 425.405 356.045C425.686 356.864 426.091 357.503 426.62 357.963C427.157 358.423 427.813 358.653 428.588 358.653ZM444.92 363L439.806 343.364H446.083L448.73 355.943H448.896L451.734 343.364H457.858L460.772 355.854H460.939L463.508 343.364H469.785L464.659 363H457.973L454.904 351.558H454.687L451.619 363H444.92Z" fill="black"/>
</svg>
