<svg width="1920" height="1080" viewBox="0 0 1920 1080" fill="none" xmlns="http://www.w3.org/2000/svg">
<rect width="1920" height="1080" fill="white"/>
<rect x="50" y="50" width="885" height="207" fill="#D9D9D9"/>
<rect x="985" y="50" width="885" height="207" fill="#D9D9D9"/>
<rect x="50" y="823" width="885" height="207" fill="#D9D9D9"/>
<rect x="50" y="565" width="885" height="207" fill="#D9D9D9"/>
<rect x="50" y="307" width="885" height="207" fill="#D9D9D9"/>
<rect x="985" y="823" width="885" height="207" fill="#D9D9D9"/>
<rect x="985" y="565" width="885" height="207" fill="#D9D9D9"/>
<rect x="985" y="307" width="885" height="207" fill="#D9D9D9"/>
<path d="M1323.52 447V374.246H1355.06C1360.59 374.246 1365.25 374.995 1369.02 376.492C1372.8 377.99 1375.65 380.105 1377.57 382.84C1379.49 385.542 1380.45 388.732 1380.45 392.41C1380.45 395.079 1379.86 397.521 1378.69 399.734C1377.52 401.948 1375.88 403.803 1373.76 405.301C1371.68 406.766 1369.22 407.775 1366.39 408.328V409.109C1369.51 409.207 1372.34 409.988 1374.88 411.453C1377.45 412.885 1379.49 414.887 1380.99 417.459C1382.52 419.998 1383.28 422.977 1383.28 426.395C1383.28 430.366 1382.26 433.914 1380.21 437.039C1378.15 440.132 1375.22 442.573 1371.42 444.363C1367.61 446.121 1363.07 447 1357.79 447H1323.52ZM1343.24 431.277H1352.52C1355.81 431.277 1358.28 430.643 1359.94 429.373C1361.63 428.104 1362.48 426.264 1362.48 423.855C1362.48 422.13 1362.09 420.682 1361.31 419.51C1360.53 418.305 1359.4 417.394 1357.94 416.775C1356.51 416.157 1354.8 415.848 1352.81 415.848H1343.24V431.277ZM1343.24 403.641H1351.35C1353.07 403.641 1354.59 403.38 1355.89 402.859C1357.22 402.306 1358.26 401.525 1359.01 400.516C1359.76 399.474 1360.14 398.204 1360.14 396.707C1360.14 394.493 1359.32 392.785 1357.7 391.58C1356.1 390.376 1354.08 389.773 1351.64 389.773H1343.24V403.641ZM1387.97 447V374.246H1440.41V390.164H1407.7V402.469H1437.68V417.996H1407.7V431.082H1440.21V447H1387.97ZM1447.83 374.246H1472.44L1489.34 415.457H1490.12L1507.11 374.246H1531.62V447H1512.29V404.91H1511.8L1495.59 446.414H1483.87L1467.75 404.715H1467.17V447H1447.83V374.246Z" fill="black"/>
<path d="M312.105 447.879C305.79 447.879 300.273 446.951 295.553 445.096C290.865 443.208 287.219 440.311 284.615 436.404C282.011 432.498 280.693 427.501 280.66 421.414H299.41C299.54 423.628 300.094 425.499 301.07 427.029C302.079 428.559 303.479 429.715 305.27 430.496C307.092 431.277 309.273 431.668 311.812 431.668C313.928 431.668 315.702 431.408 317.135 430.887C318.567 430.366 319.641 429.65 320.357 428.738C321.106 427.794 321.48 426.72 321.48 425.516C321.48 424.409 321.122 423.449 320.406 422.635C319.723 421.788 318.583 421.023 316.988 420.34C315.393 419.656 313.245 419.038 310.543 418.484L303.219 416.922C296.806 415.555 291.744 413.227 288.033 409.939C284.355 406.619 282.516 402.111 282.516 396.414C282.516 391.792 283.769 387.755 286.275 384.305C288.782 380.822 292.232 378.12 296.627 376.199C301.054 374.246 306.148 373.27 311.91 373.27C317.802 373.27 322.88 374.262 327.145 376.248C331.441 378.201 334.745 380.968 337.057 384.549C339.4 388.097 340.589 392.247 340.621 397H321.676C321.513 394.624 320.634 392.785 319.039 391.482C317.477 390.148 315.1 389.48 311.91 389.48C309.892 389.48 308.232 389.725 306.93 390.213C305.628 390.669 304.667 391.32 304.049 392.166C303.43 393.012 303.121 393.973 303.121 395.047C303.121 396.186 303.447 397.195 304.098 398.074C304.781 398.921 305.839 399.669 307.271 400.32C308.736 400.939 310.608 401.492 312.887 401.98L318.844 403.25C322.848 404.096 326.282 405.219 329.146 406.619C332.044 408.019 334.404 409.663 336.227 411.551C338.082 413.406 339.433 415.506 340.279 417.85C341.158 420.193 341.598 422.749 341.598 425.516C341.598 430.301 340.41 434.37 338.033 437.723C335.689 441.043 332.32 443.566 327.926 445.291C323.531 447.016 318.258 447.879 312.105 447.879ZM389.84 374.246H409.566V420.828C409.566 426.362 408.248 431.163 405.611 435.232C402.975 439.269 399.296 442.394 394.576 444.607C389.856 446.788 384.371 447.879 378.121 447.879C371.871 447.879 366.386 446.788 361.666 444.607C356.979 442.394 353.316 439.269 350.68 435.232C348.076 431.163 346.773 426.362 346.773 420.828V374.246H366.5V419.168C366.5 421.447 367.005 423.465 368.014 425.223C369.023 426.948 370.39 428.315 372.115 429.324C373.873 430.301 375.875 430.789 378.121 430.789C380.4 430.789 382.418 430.301 384.176 429.324C385.934 428.315 387.317 426.948 388.326 425.223C389.335 423.465 389.84 421.447 389.84 419.168V374.246ZM436.324 374.246V447H416.598V374.246H436.324ZM441.402 390.164V374.246H504.586V390.164H482.711V447H463.277V390.164H441.402ZM541.012 447.977C534.371 447.977 528.398 446.544 523.092 443.68C517.818 440.815 513.635 436.616 510.543 431.082C507.483 425.516 505.953 418.712 505.953 410.672C505.953 402.566 507.516 395.73 510.641 390.164C513.766 384.598 517.981 380.398 523.287 377.566C528.593 374.702 534.501 373.27 541.012 373.27C545.602 373.27 549.833 373.904 553.707 375.174C557.581 376.411 560.966 378.25 563.863 380.691C566.793 383.1 569.137 386.062 570.895 389.578C572.652 393.061 573.727 397.065 574.117 401.59H554.098C553.967 399.93 553.593 398.416 552.975 397.049C552.389 395.682 551.559 394.51 550.484 393.533C549.443 392.557 548.173 391.808 546.676 391.287C545.211 390.734 543.518 390.457 541.598 390.457C538.31 390.457 535.51 391.271 533.199 392.898C530.921 394.493 529.195 396.805 528.023 399.832C526.852 402.827 526.266 406.44 526.266 410.672C526.266 415.099 526.868 418.81 528.072 421.805C529.277 424.799 531.002 427.046 533.248 428.543C535.527 430.04 538.277 430.789 541.5 430.789C543.323 430.789 544.951 430.561 546.383 430.105C547.815 429.65 549.068 428.982 550.143 428.104C551.217 427.225 552.079 426.167 552.73 424.93C553.414 423.693 553.87 422.293 554.098 420.73H574.117C573.889 423.823 573.027 426.98 571.529 430.203C570.064 433.393 567.949 436.339 565.182 439.041C562.447 441.71 559.062 443.875 555.025 445.535C551.021 447.163 546.35 447.977 541.012 447.977ZM610.348 447.879C604.033 447.879 598.515 446.951 593.795 445.096C589.107 443.208 585.462 440.311 582.857 436.404C580.253 432.498 578.935 427.501 578.902 421.414H597.652C597.783 423.628 598.336 425.499 599.312 427.029C600.322 428.559 601.721 429.715 603.512 430.496C605.335 431.277 607.516 431.668 610.055 431.668C612.171 431.668 613.945 431.408 615.377 430.887C616.809 430.366 617.883 429.65 618.6 428.738C619.348 427.794 619.723 426.72 619.723 425.516C619.723 424.409 619.365 423.449 618.648 422.635C617.965 421.788 616.826 421.023 615.23 420.34C613.635 419.656 611.487 419.038 608.785 418.484L601.461 416.922C595.048 415.555 589.986 413.227 586.275 409.939C582.597 406.619 580.758 402.111 580.758 396.414C580.758 391.792 582.011 387.755 584.518 384.305C587.024 380.822 590.475 378.12 594.869 376.199C599.296 374.246 604.391 373.27 610.152 373.27C616.044 373.27 621.122 374.262 625.387 376.248C629.684 378.201 632.988 380.968 635.299 384.549C637.643 388.097 638.831 392.247 638.863 397H619.918C619.755 394.624 618.876 392.785 617.281 391.482C615.719 390.148 613.342 389.48 610.152 389.48C608.134 389.48 606.474 389.725 605.172 390.213C603.87 390.669 602.91 391.32 602.291 392.166C601.673 393.012 601.363 393.973 601.363 395.047C601.363 396.186 601.689 397.195 602.34 398.074C603.023 398.921 604.081 399.669 605.514 400.32C606.979 400.939 608.85 401.492 611.129 401.98L617.086 403.25C621.09 404.096 624.524 405.219 627.389 406.619C630.286 408.019 632.646 409.663 634.469 411.551C636.324 413.406 637.675 415.506 638.521 417.85C639.4 420.193 639.84 422.749 639.84 425.516C639.84 430.301 638.652 434.37 636.275 437.723C633.932 441.043 630.562 443.566 626.168 445.291C621.773 447.016 616.5 447.879 610.348 447.879ZM674.605 447.879C668.29 447.879 662.773 446.951 658.053 445.096C653.365 443.208 649.719 440.311 647.115 436.404C644.511 432.498 643.193 427.501 643.16 421.414H661.91C662.04 423.628 662.594 425.499 663.57 427.029C664.579 428.559 665.979 429.715 667.77 430.496C669.592 431.277 671.773 431.668 674.312 431.668C676.428 431.668 678.202 431.408 679.635 430.887C681.067 430.366 682.141 429.65 682.857 428.738C683.606 427.794 683.98 426.72 683.98 425.516C683.98 424.409 683.622 423.449 682.906 422.635C682.223 421.788 681.083 421.023 679.488 420.34C677.893 419.656 675.745 419.038 673.043 418.484L665.719 416.922C659.306 415.555 654.244 413.227 650.533 409.939C646.855 406.619 645.016 402.111 645.016 396.414C645.016 391.792 646.269 387.755 648.775 384.305C651.282 380.822 654.732 378.12 659.127 376.199C663.554 374.246 668.648 373.27 674.41 373.27C680.302 373.27 685.38 374.262 689.645 376.248C693.941 378.201 697.245 380.968 699.557 384.549C701.9 388.097 703.089 392.247 703.121 397H684.176C684.013 394.624 683.134 392.785 681.539 391.482C679.977 390.148 677.6 389.48 674.41 389.48C672.392 389.48 670.732 389.725 669.43 390.213C668.128 390.669 667.167 391.32 666.549 392.166C665.93 393.012 665.621 393.973 665.621 395.047C665.621 396.186 665.947 397.195 666.598 398.074C667.281 398.921 668.339 399.669 669.771 400.32C671.236 400.939 673.108 401.492 675.387 401.98L681.344 403.25C685.348 404.096 688.782 405.219 691.646 406.619C694.544 408.019 696.904 409.663 698.727 411.551C700.582 413.406 701.933 415.506 702.779 417.85C703.658 420.193 704.098 422.749 704.098 425.516C704.098 430.301 702.91 434.37 700.533 437.723C698.189 441.043 694.82 443.566 690.426 445.291C686.031 447.016 680.758 447.879 674.605 447.879Z" fill="black"/>
<path d="M354.574 190.977C347.966 190.977 341.977 189.544 336.605 186.68C331.267 183.815 327.035 179.616 323.91 174.082C320.785 168.516 319.223 161.712 319.223 153.672C319.223 145.566 320.785 138.73 323.91 133.164C327.035 127.598 331.267 123.398 336.605 120.566C341.977 117.702 347.966 116.27 354.574 116.27C361.182 116.27 367.156 117.702 372.494 120.566C377.833 123.398 382.064 127.598 385.189 133.164C388.347 138.73 389.926 145.566 389.926 153.672C389.926 161.745 388.347 168.564 385.189 174.131C382.064 179.665 377.833 183.864 372.494 186.729C367.156 189.561 361.182 190.977 354.574 190.977ZM354.574 173.789C357.862 173.789 360.613 173.024 362.826 171.494C365.072 169.932 366.765 167.653 367.904 164.658C369.044 161.663 369.613 158.001 369.613 153.672C369.613 149.31 369.044 145.632 367.904 142.637C366.765 139.609 365.072 137.331 362.826 135.801C360.613 134.238 357.862 133.457 354.574 133.457C351.319 133.457 348.568 134.238 346.322 135.801C344.109 137.331 342.416 139.609 341.244 142.637C340.105 145.632 339.535 149.31 339.535 153.672C339.535 158.001 340.105 161.663 341.244 164.658C342.416 167.653 344.109 169.932 346.322 171.494C348.568 173.024 351.319 173.789 354.574 173.789ZM431.723 190.977C425.115 190.977 419.125 189.544 413.754 186.68C408.415 183.815 404.184 179.616 401.059 174.082C397.934 168.516 396.371 161.712 396.371 153.672C396.371 145.566 397.934 138.73 401.059 133.164C404.184 127.598 408.415 123.398 413.754 120.566C419.125 117.702 425.115 116.27 431.723 116.27C438.331 116.27 444.304 117.702 449.643 120.566C454.981 123.398 459.213 127.598 462.338 133.164C465.495 138.73 467.074 145.566 467.074 153.672C467.074 161.745 465.495 168.564 462.338 174.131C459.213 179.665 454.981 183.864 449.643 186.729C444.304 189.561 438.331 190.977 431.723 190.977ZM431.723 173.789C435.01 173.789 437.761 173.024 439.975 171.494C442.221 169.932 443.913 167.653 445.053 164.658C446.192 161.663 446.762 158.001 446.762 153.672C446.762 149.31 446.192 145.632 445.053 142.637C443.913 139.609 442.221 137.331 439.975 135.801C437.761 134.238 435.01 133.457 431.723 133.457C428.467 133.457 425.717 134.238 423.471 135.801C421.257 137.331 419.564 139.609 418.393 142.637C417.253 145.632 416.684 149.31 416.684 153.672C416.684 158.001 417.253 161.663 418.393 164.658C419.564 167.653 421.257 169.932 423.471 171.494C425.717 173.024 428.467 173.789 431.723 173.789ZM508.578 190.977C501.938 190.977 495.964 189.544 490.658 186.68C485.385 183.815 481.202 179.616 478.109 174.082C475.049 168.516 473.52 161.712 473.52 153.672C473.52 145.566 475.082 138.73 478.207 133.164C481.332 127.598 485.548 123.398 490.854 120.566C496.16 117.702 502.068 116.27 508.578 116.27C513.168 116.27 517.4 116.904 521.273 118.174C525.147 119.411 528.533 121.25 531.43 123.691C534.359 126.1 536.703 129.062 538.461 132.578C540.219 136.061 541.293 140.065 541.684 144.59H521.664C521.534 142.93 521.16 141.416 520.541 140.049C519.955 138.682 519.125 137.51 518.051 136.533C517.009 135.557 515.74 134.808 514.242 134.287C512.777 133.734 511.085 133.457 509.164 133.457C505.876 133.457 503.077 134.271 500.766 135.898C498.487 137.493 496.762 139.805 495.59 142.832C494.418 145.827 493.832 149.44 493.832 153.672C493.832 158.099 494.434 161.81 495.639 164.805C496.843 167.799 498.568 170.046 500.814 171.543C503.093 173.04 505.844 173.789 509.066 173.789C510.889 173.789 512.517 173.561 513.949 173.105C515.382 172.65 516.635 171.982 517.709 171.104C518.783 170.225 519.646 169.167 520.297 167.93C520.98 166.693 521.436 165.293 521.664 163.73H541.684C541.456 166.823 540.593 169.98 539.096 173.203C537.631 176.393 535.515 179.339 532.748 182.041C530.014 184.71 526.628 186.875 522.592 188.535C518.588 190.163 513.917 190.977 508.578 190.977ZM577.914 190.879C571.599 190.879 566.081 189.951 561.361 188.096C556.674 186.208 553.028 183.311 550.424 179.404C547.82 175.498 546.501 170.501 546.469 164.414H565.219C565.349 166.628 565.902 168.499 566.879 170.029C567.888 171.559 569.288 172.715 571.078 173.496C572.901 174.277 575.082 174.668 577.621 174.668C579.737 174.668 581.511 174.408 582.943 173.887C584.376 173.366 585.45 172.65 586.166 171.738C586.915 170.794 587.289 169.72 587.289 168.516C587.289 167.409 586.931 166.449 586.215 165.635C585.531 164.788 584.392 164.023 582.797 163.34C581.202 162.656 579.053 162.038 576.352 161.484L569.027 159.922C562.615 158.555 557.553 156.227 553.842 152.939C550.163 149.619 548.324 145.111 548.324 139.414C548.324 134.792 549.577 130.755 552.084 127.305C554.59 123.822 558.041 121.12 562.436 119.199C566.863 117.246 571.957 116.27 577.719 116.27C583.611 116.27 588.689 117.262 592.953 119.248C597.25 121.201 600.554 123.968 602.865 127.549C605.209 131.097 606.397 135.247 606.43 140H587.484C587.322 137.624 586.443 135.785 584.848 134.482C583.285 133.148 580.909 132.48 577.719 132.48C575.701 132.48 574.04 132.725 572.738 133.213C571.436 133.669 570.476 134.32 569.857 135.166C569.239 136.012 568.93 136.973 568.93 138.047C568.93 139.186 569.255 140.195 569.906 141.074C570.59 141.921 571.648 142.669 573.08 143.32C574.545 143.939 576.417 144.492 578.695 144.98L584.652 146.25C588.656 147.096 592.09 148.219 594.955 149.619C597.852 151.019 600.212 152.663 602.035 154.551C603.891 156.406 605.242 158.506 606.088 160.85C606.967 163.193 607.406 165.749 607.406 168.516C607.406 173.301 606.218 177.37 603.842 180.723C601.498 184.043 598.129 186.566 593.734 188.291C589.34 190.016 584.066 190.879 577.914 190.879ZM642.172 190.879C635.857 190.879 630.339 189.951 625.619 188.096C620.932 186.208 617.286 183.311 614.682 179.404C612.077 175.498 610.759 170.501 610.727 164.414H629.477C629.607 166.628 630.16 168.499 631.137 170.029C632.146 171.559 633.546 172.715 635.336 173.496C637.159 174.277 639.34 174.668 641.879 174.668C643.995 174.668 645.769 174.408 647.201 173.887C648.633 173.366 649.708 172.65 650.424 171.738C651.173 170.794 651.547 169.72 651.547 168.516C651.547 167.409 651.189 166.449 650.473 165.635C649.789 164.788 648.65 164.023 647.055 163.34C645.46 162.656 643.311 162.038 640.609 161.484L633.285 159.922C626.872 158.555 621.811 156.227 618.1 152.939C614.421 149.619 612.582 145.111 612.582 139.414C612.582 134.792 613.835 130.755 616.342 127.305C618.848 123.822 622.299 121.12 626.693 119.199C631.12 117.246 636.215 116.27 641.977 116.27C647.868 116.27 652.947 117.262 657.211 119.248C661.508 121.201 664.812 123.968 667.123 127.549C669.467 131.097 670.655 135.247 670.688 140H651.742C651.579 137.624 650.701 135.785 649.105 134.482C647.543 133.148 645.167 132.48 641.977 132.48C639.958 132.48 638.298 132.725 636.996 133.213C635.694 133.669 634.734 134.32 634.115 135.166C633.497 136.012 633.188 136.973 633.188 138.047C633.188 139.186 633.513 140.195 634.164 141.074C634.848 141.921 635.906 142.669 637.338 143.32C638.803 143.939 640.674 144.492 642.953 144.98L648.91 146.25C652.914 147.096 656.348 148.219 659.213 149.619C662.11 151.019 664.47 152.663 666.293 154.551C668.148 156.406 669.499 158.506 670.346 160.85C671.225 163.193 671.664 165.749 671.664 168.516C671.664 173.301 670.476 177.37 668.1 180.723C665.756 184.043 662.387 186.566 657.992 188.291C653.598 190.016 648.324 190.879 642.172 190.879Z" fill="black"/>
<path d="M1245.11 190.879C1238.79 190.879 1233.27 189.951 1228.55 188.096C1223.87 186.208 1220.22 183.311 1217.62 179.404C1215.01 175.498 1213.69 170.501 1213.66 164.414H1232.41C1232.54 166.628 1233.09 168.499 1234.07 170.029C1235.08 171.559 1236.48 172.715 1238.27 173.496C1240.09 174.277 1242.27 174.668 1244.81 174.668C1246.93 174.668 1248.7 174.408 1250.13 173.887C1251.57 173.366 1252.64 172.65 1253.36 171.738C1254.11 170.794 1254.48 169.72 1254.48 168.516C1254.48 167.409 1254.12 166.449 1253.41 165.635C1252.72 164.788 1251.58 164.023 1249.99 163.34C1248.39 162.656 1246.24 162.038 1243.54 161.484L1236.22 159.922C1229.81 158.555 1224.74 156.227 1221.03 152.939C1217.35 149.619 1215.52 145.111 1215.52 139.414C1215.52 134.792 1216.77 130.755 1219.28 127.305C1221.78 123.822 1225.23 121.12 1229.63 119.199C1234.05 117.246 1239.15 116.27 1244.91 116.27C1250.8 116.27 1255.88 117.262 1260.14 119.248C1264.44 121.201 1267.75 123.968 1270.06 127.549C1272.4 131.097 1273.59 135.247 1273.62 140H1254.68C1254.51 137.624 1253.63 135.785 1252.04 134.482C1250.48 133.148 1248.1 132.48 1244.91 132.48C1242.89 132.48 1241.23 132.725 1239.93 133.213C1238.63 133.669 1237.67 134.32 1237.05 135.166C1236.43 136.012 1236.12 136.973 1236.12 138.047C1236.12 139.186 1236.45 140.195 1237.1 141.074C1237.78 141.921 1238.84 142.669 1240.27 143.32C1241.74 143.939 1243.61 144.492 1245.89 144.98L1251.84 146.25C1255.85 147.096 1259.28 148.219 1262.15 149.619C1265.04 151.019 1267.4 152.663 1269.23 154.551C1271.08 156.406 1272.43 158.506 1273.28 160.85C1274.16 163.193 1274.6 165.749 1274.6 168.516C1274.6 173.301 1273.41 177.37 1271.03 180.723C1268.69 184.043 1265.32 186.566 1260.93 188.291C1256.53 190.016 1251.26 190.879 1245.11 190.879ZM1279.77 117.246H1304.38L1321.28 158.457H1322.06L1339.05 117.246H1363.56V190H1344.23V147.91H1343.74L1327.53 189.414H1315.81L1299.7 147.715H1299.11V190H1279.77V117.246ZM1389.44 190H1368.15L1392.18 117.246H1419.13L1443.15 190H1421.86L1405.95 137.266H1405.36L1389.44 190ZM1385.54 161.289H1425.57V176.035H1385.54V161.289ZM1478.5 190.977C1471.86 190.977 1465.89 189.544 1460.58 186.68C1455.31 183.815 1451.13 179.616 1448.04 174.082C1444.98 168.516 1443.45 161.712 1443.45 153.672C1443.45 145.566 1445.01 138.73 1448.13 133.164C1451.26 127.598 1455.47 123.398 1460.78 120.566C1466.09 117.702 1471.99 116.27 1478.5 116.27C1483.09 116.27 1487.33 116.904 1491.2 118.174C1495.07 119.411 1498.46 121.25 1501.36 123.691C1504.29 126.1 1506.63 129.062 1508.39 132.578C1510.14 136.061 1511.22 140.065 1511.61 144.59H1491.59C1491.46 142.93 1491.09 141.416 1490.47 140.049C1489.88 138.682 1489.05 137.51 1487.98 136.533C1486.93 135.557 1485.67 134.808 1484.17 134.287C1482.7 133.734 1481.01 133.457 1479.09 133.457C1475.8 133.457 1473 134.271 1470.69 135.898C1468.41 137.493 1466.69 139.805 1465.52 142.832C1464.34 145.827 1463.76 149.44 1463.76 153.672C1463.76 158.099 1464.36 161.81 1465.56 164.805C1466.77 167.799 1468.49 170.046 1470.74 171.543C1473.02 173.04 1475.77 173.789 1478.99 173.789C1480.82 173.789 1482.44 173.561 1483.88 173.105C1485.31 172.65 1486.56 171.982 1487.63 171.104C1488.71 170.225 1489.57 169.167 1490.22 167.93C1490.91 166.693 1491.36 165.293 1491.59 163.73H1511.61C1511.38 166.823 1510.52 169.98 1509.02 173.203C1507.56 176.393 1505.44 179.339 1502.67 182.041C1499.94 184.71 1496.55 186.875 1492.52 188.535C1488.51 190.163 1483.84 190.977 1478.5 190.977ZM1547.84 190.879C1541.52 190.879 1536.01 189.951 1531.29 188.096C1526.6 186.208 1522.95 183.311 1520.35 179.404C1517.75 175.498 1516.43 170.501 1516.39 164.414H1535.14C1535.27 166.628 1535.83 168.499 1536.8 170.029C1537.81 171.559 1539.21 172.715 1541 173.496C1542.83 174.277 1545.01 174.668 1547.55 174.668C1549.66 174.668 1551.44 174.408 1552.87 173.887C1554.3 173.366 1555.38 172.65 1556.09 171.738C1556.84 170.794 1557.21 169.72 1557.21 168.516C1557.21 167.409 1556.86 166.449 1556.14 165.635C1555.46 164.788 1554.32 164.023 1552.72 163.34C1551.13 162.656 1548.98 162.038 1546.28 161.484L1538.95 159.922C1532.54 158.555 1527.48 156.227 1523.77 152.939C1520.09 149.619 1518.25 145.111 1518.25 139.414C1518.25 134.792 1519.5 130.755 1522.01 127.305C1524.52 123.822 1527.97 121.12 1532.36 119.199C1536.79 117.246 1541.88 116.27 1547.64 116.27C1553.54 116.27 1558.61 117.262 1562.88 119.248C1567.18 121.201 1570.48 123.968 1572.79 127.549C1575.13 131.097 1576.32 135.247 1576.36 140H1557.41C1557.25 137.624 1556.37 135.785 1554.77 134.482C1553.21 133.148 1550.83 132.48 1547.64 132.48C1545.63 132.48 1543.97 132.725 1542.66 133.213C1541.36 133.669 1540.4 134.32 1539.78 135.166C1539.16 136.012 1538.86 136.973 1538.86 138.047C1538.86 139.186 1539.18 140.195 1539.83 141.074C1540.52 141.921 1541.57 142.669 1543.01 143.32C1544.47 143.939 1546.34 144.492 1548.62 144.98L1554.58 146.25C1558.58 147.096 1562.02 148.219 1564.88 149.619C1567.78 151.019 1570.14 152.663 1571.96 154.551C1573.82 156.406 1575.17 158.506 1576.01 160.85C1576.89 163.193 1577.33 165.749 1577.33 168.516C1577.33 173.301 1576.14 177.37 1573.77 180.723C1571.42 184.043 1568.05 186.566 1563.66 188.291C1559.27 190.016 1553.99 190.879 1547.84 190.879ZM1612.1 190.879C1605.78 190.879 1600.26 189.951 1595.54 188.096C1590.86 186.208 1587.21 183.311 1584.61 179.404C1582 175.498 1580.68 170.501 1580.65 164.414H1599.4C1599.53 166.628 1600.09 168.499 1601.06 170.029C1602.07 171.559 1603.47 172.715 1605.26 173.496C1607.08 174.277 1609.27 174.668 1611.8 174.668C1613.92 174.668 1615.69 174.408 1617.13 173.887C1618.56 173.366 1619.63 172.65 1620.35 171.738C1621.1 170.794 1621.47 169.72 1621.47 168.516C1621.47 167.409 1621.11 166.449 1620.4 165.635C1619.71 164.788 1618.58 164.023 1616.98 163.34C1615.39 162.656 1613.24 162.038 1610.54 161.484L1603.21 159.922C1596.8 158.555 1591.74 156.227 1588.03 152.939C1584.35 149.619 1582.51 145.111 1582.51 139.414C1582.51 134.792 1583.76 130.755 1586.27 127.305C1588.77 123.822 1592.22 121.12 1596.62 119.199C1601.05 117.246 1606.14 116.27 1611.9 116.27C1617.79 116.27 1622.87 117.262 1627.14 119.248C1631.43 121.201 1634.74 123.968 1637.05 127.549C1639.39 131.097 1640.58 135.247 1640.61 140H1621.67C1621.51 137.624 1620.63 135.785 1619.03 134.482C1617.47 133.148 1615.09 132.48 1611.9 132.48C1609.88 132.48 1608.22 132.725 1606.92 133.213C1605.62 133.669 1604.66 134.32 1604.04 135.166C1603.42 136.012 1603.11 136.973 1603.11 138.047C1603.11 139.186 1603.44 140.195 1604.09 141.074C1604.77 141.921 1605.83 142.669 1607.26 143.32C1608.73 143.939 1610.6 144.492 1612.88 144.98L1618.84 146.25C1622.84 147.096 1626.27 148.219 1629.14 149.619C1632.04 151.019 1634.4 152.663 1636.22 154.551C1638.07 156.406 1639.43 158.506 1640.27 160.85C1641.15 163.193 1641.59 165.749 1641.59 168.516C1641.59 173.301 1640.4 177.37 1638.03 180.723C1635.68 184.043 1632.31 186.566 1627.92 188.291C1623.52 190.016 1618.25 190.879 1612.1 190.879Z" fill="black"/>
<path d="M194.281 705.977C187.641 705.977 181.667 704.544 176.361 701.68C171.088 698.815 166.905 694.616 163.812 689.082C160.753 683.516 159.223 676.712 159.223 668.672C159.223 660.566 160.785 653.73 163.91 648.164C167.035 642.598 171.251 638.398 176.557 635.566C181.863 632.702 187.771 631.27 194.281 631.27C198.871 631.27 203.103 631.904 206.977 633.174C210.85 634.411 214.236 636.25 217.133 638.691C220.062 641.1 222.406 644.062 224.164 647.578C225.922 651.061 226.996 655.065 227.387 659.59H207.367C207.237 657.93 206.863 656.416 206.244 655.049C205.658 653.682 204.828 652.51 203.754 651.533C202.712 650.557 201.443 649.808 199.945 649.287C198.48 648.734 196.788 648.457 194.867 648.457C191.579 648.457 188.78 649.271 186.469 650.898C184.19 652.493 182.465 654.805 181.293 657.832C180.121 660.827 179.535 664.44 179.535 668.672C179.535 673.099 180.137 676.81 181.342 679.805C182.546 682.799 184.271 685.046 186.518 686.543C188.796 688.04 191.547 688.789 194.77 688.789C196.592 688.789 198.22 688.561 199.652 688.105C201.085 687.65 202.338 686.982 203.412 686.104C204.486 685.225 205.349 684.167 206 682.93C206.684 681.693 207.139 680.293 207.367 678.73H227.387C227.159 681.823 226.296 684.98 224.799 688.203C223.334 691.393 221.218 694.339 218.451 697.041C215.717 699.71 212.331 701.875 208.295 703.535C204.291 705.163 199.62 705.977 194.281 705.977ZM263.617 705.879C257.302 705.879 251.785 704.951 247.064 703.096C242.377 701.208 238.731 698.311 236.127 694.404C233.523 690.498 232.204 685.501 232.172 679.414H250.922C251.052 681.628 251.605 683.499 252.582 685.029C253.591 686.559 254.991 687.715 256.781 688.496C258.604 689.277 260.785 689.668 263.324 689.668C265.44 689.668 267.214 689.408 268.646 688.887C270.079 688.366 271.153 687.65 271.869 686.738C272.618 685.794 272.992 684.72 272.992 683.516C272.992 682.409 272.634 681.449 271.918 680.635C271.234 679.788 270.095 679.023 268.5 678.34C266.905 677.656 264.757 677.038 262.055 676.484L254.73 674.922C248.318 673.555 243.256 671.227 239.545 667.939C235.867 664.619 234.027 660.111 234.027 654.414C234.027 649.792 235.281 645.755 237.787 642.305C240.294 638.822 243.744 636.12 248.139 634.199C252.566 632.246 257.66 631.27 263.422 631.27C269.314 631.27 274.392 632.262 278.656 634.248C282.953 636.201 286.257 638.968 288.568 642.549C290.912 646.097 292.1 650.247 292.133 655H273.188C273.025 652.624 272.146 650.785 270.551 649.482C268.988 648.148 266.612 647.48 263.422 647.48C261.404 647.48 259.743 647.725 258.441 648.213C257.139 648.669 256.179 649.32 255.561 650.166C254.942 651.012 254.633 651.973 254.633 653.047C254.633 654.186 254.958 655.195 255.609 656.074C256.293 656.921 257.351 657.669 258.783 658.32C260.248 658.939 262.12 659.492 264.398 659.98L270.355 661.25C274.359 662.096 277.794 663.219 280.658 664.619C283.555 666.019 285.915 667.663 287.738 669.551C289.594 671.406 290.945 673.506 291.791 675.85C292.67 678.193 293.109 680.749 293.109 683.516C293.109 688.301 291.921 692.37 289.545 695.723C287.201 699.043 283.832 701.566 279.438 703.291C275.043 705.016 269.77 705.879 263.617 705.879ZM327.875 705.879C321.56 705.879 316.042 704.951 311.322 703.096C306.635 701.208 302.989 698.311 300.385 694.404C297.781 690.498 296.462 685.501 296.43 679.414H315.18C315.31 681.628 315.863 683.499 316.84 685.029C317.849 686.559 319.249 687.715 321.039 688.496C322.862 689.277 325.043 689.668 327.582 689.668C329.698 689.668 331.472 689.408 332.904 688.887C334.337 688.366 335.411 687.65 336.127 686.738C336.876 685.794 337.25 684.72 337.25 683.516C337.25 682.409 336.892 681.449 336.176 680.635C335.492 679.788 334.353 679.023 332.758 678.34C331.163 677.656 329.014 677.038 326.312 676.484L318.988 674.922C312.576 673.555 307.514 671.227 303.803 667.939C300.124 664.619 298.285 660.111 298.285 654.414C298.285 649.792 299.538 645.755 302.045 642.305C304.551 638.822 308.002 636.12 312.396 634.199C316.824 632.246 321.918 631.27 327.68 631.27C333.572 631.27 338.65 632.262 342.914 634.248C347.211 636.201 350.515 638.968 352.826 642.549C355.17 646.097 356.358 650.247 356.391 655H337.445C337.283 652.624 336.404 650.785 334.809 649.482C333.246 648.148 330.87 647.48 327.68 647.48C325.661 647.48 324.001 647.725 322.699 648.213C321.397 648.669 320.437 649.32 319.818 650.166C319.2 651.012 318.891 651.973 318.891 653.047C318.891 654.186 319.216 655.195 319.867 656.074C320.551 656.921 321.609 657.669 323.041 658.32C324.506 658.939 326.378 659.492 328.656 659.98L334.613 661.25C338.617 662.096 342.051 663.219 344.916 664.619C347.813 666.019 350.173 667.663 351.996 669.551C353.852 671.406 355.202 673.506 356.049 675.85C356.928 678.193 357.367 680.749 357.367 683.516C357.367 688.301 356.179 692.37 353.803 695.723C351.459 699.043 348.09 701.566 343.695 703.291C339.301 705.016 334.027 705.879 327.875 705.879ZM380.121 632.246H404.73L421.625 673.457H422.406L439.398 632.246H463.91V705H444.574V662.91H444.086L427.875 704.414H416.156L400.043 662.715H399.457V705H380.121V632.246ZM497.504 705.977C491.579 705.977 486.501 704.805 482.27 702.461C478.07 700.085 474.848 696.797 472.602 692.598C470.388 688.366 469.281 683.451 469.281 677.852C469.281 672.253 470.388 667.354 472.602 663.154C474.848 658.923 478.07 655.635 482.27 653.291C486.501 650.915 491.579 649.727 497.504 649.727C503.428 649.727 508.49 650.915 512.689 653.291C516.921 655.635 520.144 658.923 522.357 663.154C524.604 667.354 525.727 672.253 525.727 677.852C525.727 683.451 524.604 688.366 522.357 692.598C520.144 696.797 516.921 700.085 512.689 702.461C508.49 704.805 503.428 705.977 497.504 705.977ZM497.602 691.328C499.294 691.328 500.743 690.791 501.947 689.717C503.152 688.643 504.079 687.096 504.73 685.078C505.382 683.027 505.707 680.586 505.707 677.754C505.707 674.889 505.382 672.464 504.73 670.479C504.079 668.493 503.152 666.979 501.947 665.938C500.743 664.896 499.294 664.375 497.602 664.375C495.876 664.375 494.379 664.896 493.109 665.938C491.872 666.979 490.928 668.493 490.277 670.479C489.626 672.464 489.301 674.889 489.301 677.754C489.301 680.586 489.626 683.027 490.277 685.078C490.928 687.096 491.872 688.643 493.109 689.717C494.379 690.791 495.876 691.328 497.602 691.328ZM550.922 705.684C547.048 705.684 543.467 704.674 540.18 702.656C536.924 700.605 534.32 697.513 532.367 693.379C530.414 689.245 529.438 684.036 529.438 677.754C529.438 671.146 530.463 665.791 532.514 661.689C534.564 657.555 537.217 654.528 540.473 652.607C543.728 650.687 547.146 649.727 550.727 649.727C553.428 649.727 555.788 650.199 557.807 651.143C559.857 652.054 561.566 653.291 562.934 654.854C564.333 656.416 565.375 658.125 566.059 659.98H566.352V632.246H585.98V705H566.547V696.016H566.059C565.31 697.871 564.236 699.531 562.836 700.996C561.436 702.428 559.743 703.568 557.758 704.414C555.772 705.26 553.493 705.684 550.922 705.684ZM558.148 690.645C559.939 690.645 561.485 690.124 562.787 689.082C564.089 688.008 565.082 686.51 565.766 684.59C566.482 682.669 566.84 680.391 566.84 677.754C566.84 675.052 566.482 672.741 565.766 670.82C565.082 668.867 564.089 667.37 562.787 666.328C561.485 665.286 559.939 664.766 558.148 664.766C556.358 664.766 554.828 665.286 553.559 666.328C552.289 667.37 551.312 668.867 550.629 670.82C549.978 672.741 549.652 675.052 549.652 677.754C549.652 680.423 549.978 682.734 550.629 684.688C551.312 686.608 552.289 688.089 553.559 689.131C554.828 690.14 556.358 690.645 558.148 690.645ZM628.949 681.172V650.41H648.578V705H629.926V694.648H629.34C628.168 698.099 626.101 700.817 623.139 702.803C620.209 704.756 616.71 705.716 612.641 705.684C608.832 705.684 605.495 704.821 602.631 703.096C599.766 701.338 597.536 698.929 595.941 695.869C594.379 692.777 593.598 689.245 593.598 685.273V650.41H613.227V681.172C613.227 683.841 613.91 685.957 615.277 687.52C616.645 689.049 618.565 689.798 621.039 689.766C622.667 689.766 624.066 689.424 625.238 688.74C626.41 688.057 627.322 687.08 627.973 685.811C628.624 684.508 628.949 682.962 628.949 681.172ZM675.824 632.246V705H656.195V632.246H675.824ZM709.613 705.977C703.786 705.977 698.757 704.87 694.525 702.656C690.326 700.41 687.104 697.188 684.857 692.988C682.611 688.789 681.488 683.743 681.488 677.852C681.488 672.22 682.611 667.305 684.857 663.105C687.136 658.874 690.342 655.586 694.477 653.242C698.611 650.898 703.493 649.727 709.125 649.727C713.259 649.727 716.986 650.378 720.307 651.68C723.66 652.949 726.524 654.805 728.9 657.246C731.277 659.655 733.1 662.585 734.369 666.035C735.639 669.486 736.273 673.392 736.273 677.754V682.246H687.543V671.504H727.094L717.914 673.75C717.914 671.536 717.589 669.681 716.938 668.184C716.286 666.654 715.326 665.498 714.057 664.717C712.787 663.903 711.208 663.496 709.32 663.496C707.432 663.496 705.854 663.903 704.584 664.717C703.314 665.498 702.354 666.654 701.703 668.184C701.052 669.681 700.727 671.536 700.727 673.75V681.562C700.727 683.711 701.101 685.583 701.85 687.178C702.631 688.773 703.721 690.01 705.121 690.889C706.521 691.768 708.148 692.207 710.004 692.207C711.339 692.207 712.543 692.028 713.617 691.67C714.724 691.279 715.668 690.726 716.449 690.01C717.23 689.294 717.816 688.431 718.207 687.422H736.078C735.46 691.198 734.011 694.486 731.732 697.285C729.486 700.052 726.492 702.201 722.748 703.73C719.037 705.228 714.659 705.977 709.613 705.977ZM791.547 668.184H773.578C773.448 666.523 772.65 665.221 771.186 664.277C769.753 663.301 768.077 662.812 766.156 662.812C764.464 662.812 763.031 663.122 761.859 663.74C760.688 664.326 760.102 665.189 760.102 666.328C760.102 667.142 760.443 667.907 761.127 668.623C761.843 669.339 763.227 669.876 765.277 670.234L776.41 672.188C781.977 673.164 786.127 674.857 788.861 677.266C791.628 679.674 793.012 682.897 793.012 686.934C793.012 690.84 791.872 694.225 789.594 697.09C787.315 699.922 784.19 702.119 780.219 703.682C776.28 705.212 771.788 705.977 766.742 705.977C758.409 705.977 751.882 704.284 747.162 700.898C742.475 697.48 739.854 692.988 739.301 687.422H758.734C759.027 689.147 759.906 690.482 761.371 691.426C762.836 692.337 764.659 692.793 766.84 692.793C768.663 692.793 770.16 692.484 771.332 691.865C772.504 691.247 773.09 690.384 773.09 689.277C773.09 687.357 771.007 686.022 766.84 685.273L757.172 683.516C751.638 682.507 747.488 680.667 744.721 677.998C741.954 675.296 740.57 671.797 740.57 667.5C740.57 663.691 741.579 660.469 743.598 657.832C745.648 655.195 748.546 653.193 752.289 651.826C756.065 650.426 760.557 649.727 765.766 649.727C773.643 649.727 779.844 651.37 784.369 654.658C788.926 657.913 791.319 662.422 791.547 668.184Z" fill="black"/>
<path d="M1215.52 705V632.246H1267.96V648.164H1235.24V660.469H1265.22V675.996H1235.24V689.082H1267.76V705H1215.52ZM1275.67 705V650.41H1294.23V660.859H1294.81C1295.95 657.441 1297.9 654.74 1300.67 652.754C1303.44 650.736 1306.69 649.727 1310.44 649.727C1314.31 649.727 1317.63 650.752 1320.4 652.803C1323.17 654.821 1324.83 657.507 1325.38 660.859H1325.96C1326.88 657.507 1328.83 654.821 1331.82 652.803C1334.85 650.752 1338.4 649.727 1342.47 649.727C1347.68 649.727 1351.91 651.403 1355.16 654.756C1358.42 658.109 1360.05 662.585 1360.05 668.184V705H1340.42V673.164C1340.42 670.788 1339.82 668.932 1338.61 667.598C1337.41 666.23 1335.8 665.547 1333.78 665.547C1331.76 665.547 1330.16 666.23 1328.99 667.598C1327.82 668.932 1327.23 670.788 1327.23 673.164V705H1308.48V673.164C1308.48 670.788 1307.88 668.932 1306.68 667.598C1305.47 666.23 1303.86 665.547 1301.84 665.547C1300.48 665.547 1299.3 665.856 1298.33 666.475C1297.35 667.093 1296.6 667.972 1296.08 669.111C1295.56 670.218 1295.3 671.569 1295.3 673.164V705H1275.67ZM1393.93 705.977C1388.01 705.977 1382.93 704.805 1378.7 702.461C1374.5 700.085 1371.28 696.797 1369.03 692.598C1366.82 688.366 1365.71 683.451 1365.71 677.852C1365.71 672.253 1366.82 667.354 1369.03 663.154C1371.28 658.923 1374.5 655.635 1378.7 653.291C1382.93 650.915 1388.01 649.727 1393.93 649.727C1399.86 649.727 1404.92 650.915 1409.12 653.291C1413.35 655.635 1416.57 658.923 1418.79 663.154C1421.03 667.354 1422.16 672.253 1422.16 677.852C1422.16 683.451 1421.03 688.366 1418.79 692.598C1416.57 696.797 1413.35 700.085 1409.12 702.461C1404.92 704.805 1399.86 705.977 1393.93 705.977ZM1394.03 691.328C1395.72 691.328 1397.17 690.791 1398.38 689.717C1399.58 688.643 1400.51 687.096 1401.16 685.078C1401.81 683.027 1402.14 680.586 1402.14 677.754C1402.14 674.889 1401.81 672.464 1401.16 670.479C1400.51 668.493 1399.58 666.979 1398.38 665.938C1397.17 664.896 1395.72 664.375 1394.03 664.375C1392.31 664.375 1390.81 664.896 1389.54 665.938C1388.3 666.979 1387.36 668.493 1386.71 670.479C1386.06 672.464 1385.73 674.889 1385.73 677.754C1385.73 680.586 1386.06 683.027 1386.71 685.078C1387.36 687.096 1388.3 688.643 1389.54 689.717C1390.81 690.791 1392.31 691.328 1394.03 691.328ZM1460.34 650.41V664.668H1424.4V650.41H1460.34ZM1431.34 637.422H1450.96V687.422C1450.96 688.561 1451.26 689.424 1451.84 690.01C1452.43 690.563 1453.37 690.84 1454.68 690.84C1455.26 690.84 1455.95 690.775 1456.73 690.645C1457.54 690.514 1458.13 690.384 1458.48 690.254L1461.32 704.121C1459.07 704.74 1457.04 705.179 1455.21 705.439C1453.39 705.7 1451.6 705.83 1449.84 705.83C1443.72 705.83 1439.1 704.43 1435.97 701.631C1432.88 698.831 1431.34 694.714 1431.34 689.277V637.422ZM1466 705V650.41H1485.63V705H1466ZM1475.77 644.844C1473.1 644.844 1470.82 643.965 1468.93 642.207C1467.05 640.449 1466.1 638.333 1466.1 635.859C1466.1 633.353 1467.05 631.237 1468.93 629.512C1470.82 627.754 1473.1 626.875 1475.77 626.875C1478.44 626.875 1480.72 627.754 1482.61 629.512C1484.49 631.237 1485.44 633.337 1485.44 635.811C1485.44 638.317 1484.49 640.449 1482.61 642.207C1480.72 643.965 1478.44 644.844 1475.77 644.844ZM1519.52 705.977C1513.6 705.977 1508.52 704.805 1504.29 702.461C1500.09 700.085 1496.86 696.797 1494.62 692.598C1492.4 688.366 1491.3 683.451 1491.3 677.852C1491.3 672.253 1492.4 667.354 1494.62 663.154C1496.86 658.923 1500.09 655.635 1504.29 653.291C1508.52 650.915 1513.6 649.727 1519.52 649.727C1525.44 649.727 1530.51 650.915 1534.71 653.291C1538.94 655.635 1542.16 658.923 1544.37 663.154C1546.62 667.354 1547.74 672.253 1547.74 677.852C1547.74 683.451 1546.62 688.366 1544.37 692.598C1542.16 696.797 1538.94 700.085 1534.71 702.461C1530.51 704.805 1525.44 705.977 1519.52 705.977ZM1519.62 691.328C1521.31 691.328 1522.76 690.791 1523.96 689.717C1525.17 688.643 1526.1 687.096 1526.75 685.078C1527.4 683.027 1527.72 680.586 1527.72 677.754C1527.72 674.889 1527.4 672.464 1526.75 670.479C1526.1 668.493 1525.17 666.979 1523.96 665.938C1522.76 664.896 1521.31 664.375 1519.62 664.375C1517.89 664.375 1516.39 664.896 1515.12 665.938C1513.89 666.979 1512.94 668.493 1512.29 670.479C1511.64 672.464 1511.32 674.889 1511.32 677.754C1511.32 680.586 1511.64 683.027 1512.29 685.078C1512.94 687.096 1513.89 688.643 1515.12 689.717C1516.39 690.791 1517.89 691.328 1519.62 691.328ZM1573.04 674.336V705H1553.41V650.41H1572.84V660.859H1573.23C1574.43 657.376 1576.4 654.658 1579.14 652.705C1581.91 650.719 1585.31 649.727 1589.34 649.727C1593.22 649.727 1596.57 650.605 1599.4 652.363C1602.27 654.121 1604.48 656.546 1606.04 659.639C1607.61 662.731 1608.39 666.263 1608.39 670.234V705H1588.76V674.336C1588.76 671.634 1588.07 669.518 1586.71 667.988C1585.34 666.426 1583.42 665.645 1580.95 665.645C1579.35 665.645 1577.95 666.003 1576.75 666.719C1575.57 667.402 1574.66 668.395 1574.01 669.697C1573.36 670.967 1573.04 672.513 1573.04 674.336Z" fill="black"/>
<path d="M273.562 898.164V882.246H336.746V898.164H314.871V955H295.438V898.164H273.562ZM349.93 955.879C346.447 955.879 343.354 955.309 340.652 954.17C337.983 952.998 335.9 951.24 334.402 948.896C332.905 946.553 332.156 943.574 332.156 939.961C332.156 936.966 332.661 934.411 333.67 932.295C334.679 930.179 336.095 928.454 337.918 927.119C339.741 925.752 341.857 924.71 344.266 923.994C346.707 923.245 349.344 922.773 352.176 922.578C355.236 922.35 357.677 922.074 359.5 921.748C361.355 921.423 362.69 920.951 363.504 920.332C364.35 919.681 364.773 918.835 364.773 917.793V917.598C364.773 916.198 364.236 915.124 363.162 914.375C362.088 913.594 360.704 913.203 359.012 913.203C357.124 913.203 355.594 913.61 354.422 914.424C353.25 915.238 352.534 916.491 352.273 918.184H334.305C334.533 914.863 335.574 911.803 337.43 909.004C339.318 906.204 342.068 903.958 345.682 902.266C349.327 900.573 353.868 899.727 359.305 899.727C363.178 899.727 366.661 900.182 369.754 901.094C372.846 902.005 375.483 903.275 377.664 904.902C379.845 906.53 381.505 908.434 382.645 910.615C383.816 912.764 384.402 915.091 384.402 917.598V955H366.043V947.285H365.652C364.546 949.336 363.211 950.996 361.648 952.266C360.118 953.503 358.377 954.414 356.424 955C354.471 955.586 352.306 955.879 349.93 955.879ZM356.277 943.477C357.775 943.477 359.174 943.167 360.477 942.549C361.811 941.93 362.885 941.051 363.699 939.912C364.546 938.74 364.969 937.324 364.969 935.664V931.172C364.448 931.367 363.895 931.562 363.309 931.758C362.723 931.953 362.088 932.132 361.404 932.295C360.753 932.458 360.07 932.604 359.354 932.734C358.67 932.865 357.938 932.995 357.156 933.125C355.626 933.353 354.373 933.743 353.396 934.297C352.452 934.818 351.753 935.469 351.297 936.25C350.841 936.999 350.613 937.845 350.613 938.789C350.613 940.319 351.134 941.491 352.176 942.305C353.25 943.086 354.617 943.477 356.277 943.477ZM392.02 955V900.41H411.648V955H392.02ZM401.785 894.844C399.116 894.844 396.837 893.965 394.949 892.207C393.061 890.449 392.117 888.333 392.117 885.859C392.117 883.353 393.061 881.237 394.949 879.512C396.837 877.754 399.116 876.875 401.785 876.875C404.454 876.875 406.733 877.754 408.621 879.512C410.509 881.237 411.453 883.337 411.453 885.811C411.453 888.317 410.509 890.449 408.621 892.207C406.733 893.965 404.454 894.844 401.785 894.844ZM438.895 882.246V955H419.266V882.246H438.895ZM456.18 955L442.508 900.41H462.137L468.387 933.711H468.777L475.809 900.41H494.754L502.078 933.418H502.469L508.426 900.41H528.055L514.383 955H493.191L485.574 925.703H484.988L477.371 955H456.18ZM531.668 955V900.41H551.297V955H531.668ZM541.434 894.844C538.764 894.844 536.486 893.965 534.598 892.207C532.71 890.449 531.766 888.333 531.766 885.859C531.766 883.353 532.71 881.237 534.598 879.512C536.486 877.754 538.764 876.875 541.434 876.875C544.103 876.875 546.382 877.754 548.27 879.512C550.158 881.237 551.102 883.337 551.102 885.811C551.102 888.317 550.158 890.449 548.27 892.207C546.382 893.965 544.103 894.844 541.434 894.844ZM578.543 924.336V955H558.914V900.41H578.348V910.859H578.738C579.943 907.376 581.912 904.658 584.646 902.705C587.413 900.719 590.815 899.727 594.852 899.727C598.725 899.727 602.078 900.605 604.91 902.363C607.775 904.121 609.988 906.546 611.551 909.639C613.113 912.731 613.895 916.263 613.895 920.234V955H594.266V924.336C594.266 921.634 593.582 919.518 592.215 917.988C590.848 916.426 588.927 915.645 586.453 915.645C584.858 915.645 583.458 916.003 582.254 916.719C581.082 917.402 580.171 918.395 579.52 919.697C578.868 920.967 578.543 922.513 578.543 924.336ZM641.043 955.684C637.169 955.684 633.589 954.674 630.301 952.656C627.046 950.605 624.441 947.513 622.488 943.379C620.535 939.245 619.559 934.036 619.559 927.754C619.559 921.146 620.584 915.791 622.635 911.689C624.686 907.555 627.339 904.528 630.594 902.607C633.849 900.687 637.267 899.727 640.848 899.727C643.549 899.727 645.91 900.199 647.928 901.143C649.979 902.054 651.688 903.291 653.055 904.854C654.454 906.416 655.496 908.125 656.18 909.98H656.473V882.246H676.102V955H656.668V946.016H656.18C655.431 947.871 654.357 949.531 652.957 950.996C651.557 952.428 649.865 953.568 647.879 954.414C645.893 955.26 643.615 955.684 641.043 955.684ZM648.27 940.645C650.06 940.645 651.606 940.124 652.908 939.082C654.21 938.008 655.203 936.51 655.887 934.59C656.603 932.669 656.961 930.391 656.961 927.754C656.961 925.052 656.603 922.741 655.887 920.82C655.203 918.867 654.21 917.37 652.908 916.328C651.606 915.286 650.06 914.766 648.27 914.766C646.479 914.766 644.949 915.286 643.68 916.328C642.41 917.37 641.434 918.867 640.75 920.82C640.099 922.741 639.773 925.052 639.773 927.754C639.773 930.423 640.099 932.734 640.75 934.688C641.434 936.608 642.41 938.089 643.68 939.131C644.949 940.14 646.479 940.645 648.27 940.645Z" fill="black"/>
<path d="M1258.58 882.246H1278.31V928.828C1278.31 934.362 1276.99 939.163 1274.35 943.232C1271.72 947.269 1268.04 950.394 1263.32 952.607C1258.6 954.788 1253.11 955.879 1246.86 955.879C1240.61 955.879 1235.13 954.788 1230.41 952.607C1225.72 950.394 1222.06 947.269 1219.42 943.232C1216.82 939.163 1215.52 934.362 1215.52 928.828V882.246H1235.24V927.168C1235.24 929.447 1235.75 931.465 1236.76 933.223C1237.76 934.948 1239.13 936.315 1240.86 937.324C1242.62 938.301 1244.62 938.789 1246.86 938.789C1249.14 938.789 1251.16 938.301 1252.92 937.324C1254.68 936.315 1256.06 934.948 1257.07 933.223C1258.08 931.465 1258.58 929.447 1258.58 927.168V882.246ZM1305.26 924.336V955H1285.63V900.41H1305.07V910.859H1305.46C1306.66 907.376 1308.63 904.658 1311.37 902.705C1314.13 900.719 1317.53 899.727 1321.57 899.727C1325.44 899.727 1328.8 900.605 1331.63 902.363C1334.49 904.121 1336.71 906.546 1338.27 909.639C1339.83 912.731 1340.61 916.263 1340.61 920.234V955H1320.98V924.336C1320.98 921.634 1320.3 919.518 1318.93 917.988C1317.57 916.426 1315.65 915.645 1313.17 915.645C1311.58 915.645 1310.18 916.003 1308.97 916.719C1307.8 917.402 1306.89 918.395 1306.24 919.697C1305.59 920.967 1305.26 922.513 1305.26 924.336ZM1374.5 955.977C1368.58 955.977 1363.5 954.805 1359.27 952.461C1355.07 950.085 1351.84 946.797 1349.6 942.598C1347.38 938.366 1346.28 933.451 1346.28 927.852C1346.28 922.253 1347.38 917.354 1349.6 913.154C1351.84 908.923 1355.07 905.635 1359.27 903.291C1363.5 900.915 1368.58 899.727 1374.5 899.727C1380.42 899.727 1385.49 900.915 1389.69 903.291C1393.92 905.635 1397.14 908.923 1399.35 913.154C1401.6 917.354 1402.72 922.253 1402.72 927.852C1402.72 933.451 1401.6 938.366 1399.35 942.598C1397.14 946.797 1393.92 950.085 1389.69 952.461C1385.49 954.805 1380.42 955.977 1374.5 955.977ZM1374.6 941.328C1376.29 941.328 1377.74 940.791 1378.94 939.717C1380.15 938.643 1381.08 937.096 1381.73 935.078C1382.38 933.027 1382.7 930.586 1382.7 927.754C1382.7 924.889 1382.38 922.464 1381.73 920.479C1381.08 918.493 1380.15 916.979 1378.94 915.938C1377.74 914.896 1376.29 914.375 1374.6 914.375C1372.87 914.375 1371.38 914.896 1370.11 915.938C1368.87 916.979 1367.92 918.493 1367.27 920.479C1366.62 922.464 1366.3 924.889 1366.3 927.754C1366.3 930.586 1366.62 933.027 1367.27 935.078C1367.92 937.096 1368.87 938.643 1370.11 939.717C1371.38 940.791 1372.87 941.328 1374.6 941.328ZM1442.86 955.977C1436.22 955.977 1430.25 954.544 1424.94 951.68C1419.67 948.815 1415.48 944.616 1412.39 939.082C1409.33 933.516 1407.8 926.712 1407.8 918.672C1407.8 910.566 1409.36 903.73 1412.49 898.164C1415.61 892.598 1419.83 888.398 1425.13 885.566C1430.44 882.702 1436.35 881.27 1442.86 881.27C1447.45 881.27 1451.68 881.904 1455.55 883.174C1459.43 884.411 1462.81 886.25 1465.71 888.691C1468.64 891.1 1470.98 894.062 1472.74 897.578C1474.5 901.061 1475.57 905.065 1475.96 909.59H1455.95C1455.82 907.93 1455.44 906.416 1454.82 905.049C1454.24 903.682 1453.41 902.51 1452.33 901.533C1451.29 900.557 1450.02 899.808 1448.52 899.287C1447.06 898.734 1445.37 898.457 1443.45 898.457C1440.16 898.457 1437.36 899.271 1435.05 900.898C1432.77 902.493 1431.04 904.805 1429.87 907.832C1428.7 910.827 1428.11 914.44 1428.11 918.672C1428.11 923.099 1428.72 926.81 1429.92 929.805C1431.12 932.799 1432.85 935.046 1435.1 936.543C1437.37 938.04 1440.12 938.789 1443.35 938.789C1445.17 938.789 1446.8 938.561 1448.23 938.105C1449.66 937.65 1450.92 936.982 1451.99 936.104C1453.06 935.225 1453.93 934.167 1454.58 932.93C1455.26 931.693 1455.72 930.293 1455.95 928.73H1475.96C1475.74 931.823 1474.87 934.98 1473.38 938.203C1471.91 941.393 1469.8 944.339 1467.03 947.041C1464.29 949.71 1460.91 951.875 1456.87 953.535C1452.87 955.163 1448.2 955.977 1442.86 955.977ZM1512.2 955.879C1505.88 955.879 1500.36 954.951 1495.64 953.096C1490.96 951.208 1487.31 948.311 1484.71 944.404C1482.1 940.498 1480.78 935.501 1480.75 929.414H1499.5C1499.63 931.628 1500.18 933.499 1501.16 935.029C1502.17 936.559 1503.57 937.715 1505.36 938.496C1507.18 939.277 1509.36 939.668 1511.9 939.668C1514.02 939.668 1515.79 939.408 1517.22 938.887C1518.66 938.366 1519.73 937.65 1520.45 936.738C1521.2 935.794 1521.57 934.72 1521.57 933.516C1521.57 932.409 1521.21 931.449 1520.5 930.635C1519.81 929.788 1518.67 929.023 1517.08 928.34C1515.48 927.656 1513.33 927.038 1510.63 926.484L1503.31 924.922C1496.9 923.555 1491.83 921.227 1488.12 917.939C1484.44 914.619 1482.61 910.111 1482.61 904.414C1482.61 899.792 1483.86 895.755 1486.37 892.305C1488.87 888.822 1492.32 886.12 1496.72 884.199C1501.14 882.246 1506.24 881.27 1512 881.27C1517.89 881.27 1522.97 882.262 1527.23 884.248C1531.53 886.201 1534.84 888.968 1537.15 892.549C1539.49 896.097 1540.68 900.247 1540.71 905H1521.77C1521.6 902.624 1520.72 900.785 1519.13 899.482C1517.57 898.148 1515.19 897.48 1512 897.48C1509.98 897.48 1508.32 897.725 1507.02 898.213C1505.72 898.669 1504.76 899.32 1504.14 900.166C1503.52 901.012 1503.21 901.973 1503.21 903.047C1503.21 904.186 1503.54 905.195 1504.19 906.074C1504.87 906.921 1505.93 907.669 1507.36 908.32C1508.83 908.939 1510.7 909.492 1512.98 909.98L1518.93 911.25C1522.94 912.096 1526.37 913.219 1529.24 914.619C1532.13 916.019 1534.49 917.663 1536.32 919.551C1538.17 921.406 1539.52 923.506 1540.37 925.85C1541.25 928.193 1541.69 930.749 1541.69 933.516C1541.69 938.301 1540.5 942.37 1538.12 945.723C1535.78 949.043 1532.41 951.566 1528.02 953.291C1523.62 955.016 1518.35 955.879 1512.2 955.879ZM1576.45 955.879C1570.14 955.879 1564.62 954.951 1559.9 953.096C1555.21 951.208 1551.57 948.311 1548.96 944.404C1546.36 940.498 1545.04 935.501 1545.01 929.414H1563.76C1563.89 931.628 1564.44 933.499 1565.42 935.029C1566.43 936.559 1567.83 937.715 1569.62 938.496C1571.44 939.277 1573.62 939.668 1576.16 939.668C1578.28 939.668 1580.05 939.408 1581.48 938.887C1582.91 938.366 1583.99 937.65 1584.71 936.738C1585.45 935.794 1585.83 934.72 1585.83 933.516C1585.83 932.409 1585.47 931.449 1584.75 930.635C1584.07 929.788 1582.93 929.023 1581.34 928.34C1579.74 927.656 1577.59 927.038 1574.89 926.484L1567.57 924.922C1561.15 923.555 1556.09 921.227 1552.38 917.939C1548.7 914.619 1546.86 910.111 1546.86 904.414C1546.86 899.792 1548.12 895.755 1550.62 892.305C1553.13 888.822 1556.58 886.12 1560.97 884.199C1565.4 882.246 1570.5 881.27 1576.26 881.27C1582.15 881.27 1587.23 882.262 1591.49 884.248C1595.79 886.201 1599.09 888.968 1601.4 892.549C1603.75 896.097 1604.94 900.247 1604.97 905H1586.02C1585.86 902.624 1584.98 900.785 1583.39 899.482C1581.82 898.148 1579.45 897.48 1576.26 897.48C1574.24 897.48 1572.58 897.725 1571.28 898.213C1569.98 898.669 1569.01 899.32 1568.4 900.166C1567.78 901.012 1567.47 901.973 1567.47 903.047C1567.47 904.186 1567.79 905.195 1568.45 906.074C1569.13 906.921 1570.19 907.669 1571.62 908.32C1573.08 908.939 1574.96 909.492 1577.23 909.98L1583.19 911.25C1587.2 912.096 1590.63 913.219 1593.49 914.619C1596.39 916.019 1598.75 917.663 1600.57 919.551C1602.43 921.406 1603.78 923.506 1604.63 925.85C1605.51 928.193 1605.95 930.749 1605.95 933.516C1605.95 938.301 1604.76 942.37 1602.38 945.723C1600.04 949.043 1596.67 951.566 1592.27 953.291C1587.88 955.016 1582.61 955.879 1576.45 955.879Z" fill="black"/>
</svg>
