<svg width="1089" height="565" viewBox="0 0 1089 565" fill="none" xmlns="http://www.w3.org/2000/svg">
<g opacity="0.33">
<rect x="311" y="129" width="258" height="221" fill="#AAAAAA"/>
<path d="M371.832 235V208.809H390.096V213.959H378.143V219.25H389.146V224.277H378.143V229.85H390.078V235H371.832ZM399.289 208.809V235H393.031V208.809H399.289ZM411.436 235.369C409.373 235.369 407.598 234.965 406.109 234.156C404.621 233.336 403.479 232.17 402.682 230.658C401.896 229.146 401.504 227.342 401.504 225.244C401.504 223.217 401.902 221.447 402.699 219.936C403.496 218.412 404.621 217.229 406.074 216.385C407.527 215.529 409.238 215.102 411.207 215.102C412.602 215.102 413.879 215.324 415.039 215.77C416.211 216.203 417.219 216.848 418.062 217.703C418.918 218.547 419.574 219.59 420.031 220.832C420.5 222.074 420.734 223.51 420.734 225.139V226.686H403.666V223.082H417.764L414.846 223.926C414.846 223.023 414.711 222.256 414.441 221.623C414.172 220.979 413.773 220.48 413.246 220.129C412.719 219.777 412.062 219.602 411.277 219.602C410.492 219.602 409.83 219.777 409.291 220.129C408.752 220.48 408.342 220.973 408.061 221.605C407.779 222.227 407.639 222.965 407.639 223.82V226.404C407.639 227.318 407.797 228.109 408.113 228.777C408.441 229.445 408.898 229.961 409.484 230.324C410.082 230.676 410.768 230.852 411.541 230.852C412.08 230.852 412.572 230.775 413.018 230.623C413.463 230.471 413.844 230.248 414.16 229.955C414.477 229.65 414.717 229.287 414.881 228.865L420.611 229.023C420.377 230.312 419.861 231.432 419.064 232.381C418.268 233.33 417.225 234.068 415.936 234.596C414.646 235.111 413.146 235.369 411.436 235.369ZM422.879 235V215.348H428.803V218.969H429.031C429.441 217.773 430.133 216.83 431.105 216.139C432.09 215.447 433.25 215.102 434.586 215.102C435.957 215.102 437.129 215.453 438.102 216.156C439.074 216.859 439.684 217.797 439.93 218.969H440.141C440.516 217.809 441.236 216.877 442.303 216.174C443.369 215.459 444.629 215.102 446.082 215.102C447.934 215.102 449.439 215.693 450.6 216.877C451.76 218.061 452.34 219.689 452.34 221.764V235H446.082V223.205C446.082 222.232 445.83 221.488 445.326 220.973C444.822 220.457 444.172 220.199 443.375 220.199C442.52 220.199 441.846 220.48 441.354 221.043C440.861 221.594 440.615 222.338 440.615 223.275V235H434.604V223.135C434.604 222.232 434.357 221.518 433.865 220.99C433.373 220.463 432.723 220.199 431.914 220.199C431.363 220.199 430.877 220.334 430.455 220.604C430.045 220.861 429.723 221.225 429.488 221.693C429.254 222.162 429.137 222.725 429.137 223.381V235H422.879ZM464.486 235.369C462.424 235.369 460.648 234.965 459.16 234.156C457.672 233.336 456.529 232.17 455.732 230.658C454.947 229.146 454.555 227.342 454.555 225.244C454.555 223.217 454.953 221.447 455.75 219.936C456.547 218.412 457.672 217.229 459.125 216.385C460.578 215.529 462.289 215.102 464.258 215.102C465.652 215.102 466.93 215.324 468.09 215.77C469.262 216.203 470.27 216.848 471.113 217.703C471.969 218.547 472.625 219.59 473.082 220.832C473.551 222.074 473.785 223.51 473.785 225.139V226.686H456.717V223.082H470.814L467.896 223.926C467.896 223.023 467.762 222.256 467.492 221.623C467.223 220.979 466.824 220.48 466.297 220.129C465.77 219.777 465.113 219.602 464.328 219.602C463.543 219.602 462.881 219.777 462.342 220.129C461.803 220.48 461.393 220.973 461.111 221.605C460.83 222.227 460.689 222.965 460.689 223.82V226.404C460.689 227.318 460.848 228.109 461.164 228.777C461.492 229.445 461.949 229.961 462.535 230.324C463.133 230.676 463.818 230.852 464.592 230.852C465.131 230.852 465.623 230.775 466.068 230.623C466.514 230.471 466.895 230.248 467.211 229.955C467.527 229.65 467.768 229.287 467.932 228.865L473.662 229.023C473.428 230.312 472.912 231.432 472.115 232.381C471.318 233.33 470.275 234.068 468.986 234.596C467.697 235.111 466.197 235.369 464.486 235.369ZM482.188 223.803V235H475.93V215.348H482.117V218.969H482.275C482.721 217.773 483.43 216.83 484.402 216.139C485.387 215.447 486.605 215.102 488.059 215.102C489.441 215.102 490.643 215.412 491.662 216.033C492.682 216.643 493.473 217.504 494.035 218.617C494.598 219.719 494.879 221.008 494.879 222.484V235H488.621V223.715C488.621 222.625 488.346 221.775 487.795 221.166C487.244 220.545 486.471 220.234 485.475 220.234C484.818 220.234 484.244 220.375 483.752 220.656C483.26 220.938 482.873 221.348 482.592 221.887C482.322 222.414 482.188 223.053 482.188 223.803ZM508.906 215.348V219.971H496.531V215.348H508.906ZM499.115 210.672H505.355V228.812C505.355 229.34 505.484 229.738 505.742 230.008C506 230.266 506.404 230.395 506.955 230.395C507.166 230.395 507.406 230.371 507.676 230.324C507.957 230.277 508.174 230.23 508.326 230.184L509.258 234.719C508.555 234.918 507.898 235.059 507.289 235.141C506.691 235.234 506.1 235.281 505.514 235.281C503.428 235.281 501.84 234.789 500.75 233.805C499.66 232.809 499.115 231.379 499.115 229.516V210.672ZM368.422 271H361.619L370.479 244.809H378.881L387.723 271H380.938L374.785 251.4H374.574L368.422 271ZM367.543 260.682H381.764V265.498H367.543V260.682ZM399.377 251.348V255.971H387.002V251.348H399.377ZM389.586 246.672H395.826V264.812C395.826 265.34 395.955 265.738 396.213 266.008C396.471 266.266 396.875 266.395 397.426 266.395C397.637 266.395 397.877 266.371 398.146 266.324C398.428 266.277 398.645 266.23 398.797 266.184L399.729 270.719C399.025 270.918 398.369 271.059 397.76 271.141C397.162 271.234 396.57 271.281 395.984 271.281C393.898 271.281 392.311 270.789 391.221 269.805C390.131 268.809 389.586 267.379 389.586 265.516V246.672ZM412.666 251.348V255.971H400.291V251.348H412.666ZM402.875 246.672H409.115V264.812C409.115 265.34 409.244 265.738 409.502 266.008C409.76 266.266 410.164 266.395 410.715 266.395C410.926 266.395 411.166 266.371 411.436 266.324C411.717 266.277 411.934 266.23 412.086 266.184L413.018 270.719C412.314 270.918 411.658 271.059 411.049 271.141C410.451 271.234 409.859 271.281 409.273 271.281C407.188 271.281 405.6 270.789 404.51 269.805C403.42 268.809 402.875 267.379 402.875 265.516V246.672ZM420.436 271.352C419.182 271.352 418.062 271.141 417.078 270.719C416.105 270.285 415.344 269.641 414.793 268.785C414.242 267.93 413.967 266.852 413.967 265.551C413.967 264.461 414.154 263.541 414.529 262.791C414.916 262.041 415.443 261.432 416.111 260.963C416.791 260.494 417.57 260.137 418.449 259.891C419.328 259.633 420.266 259.469 421.262 259.398C422.375 259.293 423.271 259.188 423.951 259.082C424.631 258.977 425.123 258.812 425.428 258.59C425.744 258.367 425.902 258.057 425.902 257.658V257.57C425.902 256.926 425.68 256.422 425.234 256.059C424.789 255.695 424.18 255.514 423.406 255.514C422.574 255.514 421.906 255.695 421.402 256.059C420.91 256.422 420.594 256.914 420.453 257.535L414.705 257.342C414.869 256.146 415.303 255.08 416.006 254.143C416.721 253.193 417.699 252.449 418.941 251.91C420.195 251.371 421.707 251.102 423.477 251.102C424.719 251.102 425.867 251.248 426.922 251.541C427.977 251.834 428.896 252.262 429.682 252.824C430.467 253.387 431.076 254.072 431.51 254.881C431.943 255.689 432.16 256.609 432.16 257.641V271H426.271V268.24H426.131C425.768 268.92 425.316 269.488 424.777 269.945C424.238 270.402 423.605 270.754 422.879 271C422.164 271.234 421.35 271.352 420.436 271.352ZM422.352 267.238C423.02 267.238 423.623 267.104 424.162 266.834C424.713 266.553 425.146 266.172 425.463 265.691C425.791 265.211 425.955 264.648 425.955 264.004V262.158C425.779 262.252 425.562 262.34 425.305 262.422C425.059 262.492 424.783 262.562 424.479 262.633C424.174 262.703 423.863 262.762 423.547 262.809C423.242 262.855 422.949 262.902 422.668 262.949C422.07 263.031 421.561 263.178 421.139 263.389C420.729 263.588 420.418 263.84 420.207 264.145C419.996 264.449 419.891 264.818 419.891 265.252C419.891 265.896 420.119 266.389 420.576 266.729C421.033 267.068 421.625 267.238 422.352 267.238ZM444.289 271.369C442.215 271.369 440.439 270.941 438.963 270.086C437.486 269.23 436.355 268.047 435.57 266.535C434.785 265.012 434.393 263.248 434.393 261.244C434.393 259.229 434.785 257.465 435.57 255.953C436.355 254.43 437.486 253.24 438.963 252.385C440.451 251.529 442.227 251.102 444.289 251.102C446.105 251.102 447.688 251.436 449.035 252.104C450.383 252.76 451.438 253.686 452.199 254.881C452.961 256.064 453.365 257.465 453.412 259.082H447.576C447.494 258.414 447.312 257.84 447.031 257.359C446.762 256.879 446.398 256.51 445.941 256.252C445.496 255.994 444.975 255.865 444.377 255.865C443.65 255.865 443.012 256.07 442.461 256.48C441.922 256.879 441.5 257.477 441.195 258.273C440.902 259.059 440.756 260.031 440.756 261.191C440.756 262.352 440.902 263.336 441.195 264.145C441.5 264.941 441.922 265.551 442.461 265.973C443 266.395 443.639 266.605 444.377 266.605C445.232 266.605 445.947 266.318 446.521 265.744C447.096 265.158 447.447 264.344 447.576 263.301H453.412C453.354 264.918 452.949 266.336 452.199 267.555C451.449 268.762 450.406 269.699 449.07 270.367C447.734 271.035 446.141 271.369 444.289 271.369ZM461.85 259.803V271H455.592V244.809H461.621V254.969H461.85C462.295 253.762 463.021 252.818 464.029 252.139C465.037 251.447 466.279 251.102 467.756 251.102C469.127 251.102 470.322 251.412 471.342 252.033C472.373 252.643 473.17 253.498 473.732 254.6C474.295 255.701 474.576 256.996 474.576 258.484V271H468.318V259.715C468.318 258.625 468.043 257.775 467.492 257.166C466.941 256.545 466.162 256.234 465.154 256.234C464.498 256.234 463.918 256.375 463.414 256.656C462.922 256.938 462.535 257.348 462.254 257.887C461.984 258.414 461.85 259.053 461.85 259.803ZM486.758 271.369C484.695 271.369 482.92 270.965 481.432 270.156C479.943 269.336 478.801 268.17 478.004 266.658C477.219 265.146 476.826 263.342 476.826 261.244C476.826 259.217 477.225 257.447 478.021 255.936C478.818 254.412 479.943 253.229 481.396 252.385C482.85 251.529 484.561 251.102 486.529 251.102C487.924 251.102 489.201 251.324 490.361 251.77C491.533 252.203 492.541 252.848 493.385 253.703C494.24 254.547 494.896 255.59 495.354 256.832C495.822 258.074 496.057 259.51 496.057 261.139V262.686H478.988V259.082H493.086L490.168 259.926C490.168 259.023 490.033 258.256 489.764 257.623C489.494 256.979 489.096 256.48 488.568 256.129C488.041 255.777 487.385 255.602 486.6 255.602C485.814 255.602 485.152 255.777 484.613 256.129C484.074 256.48 483.664 256.973 483.383 257.605C483.102 258.227 482.961 258.965 482.961 259.82V262.404C482.961 263.318 483.119 264.109 483.436 264.777C483.764 265.445 484.221 265.961 484.807 266.324C485.404 266.676 486.09 266.852 486.863 266.852C487.402 266.852 487.895 266.775 488.34 266.623C488.785 266.471 489.166 266.248 489.482 265.955C489.799 265.65 490.039 265.287 490.203 264.865L495.934 265.023C495.699 266.312 495.184 267.432 494.387 268.381C493.59 269.33 492.547 270.068 491.258 270.596C489.969 271.111 488.469 271.369 486.758 271.369ZM505.303 271.281C503.861 271.281 502.543 270.906 501.348 270.156C500.164 269.406 499.221 268.281 498.518 266.781C497.814 265.281 497.463 263.418 497.463 261.191C497.463 258.883 497.826 256.984 498.553 255.496C499.291 254.008 500.252 252.906 501.436 252.191C502.619 251.465 503.896 251.102 505.268 251.102C506.299 251.102 507.178 251.277 507.904 251.629C508.643 251.98 509.252 252.438 509.732 253C510.213 253.551 510.576 254.125 510.822 254.723H510.945V244.809H517.203V271H511.033V267.801H510.822C510.553 268.41 510.178 268.979 509.697 269.506C509.217 270.033 508.613 270.461 507.887 270.789C507.16 271.117 506.299 271.281 505.303 271.281ZM507.465 266.412C508.227 266.412 508.877 266.195 509.416 265.762C509.955 265.328 510.371 264.725 510.664 263.951C510.957 263.166 511.104 262.246 511.104 261.191C511.104 260.113 510.957 259.188 510.664 258.414C510.383 257.629 509.967 257.025 509.416 256.604C508.877 256.182 508.227 255.971 507.465 255.971C506.703 255.971 506.053 256.188 505.514 256.621C504.975 257.055 504.564 257.664 504.283 258.449C504.014 259.223 503.879 260.137 503.879 261.191C503.879 262.234 504.02 263.148 504.301 263.934C504.582 264.719 504.986 265.328 505.514 265.762C506.053 266.195 506.703 266.412 507.465 266.412Z" fill="black"/>
<rect x="520" y="215" width="258" height="221" fill="#DDDDDD"/>
<path d="M590.516 321.352C588.324 321.352 586.414 321.023 584.785 320.367C583.156 319.699 581.885 318.697 580.971 317.361C580.068 316.014 579.605 314.32 579.582 312.281H585.629C585.688 313.113 585.916 313.816 586.314 314.391C586.725 314.953 587.275 315.381 587.967 315.674C588.67 315.967 589.49 316.113 590.428 316.113C591.283 316.113 592.01 315.996 592.607 315.762C593.217 315.527 593.686 315.205 594.014 314.795C594.342 314.385 594.506 313.91 594.506 313.371C594.506 312.879 594.354 312.463 594.049 312.123C593.744 311.771 593.281 311.467 592.66 311.209C592.051 310.939 591.266 310.699 590.305 310.488L587.545 309.855C585.295 309.34 583.52 308.502 582.219 307.342C580.918 306.17 580.268 304.582 580.268 302.578C580.268 300.961 580.707 299.543 581.586 298.324C582.465 297.105 583.672 296.156 585.207 295.477C586.754 294.797 588.523 294.457 590.516 294.457C592.543 294.457 594.307 294.803 595.807 295.494C597.307 296.174 598.467 297.135 599.287 298.377C600.107 299.607 600.529 301.037 600.553 302.666H594.471C594.4 301.729 594.025 301.002 593.346 300.486C592.678 299.959 591.729 299.695 590.498 299.695C589.678 299.695 588.992 299.801 588.441 300.012C587.902 300.223 587.492 300.516 587.211 300.891C586.941 301.266 586.807 301.688 586.807 302.156C586.807 302.672 586.959 303.111 587.264 303.475C587.568 303.838 588.008 304.143 588.582 304.389C589.168 304.635 589.854 304.846 590.639 305.021L592.871 305.531C594.16 305.812 595.303 306.188 596.299 306.656C597.295 307.125 598.133 307.682 598.812 308.326C599.504 308.971 600.025 309.715 600.377 310.559C600.729 311.402 600.904 312.346 600.904 313.389C600.904 315.053 600.488 316.482 599.656 317.678C598.836 318.861 597.652 319.77 596.105 320.402C594.559 321.035 592.695 321.352 590.516 321.352ZM612.312 321.369C610.25 321.369 608.475 320.965 606.986 320.156C605.498 319.336 604.355 318.17 603.559 316.658C602.773 315.146 602.381 313.342 602.381 311.244C602.381 309.217 602.779 307.447 603.576 305.936C604.373 304.412 605.498 303.229 606.951 302.385C608.404 301.529 610.115 301.102 612.084 301.102C613.479 301.102 614.756 301.324 615.916 301.77C617.088 302.203 618.096 302.848 618.939 303.703C619.795 304.547 620.451 305.59 620.908 306.832C621.377 308.074 621.611 309.51 621.611 311.139V312.686H604.543V309.082H618.641L615.723 309.926C615.723 309.023 615.588 308.256 615.318 307.623C615.049 306.979 614.65 306.48 614.123 306.129C613.596 305.777 612.939 305.602 612.154 305.602C611.369 305.602 610.707 305.777 610.168 306.129C609.629 306.48 609.219 306.973 608.938 307.605C608.656 308.227 608.516 308.965 608.516 309.82V312.404C608.516 313.318 608.674 314.109 608.99 314.777C609.318 315.445 609.775 315.961 610.361 316.324C610.959 316.676 611.645 316.852 612.418 316.852C612.957 316.852 613.449 316.775 613.895 316.623C614.34 316.471 614.721 316.248 615.037 315.955C615.354 315.65 615.594 315.287 615.758 314.865L621.488 315.023C621.254 316.312 620.738 317.432 619.941 318.381C619.145 319.33 618.102 320.068 616.812 320.596C615.523 321.111 614.023 321.369 612.312 321.369ZM630.014 294.809V321H623.756V294.809H630.014ZM642.16 321.369C640.098 321.369 638.322 320.965 636.834 320.156C635.346 319.336 634.203 318.17 633.406 316.658C632.621 315.146 632.229 313.342 632.229 311.244C632.229 309.217 632.627 307.447 633.424 305.936C634.221 304.412 635.346 303.229 636.799 302.385C638.252 301.529 639.963 301.102 641.932 301.102C643.326 301.102 644.604 301.324 645.764 301.77C646.936 302.203 647.943 302.848 648.787 303.703C649.643 304.547 650.299 305.59 650.756 306.832C651.225 308.074 651.459 309.51 651.459 311.139V312.686H634.391V309.082H648.488L645.57 309.926C645.57 309.023 645.436 308.256 645.166 307.623C644.896 306.979 644.498 306.48 643.971 306.129C643.443 305.777 642.787 305.602 642.002 305.602C641.217 305.602 640.555 305.777 640.016 306.129C639.477 306.48 639.066 306.973 638.785 307.605C638.504 308.227 638.363 308.965 638.363 309.82V312.404C638.363 313.318 638.521 314.109 638.838 314.777C639.166 315.445 639.623 315.961 640.209 316.324C640.807 316.676 641.492 316.852 642.266 316.852C642.805 316.852 643.297 316.775 643.742 316.623C644.188 316.471 644.568 316.248 644.885 315.955C645.201 315.65 645.441 315.287 645.605 314.865L651.336 315.023C651.102 316.312 650.586 317.432 649.789 318.381C648.992 319.33 647.949 320.068 646.66 320.596C645.371 321.111 643.871 321.369 642.16 321.369ZM662.762 321.369C660.688 321.369 658.912 320.941 657.436 320.086C655.959 319.23 654.828 318.047 654.043 316.535C653.258 315.012 652.865 313.248 652.865 311.244C652.865 309.229 653.258 307.465 654.043 305.953C654.828 304.43 655.959 303.24 657.436 302.385C658.924 301.529 660.699 301.102 662.762 301.102C664.578 301.102 666.16 301.436 667.508 302.104C668.855 302.76 669.91 303.686 670.672 304.881C671.434 306.064 671.838 307.465 671.885 309.082H666.049C665.967 308.414 665.785 307.84 665.504 307.359C665.234 306.879 664.871 306.51 664.414 306.252C663.969 305.994 663.447 305.865 662.85 305.865C662.123 305.865 661.484 306.07 660.934 306.48C660.395 306.879 659.973 307.477 659.668 308.273C659.375 309.059 659.229 310.031 659.229 311.191C659.229 312.352 659.375 313.336 659.668 314.145C659.973 314.941 660.395 315.551 660.934 315.973C661.473 316.395 662.111 316.605 662.85 316.605C663.705 316.605 664.42 316.318 664.994 315.744C665.568 315.158 665.92 314.344 666.049 313.301H671.885C671.826 314.918 671.422 316.336 670.672 317.555C669.922 318.762 668.879 319.699 667.543 320.367C666.207 321.035 664.613 321.369 662.762 321.369ZM685.139 301.348V305.971H672.764V301.348H685.139ZM675.348 296.672H681.588V314.812C681.588 315.34 681.717 315.738 681.975 316.008C682.232 316.266 682.637 316.395 683.188 316.395C683.398 316.395 683.639 316.371 683.908 316.324C684.189 316.277 684.406 316.23 684.559 316.184L685.49 320.719C684.787 320.918 684.131 321.059 683.521 321.141C682.924 321.234 682.332 321.281 681.746 321.281C679.66 321.281 678.072 320.789 676.982 319.805C675.893 318.809 675.348 317.379 675.348 315.516V296.672ZM696.301 321.369C694.238 321.369 692.469 320.947 690.992 320.104C689.516 319.248 688.379 318.064 687.582 316.553C686.797 315.029 686.404 313.26 686.404 311.244C686.404 309.217 686.797 307.447 687.582 305.936C688.379 304.412 689.516 303.229 690.992 302.385C692.469 301.529 694.238 301.102 696.301 301.102C698.363 301.102 700.133 301.529 701.609 302.385C703.098 303.229 704.234 304.412 705.02 305.936C705.816 307.447 706.215 309.217 706.215 311.244C706.215 313.26 705.816 315.029 705.02 316.553C704.234 318.064 703.098 319.248 701.609 320.104C700.133 320.947 698.363 321.369 696.301 321.369ZM696.336 316.605C697.098 316.605 697.736 316.383 698.252 315.938C698.768 315.492 699.16 314.865 699.43 314.057C699.711 313.236 699.852 312.287 699.852 311.209C699.852 310.119 699.711 309.176 699.43 308.379C699.16 307.582 698.768 306.967 698.252 306.533C697.736 306.088 697.098 305.865 696.336 305.865C695.574 305.865 694.924 306.088 694.385 306.533C693.846 306.967 693.441 307.582 693.172 308.379C692.902 309.176 692.768 310.119 692.768 311.209C692.768 312.287 692.902 313.236 693.172 314.057C693.441 314.865 693.846 315.492 694.385 315.938C694.924 316.383 695.574 316.605 696.336 316.605ZM708.447 321V301.348H714.512V304.951H714.723C715.074 303.639 715.654 302.672 716.463 302.051C717.283 301.418 718.227 301.102 719.293 301.102C719.586 301.102 719.885 301.119 720.189 301.154C720.506 301.189 720.793 301.248 721.051 301.33V306.744C720.746 306.639 720.354 306.562 719.873 306.516C719.393 306.457 718.965 306.428 718.59 306.428C717.852 306.428 717.184 306.592 716.586 306.92C716 307.248 715.537 307.705 715.197 308.291C714.869 308.877 714.705 309.557 714.705 310.33V321H708.447ZM571.18 357.352C568.988 357.352 567.078 357.023 565.449 356.367C563.82 355.699 562.549 354.697 561.635 353.361C560.732 352.014 560.27 350.32 560.246 348.281H566.293C566.352 349.113 566.58 349.816 566.979 350.391C567.389 350.953 567.939 351.381 568.631 351.674C569.334 351.967 570.154 352.113 571.092 352.113C571.947 352.113 572.674 351.996 573.271 351.762C573.881 351.527 574.35 351.205 574.678 350.795C575.006 350.385 575.17 349.91 575.17 349.371C575.17 348.879 575.018 348.463 574.713 348.123C574.408 347.771 573.945 347.467 573.324 347.209C572.715 346.939 571.93 346.699 570.969 346.488L568.209 345.855C565.959 345.34 564.184 344.502 562.883 343.342C561.582 342.17 560.932 340.582 560.932 338.578C560.932 336.961 561.371 335.543 562.25 334.324C563.129 333.105 564.336 332.156 565.871 331.477C567.418 330.797 569.188 330.457 571.18 330.457C573.207 330.457 574.971 330.803 576.471 331.494C577.971 332.174 579.131 333.135 579.951 334.377C580.771 335.607 581.193 337.037 581.217 338.666H575.135C575.064 337.729 574.689 337.002 574.01 336.486C573.342 335.959 572.393 335.695 571.162 335.695C570.342 335.695 569.656 335.801 569.105 336.012C568.566 336.223 568.156 336.516 567.875 336.891C567.605 337.266 567.471 337.688 567.471 338.156C567.471 338.672 567.623 339.111 567.928 339.475C568.232 339.838 568.672 340.143 569.246 340.389C569.832 340.635 570.518 340.846 571.303 341.021L573.535 341.531C574.824 341.812 575.967 342.188 576.963 342.656C577.959 343.125 578.797 343.682 579.477 344.326C580.168 344.971 580.689 345.715 581.041 346.559C581.393 347.402 581.568 348.346 581.568 349.389C581.568 351.053 581.152 352.482 580.32 353.678C579.5 354.861 578.316 355.77 576.77 356.402C575.223 357.035 573.359 357.352 571.18 357.352ZM583.783 364.348V337.348H589.971V340.723H590.182C590.428 340.125 590.785 339.551 591.254 339C591.734 338.438 592.338 337.98 593.064 337.629C593.803 337.277 594.693 337.102 595.736 337.102C597.107 337.102 598.385 337.465 599.568 338.191C600.752 338.906 601.707 340.008 602.434 341.496C603.172 342.984 603.541 344.883 603.541 347.191C603.541 349.418 603.189 351.281 602.486 352.781C601.783 354.281 600.834 355.406 599.639 356.156C598.455 356.906 597.137 357.281 595.684 357.281C594.699 357.281 593.844 357.117 593.117 356.789C592.391 356.461 591.781 356.033 591.289 355.506C590.809 354.979 590.439 354.41 590.182 353.801H590.041V364.348H583.783ZM593.521 352.412C594.295 352.412 594.945 352.195 595.473 351.762C596.012 351.328 596.416 350.719 596.686 349.934C596.967 349.148 597.107 348.234 597.107 347.191C597.107 346.137 596.967 345.223 596.686 344.449C596.416 343.664 596.018 343.055 595.49 342.621C594.963 342.188 594.307 341.971 593.521 341.971C592.76 341.971 592.109 342.182 591.57 342.604C591.031 343.025 590.615 343.629 590.322 344.414C590.041 345.188 589.9 346.113 589.9 347.191C589.9 348.246 590.041 349.166 590.322 349.951C590.615 350.725 591.031 351.328 591.57 351.762C592.109 352.195 592.76 352.412 593.521 352.412ZM614.949 357.369C612.887 357.369 611.111 356.965 609.623 356.156C608.135 355.336 606.992 354.17 606.195 352.658C605.41 351.146 605.018 349.342 605.018 347.244C605.018 345.217 605.416 343.447 606.213 341.936C607.01 340.412 608.135 339.229 609.588 338.385C611.041 337.529 612.752 337.102 614.721 337.102C616.115 337.102 617.393 337.324 618.553 337.77C619.725 338.203 620.732 338.848 621.576 339.703C622.432 340.547 623.088 341.59 623.545 342.832C624.014 344.074 624.248 345.51 624.248 347.139V348.686H607.18V345.082H621.277L618.359 345.926C618.359 345.023 618.225 344.256 617.955 343.623C617.686 342.979 617.287 342.48 616.76 342.129C616.232 341.777 615.576 341.602 614.791 341.602C614.006 341.602 613.344 341.777 612.805 342.129C612.266 342.48 611.855 342.973 611.574 343.605C611.293 344.227 611.152 344.965 611.152 345.82V348.404C611.152 349.318 611.311 350.109 611.627 350.777C611.955 351.445 612.412 351.961 612.998 352.324C613.596 352.676 614.281 352.852 615.055 352.852C615.594 352.852 616.086 352.775 616.531 352.623C616.977 352.471 617.357 352.248 617.674 351.955C617.99 351.65 618.23 351.287 618.395 350.865L624.125 351.023C623.891 352.312 623.375 353.432 622.578 354.381C621.781 355.33 620.738 356.068 619.449 356.596C618.16 357.111 616.66 357.369 614.949 357.369ZM635.551 357.369C633.477 357.369 631.701 356.941 630.225 356.086C628.748 355.23 627.617 354.047 626.832 352.535C626.047 351.012 625.654 349.248 625.654 347.244C625.654 345.229 626.047 343.465 626.832 341.953C627.617 340.43 628.748 339.24 630.225 338.385C631.713 337.529 633.488 337.102 635.551 337.102C637.367 337.102 638.949 337.436 640.297 338.104C641.645 338.76 642.699 339.686 643.461 340.881C644.223 342.064 644.627 343.465 644.674 345.082H638.838C638.756 344.414 638.574 343.84 638.293 343.359C638.023 342.879 637.66 342.51 637.203 342.252C636.758 341.994 636.236 341.865 635.639 341.865C634.912 341.865 634.273 342.07 633.723 342.48C633.184 342.879 632.762 343.477 632.457 344.273C632.164 345.059 632.018 346.031 632.018 347.191C632.018 348.352 632.164 349.336 632.457 350.145C632.762 350.941 633.184 351.551 633.723 351.973C634.262 352.395 634.9 352.605 635.639 352.605C636.494 352.605 637.209 352.318 637.783 351.744C638.357 351.158 638.709 350.344 638.838 349.301H644.674C644.615 350.918 644.211 352.336 643.461 353.555C642.711 354.762 641.668 355.699 640.332 356.367C638.996 357.035 637.402 357.369 635.551 357.369ZM646.854 357V337.348H653.111V357H646.854ZM649.965 335.098C649.086 335.098 648.33 334.805 647.697 334.219C647.064 333.633 646.748 332.924 646.748 332.092C646.748 331.26 647.064 330.557 647.697 329.982C648.33 329.396 649.086 329.104 649.965 329.104C650.855 329.104 651.611 329.396 652.232 329.982C652.865 330.557 653.182 331.26 653.182 332.092C653.182 332.924 652.865 333.633 652.232 334.219C651.611 334.805 650.855 335.098 649.965 335.098ZM667.314 337.348V341.971H654.711V337.348H667.314ZM657.348 357V336.363C657.348 334.84 657.629 333.58 658.191 332.584C658.754 331.576 659.539 330.826 660.547 330.334C661.566 329.83 662.744 329.578 664.08 329.578C664.947 329.578 665.768 329.648 666.541 329.789C667.314 329.918 667.883 330.035 668.246 330.141L667.262 334.711C667.027 334.641 666.746 334.582 666.418 334.535C666.102 334.477 665.791 334.447 665.486 334.447C664.76 334.447 664.256 334.611 663.975 334.939C663.705 335.268 663.57 335.713 663.57 336.275V357H657.348ZM669.354 357V337.348H675.611V357H669.354ZM672.465 335.098C671.586 335.098 670.83 334.805 670.197 334.219C669.564 333.633 669.248 332.924 669.248 332.092C669.248 331.26 669.564 330.557 670.197 329.982C670.83 329.396 671.586 329.104 672.465 329.104C673.355 329.104 674.111 329.396 674.732 329.982C675.365 330.557 675.682 331.26 675.682 332.092C675.682 332.924 675.365 333.633 674.732 334.219C674.111 334.805 673.355 335.098 672.465 335.098ZM687.723 357.369C685.648 357.369 683.873 356.941 682.396 356.086C680.92 355.23 679.789 354.047 679.004 352.535C678.219 351.012 677.826 349.248 677.826 347.244C677.826 345.229 678.219 343.465 679.004 341.953C679.789 340.43 680.92 339.24 682.396 338.385C683.885 337.529 685.66 337.102 687.723 337.102C689.539 337.102 691.121 337.436 692.469 338.104C693.816 338.76 694.871 339.686 695.633 340.881C696.395 342.064 696.799 343.465 696.846 345.082H691.01C690.928 344.414 690.746 343.84 690.465 343.359C690.195 342.879 689.832 342.51 689.375 342.252C688.93 341.994 688.408 341.865 687.811 341.865C687.084 341.865 686.445 342.07 685.895 342.48C685.355 342.879 684.934 343.477 684.629 344.273C684.336 345.059 684.189 346.031 684.189 347.191C684.189 348.352 684.336 349.336 684.629 350.145C684.934 350.941 685.355 351.551 685.895 351.973C686.434 352.395 687.072 352.605 687.811 352.605C688.666 352.605 689.381 352.318 689.955 351.744C690.529 351.158 690.881 350.344 691.01 349.301H696.846C696.787 350.918 696.383 352.336 695.633 353.555C694.883 354.762 693.84 355.699 692.504 356.367C691.168 357.035 689.574 357.369 687.723 357.369ZM699.025 357V337.348H705.283V357H699.025ZM702.137 335.098C701.258 335.098 700.502 334.805 699.869 334.219C699.236 333.633 698.92 332.924 698.92 332.092C698.92 331.26 699.236 330.557 699.869 329.982C700.502 329.396 701.258 329.104 702.137 329.104C703.027 329.104 703.783 329.396 704.404 329.982C705.037 330.557 705.354 331.26 705.354 332.092C705.354 332.924 705.037 333.633 704.404 334.219C703.783 334.805 703.027 335.098 702.137 335.098ZM719.311 337.348V341.971H706.936V337.348H719.311ZM709.52 332.672H715.76V350.812C715.76 351.34 715.889 351.738 716.146 352.008C716.404 352.266 716.809 352.395 717.359 352.395C717.57 352.395 717.811 352.371 718.08 352.324C718.361 352.277 718.578 352.23 718.73 352.184L719.662 356.719C718.959 356.918 718.303 357.059 717.693 357.141C717.096 357.234 716.504 357.281 715.918 357.281C713.832 357.281 712.244 356.789 711.154 355.805C710.064 354.809 709.52 353.379 709.52 351.516V332.672ZM725.357 364.348C724.607 364.359 723.893 364.307 723.213 364.189C722.545 364.072 721.977 363.926 721.508 363.75L722.896 359.197L723.037 359.232C723.916 359.502 724.672 359.596 725.305 359.514C725.949 359.432 726.412 359.033 726.693 358.318L726.922 357.721L719.961 337.348H726.482L730.104 351.375H730.314L733.988 337.348H740.58L733.162 358.898C732.811 359.965 732.307 360.908 731.65 361.729C731.006 362.549 730.168 363.188 729.137 363.645C728.117 364.113 726.857 364.348 725.357 364.348Z" fill="black"/>
<rect x="727" y="301" width="258" height="221" fill="#AAAAAA"/>
<path d="M800.365 407.352C798.01 407.352 795.883 406.83 793.984 405.787C792.098 404.744 790.604 403.227 789.502 401.234C788.412 399.23 787.867 396.793 787.867 393.922C787.867 391.039 788.412 388.596 789.502 386.592C790.604 384.576 792.098 383.053 793.984 382.021C795.883 380.979 798.01 380.457 800.365 380.457C802.709 380.457 804.824 380.979 806.711 382.021C808.598 383.053 810.092 384.576 811.193 386.592C812.295 388.596 812.846 391.039 812.846 393.922C812.846 396.793 812.295 399.23 811.193 401.234C810.092 403.238 808.598 404.762 806.711 405.805C804.824 406.836 802.709 407.352 800.365 407.352ZM800.365 401.814C801.619 401.814 802.697 401.51 803.6 400.9C804.502 400.291 805.193 399.4 805.674 398.229C806.154 397.057 806.395 395.621 806.395 393.922C806.395 392.211 806.154 390.77 805.674 389.598C805.193 388.414 804.502 387.518 803.6 386.908C802.697 386.299 801.619 385.994 800.365 385.994C799.111 385.994 798.033 386.299 797.131 386.908C796.229 387.518 795.531 388.414 795.039 389.598C794.559 390.77 794.318 392.211 794.318 393.922C794.318 395.621 794.559 397.057 795.039 398.229C795.531 399.4 796.229 400.291 797.131 400.9C798.033 401.51 799.111 401.814 800.365 401.814ZM815.535 407V387.348H821.6V390.951H821.811C822.162 389.639 822.742 388.672 823.551 388.051C824.371 387.418 825.314 387.102 826.381 387.102C826.674 387.102 826.973 387.119 827.277 387.154C827.594 387.189 827.881 387.248 828.139 387.33V392.744C827.834 392.639 827.441 392.562 826.961 392.516C826.48 392.457 826.053 392.428 825.678 392.428C824.939 392.428 824.271 392.592 823.674 392.92C823.088 393.248 822.625 393.705 822.285 394.291C821.957 394.877 821.793 395.557 821.793 396.33V407H815.535ZM835.785 407.281C834.344 407.281 833.025 406.906 831.83 406.156C830.646 405.406 829.703 404.281 829 402.781C828.297 401.281 827.945 399.418 827.945 397.191C827.945 394.883 828.309 392.984 829.035 391.496C829.773 390.008 830.734 388.906 831.918 388.191C833.102 387.465 834.379 387.102 835.75 387.102C836.781 387.102 837.66 387.277 838.387 387.629C839.125 387.98 839.734 388.438 840.215 389C840.695 389.551 841.059 390.125 841.305 390.723H841.428V380.809H847.686V407H841.516V403.801H841.305C841.035 404.41 840.66 404.979 840.18 405.506C839.699 406.033 839.096 406.461 838.369 406.789C837.643 407.117 836.781 407.281 835.785 407.281ZM837.947 402.412C838.709 402.412 839.359 402.195 839.898 401.762C840.438 401.328 840.854 400.725 841.146 399.951C841.439 399.166 841.586 398.246 841.586 397.191C841.586 396.113 841.439 395.188 841.146 394.414C840.865 393.629 840.449 393.025 839.898 392.604C839.359 392.182 838.709 391.971 837.947 391.971C837.186 391.971 836.535 392.188 835.996 392.621C835.457 393.055 835.047 393.664 834.766 394.449C834.496 395.223 834.361 396.137 834.361 397.191C834.361 398.234 834.502 399.148 834.783 399.934C835.064 400.719 835.469 401.328 835.996 401.762C836.535 402.195 837.186 402.412 837.947 402.412ZM859.85 407.369C857.787 407.369 856.012 406.965 854.523 406.156C853.035 405.336 851.893 404.17 851.096 402.658C850.311 401.146 849.918 399.342 849.918 397.244C849.918 395.217 850.316 393.447 851.113 391.936C851.91 390.412 853.035 389.229 854.488 388.385C855.941 387.529 857.652 387.102 859.621 387.102C861.016 387.102 862.293 387.324 863.453 387.77C864.625 388.203 865.633 388.848 866.477 389.703C867.332 390.547 867.988 391.59 868.445 392.832C868.914 394.074 869.148 395.51 869.148 397.139V398.686H852.08V395.082H866.178L863.26 395.926C863.26 395.023 863.125 394.256 862.855 393.623C862.586 392.979 862.188 392.48 861.66 392.129C861.133 391.777 860.477 391.602 859.691 391.602C858.906 391.602 858.244 391.777 857.705 392.129C857.166 392.48 856.756 392.973 856.475 393.605C856.193 394.227 856.053 394.965 856.053 395.82V398.404C856.053 399.318 856.211 400.109 856.527 400.777C856.855 401.445 857.312 401.961 857.898 402.324C858.496 402.676 859.182 402.852 859.955 402.852C860.494 402.852 860.986 402.775 861.432 402.623C861.877 402.471 862.258 402.248 862.574 401.955C862.891 401.65 863.131 401.287 863.295 400.865L869.025 401.023C868.791 402.312 868.275 403.432 867.479 404.381C866.682 405.33 865.639 406.068 864.35 406.596C863.061 407.111 861.561 407.369 859.85 407.369ZM871.293 407V387.348H877.357V390.951H877.568C877.92 389.639 878.5 388.672 879.309 388.051C880.129 387.418 881.072 387.102 882.139 387.102C882.432 387.102 882.73 387.119 883.035 387.154C883.352 387.189 883.639 387.248 883.896 387.33V392.744C883.592 392.639 883.199 392.562 882.719 392.516C882.238 392.457 881.811 392.428 881.436 392.428C880.697 392.428 880.029 392.592 879.432 392.92C878.846 393.248 878.383 393.705 878.043 394.291C877.715 394.877 877.551 395.557 877.551 396.33V407H871.293ZM901.369 407.369C899.307 407.369 897.537 406.947 896.061 406.104C894.584 405.248 893.447 404.064 892.65 402.553C891.865 401.029 891.473 399.26 891.473 397.244C891.473 395.217 891.865 393.447 892.65 391.936C893.447 390.412 894.584 389.229 896.061 388.385C897.537 387.529 899.307 387.102 901.369 387.102C903.432 387.102 905.201 387.529 906.678 388.385C908.166 389.229 909.303 390.412 910.088 391.936C910.885 393.447 911.283 395.217 911.283 397.244C911.283 399.26 910.885 401.029 910.088 402.553C909.303 404.064 908.166 405.248 906.678 406.104C905.201 406.947 903.432 407.369 901.369 407.369ZM901.404 402.605C902.166 402.605 902.805 402.383 903.32 401.938C903.836 401.492 904.229 400.865 904.498 400.057C904.779 399.236 904.92 398.287 904.92 397.209C904.92 396.119 904.779 395.176 904.498 394.379C904.229 393.582 903.836 392.967 903.32 392.533C902.805 392.088 902.166 391.865 901.404 391.865C900.643 391.865 899.992 392.088 899.453 392.533C898.914 392.967 898.51 393.582 898.24 394.379C897.971 395.176 897.836 396.119 897.836 397.209C897.836 398.287 897.971 399.236 898.24 400.057C898.51 400.865 898.914 401.492 899.453 401.938C899.992 402.383 900.643 402.605 901.404 402.605ZM924.766 387.348V391.971H912.162V387.348H924.766ZM914.799 407V386.363C914.799 384.84 915.08 383.58 915.643 382.584C916.205 381.576 916.99 380.826 917.998 380.334C919.018 379.83 920.195 379.578 921.531 379.578C922.398 379.578 923.219 379.648 923.992 379.789C924.766 379.918 925.334 380.035 925.697 380.141L924.713 384.711C924.479 384.641 924.197 384.582 923.869 384.535C923.553 384.477 923.242 384.447 922.938 384.447C922.211 384.447 921.707 384.611 921.426 384.939C921.156 385.268 921.021 385.713 921.021 386.275V407H914.799ZM758.986 443H752.184L761.043 416.809H769.445L778.287 443H771.502L765.35 423.4H765.139L758.986 443ZM758.107 432.682H772.328V437.498H758.107V432.682ZM780.098 450.348V423.348H786.285V426.723H786.496C786.742 426.125 787.1 425.551 787.568 425C788.049 424.438 788.652 423.98 789.379 423.629C790.117 423.277 791.008 423.102 792.051 423.102C793.422 423.102 794.699 423.465 795.883 424.191C797.066 424.906 798.021 426.008 798.748 427.496C799.486 428.984 799.855 430.883 799.855 433.191C799.855 435.418 799.504 437.281 798.801 438.781C798.098 440.281 797.148 441.406 795.953 442.156C794.77 442.906 793.451 443.281 791.998 443.281C791.014 443.281 790.158 443.117 789.432 442.789C788.705 442.461 788.096 442.033 787.604 441.506C787.123 440.979 786.754 440.41 786.496 439.801H786.355V450.348H780.098ZM789.836 438.412C790.609 438.412 791.26 438.195 791.787 437.762C792.326 437.328 792.73 436.719 793 435.934C793.281 435.148 793.422 434.234 793.422 433.191C793.422 432.137 793.281 431.223 793 430.449C792.73 429.664 792.332 429.055 791.805 428.621C791.277 428.188 790.621 427.971 789.836 427.971C789.074 427.971 788.424 428.182 787.885 428.604C787.346 429.025 786.93 429.629 786.637 430.414C786.355 431.188 786.215 432.113 786.215 433.191C786.215 434.246 786.355 435.166 786.637 435.951C786.93 436.725 787.346 437.328 787.885 437.762C788.424 438.195 789.074 438.412 789.836 438.412ZM802.07 450.348V423.348H808.258V426.723H808.469C808.715 426.125 809.072 425.551 809.541 425C810.021 424.438 810.625 423.98 811.352 423.629C812.09 423.277 812.98 423.102 814.023 423.102C815.395 423.102 816.672 423.465 817.855 424.191C819.039 424.906 819.994 426.008 820.721 427.496C821.459 428.984 821.828 430.883 821.828 433.191C821.828 435.418 821.477 437.281 820.773 438.781C820.07 440.281 819.121 441.406 817.926 442.156C816.742 442.906 815.424 443.281 813.971 443.281C812.986 443.281 812.131 443.117 811.404 442.789C810.678 442.461 810.068 442.033 809.576 441.506C809.096 440.979 808.727 440.41 808.469 439.801H808.328V450.348H802.07ZM811.809 438.412C812.582 438.412 813.232 438.195 813.76 437.762C814.299 437.328 814.703 436.719 814.973 435.934C815.254 435.148 815.395 434.234 815.395 433.191C815.395 432.137 815.254 431.223 814.973 430.449C814.703 429.664 814.305 429.055 813.777 428.621C813.25 428.188 812.594 427.971 811.809 427.971C811.047 427.971 810.396 428.182 809.857 428.604C809.318 429.025 808.902 429.629 808.609 430.414C808.328 431.188 808.188 432.113 808.188 433.191C808.188 434.246 808.328 435.166 808.609 435.951C808.902 436.725 809.318 437.328 809.857 437.762C810.396 438.195 811.047 438.412 811.809 438.412ZM833.236 443.369C831.174 443.369 829.398 442.965 827.91 442.156C826.422 441.336 825.279 440.17 824.482 438.658C823.697 437.146 823.305 435.342 823.305 433.244C823.305 431.217 823.703 429.447 824.5 427.936C825.297 426.412 826.422 425.229 827.875 424.385C829.328 423.529 831.039 423.102 833.008 423.102C834.402 423.102 835.68 423.324 836.84 423.77C838.012 424.203 839.02 424.848 839.863 425.703C840.719 426.547 841.375 427.59 841.832 428.832C842.301 430.074 842.535 431.51 842.535 433.139V434.686H825.467V431.082H839.564L836.646 431.926C836.646 431.023 836.512 430.256 836.242 429.623C835.973 428.979 835.574 428.48 835.047 428.129C834.52 427.777 833.863 427.602 833.078 427.602C832.293 427.602 831.631 427.777 831.092 428.129C830.553 428.48 830.143 428.973 829.861 429.605C829.58 430.227 829.439 430.965 829.439 431.82V434.404C829.439 435.318 829.598 436.109 829.914 436.777C830.242 437.445 830.699 437.961 831.285 438.324C831.883 438.676 832.568 438.852 833.342 438.852C833.881 438.852 834.373 438.775 834.818 438.623C835.264 438.471 835.645 438.248 835.961 437.955C836.277 437.65 836.518 437.287 836.682 436.865L842.412 437.023C842.178 438.312 841.662 439.432 840.865 440.381C840.068 441.33 839.025 442.068 837.736 442.596C836.447 443.111 834.947 443.369 833.236 443.369ZM850.234 443.352C848.98 443.352 847.861 443.141 846.877 442.719C845.904 442.285 845.143 441.641 844.592 440.785C844.041 439.93 843.766 438.852 843.766 437.551C843.766 436.461 843.953 435.541 844.328 434.791C844.715 434.041 845.242 433.432 845.91 432.963C846.59 432.494 847.369 432.137 848.248 431.891C849.127 431.633 850.064 431.469 851.061 431.398C852.174 431.293 853.07 431.188 853.75 431.082C854.43 430.977 854.922 430.812 855.227 430.59C855.543 430.367 855.701 430.057 855.701 429.658V429.57C855.701 428.926 855.479 428.422 855.033 428.059C854.588 427.695 853.979 427.514 853.205 427.514C852.373 427.514 851.705 427.695 851.201 428.059C850.709 428.422 850.393 428.914 850.252 429.535L844.504 429.342C844.668 428.146 845.102 427.08 845.805 426.143C846.52 425.193 847.498 424.449 848.74 423.91C849.994 423.371 851.506 423.102 853.275 423.102C854.518 423.102 855.666 423.248 856.721 423.541C857.775 423.834 858.695 424.262 859.48 424.824C860.266 425.387 860.875 426.072 861.309 426.881C861.742 427.689 861.959 428.609 861.959 429.641V443H856.07V440.24H855.93C855.566 440.92 855.115 441.488 854.576 441.945C854.037 442.402 853.404 442.754 852.678 443C851.963 443.234 851.148 443.352 850.234 443.352ZM852.15 439.238C852.818 439.238 853.422 439.104 853.961 438.834C854.512 438.553 854.945 438.172 855.262 437.691C855.59 437.211 855.754 436.648 855.754 436.004V434.158C855.578 434.252 855.361 434.34 855.104 434.422C854.857 434.492 854.582 434.562 854.277 434.633C853.973 434.703 853.662 434.762 853.346 434.809C853.041 434.855 852.748 434.902 852.467 434.949C851.869 435.031 851.359 435.178 850.938 435.389C850.527 435.588 850.217 435.84 850.006 436.145C849.795 436.449 849.689 436.818 849.689 437.252C849.689 437.896 849.918 438.389 850.375 438.729C850.832 439.068 851.424 439.238 852.15 439.238ZM864.93 443V423.348H870.994V426.951H871.205C871.557 425.639 872.137 424.672 872.945 424.051C873.766 423.418 874.709 423.102 875.775 423.102C876.068 423.102 876.367 423.119 876.672 423.154C876.988 423.189 877.275 423.248 877.533 423.33V428.744C877.229 428.639 876.836 428.562 876.355 428.516C875.875 428.457 875.447 428.428 875.072 428.428C874.334 428.428 873.666 428.592 873.068 428.92C872.482 429.248 872.02 429.705 871.68 430.291C871.352 430.877 871.188 431.557 871.188 432.33V443H864.93ZM883.914 443.352C882.66 443.352 881.541 443.141 880.557 442.719C879.584 442.285 878.822 441.641 878.271 440.785C877.721 439.93 877.445 438.852 877.445 437.551C877.445 436.461 877.633 435.541 878.008 434.791C878.395 434.041 878.922 433.432 879.59 432.963C880.27 432.494 881.049 432.137 881.928 431.891C882.807 431.633 883.744 431.469 884.74 431.398C885.854 431.293 886.75 431.188 887.43 431.082C888.109 430.977 888.602 430.812 888.906 430.59C889.223 430.367 889.381 430.057 889.381 429.658V429.57C889.381 428.926 889.158 428.422 888.713 428.059C888.268 427.695 887.658 427.514 886.885 427.514C886.053 427.514 885.385 427.695 884.881 428.059C884.389 428.422 884.072 428.914 883.932 429.535L878.184 429.342C878.348 428.146 878.781 427.08 879.484 426.143C880.199 425.193 881.178 424.449 882.42 423.91C883.674 423.371 885.186 423.102 886.955 423.102C888.197 423.102 889.346 423.248 890.4 423.541C891.455 423.834 892.375 424.262 893.16 424.824C893.945 425.387 894.555 426.072 894.988 426.881C895.422 427.689 895.639 428.609 895.639 429.641V443H889.75V440.24H889.609C889.246 440.92 888.795 441.488 888.256 441.945C887.717 442.402 887.084 442.754 886.357 443C885.643 443.234 884.828 443.352 883.914 443.352ZM885.83 439.238C886.498 439.238 887.102 439.104 887.641 438.834C888.191 438.553 888.625 438.172 888.941 437.691C889.27 437.211 889.434 436.648 889.434 436.004V434.158C889.258 434.252 889.041 434.34 888.783 434.422C888.537 434.492 888.262 434.562 887.957 434.633C887.652 434.703 887.342 434.762 887.025 434.809C886.721 434.855 886.428 434.902 886.146 434.949C885.549 435.031 885.039 435.178 884.617 435.389C884.207 435.588 883.896 435.84 883.686 436.145C883.475 436.449 883.369 436.818 883.369 437.252C883.369 437.896 883.598 438.389 884.055 438.729C884.512 439.068 885.104 439.238 885.83 439.238ZM904.867 431.803V443H898.609V423.348H904.797V426.969H904.955C905.4 425.773 906.109 424.83 907.082 424.139C908.066 423.447 909.285 423.102 910.738 423.102C912.121 423.102 913.322 423.412 914.342 424.033C915.361 424.643 916.152 425.504 916.715 426.617C917.277 427.719 917.559 429.008 917.559 430.484V443H911.301V431.715C911.301 430.625 911.025 429.775 910.475 429.166C909.924 428.545 909.15 428.234 908.154 428.234C907.498 428.234 906.924 428.375 906.432 428.656C905.939 428.938 905.553 429.348 905.271 429.887C905.002 430.414 904.867 431.053 904.867 431.803ZM929.67 443.369C927.596 443.369 925.82 442.941 924.344 442.086C922.867 441.23 921.736 440.047 920.951 438.535C920.166 437.012 919.773 435.248 919.773 433.244C919.773 431.229 920.166 429.465 920.951 427.953C921.736 426.43 922.867 425.24 924.344 424.385C925.832 423.529 927.607 423.102 929.67 423.102C931.486 423.102 933.068 423.436 934.416 424.104C935.764 424.76 936.818 425.686 937.58 426.881C938.342 428.064 938.746 429.465 938.793 431.082H932.957C932.875 430.414 932.693 429.84 932.412 429.359C932.143 428.879 931.779 428.51 931.322 428.252C930.877 427.994 930.355 427.865 929.758 427.865C929.031 427.865 928.393 428.07 927.842 428.48C927.303 428.879 926.881 429.477 926.576 430.273C926.283 431.059 926.137 432.031 926.137 433.191C926.137 434.352 926.283 435.336 926.576 436.145C926.881 436.941 927.303 437.551 927.842 437.973C928.381 438.395 929.02 438.605 929.758 438.605C930.613 438.605 931.328 438.318 931.902 437.744C932.477 437.158 932.828 436.344 932.957 435.301H938.793C938.734 436.918 938.33 438.336 937.58 439.555C936.83 440.762 935.787 441.699 934.451 442.367C933.115 443.035 931.521 443.369 929.67 443.369ZM950.166 443.369C948.104 443.369 946.328 442.965 944.84 442.156C943.352 441.336 942.209 440.17 941.412 438.658C940.627 437.146 940.234 435.342 940.234 433.244C940.234 431.217 940.633 429.447 941.43 427.936C942.227 426.412 943.352 425.229 944.805 424.385C946.258 423.529 947.969 423.102 949.938 423.102C951.332 423.102 952.609 423.324 953.77 423.77C954.941 424.203 955.949 424.848 956.793 425.703C957.648 426.547 958.305 427.59 958.762 428.832C959.23 430.074 959.465 431.51 959.465 433.139V434.686H942.396V431.082H956.494L953.576 431.926C953.576 431.023 953.441 430.256 953.172 429.623C952.902 428.979 952.504 428.48 951.977 428.129C951.449 427.777 950.793 427.602 950.008 427.602C949.223 427.602 948.561 427.777 948.021 428.129C947.482 428.48 947.072 428.973 946.791 429.605C946.51 430.227 946.369 430.965 946.369 431.82V434.404C946.369 435.318 946.527 436.109 946.844 436.777C947.172 437.445 947.629 437.961 948.215 438.324C948.812 438.676 949.498 438.852 950.271 438.852C950.811 438.852 951.303 438.775 951.748 438.623C952.193 438.471 952.574 438.248 952.891 437.955C953.207 437.65 953.447 437.287 953.611 436.865L959.342 437.023C959.107 438.312 958.592 439.432 957.795 440.381C956.998 441.33 955.955 442.068 954.666 442.596C953.377 443.111 951.877 443.369 950.166 443.369Z" fill="black"/>
</g>
<rect x="104" y="43" width="258" height="221" fill="#DDDDDD"/>
<path d="M179.545 149.352C177.189 149.352 175.062 148.83 173.164 147.787C171.277 146.744 169.783 145.227 168.682 143.234C167.592 141.23 167.047 138.793 167.047 135.922C167.047 133.039 167.592 130.596 168.682 128.592C169.783 126.576 171.277 125.053 173.164 124.021C175.062 122.979 177.189 122.457 179.545 122.457C181.889 122.457 184.004 122.979 185.891 124.021C187.777 125.053 189.271 126.576 190.373 128.592C191.475 130.596 192.025 133.039 192.025 135.922C192.025 138.793 191.475 141.23 190.373 143.234C189.271 145.238 187.777 146.762 185.891 147.805C184.004 148.836 181.889 149.352 179.545 149.352ZM179.545 143.814C180.799 143.814 181.877 143.51 182.779 142.9C183.682 142.291 184.373 141.4 184.854 140.229C185.334 139.057 185.574 137.621 185.574 135.922C185.574 134.211 185.334 132.77 184.854 131.598C184.373 130.414 183.682 129.518 182.779 128.908C181.877 128.299 180.799 127.994 179.545 127.994C178.291 127.994 177.213 128.299 176.311 128.908C175.408 129.518 174.711 130.414 174.219 131.598C173.738 132.77 173.498 134.211 173.498 135.922C173.498 137.621 173.738 139.057 174.219 140.229C174.711 141.4 175.408 142.291 176.311 142.9C177.213 143.51 178.291 143.814 179.545 143.814ZM194.715 149V129.348H200.779V132.951H200.99C201.342 131.639 201.922 130.672 202.73 130.051C203.551 129.418 204.494 129.102 205.561 129.102C205.854 129.102 206.152 129.119 206.457 129.154C206.773 129.189 207.061 129.248 207.318 129.33V134.744C207.014 134.639 206.621 134.562 206.141 134.516C205.66 134.457 205.232 134.428 204.857 134.428C204.119 134.428 203.451 134.592 202.854 134.92C202.268 135.248 201.805 135.705 201.465 136.291C201.137 136.877 200.973 137.557 200.973 138.33V149H194.715ZM208.883 149V129.348H215.141V149H208.883ZM211.994 127.098C211.115 127.098 210.359 126.805 209.727 126.219C209.094 125.633 208.777 124.924 208.777 124.092C208.777 123.26 209.094 122.557 209.727 121.982C210.359 121.396 211.115 121.104 211.994 121.104C212.885 121.104 213.641 121.396 214.262 121.982C214.895 122.557 215.211 123.26 215.211 124.092C215.211 124.924 214.895 125.633 214.262 126.219C213.641 126.805 212.885 127.098 211.994 127.098ZM227.199 156.77C224.398 156.77 222.207 156.201 220.625 155.064C219.043 153.928 218.141 152.498 217.918 150.775L223.824 150.441C223.93 150.852 224.129 151.203 224.422 151.496C224.727 151.801 225.125 152.035 225.617 152.199C226.109 152.363 226.689 152.445 227.357 152.445C228.412 152.445 229.279 152.188 229.959 151.672C230.65 151.168 230.996 150.289 230.996 149.035V145.572H230.768C230.521 146.17 230.146 146.709 229.643 147.189C229.139 147.67 228.512 148.051 227.762 148.332C227.023 148.602 226.168 148.736 225.195 148.736C223.766 148.736 222.453 148.402 221.258 147.734C220.074 147.066 219.125 146.029 218.41 144.623C217.707 143.205 217.355 141.389 217.355 139.174C217.355 136.865 217.719 134.973 218.445 133.496C219.184 132.008 220.15 130.906 221.346 130.191C222.541 129.465 223.824 129.102 225.195 129.102C226.227 129.102 227.111 129.277 227.85 129.629C228.588 129.98 229.203 130.438 229.695 131C230.188 131.551 230.557 132.125 230.803 132.723H230.979V129.348H237.148V149.088C237.148 150.74 236.727 152.141 235.883 153.289C235.051 154.438 233.885 155.305 232.385 155.891C230.896 156.477 229.168 156.77 227.199 156.77ZM227.375 144.184C228.512 144.184 229.396 143.738 230.029 142.848C230.674 141.957 230.996 140.727 230.996 139.156C230.996 138.09 230.85 137.17 230.557 136.396C230.275 135.623 229.865 135.025 229.326 134.604C228.787 134.182 228.137 133.971 227.375 133.971C226.602 133.971 225.945 134.188 225.406 134.621C224.867 135.055 224.457 135.658 224.176 136.432C223.906 137.205 223.771 138.113 223.771 139.156C223.771 140.199 223.912 141.096 224.193 141.846C224.475 142.596 224.879 143.176 225.406 143.586C225.945 143.984 226.602 144.184 227.375 144.184ZM240.137 149V129.348H246.395V149H240.137ZM243.248 127.098C242.369 127.098 241.613 126.805 240.98 126.219C240.348 125.633 240.031 124.924 240.031 124.092C240.031 123.26 240.348 122.557 240.98 121.982C241.613 121.396 242.369 121.104 243.248 121.104C244.139 121.104 244.895 121.396 245.516 121.982C246.148 122.557 246.465 123.26 246.465 124.092C246.465 124.924 246.148 125.633 245.516 126.219C244.895 126.805 244.139 127.098 243.248 127.098ZM255.605 137.803V149H249.348V129.348H255.535V132.969H255.693C256.139 131.773 256.848 130.83 257.82 130.139C258.805 129.447 260.023 129.102 261.477 129.102C262.859 129.102 264.061 129.412 265.08 130.033C266.1 130.643 266.891 131.504 267.453 132.617C268.016 133.719 268.297 135.008 268.297 136.484V149H262.039V137.715C262.039 136.625 261.764 135.775 261.213 135.166C260.662 134.545 259.889 134.234 258.893 134.234C258.236 134.234 257.662 134.375 257.17 134.656C256.678 134.938 256.291 135.348 256.01 135.887C255.74 136.414 255.605 137.053 255.605 137.803ZM286.174 149.404C284.334 149.404 282.746 149.076 281.41 148.42C280.074 147.764 279.049 146.879 278.334 145.766C277.619 144.641 277.262 143.398 277.262 142.039C277.262 141.031 277.455 140.146 277.842 139.385C278.24 138.611 278.791 137.902 279.494 137.258C280.209 136.602 281.029 135.957 281.955 135.324L287.457 131.809C288.078 131.398 288.518 130.982 288.775 130.561C289.045 130.127 289.18 129.693 289.18 129.26C289.18 128.791 288.998 128.369 288.635 127.994C288.271 127.607 287.738 127.414 287.035 127.414C286.59 127.414 286.197 127.508 285.857 127.695C285.529 127.871 285.271 128.123 285.084 128.451C284.908 128.768 284.82 129.125 284.82 129.523C284.82 130.051 284.967 130.59 285.26 131.141C285.553 131.68 285.951 132.26 286.455 132.881C286.971 133.49 287.533 134.164 288.143 134.902L300.711 149H294.312L283.836 137.609C283.238 136.941 282.611 136.197 281.955 135.377C281.311 134.545 280.76 133.637 280.303 132.652C279.846 131.668 279.617 130.596 279.617 129.436C279.617 128.123 279.922 126.939 280.531 125.885C281.152 124.83 282.014 123.998 283.115 123.389C284.229 122.768 285.529 122.457 287.018 122.457C288.447 122.457 289.684 122.75 290.727 123.336C291.77 123.91 292.566 124.684 293.117 125.656C293.68 126.617 293.961 127.684 293.961 128.855C293.961 130.074 293.656 131.199 293.047 132.23C292.449 133.262 291.594 134.176 290.48 134.973L285.102 138.822C284.539 139.232 284.094 139.672 283.766 140.141C283.438 140.598 283.273 141.102 283.273 141.652C283.273 142.203 283.408 142.689 283.678 143.111C283.959 143.533 284.346 143.867 284.838 144.113C285.33 144.348 285.904 144.465 286.561 144.465C287.463 144.465 288.354 144.254 289.232 143.832C290.123 143.41 290.932 142.812 291.658 142.039C292.385 141.266 292.965 140.352 293.398 139.297C293.844 138.23 294.066 137.064 294.066 135.799H299.129C299.129 137.357 298.959 138.811 298.619 140.158C298.291 141.494 297.799 142.695 297.143 143.762C296.486 144.816 295.672 145.689 294.699 146.381C294.383 146.557 294.078 146.721 293.785 146.873C293.504 147.025 293.211 147.184 292.906 147.348C291.898 148.086 290.809 148.613 289.637 148.93C288.465 149.246 287.311 149.404 286.174 149.404ZM142.49 158.809V185H136.18V158.809H142.49ZM145.461 185V165.348H151.385V168.969H151.613C152.023 167.773 152.715 166.83 153.688 166.139C154.672 165.447 155.832 165.102 157.168 165.102C158.539 165.102 159.711 165.453 160.684 166.156C161.656 166.859 162.266 167.797 162.512 168.969H162.723C163.098 167.809 163.818 166.877 164.885 166.174C165.951 165.459 167.211 165.102 168.664 165.102C170.516 165.102 172.021 165.693 173.182 166.877C174.342 168.061 174.922 169.689 174.922 171.764V185H168.664V173.205C168.664 172.232 168.412 171.488 167.908 170.973C167.404 170.457 166.754 170.199 165.957 170.199C165.102 170.199 164.428 170.48 163.936 171.043C163.443 171.594 163.197 172.338 163.197 173.275V185H157.186V173.135C157.186 172.232 156.939 171.518 156.447 170.99C155.955 170.463 155.305 170.199 154.496 170.199C153.945 170.199 153.459 170.334 153.037 170.604C152.627 170.861 152.305 171.225 152.07 171.693C151.836 172.162 151.719 172.725 151.719 173.381V185H145.461ZM177.875 192.348V165.348H184.062V168.723H184.273C184.52 168.125 184.877 167.551 185.346 167C185.826 166.438 186.43 165.98 187.156 165.629C187.895 165.277 188.785 165.102 189.828 165.102C191.199 165.102 192.477 165.465 193.66 166.191C194.844 166.906 195.799 168.008 196.525 169.496C197.264 170.984 197.633 172.883 197.633 175.191C197.633 177.418 197.281 179.281 196.578 180.781C195.875 182.281 194.926 183.406 193.73 184.156C192.547 184.906 191.229 185.281 189.775 185.281C188.791 185.281 187.936 185.117 187.209 184.789C186.482 184.461 185.873 184.033 185.381 183.506C184.9 182.979 184.531 182.41 184.273 181.801H184.133V192.348H177.875ZM187.613 180.412C188.387 180.412 189.037 180.195 189.564 179.762C190.104 179.328 190.508 178.719 190.777 177.934C191.059 177.148 191.199 176.234 191.199 175.191C191.199 174.137 191.059 173.223 190.777 172.449C190.508 171.664 190.109 171.055 189.582 170.621C189.055 170.188 188.398 169.971 187.613 169.971C186.852 169.971 186.201 170.182 185.662 170.604C185.123 171.025 184.707 171.629 184.414 172.414C184.133 173.188 183.992 174.113 183.992 175.191C183.992 176.246 184.133 177.166 184.414 177.951C184.707 178.725 185.123 179.328 185.662 179.762C186.201 180.195 186.852 180.412 187.613 180.412ZM209.006 185.369C206.943 185.369 205.174 184.947 203.697 184.104C202.221 183.248 201.084 182.064 200.287 180.553C199.502 179.029 199.109 177.26 199.109 175.244C199.109 173.217 199.502 171.447 200.287 169.936C201.084 168.412 202.221 167.229 203.697 166.385C205.174 165.529 206.943 165.102 209.006 165.102C211.068 165.102 212.838 165.529 214.314 166.385C215.803 167.229 216.939 168.412 217.725 169.936C218.521 171.447 218.92 173.217 218.92 175.244C218.92 177.26 218.521 179.029 217.725 180.553C216.939 182.064 215.803 183.248 214.314 184.104C212.838 184.947 211.068 185.369 209.006 185.369ZM209.041 180.605C209.803 180.605 210.441 180.383 210.957 179.938C211.473 179.492 211.865 178.865 212.135 178.057C212.416 177.236 212.557 176.287 212.557 175.209C212.557 174.119 212.416 173.176 212.135 172.379C211.865 171.582 211.473 170.967 210.957 170.533C210.441 170.088 209.803 169.865 209.041 169.865C208.279 169.865 207.629 170.088 207.09 170.533C206.551 170.967 206.146 171.582 205.877 172.379C205.607 173.176 205.473 174.119 205.473 175.209C205.473 176.287 205.607 177.236 205.877 178.057C206.146 178.865 206.551 179.492 207.09 179.938C207.629 180.383 208.279 180.605 209.041 180.605ZM221.152 185V165.348H227.217V168.951H227.428C227.779 167.639 228.359 166.672 229.168 166.051C229.988 165.418 230.932 165.102 231.998 165.102C232.291 165.102 232.59 165.119 232.895 165.154C233.211 165.189 233.498 165.248 233.756 165.33V170.744C233.451 170.639 233.059 170.562 232.578 170.516C232.098 170.457 231.67 170.428 231.295 170.428C230.557 170.428 229.889 170.592 229.291 170.92C228.705 171.248 228.242 171.705 227.902 172.291C227.574 172.877 227.41 173.557 227.41 174.33V185H221.152ZM247.309 165.348V169.971H234.934V165.348H247.309ZM237.518 160.672H243.758V178.812C243.758 179.34 243.887 179.738 244.145 180.008C244.402 180.266 244.807 180.395 245.357 180.395C245.568 180.395 245.809 180.371 246.078 180.324C246.359 180.277 246.576 180.23 246.729 180.184L247.66 184.719C246.957 184.918 246.301 185.059 245.691 185.141C245.094 185.234 244.502 185.281 243.916 185.281C241.83 185.281 240.242 184.789 239.152 183.805C238.062 182.809 237.518 181.379 237.518 179.516V160.672ZM255.078 185.352C253.824 185.352 252.705 185.141 251.721 184.719C250.748 184.285 249.986 183.641 249.436 182.785C248.885 181.93 248.609 180.852 248.609 179.551C248.609 178.461 248.797 177.541 249.172 176.791C249.559 176.041 250.086 175.432 250.754 174.963C251.434 174.494 252.213 174.137 253.092 173.891C253.971 173.633 254.908 173.469 255.904 173.398C257.018 173.293 257.914 173.188 258.594 173.082C259.273 172.977 259.766 172.812 260.07 172.59C260.387 172.367 260.545 172.057 260.545 171.658V171.57C260.545 170.926 260.322 170.422 259.877 170.059C259.432 169.695 258.822 169.514 258.049 169.514C257.217 169.514 256.549 169.695 256.045 170.059C255.553 170.422 255.236 170.914 255.096 171.535L249.348 171.342C249.512 170.146 249.945 169.08 250.648 168.143C251.363 167.193 252.342 166.449 253.584 165.91C254.838 165.371 256.35 165.102 258.119 165.102C259.361 165.102 260.51 165.248 261.564 165.541C262.619 165.834 263.539 166.262 264.324 166.824C265.109 167.387 265.719 168.072 266.152 168.881C266.586 169.689 266.803 170.609 266.803 171.641V185H260.914V182.24H260.773C260.41 182.92 259.959 183.488 259.42 183.945C258.881 184.402 258.248 184.754 257.521 185C256.807 185.234 255.992 185.352 255.078 185.352ZM256.994 181.238C257.662 181.238 258.266 181.104 258.805 180.834C259.355 180.553 259.789 180.172 260.105 179.691C260.434 179.211 260.598 178.648 260.598 178.004V176.158C260.422 176.252 260.205 176.34 259.947 176.422C259.701 176.492 259.426 176.562 259.121 176.633C258.816 176.703 258.506 176.762 258.189 176.809C257.885 176.855 257.592 176.902 257.311 176.949C256.713 177.031 256.203 177.178 255.781 177.389C255.371 177.588 255.061 177.84 254.85 178.145C254.639 178.449 254.533 178.818 254.533 179.252C254.533 179.896 254.762 180.389 255.219 180.729C255.676 181.068 256.268 181.238 256.994 181.238ZM276.031 173.803V185H269.773V165.348H275.961V168.969H276.119C276.564 167.773 277.273 166.83 278.246 166.139C279.23 165.447 280.449 165.102 281.902 165.102C283.285 165.102 284.486 165.412 285.506 166.033C286.525 166.643 287.316 167.504 287.879 168.617C288.441 169.719 288.723 171.008 288.723 172.484V185H282.465V173.715C282.465 172.625 282.189 171.775 281.639 171.166C281.088 170.545 280.314 170.234 279.318 170.234C278.662 170.234 278.088 170.375 277.596 170.656C277.104 170.938 276.717 171.348 276.436 171.887C276.166 172.414 276.031 173.053 276.031 173.803ZM300.834 185.369C298.76 185.369 296.984 184.941 295.508 184.086C294.031 183.23 292.9 182.047 292.115 180.535C291.33 179.012 290.938 177.248 290.938 175.244C290.938 173.229 291.33 171.465 292.115 169.953C292.9 168.43 294.031 167.24 295.508 166.385C296.996 165.529 298.771 165.102 300.834 165.102C302.65 165.102 304.232 165.436 305.58 166.104C306.928 166.76 307.982 167.686 308.744 168.881C309.506 170.064 309.91 171.465 309.957 173.082H304.121C304.039 172.414 303.857 171.84 303.576 171.359C303.307 170.879 302.943 170.51 302.486 170.252C302.041 169.994 301.52 169.865 300.922 169.865C300.195 169.865 299.557 170.07 299.006 170.48C298.467 170.879 298.045 171.477 297.74 172.273C297.447 173.059 297.301 174.031 297.301 175.191C297.301 176.352 297.447 177.336 297.74 178.145C298.045 178.941 298.467 179.551 299.006 179.973C299.545 180.395 300.184 180.605 300.922 180.605C301.777 180.605 302.492 180.318 303.066 179.744C303.641 179.158 303.992 178.344 304.121 177.301H309.957C309.898 178.918 309.494 180.336 308.744 181.555C307.994 182.762 306.951 183.699 305.615 184.367C304.279 185.035 302.686 185.369 300.834 185.369ZM321.33 185.369C319.268 185.369 317.492 184.965 316.004 184.156C314.516 183.336 313.373 182.17 312.576 180.658C311.791 179.146 311.398 177.342 311.398 175.244C311.398 173.217 311.797 171.447 312.594 169.936C313.391 168.412 314.516 167.229 315.969 166.385C317.422 165.529 319.133 165.102 321.102 165.102C322.496 165.102 323.773 165.324 324.934 165.77C326.105 166.203 327.113 166.848 327.957 167.703C328.812 168.547 329.469 169.59 329.926 170.832C330.395 172.074 330.629 173.51 330.629 175.139V176.686H313.561V173.082H327.658L324.74 173.926C324.74 173.023 324.605 172.256 324.336 171.623C324.066 170.979 323.668 170.48 323.141 170.129C322.613 169.777 321.957 169.602 321.172 169.602C320.387 169.602 319.725 169.777 319.186 170.129C318.646 170.48 318.236 170.973 317.955 171.605C317.674 172.227 317.533 172.965 317.533 173.82V176.404C317.533 177.318 317.691 178.109 318.008 178.777C318.336 179.445 318.793 179.961 319.379 180.324C319.977 180.676 320.662 180.852 321.436 180.852C321.975 180.852 322.467 180.775 322.912 180.623C323.357 180.471 323.738 180.248 324.055 179.955C324.371 179.65 324.611 179.287 324.775 178.865L330.506 179.023C330.271 180.312 329.756 181.432 328.959 182.381C328.162 183.33 327.119 184.068 325.83 184.596C324.541 185.111 323.041 185.369 321.33 185.369Z" fill="black"/>
</svg>
