<svg width="1089" height="565" viewBox="0 0 1089 565" fill="none" xmlns="http://www.w3.org/2000/svg">
<g opacity="0.2">
<rect x="94" y="57" width="178.755" height="153.119" fill="#DDDDDD"/>
<path d="M146.341 130.244C144.709 130.244 143.235 129.882 141.92 129.16C140.613 128.437 139.578 127.386 138.815 126.005C138.059 124.617 137.682 122.928 137.682 120.939C137.682 118.941 138.059 117.249 138.815 115.86C139.578 114.464 140.613 113.408 141.92 112.694C143.235 111.971 144.709 111.61 146.341 111.61C147.965 111.61 149.431 111.971 150.738 112.694C152.045 113.408 153.08 114.464 153.843 115.86C154.607 117.249 154.988 118.941 154.988 120.939C154.988 122.928 154.607 124.617 153.843 126.005C153.08 127.394 152.045 128.449 150.738 129.172C149.431 129.886 147.965 130.244 146.341 130.244ZM146.341 126.407C147.21 126.407 147.957 126.196 148.582 125.774C149.207 125.352 149.686 124.735 150.019 123.923C150.352 123.111 150.519 122.116 150.519 120.939C150.519 119.753 150.352 118.755 150.019 117.943C149.686 117.123 149.207 116.502 148.582 116.079C147.957 115.657 147.21 115.446 146.341 115.446C145.472 115.446 144.725 115.657 144.1 116.079C143.475 116.502 142.992 117.123 142.651 117.943C142.318 118.755 142.152 119.753 142.152 120.939C142.152 122.116 142.318 123.111 142.651 123.923C142.992 124.735 143.475 125.352 144.1 125.774C144.725 126.196 145.472 126.407 146.341 126.407ZM156.852 130V116.384H161.053V118.881H161.199C161.443 117.971 161.845 117.301 162.405 116.871C162.974 116.433 163.627 116.213 164.366 116.213C164.569 116.213 164.776 116.226 164.987 116.25C165.206 116.274 165.405 116.315 165.584 116.372V120.123C165.373 120.05 165.101 119.997 164.768 119.965C164.435 119.924 164.139 119.904 163.879 119.904C163.367 119.904 162.905 120.017 162.49 120.245C162.084 120.472 161.764 120.789 161.528 121.195C161.301 121.601 161.187 122.071 161.187 122.607V130H156.852ZM166.668 130V116.384H171.004V130H166.668ZM168.824 114.825C168.215 114.825 167.691 114.622 167.252 114.216C166.814 113.81 166.595 113.319 166.595 112.742C166.595 112.166 166.814 111.679 167.252 111.281C167.691 110.875 168.215 110.672 168.824 110.672C169.441 110.672 169.964 110.875 170.395 111.281C170.833 111.679 171.052 112.166 171.052 112.742C171.052 113.319 170.833 113.81 170.395 114.216C169.964 114.622 169.441 114.825 168.824 114.825ZM179.358 135.383C177.418 135.383 175.899 134.989 174.803 134.202C173.707 133.414 173.082 132.424 172.928 131.23L177.02 130.999C177.093 131.283 177.231 131.526 177.434 131.729C177.645 131.941 177.921 132.103 178.262 132.217C178.603 132.33 179.005 132.387 179.468 132.387C180.199 132.387 180.799 132.208 181.27 131.851C181.749 131.502 181.989 130.893 181.989 130.024V127.625H181.831C181.66 128.039 181.4 128.413 181.051 128.746C180.702 129.078 180.268 129.342 179.748 129.537C179.237 129.724 178.644 129.817 177.97 129.817C176.979 129.817 176.07 129.586 175.242 129.123C174.422 128.66 173.764 127.942 173.269 126.967C172.782 125.985 172.538 124.727 172.538 123.192C172.538 121.592 172.79 120.281 173.293 119.258C173.805 118.227 174.475 117.464 175.303 116.969C176.131 116.465 177.02 116.213 177.97 116.213C178.684 116.213 179.297 116.335 179.809 116.579C180.32 116.822 180.747 117.139 181.088 117.529C181.429 117.91 181.684 118.308 181.855 118.722H181.977V116.384H186.252V130.061C186.252 131.206 185.959 132.176 185.375 132.972C184.798 133.767 183.99 134.368 182.951 134.774C181.92 135.18 180.722 135.383 179.358 135.383ZM179.48 126.663C180.268 126.663 180.881 126.354 181.319 125.737C181.766 125.12 181.989 124.268 181.989 123.18C181.989 122.441 181.887 121.804 181.684 121.268C181.49 120.732 181.205 120.318 180.832 120.025C180.458 119.733 180.008 119.587 179.48 119.587C178.944 119.587 178.49 119.737 178.116 120.038C177.743 120.338 177.458 120.756 177.264 121.292C177.077 121.828 176.983 122.457 176.983 123.18C176.983 123.902 177.081 124.524 177.276 125.043C177.471 125.563 177.751 125.965 178.116 126.249C178.49 126.525 178.944 126.663 179.48 126.663ZM188.322 130V116.384H192.658V130H188.322ZM190.478 114.825C189.869 114.825 189.345 114.622 188.907 114.216C188.468 113.81 188.249 113.319 188.249 112.742C188.249 112.166 188.468 111.679 188.907 111.281C189.345 110.875 189.869 110.672 190.478 110.672C191.095 110.672 191.618 110.875 192.049 111.281C192.487 111.679 192.706 112.166 192.706 112.742C192.706 113.319 192.487 113.81 192.049 114.216C191.618 114.622 191.095 114.825 190.478 114.825ZM199.04 122.242V130H194.704V116.384H198.991V118.893H199.1C199.409 118.065 199.9 117.411 200.574 116.932C201.256 116.453 202.1 116.213 203.107 116.213C204.065 116.213 204.898 116.429 205.604 116.859C206.31 117.281 206.858 117.878 207.248 118.649C207.638 119.412 207.833 120.306 207.833 121.329V130H203.497V122.181C203.497 121.426 203.306 120.837 202.925 120.415C202.543 119.985 202.007 119.77 201.317 119.77C200.862 119.77 200.464 119.867 200.123 120.062C199.782 120.257 199.514 120.541 199.32 120.914C199.133 121.28 199.04 121.722 199.04 122.242ZM220.219 130.28C218.944 130.28 217.844 130.053 216.918 129.598C215.993 129.143 215.282 128.53 214.787 127.759C214.292 126.98 214.044 126.119 214.044 125.177C214.044 124.479 214.178 123.866 214.446 123.338C214.722 122.802 215.104 122.311 215.591 121.864C216.086 121.41 216.654 120.963 217.296 120.525L221.108 118.089C221.538 117.805 221.843 117.517 222.021 117.224C222.208 116.924 222.301 116.623 222.301 116.323C222.301 115.998 222.175 115.706 221.924 115.446C221.672 115.178 221.303 115.044 220.816 115.044C220.507 115.044 220.235 115.109 220 115.239C219.772 115.361 219.594 115.535 219.464 115.763C219.342 115.982 219.281 116.23 219.281 116.506C219.281 116.871 219.382 117.245 219.585 117.626C219.788 118 220.064 118.402 220.414 118.832C220.771 119.254 221.161 119.721 221.583 120.232L230.291 130H225.858L218.599 122.108C218.185 121.645 217.75 121.13 217.296 120.561C216.849 119.985 216.468 119.356 216.151 118.674C215.834 117.992 215.676 117.249 215.676 116.445C215.676 115.535 215.887 114.715 216.309 113.985C216.74 113.254 217.336 112.677 218.1 112.255C218.871 111.825 219.772 111.61 220.803 111.61C221.794 111.61 222.65 111.813 223.373 112.219C224.096 112.617 224.648 113.152 225.029 113.826C225.419 114.492 225.614 115.231 225.614 116.043C225.614 116.887 225.403 117.667 224.981 118.381C224.567 119.096 223.974 119.729 223.203 120.281L219.476 122.948C219.086 123.233 218.778 123.537 218.55 123.862C218.323 124.178 218.209 124.528 218.209 124.909C218.209 125.291 218.303 125.628 218.489 125.92C218.684 126.212 218.952 126.444 219.293 126.614C219.634 126.777 220.032 126.858 220.487 126.858C221.112 126.858 221.729 126.712 222.338 126.419C222.955 126.127 223.515 125.713 224.019 125.177C224.522 124.641 224.924 124.008 225.224 123.277C225.533 122.538 225.687 121.73 225.687 120.854H229.195C229.195 121.933 229.077 122.94 228.841 123.874C228.614 124.8 228.273 125.632 227.818 126.371C227.364 127.101 226.799 127.706 226.126 128.185C225.906 128.307 225.695 128.421 225.492 128.526C225.297 128.632 225.094 128.742 224.883 128.855C224.185 129.367 223.43 129.732 222.618 129.951C221.806 130.171 221.006 130.28 220.219 130.28ZM120.668 136.853V155H116.296V136.853H120.668ZM122.726 155V141.384H126.83V143.893H126.989C127.273 143.065 127.752 142.411 128.426 141.932C129.108 141.453 129.912 141.213 130.837 141.213C131.787 141.213 132.599 141.457 133.273 141.944C133.947 142.431 134.369 143.081 134.54 143.893H134.686C134.946 143.089 135.445 142.443 136.184 141.956C136.923 141.461 137.796 141.213 138.802 141.213C140.085 141.213 141.129 141.623 141.932 142.443C142.736 143.264 143.138 144.392 143.138 145.829V155H138.802V146.828C138.802 146.154 138.628 145.638 138.279 145.281C137.93 144.924 137.479 144.745 136.927 144.745C136.334 144.745 135.867 144.94 135.526 145.33C135.185 145.712 135.015 146.227 135.015 146.877V155H130.849V146.779C130.849 146.154 130.679 145.659 130.338 145.293C129.997 144.928 129.546 144.745 128.986 144.745C128.604 144.745 128.268 144.839 127.975 145.025C127.691 145.204 127.468 145.456 127.305 145.781C127.143 146.105 127.062 146.495 127.062 146.95V155H122.726ZM145.184 160.091V141.384H149.471V143.722H149.617C149.788 143.308 150.035 142.91 150.36 142.529C150.693 142.139 151.111 141.822 151.615 141.579C152.126 141.335 152.743 141.213 153.466 141.213C154.416 141.213 155.301 141.465 156.121 141.969C156.941 142.464 157.603 143.227 158.106 144.258C158.618 145.289 158.873 146.605 158.873 148.204C158.873 149.747 158.63 151.038 158.143 152.077C157.655 153.116 156.998 153.896 156.17 154.415C155.35 154.935 154.436 155.195 153.429 155.195C152.747 155.195 152.155 155.081 151.651 154.854C151.148 154.627 150.726 154.33 150.385 153.965C150.052 153.599 149.796 153.206 149.617 152.783H149.52V160.091H145.184ZM151.931 151.821C152.467 151.821 152.918 151.671 153.283 151.371C153.657 151.07 153.937 150.648 154.123 150.104C154.318 149.56 154.416 148.927 154.416 148.204C154.416 147.473 154.318 146.84 154.123 146.304C153.937 145.76 153.661 145.338 153.295 145.038C152.93 144.737 152.475 144.587 151.931 144.587C151.404 144.587 150.953 144.733 150.579 145.025C150.206 145.318 149.918 145.736 149.715 146.28C149.52 146.816 149.422 147.457 149.422 148.204C149.422 148.935 149.52 149.572 149.715 150.116C149.918 150.652 150.206 151.07 150.579 151.371C150.953 151.671 151.404 151.821 151.931 151.821ZM166.753 155.256C165.324 155.256 164.098 154.963 163.075 154.379C162.052 153.786 161.264 152.966 160.712 151.919C160.168 150.863 159.896 149.637 159.896 148.241C159.896 146.836 160.168 145.61 160.712 144.563C161.264 143.507 162.052 142.687 163.075 142.102C164.098 141.51 165.324 141.213 166.753 141.213C168.182 141.213 169.408 141.51 170.431 142.102C171.462 142.687 172.25 143.507 172.794 144.563C173.346 145.61 173.622 146.836 173.622 148.241C173.622 149.637 173.346 150.863 172.794 151.919C172.25 152.966 171.462 153.786 170.431 154.379C169.408 154.963 168.182 155.256 166.753 155.256ZM166.777 151.955C167.305 151.955 167.748 151.801 168.105 151.492C168.462 151.184 168.734 150.75 168.921 150.189C169.116 149.621 169.213 148.963 169.213 148.216C169.213 147.461 169.116 146.808 168.921 146.256C168.734 145.703 168.462 145.277 168.105 144.977C167.748 144.668 167.305 144.514 166.777 144.514C166.25 144.514 165.799 144.668 165.426 144.977C165.052 145.277 164.772 145.703 164.585 146.256C164.398 146.808 164.305 147.461 164.305 148.216C164.305 148.963 164.398 149.621 164.585 150.189C164.772 150.75 165.052 151.184 165.426 151.492C165.799 151.801 166.25 151.955 166.777 151.955ZM175.169 155V141.384H179.37V143.881H179.517C179.76 142.971 180.162 142.301 180.722 141.871C181.291 141.433 181.944 141.213 182.683 141.213C182.886 141.213 183.093 141.226 183.304 141.25C183.524 141.274 183.722 141.315 183.901 141.372V145.123C183.69 145.05 183.418 144.997 183.085 144.965C182.752 144.924 182.456 144.904 182.196 144.904C181.684 144.904 181.222 145.017 180.808 145.245C180.402 145.472 180.081 145.789 179.845 146.195C179.618 146.601 179.504 147.071 179.504 147.607V155H175.169ZM193.291 141.384V144.587H184.717V141.384H193.291ZM186.507 138.144H190.831V150.713C190.831 151.078 190.92 151.354 191.099 151.541C191.277 151.72 191.558 151.809 191.939 151.809C192.085 151.809 192.252 151.793 192.439 151.76C192.633 151.728 192.784 151.695 192.889 151.663L193.535 154.805C193.047 154.943 192.593 155.041 192.171 155.097C191.756 155.162 191.346 155.195 190.941 155.195C189.495 155.195 188.395 154.854 187.64 154.172C186.885 153.482 186.507 152.491 186.507 151.2V138.144ZM198.674 155.244C197.805 155.244 197.03 155.097 196.348 154.805C195.674 154.505 195.146 154.058 194.765 153.465C194.383 152.873 194.192 152.126 194.192 151.225C194.192 150.469 194.322 149.832 194.582 149.312C194.85 148.793 195.215 148.371 195.678 148.046C196.149 147.721 196.689 147.473 197.298 147.303C197.907 147.124 198.556 147.011 199.247 146.962C200.018 146.889 200.639 146.816 201.11 146.743C201.581 146.67 201.922 146.556 202.133 146.402C202.352 146.247 202.462 146.032 202.462 145.756V145.695C202.462 145.249 202.308 144.9 201.999 144.648C201.69 144.396 201.268 144.27 200.732 144.27C200.156 144.27 199.693 144.396 199.344 144.648C199.003 144.9 198.784 145.241 198.686 145.671L194.704 145.537C194.817 144.709 195.118 143.97 195.605 143.32C196.1 142.663 196.778 142.147 197.639 141.774C198.508 141.4 199.555 141.213 200.781 141.213C201.642 141.213 202.437 141.315 203.168 141.518C203.899 141.721 204.536 142.017 205.08 142.407C205.624 142.797 206.046 143.272 206.347 143.832C206.647 144.392 206.798 145.029 206.798 145.744V155H202.718V153.088H202.62C202.368 153.559 202.056 153.953 201.682 154.269C201.309 154.586 200.87 154.829 200.367 155C199.872 155.162 199.307 155.244 198.674 155.244ZM200.002 152.394C200.464 152.394 200.883 152.3 201.256 152.114C201.638 151.919 201.938 151.655 202.157 151.322C202.385 150.989 202.498 150.599 202.498 150.153V148.874C202.377 148.939 202.226 149 202.048 149.057C201.877 149.105 201.686 149.154 201.475 149.203C201.264 149.252 201.049 149.292 200.83 149.325C200.619 149.357 200.416 149.39 200.221 149.422C199.807 149.479 199.454 149.58 199.161 149.727C198.877 149.865 198.662 150.039 198.516 150.25C198.37 150.461 198.297 150.717 198.297 151.017C198.297 151.464 198.455 151.805 198.772 152.041C199.088 152.276 199.498 152.394 200.002 152.394ZM213.191 147.242V155H208.856V141.384H213.143V143.893H213.252C213.561 143.065 214.052 142.411 214.726 141.932C215.408 141.453 216.252 141.213 217.259 141.213C218.217 141.213 219.05 141.429 219.756 141.859C220.462 142.281 221.01 142.878 221.4 143.649C221.79 144.412 221.985 145.306 221.985 146.329V155H217.649V147.181C217.649 146.426 217.458 145.837 217.077 145.415C216.695 144.985 216.159 144.77 215.469 144.77C215.014 144.77 214.616 144.867 214.275 145.062C213.934 145.257 213.666 145.541 213.472 145.914C213.285 146.28 213.191 146.722 213.191 147.242ZM230.376 155.256C228.939 155.256 227.709 154.959 226.686 154.367C225.663 153.774 224.879 152.954 224.335 151.907C223.791 150.851 223.519 149.629 223.519 148.241C223.519 146.844 223.791 145.622 224.335 144.575C224.879 143.519 225.663 142.695 226.686 142.102C227.717 141.51 228.947 141.213 230.376 141.213C231.634 141.213 232.731 141.445 233.664 141.908C234.598 142.362 235.329 143.004 235.857 143.832C236.384 144.652 236.664 145.622 236.697 146.743H232.653C232.597 146.28 232.471 145.882 232.276 145.549C232.089 145.216 231.837 144.96 231.521 144.782C231.212 144.603 230.851 144.514 230.437 144.514C229.933 144.514 229.491 144.656 229.109 144.94C228.736 145.216 228.444 145.63 228.232 146.182C228.03 146.726 227.928 147.4 227.928 148.204C227.928 149.008 228.03 149.69 228.232 150.25C228.444 150.802 228.736 151.225 229.109 151.517C229.483 151.809 229.925 151.955 230.437 151.955C231.03 151.955 231.525 151.756 231.923 151.358C232.321 150.953 232.564 150.388 232.653 149.666H236.697C236.656 150.786 236.376 151.769 235.857 152.613C235.337 153.449 234.614 154.099 233.689 154.562C232.763 155.024 231.659 155.256 230.376 155.256ZM244.577 155.256C243.148 155.256 241.918 154.976 240.886 154.415C239.855 153.847 239.064 153.039 238.512 151.992C237.968 150.944 237.696 149.694 237.696 148.241C237.696 146.836 237.972 145.61 238.524 144.563C239.076 143.507 239.855 142.687 240.862 142.102C241.869 141.51 243.054 141.213 244.418 141.213C245.385 141.213 246.27 141.368 247.073 141.676C247.885 141.977 248.584 142.423 249.168 143.016C249.761 143.6 250.216 144.323 250.532 145.184C250.857 146.044 251.019 147.039 251.019 148.168V149.239H239.194V146.743H248.961L246.939 147.327C246.939 146.702 246.846 146.17 246.659 145.732C246.473 145.285 246.196 144.94 245.831 144.697C245.466 144.453 245.011 144.331 244.467 144.331C243.923 144.331 243.464 144.453 243.091 144.697C242.717 144.94 242.433 145.281 242.238 145.72C242.043 146.15 241.946 146.661 241.946 147.254V149.044C241.946 149.678 242.056 150.226 242.275 150.689C242.502 151.151 242.819 151.509 243.225 151.76C243.639 152.004 244.114 152.126 244.65 152.126C245.023 152.126 245.364 152.073 245.673 151.967C245.981 151.862 246.245 151.708 246.464 151.505C246.684 151.294 246.85 151.042 246.964 150.75L250.934 150.859C250.772 151.752 250.414 152.528 249.862 153.185C249.31 153.843 248.588 154.355 247.694 154.72C246.801 155.077 245.762 155.256 244.577 155.256Z" fill="black"/>
<rect x="382.908" y="176.106" width="178.755" height="153.119" fill="#AAAAAA"/>
<path d="M425.056 249.106V230.959H437.71V234.528H429.428V238.194H437.052V241.677H429.428V245.538H437.697V249.106H425.056ZM444.079 230.959V249.106H439.743V230.959H444.079ZM452.495 249.362C451.066 249.362 449.836 249.082 448.805 248.521C447.773 247.953 446.982 247.145 446.43 246.098C445.886 245.05 445.614 243.8 445.614 242.347C445.614 240.942 445.89 239.716 446.442 238.669C446.994 237.613 447.773 236.793 448.78 236.208C449.787 235.616 450.972 235.319 452.337 235.319C453.303 235.319 454.188 235.474 454.992 235.782C455.803 236.083 456.502 236.529 457.086 237.122C457.679 237.706 458.134 238.429 458.45 239.29C458.775 240.15 458.938 241.145 458.938 242.274V243.345H447.112V240.849H456.879L454.858 241.433C454.858 240.808 454.764 240.276 454.577 239.838C454.391 239.391 454.115 239.046 453.749 238.803C453.384 238.559 452.929 238.437 452.385 238.437C451.841 238.437 451.382 238.559 451.009 238.803C450.636 239.046 450.351 239.387 450.156 239.826C449.962 240.256 449.864 240.767 449.864 241.36V243.15C449.864 243.784 449.974 244.332 450.193 244.795C450.42 245.257 450.737 245.615 451.143 245.866C451.557 246.11 452.032 246.232 452.568 246.232C452.941 246.232 453.282 246.179 453.591 246.073C453.899 245.968 454.163 245.814 454.383 245.611C454.602 245.399 454.768 245.148 454.882 244.855L458.852 244.965C458.69 245.858 458.333 246.634 457.781 247.291C457.228 247.949 456.506 248.46 455.613 248.826C454.72 249.183 453.68 249.362 452.495 249.362ZM460.423 249.106V235.49H464.528V237.999H464.686C464.97 237.171 465.449 236.517 466.123 236.038C466.805 235.559 467.609 235.319 468.535 235.319C469.484 235.319 470.296 235.563 470.97 236.05C471.644 236.537 472.066 237.187 472.237 237.999H472.383C472.643 237.195 473.142 236.549 473.881 236.062C474.62 235.567 475.493 235.319 476.5 235.319C477.782 235.319 478.826 235.729 479.63 236.549C480.433 237.369 480.835 238.498 480.835 239.935V249.106H476.5V240.934C476.5 240.26 476.325 239.744 475.976 239.387C475.627 239.03 475.176 238.851 474.624 238.851C474.031 238.851 473.564 239.046 473.223 239.436C472.882 239.817 472.712 240.333 472.712 240.983V249.106H468.547V240.885C468.547 240.26 468.376 239.765 468.035 239.399C467.694 239.034 467.244 238.851 466.683 238.851C466.302 238.851 465.965 238.945 465.672 239.131C465.388 239.31 465.165 239.562 465.003 239.886C464.84 240.211 464.759 240.601 464.759 241.056V249.106H460.423ZM489.251 249.362C487.822 249.362 486.592 249.082 485.561 248.521C484.53 247.953 483.738 247.145 483.186 246.098C482.642 245.05 482.37 243.8 482.37 242.347C482.37 240.942 482.646 239.716 483.198 238.669C483.75 237.613 484.53 236.793 485.536 236.208C486.543 235.616 487.729 235.319 489.093 235.319C490.059 235.319 490.944 235.474 491.748 235.782C492.56 236.083 493.258 236.529 493.842 237.122C494.435 237.706 494.89 238.429 495.206 239.29C495.531 240.15 495.694 241.145 495.694 242.274V243.345H483.868V240.849H493.635L491.614 241.433C491.614 240.808 491.52 240.276 491.334 239.838C491.147 239.391 490.871 239.046 490.505 238.803C490.14 238.559 489.685 238.437 489.141 238.437C488.597 238.437 488.139 238.559 487.765 238.803C487.392 239.046 487.107 239.387 486.913 239.826C486.718 240.256 486.62 240.767 486.62 241.36V243.15C486.62 243.784 486.73 244.332 486.949 244.795C487.176 245.257 487.493 245.615 487.899 245.866C488.313 246.11 488.788 246.232 489.324 246.232C489.698 246.232 490.039 246.179 490.347 246.073C490.656 245.968 490.919 245.814 491.139 245.611C491.358 245.399 491.524 245.148 491.638 244.855L495.608 244.965C495.446 245.858 495.089 246.634 494.537 247.291C493.985 247.949 493.262 248.46 492.369 248.826C491.476 249.183 490.436 249.362 489.251 249.362ZM501.515 241.348V249.106H497.179V235.49H501.466V237.999H501.576C501.885 237.171 502.376 236.517 503.05 236.038C503.732 235.559 504.576 235.319 505.583 235.319C506.541 235.319 507.373 235.535 508.08 235.965C508.786 236.387 509.334 236.984 509.724 237.755C510.114 238.518 510.308 239.412 510.308 240.435V249.106H505.973V241.287C505.973 240.532 505.782 239.943 505.4 239.521C505.019 239.091 504.483 238.876 503.793 238.876C503.338 238.876 502.94 238.973 502.599 239.168C502.258 239.363 501.99 239.647 501.795 240.02C501.609 240.386 501.515 240.828 501.515 241.348ZM520.027 235.49V238.693H511.453V235.49H520.027ZM513.244 232.25H517.567V244.819C517.567 245.184 517.656 245.46 517.835 245.647C518.014 245.826 518.294 245.915 518.675 245.915C518.821 245.915 518.988 245.899 519.175 245.866C519.37 245.834 519.52 245.801 519.625 245.769L520.271 248.911C519.784 249.049 519.329 249.147 518.907 249.203C518.493 249.268 518.083 249.301 517.677 249.301C516.231 249.301 515.131 248.96 514.376 248.278C513.621 247.588 513.244 246.597 513.244 245.306V232.25ZM422.693 274.106H417.98L424.118 255.959H429.939L436.065 274.106H431.364L427.102 260.526H426.956L422.693 274.106ZM422.084 266.957H431.937V270.294H422.084V266.957ZM444.14 260.49V263.693H435.566V260.49H444.14ZM437.356 257.25H441.68V269.819C441.68 270.184 441.769 270.46 441.948 270.647C442.126 270.826 442.407 270.915 442.788 270.915C442.934 270.915 443.101 270.899 443.288 270.866C443.482 270.834 443.633 270.801 443.738 270.769L444.384 273.911C443.896 274.049 443.442 274.147 443.02 274.203C442.606 274.268 442.195 274.301 441.79 274.301C440.344 274.301 439.244 273.96 438.489 273.278C437.734 272.588 437.356 271.597 437.356 270.306V257.25ZM453.347 260.49V263.693H444.773V260.49H453.347ZM446.564 257.25H450.887V269.819C450.887 270.184 450.977 270.46 451.155 270.647C451.334 270.826 451.614 270.915 451.996 270.915C452.142 270.915 452.308 270.899 452.495 270.866C452.69 270.834 452.84 270.801 452.945 270.769L453.591 273.911C453.104 274.049 452.649 274.147 452.227 274.203C451.813 274.268 451.403 274.301 450.997 274.301C449.552 274.301 448.451 273.96 447.696 273.278C446.941 272.588 446.564 271.597 446.564 270.306V257.25ZM458.73 274.35C457.862 274.35 457.086 274.203 456.404 273.911C455.73 273.611 455.203 273.164 454.821 272.571C454.439 271.979 454.249 271.232 454.249 270.33C454.249 269.575 454.379 268.938 454.638 268.418C454.906 267.899 455.272 267.477 455.734 267.152C456.205 266.827 456.745 266.579 457.354 266.409C457.963 266.23 458.613 266.117 459.303 266.068C460.074 265.995 460.695 265.922 461.166 265.849C461.637 265.776 461.978 265.662 462.189 265.508C462.409 265.353 462.518 265.138 462.518 264.862V264.801C462.518 264.355 462.364 264.006 462.055 263.754C461.747 263.502 461.325 263.376 460.789 263.376C460.212 263.376 459.749 263.502 459.4 263.754C459.059 264.006 458.84 264.347 458.743 264.777L454.76 264.643C454.874 263.815 455.174 263.076 455.661 262.426C456.157 261.769 456.835 261.253 457.695 260.88C458.564 260.506 459.611 260.319 460.837 260.319C461.698 260.319 462.494 260.421 463.225 260.624C463.955 260.827 464.593 261.123 465.137 261.513C465.681 261.903 466.103 262.378 466.403 262.938C466.704 263.498 466.854 264.135 466.854 264.85V274.106H462.774V272.194H462.676C462.425 272.665 462.112 273.059 461.739 273.375C461.365 273.692 460.927 273.935 460.423 274.106C459.928 274.268 459.364 274.35 458.73 274.35ZM460.058 271.5C460.521 271.5 460.939 271.406 461.312 271.22C461.694 271.025 461.994 270.761 462.214 270.428C462.441 270.095 462.555 269.705 462.555 269.259V267.98C462.433 268.045 462.283 268.106 462.104 268.163C461.934 268.211 461.743 268.26 461.532 268.309C461.321 268.357 461.105 268.398 460.886 268.431C460.675 268.463 460.472 268.496 460.277 268.528C459.863 268.585 459.51 268.686 459.218 268.832C458.933 268.97 458.718 269.145 458.572 269.356C458.426 269.567 458.353 269.823 458.353 270.123C458.353 270.57 458.511 270.911 458.828 271.146C459.145 271.382 459.555 271.5 460.058 271.5ZM475.257 274.362C473.82 274.362 472.59 274.065 471.567 273.473C470.544 272.88 469.761 272.06 469.217 271.012C468.673 269.957 468.401 268.735 468.401 267.347C468.401 265.95 468.673 264.728 469.217 263.681C469.761 262.625 470.544 261.801 471.567 261.208C472.598 260.616 473.828 260.319 475.257 260.319C476.516 260.319 477.612 260.551 478.546 261.014C479.479 261.468 480.21 262.11 480.738 262.938C481.266 263.758 481.546 264.728 481.578 265.849H477.535C477.478 265.386 477.352 264.988 477.157 264.655C476.971 264.322 476.719 264.066 476.402 263.888C476.094 263.709 475.732 263.62 475.318 263.62C474.815 263.62 474.372 263.762 473.991 264.046C473.617 264.322 473.325 264.736 473.114 265.288C472.911 265.832 472.809 266.506 472.809 267.31C472.809 268.114 472.911 268.796 473.114 269.356C473.325 269.908 473.617 270.33 473.991 270.623C474.364 270.915 474.807 271.061 475.318 271.061C475.911 271.061 476.406 270.862 476.804 270.464C477.202 270.058 477.445 269.494 477.535 268.772H481.578C481.538 269.892 481.257 270.874 480.738 271.719C480.218 272.555 479.496 273.205 478.57 273.668C477.644 274.13 476.54 274.362 475.257 274.362ZM487.424 266.348V274.106H483.088V255.959H487.266V262.999H487.424C487.733 262.162 488.236 261.509 488.934 261.038C489.633 260.559 490.493 260.319 491.516 260.319C492.466 260.319 493.294 260.535 494.001 260.965C494.715 261.387 495.267 261.98 495.657 262.743C496.047 263.506 496.242 264.403 496.242 265.435V274.106H491.906V266.287C491.906 265.532 491.715 264.943 491.334 264.521C490.952 264.091 490.412 263.876 489.714 263.876C489.259 263.876 488.857 263.973 488.508 264.168C488.167 264.363 487.899 264.647 487.704 265.02C487.517 265.386 487.424 265.828 487.424 266.348ZM504.682 274.362C503.253 274.362 502.023 274.082 500.991 273.521C499.96 272.953 499.169 272.145 498.617 271.098C498.073 270.05 497.801 268.8 497.801 267.347C497.801 265.942 498.077 264.716 498.629 263.669C499.181 262.613 499.96 261.793 500.967 261.208C501.974 260.616 503.159 260.319 504.523 260.319C505.49 260.319 506.375 260.474 507.178 260.782C507.99 261.083 508.689 261.529 509.273 262.122C509.866 262.706 510.321 263.429 510.637 264.29C510.962 265.15 511.124 266.145 511.124 267.274V268.345H499.299V265.849H509.066L507.044 266.433C507.044 265.808 506.951 265.276 506.764 264.838C506.578 264.391 506.302 264.046 505.936 263.803C505.571 263.559 505.116 263.437 504.572 263.437C504.028 263.437 503.569 263.559 503.196 263.803C502.822 264.046 502.538 264.387 502.343 264.826C502.148 265.256 502.051 265.767 502.051 266.36V268.15C502.051 268.784 502.161 269.332 502.38 269.795C502.607 270.257 502.924 270.615 503.33 270.866C503.744 271.11 504.219 271.232 504.755 271.232C505.128 271.232 505.469 271.179 505.778 271.073C506.086 270.968 506.35 270.814 506.569 270.611C506.789 270.399 506.955 270.148 507.069 269.855L511.039 269.965C510.877 270.858 510.519 271.634 509.967 272.291C509.415 272.949 508.693 273.46 507.8 273.826C506.906 274.183 505.867 274.362 504.682 274.362ZM517.531 274.301C516.532 274.301 515.618 274.041 514.79 273.521C513.97 273.002 513.317 272.222 512.829 271.183C512.342 270.144 512.099 268.853 512.099 267.31C512.099 265.711 512.35 264.395 512.854 263.364C513.365 262.333 514.031 261.57 514.851 261.074C515.671 260.571 516.556 260.319 517.506 260.319C518.221 260.319 518.83 260.441 519.333 260.685C519.845 260.928 520.267 261.245 520.6 261.635C520.933 262.016 521.184 262.414 521.355 262.828H521.44V255.959H525.776V274.106H521.501V271.889H521.355C521.168 272.312 520.908 272.705 520.575 273.071C520.242 273.436 519.824 273.732 519.321 273.96C518.817 274.187 518.221 274.301 517.531 274.301ZM519.029 270.927C519.556 270.927 520.007 270.777 520.38 270.477C520.754 270.176 521.042 269.758 521.245 269.222C521.448 268.678 521.55 268.041 521.55 267.31C521.55 266.563 521.448 265.922 521.245 265.386C521.05 264.842 520.762 264.424 520.38 264.131C520.007 263.839 519.556 263.693 519.029 263.693C518.501 263.693 518.05 263.843 517.677 264.144C517.303 264.444 517.019 264.866 516.824 265.41C516.637 265.946 516.544 266.579 516.544 267.31C516.544 268.033 516.641 268.666 516.836 269.21C517.031 269.754 517.311 270.176 517.677 270.477C518.05 270.777 518.501 270.927 519.029 270.927Z" fill="black"/>
<rect x="527.714" y="235.691" width="178.755" height="153.119" fill="#FF00E6"/>
<path d="M575.377 308.934C573.737 308.934 572.267 308.573 570.968 307.851C569.677 307.128 568.654 306.076 567.899 304.696C567.152 303.308 566.778 301.619 566.778 299.63C566.778 297.632 567.156 295.94 567.911 294.551C568.674 293.155 569.705 292.099 571.004 291.385C572.312 290.662 573.769 290.301 575.377 290.301C576.473 290.301 577.488 290.455 578.421 290.763C579.355 291.064 580.175 291.506 580.881 292.091C581.596 292.676 582.172 293.39 582.611 294.234C583.049 295.079 583.325 296.045 583.439 297.133H579.006C578.949 296.678 578.827 296.268 578.641 295.903C578.462 295.53 578.218 295.213 577.91 294.953C577.609 294.693 577.256 294.494 576.85 294.356C576.444 294.21 575.99 294.137 575.486 294.137C574.609 294.137 573.854 294.356 573.221 294.795C572.588 295.225 572.1 295.85 571.759 296.67C571.418 297.482 571.248 298.469 571.248 299.63C571.248 300.823 571.418 301.83 571.759 302.65C572.109 303.462 572.596 304.075 573.221 304.489C573.854 304.895 574.605 305.098 575.474 305.098C575.953 305.098 576.392 305.037 576.789 304.915C577.187 304.786 577.536 304.603 577.837 304.367C578.145 304.124 578.397 303.832 578.592 303.49C578.795 303.141 578.933 302.748 579.006 302.309H583.439C583.358 303.113 583.126 303.909 582.745 304.696C582.363 305.484 581.831 306.198 581.149 306.84C580.476 307.473 579.655 307.98 578.689 308.362C577.723 308.744 576.619 308.934 575.377 308.934ZM589.09 308.934C588.221 308.934 587.446 308.788 586.764 308.496C586.09 308.196 585.562 307.749 585.181 307.156C584.799 306.564 584.608 305.817 584.608 304.915C584.608 304.16 584.738 303.523 584.998 303.003C585.266 302.484 585.631 302.062 586.094 301.737C586.565 301.412 587.105 301.164 587.714 300.994C588.323 300.815 588.972 300.702 589.663 300.653C590.434 300.58 591.055 300.507 591.526 300.434C591.997 300.361 592.338 300.247 592.549 300.093C592.768 299.938 592.878 299.723 592.878 299.447V299.386C592.878 298.94 592.724 298.59 592.415 298.339C592.106 298.087 591.684 297.961 591.148 297.961C590.572 297.961 590.109 298.087 589.76 298.339C589.419 298.59 589.2 298.932 589.102 299.362L585.12 299.228C585.233 298.4 585.534 297.661 586.021 297.011C586.516 296.354 587.194 295.838 588.055 295.465C588.924 295.091 589.971 294.904 591.197 294.904C592.058 294.904 592.853 295.006 593.584 295.209C594.315 295.412 594.952 295.708 595.496 296.098C596.04 296.488 596.462 296.963 596.763 297.523C597.063 298.083 597.213 298.72 597.213 299.435V308.691H593.134V306.779H593.036C592.784 307.25 592.472 307.644 592.098 307.96C591.725 308.277 591.286 308.52 590.783 308.691C590.288 308.853 589.723 308.934 589.09 308.934ZM590.418 306.085C590.88 306.085 591.299 305.991 591.672 305.805C592.054 305.61 592.354 305.346 592.573 305.013C592.801 304.68 592.914 304.29 592.914 303.844V302.565C592.793 302.63 592.642 302.691 592.464 302.748C592.293 302.796 592.102 302.845 591.891 302.894C591.68 302.942 591.465 302.983 591.246 303.016C591.035 303.048 590.832 303.08 590.637 303.113C590.223 303.17 589.87 303.271 589.577 303.417C589.293 303.555 589.078 303.73 588.932 303.941C588.786 304.152 588.713 304.408 588.713 304.708C588.713 305.155 588.871 305.496 589.188 305.731C589.504 305.967 589.914 306.085 590.418 306.085ZM611.134 299.24L607.176 299.337C607.119 298.915 606.9 298.566 606.518 298.29C606.145 298.014 605.674 297.876 605.105 297.876C604.602 297.876 604.176 297.977 603.827 298.18C603.486 298.375 603.315 298.643 603.315 298.984C603.315 299.252 603.421 299.488 603.632 299.691C603.851 299.894 604.249 300.052 604.825 300.166L607.444 300.653C608.8 300.904 609.811 301.331 610.476 301.932C611.142 302.532 611.475 303.332 611.475 304.331C611.475 305.265 611.203 306.076 610.659 306.767C610.115 307.457 609.368 307.993 608.418 308.374C607.476 308.756 606.396 308.947 605.179 308.947C603.238 308.947 601.708 308.549 600.587 307.753C599.467 306.949 598.825 305.874 598.663 304.526L602.938 304.428C603.035 304.924 603.283 305.301 603.681 305.561C604.078 305.813 604.582 305.938 605.191 305.938C605.751 305.938 606.206 305.837 606.555 305.634C606.904 305.423 607.078 305.151 607.078 304.818C607.078 304.242 606.526 303.848 605.422 303.637L603.047 303.174C601.691 302.914 600.676 302.455 600.002 301.798C599.337 301.14 599.004 300.287 599.004 299.24C599.004 298.323 599.247 297.543 599.735 296.902C600.23 296.26 600.928 295.769 601.829 295.428C602.731 295.079 603.798 294.904 605.032 294.904C606.875 294.904 608.325 295.29 609.38 296.061C610.444 296.833 611.028 297.892 611.134 299.24ZM619.257 308.947C617.82 308.947 616.59 308.65 615.567 308.058C614.544 307.465 613.761 306.645 613.217 305.597C612.673 304.542 612.401 303.32 612.401 301.932C612.401 300.535 612.673 299.313 613.217 298.266C613.761 297.21 614.544 296.386 615.567 295.793C616.598 295.201 617.828 294.904 619.257 294.904C620.516 294.904 621.612 295.136 622.546 295.599C623.479 296.053 624.21 296.695 624.738 297.523C625.266 298.343 625.546 299.313 625.578 300.434H621.535C621.478 299.971 621.352 299.573 621.157 299.24C620.971 298.907 620.719 298.651 620.402 298.473C620.094 298.294 619.732 298.205 619.318 298.205C618.815 298.205 618.372 298.347 617.991 298.631C617.617 298.907 617.325 299.321 617.114 299.873C616.911 300.417 616.809 301.091 616.809 301.895C616.809 302.699 616.911 303.381 617.114 303.941C617.325 304.493 617.617 304.915 617.991 305.208C618.364 305.5 618.807 305.646 619.318 305.646C619.911 305.646 620.406 305.447 620.804 305.049C621.202 304.643 621.446 304.079 621.535 303.357H625.578C625.538 304.477 625.258 305.459 624.738 306.304C624.218 307.14 623.496 307.79 622.57 308.252C621.644 308.715 620.54 308.947 619.257 308.947ZM630.937 308.934C630.068 308.934 629.293 308.788 628.611 308.496C627.937 308.196 627.409 307.749 627.028 307.156C626.646 306.564 626.455 305.817 626.455 304.915C626.455 304.16 626.585 303.523 626.845 303.003C627.113 302.484 627.478 302.062 627.941 301.737C628.412 301.412 628.952 301.164 629.561 300.994C630.17 300.815 630.819 300.702 631.509 300.653C632.281 300.58 632.902 300.507 633.373 300.434C633.844 300.361 634.185 300.247 634.396 300.093C634.615 299.938 634.725 299.723 634.725 299.447V299.386C634.725 298.94 634.57 298.59 634.262 298.339C633.953 298.087 633.531 297.961 632.995 297.961C632.419 297.961 631.956 298.087 631.607 298.339C631.266 298.59 631.047 298.932 630.949 299.362L626.967 299.228C627.08 298.4 627.381 297.661 627.868 297.011C628.363 296.354 629.041 295.838 629.902 295.465C630.771 295.091 631.818 294.904 633.044 294.904C633.905 294.904 634.7 295.006 635.431 295.209C636.162 295.412 636.799 295.708 637.343 296.098C637.887 296.488 638.309 296.963 638.61 297.523C638.91 298.083 639.06 298.72 639.06 299.435V308.691H634.98V306.779H634.883C634.631 307.25 634.319 307.644 633.945 307.96C633.572 308.277 633.133 308.52 632.63 308.691C632.135 308.853 631.57 308.934 630.937 308.934ZM632.265 306.085C632.727 306.085 633.145 305.991 633.519 305.805C633.901 305.61 634.201 305.346 634.42 305.013C634.648 304.68 634.761 304.29 634.761 303.844V302.565C634.639 302.63 634.489 302.691 634.311 302.748C634.14 302.796 633.949 302.845 633.738 302.894C633.527 302.942 633.312 302.983 633.093 303.016C632.882 303.048 632.679 303.08 632.484 303.113C632.07 303.17 631.716 303.271 631.424 303.417C631.14 303.555 630.925 303.73 630.779 303.941C630.633 304.152 630.559 304.408 630.559 304.708C630.559 305.155 630.718 305.496 631.034 305.731C631.351 305.967 631.761 306.085 632.265 306.085ZM646.039 308.886C645.04 308.886 644.127 308.626 643.299 308.106C642.479 307.587 641.825 306.807 641.338 305.768C640.851 304.729 640.607 303.438 640.607 301.895C640.607 300.296 640.859 298.98 641.362 297.949C641.874 296.918 642.54 296.155 643.36 295.659C644.18 295.156 645.065 294.904 646.015 294.904C646.729 294.904 647.338 295.026 647.841 295.27C648.353 295.513 648.775 295.83 649.108 296.22C649.441 296.601 649.693 296.999 649.863 297.413H649.948V290.544H654.284V308.691H650.009V306.474H649.863C649.676 306.897 649.417 307.29 649.084 307.656C648.751 308.021 648.333 308.317 647.829 308.545C647.326 308.772 646.729 308.886 646.039 308.886ZM647.537 305.512C648.065 305.512 648.515 305.362 648.889 305.062C649.262 304.761 649.551 304.343 649.754 303.807C649.957 303.263 650.058 302.626 650.058 301.895C650.058 301.148 649.957 300.507 649.754 299.971C649.559 299.427 649.27 299.009 648.889 298.716C648.515 298.424 648.065 298.278 647.537 298.278C647.009 298.278 646.559 298.428 646.185 298.729C645.812 299.029 645.527 299.451 645.333 299.995C645.146 300.531 645.052 301.164 645.052 301.895C645.052 302.618 645.15 303.251 645.345 303.795C645.54 304.339 645.82 304.761 646.185 305.062C646.559 305.362 647.009 305.512 647.537 305.512ZM662.712 308.947C661.283 308.947 660.053 308.667 659.022 308.106C657.991 307.538 657.199 306.73 656.647 305.683C656.103 304.635 655.831 303.385 655.831 301.932C655.831 300.527 656.107 299.301 656.659 298.254C657.211 297.198 657.991 296.378 658.997 295.793C660.004 295.201 661.19 294.904 662.554 294.904C663.52 294.904 664.405 295.059 665.209 295.367C666.021 295.668 666.719 296.114 667.303 296.707C667.896 297.291 668.351 298.014 668.667 298.875C668.992 299.735 669.155 300.73 669.155 301.859V302.93H657.329V300.434H667.096L665.075 301.018C665.075 300.393 664.981 299.861 664.795 299.423C664.608 298.976 664.332 298.631 663.966 298.388C663.601 298.144 663.146 298.022 662.602 298.022C662.058 298.022 661.6 298.144 661.226 298.388C660.853 298.631 660.568 298.972 660.374 299.411C660.179 299.841 660.081 300.352 660.081 300.945V302.735C660.081 303.369 660.191 303.917 660.41 304.38C660.637 304.842 660.954 305.2 661.36 305.451C661.774 305.695 662.249 305.817 662.785 305.817C663.159 305.817 663.5 305.764 663.808 305.658C664.117 305.553 664.38 305.399 664.6 305.196C664.819 304.984 664.985 304.733 665.099 304.44L669.069 304.55C668.907 305.443 668.55 306.219 667.998 306.876C667.446 307.534 666.723 308.045 665.83 308.411C664.937 308.768 663.897 308.947 662.712 308.947ZM579.542 333.691V315.544H583.914V330.122H591.477V333.691H579.542ZM596.909 333.934C596.04 333.934 595.265 333.788 594.583 333.496C593.909 333.196 593.381 332.749 593 332.156C592.618 331.564 592.427 330.817 592.427 329.915C592.427 329.16 592.557 328.523 592.817 328.003C593.085 327.484 593.45 327.062 593.913 326.737C594.384 326.412 594.924 326.164 595.533 325.994C596.142 325.815 596.791 325.702 597.481 325.653C598.253 325.58 598.874 325.507 599.345 325.434C599.816 325.361 600.157 325.247 600.368 325.093C600.587 324.938 600.697 324.723 600.697 324.447V324.386C600.697 323.94 600.542 323.59 600.234 323.339C599.925 323.087 599.503 322.961 598.967 322.961C598.391 322.961 597.928 323.087 597.579 323.339C597.238 323.59 597.019 323.932 596.921 324.362L592.939 324.228C593.052 323.4 593.353 322.661 593.84 322.011C594.335 321.354 595.013 320.838 595.874 320.465C596.743 320.091 597.79 319.904 599.016 319.904C599.877 319.904 600.672 320.006 601.403 320.209C602.134 320.412 602.771 320.708 603.315 321.098C603.859 321.488 604.281 321.963 604.582 322.523C604.882 323.083 605.032 323.72 605.032 324.435V333.691H600.952V331.779H600.855C600.603 332.25 600.291 332.644 599.917 332.96C599.544 333.277 599.105 333.52 598.602 333.691C598.107 333.853 597.542 333.934 596.909 333.934ZM598.237 331.085C598.699 331.085 599.117 330.991 599.491 330.805C599.873 330.61 600.173 330.346 600.392 330.013C600.62 329.68 600.733 329.29 600.733 328.844V327.565C600.611 327.63 600.461 327.691 600.283 327.748C600.112 327.796 599.921 327.845 599.71 327.894C599.499 327.942 599.284 327.983 599.065 328.016C598.854 328.048 598.651 328.08 598.456 328.113C598.042 328.17 597.688 328.271 597.396 328.417C597.112 328.555 596.897 328.73 596.751 328.941C596.605 329.152 596.531 329.408 596.531 329.708C596.531 330.155 596.69 330.496 597.006 330.731C597.323 330.967 597.733 331.085 598.237 331.085ZM609.258 338.782C608.739 338.79 608.244 338.753 607.773 338.672C607.31 338.591 606.916 338.489 606.591 338.368L607.553 335.213L607.651 335.238C608.26 335.424 608.784 335.489 609.222 335.433C609.669 335.376 609.989 335.1 610.184 334.604L610.342 334.19L605.52 320.075H610.038L612.547 329.794H612.693L615.238 320.075H619.805L614.666 335.006C614.422 335.745 614.073 336.399 613.619 336.967C613.172 337.535 612.591 337.978 611.877 338.295C611.171 338.619 610.298 338.782 609.258 338.782ZM626.687 333.947C625.258 333.947 624.028 333.667 622.996 333.106C621.965 332.538 621.174 331.73 620.621 330.683C620.077 329.635 619.805 328.385 619.805 326.932C619.805 325.527 620.082 324.301 620.634 323.254C621.186 322.198 621.965 321.378 622.972 320.793C623.979 320.201 625.164 319.904 626.528 319.904C627.494 319.904 628.379 320.059 629.183 320.367C629.995 320.668 630.693 321.114 631.278 321.707C631.871 322.291 632.325 323.014 632.642 323.875C632.967 324.735 633.129 325.73 633.129 326.859V327.93H621.303V325.434H631.071L629.049 326.018C629.049 325.393 628.956 324.861 628.769 324.423C628.582 323.976 628.306 323.631 627.941 323.388C627.576 323.144 627.121 323.022 626.577 323.022C626.033 323.022 625.574 323.144 625.201 323.388C624.827 323.631 624.543 323.972 624.348 324.411C624.153 324.841 624.056 325.352 624.056 325.945V327.735C624.056 328.369 624.166 328.917 624.385 329.38C624.612 329.842 624.929 330.2 625.335 330.451C625.749 330.695 626.224 330.817 626.76 330.817C627.133 330.817 627.474 330.764 627.783 330.658C628.091 330.553 628.355 330.399 628.574 330.196C628.794 329.984 628.96 329.733 629.074 329.44L633.044 329.55C632.882 330.443 632.524 331.219 631.972 331.876C631.42 332.534 630.698 333.045 629.804 333.411C628.911 333.768 627.872 333.947 626.687 333.947ZM634.615 333.691V320.075H638.817V322.572H638.963C639.207 321.662 639.608 320.992 640.169 320.562C640.737 320.124 641.391 319.904 642.13 319.904C642.333 319.904 642.54 319.917 642.751 319.941C642.97 319.965 643.169 320.006 643.347 320.063V323.814C643.136 323.741 642.864 323.688 642.531 323.655C642.199 323.615 641.902 323.595 641.642 323.595C641.131 323.595 640.668 323.708 640.254 323.936C639.848 324.163 639.527 324.48 639.292 324.886C639.064 325.291 638.951 325.762 638.951 326.298V333.691H634.615ZM656.294 324.24L652.335 324.337C652.279 323.915 652.059 323.566 651.678 323.29C651.304 323.014 650.833 322.876 650.265 322.876C649.762 322.876 649.335 322.977 648.986 323.18C648.645 323.375 648.475 323.643 648.475 323.984C648.475 324.252 648.58 324.488 648.791 324.691C649.011 324.894 649.408 325.052 649.985 325.166L652.603 325.653C653.959 325.904 654.97 326.331 655.636 326.932C656.302 327.532 656.635 328.332 656.635 329.331C656.635 330.265 656.363 331.076 655.819 331.767C655.275 332.457 654.528 332.993 653.578 333.374C652.636 333.756 651.556 333.947 650.338 333.947C648.398 333.947 646.867 333.549 645.747 332.753C644.626 331.949 643.985 330.874 643.822 329.526L648.097 329.428C648.195 329.924 648.442 330.301 648.84 330.561C649.238 330.813 649.741 330.938 650.35 330.938C650.911 330.938 651.365 330.837 651.714 330.634C652.063 330.423 652.238 330.151 652.238 329.818C652.238 329.242 651.686 328.848 650.582 328.637L648.207 328.174C646.851 327.914 645.836 327.455 645.162 326.798C644.496 326.14 644.163 325.287 644.163 324.24C644.163 323.323 644.407 322.543 644.894 321.902C645.389 321.26 646.088 320.769 646.989 320.428C647.89 320.079 648.958 319.904 650.192 319.904C652.035 319.904 653.484 320.29 654.54 321.061C655.604 321.833 656.188 322.892 656.294 324.24Z" fill="white"/>
<rect x="671.826" y="295.276" width="178.755" height="153.119" fill="#DDDDDD"/>
<path d="M720.682 368.519C719.164 368.519 717.841 368.292 716.712 367.837C715.584 367.375 714.703 366.68 714.069 365.755C713.444 364.821 713.123 363.648 713.107 362.235H717.297C717.337 362.812 717.496 363.299 717.772 363.697C718.056 364.086 718.437 364.383 718.917 364.586C719.404 364.789 719.972 364.89 720.622 364.89C721.214 364.89 721.718 364.809 722.132 364.647C722.554 364.484 722.879 364.261 723.106 363.977C723.333 363.693 723.447 363.364 723.447 362.99C723.447 362.649 723.342 362.361 723.13 362.126C722.919 361.882 722.599 361.671 722.168 361.492C721.746 361.305 721.202 361.139 720.536 360.993L718.624 360.554C717.065 360.197 715.835 359.617 714.934 358.813C714.033 358.001 713.582 356.901 713.582 355.512C713.582 354.392 713.887 353.409 714.496 352.565C715.105 351.721 715.941 351.063 717.004 350.592C718.076 350.121 719.302 349.886 720.682 349.886C722.087 349.886 723.309 350.125 724.348 350.604C725.388 351.075 726.191 351.741 726.76 352.602C727.328 353.454 727.62 354.445 727.637 355.573H723.423C723.374 354.924 723.114 354.42 722.643 354.063C722.18 353.698 721.523 353.515 720.67 353.515C720.102 353.515 719.627 353.588 719.245 353.734C718.872 353.88 718.588 354.083 718.393 354.343C718.206 354.603 718.113 354.895 718.113 355.22C718.113 355.577 718.218 355.882 718.429 356.133C718.64 356.385 718.945 356.596 719.343 356.767C719.749 356.937 720.224 357.083 720.768 357.205L722.314 357.558C723.208 357.753 723.999 358.013 724.689 358.338C725.379 358.663 725.96 359.048 726.431 359.495C726.91 359.941 727.271 360.457 727.515 361.042C727.758 361.626 727.88 362.28 727.88 363.002C727.88 364.155 727.592 365.146 727.016 365.974C726.447 366.794 725.627 367.423 724.555 367.862C723.484 368.3 722.193 368.519 720.682 368.519ZM735.784 368.532C734.355 368.532 733.125 368.252 732.094 367.691C731.063 367.123 730.271 366.315 729.719 365.268C729.175 364.22 728.903 362.97 728.903 361.517C728.903 360.112 729.179 358.886 729.731 357.839C730.284 356.783 731.063 355.963 732.07 355.378C733.077 354.786 734.262 354.489 735.626 354.489C736.592 354.489 737.477 354.644 738.281 354.952C739.093 355.253 739.791 355.699 740.376 356.292C740.969 356.876 741.423 357.599 741.74 358.46C742.065 359.32 742.227 360.315 742.227 361.443V362.515H730.401V360.019H740.169L738.147 360.603C738.147 359.978 738.054 359.446 737.867 359.008C737.68 358.561 737.404 358.216 737.039 357.972C736.673 357.729 736.219 357.607 735.675 357.607C735.131 357.607 734.672 357.729 734.299 357.972C733.925 358.216 733.641 358.557 733.446 358.996C733.251 359.426 733.154 359.937 733.154 360.53V362.32C733.154 362.954 733.263 363.502 733.483 363.965C733.71 364.427 734.027 364.785 734.433 365.036C734.847 365.28 735.322 365.402 735.857 365.402C736.231 365.402 736.572 365.349 736.88 365.243C737.189 365.138 737.453 364.983 737.672 364.781C737.891 364.569 738.058 364.318 738.171 364.025L742.142 364.135C741.979 365.028 741.622 365.804 741.07 366.461C740.518 367.119 739.795 367.63 738.902 367.996C738.009 368.353 736.97 368.532 735.784 368.532ZM748.049 350.129V368.276H743.713V350.129H748.049ZM756.464 368.532C755.035 368.532 753.805 368.252 752.774 367.691C751.743 367.123 750.951 366.315 750.399 365.268C749.855 364.22 749.583 362.97 749.583 361.517C749.583 360.112 749.859 358.886 750.411 357.839C750.963 356.783 751.743 355.963 752.75 355.378C753.756 354.786 754.942 354.489 756.306 354.489C757.272 354.489 758.157 354.644 758.961 354.952C759.773 355.253 760.471 355.699 761.056 356.292C761.648 356.876 762.103 357.599 762.42 358.46C762.745 359.32 762.907 360.315 762.907 361.443V362.515H751.081V360.019H760.849L758.827 360.603C758.827 359.978 758.734 359.446 758.547 359.008C758.36 358.561 758.084 358.216 757.719 357.972C757.353 357.729 756.899 357.607 756.355 357.607C755.811 357.607 755.352 357.729 754.978 357.972C754.605 358.216 754.321 358.557 754.126 358.996C753.931 359.426 753.834 359.937 753.834 360.53V362.32C753.834 362.954 753.943 363.502 754.162 363.965C754.39 364.427 754.706 364.785 755.112 365.036C755.526 365.28 756.001 365.402 756.537 365.402C756.911 365.402 757.252 365.349 757.56 365.243C757.869 365.138 758.133 364.983 758.352 364.781C758.571 364.569 758.738 364.318 758.851 364.025L762.822 364.135C762.659 365.028 762.302 365.804 761.75 366.461C761.198 367.119 760.475 367.63 759.582 367.996C758.689 368.353 757.65 368.532 756.464 368.532ZM770.738 368.532C769.301 368.532 768.071 368.235 767.048 367.643C766.025 367.05 765.241 366.23 764.697 365.182C764.153 364.127 763.881 362.905 763.881 361.517C763.881 360.12 764.153 358.898 764.697 357.851C765.241 356.795 766.025 355.971 767.048 355.378C768.079 354.786 769.309 354.489 770.738 354.489C771.997 354.489 773.093 354.721 774.026 355.183C774.96 355.638 775.691 356.28 776.219 357.108C776.746 357.928 777.026 358.898 777.059 360.019H773.015C772.959 359.556 772.833 359.158 772.638 358.825C772.451 358.492 772.199 358.236 771.883 358.058C771.574 357.879 771.213 357.79 770.799 357.79C770.296 357.79 769.853 357.932 769.471 358.216C769.098 358.492 768.806 358.906 768.595 359.458C768.392 360.002 768.29 360.676 768.29 361.48C768.29 362.284 768.392 362.966 768.595 363.526C768.806 364.078 769.098 364.5 769.471 364.793C769.845 365.085 770.287 365.231 770.799 365.231C771.392 365.231 771.887 365.032 772.285 364.634C772.683 364.228 772.926 363.664 773.015 362.941H777.059C777.018 364.062 776.738 365.044 776.219 365.889C775.699 366.725 774.976 367.375 774.051 367.837C773.125 368.3 772.021 368.532 770.738 368.532ZM786.242 354.66V357.863H777.668V354.66H786.242ZM779.458 351.42H783.782V363.989C783.782 364.354 783.871 364.63 784.05 364.817C784.228 364.996 784.508 365.085 784.89 365.085C785.036 365.085 785.203 365.069 785.389 365.036C785.584 365.004 785.734 364.971 785.84 364.939L786.485 368.081C785.998 368.219 785.544 368.316 785.121 368.373C784.707 368.438 784.297 368.471 783.891 368.471C782.446 368.471 781.346 368.13 780.591 367.448C779.836 366.758 779.458 365.767 779.458 364.476V351.42ZM793.975 368.532C792.546 368.532 791.32 368.239 790.297 367.655C789.274 367.062 788.487 366.242 787.935 365.195C787.391 364.139 787.119 362.913 787.119 361.517C787.119 360.112 787.391 358.886 787.935 357.839C788.487 356.783 789.274 355.963 790.297 355.378C791.32 354.786 792.546 354.489 793.975 354.489C795.404 354.489 796.63 354.786 797.654 355.378C798.685 355.963 799.472 356.783 800.016 357.839C800.568 358.886 800.844 360.112 800.844 361.517C800.844 362.913 800.568 364.139 800.016 365.195C799.472 366.242 798.685 367.062 797.654 367.655C796.63 368.239 795.404 368.532 793.975 368.532ZM794 365.231C794.528 365.231 794.97 365.077 795.327 364.768C795.685 364.46 795.957 364.025 796.143 363.465C796.338 362.897 796.436 362.239 796.436 361.492C796.436 360.737 796.338 360.083 796.143 359.531C795.957 358.979 795.685 358.553 795.327 358.253C794.97 357.944 794.528 357.79 794 357.79C793.472 357.79 793.021 357.944 792.648 358.253C792.274 358.553 791.994 358.979 791.808 359.531C791.621 360.083 791.528 360.737 791.528 361.492C791.528 362.239 791.621 362.897 791.808 363.465C791.994 364.025 792.274 364.46 792.648 364.768C793.021 365.077 793.472 365.231 794 365.231ZM802.391 368.276V354.66H806.593V357.156H806.739C806.983 356.247 807.385 355.577 807.945 355.147C808.513 354.709 809.167 354.489 809.906 354.489C810.109 354.489 810.316 354.501 810.527 354.526C810.746 354.55 810.945 354.591 811.123 354.648V358.399C810.912 358.326 810.64 358.273 810.307 358.24C809.975 358.2 809.678 358.18 809.418 358.18C808.907 358.18 808.444 358.293 808.03 358.521C807.624 358.748 807.303 359.065 807.068 359.47C806.841 359.876 806.727 360.347 806.727 360.883V368.276H802.391ZM707.286 393.519C705.767 393.519 704.444 393.292 703.315 392.837C702.187 392.375 701.306 391.68 700.672 390.755C700.047 389.821 699.727 388.648 699.71 387.235H703.9C703.94 387.812 704.099 388.299 704.375 388.697C704.659 389.086 705.041 389.383 705.52 389.586C706.007 389.789 706.575 389.89 707.225 389.89C707.817 389.89 708.321 389.809 708.735 389.647C709.157 389.484 709.482 389.261 709.709 388.977C709.937 388.693 710.05 388.364 710.05 387.99C710.05 387.649 709.945 387.361 709.734 387.126C709.522 386.882 709.202 386.671 708.771 386.492C708.349 386.305 707.805 386.139 707.139 385.993L705.227 385.554C703.668 385.197 702.438 384.617 701.537 383.813C700.636 383.001 700.185 381.901 700.185 380.512C700.185 379.392 700.49 378.409 701.099 377.565C701.708 376.721 702.544 376.063 703.608 375.592C704.679 375.121 705.905 374.886 707.286 374.886C708.69 374.886 709.912 375.125 710.951 375.604C711.991 376.075 712.795 376.741 713.363 377.602C713.931 378.454 714.224 379.445 714.24 380.573H710.026C709.977 379.924 709.717 379.42 709.246 379.063C708.784 378.698 708.126 378.515 707.273 378.515C706.705 378.515 706.23 378.588 705.848 378.734C705.475 378.88 705.191 379.083 704.996 379.343C704.809 379.603 704.716 379.895 704.716 380.22C704.716 380.577 704.821 380.882 705.032 381.133C705.244 381.385 705.548 381.596 705.946 381.767C706.352 381.937 706.827 382.083 707.371 382.205L708.918 382.558C709.811 382.753 710.602 383.013 711.292 383.338C711.983 383.663 712.563 384.048 713.034 384.495C713.513 384.941 713.874 385.457 714.118 386.042C714.362 386.626 714.483 387.28 714.483 388.002C714.483 389.155 714.195 390.146 713.619 390.974C713.05 391.794 712.23 392.423 711.159 392.862C710.087 393.3 708.796 393.519 707.286 393.519ZM716.018 398.367V379.66H720.305V381.998H720.451C720.622 381.584 720.869 381.186 721.194 380.805C721.527 380.415 721.945 380.098 722.448 379.855C722.96 379.611 723.577 379.489 724.3 379.489C725.25 379.489 726.135 379.741 726.955 380.244C727.775 380.74 728.436 381.503 728.94 382.534C729.451 383.565 729.707 384.881 729.707 386.48C729.707 388.023 729.463 389.314 728.976 390.353C728.489 391.392 727.832 392.172 727.003 392.691C726.183 393.211 725.27 393.471 724.263 393.471C723.581 393.471 722.988 393.357 722.485 393.13C721.982 392.902 721.559 392.606 721.218 392.241C720.885 391.875 720.63 391.482 720.451 391.059H720.354V398.367H716.018ZM722.765 390.097C723.301 390.097 723.752 389.947 724.117 389.647C724.49 389.346 724.771 388.924 724.957 388.38C725.152 387.836 725.25 387.203 725.25 386.48C725.25 385.749 725.152 385.116 724.957 384.58C724.771 384.036 724.494 383.614 724.129 383.313C723.764 383.013 723.309 382.863 722.765 382.863C722.237 382.863 721.787 383.009 721.413 383.301C721.04 383.594 720.751 384.012 720.548 384.556C720.354 385.092 720.256 385.733 720.256 386.48C720.256 387.211 720.354 387.848 720.548 388.392C720.751 388.928 721.04 389.346 721.413 389.647C721.787 389.947 722.237 390.097 722.765 390.097ZM737.611 393.532C736.182 393.532 734.952 393.252 733.921 392.691C732.89 392.123 732.098 391.315 731.546 390.268C731.002 389.22 730.73 387.97 730.73 386.517C730.73 385.112 731.006 383.886 731.558 382.839C732.11 381.783 732.89 380.963 733.897 380.378C734.903 379.786 736.089 379.489 737.453 379.489C738.419 379.489 739.304 379.644 740.108 379.952C740.92 380.253 741.618 380.699 742.203 381.292C742.795 381.876 743.25 382.599 743.567 383.46C743.892 384.32 744.054 385.315 744.054 386.443V387.515H732.228V385.019H741.996L739.974 385.603C739.974 384.978 739.881 384.446 739.694 384.008C739.507 383.561 739.231 383.216 738.866 382.972C738.5 382.729 738.046 382.607 737.502 382.607C736.958 382.607 736.499 382.729 736.125 382.972C735.752 383.216 735.468 383.557 735.273 383.996C735.078 384.426 734.981 384.937 734.981 385.53V387.32C734.981 387.954 735.09 388.502 735.309 388.965C735.537 389.427 735.853 389.785 736.259 390.036C736.673 390.28 737.148 390.402 737.684 390.402C738.058 390.402 738.399 390.349 738.707 390.243C739.016 390.138 739.28 389.983 739.499 389.781C739.718 389.569 739.885 389.318 739.998 389.025L743.969 389.135C743.806 390.028 743.449 390.804 742.897 391.461C742.345 392.119 741.622 392.63 740.729 392.996C739.836 393.353 738.797 393.532 737.611 393.532ZM751.885 393.532C750.448 393.532 749.218 393.235 748.195 392.643C747.172 392.05 746.388 391.23 745.844 390.182C745.3 389.127 745.028 387.905 745.028 386.517C745.028 385.12 745.3 383.898 745.844 382.851C746.388 381.795 747.172 380.971 748.195 380.378C749.226 379.786 750.456 379.489 751.885 379.489C753.143 379.489 754.24 379.721 755.173 380.183C756.107 380.638 756.838 381.28 757.366 382.108C757.893 382.928 758.173 383.898 758.206 385.019H754.162C754.106 384.556 753.98 384.158 753.785 383.825C753.598 383.492 753.346 383.236 753.03 383.058C752.721 382.879 752.36 382.79 751.946 382.79C751.442 382.79 751 382.932 750.618 383.216C750.245 383.492 749.953 383.906 749.741 384.458C749.538 385.002 749.437 385.676 749.437 386.48C749.437 387.284 749.538 387.966 749.741 388.526C749.953 389.078 750.245 389.5 750.618 389.793C750.992 390.085 751.434 390.231 751.946 390.231C752.539 390.231 753.034 390.032 753.432 389.634C753.83 389.228 754.073 388.664 754.162 387.941H758.206C758.165 389.062 757.885 390.044 757.366 390.889C756.846 391.725 756.123 392.375 755.198 392.837C754.272 393.3 753.168 393.532 751.885 393.532ZM759.716 393.276V379.66H764.052V393.276H759.716ZM761.872 378.101C761.263 378.101 760.739 377.898 760.301 377.492C759.862 377.086 759.643 376.595 759.643 376.018C759.643 375.442 759.862 374.955 760.301 374.557C760.739 374.151 761.263 373.948 761.872 373.948C762.489 373.948 763.012 374.151 763.443 374.557C763.881 374.955 764.1 375.442 764.1 376.018C764.1 376.595 763.881 377.086 763.443 377.492C763.012 377.898 762.489 378.101 761.872 378.101ZM773.892 379.66V382.863H765.16V379.66H773.892ZM766.987 393.276V378.978C766.987 377.922 767.182 377.049 767.571 376.359C767.961 375.661 768.505 375.141 769.203 374.8C769.91 374.451 770.726 374.277 771.651 374.277C772.252 374.277 772.821 374.325 773.356 374.423C773.892 374.512 774.286 374.593 774.538 374.666L773.856 377.833C773.693 377.784 773.499 377.744 773.271 377.711C773.052 377.671 772.837 377.65 772.626 377.65C772.122 377.65 771.773 377.764 771.578 377.991C771.392 378.219 771.298 378.527 771.298 378.917V393.276H766.987ZM775.305 393.276V379.66H779.641V393.276H775.305ZM777.461 378.101C776.852 378.101 776.328 377.898 775.89 377.492C775.451 377.086 775.232 376.595 775.232 376.018C775.232 375.442 775.451 374.955 775.89 374.557C776.328 374.151 776.852 373.948 777.461 373.948C778.078 373.948 778.602 374.151 779.032 374.557C779.47 374.955 779.69 375.442 779.69 376.018C779.69 376.595 779.47 377.086 779.032 377.492C778.602 377.898 778.078 378.101 777.461 378.101ZM788.032 393.532C786.595 393.532 785.365 393.235 784.342 392.643C783.319 392.05 782.535 391.23 781.991 390.182C781.447 389.127 781.175 387.905 781.175 386.517C781.175 385.12 781.447 383.898 781.991 382.851C782.535 381.795 783.319 380.971 784.342 380.378C785.373 379.786 786.603 379.489 788.032 379.489C789.291 379.489 790.387 379.721 791.32 380.183C792.254 380.638 792.985 381.28 793.513 382.108C794.04 382.928 794.321 383.898 794.353 385.019H790.31C790.253 384.556 790.127 384.158 789.932 383.825C789.745 383.492 789.494 383.236 789.177 383.058C788.868 382.879 788.507 382.79 788.093 382.79C787.59 382.79 787.147 382.932 786.766 383.216C786.392 383.492 786.1 383.906 785.889 384.458C785.686 385.002 785.584 385.676 785.584 386.48C785.584 387.284 785.686 387.966 785.889 388.526C786.1 389.078 786.392 389.5 786.766 389.793C787.139 390.085 787.582 390.231 788.093 390.231C788.686 390.231 789.181 390.032 789.579 389.634C789.977 389.228 790.22 388.664 790.31 387.941H794.353C794.312 389.062 794.032 390.044 793.513 390.889C792.993 391.725 792.27 392.375 791.345 392.837C790.419 393.3 789.315 393.532 788.032 393.532ZM795.863 393.276V379.66H800.199V393.276H795.863ZM798.019 378.101C797.41 378.101 796.886 377.898 796.448 377.492C796.009 377.086 795.79 376.595 795.79 376.018C795.79 375.442 796.009 374.955 796.448 374.557C796.886 374.151 797.41 373.948 798.019 373.948C798.636 373.948 799.16 374.151 799.59 374.557C800.028 374.955 800.248 375.442 800.248 376.018C800.248 376.595 800.028 377.086 799.59 377.492C799.16 377.898 798.636 378.101 798.019 378.101ZM809.918 379.66V382.863H801.344V379.66H809.918ZM803.134 376.42H807.458V388.989C807.458 389.354 807.547 389.63 807.726 389.817C807.904 389.996 808.184 390.085 808.566 390.085C808.712 390.085 808.878 390.069 809.065 390.036C809.26 390.004 809.41 389.971 809.516 389.939L810.161 393.081C809.674 393.219 809.219 393.316 808.797 393.373C808.383 393.438 807.973 393.471 807.567 393.471C806.122 393.471 805.022 393.13 804.267 392.448C803.512 391.758 803.134 390.767 803.134 389.476V376.42ZM814.107 398.367C813.588 398.375 813.092 398.338 812.621 398.257C812.159 398.176 811.765 398.074 811.44 397.953L812.402 394.798L812.5 394.823C813.109 395.009 813.632 395.074 814.071 395.017C814.517 394.961 814.838 394.685 815.033 394.189L815.191 393.775L810.368 379.66H814.887L817.396 389.379H817.542L820.087 379.66H824.654L819.515 394.591C819.271 395.33 818.922 395.984 818.467 396.552C818.021 397.12 817.44 397.563 816.726 397.88C816.019 398.204 815.147 398.367 814.107 398.367Z" fill="black"/>
<rect x="815.245" y="354.861" width="178.755" height="153.119" fill="#AAAAAA"/>
<path d="M866.076 428.104C864.444 428.104 862.971 427.743 861.655 427.02C860.348 426.298 859.313 425.246 858.55 423.866C857.795 422.478 857.417 420.789 857.417 418.8C857.417 416.802 857.795 415.109 858.55 413.721C859.313 412.325 860.348 411.269 861.655 410.555C862.971 409.832 864.444 409.471 866.076 409.471C867.7 409.471 869.166 409.832 870.473 410.555C871.78 411.269 872.815 412.325 873.578 413.721C874.342 415.109 874.723 416.802 874.723 418.8C874.723 420.789 874.342 422.478 873.578 423.866C872.815 425.255 871.78 426.31 870.473 427.033C869.166 427.747 867.7 428.104 866.076 428.104ZM866.076 424.268C866.945 424.268 867.692 424.057 868.317 423.635C868.942 423.213 869.421 422.595 869.754 421.784C870.087 420.972 870.254 419.977 870.254 418.8C870.254 417.614 870.087 416.616 869.754 415.804C869.421 414.984 868.942 414.362 868.317 413.94C867.692 413.518 866.945 413.307 866.076 413.307C865.207 413.307 864.46 413.518 863.835 413.94C863.21 414.362 862.727 414.984 862.386 415.804C862.053 416.616 861.887 417.614 861.887 418.8C861.887 419.977 862.053 420.972 862.386 421.784C862.727 422.595 863.21 423.213 863.835 423.635C864.46 424.057 865.207 424.268 866.076 424.268ZM876.587 427.861V414.245H880.788V416.741H880.935C881.178 415.832 881.58 415.162 882.14 414.732C882.709 414.293 883.362 414.074 884.101 414.074C884.304 414.074 884.511 414.086 884.722 414.111C884.941 414.135 885.14 414.176 885.319 414.233V417.984C885.108 417.911 884.836 417.858 884.503 417.825C884.17 417.785 883.874 417.764 883.614 417.764C883.102 417.764 882.64 417.878 882.226 418.105C881.82 418.333 881.499 418.649 881.263 419.055C881.036 419.461 880.922 419.932 880.922 420.468V427.861H876.587ZM890.617 428.056C889.618 428.056 888.705 427.796 887.877 427.276C887.057 426.757 886.403 425.977 885.916 424.938C885.429 423.899 885.185 422.608 885.185 421.065C885.185 419.465 885.437 418.15 885.94 417.119C886.452 416.088 887.117 415.325 887.937 414.829C888.758 414.326 889.643 414.074 890.593 414.074C891.307 414.074 891.916 414.196 892.419 414.44C892.931 414.683 893.353 415 893.686 415.39C894.019 415.771 894.271 416.169 894.441 416.583H894.526V409.714H898.862V427.861H894.587V425.644H894.441C894.254 426.066 893.994 426.46 893.662 426.826C893.329 427.191 892.911 427.487 892.407 427.715C891.904 427.942 891.307 428.056 890.617 428.056ZM892.115 424.682C892.643 424.682 893.093 424.532 893.467 424.232C893.84 423.931 894.128 423.513 894.331 422.977C894.534 422.433 894.636 421.796 894.636 421.065C894.636 420.318 894.534 419.677 894.331 419.141C894.137 418.597 893.848 418.179 893.467 417.886C893.093 417.594 892.643 417.448 892.115 417.448C891.587 417.448 891.136 417.598 890.763 417.898C890.39 418.199 890.105 418.621 889.91 419.165C889.724 419.701 889.63 420.334 889.63 421.065C889.63 421.788 889.728 422.421 889.923 422.965C890.118 423.509 890.398 423.931 890.763 424.232C891.136 424.532 891.587 424.682 892.115 424.682ZM907.29 428.117C905.861 428.117 904.631 427.836 903.6 427.276C902.568 426.708 901.777 425.9 901.225 424.853C900.681 423.805 900.409 422.555 900.409 421.102C900.409 419.697 900.685 418.471 901.237 417.423C901.789 416.368 902.568 415.548 903.575 414.963C904.582 414.371 905.767 414.074 907.132 414.074C908.098 414.074 908.983 414.229 909.787 414.537C910.598 414.837 911.297 415.284 911.881 415.877C912.474 416.461 912.929 417.184 913.245 418.045C913.57 418.905 913.733 419.9 913.733 421.028V422.1H901.907V419.604H911.674L909.653 420.188C909.653 419.563 909.559 419.031 909.372 418.593C909.186 418.146 908.91 417.801 908.544 417.557C908.179 417.314 907.724 417.192 907.18 417.192C906.636 417.192 906.178 417.314 905.804 417.557C905.431 417.801 905.146 418.142 904.952 418.58C904.757 419.011 904.659 419.522 904.659 420.115V421.905C904.659 422.539 904.769 423.087 904.988 423.549C905.215 424.012 905.532 424.37 905.938 424.621C906.352 424.865 906.827 424.987 907.363 424.987C907.736 424.987 908.077 424.934 908.386 424.828C908.695 424.723 908.958 424.568 909.178 424.365C909.397 424.154 909.563 423.903 909.677 423.61L913.647 423.72C913.485 424.613 913.128 425.389 912.576 426.046C912.023 426.704 911.301 427.215 910.408 427.581C909.515 427.938 908.475 428.117 907.29 428.117ZM915.218 427.861V414.245H919.42V416.741H919.566C919.81 415.832 920.212 415.162 920.772 414.732C921.34 414.293 921.994 414.074 922.733 414.074C922.936 414.074 923.143 414.086 923.354 414.111C923.573 414.135 923.772 414.176 923.951 414.233V417.984C923.74 417.911 923.468 417.858 923.135 417.825C922.802 417.785 922.505 417.764 922.246 417.764C921.734 417.764 921.271 417.878 920.857 418.105C920.451 418.333 920.131 418.649 919.895 419.055C919.668 419.461 919.554 419.932 919.554 420.468V427.861H915.218ZM936.057 428.117C934.628 428.117 933.402 427.824 932.379 427.24C931.356 426.647 930.568 425.827 930.016 424.78C929.472 423.724 929.2 422.498 929.2 421.102C929.2 419.697 929.472 418.471 930.016 417.423C930.568 416.368 931.356 415.548 932.379 414.963C933.402 414.371 934.628 414.074 936.057 414.074C937.486 414.074 938.712 414.371 939.735 414.963C940.766 415.548 941.553 416.368 942.097 417.423C942.649 418.471 942.926 419.697 942.926 421.102C942.926 422.498 942.649 423.724 942.097 424.78C941.553 425.827 940.766 426.647 939.735 427.24C938.712 427.824 937.486 428.117 936.057 428.117ZM936.081 424.816C936.609 424.816 937.051 424.662 937.408 424.353C937.766 424.045 938.038 423.61 938.224 423.05C938.419 422.482 938.517 421.824 938.517 421.077C938.517 420.322 938.419 419.668 938.224 419.116C938.038 418.564 937.766 418.138 937.408 417.838C937.051 417.529 936.609 417.375 936.081 417.375C935.553 417.375 935.103 417.529 934.729 417.838C934.356 418.138 934.075 418.564 933.889 419.116C933.702 419.668 933.609 420.322 933.609 421.077C933.609 421.824 933.702 422.482 933.889 423.05C934.075 423.61 934.356 424.045 934.729 424.353C935.103 424.662 935.553 424.816 936.081 424.816ZM952.267 414.245V417.448H943.534V414.245H952.267ZM945.361 427.861V413.563C945.361 412.507 945.556 411.634 945.946 410.944C946.336 410.246 946.88 409.726 947.578 409.385C948.284 409.036 949.1 408.862 950.026 408.862C950.627 408.862 951.195 408.91 951.731 409.008C952.267 409.097 952.661 409.178 952.912 409.251L952.23 412.418C952.068 412.369 951.873 412.329 951.646 412.296C951.426 412.256 951.211 412.235 951 412.235C950.497 412.235 950.148 412.349 949.953 412.576C949.766 412.804 949.673 413.112 949.673 413.502V427.861H945.361ZM837.407 452.861H832.694L838.832 434.714H844.653L850.779 452.861H846.078L841.816 439.281H841.67L837.407 452.861ZM836.798 445.712H846.651V449.049H836.798V445.712ZM852.034 457.952V439.245H856.321V441.583H856.467C856.638 441.169 856.885 440.771 857.21 440.39C857.543 440 857.961 439.683 858.464 439.44C858.976 439.196 859.593 439.074 860.316 439.074C861.266 439.074 862.151 439.326 862.971 439.829C863.791 440.325 864.452 441.088 864.956 442.119C865.467 443.15 865.723 444.465 865.723 446.065C865.723 447.608 865.479 448.899 864.992 449.938C864.505 450.977 863.847 451.757 863.019 452.276C862.199 452.796 861.286 453.056 860.279 453.056C859.597 453.056 859.004 452.942 858.501 452.715C857.998 452.487 857.575 452.191 857.234 451.826C856.901 451.46 856.646 451.066 856.467 450.644H856.37V457.952H852.034ZM858.781 449.682C859.317 449.682 859.768 449.532 860.133 449.232C860.506 448.931 860.787 448.509 860.973 447.965C861.168 447.421 861.266 446.788 861.266 446.065C861.266 445.334 861.168 444.701 860.973 444.165C860.787 443.621 860.51 443.199 860.145 442.898C859.78 442.598 859.325 442.448 858.781 442.448C858.253 442.448 857.803 442.594 857.429 442.886C857.056 443.179 856.767 443.597 856.564 444.141C856.37 444.677 856.272 445.318 856.272 446.065C856.272 446.796 856.37 447.433 856.564 447.977C856.767 448.513 857.056 448.931 857.429 449.232C857.803 449.532 858.253 449.682 858.781 449.682ZM867.258 457.952V439.245H871.545V441.583H871.691C871.861 441.169 872.109 440.771 872.434 440.39C872.767 440 873.185 439.683 873.688 439.44C874.2 439.196 874.817 439.074 875.539 439.074C876.489 439.074 877.374 439.326 878.194 439.829C879.014 440.325 879.676 441.088 880.179 442.119C880.691 443.15 880.947 444.465 880.947 446.065C880.947 447.608 880.703 448.899 880.216 449.938C879.729 450.977 879.071 451.757 878.243 452.276C877.423 452.796 876.51 453.056 875.503 453.056C874.821 453.056 874.228 452.942 873.725 452.715C873.221 452.487 872.799 452.191 872.458 451.826C872.125 451.46 871.869 451.066 871.691 450.644H871.593V457.952H867.258ZM874.005 449.682C874.541 449.682 874.991 449.532 875.357 449.232C875.73 448.931 876.01 448.509 876.197 447.965C876.392 447.421 876.489 446.788 876.489 446.065C876.489 445.334 876.392 444.701 876.197 444.165C876.01 443.621 875.734 443.199 875.369 442.898C875.003 442.598 874.549 442.448 874.005 442.448C873.477 442.448 873.026 442.594 872.653 442.886C872.279 443.179 871.991 443.597 871.788 444.141C871.593 444.677 871.496 445.318 871.496 446.065C871.496 446.796 871.593 447.433 871.788 447.977C871.991 448.513 872.279 448.931 872.653 449.232C873.026 449.532 873.477 449.682 874.005 449.682ZM888.851 453.117C887.422 453.117 886.192 452.836 885.161 452.276C884.13 451.708 883.338 450.9 882.786 449.853C882.242 448.805 881.97 447.555 881.97 446.102C881.97 444.697 882.246 443.471 882.798 442.423C883.35 441.368 884.13 440.548 885.136 439.963C886.143 439.371 887.329 439.074 888.693 439.074C889.659 439.074 890.544 439.229 891.348 439.537C892.16 439.837 892.858 440.284 893.442 440.877C894.035 441.461 894.49 442.184 894.806 443.045C895.131 443.905 895.294 444.9 895.294 446.028V447.1H883.468V444.604H893.235L891.214 445.188C891.214 444.563 891.12 444.031 890.934 443.593C890.747 443.146 890.471 442.801 890.105 442.557C889.74 442.314 889.285 442.192 888.741 442.192C888.197 442.192 887.739 442.314 887.365 442.557C886.992 442.801 886.707 443.142 886.513 443.58C886.318 444.011 886.22 444.522 886.22 445.115V446.905C886.22 447.539 886.33 448.087 886.549 448.549C886.776 449.012 887.093 449.37 887.499 449.621C887.913 449.865 888.388 449.987 888.924 449.987C889.297 449.987 889.638 449.934 889.947 449.828C890.256 449.723 890.519 449.568 890.739 449.365C890.958 449.154 891.124 448.903 891.238 448.61L895.208 448.72C895.046 449.613 894.689 450.389 894.137 451.046C893.584 451.704 892.862 452.215 891.969 452.581C891.076 452.938 890.036 453.117 888.851 453.117ZM900.628 453.104C899.759 453.104 898.984 452.958 898.302 452.666C897.628 452.366 897.1 451.919 896.719 451.326C896.337 450.734 896.146 449.987 896.146 449.085C896.146 448.33 896.276 447.693 896.536 447.173C896.804 446.654 897.169 446.231 897.632 445.907C898.103 445.582 898.643 445.334 899.252 445.164C899.861 444.985 900.51 444.871 901.2 444.823C901.972 444.75 902.593 444.677 903.064 444.604C903.535 444.53 903.876 444.417 904.087 444.262C904.306 444.108 904.416 443.893 904.416 443.617V443.556C904.416 443.11 904.261 442.76 903.953 442.509C903.644 442.257 903.222 442.131 902.686 442.131C902.11 442.131 901.647 442.257 901.298 442.509C900.957 442.76 900.738 443.101 900.64 443.532L896.658 443.398C896.771 442.57 897.072 441.831 897.559 441.181C898.054 440.524 898.732 440.008 899.593 439.634C900.462 439.261 901.509 439.074 902.735 439.074C903.596 439.074 904.391 439.176 905.122 439.379C905.853 439.582 906.49 439.878 907.034 440.268C907.578 440.658 908 441.132 908.301 441.693C908.601 442.253 908.751 442.89 908.751 443.605V452.861H904.671V450.949H904.574C904.322 451.42 904.01 451.813 903.636 452.13C903.263 452.447 902.824 452.69 902.321 452.861C901.826 453.023 901.261 453.104 900.628 453.104ZM901.955 450.255C902.418 450.255 902.836 450.161 903.21 449.974C903.592 449.78 903.892 449.516 904.111 449.183C904.338 448.85 904.452 448.46 904.452 448.014V446.735C904.33 446.8 904.18 446.861 904.002 446.918C903.831 446.966 903.64 447.015 903.429 447.064C903.218 447.112 903.003 447.153 902.784 447.185C902.573 447.218 902.37 447.25 902.175 447.283C901.761 447.34 901.407 447.441 901.115 447.587C900.831 447.725 900.616 447.9 900.47 448.111C900.323 448.322 900.25 448.578 900.25 448.878C900.25 449.325 900.409 449.666 900.725 449.901C901.042 450.137 901.452 450.255 901.955 450.255ZM910.81 452.861V439.245H915.011V441.741H915.157C915.401 440.832 915.803 440.162 916.363 439.732C916.932 439.293 917.585 439.074 918.324 439.074C918.527 439.074 918.734 439.086 918.945 439.111C919.164 439.135 919.363 439.176 919.542 439.233V442.984C919.331 442.911 919.059 442.858 918.726 442.825C918.393 442.785 918.097 442.764 917.837 442.764C917.325 442.764 916.863 442.878 916.448 443.105C916.042 443.333 915.722 443.649 915.486 444.055C915.259 444.461 915.145 444.932 915.145 445.468V452.861H910.81ZM923.963 453.104C923.094 453.104 922.319 452.958 921.637 452.666C920.963 452.366 920.435 451.919 920.053 451.326C919.672 450.734 919.481 449.987 919.481 449.085C919.481 448.33 919.611 447.693 919.871 447.173C920.139 446.654 920.504 446.231 920.967 445.907C921.438 445.582 921.978 445.334 922.587 445.164C923.196 444.985 923.845 444.871 924.535 444.823C925.307 444.75 925.928 444.677 926.399 444.604C926.87 444.53 927.211 444.417 927.422 444.262C927.641 444.108 927.751 443.893 927.751 443.617V443.556C927.751 443.11 927.596 442.76 927.288 442.509C926.979 442.257 926.557 442.131 926.021 442.131C925.445 442.131 924.982 442.257 924.633 442.509C924.292 442.76 924.072 443.101 923.975 443.532L919.993 443.398C920.106 442.57 920.407 441.831 920.894 441.181C921.389 440.524 922.067 440.008 922.928 439.634C923.796 439.261 924.844 439.074 926.07 439.074C926.93 439.074 927.726 439.176 928.457 439.379C929.188 439.582 929.825 439.878 930.369 440.268C930.913 440.658 931.335 441.132 931.636 441.693C931.936 442.253 932.086 442.89 932.086 443.605V452.861H928.006V450.949H927.909C927.657 451.42 927.345 451.813 926.971 452.13C926.598 452.447 926.159 452.69 925.656 452.861C925.16 453.023 924.596 453.104 923.963 453.104ZM925.29 450.255C925.753 450.255 926.171 450.161 926.545 449.974C926.926 449.78 927.227 449.516 927.446 449.183C927.673 448.85 927.787 448.46 927.787 448.014V446.735C927.665 446.8 927.515 446.861 927.336 446.918C927.166 446.966 926.975 447.015 926.764 447.064C926.553 447.112 926.338 447.153 926.119 447.185C925.907 447.218 925.704 447.25 925.51 447.283C925.096 447.34 924.742 447.441 924.45 447.587C924.166 447.725 923.951 447.9 923.805 448.111C923.658 448.322 923.585 448.578 923.585 448.878C923.585 449.325 923.744 449.666 924.06 449.901C924.377 450.137 924.787 450.255 925.29 450.255ZM938.48 445.103V452.861H934.144V439.245H938.431V441.754H938.541C938.85 440.925 939.341 440.272 940.015 439.793C940.697 439.314 941.541 439.074 942.548 439.074C943.506 439.074 944.338 439.289 945.045 439.72C945.751 440.142 946.299 440.739 946.689 441.51C947.079 442.273 947.273 443.166 947.273 444.189V452.861H942.938V445.042C942.938 444.287 942.747 443.698 942.365 443.276C941.984 442.846 941.448 442.631 940.758 442.631C940.303 442.631 939.905 442.728 939.564 442.923C939.223 443.118 938.955 443.402 938.76 443.775C938.574 444.141 938.48 444.583 938.48 445.103ZM955.665 453.117C954.228 453.117 952.998 452.82 951.974 452.228C950.951 451.635 950.168 450.815 949.624 449.767C949.08 448.712 948.808 447.49 948.808 446.102C948.808 444.705 949.08 443.483 949.624 442.436C950.168 441.38 950.951 440.556 951.974 439.963C953.006 439.371 954.236 439.074 955.665 439.074C956.923 439.074 958.019 439.306 958.953 439.768C959.887 440.223 960.618 440.865 961.145 441.693C961.673 442.513 961.953 443.483 961.986 444.604H957.942C957.885 444.141 957.76 443.743 957.565 443.41C957.378 443.077 957.126 442.821 956.81 442.643C956.501 442.464 956.14 442.375 955.726 442.375C955.222 442.375 954.78 442.517 954.398 442.801C954.025 443.077 953.732 443.491 953.521 444.043C953.318 444.587 953.217 445.261 953.217 446.065C953.217 446.869 953.318 447.551 953.521 448.111C953.732 448.663 954.025 449.085 954.398 449.378C954.772 449.67 955.214 449.816 955.726 449.816C956.318 449.816 956.814 449.617 957.211 449.219C957.609 448.813 957.853 448.249 957.942 447.526H961.986C961.945 448.647 961.665 449.629 961.145 450.474C960.626 451.31 959.903 451.96 958.977 452.422C958.052 452.885 956.948 453.117 955.665 453.117ZM969.865 453.117C968.436 453.117 967.206 452.836 966.175 452.276C965.144 451.708 964.352 450.9 963.8 449.853C963.256 448.805 962.984 447.555 962.984 446.102C962.984 444.697 963.26 443.471 963.812 442.423C964.365 441.368 965.144 440.548 966.151 439.963C967.158 439.371 968.343 439.074 969.707 439.074C970.673 439.074 971.558 439.229 972.362 439.537C973.174 439.837 973.872 440.284 974.457 440.877C975.05 441.461 975.504 442.184 975.821 443.045C976.146 443.905 976.308 444.9 976.308 446.028V447.1H964.482V444.604H974.25L972.228 445.188C972.228 444.563 972.135 444.031 971.948 443.593C971.761 443.146 971.485 442.801 971.12 442.557C970.754 442.314 970.3 442.192 969.756 442.192C969.212 442.192 968.753 442.314 968.38 442.557C968.006 442.801 967.722 443.142 967.527 443.58C967.332 444.011 967.235 444.522 967.235 445.115V446.905C967.235 447.539 967.344 448.087 967.564 448.549C967.791 449.012 968.108 449.37 968.514 449.621C968.928 449.865 969.403 449.987 969.938 449.987C970.312 449.987 970.653 449.934 970.961 449.828C971.27 449.723 971.534 449.568 971.753 449.365C971.972 449.154 972.139 448.903 972.252 448.61L976.223 448.72C976.06 449.613 975.703 450.389 975.151 451.046C974.599 451.704 973.876 452.215 972.983 452.581C972.09 452.938 971.051 453.117 969.865 453.117Z" fill="black"/>
</g>
<rect x="237.419" y="116.585" width="178.755" height="153.119" fill="#0065FF"/>
<path d="M243.809 189.585V171.438H256.463V175.007H248.182V178.673H255.806V182.156H248.182V186.017H256.451V189.585H243.809ZM262.833 181.827V189.585H258.497V175.969H262.784V178.478H262.894C263.202 177.65 263.694 176.996 264.367 176.517C265.05 176.038 265.894 175.798 266.901 175.798C267.859 175.798 268.691 176.014 269.397 176.444C270.104 176.866 270.652 177.463 271.042 178.234C271.431 178.997 271.626 179.891 271.626 180.914V189.585H267.29V181.766C267.29 181.011 267.1 180.422 266.718 180C266.336 179.57 265.801 179.355 265.11 179.355C264.656 179.355 264.258 179.452 263.917 179.647C263.576 179.842 263.308 180.126 263.113 180.499C262.926 180.865 262.833 181.307 262.833 181.827ZM280.017 189.841C278.58 189.841 277.35 189.544 276.327 188.952C275.304 188.359 274.521 187.539 273.977 186.492C273.433 185.436 273.161 184.214 273.161 182.826C273.161 181.429 273.433 180.207 273.977 179.16C274.521 178.104 275.304 177.28 276.327 176.687C277.358 176.095 278.588 175.798 280.017 175.798C281.276 175.798 282.372 176.03 283.306 176.493C284.239 176.947 284.97 177.589 285.498 178.417C286.026 179.237 286.306 180.207 286.338 181.328H282.295C282.238 180.865 282.112 180.467 281.917 180.134C281.731 179.801 281.479 179.545 281.162 179.367C280.854 179.188 280.492 179.099 280.078 179.099C279.575 179.099 279.132 179.241 278.751 179.525C278.377 179.801 278.085 180.215 277.874 180.767C277.671 181.311 277.569 181.985 277.569 182.789C277.569 183.593 277.671 184.275 277.874 184.835C278.085 185.387 278.377 185.809 278.751 186.102C279.124 186.394 279.567 186.54 280.078 186.54C280.671 186.54 281.166 186.341 281.564 185.943C281.962 185.537 282.206 184.973 282.295 184.251H286.338C286.298 185.371 286.018 186.353 285.498 187.198C284.978 188.034 284.256 188.684 283.33 189.147C282.405 189.609 281.3 189.841 280.017 189.841ZM291.697 189.829C290.828 189.829 290.053 189.682 289.371 189.39C288.697 189.09 288.169 188.643 287.788 188.05C287.406 187.458 287.215 186.711 287.215 185.809C287.215 185.054 287.345 184.417 287.605 183.897C287.873 183.378 288.238 182.956 288.701 182.631C289.172 182.306 289.712 182.058 290.321 181.888C290.93 181.709 291.579 181.596 292.269 181.547C293.041 181.474 293.662 181.401 294.133 181.328C294.604 181.255 294.945 181.141 295.156 180.987C295.375 180.832 295.485 180.617 295.485 180.341V180.28C295.485 179.834 295.33 179.485 295.022 179.233C294.713 178.981 294.291 178.855 293.755 178.855C293.179 178.855 292.716 178.981 292.367 179.233C292.026 179.485 291.807 179.826 291.709 180.256L287.727 180.122C287.84 179.294 288.141 178.555 288.628 177.905C289.123 177.248 289.801 176.732 290.662 176.359C291.531 175.985 292.578 175.798 293.804 175.798C294.665 175.798 295.46 175.9 296.191 176.103C296.922 176.306 297.559 176.602 298.103 176.992C298.647 177.382 299.069 177.857 299.37 178.417C299.67 178.977 299.82 179.614 299.82 180.329V189.585H295.74V187.673H295.643C295.391 188.144 295.079 188.538 294.705 188.854C294.332 189.171 293.893 189.414 293.39 189.585C292.895 189.747 292.33 189.829 291.697 189.829ZM293.025 186.979C293.487 186.979 293.906 186.885 294.279 186.699C294.661 186.504 294.961 186.24 295.18 185.907C295.408 185.574 295.521 185.184 295.521 184.738V183.459C295.399 183.524 295.249 183.585 295.071 183.642C294.9 183.69 294.709 183.739 294.498 183.788C294.287 183.836 294.072 183.877 293.853 183.91C293.642 183.942 293.439 183.975 293.244 184.007C292.83 184.064 292.477 184.165 292.184 184.311C291.9 184.449 291.685 184.624 291.539 184.835C291.393 185.046 291.32 185.302 291.32 185.602C291.32 186.049 291.478 186.39 291.795 186.625C292.111 186.861 292.521 186.979 293.025 186.979ZM301.879 194.676V175.969H306.166V178.307H306.312C306.482 177.893 306.73 177.495 307.055 177.114C307.388 176.724 307.806 176.407 308.309 176.164C308.821 175.92 309.438 175.798 310.16 175.798C311.11 175.798 311.995 176.05 312.815 176.553C313.635 177.049 314.297 177.812 314.801 178.843C315.312 179.874 315.568 181.19 315.568 182.789C315.568 184.332 315.324 185.623 314.837 186.662C314.35 187.701 313.692 188.481 312.864 189C312.044 189.52 311.131 189.78 310.124 189.78C309.442 189.78 308.849 189.666 308.346 189.439C307.842 189.211 307.42 188.915 307.079 188.55C306.746 188.184 306.49 187.791 306.312 187.368H306.214V194.676H301.879ZM308.626 186.406C309.162 186.406 309.612 186.256 309.978 185.956C310.351 185.655 310.631 185.233 310.818 184.689C311.013 184.145 311.11 183.512 311.11 182.789C311.11 182.058 311.013 181.425 310.818 180.889C310.631 180.345 310.355 179.923 309.99 179.623C309.625 179.322 309.17 179.172 308.626 179.172C308.098 179.172 307.647 179.318 307.274 179.61C306.9 179.903 306.612 180.321 306.409 180.865C306.214 181.401 306.117 182.042 306.117 182.789C306.117 183.52 306.214 184.157 306.409 184.701C306.612 185.237 306.9 185.655 307.274 185.956C307.647 186.256 308.098 186.406 308.626 186.406ZM328.965 180.134L325.007 180.232C324.95 179.809 324.73 179.46 324.349 179.184C323.975 178.908 323.504 178.77 322.936 178.77C322.433 178.77 322.006 178.872 321.657 179.075C321.316 179.269 321.146 179.537 321.146 179.878C321.146 180.146 321.251 180.382 321.462 180.585C321.682 180.788 322.08 180.946 322.656 181.06L325.274 181.547C326.63 181.799 327.641 182.225 328.307 182.826C328.973 183.426 329.306 184.226 329.306 185.225C329.306 186.159 329.034 186.971 328.49 187.661C327.946 188.351 327.199 188.887 326.249 189.268C325.307 189.65 324.227 189.841 323.009 189.841C321.069 189.841 319.538 189.443 318.418 188.647C317.297 187.843 316.656 186.768 316.493 185.42L320.768 185.322C320.866 185.818 321.113 186.195 321.511 186.455C321.909 186.707 322.412 186.833 323.021 186.833C323.582 186.833 324.036 186.731 324.385 186.528C324.735 186.317 324.909 186.045 324.909 185.712C324.909 185.136 324.357 184.742 323.253 184.531L320.878 184.068C319.522 183.808 318.507 183.349 317.833 182.692C317.167 182.034 316.834 181.181 316.834 180.134C316.834 179.217 317.078 178.437 317.565 177.796C318.06 177.154 318.759 176.663 319.66 176.322C320.561 175.973 321.629 175.798 322.863 175.798C324.706 175.798 326.155 176.184 327.211 176.955C328.275 177.727 328.859 178.786 328.965 180.134ZM339.512 183.715V175.969H343.847V189.585H339.707V187.052H339.56C339.268 187.88 338.761 188.542 338.038 189.037C337.315 189.524 336.443 189.764 335.42 189.755C334.494 189.755 333.678 189.544 332.972 189.122C332.273 188.7 331.725 188.107 331.327 187.344C330.938 186.573 330.743 185.676 330.743 184.652V175.969H335.079V183.812C335.079 184.543 335.269 185.123 335.651 185.554C336.041 185.976 336.568 186.183 337.234 186.175C337.665 186.175 338.05 186.081 338.391 185.895C338.732 185.7 339.004 185.42 339.207 185.054C339.41 184.689 339.512 184.242 339.512 183.715ZM350.229 171.438V189.585H345.893V171.438H350.229ZM356.124 189.829C355.255 189.829 354.48 189.682 353.798 189.39C353.124 189.09 352.596 188.643 352.214 188.05C351.833 187.458 351.642 186.711 351.642 185.809C351.642 185.054 351.772 184.417 352.032 183.897C352.3 183.378 352.665 182.956 353.128 182.631C353.599 182.306 354.139 182.058 354.748 181.888C355.357 181.709 356.006 181.596 356.696 181.547C357.468 181.474 358.089 181.401 358.56 181.328C359.031 181.255 359.372 181.141 359.583 180.987C359.802 180.832 359.911 180.617 359.911 180.341V180.28C359.911 179.834 359.757 179.485 359.449 179.233C359.14 178.981 358.718 178.855 358.182 178.855C357.606 178.855 357.143 178.981 356.794 179.233C356.453 179.485 356.233 179.826 356.136 180.256L352.153 180.122C352.267 179.294 352.568 178.555 353.055 177.905C353.55 177.248 354.228 176.732 355.089 176.359C355.957 175.985 357.005 175.798 358.231 175.798C359.091 175.798 359.887 175.9 360.618 176.103C361.349 176.306 361.986 176.602 362.53 176.992C363.074 177.382 363.496 177.857 363.797 178.417C364.097 178.977 364.247 179.614 364.247 180.329V189.585H360.167V187.673H360.07C359.818 188.144 359.506 188.538 359.132 188.854C358.759 189.171 358.32 189.414 357.817 189.585C357.321 189.747 356.757 189.829 356.124 189.829ZM357.451 186.979C357.914 186.979 358.332 186.885 358.706 186.699C359.087 186.504 359.388 186.24 359.607 185.907C359.834 185.574 359.948 185.184 359.948 184.738V183.459C359.826 183.524 359.676 183.585 359.497 183.642C359.327 183.69 359.136 183.739 358.925 183.788C358.714 183.836 358.499 183.877 358.279 183.91C358.068 183.942 357.865 183.975 357.671 184.007C357.256 184.064 356.903 184.165 356.611 184.311C356.327 184.449 356.112 184.624 355.965 184.835C355.819 185.046 355.746 185.302 355.746 185.602C355.746 186.049 355.905 186.39 356.221 186.625C356.538 186.861 356.948 186.979 357.451 186.979ZM373.978 175.969V179.172H365.404V175.969H373.978ZM367.194 172.729H371.518V185.298C371.518 185.663 371.607 185.939 371.786 186.126C371.965 186.305 372.245 186.394 372.626 186.394C372.772 186.394 372.939 186.378 373.126 186.345C373.321 186.313 373.471 186.28 373.576 186.248L374.222 189.39C373.735 189.528 373.28 189.626 372.858 189.682C372.444 189.747 372.034 189.78 371.628 189.78C370.182 189.78 369.082 189.439 368.327 188.757C367.572 188.067 367.194 187.076 367.194 185.785V172.729ZM375.513 189.585V175.969H379.848V189.585H375.513ZM377.668 174.41C377.059 174.41 376.536 174.207 376.097 173.801C375.659 173.395 375.44 172.904 375.44 172.327C375.44 171.751 375.659 171.264 376.097 170.866C376.536 170.46 377.059 170.257 377.668 170.257C378.285 170.257 378.809 170.46 379.239 170.866C379.678 171.264 379.897 171.751 379.897 172.327C379.897 172.904 379.678 173.395 379.239 173.801C378.809 174.207 378.285 174.41 377.668 174.41ZM388.24 189.841C386.811 189.841 385.585 189.548 384.562 188.964C383.539 188.371 382.751 187.551 382.199 186.504C381.655 185.448 381.383 184.222 381.383 182.826C381.383 181.421 381.655 180.195 382.199 179.148C382.751 178.092 383.539 177.272 384.562 176.687C385.585 176.095 386.811 175.798 388.24 175.798C389.669 175.798 390.895 176.095 391.918 176.687C392.949 177.272 393.737 178.092 394.281 179.148C394.833 180.195 395.109 181.421 395.109 182.826C395.109 184.222 394.833 185.448 394.281 186.504C393.737 187.551 392.949 188.371 391.918 188.964C390.895 189.548 389.669 189.841 388.24 189.841ZM388.264 186.54C388.792 186.54 389.234 186.386 389.592 186.077C389.949 185.769 390.221 185.335 390.408 184.774C390.602 184.206 390.7 183.548 390.7 182.801C390.7 182.046 390.602 181.393 390.408 180.84C390.221 180.288 389.949 179.862 389.592 179.562C389.234 179.253 388.792 179.099 388.264 179.099C387.736 179.099 387.286 179.253 386.912 179.562C386.539 179.862 386.259 180.288 386.072 180.84C385.885 181.393 385.792 182.046 385.792 182.801C385.792 183.548 385.885 184.206 386.072 184.774C386.259 185.335 386.539 185.769 386.912 186.077C387.286 186.386 387.736 186.54 388.264 186.54ZM400.991 181.827V189.585H396.655V175.969H400.942V178.478H401.052C401.361 177.65 401.852 176.996 402.526 176.517C403.208 176.038 404.052 175.798 405.059 175.798C406.017 175.798 406.849 176.014 407.556 176.444C408.262 176.866 408.81 177.463 409.2 178.234C409.589 178.997 409.784 179.891 409.784 180.914V189.585H405.449V181.766C405.449 181.011 405.258 180.422 404.876 180C404.495 179.57 403.959 179.355 403.269 179.355C402.814 179.355 402.416 179.452 402.075 179.647C401.734 179.842 401.466 180.126 401.271 180.499C401.085 180.865 400.991 181.307 400.991 181.827ZM289.115 214.829C287.475 214.829 286.005 214.467 284.706 213.745C283.415 213.022 282.392 211.971 281.637 210.59C280.89 209.202 280.517 207.513 280.517 205.524C280.517 203.526 280.894 201.834 281.649 200.445C282.413 199.049 283.444 197.993 284.743 197.279C286.05 196.556 287.508 196.195 289.115 196.195C290.211 196.195 291.226 196.349 292.16 196.658C293.094 196.958 293.914 197.4 294.62 197.985C295.335 198.57 295.911 199.284 296.349 200.129C296.788 200.973 297.064 201.939 297.178 203.027H292.744C292.688 202.572 292.566 202.162 292.379 201.797C292.2 201.424 291.957 201.107 291.648 200.847C291.348 200.587 290.995 200.388 290.589 200.25C290.183 200.104 289.728 200.031 289.225 200.031C288.348 200.031 287.593 200.25 286.959 200.689C286.326 201.119 285.839 201.744 285.498 202.564C285.157 203.376 284.986 204.363 284.986 205.524C284.986 206.717 285.157 207.724 285.498 208.544C285.847 209.356 286.334 209.969 286.959 210.383C287.593 210.789 288.344 210.992 289.213 210.992C289.692 210.992 290.13 210.931 290.528 210.809C290.926 210.68 291.275 210.497 291.575 210.261C291.884 210.018 292.136 209.726 292.33 209.385C292.533 209.035 292.671 208.642 292.744 208.203H297.178C297.096 209.007 296.865 209.803 296.483 210.59C296.102 211.378 295.57 212.092 294.888 212.734C294.214 213.367 293.394 213.875 292.428 214.256C291.462 214.638 290.357 214.829 289.115 214.829ZM305.325 214.841C303.896 214.841 302.67 214.548 301.647 213.964C300.624 213.371 299.837 212.551 299.285 211.504C298.741 210.448 298.469 209.222 298.469 207.826C298.469 206.421 298.741 205.195 299.285 204.148C299.837 203.092 300.624 202.272 301.647 201.687C302.67 201.095 303.896 200.798 305.325 200.798C306.754 200.798 307.98 201.095 309.003 201.687C310.035 202.272 310.822 203.092 311.366 204.148C311.918 205.195 312.194 206.421 312.194 207.826C312.194 209.222 311.918 210.448 311.366 211.504C310.822 212.551 310.035 213.371 309.003 213.964C307.98 214.548 306.754 214.841 305.325 214.841ZM305.35 211.54C305.877 211.54 306.32 211.386 306.677 211.077C307.034 210.769 307.306 210.335 307.493 209.774C307.688 209.206 307.785 208.548 307.785 207.801C307.785 207.046 307.688 206.393 307.493 205.84C307.306 205.288 307.034 204.862 306.677 204.562C306.32 204.253 305.877 204.099 305.35 204.099C304.822 204.099 304.371 204.253 303.998 204.562C303.624 204.862 303.344 205.288 303.157 205.84C302.971 206.393 302.877 207.046 302.877 207.801C302.877 208.548 302.971 209.206 303.157 209.774C303.344 210.335 303.624 210.769 303.998 211.077C304.371 211.386 304.822 211.54 305.35 211.54ZM318.077 206.827V214.585H313.741V200.969H318.028V203.478H318.138C318.446 202.65 318.937 201.996 319.611 201.517C320.293 201.038 321.138 200.798 322.144 200.798C323.103 200.798 323.935 201.014 324.641 201.444C325.348 201.866 325.896 202.463 326.285 203.234C326.675 203.997 326.87 204.891 326.87 205.914V214.585H322.534V206.766C322.534 206.011 322.343 205.422 321.962 205C321.58 204.57 321.044 204.355 320.354 204.355C319.9 204.355 319.502 204.452 319.161 204.647C318.82 204.842 318.552 205.126 318.357 205.499C318.17 205.865 318.077 206.307 318.077 206.827ZM336.589 200.969V204.172H328.015V200.969H336.589ZM329.805 197.729H334.129V210.298C334.129 210.663 334.218 210.939 334.397 211.126C334.575 211.305 334.855 211.394 335.237 211.394C335.383 211.394 335.549 211.378 335.736 211.345C335.931 211.313 336.081 211.28 336.187 211.248L336.832 214.39C336.345 214.528 335.89 214.626 335.468 214.682C335.054 214.747 334.644 214.78 334.238 214.78C332.793 214.78 331.693 214.439 330.938 213.757C330.183 213.067 329.805 212.076 329.805 210.785V197.729ZM344.347 214.841C342.918 214.841 341.688 214.561 340.657 214C339.625 213.432 338.834 212.624 338.282 211.577C337.738 210.529 337.466 209.279 337.466 207.826C337.466 206.421 337.742 205.195 338.294 204.148C338.846 203.092 339.625 202.272 340.632 201.687C341.639 201.095 342.824 200.798 344.188 200.798C345.155 200.798 346.04 200.953 346.843 201.261C347.655 201.562 348.354 202.008 348.938 202.601C349.531 203.185 349.986 203.908 350.302 204.769C350.627 205.629 350.789 206.624 350.789 207.753V208.824H338.964V206.328H348.731L346.709 206.912C346.709 206.287 346.616 205.755 346.429 205.317C346.243 204.87 345.967 204.525 345.601 204.282C345.236 204.038 344.781 203.916 344.237 203.916C343.693 203.916 343.234 204.038 342.861 204.282C342.487 204.525 342.203 204.866 342.008 205.305C341.814 205.735 341.716 206.246 341.716 206.839V208.629C341.716 209.263 341.826 209.811 342.045 210.274C342.272 210.736 342.589 211.094 342.995 211.345C343.409 211.589 343.884 211.711 344.42 211.711C344.793 211.711 345.134 211.658 345.443 211.552C345.751 211.447 346.015 211.293 346.234 211.09C346.454 210.878 346.62 210.627 346.734 210.335L350.704 210.444C350.542 211.337 350.185 212.113 349.632 212.77C349.08 213.428 348.358 213.939 347.465 214.305C346.571 214.662 345.532 214.841 344.347 214.841ZM355.503 200.969L357.731 205.475L360.058 200.969H364.43L360.63 207.789L364.576 214.585H360.228L357.731 210.079L355.308 214.585H350.911L354.869 207.789L351.106 200.969H355.503ZM373.394 200.969V204.172H364.82V200.969H373.394ZM366.61 197.729H370.933V210.298C370.933 210.663 371.023 210.939 371.201 211.126C371.38 211.305 371.66 211.394 372.042 211.394C372.188 211.394 372.354 211.378 372.541 211.345C372.736 211.313 372.886 211.28 372.992 211.248L373.637 214.39C373.15 214.528 372.695 214.626 372.273 214.682C371.859 214.747 371.449 214.78 371.043 214.78C369.598 214.78 368.498 214.439 367.743 213.757C366.987 213.067 366.61 212.076 366.61 210.785V197.729Z" fill="white"/>
</svg>
