<svg width="1089" height="565" viewBox="0 0 1089 565" fill="none" xmlns="http://www.w3.org/2000/svg">
<g opacity="0.2">
<rect x="94" y="48.7695" width="213.46" height="182.848" fill="#DDDDDD"/>
<path d="M156.503 136.06C154.554 136.06 152.795 135.629 151.224 134.766C149.663 133.903 148.427 132.648 147.515 130.999C146.614 129.341 146.163 127.325 146.163 124.949C146.163 122.564 146.614 120.542 147.515 118.885C148.427 117.217 149.663 115.956 151.224 115.103C152.795 114.24 154.554 113.809 156.503 113.809C158.442 113.809 160.192 114.24 161.753 115.103C163.314 115.956 164.551 117.217 165.462 118.885C166.373 120.542 166.829 122.564 166.829 124.949C166.829 127.325 166.373 129.341 165.462 130.999C164.551 132.657 163.314 133.918 161.753 134.781C160.192 135.634 158.442 136.06 156.503 136.06ZM156.503 131.479C157.541 131.479 158.433 131.227 159.179 130.723C159.926 130.219 160.498 129.482 160.895 128.512C161.293 127.543 161.492 126.355 161.492 124.949C161.492 123.534 161.293 122.341 160.895 121.371C160.498 120.392 159.926 119.65 159.179 119.146C158.433 118.642 157.541 118.39 156.503 118.39C155.466 118.39 154.574 118.642 153.827 119.146C153.081 119.65 152.504 120.392 152.097 121.371C151.699 122.341 151.5 123.534 151.5 124.949C151.5 126.355 151.699 127.543 152.097 128.512C152.504 129.482 153.081 130.219 153.827 130.723C154.574 131.227 155.466 131.479 156.503 131.479ZM169.054 135.77V119.51H174.072V122.491H174.246C174.537 121.405 175.017 120.605 175.686 120.092C176.365 119.568 177.145 119.306 178.028 119.306C178.27 119.306 178.517 119.321 178.769 119.35C179.031 119.379 179.269 119.427 179.482 119.495V123.975C179.23 123.887 178.905 123.824 178.508 123.786C178.11 123.737 177.756 123.713 177.446 123.713C176.835 123.713 176.282 123.849 175.788 124.12C175.303 124.392 174.92 124.77 174.639 125.255C174.367 125.739 174.232 126.302 174.232 126.942V135.77H169.054ZM180.776 135.77V119.51H185.954V135.77H180.776ZM183.351 117.648C182.623 117.648 181.998 117.406 181.474 116.921C180.951 116.436 180.689 115.85 180.689 115.161C180.689 114.473 180.951 113.891 181.474 113.416C181.998 112.931 182.623 112.689 183.351 112.689C184.087 112.689 184.713 112.931 185.227 113.416C185.75 113.891 186.012 114.473 186.012 115.161C186.012 115.85 185.75 116.436 185.227 116.921C184.713 117.406 184.087 117.648 183.351 117.648ZM195.931 142.198C193.613 142.198 191.8 141.728 190.491 140.787C189.182 139.847 188.436 138.664 188.252 137.238L193.138 136.962C193.226 137.301 193.39 137.592 193.633 137.835C193.885 138.087 194.215 138.281 194.622 138.416C195.029 138.552 195.509 138.62 196.062 138.62C196.934 138.62 197.652 138.407 198.214 137.98C198.786 137.563 199.072 136.836 199.072 135.799V132.934H198.883C198.679 133.428 198.369 133.874 197.952 134.272C197.535 134.669 197.017 134.984 196.396 135.217C195.785 135.44 195.077 135.551 194.273 135.551C193.09 135.551 192.004 135.275 191.015 134.722C190.036 134.17 189.25 133.312 188.659 132.148C188.077 130.975 187.786 129.472 187.786 127.64C187.786 125.73 188.087 124.164 188.688 122.942C189.299 121.711 190.099 120.799 191.088 120.208C192.077 119.607 193.138 119.306 194.273 119.306C195.126 119.306 195.858 119.452 196.469 119.743C197.08 120.033 197.589 120.412 197.996 120.877C198.403 121.333 198.708 121.808 198.912 122.302H199.058V119.51H204.162V135.842C204.162 137.209 203.813 138.368 203.115 139.318C202.427 140.268 201.462 140.986 200.221 141.471C198.99 141.955 197.56 142.198 195.931 142.198ZM196.076 131.785C197.017 131.785 197.749 131.416 198.272 130.679C198.805 129.942 199.072 128.924 199.072 127.625C199.072 126.743 198.951 125.982 198.708 125.342C198.476 124.702 198.136 124.207 197.69 123.858C197.244 123.509 196.706 123.335 196.076 123.335C195.436 123.335 194.893 123.514 194.447 123.873C194.001 124.232 193.662 124.731 193.429 125.371C193.206 126.011 193.095 126.762 193.095 127.625C193.095 128.488 193.211 129.23 193.444 129.85C193.676 130.471 194.011 130.951 194.447 131.29C194.893 131.62 195.436 131.785 196.076 131.785ZM206.635 135.77V119.51H211.812V135.77H206.635ZM209.209 117.648C208.482 117.648 207.856 117.406 207.333 116.921C206.809 116.436 206.547 115.85 206.547 115.161C206.547 114.473 206.809 113.891 207.333 113.416C207.856 112.931 208.482 112.689 209.209 112.689C209.946 112.689 210.571 112.931 211.085 113.416C211.609 113.891 211.87 114.473 211.87 115.161C211.87 115.85 211.609 116.436 211.085 116.921C210.571 117.406 209.946 117.648 209.209 117.648ZM219.433 126.505V135.77H214.255V119.51H219.375V122.506H219.506C219.874 121.517 220.461 120.736 221.265 120.164C222.08 119.592 223.088 119.306 224.291 119.306C225.435 119.306 226.428 119.563 227.272 120.077C228.115 120.581 228.77 121.294 229.235 122.215C229.701 123.126 229.933 124.193 229.933 125.415V135.77H224.756V126.433C224.756 125.531 224.528 124.828 224.072 124.324C223.617 123.81 222.977 123.553 222.153 123.553C221.61 123.553 221.135 123.669 220.727 123.902C220.32 124.135 220 124.474 219.767 124.92C219.544 125.356 219.433 125.885 219.433 126.505ZM244.724 136.104C243.202 136.104 241.888 135.833 240.783 135.29C239.678 134.747 238.829 134.015 238.238 133.094C237.646 132.163 237.351 131.135 237.351 130.01C237.351 129.176 237.511 128.444 237.831 127.814C238.16 127.174 238.616 126.588 239.198 126.054C239.789 125.512 240.468 124.978 241.234 124.455L245.786 121.546C246.3 121.207 246.663 120.862 246.877 120.513C247.1 120.155 247.211 119.796 247.211 119.437C247.211 119.049 247.061 118.7 246.76 118.39C246.46 118.07 246.019 117.91 245.437 117.91C245.068 117.91 244.744 117.988 244.462 118.143C244.191 118.288 243.978 118.497 243.822 118.768C243.677 119.03 243.604 119.326 243.604 119.655C243.604 120.092 243.726 120.538 243.968 120.993C244.21 121.439 244.54 121.919 244.957 122.433C245.383 122.937 245.849 123.495 246.353 124.106L256.752 135.77H251.458L242.79 126.345C242.295 125.793 241.777 125.177 241.234 124.498C240.7 123.81 240.245 123.058 239.867 122.244C239.489 121.43 239.299 120.542 239.299 119.583C239.299 118.497 239.552 117.517 240.056 116.645C240.57 115.772 241.282 115.084 242.194 114.58C243.115 114.066 244.191 113.809 245.422 113.809C246.605 113.809 247.628 114.051 248.491 114.536C249.354 115.011 250.013 115.651 250.469 116.456C250.934 117.251 251.167 118.133 251.167 119.103C251.167 120.111 250.915 121.042 250.411 121.895C249.916 122.748 249.208 123.504 248.287 124.164L243.837 127.349C243.372 127.688 243.003 128.052 242.732 128.44C242.46 128.818 242.324 129.235 242.324 129.69C242.324 130.146 242.436 130.548 242.659 130.897C242.892 131.246 243.212 131.523 243.619 131.726C244.026 131.92 244.501 132.017 245.044 132.017C245.791 132.017 246.528 131.843 247.255 131.494C247.992 131.145 248.661 130.65 249.262 130.01C249.863 129.37 250.343 128.614 250.702 127.742C251.07 126.859 251.254 125.894 251.254 124.847H255.443C255.443 126.137 255.302 127.339 255.021 128.454C254.749 129.559 254.342 130.553 253.799 131.436C253.256 132.308 252.583 133.031 251.778 133.603C251.516 133.748 251.264 133.884 251.022 134.01C250.789 134.136 250.546 134.267 250.294 134.402C249.461 135.013 248.559 135.45 247.589 135.711C246.62 135.973 245.665 136.104 244.724 136.104ZM125.845 144.1V165.77H120.624V144.1H125.845ZM128.303 165.77V149.51H133.204V152.506H133.394C133.733 151.517 134.305 150.736 135.11 150.164C135.924 149.592 136.884 149.306 137.989 149.306C139.124 149.306 140.093 149.597 140.898 150.179C141.703 150.761 142.207 151.536 142.411 152.506H142.585C142.895 151.546 143.492 150.775 144.374 150.193C145.256 149.602 146.298 149.306 147.501 149.306C149.033 149.306 150.279 149.796 151.238 150.775C152.198 151.754 152.678 153.102 152.678 154.818V165.77H147.501V156.011C147.501 155.206 147.292 154.59 146.875 154.164C146.458 153.737 145.92 153.524 145.261 153.524C144.553 153.524 143.996 153.757 143.589 154.222C143.181 154.678 142.978 155.293 142.978 156.069V165.77H138.004V155.953C138.004 155.206 137.8 154.615 137.393 154.178C136.986 153.742 136.448 153.524 135.779 153.524C135.323 153.524 134.921 153.635 134.572 153.858C134.232 154.072 133.966 154.372 133.772 154.76C133.578 155.148 133.481 155.613 133.481 156.156V165.77H128.303ZM155.122 171.849V149.51H160.241V152.302H160.415C160.619 151.808 160.915 151.333 161.303 150.877C161.7 150.412 162.199 150.033 162.801 149.743C163.411 149.452 164.148 149.306 165.011 149.306C166.146 149.306 167.202 149.607 168.182 150.208C169.161 150.799 169.951 151.711 170.552 152.942C171.163 154.173 171.468 155.744 171.468 157.654C171.468 159.496 171.178 161.038 170.596 162.279C170.014 163.52 169.229 164.451 168.24 165.071C167.261 165.692 166.17 166.002 164.968 166.002C164.153 166.002 163.445 165.866 162.844 165.595C162.243 165.324 161.739 164.97 161.332 164.533C160.934 164.097 160.629 163.627 160.415 163.123H160.299V171.849H155.122ZM163.179 161.974C163.819 161.974 164.357 161.794 164.793 161.436C165.239 161.077 165.573 160.573 165.796 159.923C166.029 159.273 166.146 158.517 166.146 157.654C166.146 156.782 166.029 156.025 165.796 155.385C165.573 154.736 165.244 154.232 164.808 153.873C164.371 153.514 163.828 153.335 163.179 153.335C162.548 153.335 162.01 153.509 161.564 153.858C161.118 154.207 160.774 154.707 160.532 155.356C160.299 155.996 160.183 156.762 160.183 157.654C160.183 158.527 160.299 159.288 160.532 159.938C160.774 160.577 161.118 161.077 161.564 161.436C162.01 161.794 162.548 161.974 163.179 161.974ZM180.878 166.075C179.172 166.075 177.708 165.726 176.486 165.028C175.264 164.32 174.324 163.341 173.665 162.09C173.015 160.83 172.69 159.366 172.69 157.698C172.69 156.021 173.015 154.556 173.665 153.306C174.324 152.045 175.264 151.066 176.486 150.368C177.708 149.66 179.172 149.306 180.878 149.306C182.585 149.306 184.049 149.66 185.27 150.368C186.502 151.066 187.442 152.045 188.092 153.306C188.751 154.556 189.081 156.021 189.081 157.698C189.081 159.366 188.751 160.83 188.092 162.09C187.442 163.341 186.502 164.32 185.27 165.028C184.049 165.726 182.585 166.075 180.878 166.075ZM180.907 162.134C181.537 162.134 182.066 161.949 182.492 161.581C182.919 161.213 183.244 160.694 183.467 160.025C183.7 159.346 183.816 158.561 183.816 157.669C183.816 156.767 183.7 155.987 183.467 155.327C183.244 154.668 182.919 154.159 182.492 153.8C182.066 153.432 181.537 153.248 180.907 153.248C180.277 153.248 179.739 153.432 179.293 153.8C178.847 154.159 178.512 154.668 178.289 155.327C178.066 155.987 177.955 156.767 177.955 157.669C177.955 158.561 178.066 159.346 178.289 160.025C178.512 160.694 178.847 161.213 179.293 161.581C179.739 161.949 180.277 162.134 180.907 162.134ZM190.928 165.77V149.51H195.945V152.491H196.12C196.411 151.405 196.891 150.605 197.56 150.092C198.238 149.568 199.019 149.306 199.901 149.306C200.143 149.306 200.391 149.321 200.643 149.35C200.905 149.379 201.142 149.427 201.355 149.495V153.975C201.103 153.887 200.779 153.824 200.381 153.786C199.983 153.737 199.63 153.713 199.319 153.713C198.708 153.713 198.156 153.849 197.661 154.12C197.177 154.392 196.794 154.77 196.512 155.255C196.241 155.739 196.105 156.302 196.105 156.942V165.77H190.928ZM212.568 149.51V153.335H202.33V149.51H212.568ZM204.468 145.641H209.631V160.65C209.631 161.087 209.737 161.416 209.951 161.639C210.164 161.852 210.498 161.959 210.954 161.959C211.129 161.959 211.327 161.94 211.55 161.901C211.783 161.862 211.962 161.823 212.089 161.785L212.859 165.537C212.278 165.702 211.735 165.818 211.23 165.886C210.736 165.963 210.246 166.002 209.762 166.002C208.036 166.002 206.722 165.595 205.82 164.781C204.919 163.956 204.468 162.774 204.468 161.232V145.641ZM218.997 166.06C217.959 166.06 217.033 165.886 216.219 165.537C215.414 165.178 214.784 164.645 214.328 163.937C213.873 163.229 213.645 162.337 213.645 161.261C213.645 160.359 213.8 159.598 214.11 158.978C214.43 158.357 214.866 157.853 215.419 157.465C215.981 157.077 216.626 156.782 217.353 156.578C218.08 156.365 218.856 156.229 219.68 156.171C220.601 156.084 221.343 155.996 221.905 155.909C222.468 155.822 222.875 155.686 223.127 155.502C223.389 155.318 223.52 155.061 223.52 154.731V154.658C223.52 154.125 223.336 153.708 222.967 153.408C222.599 153.107 222.094 152.957 221.455 152.957C220.766 152.957 220.213 153.107 219.797 153.408C219.389 153.708 219.128 154.115 219.011 154.629L214.256 154.469C214.391 153.48 214.75 152.598 215.332 151.822C215.923 151.037 216.733 150.421 217.76 149.975C218.798 149.529 220.049 149.306 221.513 149.306C222.54 149.306 223.491 149.427 224.363 149.67C225.236 149.912 225.997 150.266 226.647 150.732C227.296 151.197 227.8 151.764 228.159 152.433C228.518 153.102 228.697 153.863 228.697 154.716V165.77H223.825V163.486H223.709C223.408 164.049 223.035 164.519 222.589 164.897C222.143 165.275 221.619 165.566 221.018 165.77C220.427 165.963 219.753 166.06 218.997 166.06ZM220.582 162.657C221.135 162.657 221.634 162.546 222.08 162.323C222.536 162.09 222.894 161.775 223.156 161.377C223.428 160.98 223.563 160.514 223.563 159.981V158.454C223.418 158.532 223.239 158.604 223.025 158.672C222.822 158.73 222.594 158.789 222.342 158.847C222.09 158.905 221.833 158.953 221.571 158.992C221.319 159.031 221.076 159.07 220.844 159.109C220.349 159.176 219.927 159.298 219.578 159.472C219.239 159.637 218.982 159.845 218.808 160.098C218.633 160.35 218.546 160.655 218.546 161.014C218.546 161.547 218.735 161.954 219.113 162.235C219.491 162.517 219.981 162.657 220.582 162.657ZM236.333 156.505V165.77H231.155V149.51H236.274V152.506H236.405C236.774 151.517 237.36 150.736 238.165 150.164C238.979 149.592 239.988 149.306 241.19 149.306C242.334 149.306 243.328 149.563 244.172 150.077C245.015 150.581 245.669 151.294 246.135 152.215C246.6 153.126 246.833 154.193 246.833 155.415V165.77H241.655V156.433C241.655 155.531 241.428 154.828 240.972 154.324C240.516 153.81 239.876 153.553 239.052 153.553C238.509 153.553 238.034 153.669 237.627 153.902C237.22 154.135 236.9 154.474 236.667 154.92C236.444 155.356 236.333 155.885 236.333 156.505ZM256.853 166.075C255.137 166.075 253.668 165.721 252.447 165.013C251.225 164.305 250.289 163.326 249.64 162.075C248.99 160.815 248.665 159.356 248.665 157.698C248.665 156.03 248.99 154.571 249.64 153.32C250.289 152.06 251.225 151.076 252.447 150.368C253.678 149.66 255.147 149.306 256.853 149.306C258.356 149.306 259.665 149.583 260.78 150.135C261.895 150.678 262.768 151.444 263.398 152.433C264.028 153.412 264.363 154.571 264.402 155.909H259.573C259.505 155.356 259.355 154.881 259.122 154.484C258.899 154.086 258.599 153.781 258.221 153.568C257.852 153.354 257.421 153.248 256.926 153.248C256.325 153.248 255.797 153.417 255.341 153.757C254.895 154.086 254.546 154.581 254.294 155.24C254.051 155.89 253.93 156.694 253.93 157.654C253.93 158.614 254.051 159.429 254.294 160.098C254.546 160.757 254.895 161.261 255.341 161.61C255.787 161.959 256.315 162.134 256.926 162.134C257.634 162.134 258.225 161.896 258.7 161.421C259.176 160.936 259.466 160.262 259.573 159.399H264.402C264.353 160.737 264.019 161.911 263.398 162.919C262.778 163.918 261.915 164.693 260.809 165.246C259.704 165.799 258.385 166.075 256.853 166.075ZM273.811 166.075C272.105 166.075 270.636 165.74 269.405 165.071C268.173 164.393 267.228 163.428 266.569 162.177C265.919 160.927 265.594 159.433 265.594 157.698C265.594 156.021 265.924 154.556 266.583 153.306C267.242 152.045 268.173 151.066 269.375 150.368C270.578 149.66 271.993 149.306 273.622 149.306C274.776 149.306 275.833 149.49 276.793 149.859C277.762 150.218 278.596 150.751 279.294 151.459C280.002 152.157 280.545 153.02 280.923 154.047C281.311 155.075 281.505 156.263 281.505 157.611V158.89H267.383V155.909H279.047L276.633 156.607C276.633 155.861 276.521 155.225 276.298 154.702C276.075 154.169 275.745 153.757 275.309 153.466C274.873 153.175 274.33 153.029 273.68 153.029C273.031 153.029 272.483 153.175 272.037 153.466C271.591 153.757 271.252 154.164 271.019 154.687C270.786 155.201 270.67 155.812 270.67 156.52V158.658C270.67 159.414 270.801 160.068 271.062 160.621C271.334 161.174 271.712 161.6 272.197 161.901C272.691 162.192 273.259 162.337 273.898 162.337C274.344 162.337 274.752 162.274 275.12 162.148C275.489 162.022 275.804 161.838 276.065 161.596C276.327 161.343 276.526 161.043 276.662 160.694L281.403 160.825C281.209 161.891 280.782 162.817 280.123 163.603C279.464 164.388 278.601 164.999 277.534 165.435C276.468 165.862 275.227 166.075 273.811 166.075Z" fill="black"/>
<rect x="265.264" y="119.923" width="213.46" height="182.848" fill="#AAAAAA"/>
<path d="M315.595 206.923V185.253H330.705V189.514H320.816V193.892H329.92V198.051H320.816V202.662H330.691V206.923H315.595ZM338.312 185.253V206.923H333.134V185.253H338.312ZM348.361 207.228C346.655 207.228 345.186 206.894 343.955 206.225C342.723 205.546 341.778 204.581 341.119 203.331C340.469 202.08 340.144 200.587 340.144 198.851C340.144 197.174 340.474 195.71 341.133 194.459C341.792 193.199 342.723 192.219 343.925 191.521C345.128 190.813 346.543 190.46 348.172 190.46C349.326 190.46 350.383 190.644 351.343 191.012C352.312 191.371 353.146 191.904 353.844 192.612C354.552 193.31 355.095 194.173 355.473 195.201C355.861 196.229 356.055 197.416 356.055 198.764V200.044H341.933V197.062H353.597L351.183 197.76C351.183 197.014 351.071 196.379 350.848 195.855C350.625 195.322 350.296 194.91 349.859 194.619C349.423 194.328 348.88 194.183 348.23 194.183C347.581 194.183 347.033 194.328 346.587 194.619C346.141 194.91 345.802 195.317 345.569 195.841C345.336 196.355 345.22 196.965 345.22 197.673V199.811C345.22 200.567 345.351 201.222 345.613 201.774C345.884 202.327 346.262 202.754 346.747 203.054C347.241 203.345 347.809 203.491 348.449 203.491C348.895 203.491 349.302 203.428 349.67 203.302C350.039 203.175 350.354 202.991 350.616 202.749C350.877 202.497 351.076 202.196 351.212 201.847L355.953 201.978C355.759 203.045 355.332 203.971 354.673 204.756C354.014 205.541 353.151 206.152 352.084 206.588C351.018 207.015 349.777 207.228 348.361 207.228ZM357.829 206.923V190.663H362.73V193.659H362.919C363.259 192.67 363.831 191.89 364.635 191.318C365.45 190.746 366.41 190.46 367.515 190.46C368.649 190.46 369.619 190.75 370.424 191.332C371.229 191.914 371.733 192.69 371.936 193.659H372.111C372.421 192.699 373.017 191.928 373.9 191.347C374.782 190.755 375.824 190.46 377.027 190.46C378.558 190.46 379.804 190.949 380.764 191.928C381.724 192.908 382.204 194.255 382.204 195.972V206.923H377.027V197.164C377.027 196.359 376.818 195.744 376.401 195.317C375.984 194.891 375.446 194.677 374.787 194.677C374.079 194.677 373.522 194.91 373.114 195.375C372.707 195.831 372.504 196.447 372.504 197.222V206.923H367.53V197.106C367.53 196.359 367.326 195.768 366.919 195.332C366.512 194.895 365.973 194.677 365.304 194.677C364.849 194.677 364.446 194.789 364.097 195.012C363.758 195.225 363.491 195.526 363.297 195.913C363.104 196.301 363.007 196.767 363.007 197.31V206.923H357.829ZM392.254 207.228C390.547 207.228 389.078 206.894 387.847 206.225C386.616 205.546 385.67 204.581 385.011 203.331C384.361 202.08 384.037 200.587 384.037 198.851C384.037 197.174 384.366 195.71 385.025 194.459C385.685 193.199 386.616 192.219 387.818 191.521C389.02 190.813 390.436 190.46 392.065 190.46C393.218 190.46 394.275 190.644 395.235 191.012C396.205 191.371 397.038 191.904 397.737 192.612C398.444 193.31 398.987 194.173 399.365 195.201C399.753 196.229 399.947 197.416 399.947 198.764V200.044H385.825V197.062H397.489L395.075 197.76C395.075 197.014 394.964 196.379 394.741 195.855C394.518 195.322 394.188 194.91 393.752 194.619C393.315 194.328 392.772 194.183 392.123 194.183C391.473 194.183 390.925 194.328 390.479 194.619C390.033 194.91 389.694 195.317 389.461 195.841C389.229 196.355 389.112 196.965 389.112 197.673V199.811C389.112 200.567 389.243 201.222 389.505 201.774C389.776 202.327 390.154 202.754 390.639 203.054C391.134 203.345 391.701 203.491 392.341 203.491C392.787 203.491 393.194 203.428 393.563 203.302C393.931 203.175 394.246 202.991 394.508 202.749C394.77 202.497 394.968 202.196 395.104 201.847L399.845 201.978C399.651 203.045 399.225 203.971 398.565 204.756C397.906 205.541 397.043 206.152 395.977 206.588C394.91 207.015 393.669 207.228 392.254 207.228ZM406.899 197.659V206.923H401.721V190.663H406.841V193.659H406.972C407.34 192.67 407.927 191.89 408.731 191.318C409.546 190.746 410.554 190.46 411.756 190.46C412.901 190.46 413.894 190.717 414.738 191.23C415.581 191.735 416.236 192.447 416.701 193.368C417.167 194.28 417.399 195.346 417.399 196.568V206.923H412.222V197.586C412.222 196.684 411.994 195.981 411.538 195.477C411.083 194.963 410.443 194.706 409.619 194.706C409.076 194.706 408.601 194.823 408.193 195.055C407.786 195.288 407.466 195.627 407.233 196.073C407.01 196.51 406.899 197.038 406.899 197.659ZM429.005 190.663V194.488H418.766V190.663H429.005ZM420.904 186.795H426.067V201.804C426.067 202.24 426.174 202.569 426.387 202.792C426.601 203.006 426.935 203.112 427.391 203.112C427.565 203.112 427.764 203.093 427.987 203.054C428.22 203.015 428.399 202.977 428.525 202.938L429.296 206.69C428.714 206.855 428.171 206.971 427.667 207.039C427.173 207.117 426.683 207.156 426.198 207.156C424.472 207.156 423.159 206.748 422.257 205.934C421.355 205.11 420.904 203.927 420.904 202.385V186.795ZM312.773 236.923H307.145L314.475 215.253H321.427L328.742 236.923H323.128L318.038 220.707H317.864L312.773 236.923ZM312.046 228.386H323.812V232.371H312.046V228.386ZM338.384 220.663V224.488H328.146V220.663H338.384ZM330.284 216.795H335.447V231.804C335.447 232.24 335.553 232.569 335.767 232.792C335.98 233.006 336.314 233.112 336.77 233.112C336.945 233.112 337.143 233.093 337.366 233.054C337.599 233.015 337.778 232.977 337.904 232.938L338.675 236.69C338.094 236.855 337.551 236.971 337.046 237.039C336.552 237.117 336.062 237.156 335.578 237.156C333.852 237.156 332.538 236.748 331.636 235.934C330.735 235.11 330.284 233.927 330.284 232.385V216.795ZM349.379 220.663V224.488H339.141V220.663H349.379ZM341.279 216.795H346.442V231.804C346.442 232.24 346.548 232.569 346.761 232.792C346.975 233.006 347.309 233.112 347.765 233.112C347.94 233.112 348.138 233.093 348.361 233.054C348.594 233.015 348.773 232.977 348.899 232.938L349.67 236.69C349.088 236.855 348.545 236.971 348.041 237.039C347.547 237.117 347.057 237.156 346.572 237.156C344.847 237.156 343.533 236.748 342.631 235.934C341.729 235.11 341.279 233.927 341.279 232.385V216.795ZM355.808 237.214C354.77 237.214 353.844 237.039 353.03 236.69C352.225 236.331 351.595 235.798 351.139 235.09C350.683 234.383 350.456 233.491 350.456 232.414C350.456 231.513 350.611 230.752 350.921 230.131C351.241 229.511 351.677 229.006 352.23 228.619C352.792 228.231 353.437 227.935 354.164 227.731C354.891 227.518 355.667 227.382 356.491 227.324C357.412 227.237 358.154 227.15 358.716 227.062C359.279 226.975 359.686 226.839 359.938 226.655C360.2 226.471 360.331 226.214 360.331 225.884V225.812C360.331 225.278 360.146 224.861 359.778 224.561C359.41 224.26 358.905 224.11 358.265 224.11C357.577 224.11 357.024 224.26 356.607 224.561C356.2 224.861 355.938 225.269 355.822 225.783L351.066 225.623C351.202 224.634 351.561 223.751 352.143 222.976C352.734 222.19 353.544 221.575 354.571 221.129C355.609 220.683 356.86 220.46 358.324 220.46C359.351 220.46 360.302 220.581 361.174 220.823C362.047 221.066 362.808 221.419 363.457 221.885C364.107 222.35 364.611 222.917 364.97 223.586C365.329 224.255 365.508 225.017 365.508 225.87V236.923H360.636V234.64H360.52C360.219 235.202 359.846 235.672 359.4 236.05C358.954 236.428 358.43 236.719 357.829 236.923C357.238 237.117 356.564 237.214 355.808 237.214ZM357.393 233.811C357.945 233.811 358.445 233.699 358.891 233.476C359.346 233.243 359.705 232.928 359.967 232.531C360.238 232.133 360.374 231.668 360.374 231.135V229.607C360.229 229.685 360.049 229.758 359.836 229.826C359.633 229.884 359.405 229.942 359.153 230C358.9 230.058 358.644 230.107 358.382 230.146C358.13 230.184 357.887 230.223 357.655 230.262C357.16 230.33 356.738 230.451 356.389 230.626C356.05 230.79 355.793 230.999 355.618 231.251C355.444 231.503 355.357 231.808 355.357 232.167C355.357 232.7 355.546 233.108 355.924 233.389C356.302 233.67 356.792 233.811 357.393 233.811ZM375.543 237.228C373.827 237.228 372.358 236.874 371.136 236.167C369.915 235.459 368.979 234.48 368.33 233.229C367.68 231.968 367.355 230.509 367.355 228.851C367.355 227.184 367.68 225.724 368.33 224.474C368.979 223.213 369.915 222.229 371.136 221.521C372.368 220.813 373.837 220.46 375.543 220.46C377.046 220.46 378.355 220.736 379.47 221.289C380.585 221.832 381.457 222.597 382.088 223.586C382.718 224.566 383.052 225.724 383.091 227.062H378.263C378.195 226.51 378.045 226.035 377.812 225.637C377.589 225.24 377.288 224.934 376.91 224.721C376.542 224.508 376.11 224.401 375.616 224.401C375.015 224.401 374.486 224.571 374.031 224.91C373.585 225.24 373.236 225.734 372.983 226.393C372.741 227.043 372.62 227.848 372.62 228.808C372.62 229.767 372.741 230.582 372.983 231.251C373.236 231.91 373.585 232.414 374.031 232.763C374.477 233.112 375.005 233.287 375.616 233.287C376.324 233.287 376.915 233.049 377.39 232.574C377.865 232.09 378.156 231.416 378.263 230.553H383.091C383.043 231.891 382.708 233.064 382.088 234.072C381.467 235.071 380.604 235.847 379.499 236.399C378.394 236.952 377.075 237.228 375.543 237.228ZM390.072 227.659V236.923H384.895V215.253H389.883V223.659H390.072C390.441 222.661 391.042 221.88 391.875 221.318C392.709 220.746 393.737 220.46 394.959 220.46C396.093 220.46 397.082 220.717 397.926 221.23C398.779 221.735 399.438 222.442 399.904 223.354C400.369 224.265 400.602 225.337 400.602 226.568V236.923H395.424V227.586C395.424 226.684 395.196 225.981 394.741 225.477C394.285 224.963 393.64 224.706 392.806 224.706C392.263 224.706 391.783 224.823 391.366 225.055C390.959 225.288 390.639 225.627 390.407 226.073C390.184 226.51 390.072 227.038 390.072 227.659ZM410.68 237.228C408.974 237.228 407.505 236.894 406.274 236.225C405.042 235.546 404.097 234.581 403.438 233.331C402.788 232.08 402.463 230.587 402.463 228.851C402.463 227.174 402.793 225.71 403.452 224.459C404.111 223.199 405.042 222.219 406.244 221.521C407.447 220.813 408.862 220.46 410.491 220.46C411.645 220.46 412.702 220.644 413.662 221.012C414.631 221.371 415.465 221.904 416.163 222.612C416.871 223.31 417.414 224.173 417.792 225.201C418.18 226.229 418.374 227.416 418.374 228.764V230.044H404.252V227.062H415.916L413.502 227.76C413.502 227.014 413.39 226.379 413.167 225.855C412.944 225.322 412.615 224.91 412.178 224.619C411.742 224.328 411.199 224.183 410.549 224.183C409.9 224.183 409.352 224.328 408.906 224.619C408.46 224.91 408.121 225.317 407.888 225.841C407.655 226.355 407.539 226.965 407.539 227.673V229.811C407.539 230.567 407.67 231.222 407.932 231.774C408.203 232.327 408.581 232.754 409.066 233.054C409.56 233.345 410.128 233.491 410.768 233.491C411.214 233.491 411.621 233.428 411.989 233.302C412.358 233.175 412.673 232.991 412.934 232.749C413.196 232.497 413.395 232.196 413.531 231.847L418.272 231.978C418.078 233.045 417.651 233.971 416.992 234.756C416.333 235.541 415.47 236.152 414.403 236.588C413.337 237.015 412.096 237.228 410.68 237.228ZM426.024 237.156C424.831 237.156 423.74 236.845 422.751 236.225C421.772 235.604 420.992 234.673 420.41 233.432C419.828 232.191 419.537 230.65 419.537 228.808C419.537 226.898 419.838 225.327 420.439 224.095C421.05 222.864 421.845 221.953 422.824 221.361C423.803 220.76 424.86 220.46 425.995 220.46C426.848 220.46 427.575 220.605 428.176 220.896C428.787 221.187 429.291 221.565 429.689 222.03C430.086 222.486 430.387 222.961 430.59 223.456H430.692V215.253H435.87V236.923H430.765V234.276H430.59C430.367 234.78 430.057 235.25 429.66 235.687C429.262 236.123 428.763 236.477 428.162 236.748C427.56 237.02 426.848 237.156 426.024 237.156ZM427.813 233.127C428.443 233.127 428.981 232.948 429.427 232.589C429.873 232.23 430.217 231.731 430.459 231.091C430.702 230.441 430.823 229.68 430.823 228.808C430.823 227.916 430.702 227.15 430.459 226.51C430.227 225.86 429.883 225.361 429.427 225.012C428.981 224.663 428.443 224.488 427.813 224.488C427.182 224.488 426.644 224.668 426.198 225.026C425.752 225.385 425.413 225.889 425.18 226.539C424.957 227.179 424.846 227.935 424.846 228.808C424.846 229.67 424.962 230.427 425.195 231.076C425.427 231.726 425.762 232.23 426.198 232.589C426.644 232.948 427.182 233.127 427.813 233.127Z" fill="black"/>
<rect x="610.275" y="262.229" width="213.46" height="182.848" fill="#DDDDDD"/>
<path d="M668.618 330.52C666.805 330.52 665.224 330.249 663.876 329.706C662.529 329.153 661.477 328.324 660.721 327.219C659.974 326.104 659.591 324.703 659.572 323.016H664.575C664.623 323.704 664.812 324.286 665.142 324.761C665.481 325.227 665.937 325.58 666.509 325.823C667.091 326.065 667.769 326.186 668.545 326.186C669.253 326.186 669.854 326.089 670.348 325.896C670.853 325.702 671.24 325.435 671.512 325.096C671.783 324.756 671.919 324.364 671.919 323.918C671.919 323.51 671.793 323.166 671.541 322.885C671.289 322.594 670.906 322.342 670.392 322.129C669.888 321.906 669.238 321.707 668.443 321.532L666.16 321.009C664.298 320.582 662.829 319.889 661.753 318.929C660.677 317.96 660.139 316.646 660.139 314.988C660.139 313.65 660.502 312.477 661.23 311.468C661.957 310.46 662.955 309.675 664.226 309.112C665.505 308.55 666.969 308.269 668.618 308.269C670.295 308.269 671.754 308.555 672.995 309.127C674.236 309.689 675.196 310.484 675.875 311.512C676.554 312.53 676.903 313.713 676.922 315.061H671.89C671.832 314.285 671.522 313.684 670.959 313.257C670.407 312.821 669.621 312.603 668.603 312.603C667.924 312.603 667.357 312.69 666.902 312.865C666.456 313.039 666.116 313.281 665.883 313.592C665.66 313.902 665.549 314.251 665.549 314.639C665.549 315.065 665.675 315.429 665.927 315.73C666.179 316.03 666.543 316.282 667.018 316.486C667.503 316.689 668.07 316.864 668.719 317.009L670.566 317.431C671.633 317.664 672.578 317.974 673.402 318.362C674.227 318.75 674.92 319.21 675.482 319.744C676.054 320.277 676.486 320.893 676.777 321.591C677.067 322.289 677.213 323.069 677.213 323.932C677.213 325.309 676.869 326.492 676.18 327.481C675.502 328.46 674.522 329.211 673.243 329.735C671.963 330.259 670.421 330.52 668.618 330.52ZM686.652 330.535C684.945 330.535 683.476 330.2 682.245 329.531C681.014 328.853 680.068 327.888 679.409 326.637C678.759 325.387 678.435 323.893 678.435 322.158C678.435 320.48 678.764 319.016 679.424 317.766C680.083 316.505 681.014 315.526 682.216 314.828C683.418 314.12 684.834 313.766 686.463 313.766C687.616 313.766 688.673 313.95 689.633 314.319C690.603 314.678 691.436 315.211 692.135 315.919C692.842 316.617 693.385 317.48 693.763 318.507C694.151 319.535 694.345 320.723 694.345 322.071V323.35H680.223V320.369H691.887L689.473 321.067C689.473 320.321 689.362 319.685 689.139 319.162C688.916 318.629 688.586 318.217 688.15 317.926C687.713 317.635 687.17 317.489 686.521 317.489C685.871 317.489 685.323 317.635 684.877 317.926C684.431 318.217 684.092 318.624 683.859 319.147C683.627 319.661 683.51 320.272 683.51 320.98V323.118C683.51 323.874 683.641 324.528 683.903 325.081C684.174 325.634 684.553 326.06 685.037 326.361C685.532 326.652 686.099 326.797 686.739 326.797C687.185 326.797 687.592 326.734 687.961 326.608C688.329 326.482 688.644 326.298 688.906 326.056C689.168 325.803 689.366 325.503 689.502 325.154L694.243 325.285C694.049 326.351 693.623 327.277 692.964 328.063C692.304 328.848 691.441 329.459 690.375 329.895C689.308 330.322 688.067 330.535 686.652 330.535ZM701.297 308.56V330.229H696.119V308.56H701.297ZM711.347 330.535C709.64 330.535 708.171 330.2 706.94 329.531C705.708 328.853 704.763 327.888 704.104 326.637C703.454 325.387 703.129 323.893 703.129 322.158C703.129 320.48 703.459 319.016 704.118 317.766C704.778 316.505 705.708 315.526 706.911 314.828C708.113 314.12 709.529 313.766 711.157 313.766C712.311 313.766 713.368 313.95 714.328 314.319C715.298 314.678 716.131 315.211 716.829 315.919C717.537 316.617 718.08 317.48 718.458 318.507C718.846 319.535 719.04 320.723 719.04 322.071V323.35H704.918V320.369H716.582L714.168 321.067C714.168 320.321 714.056 319.685 713.833 319.162C713.61 318.629 713.281 318.217 712.844 317.926C712.408 317.635 711.865 317.489 711.216 317.489C710.566 317.489 710.018 317.635 709.572 317.926C709.126 318.217 708.787 318.624 708.554 319.147C708.321 319.661 708.205 320.272 708.205 320.98V323.118C708.205 323.874 708.336 324.528 708.598 325.081C708.869 325.634 709.247 326.06 709.732 326.361C710.227 326.652 710.794 326.797 711.434 326.797C711.88 326.797 712.287 326.734 712.655 326.608C713.024 326.482 713.339 326.298 713.601 326.056C713.863 325.803 714.061 325.503 714.197 325.154L718.938 325.285C718.744 326.351 718.318 327.277 717.658 328.063C716.999 328.848 716.136 329.459 715.07 329.895C714.003 330.322 712.762 330.535 711.347 330.535ZM728.392 330.535C726.675 330.535 725.206 330.181 723.985 329.473C722.763 328.765 721.828 327.786 721.178 326.535C720.528 325.275 720.204 323.816 720.204 322.158C720.204 320.49 720.528 319.031 721.178 317.78C721.828 316.52 722.763 315.536 723.985 314.828C725.216 314.12 726.685 313.766 728.392 313.766C729.894 313.766 731.203 314.043 732.318 314.595C733.433 315.138 734.306 315.904 734.936 316.893C735.566 317.872 735.901 319.031 735.94 320.369H731.111C731.043 319.816 730.893 319.341 730.66 318.944C730.437 318.546 730.137 318.241 729.759 318.027C729.39 317.814 728.959 317.708 728.464 317.708C727.863 317.708 727.335 317.877 726.879 318.217C726.433 318.546 726.084 319.041 725.832 319.7C725.589 320.35 725.468 321.154 725.468 322.114C725.468 323.074 725.589 323.889 725.832 324.558C726.084 325.217 726.433 325.721 726.879 326.07C727.325 326.419 727.853 326.594 728.464 326.594C729.172 326.594 729.763 326.356 730.239 325.881C730.714 325.396 731.005 324.722 731.111 323.859H735.94C735.891 325.197 735.557 326.371 734.936 327.379C734.316 328.378 733.453 329.153 732.347 329.706C731.242 330.259 729.923 330.535 728.392 330.535ZM746.905 313.97V317.795H736.667V313.97H746.905ZM738.805 310.101H743.968V325.11C743.968 325.546 744.074 325.876 744.288 326.099C744.501 326.312 744.835 326.419 745.291 326.419C745.466 326.419 745.664 326.4 745.887 326.361C746.12 326.322 746.299 326.283 746.425 326.245L747.196 329.997C746.615 330.162 746.072 330.278 745.567 330.346C745.073 330.423 744.583 330.462 744.099 330.462C742.373 330.462 741.059 330.055 740.157 329.241C739.256 328.416 738.805 327.234 738.805 325.692V310.101ZM756.141 330.535C754.434 330.535 752.97 330.186 751.748 329.488C750.527 328.78 749.586 327.801 748.927 326.55C748.277 325.29 747.953 323.825 747.953 322.158C747.953 320.48 748.277 319.016 748.927 317.766C749.586 316.505 750.527 315.526 751.748 314.828C752.97 314.12 754.434 313.766 756.141 313.766C757.847 313.766 759.311 314.12 760.533 314.828C761.764 315.526 762.705 316.505 763.354 317.766C764.013 319.016 764.343 320.48 764.343 322.158C764.343 323.825 764.013 325.29 763.354 326.55C762.705 327.801 761.764 328.78 760.533 329.488C759.311 330.186 757.847 330.535 756.141 330.535ZM756.17 326.594C756.8 326.594 757.328 326.409 757.755 326.041C758.181 325.673 758.506 325.154 758.729 324.485C758.962 323.806 759.078 323.021 759.078 322.129C759.078 321.227 758.962 320.447 758.729 319.787C758.506 319.128 758.181 318.619 757.755 318.26C757.328 317.892 756.8 317.708 756.17 317.708C755.539 317.708 755.001 317.892 754.555 318.26C754.109 318.619 753.775 319.128 753.552 319.787C753.329 320.447 753.217 321.227 753.217 322.129C753.217 323.021 753.329 323.806 753.552 324.485C753.775 325.154 754.109 325.673 754.555 326.041C755.001 326.409 755.539 326.594 756.17 326.594ZM766.19 330.229V313.97H771.208V316.951H771.382C771.673 315.865 772.153 315.065 772.822 314.552C773.501 314.028 774.281 313.766 775.163 313.766C775.406 313.766 775.653 313.781 775.905 313.81C776.167 313.839 776.405 313.887 776.618 313.955V318.435C776.366 318.347 776.041 318.284 775.643 318.246C775.246 318.197 774.892 318.173 774.582 318.173C773.971 318.173 773.418 318.309 772.924 318.58C772.439 318.852 772.056 319.23 771.775 319.715C771.503 320.199 771.368 320.762 771.368 321.402V330.229H766.19ZM652.62 360.52C650.807 360.52 649.226 360.249 647.879 359.706C646.531 359.153 645.479 358.324 644.723 357.219C643.976 356.104 643.593 354.703 643.574 353.016H648.577C648.625 353.704 648.814 354.286 649.144 354.761C649.483 355.227 649.939 355.58 650.511 355.823C651.093 356.065 651.771 356.186 652.547 356.186C653.255 356.186 653.856 356.089 654.35 355.896C654.855 355.702 655.242 355.435 655.514 355.096C655.785 354.756 655.921 354.364 655.921 353.918C655.921 353.51 655.795 353.166 655.543 352.885C655.291 352.594 654.908 352.342 654.394 352.129C653.89 351.906 653.24 351.707 652.445 351.532L650.162 351.009C648.3 350.582 646.831 349.889 645.755 348.929C644.679 347.96 644.141 346.646 644.141 344.988C644.141 343.65 644.505 342.477 645.232 341.468C645.959 340.46 646.958 339.675 648.228 339.112C649.507 338.55 650.972 338.269 652.62 338.269C654.297 338.269 655.756 338.555 656.997 339.127C658.238 339.689 659.198 340.484 659.877 341.512C660.556 342.53 660.905 343.713 660.924 345.061H655.892C655.834 344.285 655.524 343.684 654.961 343.257C654.409 342.821 653.623 342.603 652.605 342.603C651.927 342.603 651.359 342.69 650.904 342.865C650.458 343.039 650.118 343.281 649.886 343.592C649.663 343.902 649.551 344.251 649.551 344.639C649.551 345.065 649.677 345.429 649.929 345.73C650.181 346.03 650.545 346.282 651.02 346.486C651.505 346.689 652.072 346.864 652.722 347.009L654.569 347.431C655.635 347.664 656.58 347.974 657.405 348.362C658.229 348.75 658.922 349.21 659.484 349.744C660.056 350.277 660.488 350.893 660.779 351.591C661.07 352.289 661.215 353.069 661.215 353.932C661.215 355.309 660.871 356.492 660.182 357.481C659.504 358.46 658.524 359.211 657.245 359.735C655.965 360.259 654.423 360.52 652.62 360.52ZM663.047 366.309V343.97H668.167V346.762H668.341C668.545 346.268 668.841 345.793 669.228 345.337C669.626 344.872 670.125 344.493 670.726 344.203C671.337 343.912 672.074 343.766 672.937 343.766C674.071 343.766 675.128 344.067 676.108 344.668C677.087 345.259 677.877 346.171 678.478 347.402C679.089 348.633 679.394 350.204 679.394 352.114C679.394 353.956 679.104 355.498 678.522 356.739C677.94 357.98 677.155 358.911 676.166 359.531C675.186 360.152 674.096 360.462 672.893 360.462C672.079 360.462 671.371 360.326 670.77 360.055C670.169 359.783 669.665 359.43 669.258 358.993C668.86 358.557 668.555 358.087 668.341 357.583H668.225V366.309H663.047ZM671.105 356.434C671.745 356.434 672.283 356.254 672.719 355.896C673.165 355.537 673.499 355.033 673.722 354.383C673.955 353.733 674.071 352.977 674.071 352.114C674.071 351.242 673.955 350.485 673.722 349.845C673.499 349.196 673.17 348.692 672.733 348.333C672.297 347.974 671.754 347.795 671.105 347.795C670.474 347.795 669.936 347.969 669.49 348.318C669.044 348.667 668.7 349.167 668.458 349.816C668.225 350.456 668.109 351.222 668.109 352.114C668.109 352.987 668.225 353.748 668.458 354.398C668.7 355.037 669.044 355.537 669.49 355.896C669.936 356.254 670.474 356.434 671.105 356.434ZM688.833 360.535C687.127 360.535 685.658 360.2 684.426 359.531C683.195 358.853 682.25 357.888 681.59 356.637C680.941 355.387 680.616 353.893 680.616 352.158C680.616 350.48 680.946 349.016 681.605 347.766C682.264 346.505 683.195 345.526 684.397 344.828C685.6 344.12 687.015 343.766 688.644 343.766C689.798 343.766 690.855 343.95 691.815 344.319C692.784 344.678 693.618 345.211 694.316 345.919C695.024 346.617 695.567 347.48 695.945 348.507C696.333 349.535 696.527 350.723 696.527 352.071V353.35H682.405V350.369H694.069L691.655 351.067C691.655 350.321 691.543 349.685 691.32 349.162C691.097 348.629 690.767 348.217 690.331 347.926C689.895 347.635 689.352 347.489 688.702 347.489C688.053 347.489 687.505 347.635 687.059 347.926C686.613 348.217 686.273 348.624 686.041 349.147C685.808 349.661 685.692 350.272 685.692 350.98V353.118C685.692 353.874 685.823 354.528 686.084 355.081C686.356 355.634 686.734 356.06 687.219 356.361C687.713 356.652 688.281 356.797 688.92 356.797C689.366 356.797 689.774 356.734 690.142 356.608C690.511 356.482 690.826 356.298 691.087 356.056C691.349 355.803 691.548 355.503 691.684 355.154L696.425 355.285C696.231 356.351 695.804 357.277 695.145 358.063C694.486 358.848 693.623 359.459 692.556 359.895C691.49 360.322 690.249 360.535 688.833 360.535ZM705.878 360.535C704.162 360.535 702.693 360.181 701.471 359.473C700.25 358.765 699.314 357.786 698.665 356.535C698.015 355.275 697.69 353.816 697.69 352.158C697.69 350.49 698.015 349.031 698.665 347.78C699.314 346.52 700.25 345.536 701.471 344.828C702.703 344.12 704.172 343.766 705.878 343.766C707.381 343.766 708.69 344.043 709.805 344.595C710.92 345.138 711.793 345.904 712.423 346.893C713.053 347.872 713.387 349.031 713.426 350.369H708.598C708.53 349.816 708.38 349.341 708.147 348.944C707.924 348.546 707.623 348.241 707.245 348.027C706.877 347.814 706.445 347.708 705.951 347.708C705.35 347.708 704.821 347.877 704.366 348.217C703.92 348.546 703.571 349.041 703.318 349.7C703.076 350.35 702.955 351.154 702.955 352.114C702.955 353.074 703.076 353.889 703.318 354.558C703.571 355.217 703.92 355.721 704.366 356.07C704.812 356.419 705.34 356.594 705.951 356.594C706.659 356.594 707.25 356.356 707.725 355.881C708.2 355.396 708.491 354.722 708.598 353.859H713.426C713.378 355.197 713.043 356.371 712.423 357.379C711.802 358.378 710.939 359.153 709.834 359.706C708.729 360.259 707.41 360.535 705.878 360.535ZM715.23 360.229V343.97H720.407V360.229H715.23ZM717.804 342.108C717.077 342.108 716.451 341.866 715.928 341.381C715.404 340.896 715.142 340.31 715.142 339.621C715.142 338.933 715.404 338.351 715.928 337.876C716.451 337.391 717.077 337.149 717.804 337.149C718.541 337.149 719.166 337.391 719.68 337.876C720.204 338.351 720.465 338.933 720.465 339.621C720.465 340.31 720.204 340.896 719.68 341.381C719.166 341.866 718.541 342.108 717.804 342.108ZM732.158 343.97V347.795H721.731V343.97H732.158ZM723.912 360.229V343.155C723.912 341.895 724.145 340.853 724.61 340.029C725.076 339.195 725.725 338.574 726.559 338.167C727.403 337.75 728.377 337.542 729.482 337.542C730.2 337.542 730.878 337.6 731.518 337.716C732.158 337.823 732.629 337.92 732.929 338.007L732.115 341.788C731.921 341.73 731.688 341.682 731.417 341.643C731.155 341.594 730.898 341.57 730.646 341.57C730.045 341.57 729.628 341.706 729.395 341.977C729.172 342.249 729.061 342.617 729.061 343.083V360.229H723.912ZM733.845 360.229V343.97H739.023V360.229H733.845ZM736.42 342.108C735.692 342.108 735.067 341.866 734.543 341.381C734.02 340.896 733.758 340.31 733.758 339.621C733.758 338.933 734.02 338.351 734.543 337.876C735.067 337.391 735.692 337.149 736.42 337.149C737.156 337.149 737.782 337.391 738.296 337.876C738.819 338.351 739.081 338.933 739.081 339.621C739.081 340.31 738.819 340.896 738.296 341.381C737.782 341.866 737.156 342.108 736.42 342.108ZM749.043 360.535C747.327 360.535 745.858 360.181 744.637 359.473C743.415 358.765 742.479 357.786 741.83 356.535C741.18 355.275 740.855 353.816 740.855 352.158C740.855 350.49 741.18 349.031 741.83 347.78C742.479 346.52 743.415 345.536 744.637 344.828C745.868 344.12 747.337 343.766 749.043 343.766C750.546 343.766 751.855 344.043 752.97 344.595C754.085 345.138 754.958 345.904 755.588 346.893C756.218 347.872 756.553 349.031 756.591 350.369H751.763C751.695 349.816 751.545 349.341 751.312 348.944C751.089 348.546 750.789 348.241 750.41 348.027C750.042 347.814 749.611 347.708 749.116 347.708C748.515 347.708 747.986 347.877 747.531 348.217C747.085 348.546 746.736 349.041 746.484 349.7C746.241 350.35 746.12 351.154 746.12 352.114C746.12 353.074 746.241 353.889 746.484 354.558C746.736 355.217 747.085 355.721 747.531 356.07C747.977 356.419 748.505 356.594 749.116 356.594C749.824 356.594 750.415 356.356 750.89 355.881C751.365 355.396 751.656 354.722 751.763 353.859H756.591C756.543 355.197 756.208 356.371 755.588 357.379C754.967 358.378 754.104 359.153 752.999 359.706C751.894 360.259 750.575 360.535 749.043 360.535ZM758.395 360.229V343.97H763.572V360.229H758.395ZM760.969 342.108C760.242 342.108 759.616 341.866 759.093 341.381C758.569 340.896 758.308 340.31 758.308 339.621C758.308 338.933 758.569 338.351 759.093 337.876C759.616 337.391 760.242 337.149 760.969 337.149C761.706 337.149 762.331 337.391 762.845 337.876C763.369 338.351 763.63 338.933 763.63 339.621C763.63 340.31 763.369 340.896 762.845 341.381C762.331 341.866 761.706 342.108 760.969 342.108ZM775.178 343.97V347.795H764.939V343.97H775.178ZM767.077 340.101H772.24V355.11C772.24 355.546 772.347 355.876 772.56 356.099C772.773 356.312 773.108 356.419 773.564 356.419C773.738 356.419 773.937 356.4 774.16 356.361C774.393 356.322 774.572 356.283 774.698 356.245L775.469 359.997C774.887 360.162 774.344 360.278 773.84 360.346C773.346 360.423 772.856 360.462 772.371 360.462C770.645 360.462 769.332 360.055 768.43 359.241C767.528 358.416 767.077 357.234 767.077 355.692V340.101ZM780.181 366.309C779.56 366.318 778.969 366.275 778.407 366.178C777.854 366.081 777.384 365.96 776.996 365.814L778.145 362.047L778.261 362.077C778.988 362.3 779.614 362.377 780.137 362.309C780.671 362.241 781.054 361.912 781.286 361.32L781.475 360.826L775.716 343.97H781.112L784.108 355.576H784.282L787.322 343.97H792.776L786.638 361.8C786.347 362.682 785.931 363.463 785.388 364.142C784.854 364.82 784.161 365.349 783.308 365.727C782.464 366.115 781.422 366.309 780.181 366.309Z" fill="black"/>
<path d="M672.52 400.415C672 400.415 671.586 400.233 671.28 399.868C670.974 399.497 670.867 399.048 670.958 398.521C671.03 398.091 671.238 397.733 671.583 397.446C671.928 397.16 672.322 397.017 672.765 397.017C673.285 397.017 673.699 397.202 674.005 397.573C674.311 397.938 674.418 398.384 674.327 398.911C674.255 399.341 674.047 399.699 673.702 399.985C673.357 400.272 672.963 400.415 672.52 400.415ZM673.712 393.237C673.191 393.237 672.778 393.055 672.472 392.69C672.166 392.319 672.058 391.87 672.149 391.343C672.221 390.913 672.429 390.555 672.774 390.269C673.119 389.982 673.513 389.839 673.956 389.839C674.477 389.839 674.89 390.024 675.196 390.396C675.502 390.76 675.61 391.206 675.518 391.733C675.447 392.163 675.239 392.521 674.893 392.808C674.548 393.094 674.155 393.237 673.712 393.237ZM676.349 400.229L678.165 389.312H681.192L679.376 400.229H676.349ZM679.972 387.896C679.529 387.902 679.161 387.756 678.868 387.456C678.582 387.157 678.464 386.795 678.517 386.372C678.569 385.949 678.77 385.591 679.122 385.298C679.48 384.998 679.88 384.849 680.323 384.849C680.779 384.849 681.147 384.998 681.427 385.298C681.713 385.591 681.837 385.949 681.798 386.372C681.746 386.795 681.544 387.157 681.192 387.456C680.841 387.756 680.434 387.902 679.972 387.896ZM691.495 392.427L688.751 392.593C688.731 392.352 688.663 392.137 688.546 391.948C688.435 391.759 688.269 391.61 688.048 391.499C687.826 391.382 687.55 391.323 687.218 391.323C686.716 391.323 686.274 391.437 685.89 391.665C685.505 391.893 685.287 392.183 685.235 392.534C685.19 392.769 685.248 392.964 685.411 393.12C685.574 393.27 685.896 393.4 686.378 393.511L688.292 393.901C689.321 394.123 690.063 394.487 690.518 394.995C690.974 395.503 691.137 396.167 691.007 396.987C690.89 397.677 690.584 398.283 690.089 398.804C689.601 399.325 688.976 399.728 688.214 400.015C687.459 400.295 686.619 400.438 685.694 400.444C684.21 400.438 683.084 400.132 682.315 399.526C681.547 398.921 681.176 398.104 681.202 397.075L684.161 396.919C684.181 397.362 684.334 397.697 684.62 397.925C684.906 398.146 685.3 398.26 685.802 398.267C686.368 398.273 686.85 398.156 687.247 397.915C687.644 397.674 687.869 397.378 687.921 397.026C687.953 396.779 687.879 396.58 687.696 396.431C687.52 396.274 687.201 396.144 686.739 396.04L684.913 395.669C683.884 395.461 683.145 395.083 682.696 394.536C682.247 393.983 682.094 393.283 682.237 392.437C682.348 391.753 682.628 391.167 683.077 390.679C683.533 390.19 684.119 389.819 684.835 389.565C685.551 389.305 686.362 389.175 687.267 389.175C688.686 389.175 689.754 389.468 690.47 390.054C691.186 390.633 691.528 391.424 691.495 392.427ZM691.026 404.106L692.892 398.013H695.899L693.067 404.106H691.026ZM703.751 400.415C703.23 400.415 702.817 400.233 702.511 399.868C702.205 399.497 702.097 399.048 702.188 398.521C702.26 398.091 702.468 397.733 702.813 397.446C703.158 397.16 703.552 397.017 703.995 397.017C704.516 397.017 704.929 397.202 705.235 397.573C705.541 397.938 705.649 398.384 705.558 398.911C705.486 399.341 705.278 399.699 704.933 399.985C704.587 400.272 704.194 400.415 703.751 400.415ZM704.942 393.237C704.421 393.237 704.008 393.055 703.702 392.69C703.396 392.319 703.289 391.87 703.38 391.343C703.451 390.913 703.66 390.555 704.005 390.269C704.35 389.982 704.744 389.839 705.186 389.839C705.707 389.839 706.121 390.024 706.427 390.396C706.733 390.76 706.84 391.206 706.749 391.733C706.677 392.163 706.469 392.521 706.124 392.808C705.779 393.094 705.385 393.237 704.942 393.237ZM709.727 400.229L708.585 389.312H711.632L712.11 396.655H712.208L715.186 389.312H718.194L718.761 396.606H718.858L721.739 389.312H724.796L720.011 400.229H716.817L716.075 393.364H715.938L712.931 400.229H709.727ZM727.999 393.921L726.954 400.229H723.927L726.339 385.679H729.278L728.36 391.255H728.497C728.842 390.604 729.321 390.096 729.933 389.731C730.545 389.36 731.264 389.175 732.091 389.175C732.852 389.175 733.487 389.341 733.995 389.673C734.503 389.998 734.864 390.467 735.079 391.079C735.294 391.691 735.33 392.427 735.186 393.286L734.024 400.229H730.997L732.061 393.823C732.179 393.153 732.097 392.632 731.817 392.261C731.537 391.883 731.088 391.691 730.47 391.685C730.059 391.685 729.682 391.776 729.337 391.958C728.992 392.134 728.702 392.388 728.468 392.72C728.233 393.052 728.077 393.452 727.999 393.921ZM740.929 400.444C739.802 400.444 738.858 400.213 738.097 399.751C737.335 399.289 736.791 398.634 736.466 397.788C736.147 396.942 736.085 395.939 736.28 394.78C736.462 393.667 736.824 392.69 737.364 391.851C737.911 391.004 738.601 390.347 739.434 389.878C740.274 389.409 741.225 389.175 742.286 389.175C743.022 389.175 743.689 389.292 744.288 389.526C744.893 389.754 745.401 390.103 745.811 390.571C746.228 391.034 746.518 391.613 746.681 392.31C746.85 393 746.856 393.81 746.7 394.741L746.563 395.542H737.354L737.657 393.677H745.411L743.917 394.146C744.015 393.586 744.024 393.104 743.946 392.7C743.875 392.297 743.705 391.984 743.438 391.763C743.171 391.541 742.794 391.431 742.306 391.431C741.804 391.431 741.345 391.548 740.929 391.782C740.518 392.01 740.177 392.323 739.903 392.72C739.63 393.117 739.451 393.569 739.366 394.077L739.151 395.396C739.06 395.981 739.067 396.483 739.171 396.899C739.275 397.316 739.483 397.635 739.796 397.856C740.115 398.078 740.545 398.188 741.085 398.188C741.443 398.188 741.772 398.14 742.071 398.042C742.377 397.938 742.644 397.791 742.872 397.603C743.106 397.407 743.298 397.176 743.448 396.909L746.212 397.134C745.964 397.804 745.597 398.387 745.108 398.882C744.62 399.377 744.024 399.761 743.321 400.034C742.625 400.308 741.827 400.444 740.929 400.444ZM747.091 400.229L748.907 389.312H751.837L751.524 391.226H751.642C751.948 390.549 752.364 390.037 752.892 389.692C753.425 389.341 753.995 389.165 754.601 389.165C754.757 389.165 754.916 389.175 755.079 389.194C755.248 389.207 755.401 389.227 755.538 389.253L755.089 391.948C754.952 391.903 754.76 391.867 754.513 391.841C754.272 391.808 754.041 391.792 753.819 391.792C753.383 391.792 752.973 391.89 752.589 392.085C752.211 392.274 751.892 392.541 751.632 392.886C751.378 393.224 751.212 393.615 751.134 394.058L750.118 400.229H747.091ZM759.249 400.444C758.123 400.444 757.179 400.213 756.417 399.751C755.655 399.289 755.112 398.634 754.786 397.788C754.467 396.942 754.405 395.939 754.601 394.78C754.783 393.667 755.144 392.69 755.684 391.851C756.231 391.004 756.921 390.347 757.755 389.878C758.595 389.409 759.545 389.175 760.606 389.175C761.342 389.175 762.009 389.292 762.608 389.526C763.214 389.754 763.722 390.103 764.132 390.571C764.548 391.034 764.838 391.613 765.001 392.31C765.17 393 765.177 393.81 765.02 394.741L764.884 395.542H755.675L755.977 393.677H763.731L762.237 394.146C762.335 393.586 762.345 393.104 762.267 392.7C762.195 392.297 762.026 391.984 761.759 391.763C761.492 391.541 761.114 391.431 760.626 391.431C760.125 391.431 759.666 391.548 759.249 391.782C758.839 392.01 758.497 392.323 758.224 392.72C757.95 393.117 757.771 393.569 757.686 394.077L757.472 395.396C757.38 395.981 757.387 396.483 757.491 396.899C757.595 397.316 757.804 397.635 758.116 397.856C758.435 398.078 758.865 398.188 759.405 398.188C759.763 398.188 760.092 398.14 760.392 398.042C760.698 397.938 760.964 397.791 761.192 397.603C761.427 397.407 761.619 397.176 761.768 396.909L764.532 397.134C764.285 397.804 763.917 398.387 763.429 398.882C762.94 399.377 762.345 399.761 761.642 400.034C760.945 400.308 760.147 400.444 759.249 400.444Z" fill="#22C55E"/>
<rect x="781.54" y="333.383" width="213.46" height="182.848" fill="#AAAAAA"/>
<path d="M842.24 420.674C840.291 420.674 838.531 420.242 836.96 419.379C835.399 418.516 834.163 417.261 833.252 415.613C832.35 413.955 831.899 411.938 831.899 409.562C831.899 407.177 832.35 405.156 833.252 403.498C834.163 401.83 835.399 400.57 836.96 399.716C838.531 398.854 840.291 398.422 842.24 398.422C844.179 398.422 845.929 398.854 847.49 399.716C849.051 400.57 850.287 401.83 851.199 403.498C852.11 405.156 852.566 407.177 852.566 409.562C852.566 411.938 852.11 413.955 851.199 415.613C850.287 417.27 849.051 418.531 847.49 419.394C845.929 420.247 844.179 420.674 842.24 420.674ZM842.24 416.092C843.277 416.092 844.169 415.84 844.916 415.336C845.662 414.832 846.234 414.095 846.632 413.126C847.029 412.156 847.228 410.968 847.228 409.562C847.228 408.147 847.029 406.954 846.632 405.985C846.234 405.005 845.662 404.264 844.916 403.76C844.169 403.255 843.277 403.003 842.24 403.003C841.202 403.003 840.31 403.255 839.564 403.76C838.817 404.264 838.24 405.005 837.833 405.985C837.436 406.954 837.237 408.147 837.237 409.562C837.237 410.968 837.436 412.156 837.833 413.126C838.24 414.095 838.817 414.832 839.564 415.336C840.31 415.84 841.202 416.092 842.24 416.092ZM854.791 420.383V404.123H859.808V407.105H859.983C860.274 406.019 860.754 405.219 861.423 404.705C862.101 404.181 862.882 403.92 863.764 403.92C864.007 403.92 864.254 403.934 864.506 403.963C864.768 403.992 865.005 404.041 865.218 404.109V408.588C864.966 408.501 864.642 408.438 864.244 408.399C863.847 408.35 863.493 408.326 863.182 408.326C862.572 408.326 862.019 408.462 861.524 408.733C861.04 409.005 860.657 409.383 860.375 409.868C860.104 410.353 859.968 410.915 859.968 411.555V420.383H854.791ZM871.545 420.616C870.352 420.616 869.262 420.305 868.273 419.685C867.293 419.064 866.513 418.133 865.931 416.892C865.349 415.651 865.058 414.11 865.058 412.268C865.058 410.357 865.359 408.787 865.96 407.555C866.571 406.324 867.366 405.413 868.345 404.821C869.325 404.22 870.381 403.92 871.516 403.92C872.369 403.92 873.096 404.065 873.697 404.356C874.308 404.647 874.812 405.025 875.21 405.49C875.607 405.946 875.908 406.421 876.112 406.916H876.213V398.713H881.391V420.383H876.286V417.736H876.112C875.889 418.24 875.578 418.71 875.181 419.147C874.783 419.583 874.284 419.937 873.683 420.208C873.082 420.48 872.369 420.616 871.545 420.616ZM873.334 416.587C873.964 416.587 874.502 416.408 874.948 416.049C875.394 415.69 875.738 415.191 875.981 414.551C876.223 413.901 876.344 413.14 876.344 412.268C876.344 411.376 876.223 410.61 875.981 409.97C875.748 409.32 875.404 408.821 874.948 408.472C874.502 408.123 873.964 407.948 873.334 407.948C872.704 407.948 872.165 408.127 871.719 408.486C871.273 408.845 870.934 409.349 870.701 409.999C870.478 410.639 870.367 411.395 870.367 412.268C870.367 413.13 870.483 413.887 870.716 414.536C870.949 415.186 871.283 415.69 871.719 416.049C872.165 416.408 872.704 416.587 873.334 416.587ZM891.455 420.688C889.749 420.688 888.28 420.354 887.048 419.685C885.817 419.006 884.872 418.041 884.212 416.791C883.563 415.54 883.238 414.047 883.238 412.311C883.238 410.634 883.568 409.17 884.227 407.919C884.886 406.659 885.817 405.679 887.019 404.981C888.221 404.273 889.637 403.92 891.266 403.92C892.42 403.92 893.477 404.104 894.436 404.472C895.406 404.831 896.24 405.364 896.938 406.072C897.646 406.77 898.189 407.633 898.567 408.661C898.955 409.688 899.148 410.876 899.148 412.224V413.504H885.027V410.522H896.691L894.276 411.22C894.276 410.474 894.165 409.839 893.942 409.315C893.719 408.782 893.389 408.37 892.953 408.079C892.517 407.788 891.974 407.643 891.324 407.643C890.674 407.643 890.127 407.788 889.681 408.079C889.235 408.37 888.895 408.777 888.663 409.301C888.43 409.815 888.314 410.425 888.314 411.133V413.271C888.314 414.027 888.444 414.682 888.706 415.234C888.978 415.787 889.356 416.214 889.841 416.514C890.335 416.805 890.902 416.951 891.542 416.951C891.988 416.951 892.395 416.888 892.764 416.761C893.132 416.635 893.447 416.451 893.709 416.209C893.971 415.957 894.17 415.656 894.306 415.307L899.047 415.438C898.853 416.505 898.426 417.43 897.767 418.216C897.108 419.001 896.245 419.612 895.178 420.048C894.112 420.475 892.871 420.688 891.455 420.688ZM900.923 420.383V404.123H905.94V407.105H906.115C906.406 406.019 906.886 405.219 907.555 404.705C908.233 404.181 909.014 403.92 909.896 403.92C910.139 403.92 910.386 403.934 910.638 403.963C910.9 403.992 911.137 404.041 911.351 404.109V408.588C911.098 408.501 910.774 408.438 910.376 408.399C909.979 408.35 909.625 408.326 909.314 408.326C908.704 408.326 908.151 408.462 907.656 408.733C907.172 409.005 906.789 409.383 906.508 409.868C906.236 410.353 906.1 410.915 906.1 411.555V420.383H900.923ZM925.807 420.688C924.1 420.688 922.636 420.339 921.415 419.641C920.193 418.933 919.252 417.954 918.593 416.703C917.944 415.443 917.619 413.979 917.619 412.311C917.619 410.634 917.944 409.17 918.593 407.919C919.252 406.659 920.193 405.679 921.415 404.981C922.636 404.273 924.1 403.92 925.807 403.92C927.513 403.92 928.977 404.273 930.199 404.981C931.43 405.679 932.371 406.659 933.02 407.919C933.68 409.17 934.009 410.634 934.009 412.311C934.009 413.979 933.68 415.443 933.02 416.703C932.371 417.954 931.43 418.933 930.199 419.641C928.977 420.339 927.513 420.688 925.807 420.688ZM925.836 416.747C926.466 416.747 926.994 416.563 927.421 416.194C927.848 415.826 928.173 415.307 928.396 414.638C928.628 413.959 928.745 413.174 928.745 412.282C928.745 411.38 928.628 410.6 928.396 409.941C928.173 409.281 927.848 408.772 927.421 408.413C926.994 408.045 926.466 407.861 925.836 407.861C925.206 407.861 924.668 408.045 924.222 408.413C923.776 408.772 923.441 409.281 923.218 409.941C922.995 410.6 922.884 411.38 922.884 412.282C922.884 413.174 922.995 413.959 923.218 414.638C923.441 415.307 923.776 415.826 924.222 416.194C924.668 416.563 925.206 416.747 925.836 416.747ZM945.164 404.123V407.948H934.736V404.123H945.164ZM936.918 420.383V403.309C936.918 402.048 937.151 401.006 937.616 400.182C938.081 399.348 938.731 398.728 939.565 398.32C940.408 397.903 941.383 397.695 942.488 397.695C943.206 397.695 943.884 397.753 944.524 397.869C945.164 397.976 945.634 398.073 945.935 398.16L945.121 401.942C944.927 401.883 944.694 401.835 944.422 401.796C944.161 401.748 943.904 401.723 943.652 401.723C943.051 401.723 942.634 401.859 942.401 402.131C942.178 402.402 942.066 402.771 942.066 403.236V420.383H936.918ZM808.004 450.383H802.376L809.706 428.713H816.658L823.973 450.383H818.359L813.269 434.167H813.094L808.004 450.383ZM807.277 441.846H819.043V445.831H807.277V441.846ZM825.471 456.462V434.123H830.59V436.916H830.765C830.968 436.421 831.264 435.946 831.652 435.49C832.05 435.025 832.549 434.647 833.15 434.356C833.761 434.065 834.498 433.92 835.361 433.92C836.495 433.92 837.552 434.22 838.531 434.821C839.51 435.413 840.301 436.324 840.902 437.555C841.513 438.787 841.818 440.357 841.818 442.268C841.818 444.11 841.527 445.651 840.945 446.892C840.364 448.133 839.578 449.064 838.589 449.685C837.61 450.305 836.519 450.616 835.317 450.616C834.503 450.616 833.795 450.48 833.194 450.208C832.593 449.937 832.088 449.583 831.681 449.147C831.284 448.71 830.978 448.24 830.765 447.736H830.649V456.462H825.471ZM833.528 446.587C834.168 446.587 834.706 446.408 835.142 446.049C835.588 445.69 835.923 445.186 836.146 444.536C836.379 443.887 836.495 443.13 836.495 442.268C836.495 441.395 836.379 440.639 836.146 439.999C835.923 439.349 835.593 438.845 835.157 438.486C834.721 438.127 834.178 437.948 833.528 437.948C832.898 437.948 832.36 438.123 831.914 438.472C831.468 438.821 831.124 439.32 830.881 439.97C830.649 440.61 830.532 441.376 830.532 442.268C830.532 443.14 830.649 443.901 830.881 444.551C831.124 445.191 831.468 445.69 831.914 446.049C832.36 446.408 832.898 446.587 833.528 446.587ZM843.65 456.462V434.123H848.77V436.916H848.944C849.148 436.421 849.444 435.946 849.831 435.49C850.229 435.025 850.728 434.647 851.329 434.356C851.94 434.065 852.677 433.92 853.54 433.92C854.674 433.92 855.731 434.22 856.711 434.821C857.69 435.413 858.48 436.324 859.081 437.555C859.692 438.787 859.997 440.357 859.997 442.268C859.997 444.11 859.706 445.651 859.125 446.892C858.543 448.133 857.758 449.064 856.769 449.685C855.789 450.305 854.699 450.616 853.496 450.616C852.682 450.616 851.974 450.48 851.373 450.208C850.772 449.937 850.268 449.583 849.861 449.147C849.463 448.71 849.158 448.24 848.944 447.736H848.828V456.462H843.65ZM851.708 446.587C852.347 446.587 852.886 446.408 853.322 446.049C853.768 445.69 854.102 445.186 854.325 444.536C854.558 443.887 854.674 443.13 854.674 442.268C854.674 441.395 854.558 440.639 854.325 439.999C854.102 439.349 853.773 438.845 853.336 438.486C852.9 438.127 852.357 437.948 851.708 437.948C851.077 437.948 850.539 438.123 850.093 438.472C849.647 438.821 849.303 439.32 849.061 439.97C848.828 440.61 848.712 441.376 848.712 442.268C848.712 443.14 848.828 443.901 849.061 444.551C849.303 445.191 849.647 445.69 850.093 446.049C850.539 446.408 851.077 446.587 851.708 446.587ZM869.436 450.688C867.73 450.688 866.261 450.354 865.029 449.685C863.798 449.006 862.853 448.041 862.193 446.791C861.544 445.54 861.219 444.047 861.219 442.311C861.219 440.634 861.549 439.17 862.208 437.919C862.867 436.659 863.798 435.679 865 434.981C866.203 434.273 867.618 433.92 869.247 433.92C870.401 433.92 871.458 434.104 872.418 434.472C873.387 434.831 874.221 435.364 874.919 436.072C875.627 436.77 876.17 437.633 876.548 438.661C876.936 439.688 877.13 440.876 877.13 442.224V443.504H863.008V440.522H874.672L872.258 441.22C872.258 440.474 872.146 439.839 871.923 439.315C871.7 438.782 871.37 438.37 870.934 438.079C870.498 437.788 869.955 437.643 869.305 437.643C868.656 437.643 868.108 437.788 867.662 438.079C867.216 438.37 866.876 438.777 866.644 439.301C866.411 439.815 866.295 440.425 866.295 441.133V443.271C866.295 444.027 866.426 444.682 866.687 445.234C866.959 445.787 867.337 446.214 867.822 446.514C868.316 446.805 868.883 446.951 869.523 446.951C869.969 446.951 870.377 446.888 870.745 446.761C871.113 446.635 871.429 446.451 871.69 446.209C871.952 445.957 872.151 445.656 872.287 445.307L877.028 445.438C876.834 446.505 876.407 447.43 875.748 448.216C875.089 449.001 874.226 449.612 873.159 450.048C872.093 450.475 870.852 450.688 869.436 450.688ZM883.5 450.674C882.462 450.674 881.536 450.499 880.722 450.15C879.917 449.791 879.287 449.258 878.831 448.55C878.375 447.843 878.148 446.951 878.148 445.874C878.148 444.973 878.303 444.212 878.613 443.591C878.933 442.97 879.369 442.466 879.922 442.078C880.484 441.691 881.129 441.395 881.856 441.191C882.583 440.978 883.359 440.842 884.183 440.784C885.104 440.697 885.846 440.61 886.408 440.522C886.971 440.435 887.378 440.299 887.63 440.115C887.892 439.931 888.023 439.674 888.023 439.344V439.272C888.023 438.738 887.838 438.321 887.47 438.021C887.102 437.72 886.597 437.57 885.958 437.57C885.269 437.57 884.716 437.72 884.3 438.021C883.892 438.321 883.631 438.729 883.514 439.242L878.758 439.082C878.894 438.094 879.253 437.211 879.835 436.436C880.426 435.65 881.236 435.035 882.263 434.589C883.301 434.143 884.552 433.92 886.016 433.92C887.043 433.92 887.994 434.041 888.866 434.283C889.739 434.526 890.5 434.879 891.15 435.345C891.799 435.81 892.303 436.377 892.662 437.046C893.021 437.715 893.2 438.477 893.2 439.33V450.383H888.328V448.099H888.212C887.911 448.662 887.538 449.132 887.092 449.51C886.646 449.888 886.122 450.179 885.521 450.383C884.93 450.577 884.256 450.674 883.5 450.674ZM885.085 447.27C885.638 447.27 886.137 447.159 886.583 446.936C887.039 446.703 887.397 446.388 887.659 445.991C887.931 445.593 888.066 445.128 888.066 444.594V443.067C887.921 443.145 887.742 443.218 887.528 443.286C887.325 443.344 887.097 443.402 886.845 443.46C886.593 443.518 886.336 443.567 886.074 443.606C885.822 443.644 885.579 443.683 885.347 443.722C884.852 443.79 884.43 443.911 884.081 444.085C883.742 444.25 883.485 444.459 883.311 444.711C883.136 444.963 883.049 445.268 883.049 445.627C883.049 446.16 883.238 446.568 883.616 446.849C883.994 447.13 884.484 447.27 885.085 447.27ZM895.658 450.383V434.123H900.676V437.105H900.85C901.141 436.019 901.621 435.219 902.29 434.705C902.969 434.181 903.749 433.92 904.631 433.92C904.874 433.92 905.121 433.934 905.373 433.963C905.635 433.992 905.872 434.041 906.086 434.109V438.588C905.834 438.501 905.509 438.438 905.111 438.399C904.714 438.35 904.36 438.326 904.05 438.326C903.439 438.326 902.886 438.462 902.392 438.733C901.907 439.005 901.524 439.383 901.243 439.868C900.971 440.353 900.836 440.915 900.836 441.555V450.383H895.658ZM911.365 450.674C910.328 450.674 909.402 450.499 908.587 450.15C907.782 449.791 907.152 449.258 906.697 448.55C906.241 447.843 906.013 446.951 906.013 445.874C906.013 444.973 906.168 444.212 906.478 443.591C906.798 442.97 907.235 442.466 907.787 442.078C908.35 441.691 908.994 441.395 909.722 441.191C910.449 440.978 911.224 440.842 912.049 440.784C912.97 440.697 913.711 440.61 914.274 440.522C914.836 440.435 915.243 440.299 915.495 440.115C915.757 439.931 915.888 439.674 915.888 439.344V439.272C915.888 438.738 915.704 438.321 915.335 438.021C914.967 437.72 914.463 437.57 913.823 437.57C913.135 437.57 912.582 437.72 912.165 438.021C911.758 438.321 911.496 438.729 911.38 439.242L906.624 439.082C906.76 438.094 907.118 437.211 907.7 436.436C908.292 435.65 909.101 435.035 910.129 434.589C911.166 434.143 912.417 433.92 913.881 433.92C914.909 433.92 915.859 434.041 916.732 434.283C917.604 434.526 918.365 434.879 919.015 435.345C919.665 435.81 920.169 436.377 920.527 437.046C920.886 437.715 921.066 438.477 921.066 439.33V450.383H916.193V448.099H916.077C915.777 448.662 915.403 449.132 914.957 449.51C914.511 449.888 913.988 450.179 913.387 450.383C912.795 450.577 912.121 450.674 911.365 450.674ZM912.95 447.27C913.503 447.27 914.002 447.159 914.448 446.936C914.904 446.703 915.263 446.388 915.524 445.991C915.796 445.593 915.932 445.128 915.932 444.594V443.067C915.786 443.145 915.607 443.218 915.394 443.286C915.19 443.344 914.962 443.402 914.71 443.46C914.458 443.518 914.201 443.567 913.939 443.606C913.687 443.644 913.445 443.683 913.212 443.722C912.718 443.79 912.296 443.911 911.947 444.085C911.607 444.25 911.351 444.459 911.176 444.711C911.001 444.963 910.914 445.268 910.914 445.627C910.914 446.16 911.103 446.568 911.481 446.849C911.86 447.13 912.349 447.27 912.95 447.27ZM928.701 441.119V450.383H923.523V434.123H928.643V437.119H928.774C929.142 436.13 929.729 435.35 930.533 434.778C931.348 434.206 932.356 433.92 933.558 433.92C934.703 433.92 935.696 434.176 936.54 434.69C937.383 435.195 938.038 435.907 938.503 436.828C938.969 437.74 939.201 438.806 939.201 440.028V450.383H934.024V441.046C934.024 440.144 933.796 439.441 933.34 438.937C932.885 438.423 932.245 438.166 931.421 438.166C930.878 438.166 930.403 438.283 929.995 438.515C929.588 438.748 929.268 439.087 929.035 439.533C928.812 439.97 928.701 440.498 928.701 441.119ZM949.222 450.688C947.506 450.688 946.037 450.334 944.815 449.627C943.593 448.919 942.658 447.94 942.008 446.689C941.359 445.428 941.034 443.969 941.034 442.311C941.034 440.644 941.359 439.184 942.008 437.934C942.658 436.673 943.593 435.689 944.815 434.981C946.046 434.273 947.515 433.92 949.222 433.92C950.725 433.92 952.034 434.196 953.149 434.749C954.264 435.291 955.136 436.057 955.766 437.046C956.397 438.026 956.731 439.184 956.77 440.522H951.941C951.874 439.97 951.723 439.495 951.491 439.097C951.268 438.7 950.967 438.394 950.589 438.181C950.22 437.967 949.789 437.861 949.295 437.861C948.693 437.861 948.165 438.031 947.709 438.37C947.263 438.7 946.914 439.194 946.662 439.853C946.42 440.503 946.299 441.308 946.299 442.268C946.299 443.227 946.42 444.042 946.662 444.711C946.914 445.37 947.263 445.874 947.709 446.223C948.155 446.572 948.684 446.747 949.295 446.747C950.002 446.747 950.594 446.509 951.069 446.034C951.544 445.55 951.835 444.876 951.941 444.013H956.77C956.721 445.351 956.387 446.524 955.766 447.532C955.146 448.531 954.283 449.307 953.178 449.859C952.072 450.412 950.754 450.688 949.222 450.688ZM966.18 450.688C964.473 450.688 963.004 450.354 961.773 449.685C960.542 449.006 959.596 448.041 958.937 446.791C958.287 445.54 957.962 444.047 957.962 442.311C957.962 440.634 958.292 439.17 958.951 437.919C959.611 436.659 960.542 435.679 961.744 434.981C962.946 434.273 964.362 433.92 965.991 433.92C967.144 433.92 968.201 434.104 969.161 434.472C970.131 434.831 970.964 435.364 971.662 436.072C972.37 436.77 972.913 437.633 973.291 438.661C973.679 439.688 973.873 440.876 973.873 442.224V443.504H959.751V440.522H971.415L969.001 441.22C969.001 440.474 968.89 439.839 968.667 439.315C968.444 438.782 968.114 438.37 967.678 438.079C967.241 437.788 966.698 437.643 966.049 437.643C965.399 437.643 964.851 437.788 964.405 438.079C963.959 438.37 963.62 438.777 963.387 439.301C963.155 439.815 963.038 440.425 963.038 441.133V443.271C963.038 444.027 963.169 444.682 963.431 445.234C963.702 445.787 964.08 446.214 964.565 446.514C965.06 446.805 965.627 446.951 966.267 446.951C966.713 446.951 967.12 446.888 967.488 446.761C967.857 446.635 968.172 446.451 968.434 446.209C968.696 445.957 968.894 445.656 969.03 445.307L973.771 445.438C973.577 446.505 973.151 447.43 972.491 448.216C971.832 449.001 970.969 449.612 969.903 450.048C968.836 450.475 967.595 450.688 966.18 450.688Z" fill="black"/>
</g>
<rect x="438.184" y="191.076" width="213.46" height="182.848" fill="#FF00E6"/>
<path d="M495.101 278.367C493.142 278.367 491.387 277.936 489.836 277.073C488.294 276.21 487.073 274.954 486.171 273.306C485.279 271.648 484.833 269.631 484.833 267.256C484.833 264.871 485.284 262.849 486.185 261.191C487.097 259.523 488.328 258.263 489.879 257.41C491.44 256.547 493.181 256.115 495.101 256.115C496.409 256.115 497.621 256.3 498.736 256.668C499.851 257.027 500.831 257.555 501.674 258.253C502.527 258.951 503.216 259.805 503.739 260.813C504.263 261.821 504.593 262.975 504.728 264.274H499.435C499.367 263.731 499.221 263.242 498.998 262.805C498.785 262.359 498.494 261.981 498.126 261.671C497.767 261.361 497.345 261.123 496.86 260.958C496.376 260.784 495.833 260.697 495.231 260.697C494.184 260.697 493.283 260.958 492.526 261.482C491.77 261.996 491.188 262.742 490.781 263.722C490.374 264.691 490.17 265.869 490.17 267.256C490.17 268.681 490.374 269.883 490.781 270.863C491.198 271.832 491.78 272.564 492.526 273.059C493.283 273.543 494.179 273.786 495.217 273.786C495.789 273.786 496.313 273.713 496.788 273.568C497.263 273.413 497.68 273.194 498.038 272.913C498.407 272.622 498.707 272.273 498.94 271.866C499.182 271.449 499.347 270.979 499.435 270.455H504.728C504.631 271.415 504.355 272.365 503.899 273.306C503.444 274.246 502.809 275.1 501.994 275.866C501.189 276.622 500.21 277.228 499.056 277.683C497.903 278.139 496.584 278.367 495.101 278.367ZM511.477 278.367C510.439 278.367 509.513 278.193 508.699 277.843C507.894 277.485 507.264 276.951 506.808 276.244C506.352 275.536 506.125 274.644 506.125 273.568C506.125 272.666 506.28 271.905 506.59 271.284C506.91 270.664 507.346 270.16 507.899 269.772C508.461 269.384 509.106 269.088 509.833 268.885C510.56 268.671 511.336 268.536 512.16 268.477C513.081 268.39 513.823 268.303 514.385 268.216C514.948 268.128 515.355 267.993 515.607 267.808C515.869 267.624 516 267.367 516 267.038V266.965C516 266.432 515.815 266.015 515.447 265.714C515.079 265.414 514.574 265.263 513.934 265.263C513.246 265.263 512.693 265.414 512.276 265.714C511.869 266.015 511.607 266.422 511.491 266.936L506.735 266.776C506.871 265.787 507.23 264.905 507.812 264.129C508.403 263.344 509.213 262.728 510.24 262.282C511.278 261.836 512.529 261.613 513.993 261.613C515.02 261.613 515.971 261.734 516.843 261.976C517.716 262.219 518.477 262.573 519.126 263.038C519.776 263.504 520.28 264.071 520.639 264.74C520.998 265.409 521.177 266.17 521.177 267.023V278.076H516.305V275.793H516.189C515.888 276.355 515.515 276.825 515.069 277.204C514.623 277.582 514.099 277.873 513.498 278.076C512.907 278.27 512.233 278.367 511.477 278.367ZM513.062 274.964C513.614 274.964 514.114 274.852 514.56 274.629C515.016 274.397 515.374 274.082 515.636 273.684C515.908 273.287 516.043 272.821 516.043 272.288V270.761C515.898 270.838 515.718 270.911 515.505 270.979C515.302 271.037 515.074 271.095 514.822 271.153C514.57 271.212 514.313 271.26 514.051 271.299C513.799 271.338 513.556 271.376 513.324 271.415C512.829 271.483 512.407 271.604 512.058 271.779C511.719 271.944 511.462 272.152 511.288 272.404C511.113 272.656 511.026 272.962 511.026 273.32C511.026 273.854 511.215 274.261 511.593 274.542C511.971 274.823 512.461 274.964 513.062 274.964ZM537.8 266.79L533.074 266.907C533.006 266.403 532.744 265.986 532.288 265.656C531.842 265.326 531.28 265.162 530.601 265.162C530 265.162 529.491 265.283 529.074 265.525C528.667 265.758 528.463 266.078 528.463 266.485C528.463 266.805 528.589 267.086 528.842 267.329C529.103 267.571 529.578 267.76 530.267 267.896L533.394 268.477C535.013 268.778 536.22 269.287 537.015 270.005C537.81 270.722 538.208 271.677 538.208 272.87C538.208 273.985 537.883 274.954 537.233 275.778C536.584 276.602 535.692 277.242 534.557 277.698C533.432 278.154 532.143 278.382 530.689 278.382C528.371 278.382 526.544 277.906 525.206 276.956C523.868 275.996 523.102 274.712 522.908 273.102L528.013 272.986C528.129 273.577 528.425 274.028 528.9 274.338C529.375 274.639 529.976 274.789 530.703 274.789C531.372 274.789 531.915 274.668 532.332 274.426C532.749 274.174 532.957 273.849 532.957 273.451C532.957 272.763 532.298 272.293 530.979 272.041L528.143 271.488C526.524 271.178 525.312 270.63 524.508 269.845C523.713 269.059 523.315 268.041 523.315 266.79C523.315 265.695 523.606 264.764 524.188 263.998C524.779 263.232 525.613 262.645 526.689 262.238C527.765 261.821 529.04 261.613 530.514 261.613C532.715 261.613 534.446 262.073 535.706 262.995C536.976 263.916 537.674 265.181 537.8 266.79ZM547.501 278.382C545.785 278.382 544.316 278.028 543.094 277.32C541.873 276.612 540.937 275.633 540.287 274.382C539.638 273.122 539.313 271.662 539.313 270.005C539.313 268.337 539.638 266.878 540.287 265.627C540.937 264.366 541.873 263.382 543.094 262.675C544.326 261.967 545.794 261.613 547.501 261.613C549.004 261.613 550.313 261.889 551.428 262.442C552.543 262.985 553.415 263.751 554.045 264.74C554.676 265.719 555.01 266.878 555.049 268.216H550.221C550.153 267.663 550.002 267.188 549.77 266.79C549.547 266.393 549.246 266.087 548.868 265.874C548.5 265.661 548.068 265.554 547.574 265.554C546.972 265.554 546.444 265.724 545.988 266.063C545.542 266.393 545.193 266.887 544.941 267.547C544.699 268.196 544.578 269.001 544.578 269.961C544.578 270.921 544.699 271.735 544.941 272.404C545.193 273.064 545.542 273.568 545.988 273.917C546.434 274.266 546.963 274.44 547.574 274.44C548.281 274.44 548.873 274.203 549.348 273.728C549.823 273.243 550.114 272.569 550.221 271.706H555.049C555 273.044 554.666 274.217 554.045 275.226C553.425 276.224 552.562 277 551.457 277.553C550.351 278.105 549.033 278.382 547.501 278.382ZM561.448 278.367C560.411 278.367 559.485 278.193 558.67 277.843C557.866 277.485 557.235 276.951 556.78 276.244C556.324 275.536 556.096 274.644 556.096 273.568C556.096 272.666 556.251 271.905 556.561 271.284C556.881 270.664 557.318 270.16 557.87 269.772C558.433 269.384 559.078 269.088 559.805 268.885C560.532 268.671 561.308 268.536 562.132 268.477C563.053 268.39 563.794 268.303 564.357 268.216C564.919 268.128 565.326 267.993 565.578 267.808C565.84 267.624 565.971 267.367 565.971 267.038V266.965C565.971 266.432 565.787 266.015 565.418 265.714C565.05 265.414 564.546 265.263 563.906 265.263C563.218 265.263 562.665 265.414 562.248 265.714C561.841 266.015 561.579 266.422 561.463 266.936L556.707 266.776C556.843 265.787 557.201 264.905 557.783 264.129C558.375 263.344 559.184 262.728 560.212 262.282C561.249 261.836 562.5 261.613 563.964 261.613C564.992 261.613 565.942 261.734 566.815 261.976C567.687 262.219 568.448 262.573 569.098 263.038C569.748 263.504 570.252 264.071 570.611 264.74C570.969 265.409 571.149 266.17 571.149 267.023V278.076H566.277V275.793H566.16C565.86 276.355 565.486 276.825 565.04 277.204C564.594 277.582 564.071 277.873 563.47 278.076C562.878 278.27 562.204 278.367 561.448 278.367ZM563.033 274.964C563.586 274.964 564.085 274.852 564.531 274.629C564.987 274.397 565.346 274.082 565.608 273.684C565.879 273.287 566.015 272.821 566.015 272.288V270.761C565.869 270.838 565.69 270.911 565.477 270.979C565.273 271.037 565.045 271.095 564.793 271.153C564.541 271.212 564.284 271.26 564.022 271.299C563.77 271.338 563.528 271.376 563.295 271.415C562.801 271.483 562.379 271.604 562.03 271.779C561.69 271.944 561.434 272.152 561.259 272.404C561.085 272.656 560.997 272.962 560.997 273.32C560.997 273.854 561.186 274.261 561.564 274.542C561.943 274.823 562.432 274.964 563.033 274.964ZM579.482 278.309C578.289 278.309 577.199 277.999 576.21 277.378C575.231 276.758 574.45 275.827 573.868 274.586C573.287 273.345 572.996 271.803 572.996 269.961C572.996 268.051 573.296 266.48 573.897 265.249C574.508 264.017 575.303 263.106 576.282 262.515C577.262 261.913 578.319 261.613 579.453 261.613C580.306 261.613 581.033 261.758 581.635 262.049C582.245 262.34 582.75 262.718 583.147 263.184C583.545 263.639 583.845 264.114 584.049 264.609H584.151V256.406H589.328V278.076H584.223V275.429H584.049C583.826 275.933 583.515 276.404 583.118 276.84C582.72 277.276 582.221 277.63 581.62 277.902C581.019 278.173 580.306 278.309 579.482 278.309ZM581.271 274.28C581.901 274.28 582.439 274.101 582.885 273.742C583.331 273.383 583.675 272.884 583.918 272.244C584.16 271.595 584.281 270.834 584.281 269.961C584.281 269.069 584.16 268.303 583.918 267.663C583.685 267.013 583.341 266.514 582.885 266.165C582.439 265.816 581.901 265.641 581.271 265.641C580.641 265.641 580.103 265.821 579.657 266.18C579.211 266.538 578.871 267.042 578.639 267.692C578.416 268.332 578.304 269.088 578.304 269.961C578.304 270.824 578.42 271.58 578.653 272.23C578.886 272.879 579.22 273.383 579.657 273.742C580.103 274.101 580.641 274.28 581.271 274.28ZM599.392 278.382C597.686 278.382 596.217 278.047 594.985 277.378C593.754 276.699 592.809 275.735 592.149 274.484C591.5 273.233 591.175 271.74 591.175 270.005C591.175 268.327 591.505 266.863 592.164 265.612C592.823 264.352 593.754 263.373 594.956 262.675C596.159 261.967 597.574 261.613 599.203 261.613C600.357 261.613 601.414 261.797 602.374 262.166C603.343 262.524 604.177 263.058 604.875 263.765C605.583 264.463 606.126 265.326 606.504 266.354C606.892 267.382 607.086 268.57 607.086 269.917V271.197H592.964V268.216H604.628L602.214 268.914C602.214 268.167 602.102 267.532 601.879 267.009C601.656 266.475 601.326 266.063 600.89 265.772C600.454 265.481 599.911 265.336 599.261 265.336C598.612 265.336 598.064 265.481 597.618 265.772C597.172 266.063 596.832 266.47 596.6 266.994C596.367 267.508 596.251 268.119 596.251 268.826V270.964C596.251 271.721 596.382 272.375 596.643 272.928C596.915 273.48 597.293 273.907 597.778 274.208C598.272 274.498 598.839 274.644 599.479 274.644C599.925 274.644 600.333 274.581 600.701 274.455C601.069 274.329 601.385 274.145 601.646 273.902C601.908 273.65 602.107 273.35 602.243 273L606.984 273.131C606.79 274.198 606.363 275.124 605.704 275.909C605.045 276.695 604.182 277.305 603.115 277.742C602.049 278.168 600.808 278.382 599.392 278.382ZM500.074 308.076V286.406H505.296V303.815H514.327V308.076H500.074ZM520.814 308.367C519.776 308.367 518.85 308.193 518.036 307.843C517.231 307.485 516.601 306.951 516.145 306.244C515.689 305.536 515.462 304.644 515.462 303.568C515.462 302.666 515.617 301.905 515.927 301.284C516.247 300.664 516.683 300.16 517.236 299.772C517.798 299.384 518.443 299.088 519.17 298.885C519.897 298.671 520.673 298.536 521.497 298.477C522.418 298.39 523.16 298.303 523.722 298.216C524.285 298.128 524.692 297.993 524.944 297.808C525.206 297.624 525.337 297.367 525.337 297.038V296.965C525.337 296.432 525.152 296.015 524.784 295.714C524.415 295.414 523.911 295.263 523.271 295.263C522.583 295.263 522.03 295.414 521.613 295.714C521.206 296.015 520.944 296.422 520.828 296.936L516.072 296.776C516.208 295.787 516.567 294.905 517.149 294.129C517.74 293.344 518.55 292.728 519.577 292.282C520.615 291.836 521.865 291.613 523.33 291.613C524.357 291.613 525.307 291.734 526.18 291.976C527.053 292.219 527.814 292.573 528.463 293.038C529.113 293.504 529.617 294.071 529.976 294.74C530.335 295.409 530.514 296.17 530.514 297.023V308.076H525.642V305.793H525.526C525.225 306.355 524.852 306.825 524.406 307.204C523.96 307.582 523.436 307.873 522.835 308.076C522.244 308.27 521.57 308.367 520.814 308.367ZM522.399 304.964C522.951 304.964 523.451 304.852 523.897 304.629C524.352 304.397 524.711 304.082 524.973 303.684C525.244 303.287 525.38 302.821 525.38 302.288V300.761C525.235 300.838 525.055 300.911 524.842 300.979C524.638 301.037 524.411 301.095 524.159 301.153C523.906 301.212 523.65 301.26 523.388 301.299C523.136 301.338 522.893 301.376 522.661 301.415C522.166 301.483 521.744 301.604 521.395 301.779C521.056 301.944 520.799 302.152 520.624 302.404C520.45 302.656 520.363 302.962 520.363 303.32C520.363 303.854 520.552 304.261 520.93 304.542C521.308 304.823 521.798 304.964 522.399 304.964ZM535.561 314.155C534.94 314.165 534.349 314.121 533.786 314.024C533.234 313.928 532.763 313.806 532.376 313.661L533.525 309.894L533.641 309.923C534.368 310.146 534.993 310.224 535.517 310.156C536.05 310.088 536.433 309.758 536.666 309.167L536.855 308.672L531.096 291.817H536.491L539.487 303.422H539.662L542.702 291.817H548.155L542.018 309.647C541.727 310.529 541.31 311.31 540.767 311.988C540.234 312.667 539.541 313.195 538.688 313.574C537.844 313.961 536.802 314.155 535.561 314.155ZM556.372 308.382C554.666 308.382 553.197 308.047 551.966 307.378C550.734 306.699 549.789 305.735 549.13 304.484C548.48 303.233 548.155 301.74 548.155 300.005C548.155 298.327 548.485 296.863 549.144 295.612C549.804 294.352 550.734 293.373 551.937 292.675C553.139 291.967 554.554 291.613 556.183 291.613C557.337 291.613 558.394 291.797 559.354 292.166C560.323 292.524 561.157 293.058 561.855 293.765C562.563 294.463 563.106 295.326 563.484 296.354C563.872 297.382 564.066 298.57 564.066 299.917V301.197H549.944V298.216H561.608L559.194 298.914C559.194 298.167 559.082 297.532 558.859 297.009C558.636 296.475 558.307 296.063 557.87 295.772C557.434 295.481 556.891 295.336 556.242 295.336C555.592 295.336 555.044 295.481 554.598 295.772C554.152 296.063 553.813 296.47 553.58 296.994C553.347 297.508 553.231 298.119 553.231 298.826V300.964C553.231 301.721 553.362 302.375 553.624 302.928C553.895 303.48 554.273 303.907 554.758 304.208C555.253 304.498 555.82 304.644 556.46 304.644C556.906 304.644 557.313 304.581 557.681 304.455C558.05 304.329 558.365 304.145 558.627 303.902C558.888 303.65 559.087 303.35 559.223 303L563.964 303.131C563.77 304.198 563.344 305.124 562.684 305.909C562.025 306.695 561.162 307.305 560.096 307.742C559.029 308.168 557.788 308.382 556.372 308.382ZM565.84 308.076V291.817H570.858V294.798H571.032C571.323 293.712 571.803 292.912 572.472 292.398C573.151 291.875 573.931 291.613 574.814 291.613C575.056 291.613 575.303 291.627 575.555 291.657C575.817 291.686 576.055 291.734 576.268 291.802V296.281C576.016 296.194 575.691 296.131 575.294 296.092C574.896 296.044 574.542 296.02 574.232 296.02C573.621 296.02 573.068 296.155 572.574 296.427C572.089 296.698 571.706 297.076 571.425 297.561C571.153 298.046 571.018 298.608 571.018 299.248V308.076H565.84ZM591.728 296.79L587.001 296.907C586.933 296.403 586.671 295.986 586.216 295.656C585.77 295.326 585.207 295.162 584.529 295.162C583.928 295.162 583.419 295.283 583.002 295.525C582.594 295.758 582.391 296.078 582.391 296.485C582.391 296.805 582.517 297.086 582.769 297.329C583.031 297.571 583.506 297.76 584.194 297.896L587.321 298.477C588.94 298.778 590.147 299.287 590.942 300.005C591.737 300.722 592.135 301.677 592.135 302.87C592.135 303.985 591.81 304.954 591.161 305.778C590.511 306.602 589.619 307.242 588.485 307.698C587.36 308.154 586.07 308.382 584.616 308.382C582.299 308.382 580.471 307.906 579.133 306.956C577.795 305.996 577.029 304.712 576.835 303.102L581.94 302.986C582.056 303.577 582.352 304.028 582.827 304.338C583.302 304.639 583.903 304.789 584.63 304.789C585.299 304.789 585.842 304.668 586.259 304.426C586.676 304.174 586.885 303.849 586.885 303.451C586.885 302.763 586.225 302.293 584.907 302.041L582.071 301.488C580.452 301.178 579.24 300.63 578.435 299.845C577.64 299.059 577.242 298.041 577.242 296.79C577.242 295.695 577.533 294.764 578.115 293.998C578.706 293.232 579.54 292.645 580.616 292.238C581.693 291.821 582.968 291.613 584.441 291.613C586.642 291.613 588.373 292.073 589.633 292.995C590.904 293.916 591.602 295.181 591.728 296.79Z" fill="white"/>
</svg>
