<svg width="1089" height="565" viewBox="0 0 1089 565" fill="none" xmlns="http://www.w3.org/2000/svg">
<g opacity="0.33">
<rect x="104" y="43" width="258" height="221" fill="#DDDDDD"/>
<path d="M179.545 149.352C177.189 149.352 175.062 148.83 173.164 147.787C171.277 146.744 169.783 145.227 168.682 143.234C167.592 141.23 167.047 138.793 167.047 135.922C167.047 133.039 167.592 130.596 168.682 128.592C169.783 126.576 171.277 125.053 173.164 124.021C175.062 122.979 177.189 122.457 179.545 122.457C181.889 122.457 184.004 122.979 185.891 124.021C187.777 125.053 189.271 126.576 190.373 128.592C191.475 130.596 192.025 133.039 192.025 135.922C192.025 138.793 191.475 141.23 190.373 143.234C189.271 145.238 187.777 146.762 185.891 147.805C184.004 148.836 181.889 149.352 179.545 149.352ZM179.545 143.814C180.799 143.814 181.877 143.51 182.779 142.9C183.682 142.291 184.373 141.4 184.854 140.229C185.334 139.057 185.574 137.621 185.574 135.922C185.574 134.211 185.334 132.77 184.854 131.598C184.373 130.414 183.682 129.518 182.779 128.908C181.877 128.299 180.799 127.994 179.545 127.994C178.291 127.994 177.213 128.299 176.311 128.908C175.408 129.518 174.711 130.414 174.219 131.598C173.738 132.77 173.498 134.211 173.498 135.922C173.498 137.621 173.738 139.057 174.219 140.229C174.711 141.4 175.408 142.291 176.311 142.9C177.213 143.51 178.291 143.814 179.545 143.814ZM194.715 149V129.348H200.779V132.951H200.99C201.342 131.639 201.922 130.672 202.73 130.051C203.551 129.418 204.494 129.102 205.561 129.102C205.854 129.102 206.152 129.119 206.457 129.154C206.773 129.189 207.061 129.248 207.318 129.33V134.744C207.014 134.639 206.621 134.562 206.141 134.516C205.66 134.457 205.232 134.428 204.857 134.428C204.119 134.428 203.451 134.592 202.854 134.92C202.268 135.248 201.805 135.705 201.465 136.291C201.137 136.877 200.973 137.557 200.973 138.33V149H194.715ZM208.883 149V129.348H215.141V149H208.883ZM211.994 127.098C211.115 127.098 210.359 126.805 209.727 126.219C209.094 125.633 208.777 124.924 208.777 124.092C208.777 123.26 209.094 122.557 209.727 121.982C210.359 121.396 211.115 121.104 211.994 121.104C212.885 121.104 213.641 121.396 214.262 121.982C214.895 122.557 215.211 123.26 215.211 124.092C215.211 124.924 214.895 125.633 214.262 126.219C213.641 126.805 212.885 127.098 211.994 127.098ZM227.199 156.77C224.398 156.77 222.207 156.201 220.625 155.064C219.043 153.928 218.141 152.498 217.918 150.775L223.824 150.441C223.93 150.852 224.129 151.203 224.422 151.496C224.727 151.801 225.125 152.035 225.617 152.199C226.109 152.363 226.689 152.445 227.357 152.445C228.412 152.445 229.279 152.188 229.959 151.672C230.65 151.168 230.996 150.289 230.996 149.035V145.572H230.768C230.521 146.17 230.146 146.709 229.643 147.189C229.139 147.67 228.512 148.051 227.762 148.332C227.023 148.602 226.168 148.736 225.195 148.736C223.766 148.736 222.453 148.402 221.258 147.734C220.074 147.066 219.125 146.029 218.41 144.623C217.707 143.205 217.355 141.389 217.355 139.174C217.355 136.865 217.719 134.973 218.445 133.496C219.184 132.008 220.15 130.906 221.346 130.191C222.541 129.465 223.824 129.102 225.195 129.102C226.227 129.102 227.111 129.277 227.85 129.629C228.588 129.98 229.203 130.438 229.695 131C230.188 131.551 230.557 132.125 230.803 132.723H230.979V129.348H237.148V149.088C237.148 150.74 236.727 152.141 235.883 153.289C235.051 154.438 233.885 155.305 232.385 155.891C230.896 156.477 229.168 156.77 227.199 156.77ZM227.375 144.184C228.512 144.184 229.396 143.738 230.029 142.848C230.674 141.957 230.996 140.727 230.996 139.156C230.996 138.09 230.85 137.17 230.557 136.396C230.275 135.623 229.865 135.025 229.326 134.604C228.787 134.182 228.137 133.971 227.375 133.971C226.602 133.971 225.945 134.188 225.406 134.621C224.867 135.055 224.457 135.658 224.176 136.432C223.906 137.205 223.771 138.113 223.771 139.156C223.771 140.199 223.912 141.096 224.193 141.846C224.475 142.596 224.879 143.176 225.406 143.586C225.945 143.984 226.602 144.184 227.375 144.184ZM240.137 149V129.348H246.395V149H240.137ZM243.248 127.098C242.369 127.098 241.613 126.805 240.98 126.219C240.348 125.633 240.031 124.924 240.031 124.092C240.031 123.26 240.348 122.557 240.98 121.982C241.613 121.396 242.369 121.104 243.248 121.104C244.139 121.104 244.895 121.396 245.516 121.982C246.148 122.557 246.465 123.26 246.465 124.092C246.465 124.924 246.148 125.633 245.516 126.219C244.895 126.805 244.139 127.098 243.248 127.098ZM255.605 137.803V149H249.348V129.348H255.535V132.969H255.693C256.139 131.773 256.848 130.83 257.82 130.139C258.805 129.447 260.023 129.102 261.477 129.102C262.859 129.102 264.061 129.412 265.08 130.033C266.1 130.643 266.891 131.504 267.453 132.617C268.016 133.719 268.297 135.008 268.297 136.484V149H262.039V137.715C262.039 136.625 261.764 135.775 261.213 135.166C260.662 134.545 259.889 134.234 258.893 134.234C258.236 134.234 257.662 134.375 257.17 134.656C256.678 134.938 256.291 135.348 256.01 135.887C255.74 136.414 255.605 137.053 255.605 137.803ZM286.174 149.404C284.334 149.404 282.746 149.076 281.41 148.42C280.074 147.764 279.049 146.879 278.334 145.766C277.619 144.641 277.262 143.398 277.262 142.039C277.262 141.031 277.455 140.146 277.842 139.385C278.24 138.611 278.791 137.902 279.494 137.258C280.209 136.602 281.029 135.957 281.955 135.324L287.457 131.809C288.078 131.398 288.518 130.982 288.775 130.561C289.045 130.127 289.18 129.693 289.18 129.26C289.18 128.791 288.998 128.369 288.635 127.994C288.271 127.607 287.738 127.414 287.035 127.414C286.59 127.414 286.197 127.508 285.857 127.695C285.529 127.871 285.271 128.123 285.084 128.451C284.908 128.768 284.82 129.125 284.82 129.523C284.82 130.051 284.967 130.59 285.26 131.141C285.553 131.68 285.951 132.26 286.455 132.881C286.971 133.49 287.533 134.164 288.143 134.902L300.711 149H294.312L283.836 137.609C283.238 136.941 282.611 136.197 281.955 135.377C281.311 134.545 280.76 133.637 280.303 132.652C279.846 131.668 279.617 130.596 279.617 129.436C279.617 128.123 279.922 126.939 280.531 125.885C281.152 124.83 282.014 123.998 283.115 123.389C284.229 122.768 285.529 122.457 287.018 122.457C288.447 122.457 289.684 122.75 290.727 123.336C291.77 123.91 292.566 124.684 293.117 125.656C293.68 126.617 293.961 127.684 293.961 128.855C293.961 130.074 293.656 131.199 293.047 132.23C292.449 133.262 291.594 134.176 290.48 134.973L285.102 138.822C284.539 139.232 284.094 139.672 283.766 140.141C283.438 140.598 283.273 141.102 283.273 141.652C283.273 142.203 283.408 142.689 283.678 143.111C283.959 143.533 284.346 143.867 284.838 144.113C285.33 144.348 285.904 144.465 286.561 144.465C287.463 144.465 288.354 144.254 289.232 143.832C290.123 143.41 290.932 142.812 291.658 142.039C292.385 141.266 292.965 140.352 293.398 139.297C293.844 138.23 294.066 137.064 294.066 135.799H299.129C299.129 137.357 298.959 138.811 298.619 140.158C298.291 141.494 297.799 142.695 297.143 143.762C296.486 144.816 295.672 145.689 294.699 146.381C294.383 146.557 294.078 146.721 293.785 146.873C293.504 147.025 293.211 147.184 292.906 147.348C291.898 148.086 290.809 148.613 289.637 148.93C288.465 149.246 287.311 149.404 286.174 149.404ZM142.49 158.809V185H136.18V158.809H142.49ZM145.461 185V165.348H151.385V168.969H151.613C152.023 167.773 152.715 166.83 153.688 166.139C154.672 165.447 155.832 165.102 157.168 165.102C158.539 165.102 159.711 165.453 160.684 166.156C161.656 166.859 162.266 167.797 162.512 168.969H162.723C163.098 167.809 163.818 166.877 164.885 166.174C165.951 165.459 167.211 165.102 168.664 165.102C170.516 165.102 172.021 165.693 173.182 166.877C174.342 168.061 174.922 169.689 174.922 171.764V185H168.664V173.205C168.664 172.232 168.412 171.488 167.908 170.973C167.404 170.457 166.754 170.199 165.957 170.199C165.102 170.199 164.428 170.48 163.936 171.043C163.443 171.594 163.197 172.338 163.197 173.275V185H157.186V173.135C157.186 172.232 156.939 171.518 156.447 170.99C155.955 170.463 155.305 170.199 154.496 170.199C153.945 170.199 153.459 170.334 153.037 170.604C152.627 170.861 152.305 171.225 152.07 171.693C151.836 172.162 151.719 172.725 151.719 173.381V185H145.461ZM177.875 192.348V165.348H184.062V168.723H184.273C184.52 168.125 184.877 167.551 185.346 167C185.826 166.438 186.43 165.98 187.156 165.629C187.895 165.277 188.785 165.102 189.828 165.102C191.199 165.102 192.477 165.465 193.66 166.191C194.844 166.906 195.799 168.008 196.525 169.496C197.264 170.984 197.633 172.883 197.633 175.191C197.633 177.418 197.281 179.281 196.578 180.781C195.875 182.281 194.926 183.406 193.73 184.156C192.547 184.906 191.229 185.281 189.775 185.281C188.791 185.281 187.936 185.117 187.209 184.789C186.482 184.461 185.873 184.033 185.381 183.506C184.9 182.979 184.531 182.41 184.273 181.801H184.133V192.348H177.875ZM187.613 180.412C188.387 180.412 189.037 180.195 189.564 179.762C190.104 179.328 190.508 178.719 190.777 177.934C191.059 177.148 191.199 176.234 191.199 175.191C191.199 174.137 191.059 173.223 190.777 172.449C190.508 171.664 190.109 171.055 189.582 170.621C189.055 170.188 188.398 169.971 187.613 169.971C186.852 169.971 186.201 170.182 185.662 170.604C185.123 171.025 184.707 171.629 184.414 172.414C184.133 173.188 183.992 174.113 183.992 175.191C183.992 176.246 184.133 177.166 184.414 177.951C184.707 178.725 185.123 179.328 185.662 179.762C186.201 180.195 186.852 180.412 187.613 180.412ZM209.006 185.369C206.943 185.369 205.174 184.947 203.697 184.104C202.221 183.248 201.084 182.064 200.287 180.553C199.502 179.029 199.109 177.26 199.109 175.244C199.109 173.217 199.502 171.447 200.287 169.936C201.084 168.412 202.221 167.229 203.697 166.385C205.174 165.529 206.943 165.102 209.006 165.102C211.068 165.102 212.838 165.529 214.314 166.385C215.803 167.229 216.939 168.412 217.725 169.936C218.521 171.447 218.92 173.217 218.92 175.244C218.92 177.26 218.521 179.029 217.725 180.553C216.939 182.064 215.803 183.248 214.314 184.104C212.838 184.947 211.068 185.369 209.006 185.369ZM209.041 180.605C209.803 180.605 210.441 180.383 210.957 179.938C211.473 179.492 211.865 178.865 212.135 178.057C212.416 177.236 212.557 176.287 212.557 175.209C212.557 174.119 212.416 173.176 212.135 172.379C211.865 171.582 211.473 170.967 210.957 170.533C210.441 170.088 209.803 169.865 209.041 169.865C208.279 169.865 207.629 170.088 207.09 170.533C206.551 170.967 206.146 171.582 205.877 172.379C205.607 173.176 205.473 174.119 205.473 175.209C205.473 176.287 205.607 177.236 205.877 178.057C206.146 178.865 206.551 179.492 207.09 179.938C207.629 180.383 208.279 180.605 209.041 180.605ZM221.152 185V165.348H227.217V168.951H227.428C227.779 167.639 228.359 166.672 229.168 166.051C229.988 165.418 230.932 165.102 231.998 165.102C232.291 165.102 232.59 165.119 232.895 165.154C233.211 165.189 233.498 165.248 233.756 165.33V170.744C233.451 170.639 233.059 170.562 232.578 170.516C232.098 170.457 231.67 170.428 231.295 170.428C230.557 170.428 229.889 170.592 229.291 170.92C228.705 171.248 228.242 171.705 227.902 172.291C227.574 172.877 227.41 173.557 227.41 174.33V185H221.152ZM247.309 165.348V169.971H234.934V165.348H247.309ZM237.518 160.672H243.758V178.812C243.758 179.34 243.887 179.738 244.145 180.008C244.402 180.266 244.807 180.395 245.357 180.395C245.568 180.395 245.809 180.371 246.078 180.324C246.359 180.277 246.576 180.23 246.729 180.184L247.66 184.719C246.957 184.918 246.301 185.059 245.691 185.141C245.094 185.234 244.502 185.281 243.916 185.281C241.83 185.281 240.242 184.789 239.152 183.805C238.062 182.809 237.518 181.379 237.518 179.516V160.672ZM255.078 185.352C253.824 185.352 252.705 185.141 251.721 184.719C250.748 184.285 249.986 183.641 249.436 182.785C248.885 181.93 248.609 180.852 248.609 179.551C248.609 178.461 248.797 177.541 249.172 176.791C249.559 176.041 250.086 175.432 250.754 174.963C251.434 174.494 252.213 174.137 253.092 173.891C253.971 173.633 254.908 173.469 255.904 173.398C257.018 173.293 257.914 173.188 258.594 173.082C259.273 172.977 259.766 172.812 260.07 172.59C260.387 172.367 260.545 172.057 260.545 171.658V171.57C260.545 170.926 260.322 170.422 259.877 170.059C259.432 169.695 258.822 169.514 258.049 169.514C257.217 169.514 256.549 169.695 256.045 170.059C255.553 170.422 255.236 170.914 255.096 171.535L249.348 171.342C249.512 170.146 249.945 169.08 250.648 168.143C251.363 167.193 252.342 166.449 253.584 165.91C254.838 165.371 256.35 165.102 258.119 165.102C259.361 165.102 260.51 165.248 261.564 165.541C262.619 165.834 263.539 166.262 264.324 166.824C265.109 167.387 265.719 168.072 266.152 168.881C266.586 169.689 266.803 170.609 266.803 171.641V185H260.914V182.24H260.773C260.41 182.92 259.959 183.488 259.42 183.945C258.881 184.402 258.248 184.754 257.521 185C256.807 185.234 255.992 185.352 255.078 185.352ZM256.994 181.238C257.662 181.238 258.266 181.104 258.805 180.834C259.355 180.553 259.789 180.172 260.105 179.691C260.434 179.211 260.598 178.648 260.598 178.004V176.158C260.422 176.252 260.205 176.34 259.947 176.422C259.701 176.492 259.426 176.562 259.121 176.633C258.816 176.703 258.506 176.762 258.189 176.809C257.885 176.855 257.592 176.902 257.311 176.949C256.713 177.031 256.203 177.178 255.781 177.389C255.371 177.588 255.061 177.84 254.85 178.145C254.639 178.449 254.533 178.818 254.533 179.252C254.533 179.896 254.762 180.389 255.219 180.729C255.676 181.068 256.268 181.238 256.994 181.238ZM276.031 173.803V185H269.773V165.348H275.961V168.969H276.119C276.564 167.773 277.273 166.83 278.246 166.139C279.23 165.447 280.449 165.102 281.902 165.102C283.285 165.102 284.486 165.412 285.506 166.033C286.525 166.643 287.316 167.504 287.879 168.617C288.441 169.719 288.723 171.008 288.723 172.484V185H282.465V173.715C282.465 172.625 282.189 171.775 281.639 171.166C281.088 170.545 280.314 170.234 279.318 170.234C278.662 170.234 278.088 170.375 277.596 170.656C277.104 170.938 276.717 171.348 276.436 171.887C276.166 172.414 276.031 173.053 276.031 173.803ZM300.834 185.369C298.76 185.369 296.984 184.941 295.508 184.086C294.031 183.23 292.9 182.047 292.115 180.535C291.33 179.012 290.938 177.248 290.938 175.244C290.938 173.229 291.33 171.465 292.115 169.953C292.9 168.43 294.031 167.24 295.508 166.385C296.996 165.529 298.771 165.102 300.834 165.102C302.65 165.102 304.232 165.436 305.58 166.104C306.928 166.76 307.982 167.686 308.744 168.881C309.506 170.064 309.91 171.465 309.957 173.082H304.121C304.039 172.414 303.857 171.84 303.576 171.359C303.307 170.879 302.943 170.51 302.486 170.252C302.041 169.994 301.52 169.865 300.922 169.865C300.195 169.865 299.557 170.07 299.006 170.48C298.467 170.879 298.045 171.477 297.74 172.273C297.447 173.059 297.301 174.031 297.301 175.191C297.301 176.352 297.447 177.336 297.74 178.145C298.045 178.941 298.467 179.551 299.006 179.973C299.545 180.395 300.184 180.605 300.922 180.605C301.777 180.605 302.492 180.318 303.066 179.744C303.641 179.158 303.992 178.344 304.121 177.301H309.957C309.898 178.918 309.494 180.336 308.744 181.555C307.994 182.762 306.951 183.699 305.615 184.367C304.279 185.035 302.686 185.369 300.834 185.369ZM321.33 185.369C319.268 185.369 317.492 184.965 316.004 184.156C314.516 183.336 313.373 182.17 312.576 180.658C311.791 179.146 311.398 177.342 311.398 175.244C311.398 173.217 311.797 171.447 312.594 169.936C313.391 168.412 314.516 167.229 315.969 166.385C317.422 165.529 319.133 165.102 321.102 165.102C322.496 165.102 323.773 165.324 324.934 165.77C326.105 166.203 327.113 166.848 327.957 167.703C328.812 168.547 329.469 169.59 329.926 170.832C330.395 172.074 330.629 173.51 330.629 175.139V176.686H313.561V173.082H327.658L324.74 173.926C324.74 173.023 324.605 172.256 324.336 171.623C324.066 170.979 323.668 170.48 323.141 170.129C322.613 169.777 321.957 169.602 321.172 169.602C320.387 169.602 319.725 169.777 319.186 170.129C318.646 170.48 318.236 170.973 317.955 171.605C317.674 172.227 317.533 172.965 317.533 173.82V176.404C317.533 177.318 317.691 178.109 318.008 178.777C318.336 179.445 318.793 179.961 319.379 180.324C319.977 180.676 320.662 180.852 321.436 180.852C321.975 180.852 322.467 180.775 322.912 180.623C323.357 180.471 323.738 180.248 324.055 179.955C324.371 179.65 324.611 179.287 324.775 178.865L330.506 179.023C330.271 180.312 329.756 181.432 328.959 182.381C328.162 183.33 327.119 184.068 325.83 184.596C324.541 185.111 323.041 185.369 321.33 185.369Z" fill="black"/>
<rect x="311" y="129" width="258" height="221" fill="#AAAAAA"/>
<path d="M371.832 235V208.809H390.096V213.959H378.143V219.25H389.146V224.277H378.143V229.85H390.078V235H371.832ZM399.289 208.809V235H393.031V208.809H399.289ZM411.436 235.369C409.373 235.369 407.598 234.965 406.109 234.156C404.621 233.336 403.479 232.17 402.682 230.658C401.896 229.146 401.504 227.342 401.504 225.244C401.504 223.217 401.902 221.447 402.699 219.936C403.496 218.412 404.621 217.229 406.074 216.385C407.527 215.529 409.238 215.102 411.207 215.102C412.602 215.102 413.879 215.324 415.039 215.77C416.211 216.203 417.219 216.848 418.062 217.703C418.918 218.547 419.574 219.59 420.031 220.832C420.5 222.074 420.734 223.51 420.734 225.139V226.686H403.666V223.082H417.764L414.846 223.926C414.846 223.023 414.711 222.256 414.441 221.623C414.172 220.979 413.773 220.48 413.246 220.129C412.719 219.777 412.062 219.602 411.277 219.602C410.492 219.602 409.83 219.777 409.291 220.129C408.752 220.48 408.342 220.973 408.061 221.605C407.779 222.227 407.639 222.965 407.639 223.82V226.404C407.639 227.318 407.797 228.109 408.113 228.777C408.441 229.445 408.898 229.961 409.484 230.324C410.082 230.676 410.768 230.852 411.541 230.852C412.08 230.852 412.572 230.775 413.018 230.623C413.463 230.471 413.844 230.248 414.16 229.955C414.477 229.65 414.717 229.287 414.881 228.865L420.611 229.023C420.377 230.312 419.861 231.432 419.064 232.381C418.268 233.33 417.225 234.068 415.936 234.596C414.646 235.111 413.146 235.369 411.436 235.369ZM422.879 235V215.348H428.803V218.969H429.031C429.441 217.773 430.133 216.83 431.105 216.139C432.09 215.447 433.25 215.102 434.586 215.102C435.957 215.102 437.129 215.453 438.102 216.156C439.074 216.859 439.684 217.797 439.93 218.969H440.141C440.516 217.809 441.236 216.877 442.303 216.174C443.369 215.459 444.629 215.102 446.082 215.102C447.934 215.102 449.439 215.693 450.6 216.877C451.76 218.061 452.34 219.689 452.34 221.764V235H446.082V223.205C446.082 222.232 445.83 221.488 445.326 220.973C444.822 220.457 444.172 220.199 443.375 220.199C442.52 220.199 441.846 220.48 441.354 221.043C440.861 221.594 440.615 222.338 440.615 223.275V235H434.604V223.135C434.604 222.232 434.357 221.518 433.865 220.99C433.373 220.463 432.723 220.199 431.914 220.199C431.363 220.199 430.877 220.334 430.455 220.604C430.045 220.861 429.723 221.225 429.488 221.693C429.254 222.162 429.137 222.725 429.137 223.381V235H422.879ZM464.486 235.369C462.424 235.369 460.648 234.965 459.16 234.156C457.672 233.336 456.529 232.17 455.732 230.658C454.947 229.146 454.555 227.342 454.555 225.244C454.555 223.217 454.953 221.447 455.75 219.936C456.547 218.412 457.672 217.229 459.125 216.385C460.578 215.529 462.289 215.102 464.258 215.102C465.652 215.102 466.93 215.324 468.09 215.77C469.262 216.203 470.27 216.848 471.113 217.703C471.969 218.547 472.625 219.59 473.082 220.832C473.551 222.074 473.785 223.51 473.785 225.139V226.686H456.717V223.082H470.814L467.896 223.926C467.896 223.023 467.762 222.256 467.492 221.623C467.223 220.979 466.824 220.48 466.297 220.129C465.77 219.777 465.113 219.602 464.328 219.602C463.543 219.602 462.881 219.777 462.342 220.129C461.803 220.48 461.393 220.973 461.111 221.605C460.83 222.227 460.689 222.965 460.689 223.82V226.404C460.689 227.318 460.848 228.109 461.164 228.777C461.492 229.445 461.949 229.961 462.535 230.324C463.133 230.676 463.818 230.852 464.592 230.852C465.131 230.852 465.623 230.775 466.068 230.623C466.514 230.471 466.895 230.248 467.211 229.955C467.527 229.65 467.768 229.287 467.932 228.865L473.662 229.023C473.428 230.312 472.912 231.432 472.115 232.381C471.318 233.33 470.275 234.068 468.986 234.596C467.697 235.111 466.197 235.369 464.486 235.369ZM482.188 223.803V235H475.93V215.348H482.117V218.969H482.275C482.721 217.773 483.43 216.83 484.402 216.139C485.387 215.447 486.605 215.102 488.059 215.102C489.441 215.102 490.643 215.412 491.662 216.033C492.682 216.643 493.473 217.504 494.035 218.617C494.598 219.719 494.879 221.008 494.879 222.484V235H488.621V223.715C488.621 222.625 488.346 221.775 487.795 221.166C487.244 220.545 486.471 220.234 485.475 220.234C484.818 220.234 484.244 220.375 483.752 220.656C483.26 220.938 482.873 221.348 482.592 221.887C482.322 222.414 482.188 223.053 482.188 223.803ZM508.906 215.348V219.971H496.531V215.348H508.906ZM499.115 210.672H505.355V228.812C505.355 229.34 505.484 229.738 505.742 230.008C506 230.266 506.404 230.395 506.955 230.395C507.166 230.395 507.406 230.371 507.676 230.324C507.957 230.277 508.174 230.23 508.326 230.184L509.258 234.719C508.555 234.918 507.898 235.059 507.289 235.141C506.691 235.234 506.1 235.281 505.514 235.281C503.428 235.281 501.84 234.789 500.75 233.805C499.66 232.809 499.115 231.379 499.115 229.516V210.672ZM368.422 271H361.619L370.479 244.809H378.881L387.723 271H380.938L374.785 251.4H374.574L368.422 271ZM367.543 260.682H381.764V265.498H367.543V260.682ZM399.377 251.348V255.971H387.002V251.348H399.377ZM389.586 246.672H395.826V264.812C395.826 265.34 395.955 265.738 396.213 266.008C396.471 266.266 396.875 266.395 397.426 266.395C397.637 266.395 397.877 266.371 398.146 266.324C398.428 266.277 398.645 266.23 398.797 266.184L399.729 270.719C399.025 270.918 398.369 271.059 397.76 271.141C397.162 271.234 396.57 271.281 395.984 271.281C393.898 271.281 392.311 270.789 391.221 269.805C390.131 268.809 389.586 267.379 389.586 265.516V246.672ZM412.666 251.348V255.971H400.291V251.348H412.666ZM402.875 246.672H409.115V264.812C409.115 265.34 409.244 265.738 409.502 266.008C409.76 266.266 410.164 266.395 410.715 266.395C410.926 266.395 411.166 266.371 411.436 266.324C411.717 266.277 411.934 266.23 412.086 266.184L413.018 270.719C412.314 270.918 411.658 271.059 411.049 271.141C410.451 271.234 409.859 271.281 409.273 271.281C407.188 271.281 405.6 270.789 404.51 269.805C403.42 268.809 402.875 267.379 402.875 265.516V246.672ZM420.436 271.352C419.182 271.352 418.062 271.141 417.078 270.719C416.105 270.285 415.344 269.641 414.793 268.785C414.242 267.93 413.967 266.852 413.967 265.551C413.967 264.461 414.154 263.541 414.529 262.791C414.916 262.041 415.443 261.432 416.111 260.963C416.791 260.494 417.57 260.137 418.449 259.891C419.328 259.633 420.266 259.469 421.262 259.398C422.375 259.293 423.271 259.188 423.951 259.082C424.631 258.977 425.123 258.812 425.428 258.59C425.744 258.367 425.902 258.057 425.902 257.658V257.57C425.902 256.926 425.68 256.422 425.234 256.059C424.789 255.695 424.18 255.514 423.406 255.514C422.574 255.514 421.906 255.695 421.402 256.059C420.91 256.422 420.594 256.914 420.453 257.535L414.705 257.342C414.869 256.146 415.303 255.08 416.006 254.143C416.721 253.193 417.699 252.449 418.941 251.91C420.195 251.371 421.707 251.102 423.477 251.102C424.719 251.102 425.867 251.248 426.922 251.541C427.977 251.834 428.896 252.262 429.682 252.824C430.467 253.387 431.076 254.072 431.51 254.881C431.943 255.689 432.16 256.609 432.16 257.641V271H426.271V268.24H426.131C425.768 268.92 425.316 269.488 424.777 269.945C424.238 270.402 423.605 270.754 422.879 271C422.164 271.234 421.35 271.352 420.436 271.352ZM422.352 267.238C423.02 267.238 423.623 267.104 424.162 266.834C424.713 266.553 425.146 266.172 425.463 265.691C425.791 265.211 425.955 264.648 425.955 264.004V262.158C425.779 262.252 425.562 262.34 425.305 262.422C425.059 262.492 424.783 262.562 424.479 262.633C424.174 262.703 423.863 262.762 423.547 262.809C423.242 262.855 422.949 262.902 422.668 262.949C422.07 263.031 421.561 263.178 421.139 263.389C420.729 263.588 420.418 263.84 420.207 264.145C419.996 264.449 419.891 264.818 419.891 265.252C419.891 265.896 420.119 266.389 420.576 266.729C421.033 267.068 421.625 267.238 422.352 267.238ZM444.289 271.369C442.215 271.369 440.439 270.941 438.963 270.086C437.486 269.23 436.355 268.047 435.57 266.535C434.785 265.012 434.393 263.248 434.393 261.244C434.393 259.229 434.785 257.465 435.57 255.953C436.355 254.43 437.486 253.24 438.963 252.385C440.451 251.529 442.227 251.102 444.289 251.102C446.105 251.102 447.688 251.436 449.035 252.104C450.383 252.76 451.438 253.686 452.199 254.881C452.961 256.064 453.365 257.465 453.412 259.082H447.576C447.494 258.414 447.312 257.84 447.031 257.359C446.762 256.879 446.398 256.51 445.941 256.252C445.496 255.994 444.975 255.865 444.377 255.865C443.65 255.865 443.012 256.07 442.461 256.48C441.922 256.879 441.5 257.477 441.195 258.273C440.902 259.059 440.756 260.031 440.756 261.191C440.756 262.352 440.902 263.336 441.195 264.145C441.5 264.941 441.922 265.551 442.461 265.973C443 266.395 443.639 266.605 444.377 266.605C445.232 266.605 445.947 266.318 446.521 265.744C447.096 265.158 447.447 264.344 447.576 263.301H453.412C453.354 264.918 452.949 266.336 452.199 267.555C451.449 268.762 450.406 269.699 449.07 270.367C447.734 271.035 446.141 271.369 444.289 271.369ZM461.85 259.803V271H455.592V244.809H461.621V254.969H461.85C462.295 253.762 463.021 252.818 464.029 252.139C465.037 251.447 466.279 251.102 467.756 251.102C469.127 251.102 470.322 251.412 471.342 252.033C472.373 252.643 473.17 253.498 473.732 254.6C474.295 255.701 474.576 256.996 474.576 258.484V271H468.318V259.715C468.318 258.625 468.043 257.775 467.492 257.166C466.941 256.545 466.162 256.234 465.154 256.234C464.498 256.234 463.918 256.375 463.414 256.656C462.922 256.938 462.535 257.348 462.254 257.887C461.984 258.414 461.85 259.053 461.85 259.803ZM486.758 271.369C484.695 271.369 482.92 270.965 481.432 270.156C479.943 269.336 478.801 268.17 478.004 266.658C477.219 265.146 476.826 263.342 476.826 261.244C476.826 259.217 477.225 257.447 478.021 255.936C478.818 254.412 479.943 253.229 481.396 252.385C482.85 251.529 484.561 251.102 486.529 251.102C487.924 251.102 489.201 251.324 490.361 251.77C491.533 252.203 492.541 252.848 493.385 253.703C494.24 254.547 494.896 255.59 495.354 256.832C495.822 258.074 496.057 259.51 496.057 261.139V262.686H478.988V259.082H493.086L490.168 259.926C490.168 259.023 490.033 258.256 489.764 257.623C489.494 256.979 489.096 256.48 488.568 256.129C488.041 255.777 487.385 255.602 486.6 255.602C485.814 255.602 485.152 255.777 484.613 256.129C484.074 256.48 483.664 256.973 483.383 257.605C483.102 258.227 482.961 258.965 482.961 259.82V262.404C482.961 263.318 483.119 264.109 483.436 264.777C483.764 265.445 484.221 265.961 484.807 266.324C485.404 266.676 486.09 266.852 486.863 266.852C487.402 266.852 487.895 266.775 488.34 266.623C488.785 266.471 489.166 266.248 489.482 265.955C489.799 265.65 490.039 265.287 490.203 264.865L495.934 265.023C495.699 266.312 495.184 267.432 494.387 268.381C493.59 269.33 492.547 270.068 491.258 270.596C489.969 271.111 488.469 271.369 486.758 271.369ZM505.303 271.281C503.861 271.281 502.543 270.906 501.348 270.156C500.164 269.406 499.221 268.281 498.518 266.781C497.814 265.281 497.463 263.418 497.463 261.191C497.463 258.883 497.826 256.984 498.553 255.496C499.291 254.008 500.252 252.906 501.436 252.191C502.619 251.465 503.896 251.102 505.268 251.102C506.299 251.102 507.178 251.277 507.904 251.629C508.643 251.98 509.252 252.438 509.732 253C510.213 253.551 510.576 254.125 510.822 254.723H510.945V244.809H517.203V271H511.033V267.801H510.822C510.553 268.41 510.178 268.979 509.697 269.506C509.217 270.033 508.613 270.461 507.887 270.789C507.16 271.117 506.299 271.281 505.303 271.281ZM507.465 266.412C508.227 266.412 508.877 266.195 509.416 265.762C509.955 265.328 510.371 264.725 510.664 263.951C510.957 263.166 511.104 262.246 511.104 261.191C511.104 260.113 510.957 259.188 510.664 258.414C510.383 257.629 509.967 257.025 509.416 256.604C508.877 256.182 508.227 255.971 507.465 255.971C506.703 255.971 506.053 256.188 505.514 256.621C504.975 257.055 504.564 257.664 504.283 258.449C504.014 259.223 503.879 260.137 503.879 261.191C503.879 262.234 504.02 263.148 504.301 263.934C504.582 264.719 504.986 265.328 505.514 265.762C506.053 266.195 506.703 266.412 507.465 266.412Z" fill="black"/>
<rect x="727" y="301" width="258" height="221" fill="#AAAAAA"/>
<path d="M800.365 407.352C798.01 407.352 795.883 406.83 793.984 405.787C792.098 404.744 790.604 403.227 789.502 401.234C788.412 399.23 787.867 396.793 787.867 393.922C787.867 391.039 788.412 388.596 789.502 386.592C790.604 384.576 792.098 383.053 793.984 382.021C795.883 380.979 798.01 380.457 800.365 380.457C802.709 380.457 804.824 380.979 806.711 382.021C808.598 383.053 810.092 384.576 811.193 386.592C812.295 388.596 812.846 391.039 812.846 393.922C812.846 396.793 812.295 399.23 811.193 401.234C810.092 403.238 808.598 404.762 806.711 405.805C804.824 406.836 802.709 407.352 800.365 407.352ZM800.365 401.814C801.619 401.814 802.697 401.51 803.6 400.9C804.502 400.291 805.193 399.4 805.674 398.229C806.154 397.057 806.395 395.621 806.395 393.922C806.395 392.211 806.154 390.77 805.674 389.598C805.193 388.414 804.502 387.518 803.6 386.908C802.697 386.299 801.619 385.994 800.365 385.994C799.111 385.994 798.033 386.299 797.131 386.908C796.229 387.518 795.531 388.414 795.039 389.598C794.559 390.77 794.318 392.211 794.318 393.922C794.318 395.621 794.559 397.057 795.039 398.229C795.531 399.4 796.229 400.291 797.131 400.9C798.033 401.51 799.111 401.814 800.365 401.814ZM815.535 407V387.348H821.6V390.951H821.811C822.162 389.639 822.742 388.672 823.551 388.051C824.371 387.418 825.314 387.102 826.381 387.102C826.674 387.102 826.973 387.119 827.277 387.154C827.594 387.189 827.881 387.248 828.139 387.33V392.744C827.834 392.639 827.441 392.562 826.961 392.516C826.48 392.457 826.053 392.428 825.678 392.428C824.939 392.428 824.271 392.592 823.674 392.92C823.088 393.248 822.625 393.705 822.285 394.291C821.957 394.877 821.793 395.557 821.793 396.33V407H815.535ZM835.785 407.281C834.344 407.281 833.025 406.906 831.83 406.156C830.646 405.406 829.703 404.281 829 402.781C828.297 401.281 827.945 399.418 827.945 397.191C827.945 394.883 828.309 392.984 829.035 391.496C829.773 390.008 830.734 388.906 831.918 388.191C833.102 387.465 834.379 387.102 835.75 387.102C836.781 387.102 837.66 387.277 838.387 387.629C839.125 387.98 839.734 388.438 840.215 389C840.695 389.551 841.059 390.125 841.305 390.723H841.428V380.809H847.686V407H841.516V403.801H841.305C841.035 404.41 840.66 404.979 840.18 405.506C839.699 406.033 839.096 406.461 838.369 406.789C837.643 407.117 836.781 407.281 835.785 407.281ZM837.947 402.412C838.709 402.412 839.359 402.195 839.898 401.762C840.438 401.328 840.854 400.725 841.146 399.951C841.439 399.166 841.586 398.246 841.586 397.191C841.586 396.113 841.439 395.188 841.146 394.414C840.865 393.629 840.449 393.025 839.898 392.604C839.359 392.182 838.709 391.971 837.947 391.971C837.186 391.971 836.535 392.188 835.996 392.621C835.457 393.055 835.047 393.664 834.766 394.449C834.496 395.223 834.361 396.137 834.361 397.191C834.361 398.234 834.502 399.148 834.783 399.934C835.064 400.719 835.469 401.328 835.996 401.762C836.535 402.195 837.186 402.412 837.947 402.412ZM859.85 407.369C857.787 407.369 856.012 406.965 854.523 406.156C853.035 405.336 851.893 404.17 851.096 402.658C850.311 401.146 849.918 399.342 849.918 397.244C849.918 395.217 850.316 393.447 851.113 391.936C851.91 390.412 853.035 389.229 854.488 388.385C855.941 387.529 857.652 387.102 859.621 387.102C861.016 387.102 862.293 387.324 863.453 387.77C864.625 388.203 865.633 388.848 866.477 389.703C867.332 390.547 867.988 391.59 868.445 392.832C868.914 394.074 869.148 395.51 869.148 397.139V398.686H852.08V395.082H866.178L863.26 395.926C863.26 395.023 863.125 394.256 862.855 393.623C862.586 392.979 862.188 392.48 861.66 392.129C861.133 391.777 860.477 391.602 859.691 391.602C858.906 391.602 858.244 391.777 857.705 392.129C857.166 392.48 856.756 392.973 856.475 393.605C856.193 394.227 856.053 394.965 856.053 395.82V398.404C856.053 399.318 856.211 400.109 856.527 400.777C856.855 401.445 857.312 401.961 857.898 402.324C858.496 402.676 859.182 402.852 859.955 402.852C860.494 402.852 860.986 402.775 861.432 402.623C861.877 402.471 862.258 402.248 862.574 401.955C862.891 401.65 863.131 401.287 863.295 400.865L869.025 401.023C868.791 402.312 868.275 403.432 867.479 404.381C866.682 405.33 865.639 406.068 864.35 406.596C863.061 407.111 861.561 407.369 859.85 407.369ZM871.293 407V387.348H877.357V390.951H877.568C877.92 389.639 878.5 388.672 879.309 388.051C880.129 387.418 881.072 387.102 882.139 387.102C882.432 387.102 882.73 387.119 883.035 387.154C883.352 387.189 883.639 387.248 883.896 387.33V392.744C883.592 392.639 883.199 392.562 882.719 392.516C882.238 392.457 881.811 392.428 881.436 392.428C880.697 392.428 880.029 392.592 879.432 392.92C878.846 393.248 878.383 393.705 878.043 394.291C877.715 394.877 877.551 395.557 877.551 396.33V407H871.293ZM901.369 407.369C899.307 407.369 897.537 406.947 896.061 406.104C894.584 405.248 893.447 404.064 892.65 402.553C891.865 401.029 891.473 399.26 891.473 397.244C891.473 395.217 891.865 393.447 892.65 391.936C893.447 390.412 894.584 389.229 896.061 388.385C897.537 387.529 899.307 387.102 901.369 387.102C903.432 387.102 905.201 387.529 906.678 388.385C908.166 389.229 909.303 390.412 910.088 391.936C910.885 393.447 911.283 395.217 911.283 397.244C911.283 399.26 910.885 401.029 910.088 402.553C909.303 404.064 908.166 405.248 906.678 406.104C905.201 406.947 903.432 407.369 901.369 407.369ZM901.404 402.605C902.166 402.605 902.805 402.383 903.32 401.938C903.836 401.492 904.229 400.865 904.498 400.057C904.779 399.236 904.92 398.287 904.92 397.209C904.92 396.119 904.779 395.176 904.498 394.379C904.229 393.582 903.836 392.967 903.32 392.533C902.805 392.088 902.166 391.865 901.404 391.865C900.643 391.865 899.992 392.088 899.453 392.533C898.914 392.967 898.51 393.582 898.24 394.379C897.971 395.176 897.836 396.119 897.836 397.209C897.836 398.287 897.971 399.236 898.24 400.057C898.51 400.865 898.914 401.492 899.453 401.938C899.992 402.383 900.643 402.605 901.404 402.605ZM924.766 387.348V391.971H912.162V387.348H924.766ZM914.799 407V386.363C914.799 384.84 915.08 383.58 915.643 382.584C916.205 381.576 916.99 380.826 917.998 380.334C919.018 379.83 920.195 379.578 921.531 379.578C922.398 379.578 923.219 379.648 923.992 379.789C924.766 379.918 925.334 380.035 925.697 380.141L924.713 384.711C924.479 384.641 924.197 384.582 923.869 384.535C923.553 384.477 923.242 384.447 922.938 384.447C922.211 384.447 921.707 384.611 921.426 384.939C921.156 385.268 921.021 385.713 921.021 386.275V407H914.799ZM758.986 443H752.184L761.043 416.809H769.445L778.287 443H771.502L765.35 423.4H765.139L758.986 443ZM758.107 432.682H772.328V437.498H758.107V432.682ZM780.098 450.348V423.348H786.285V426.723H786.496C786.742 426.125 787.1 425.551 787.568 425C788.049 424.438 788.652 423.98 789.379 423.629C790.117 423.277 791.008 423.102 792.051 423.102C793.422 423.102 794.699 423.465 795.883 424.191C797.066 424.906 798.021 426.008 798.748 427.496C799.486 428.984 799.855 430.883 799.855 433.191C799.855 435.418 799.504 437.281 798.801 438.781C798.098 440.281 797.148 441.406 795.953 442.156C794.77 442.906 793.451 443.281 791.998 443.281C791.014 443.281 790.158 443.117 789.432 442.789C788.705 442.461 788.096 442.033 787.604 441.506C787.123 440.979 786.754 440.41 786.496 439.801H786.355V450.348H780.098ZM789.836 438.412C790.609 438.412 791.26 438.195 791.787 437.762C792.326 437.328 792.73 436.719 793 435.934C793.281 435.148 793.422 434.234 793.422 433.191C793.422 432.137 793.281 431.223 793 430.449C792.73 429.664 792.332 429.055 791.805 428.621C791.277 428.188 790.621 427.971 789.836 427.971C789.074 427.971 788.424 428.182 787.885 428.604C787.346 429.025 786.93 429.629 786.637 430.414C786.355 431.188 786.215 432.113 786.215 433.191C786.215 434.246 786.355 435.166 786.637 435.951C786.93 436.725 787.346 437.328 787.885 437.762C788.424 438.195 789.074 438.412 789.836 438.412ZM802.07 450.348V423.348H808.258V426.723H808.469C808.715 426.125 809.072 425.551 809.541 425C810.021 424.438 810.625 423.98 811.352 423.629C812.09 423.277 812.98 423.102 814.023 423.102C815.395 423.102 816.672 423.465 817.855 424.191C819.039 424.906 819.994 426.008 820.721 427.496C821.459 428.984 821.828 430.883 821.828 433.191C821.828 435.418 821.477 437.281 820.773 438.781C820.07 440.281 819.121 441.406 817.926 442.156C816.742 442.906 815.424 443.281 813.971 443.281C812.986 443.281 812.131 443.117 811.404 442.789C810.678 442.461 810.068 442.033 809.576 441.506C809.096 440.979 808.727 440.41 808.469 439.801H808.328V450.348H802.07ZM811.809 438.412C812.582 438.412 813.232 438.195 813.76 437.762C814.299 437.328 814.703 436.719 814.973 435.934C815.254 435.148 815.395 434.234 815.395 433.191C815.395 432.137 815.254 431.223 814.973 430.449C814.703 429.664 814.305 429.055 813.777 428.621C813.25 428.188 812.594 427.971 811.809 427.971C811.047 427.971 810.396 428.182 809.857 428.604C809.318 429.025 808.902 429.629 808.609 430.414C808.328 431.188 808.188 432.113 808.188 433.191C808.188 434.246 808.328 435.166 808.609 435.951C808.902 436.725 809.318 437.328 809.857 437.762C810.396 438.195 811.047 438.412 811.809 438.412ZM833.236 443.369C831.174 443.369 829.398 442.965 827.91 442.156C826.422 441.336 825.279 440.17 824.482 438.658C823.697 437.146 823.305 435.342 823.305 433.244C823.305 431.217 823.703 429.447 824.5 427.936C825.297 426.412 826.422 425.229 827.875 424.385C829.328 423.529 831.039 423.102 833.008 423.102C834.402 423.102 835.68 423.324 836.84 423.77C838.012 424.203 839.02 424.848 839.863 425.703C840.719 426.547 841.375 427.59 841.832 428.832C842.301 430.074 842.535 431.51 842.535 433.139V434.686H825.467V431.082H839.564L836.646 431.926C836.646 431.023 836.512 430.256 836.242 429.623C835.973 428.979 835.574 428.48 835.047 428.129C834.52 427.777 833.863 427.602 833.078 427.602C832.293 427.602 831.631 427.777 831.092 428.129C830.553 428.48 830.143 428.973 829.861 429.605C829.58 430.227 829.439 430.965 829.439 431.82V434.404C829.439 435.318 829.598 436.109 829.914 436.777C830.242 437.445 830.699 437.961 831.285 438.324C831.883 438.676 832.568 438.852 833.342 438.852C833.881 438.852 834.373 438.775 834.818 438.623C835.264 438.471 835.645 438.248 835.961 437.955C836.277 437.65 836.518 437.287 836.682 436.865L842.412 437.023C842.178 438.312 841.662 439.432 840.865 440.381C840.068 441.33 839.025 442.068 837.736 442.596C836.447 443.111 834.947 443.369 833.236 443.369ZM850.234 443.352C848.98 443.352 847.861 443.141 846.877 442.719C845.904 442.285 845.143 441.641 844.592 440.785C844.041 439.93 843.766 438.852 843.766 437.551C843.766 436.461 843.953 435.541 844.328 434.791C844.715 434.041 845.242 433.432 845.91 432.963C846.59 432.494 847.369 432.137 848.248 431.891C849.127 431.633 850.064 431.469 851.061 431.398C852.174 431.293 853.07 431.188 853.75 431.082C854.43 430.977 854.922 430.812 855.227 430.59C855.543 430.367 855.701 430.057 855.701 429.658V429.57C855.701 428.926 855.479 428.422 855.033 428.059C854.588 427.695 853.979 427.514 853.205 427.514C852.373 427.514 851.705 427.695 851.201 428.059C850.709 428.422 850.393 428.914 850.252 429.535L844.504 429.342C844.668 428.146 845.102 427.08 845.805 426.143C846.52 425.193 847.498 424.449 848.74 423.91C849.994 423.371 851.506 423.102 853.275 423.102C854.518 423.102 855.666 423.248 856.721 423.541C857.775 423.834 858.695 424.262 859.48 424.824C860.266 425.387 860.875 426.072 861.309 426.881C861.742 427.689 861.959 428.609 861.959 429.641V443H856.07V440.24H855.93C855.566 440.92 855.115 441.488 854.576 441.945C854.037 442.402 853.404 442.754 852.678 443C851.963 443.234 851.148 443.352 850.234 443.352ZM852.15 439.238C852.818 439.238 853.422 439.104 853.961 438.834C854.512 438.553 854.945 438.172 855.262 437.691C855.59 437.211 855.754 436.648 855.754 436.004V434.158C855.578 434.252 855.361 434.34 855.104 434.422C854.857 434.492 854.582 434.562 854.277 434.633C853.973 434.703 853.662 434.762 853.346 434.809C853.041 434.855 852.748 434.902 852.467 434.949C851.869 435.031 851.359 435.178 850.938 435.389C850.527 435.588 850.217 435.84 850.006 436.145C849.795 436.449 849.689 436.818 849.689 437.252C849.689 437.896 849.918 438.389 850.375 438.729C850.832 439.068 851.424 439.238 852.15 439.238ZM864.93 443V423.348H870.994V426.951H871.205C871.557 425.639 872.137 424.672 872.945 424.051C873.766 423.418 874.709 423.102 875.775 423.102C876.068 423.102 876.367 423.119 876.672 423.154C876.988 423.189 877.275 423.248 877.533 423.33V428.744C877.229 428.639 876.836 428.562 876.355 428.516C875.875 428.457 875.447 428.428 875.072 428.428C874.334 428.428 873.666 428.592 873.068 428.92C872.482 429.248 872.02 429.705 871.68 430.291C871.352 430.877 871.188 431.557 871.188 432.33V443H864.93ZM883.914 443.352C882.66 443.352 881.541 443.141 880.557 442.719C879.584 442.285 878.822 441.641 878.271 440.785C877.721 439.93 877.445 438.852 877.445 437.551C877.445 436.461 877.633 435.541 878.008 434.791C878.395 434.041 878.922 433.432 879.59 432.963C880.27 432.494 881.049 432.137 881.928 431.891C882.807 431.633 883.744 431.469 884.74 431.398C885.854 431.293 886.75 431.188 887.43 431.082C888.109 430.977 888.602 430.812 888.906 430.59C889.223 430.367 889.381 430.057 889.381 429.658V429.57C889.381 428.926 889.158 428.422 888.713 428.059C888.268 427.695 887.658 427.514 886.885 427.514C886.053 427.514 885.385 427.695 884.881 428.059C884.389 428.422 884.072 428.914 883.932 429.535L878.184 429.342C878.348 428.146 878.781 427.08 879.484 426.143C880.199 425.193 881.178 424.449 882.42 423.91C883.674 423.371 885.186 423.102 886.955 423.102C888.197 423.102 889.346 423.248 890.4 423.541C891.455 423.834 892.375 424.262 893.16 424.824C893.945 425.387 894.555 426.072 894.988 426.881C895.422 427.689 895.639 428.609 895.639 429.641V443H889.75V440.24H889.609C889.246 440.92 888.795 441.488 888.256 441.945C887.717 442.402 887.084 442.754 886.357 443C885.643 443.234 884.828 443.352 883.914 443.352ZM885.83 439.238C886.498 439.238 887.102 439.104 887.641 438.834C888.191 438.553 888.625 438.172 888.941 437.691C889.27 437.211 889.434 436.648 889.434 436.004V434.158C889.258 434.252 889.041 434.34 888.783 434.422C888.537 434.492 888.262 434.562 887.957 434.633C887.652 434.703 887.342 434.762 887.025 434.809C886.721 434.855 886.428 434.902 886.146 434.949C885.549 435.031 885.039 435.178 884.617 435.389C884.207 435.588 883.896 435.84 883.686 436.145C883.475 436.449 883.369 436.818 883.369 437.252C883.369 437.896 883.598 438.389 884.055 438.729C884.512 439.068 885.104 439.238 885.83 439.238ZM904.867 431.803V443H898.609V423.348H904.797V426.969H904.955C905.4 425.773 906.109 424.83 907.082 424.139C908.066 423.447 909.285 423.102 910.738 423.102C912.121 423.102 913.322 423.412 914.342 424.033C915.361 424.643 916.152 425.504 916.715 426.617C917.277 427.719 917.559 429.008 917.559 430.484V443H911.301V431.715C911.301 430.625 911.025 429.775 910.475 429.166C909.924 428.545 909.15 428.234 908.154 428.234C907.498 428.234 906.924 428.375 906.432 428.656C905.939 428.938 905.553 429.348 905.271 429.887C905.002 430.414 904.867 431.053 904.867 431.803ZM929.67 443.369C927.596 443.369 925.82 442.941 924.344 442.086C922.867 441.23 921.736 440.047 920.951 438.535C920.166 437.012 919.773 435.248 919.773 433.244C919.773 431.229 920.166 429.465 920.951 427.953C921.736 426.43 922.867 425.24 924.344 424.385C925.832 423.529 927.607 423.102 929.67 423.102C931.486 423.102 933.068 423.436 934.416 424.104C935.764 424.76 936.818 425.686 937.58 426.881C938.342 428.064 938.746 429.465 938.793 431.082H932.957C932.875 430.414 932.693 429.84 932.412 429.359C932.143 428.879 931.779 428.51 931.322 428.252C930.877 427.994 930.355 427.865 929.758 427.865C929.031 427.865 928.393 428.07 927.842 428.48C927.303 428.879 926.881 429.477 926.576 430.273C926.283 431.059 926.137 432.031 926.137 433.191C926.137 434.352 926.283 435.336 926.576 436.145C926.881 436.941 927.303 437.551 927.842 437.973C928.381 438.395 929.02 438.605 929.758 438.605C930.613 438.605 931.328 438.318 931.902 437.744C932.477 437.158 932.828 436.344 932.957 435.301H938.793C938.734 436.918 938.33 438.336 937.58 439.555C936.83 440.762 935.787 441.699 934.451 442.367C933.115 443.035 931.521 443.369 929.67 443.369ZM950.166 443.369C948.104 443.369 946.328 442.965 944.84 442.156C943.352 441.336 942.209 440.17 941.412 438.658C940.627 437.146 940.234 435.342 940.234 433.244C940.234 431.217 940.633 429.447 941.43 427.936C942.227 426.412 943.352 425.229 944.805 424.385C946.258 423.529 947.969 423.102 949.938 423.102C951.332 423.102 952.609 423.324 953.77 423.77C954.941 424.203 955.949 424.848 956.793 425.703C957.648 426.547 958.305 427.59 958.762 428.832C959.23 430.074 959.465 431.51 959.465 433.139V434.686H942.396V431.082H956.494L953.576 431.926C953.576 431.023 953.441 430.256 953.172 429.623C952.902 428.979 952.504 428.48 951.977 428.129C951.449 427.777 950.793 427.602 950.008 427.602C949.223 427.602 948.561 427.777 948.021 428.129C947.482 428.48 947.072 428.973 946.791 429.605C946.51 430.227 946.369 430.965 946.369 431.82V434.404C946.369 435.318 946.527 436.109 946.844 436.777C947.172 437.445 947.629 437.961 948.215 438.324C948.812 438.676 949.498 438.852 950.271 438.852C950.811 438.852 951.303 438.775 951.748 438.623C952.193 438.471 952.574 438.248 952.891 437.955C953.207 437.65 953.447 437.287 953.611 436.865L959.342 437.023C959.107 438.312 958.592 439.432 957.795 440.381C956.998 441.33 955.955 442.068 954.666 442.596C953.377 443.111 951.877 443.369 950.166 443.369Z" fill="black"/>
</g>
<rect x="520" y="215" width="258" height="221" fill="#DDDDDD"/>
<path d="M591.016 300.352C588.824 300.352 586.914 300.023 585.285 299.367C583.656 298.699 582.385 297.697 581.471 296.361C580.568 295.014 580.105 293.32 580.082 291.281H586.129C586.188 292.113 586.416 292.816 586.814 293.391C587.225 293.953 587.775 294.381 588.467 294.674C589.17 294.967 589.99 295.113 590.928 295.113C591.783 295.113 592.51 294.996 593.107 294.762C593.717 294.527 594.186 294.205 594.514 293.795C594.842 293.385 595.006 292.91 595.006 292.371C595.006 291.879 594.854 291.463 594.549 291.123C594.244 290.771 593.781 290.467 593.16 290.209C592.551 289.939 591.766 289.699 590.805 289.488L588.045 288.855C585.795 288.34 584.02 287.502 582.719 286.342C581.418 285.17 580.768 283.582 580.768 281.578C580.768 279.961 581.207 278.543 582.086 277.324C582.965 276.105 584.172 275.156 585.707 274.477C587.254 273.797 589.023 273.457 591.016 273.457C593.043 273.457 594.807 273.803 596.307 274.494C597.807 275.174 598.967 276.135 599.787 277.377C600.607 278.607 601.029 280.037 601.053 281.666H594.971C594.9 280.729 594.525 280.002 593.846 279.486C593.178 278.959 592.229 278.695 590.998 278.695C590.178 278.695 589.492 278.801 588.941 279.012C588.402 279.223 587.992 279.516 587.711 279.891C587.441 280.266 587.307 280.688 587.307 281.156C587.307 281.672 587.459 282.111 587.764 282.475C588.068 282.838 588.508 283.143 589.082 283.389C589.668 283.635 590.354 283.846 591.139 284.021L593.371 284.531C594.66 284.812 595.803 285.188 596.799 285.656C597.795 286.125 598.633 286.682 599.312 287.326C600.004 287.971 600.525 288.715 600.877 289.559C601.229 290.402 601.404 291.346 601.404 292.389C601.404 294.053 600.988 295.482 600.156 296.678C599.336 297.861 598.152 298.77 596.605 299.402C595.059 300.035 593.195 300.352 591.016 300.352ZM612.812 300.369C610.75 300.369 608.975 299.965 607.486 299.156C605.998 298.336 604.855 297.17 604.059 295.658C603.273 294.146 602.881 292.342 602.881 290.244C602.881 288.217 603.279 286.447 604.076 284.936C604.873 283.412 605.998 282.229 607.451 281.385C608.904 280.529 610.615 280.102 612.584 280.102C613.979 280.102 615.256 280.324 616.416 280.77C617.588 281.203 618.596 281.848 619.439 282.703C620.295 283.547 620.951 284.59 621.408 285.832C621.877 287.074 622.111 288.51 622.111 290.139V291.686H605.043V288.082H619.141L616.223 288.926C616.223 288.023 616.088 287.256 615.818 286.623C615.549 285.979 615.15 285.48 614.623 285.129C614.096 284.777 613.439 284.602 612.654 284.602C611.869 284.602 611.207 284.777 610.668 285.129C610.129 285.48 609.719 285.973 609.438 286.605C609.156 287.227 609.016 287.965 609.016 288.82V291.404C609.016 292.318 609.174 293.109 609.49 293.777C609.818 294.445 610.275 294.961 610.861 295.324C611.459 295.676 612.145 295.852 612.918 295.852C613.457 295.852 613.949 295.775 614.395 295.623C614.84 295.471 615.221 295.248 615.537 294.955C615.854 294.65 616.094 294.287 616.258 293.865L621.988 294.023C621.754 295.312 621.238 296.432 620.441 297.381C619.645 298.33 618.602 299.068 617.312 299.596C616.023 300.111 614.523 300.369 612.812 300.369ZM630.514 273.809V300H624.256V273.809H630.514ZM642.66 300.369C640.598 300.369 638.822 299.965 637.334 299.156C635.846 298.336 634.703 297.17 633.906 295.658C633.121 294.146 632.729 292.342 632.729 290.244C632.729 288.217 633.127 286.447 633.924 284.936C634.721 283.412 635.846 282.229 637.299 281.385C638.752 280.529 640.463 280.102 642.432 280.102C643.826 280.102 645.104 280.324 646.264 280.77C647.436 281.203 648.443 281.848 649.287 282.703C650.143 283.547 650.799 284.59 651.256 285.832C651.725 287.074 651.959 288.51 651.959 290.139V291.686H634.891V288.082H648.988L646.07 288.926C646.07 288.023 645.936 287.256 645.666 286.623C645.396 285.979 644.998 285.48 644.471 285.129C643.943 284.777 643.287 284.602 642.502 284.602C641.717 284.602 641.055 284.777 640.516 285.129C639.977 285.48 639.566 285.973 639.285 286.605C639.004 287.227 638.863 287.965 638.863 288.82V291.404C638.863 292.318 639.021 293.109 639.338 293.777C639.666 294.445 640.123 294.961 640.709 295.324C641.307 295.676 641.992 295.852 642.766 295.852C643.305 295.852 643.797 295.775 644.242 295.623C644.688 295.471 645.068 295.248 645.385 294.955C645.701 294.65 645.941 294.287 646.105 293.865L651.836 294.023C651.602 295.312 651.086 296.432 650.289 297.381C649.492 298.33 648.449 299.068 647.16 299.596C645.871 300.111 644.371 300.369 642.66 300.369ZM663.262 300.369C661.188 300.369 659.412 299.941 657.936 299.086C656.459 298.23 655.328 297.047 654.543 295.535C653.758 294.012 653.365 292.248 653.365 290.244C653.365 288.229 653.758 286.465 654.543 284.953C655.328 283.43 656.459 282.24 657.936 281.385C659.424 280.529 661.199 280.102 663.262 280.102C665.078 280.102 666.66 280.436 668.008 281.104C669.355 281.76 670.41 282.686 671.172 283.881C671.934 285.064 672.338 286.465 672.385 288.082H666.549C666.467 287.414 666.285 286.84 666.004 286.359C665.734 285.879 665.371 285.51 664.914 285.252C664.469 284.994 663.947 284.865 663.35 284.865C662.623 284.865 661.984 285.07 661.434 285.48C660.895 285.879 660.473 286.477 660.168 287.273C659.875 288.059 659.729 289.031 659.729 290.191C659.729 291.352 659.875 292.336 660.168 293.145C660.473 293.941 660.895 294.551 661.434 294.973C661.973 295.395 662.611 295.605 663.35 295.605C664.205 295.605 664.92 295.318 665.494 294.744C666.068 294.158 666.42 293.344 666.549 292.301H672.385C672.326 293.918 671.922 295.336 671.172 296.555C670.422 297.762 669.379 298.699 668.043 299.367C666.707 300.035 665.113 300.369 663.262 300.369ZM685.639 280.348V284.971H673.264V280.348H685.639ZM675.848 275.672H682.088V293.812C682.088 294.34 682.217 294.738 682.475 295.008C682.732 295.266 683.137 295.395 683.688 295.395C683.898 295.395 684.139 295.371 684.408 295.324C684.689 295.277 684.906 295.23 685.059 295.184L685.99 299.719C685.287 299.918 684.631 300.059 684.021 300.141C683.424 300.234 682.832 300.281 682.246 300.281C680.16 300.281 678.572 299.789 677.482 298.805C676.393 297.809 675.848 296.379 675.848 294.516V275.672ZM696.801 300.369C694.738 300.369 692.969 299.947 691.492 299.104C690.016 298.248 688.879 297.064 688.082 295.553C687.297 294.029 686.904 292.26 686.904 290.244C686.904 288.217 687.297 286.447 688.082 284.936C688.879 283.412 690.016 282.229 691.492 281.385C692.969 280.529 694.738 280.102 696.801 280.102C698.863 280.102 700.633 280.529 702.109 281.385C703.598 282.229 704.734 283.412 705.52 284.936C706.316 286.447 706.715 288.217 706.715 290.244C706.715 292.26 706.316 294.029 705.52 295.553C704.734 297.064 703.598 298.248 702.109 299.104C700.633 299.947 698.863 300.369 696.801 300.369ZM696.836 295.605C697.598 295.605 698.236 295.383 698.752 294.938C699.268 294.492 699.66 293.865 699.93 293.057C700.211 292.236 700.352 291.287 700.352 290.209C700.352 289.119 700.211 288.176 699.93 287.379C699.66 286.582 699.268 285.967 698.752 285.533C698.236 285.088 697.598 284.865 696.836 284.865C696.074 284.865 695.424 285.088 694.885 285.533C694.346 285.967 693.941 286.582 693.672 287.379C693.402 288.176 693.268 289.119 693.268 290.209C693.268 291.287 693.402 292.236 693.672 293.057C693.941 293.865 694.346 294.492 694.885 294.938C695.424 295.383 696.074 295.605 696.836 295.605ZM708.947 300V280.348H715.012V283.951H715.223C715.574 282.639 716.154 281.672 716.963 281.051C717.783 280.418 718.727 280.102 719.793 280.102C720.086 280.102 720.385 280.119 720.689 280.154C721.006 280.189 721.293 280.248 721.551 280.33V285.744C721.246 285.639 720.854 285.562 720.373 285.516C719.893 285.457 719.465 285.428 719.09 285.428C718.352 285.428 717.684 285.592 717.086 285.92C716.5 286.248 716.037 286.705 715.697 287.291C715.369 287.877 715.205 288.557 715.205 289.33V300H708.947ZM571.68 336.352C569.488 336.352 567.578 336.023 565.949 335.367C564.32 334.699 563.049 333.697 562.135 332.361C561.232 331.014 560.77 329.32 560.746 327.281H566.793C566.852 328.113 567.08 328.816 567.479 329.391C567.889 329.953 568.439 330.381 569.131 330.674C569.834 330.967 570.654 331.113 571.592 331.113C572.447 331.113 573.174 330.996 573.771 330.762C574.381 330.527 574.85 330.205 575.178 329.795C575.506 329.385 575.67 328.91 575.67 328.371C575.67 327.879 575.518 327.463 575.213 327.123C574.908 326.771 574.445 326.467 573.824 326.209C573.215 325.939 572.43 325.699 571.469 325.488L568.709 324.855C566.459 324.34 564.684 323.502 563.383 322.342C562.082 321.17 561.432 319.582 561.432 317.578C561.432 315.961 561.871 314.543 562.75 313.324C563.629 312.105 564.836 311.156 566.371 310.477C567.918 309.797 569.688 309.457 571.68 309.457C573.707 309.457 575.471 309.803 576.971 310.494C578.471 311.174 579.631 312.135 580.451 313.377C581.271 314.607 581.693 316.037 581.717 317.666H575.635C575.564 316.729 575.189 316.002 574.51 315.486C573.842 314.959 572.893 314.695 571.662 314.695C570.842 314.695 570.156 314.801 569.605 315.012C569.066 315.223 568.656 315.516 568.375 315.891C568.105 316.266 567.971 316.688 567.971 317.156C567.971 317.672 568.123 318.111 568.428 318.475C568.732 318.838 569.172 319.143 569.746 319.389C570.332 319.635 571.018 319.846 571.803 320.021L574.035 320.531C575.324 320.812 576.467 321.188 577.463 321.656C578.459 322.125 579.297 322.682 579.977 323.326C580.668 323.971 581.189 324.715 581.541 325.559C581.893 326.402 582.068 327.346 582.068 328.389C582.068 330.053 581.652 331.482 580.82 332.678C580 333.861 578.816 334.77 577.27 335.402C575.723 336.035 573.859 336.352 571.68 336.352ZM584.283 343.348V316.348H590.471V319.723H590.682C590.928 319.125 591.285 318.551 591.754 318C592.234 317.438 592.838 316.98 593.564 316.629C594.303 316.277 595.193 316.102 596.236 316.102C597.607 316.102 598.885 316.465 600.068 317.191C601.252 317.906 602.207 319.008 602.934 320.496C603.672 321.984 604.041 323.883 604.041 326.191C604.041 328.418 603.689 330.281 602.986 331.781C602.283 333.281 601.334 334.406 600.139 335.156C598.955 335.906 597.637 336.281 596.184 336.281C595.199 336.281 594.344 336.117 593.617 335.789C592.891 335.461 592.281 335.033 591.789 334.506C591.309 333.979 590.939 333.41 590.682 332.801H590.541V343.348H584.283ZM594.021 331.412C594.795 331.412 595.445 331.195 595.973 330.762C596.512 330.328 596.916 329.719 597.186 328.934C597.467 328.148 597.607 327.234 597.607 326.191C597.607 325.137 597.467 324.223 597.186 323.449C596.916 322.664 596.518 322.055 595.99 321.621C595.463 321.188 594.807 320.971 594.021 320.971C593.26 320.971 592.609 321.182 592.07 321.604C591.531 322.025 591.115 322.629 590.822 323.414C590.541 324.188 590.4 325.113 590.4 326.191C590.4 327.246 590.541 328.166 590.822 328.951C591.115 329.725 591.531 330.328 592.07 330.762C592.609 331.195 593.26 331.412 594.021 331.412ZM615.449 336.369C613.387 336.369 611.611 335.965 610.123 335.156C608.635 334.336 607.492 333.17 606.695 331.658C605.91 330.146 605.518 328.342 605.518 326.244C605.518 324.217 605.916 322.447 606.713 320.936C607.51 319.412 608.635 318.229 610.088 317.385C611.541 316.529 613.252 316.102 615.221 316.102C616.615 316.102 617.893 316.324 619.053 316.77C620.225 317.203 621.232 317.848 622.076 318.703C622.932 319.547 623.588 320.59 624.045 321.832C624.514 323.074 624.748 324.51 624.748 326.139V327.686H607.68V324.082H621.777L618.859 324.926C618.859 324.023 618.725 323.256 618.455 322.623C618.186 321.979 617.787 321.48 617.26 321.129C616.732 320.777 616.076 320.602 615.291 320.602C614.506 320.602 613.844 320.777 613.305 321.129C612.766 321.48 612.355 321.973 612.074 322.605C611.793 323.227 611.652 323.965 611.652 324.82V327.404C611.652 328.318 611.811 329.109 612.127 329.777C612.455 330.445 612.912 330.961 613.498 331.324C614.096 331.676 614.781 331.852 615.555 331.852C616.094 331.852 616.586 331.775 617.031 331.623C617.477 331.471 617.857 331.248 618.174 330.955C618.49 330.65 618.73 330.287 618.895 329.865L624.625 330.023C624.391 331.312 623.875 332.432 623.078 333.381C622.281 334.33 621.238 335.068 619.949 335.596C618.66 336.111 617.16 336.369 615.449 336.369ZM636.051 336.369C633.977 336.369 632.201 335.941 630.725 335.086C629.248 334.23 628.117 333.047 627.332 331.535C626.547 330.012 626.154 328.248 626.154 326.244C626.154 324.229 626.547 322.465 627.332 320.953C628.117 319.43 629.248 318.24 630.725 317.385C632.213 316.529 633.988 316.102 636.051 316.102C637.867 316.102 639.449 316.436 640.797 317.104C642.145 317.76 643.199 318.686 643.961 319.881C644.723 321.064 645.127 322.465 645.174 324.082H639.338C639.256 323.414 639.074 322.84 638.793 322.359C638.523 321.879 638.16 321.51 637.703 321.252C637.258 320.994 636.736 320.865 636.139 320.865C635.412 320.865 634.773 321.07 634.223 321.48C633.684 321.879 633.262 322.477 632.957 323.273C632.664 324.059 632.518 325.031 632.518 326.191C632.518 327.352 632.664 328.336 632.957 329.145C633.262 329.941 633.684 330.551 634.223 330.973C634.762 331.395 635.4 331.605 636.139 331.605C636.994 331.605 637.709 331.318 638.283 330.744C638.857 330.158 639.209 329.344 639.338 328.301H645.174C645.115 329.918 644.711 331.336 643.961 332.555C643.211 333.762 642.168 334.699 640.832 335.367C639.496 336.035 637.902 336.369 636.051 336.369ZM647.354 336V316.348H653.611V336H647.354ZM650.465 314.098C649.586 314.098 648.83 313.805 648.197 313.219C647.564 312.633 647.248 311.924 647.248 311.092C647.248 310.26 647.564 309.557 648.197 308.982C648.83 308.396 649.586 308.104 650.465 308.104C651.355 308.104 652.111 308.396 652.732 308.982C653.365 309.557 653.682 310.26 653.682 311.092C653.682 311.924 653.365 312.633 652.732 313.219C652.111 313.805 651.355 314.098 650.465 314.098ZM667.814 316.348V320.971H655.211V316.348H667.814ZM657.848 336V315.363C657.848 313.84 658.129 312.58 658.691 311.584C659.254 310.576 660.039 309.826 661.047 309.334C662.066 308.83 663.244 308.578 664.58 308.578C665.447 308.578 666.268 308.648 667.041 308.789C667.814 308.918 668.383 309.035 668.746 309.141L667.762 313.711C667.527 313.641 667.246 313.582 666.918 313.535C666.602 313.477 666.291 313.447 665.986 313.447C665.26 313.447 664.756 313.611 664.475 313.939C664.205 314.268 664.07 314.713 664.07 315.275V336H657.848ZM669.854 336V316.348H676.111V336H669.854ZM672.965 314.098C672.086 314.098 671.33 313.805 670.697 313.219C670.064 312.633 669.748 311.924 669.748 311.092C669.748 310.26 670.064 309.557 670.697 308.982C671.33 308.396 672.086 308.104 672.965 308.104C673.855 308.104 674.611 308.396 675.232 308.982C675.865 309.557 676.182 310.26 676.182 311.092C676.182 311.924 675.865 312.633 675.232 313.219C674.611 313.805 673.855 314.098 672.965 314.098ZM688.223 336.369C686.148 336.369 684.373 335.941 682.896 335.086C681.42 334.23 680.289 333.047 679.504 331.535C678.719 330.012 678.326 328.248 678.326 326.244C678.326 324.229 678.719 322.465 679.504 320.953C680.289 319.43 681.42 318.24 682.896 317.385C684.385 316.529 686.16 316.102 688.223 316.102C690.039 316.102 691.621 316.436 692.969 317.104C694.316 317.76 695.371 318.686 696.133 319.881C696.895 321.064 697.299 322.465 697.346 324.082H691.51C691.428 323.414 691.246 322.84 690.965 322.359C690.695 321.879 690.332 321.51 689.875 321.252C689.43 320.994 688.908 320.865 688.311 320.865C687.584 320.865 686.945 321.07 686.395 321.48C685.855 321.879 685.434 322.477 685.129 323.273C684.836 324.059 684.689 325.031 684.689 326.191C684.689 327.352 684.836 328.336 685.129 329.145C685.434 329.941 685.855 330.551 686.395 330.973C686.934 331.395 687.572 331.605 688.311 331.605C689.166 331.605 689.881 331.318 690.455 330.744C691.029 330.158 691.381 329.344 691.51 328.301H697.346C697.287 329.918 696.883 331.336 696.133 332.555C695.383 333.762 694.34 334.699 693.004 335.367C691.668 336.035 690.074 336.369 688.223 336.369ZM699.525 336V316.348H705.783V336H699.525ZM702.637 314.098C701.758 314.098 701.002 313.805 700.369 313.219C699.736 312.633 699.42 311.924 699.42 311.092C699.42 310.26 699.736 309.557 700.369 308.982C701.002 308.396 701.758 308.104 702.637 308.104C703.527 308.104 704.283 308.396 704.904 308.982C705.537 309.557 705.854 310.26 705.854 311.092C705.854 311.924 705.537 312.633 704.904 313.219C704.283 313.805 703.527 314.098 702.637 314.098ZM719.811 316.348V320.971H707.436V316.348H719.811ZM710.02 311.672H716.26V329.812C716.26 330.34 716.389 330.738 716.646 331.008C716.904 331.266 717.309 331.395 717.859 331.395C718.07 331.395 718.311 331.371 718.58 331.324C718.861 331.277 719.078 331.23 719.23 331.184L720.162 335.719C719.459 335.918 718.803 336.059 718.193 336.141C717.596 336.234 717.004 336.281 716.418 336.281C714.332 336.281 712.744 335.789 711.654 334.805C710.564 333.809 710.02 332.379 710.02 330.516V311.672ZM725.857 343.348C725.107 343.359 724.393 343.307 723.713 343.189C723.045 343.072 722.477 342.926 722.008 342.75L723.396 338.197L723.537 338.232C724.416 338.502 725.172 338.596 725.805 338.514C726.449 338.432 726.912 338.033 727.193 337.318L727.422 336.721L720.461 316.348H726.982L730.604 330.375H730.814L734.488 316.348H741.08L733.662 337.898C733.311 338.965 732.807 339.908 732.15 340.729C731.506 341.549 730.668 342.188 729.637 342.645C728.617 343.113 727.357 343.348 725.857 343.348Z" fill="black"/>
<path d="M592.321 379.269C591.613 379.269 591.052 379.02 590.637 378.524C590.222 378.019 590.071 377.405 590.185 376.681C590.283 376.095 590.563 375.611 591.027 375.228C591.499 374.846 592.032 374.654 592.626 374.654C593.343 374.654 593.908 374.907 594.323 375.411C594.738 375.908 594.885 376.518 594.763 377.242C594.665 377.828 594.384 378.312 593.92 378.695C593.457 379.077 592.924 379.269 592.321 379.269ZM593.762 370.602C593.054 370.602 592.492 370.353 592.077 369.857C591.662 369.352 591.512 368.738 591.625 368.014C591.723 367.428 592.004 366.944 592.468 366.561C592.94 366.179 593.473 365.987 594.067 365.987C594.783 365.987 595.349 366.24 595.764 366.744C596.179 367.241 596.325 367.851 596.203 368.575C596.105 369.161 595.825 369.645 595.361 370.028C594.897 370.41 594.364 370.602 593.762 370.602ZM597.277 379L599.548 365.353H603.894L601.623 379H597.277ZM602.014 363.766C601.403 363.774 600.907 363.574 600.524 363.167C600.142 362.761 599.991 362.272 600.073 361.703C600.162 361.125 600.451 360.637 600.939 360.238C601.436 359.831 601.989 359.627 602.6 359.627C603.218 359.627 603.715 359.831 604.089 360.238C604.463 360.637 604.614 361.125 604.541 361.703C604.459 362.272 604.174 362.761 603.686 363.167C603.198 363.574 602.64 363.774 602.014 363.766ZM617.138 369.527L613.22 369.625C613.22 369.332 613.151 369.076 613.012 368.856C612.882 368.636 612.691 368.465 612.438 368.343C612.194 368.221 611.897 368.16 611.547 368.16C610.994 368.16 610.498 368.286 610.058 368.539C609.619 368.783 609.37 369.104 609.313 369.503C609.273 369.715 609.334 369.902 609.497 370.064C609.659 370.219 610.017 370.353 610.571 370.467L613.11 370.956C614.428 371.216 615.384 371.672 615.979 372.323C616.573 372.974 616.788 373.82 616.625 374.862C616.471 375.757 616.072 376.534 615.429 377.193C614.794 377.853 613.989 378.361 613.012 378.719C612.036 379.077 610.953 379.256 609.765 379.256C607.763 379.256 606.254 378.854 605.236 378.048C604.227 377.234 603.755 376.16 603.82 374.825L608.044 374.728C608.068 375.224 608.239 375.598 608.557 375.851C608.882 376.103 609.322 376.233 609.875 376.241C610.485 376.257 611.01 376.135 611.45 375.875C611.897 375.606 612.15 375.277 612.207 374.886C612.239 374.634 612.15 374.435 611.938 374.288C611.735 374.142 611.356 374.011 610.803 373.897L608.496 373.458C607.177 373.206 606.221 372.726 605.627 372.018C605.041 371.301 604.842 370.394 605.029 369.295C605.175 368.417 605.533 367.672 606.103 367.062C606.681 366.443 607.43 365.975 608.349 365.658C609.277 365.34 610.339 365.182 611.535 365.182C613.439 365.182 614.876 365.572 615.844 366.354C616.821 367.127 617.252 368.185 617.138 369.527ZM616.564 384.017L618.933 376.144H623.132L619.421 384.017H616.564ZM632.8 379.269C632.092 379.269 631.53 379.02 631.115 378.524C630.7 378.019 630.55 377.405 630.664 376.681C630.761 376.095 631.042 375.611 631.506 375.228C631.978 374.846 632.511 374.654 633.105 374.654C633.821 374.654 634.387 374.907 634.802 375.411C635.217 375.908 635.363 376.518 635.241 377.242C635.144 377.828 634.863 378.312 634.399 378.695C633.935 379.077 633.402 379.269 632.8 379.269ZM634.24 370.602C633.532 370.602 632.971 370.353 632.556 369.857C632.141 369.352 631.99 368.738 632.104 368.014C632.202 367.428 632.482 366.944 632.946 366.561C633.418 366.179 633.951 365.987 634.545 365.987C635.262 365.987 635.827 366.24 636.242 366.744C636.657 367.241 636.804 367.851 636.682 368.575C636.584 369.161 636.303 369.645 635.839 370.028C635.375 370.41 634.842 370.602 634.24 370.602ZM640.319 379L639.038 365.353H643.383L643.786 374.105H643.884L647.314 365.353H651.574L652.136 374.044H652.258L655.505 365.353H659.851L654.028 379H649.377L648.571 371.041H648.4L644.958 379H640.319ZM664.27 371.224L662.988 379H658.642L661.657 360.812H665.856L664.697 367.867H664.855C665.295 367.029 665.901 366.374 666.674 365.902C667.456 365.422 668.359 365.182 669.384 365.182C670.336 365.182 671.13 365.397 671.765 365.829C672.408 366.252 672.863 366.846 673.132 367.611C673.4 368.376 673.449 369.275 673.278 370.309L671.826 379H667.48L668.786 371.163C668.908 370.406 668.815 369.816 668.505 369.393C668.196 368.962 667.692 368.746 666.992 368.746C666.536 368.746 666.117 368.844 665.734 369.039C665.36 369.234 665.043 369.519 664.782 369.894C664.53 370.26 664.359 370.703 664.27 371.224ZM680.505 379.256C679.073 379.256 677.864 378.976 676.879 378.414C675.903 377.844 675.203 377.035 674.78 375.985C674.365 374.927 674.279 373.666 674.523 372.201C674.759 370.801 675.219 369.576 675.903 368.526C676.586 367.468 677.457 366.646 678.515 366.061C679.581 365.475 680.798 365.182 682.165 365.182C683.142 365.182 684.021 365.336 684.802 365.646C685.583 365.947 686.234 366.394 686.755 366.988C687.276 367.582 687.638 368.315 687.841 369.186C688.053 370.048 688.069 371.041 687.89 372.164L687.707 373.226H675.854L676.269 370.724H686.059L683.935 371.285C684.041 370.667 684.057 370.138 683.984 369.698C683.911 369.251 683.732 368.909 683.447 368.673C683.162 368.429 682.747 368.307 682.202 368.307C681.656 368.307 681.152 368.429 680.688 368.673C680.232 368.917 679.85 369.259 679.541 369.698C679.239 370.138 679.04 370.654 678.942 371.249L678.649 373.043C678.544 373.686 678.54 374.239 678.637 374.703C678.735 375.159 678.955 375.509 679.296 375.753C679.638 375.997 680.118 376.119 680.737 376.119C681.144 376.119 681.518 376.066 681.86 375.96C682.202 375.855 682.503 375.696 682.763 375.484C683.024 375.273 683.231 375.021 683.386 374.728L687.353 374.862C687.044 375.757 686.576 376.534 685.949 377.193C685.331 377.853 684.566 378.361 683.654 378.719C682.743 379.077 681.693 379.256 680.505 379.256ZM688.244 379L690.515 365.353H694.738L694.323 367.855H694.47C694.868 366.944 695.385 366.268 696.02 365.829C696.663 365.389 697.355 365.174 698.095 365.182C698.299 365.174 698.502 365.186 698.706 365.218C698.909 365.243 699.104 365.275 699.292 365.316L698.657 369.1C698.453 369.027 698.189 368.974 697.863 368.941C697.538 368.901 697.241 368.88 696.972 368.88C696.468 368.88 695.992 368.994 695.544 369.222C695.096 369.45 694.722 369.767 694.421 370.174C694.12 370.581 693.916 371.053 693.811 371.59L692.59 379H688.244ZM703.991 379.256C702.559 379.256 701.35 378.976 700.366 378.414C699.389 377.844 698.689 377.035 698.266 375.985C697.851 374.927 697.766 373.666 698.01 372.201C698.246 370.801 698.706 369.576 699.389 368.526C700.073 367.468 700.944 366.646 702.001 366.061C703.068 365.475 704.284 365.182 705.651 365.182C706.628 365.182 707.507 365.336 708.288 365.646C709.069 365.947 709.72 366.394 710.241 366.988C710.762 367.582 711.124 368.315 711.328 369.186C711.539 370.048 711.556 371.041 711.376 372.164L711.193 373.226H699.34L699.755 370.724H709.545L707.421 371.285C707.527 370.667 707.543 370.138 707.47 369.698C707.397 369.251 707.218 368.909 706.933 368.673C706.648 368.429 706.233 368.307 705.688 368.307C705.143 368.307 704.638 368.429 704.174 368.673C703.719 368.917 703.336 369.259 703.027 369.698C702.726 370.138 702.526 370.654 702.429 371.249L702.136 373.043C702.03 373.686 702.026 374.239 702.124 374.703C702.221 375.159 702.441 375.509 702.783 375.753C703.125 375.997 703.605 376.119 704.223 376.119C704.63 376.119 705.004 376.066 705.346 375.96C705.688 375.855 705.989 375.696 706.25 375.484C706.51 375.273 706.717 375.021 706.872 374.728L710.839 374.862C710.53 375.757 710.062 376.534 709.436 377.193C708.817 377.853 708.052 378.361 707.141 378.719C706.229 379.077 705.179 379.256 703.991 379.256Z" fill="#22C55E"/>
</svg>
