<svg width="1920" height="1080" viewBox="0 0 1920 1080" fill="none" xmlns="http://www.w3.org/2000/svg">

<path d="M403 516H291C286.582 516 283 512.418 283 508V492C283 487.582 286.582 484 291 484H403C407.418 484 411 487.582 411 492V508C411 512.418 407.418 516 403 516ZM391 494C387.686 494 385 496.686 385 500C385 503.314 387.686 506 391 506C394.314 506 397 503.314 397 500C397 496.686 394.314 494 391 494ZM375 494C371.686 494 369 496.686 369 500C369 503.314 371.686 506 375 506C378.314 506 381 503.314 381 500C381 496.686 378.314 494 375 494ZM403 556H291C286.582 556 283 552.418 283 548V532C283 527.582 286.582 524 291 524H403C407.418 524 411 527.582 411 532V548C411 552.418 407.418 556 403 556ZM391 534C387.686 534 385 536.686 385 540C385 543.314 387.686 546 391 546C394.314 546 397 543.314 397 540C397 536.686 394.314 534 391 534ZM375 534C371.686 534 369 536.686 369 540C369 543.314 371.686 546 375 546C378.314 546 381 543.314 381 540C381 536.686 378.314 534 375 534ZM403 596H291C286.582 596 283 592.418 283 588V572C283 567.582 286.582 564 291 564H403C407.418 564 411 567.582 411 572V588C411 592.418 407.418 596 403 596ZM391 574C387.686 574 385 576.686 385 580C385 583.314 387.686 586 391 586C394.314 586 397 583.314 397 580C397 576.686 394.314 574 391 574ZM375 574C371.686 574 369 576.686 369 580C369 583.314 371.686 586 375 586C378.314 586 381 583.314 381 580C381 576.686 378.314 574 375 574Z" fill="black"/>
<path d="M603.879 537.879C602.707 539.05 602.707 540.95 603.879 542.121L622.971 561.213C624.142 562.385 626.042 562.385 627.213 561.213C628.385 560.042 628.385 558.142 627.213 556.971L610.243 540L627.213 523.029C628.385 521.858 628.385 519.958 627.213 518.787C626.042 517.615 624.142 517.615 622.971 518.787L603.879 537.879ZM703.121 542.121C704.293 540.95 704.293 539.05 703.121 537.879L684.029 518.787C682.858 517.615 680.958 517.615 679.787 518.787C678.615 519.958 678.615 521.858 679.787 523.029L696.757 540L679.787 556.971C678.615 558.142 678.615 560.042 679.787 561.213C680.958 562.385 682.858 562.385 684.029 561.213L703.121 542.121ZM606 543L701 543L701 537L606 537L606 543Z" fill="black"/>
<path d="M1210.88 537.879C1209.71 539.05 1209.71 540.95 1210.88 542.121L1229.97 561.213C1231.14 562.385 1233.04 562.385 1234.21 561.213C1235.38 560.042 1235.38 558.142 1234.21 556.971L1217.24 540L1234.21 523.029C1235.38 521.858 1235.38 519.958 1234.21 518.787C1233.04 517.615 1231.14 517.615 1229.97 518.787L1210.88 537.879ZM1418.12 542.121C1419.29 540.95 1419.29 539.05 1418.12 537.879L1399.03 518.787C1397.86 517.615 1395.96 517.615 1394.79 518.787C1393.62 519.958 1393.62 521.858 1394.79 523.029L1411.76 540L1394.79 556.971C1393.62 558.142 1393.62 560.042 1394.79 561.213C1395.96 562.385 1397.86 562.385 1399.03 561.213L1418.12 542.121ZM1213 543L1416 543L1416 537L1213 537L1213 543Z" fill="white"/>
<path d="M1210.88 537.879C1209.71 539.05 1209.71 540.95 1210.88 542.121L1229.97 561.213C1231.14 562.385 1233.04 562.385 1234.21 561.213C1235.38 560.042 1235.38 558.142 1234.21 556.971L1217.24 540L1234.21 523.029C1235.38 521.858 1235.38 519.958 1234.21 518.787C1233.04 517.615 1231.14 517.615 1229.97 518.787L1210.88 537.879ZM1418.12 542.121C1419.29 540.95 1419.29 539.05 1418.12 537.879L1399.03 518.787C1397.86 517.615 1395.96 517.615 1394.79 518.787C1393.62 519.958 1393.62 521.858 1394.79 523.029L1411.76 540L1394.79 556.971C1393.62 558.142 1393.62 560.042 1394.79 561.213C1395.96 562.385 1397.86 562.385 1399.03 561.213L1418.12 542.121ZM1213 543L1416 543L1416 537L1213 537L1213 543Z" fill="black"/>
<rect x="174.5" y="367.5" width="345" height="345" stroke="black" stroke-width="5"/>
<path d="M943.757 541.412C945.32 542.975 947.853 542.975 949.415 541.412L952.243 538.585C953.805 537.022 953.805 534.49 952.243 532.928L943.312 524L952.24 515.07C953.802 513.507 953.802 510.975 952.24 509.412L949.412 506.585C947.85 505.022 945.318 505.022 943.755 506.585L929.17 521.17C927.607 522.732 927.607 525.265 929.17 526.827L943.757 541.412ZM967.76 538.588L970.588 541.415C972.15 542.978 974.683 542.978 976.245 541.415L990.83 526.83C992.393 525.268 992.393 522.735 990.83 521.173L976.245 506.587C974.683 505.025 972.15 505.025 970.588 506.587L967.76 509.415C966.198 510.978 966.198 513.51 967.76 515.072L976.688 524L967.76 532.93C966.198 534.493 966.198 537.025 967.76 538.588ZM1036 580H975.385C975.2 584.952 971.707 588 967.2 588H952C947.327 588 943.745 583.632 943.807 580H884C881.8 580 880 581.8 880 584V588C880 596.8 887.2 604 896 604H1024C1032.8 604 1040 596.8 1040 588V584C1040 581.8 1038.2 580 1036 580ZM1024 488C1024 481.4 1018.6 476 1012 476H908C901.4 476 896 481.4 896 488V572H1024V488ZM1008 556H912V492H1008V556Z" fill="black"/>
<rect x="787.5" y="367.5" width="345" height="345" stroke="black" stroke-width="5"/>
<path d="M1517 532C1525.82 532 1533 524.825 1533 516C1533 507.175 1525.82 500 1517 500C1508.18 500 1501 507.175 1501 516C1501 524.825 1508.18 532 1517 532ZM1629 532C1637.82 532 1645 524.825 1645 516C1645 507.175 1637.82 500 1629 500C1620.18 500 1613 507.175 1613 516C1613 524.825 1620.18 532 1629 532ZM1637 540H1621C1616.6 540 1612.62 541.775 1609.72 544.65C1619.8 550.175 1626.95 560.15 1628.5 572H1645C1649.43 572 1653 568.425 1653 564V556C1653 547.175 1645.82 540 1637 540ZM1573 540C1588.48 540 1601 527.475 1601 512C1601 496.525 1588.48 484 1573 484C1557.52 484 1545 496.525 1545 512C1545 527.475 1557.52 540 1573 540ZM1592.2 548H1590.12C1584.93 550.5 1579.15 552 1573 552C1566.85 552 1561.1 550.5 1555.88 548H1553.8C1537.9 548 1525 560.9 1525 576.8V584C1525 590.625 1530.38 596 1537 596H1609C1615.62 596 1621 590.625 1621 584V576.8C1621 560.9 1608.1 548 1592.2 548ZM1536.28 544.65C1533.38 541.775 1529.4 540 1525 540H1509C1500.18 540 1493 547.175 1493 556V564C1493 568.425 1496.57 572 1501 572H1517.48C1519.05 560.15 1526.2 550.175 1536.28 544.65Z" fill="black"/>
</svg>
