<svg width="800" height="600" viewBox="0 0 800 600" fill="none" xmlns="http://www.w3.org/2000/svg">
<rect width="800" height="100" fill="#AAAAAA"/>
<path d="M365.95 36.8182L365.362 54.9844H360.107L359.519 36.8182H365.95ZM362.728 63.3707C361.816 63.3707 361.032 63.0469 360.376 62.3991C359.728 61.7514 359.404 60.9673 359.404 60.0469C359.404 59.1435 359.728 58.3722 360.376 57.733C361.032 57.0852 361.816 56.7614 362.728 56.7614C363.606 56.7614 364.377 57.0852 365.042 57.733C365.715 58.3722 366.052 59.1435 366.052 60.0469C366.052 60.6605 365.894 61.2187 365.579 61.7216C365.272 62.2244 364.867 62.625 364.364 62.9233C363.87 63.2216 363.325 63.3707 362.728 63.3707ZM381.994 43.3636V47.9659H369.363V43.3636H381.994ZM371.996 63V42.3665C371.996 40.8494 372.282 39.5923 372.853 38.5952C373.424 37.5895 374.217 36.8395 375.231 36.3452C376.245 35.8423 377.417 35.5909 378.746 35.5909C379.616 35.5909 380.434 35.6591 381.201 35.7955C381.977 35.9233 382.552 36.0384 382.927 36.1406L381.93 40.7173C381.7 40.6406 381.418 40.5767 381.086 40.5256C380.762 40.4744 380.455 40.4489 380.165 40.4489C379.433 40.4489 378.93 40.6108 378.657 40.9347C378.384 41.2585 378.248 41.7017 378.248 42.2642V63H371.996ZM385.001 63V43.3636H391.252V63H385.001ZM388.133 41.0753C387.255 41.0753 386.501 40.7855 385.87 40.206C385.24 39.6179 384.924 38.9105 384.924 38.0838C384.924 37.2656 385.24 36.5668 385.87 35.9872C386.501 35.3991 387.255 35.1051 388.133 35.1051C389.02 35.1051 389.774 35.3991 390.396 35.9872C391.027 36.5668 391.342 37.2656 391.342 38.0838C391.342 38.9105 391.027 39.6179 390.396 40.206C389.774 40.7855 389.02 41.0753 388.133 41.0753ZM395.232 63V43.3636H401.304V46.9432H401.509C401.866 45.6477 402.45 44.6847 403.26 44.054C404.07 43.4148 405.011 43.0952 406.085 43.0952C406.375 43.0952 406.673 43.1165 406.98 43.1591C407.287 43.1932 407.572 43.2486 407.837 43.3253V48.7585C407.538 48.6562 407.146 48.5753 406.661 48.5156C406.183 48.456 405.757 48.4261 405.382 48.4261C404.641 48.4261 403.972 48.5923 403.375 48.9247C402.787 49.2486 402.322 49.7045 401.982 50.2926C401.649 50.8722 401.483 51.554 401.483 52.3381V63H395.232ZM427.527 49.3594L421.787 49.5128C421.728 49.1037 421.566 48.7415 421.301 48.4261C421.037 48.1023 420.692 47.8509 420.266 47.6719C419.848 47.4844 419.363 47.3906 418.809 47.3906C418.084 47.3906 417.466 47.5355 416.955 47.8253C416.452 48.1151 416.205 48.5071 416.213 49.0014C416.205 49.3849 416.358 49.7173 416.674 49.9986C416.998 50.2798 417.573 50.5057 418.4 50.6761L422.184 51.392C424.144 51.767 425.601 52.3892 426.556 53.2585C427.519 54.1278 428.005 55.2784 428.013 56.7102C428.005 58.0568 427.604 59.2287 426.811 60.2259C426.027 61.223 424.953 61.9986 423.59 62.5526C422.226 63.098 420.667 63.3707 418.911 63.3707C416.107 63.3707 413.895 62.7955 412.276 61.6449C410.665 60.4858 409.745 58.9347 409.515 56.9915L415.689 56.8381C415.826 57.554 416.179 58.0994 416.75 58.4744C417.321 58.8494 418.05 59.0369 418.936 59.0369C419.738 59.0369 420.39 58.8878 420.892 58.5895C421.395 58.2912 421.651 57.8949 421.659 57.4006C421.651 56.9574 421.455 56.6037 421.071 56.3395C420.688 56.0668 420.087 55.8537 419.269 55.7003L415.843 55.0483C413.874 54.6903 412.408 54.0298 411.445 53.0668C410.482 52.0952 410.005 50.8594 410.013 49.3594C410.005 48.0469 410.354 46.9261 411.061 45.9972C411.769 45.0597 412.775 44.3438 414.078 43.8494C415.382 43.3551 416.921 43.108 418.694 43.108C421.353 43.108 423.449 43.6662 424.983 44.7827C426.517 45.8906 427.365 47.4162 427.527 49.3594ZM442.175 43.3636V47.9659H429.787V43.3636H442.175ZM432.382 38.6591H438.634V56.8253C438.634 57.2088 438.693 57.5199 438.812 57.7585C438.94 57.9886 439.124 58.1548 439.362 58.2571C439.601 58.3509 439.886 58.3977 440.219 58.3977C440.457 58.3977 440.709 58.3764 440.973 58.3338C441.246 58.2827 441.45 58.2401 441.587 58.206L442.533 62.7188C442.234 62.804 441.813 62.9105 441.267 63.0384C440.73 63.1662 440.087 63.2472 439.337 63.2812C437.871 63.3494 436.614 63.179 435.565 62.7699C434.526 62.3523 433.729 61.7045 433.175 60.8267C432.629 59.9489 432.365 58.8452 432.382 57.5156V38.6591Z" fill="black"/>
<rect y="400" width="800" height="100" fill="#AAAAAA"/>
<path d="M375.081 436.818V463H368.829V436.818H375.081ZM384.595 463.332C383.342 463.332 382.23 463.124 381.259 462.706C380.295 462.28 379.533 461.641 378.97 460.788C378.416 459.928 378.139 458.849 378.139 457.554C378.139 456.463 378.331 455.543 378.714 454.793C379.098 454.043 379.626 453.433 380.3 452.964C380.973 452.496 381.749 452.142 382.626 451.903C383.504 451.656 384.442 451.49 385.439 451.405C386.555 451.303 387.455 451.196 388.136 451.085C388.818 450.966 389.313 450.8 389.619 450.587C389.935 450.365 390.092 450.054 390.092 449.653V449.589C390.092 448.933 389.866 448.426 389.415 448.068C388.963 447.71 388.354 447.531 387.587 447.531C386.76 447.531 386.095 447.71 385.592 448.068C385.089 448.426 384.77 448.92 384.634 449.551L378.868 449.347C379.038 448.153 379.477 447.088 380.185 446.151C380.901 445.205 381.881 444.463 383.125 443.926C384.378 443.381 385.882 443.108 387.638 443.108C388.891 443.108 390.045 443.257 391.102 443.555C392.159 443.845 393.08 444.271 393.864 444.834C394.648 445.388 395.253 446.07 395.679 446.879C396.114 447.689 396.331 448.614 396.331 449.653V463H390.45V460.264H390.297C389.947 460.929 389.5 461.491 388.955 461.952C388.418 462.412 387.783 462.757 387.05 462.987C386.325 463.217 385.507 463.332 384.595 463.332ZM386.526 459.241C387.199 459.241 387.804 459.105 388.341 458.832C388.886 458.56 389.321 458.185 389.645 457.707C389.969 457.222 390.131 456.659 390.131 456.02V454.153C389.952 454.247 389.734 454.332 389.479 454.409C389.232 454.486 388.959 454.558 388.661 454.626C388.362 454.695 388.055 454.754 387.74 454.805C387.425 454.857 387.122 454.903 386.832 454.946C386.244 455.04 385.741 455.185 385.324 455.381C384.915 455.577 384.599 455.832 384.378 456.148C384.165 456.455 384.058 456.821 384.058 457.247C384.058 457.895 384.288 458.389 384.749 458.73C385.217 459.071 385.81 459.241 386.526 459.241ZM417.297 449.359L411.557 449.513C411.497 449.104 411.335 448.741 411.071 448.426C410.807 448.102 410.462 447.851 410.036 447.672C409.618 447.484 409.132 447.391 408.578 447.391C407.854 447.391 407.236 447.536 406.724 447.825C406.222 448.115 405.974 448.507 405.983 449.001C405.974 449.385 406.128 449.717 406.443 449.999C406.767 450.28 407.342 450.506 408.169 450.676L411.953 451.392C413.913 451.767 415.371 452.389 416.325 453.259C417.288 454.128 417.774 455.278 417.783 456.71C417.774 458.057 417.374 459.229 416.581 460.226C415.797 461.223 414.723 461.999 413.359 462.553C411.996 463.098 410.436 463.371 408.68 463.371C405.876 463.371 403.665 462.795 402.045 461.645C400.435 460.486 399.514 458.935 399.284 456.991L405.459 456.838C405.595 457.554 405.949 458.099 406.52 458.474C407.091 458.849 407.82 459.037 408.706 459.037C409.507 459.037 410.159 458.888 410.662 458.589C411.165 458.291 411.42 457.895 411.429 457.401C411.42 456.957 411.224 456.604 410.841 456.339C410.457 456.067 409.857 455.854 409.038 455.7L405.612 455.048C403.643 454.69 402.178 454.03 401.214 453.067C400.251 452.095 399.774 450.859 399.783 449.359C399.774 448.047 400.124 446.926 400.831 445.997C401.538 445.06 402.544 444.344 403.848 443.849C405.152 443.355 406.69 443.108 408.463 443.108C411.122 443.108 413.219 443.666 414.753 444.783C416.287 445.891 417.135 447.416 417.297 449.359ZM431.944 443.364V447.966H419.556V443.364H431.944ZM422.152 438.659H428.403V456.825C428.403 457.209 428.463 457.52 428.582 457.759C428.71 457.989 428.893 458.155 429.132 458.257C429.37 458.351 429.656 458.398 429.988 458.398C430.227 458.398 430.478 458.376 430.743 458.334C431.015 458.283 431.22 458.24 431.356 458.206L432.302 462.719C432.004 462.804 431.582 462.911 431.037 463.038C430.5 463.166 429.856 463.247 429.106 463.281C427.64 463.349 426.383 463.179 425.335 462.77C424.295 462.352 423.498 461.705 422.944 460.827C422.399 459.949 422.135 458.845 422.152 457.516V438.659Z" fill="black"/>
<rect y="200" width="800" height="100" fill="#AAAAAA"/>
<path d="M305.885 236.818L305.297 254.984H300.043L299.455 236.818H305.885ZM302.664 263.371C301.752 263.371 300.968 263.047 300.311 262.399C299.664 261.751 299.34 260.967 299.34 260.047C299.34 259.143 299.664 258.372 300.311 257.733C300.968 257.085 301.752 256.761 302.664 256.761C303.541 256.761 304.313 257.085 304.977 257.733C305.651 258.372 305.987 259.143 305.987 260.047C305.987 260.661 305.83 261.219 305.514 261.722C305.208 262.224 304.803 262.625 304.3 262.923C303.806 263.222 303.26 263.371 302.664 263.371ZM323.438 254.524V243.364H329.676V263H323.719V259.344H323.514C323.08 260.545 322.338 261.5 321.29 262.207C320.25 262.906 318.993 263.256 317.519 263.256C316.181 263.256 315.004 262.949 313.99 262.335C312.976 261.722 312.188 260.865 311.625 259.766C311.063 258.658 310.777 257.362 310.769 255.879V243.364H317.02V254.652C317.029 255.717 317.31 256.557 317.864 257.17C318.418 257.784 319.172 258.091 320.127 258.091C320.749 258.091 321.307 257.955 321.801 257.682C322.304 257.401 322.7 256.996 322.99 256.467C323.289 255.93 323.438 255.283 323.438 254.524ZM339.907 251.801V263H333.655V243.364H339.6V246.969H339.817C340.252 245.767 340.993 244.825 342.042 244.143C343.09 243.453 344.339 243.108 345.787 243.108C347.168 243.108 348.366 243.419 349.38 244.041C350.403 244.655 351.195 245.516 351.758 246.624C352.329 247.723 352.61 249.01 352.601 250.484V263H346.35V251.712C346.358 250.621 346.081 249.768 345.519 249.155C344.965 248.541 344.194 248.234 343.205 248.234C342.549 248.234 341.969 248.379 341.466 248.669C340.972 248.95 340.589 249.355 340.316 249.884C340.052 250.412 339.915 251.051 339.907 251.801ZM369.039 249.999V254.818H356.919V249.999H369.039ZM379.704 236.818V263H373.452V236.818H379.704ZM389.218 263.332C387.965 263.332 386.853 263.124 385.882 262.706C384.919 262.28 384.156 261.641 383.593 260.788C383.039 259.928 382.762 258.849 382.762 257.554C382.762 256.463 382.954 255.543 383.338 254.793C383.721 254.043 384.249 253.433 384.923 252.964C385.596 252.496 386.372 252.142 387.249 251.903C388.127 251.656 389.065 251.49 390.062 251.405C391.178 251.303 392.078 251.196 392.759 251.085C393.441 250.966 393.936 250.8 394.242 250.587C394.558 250.365 394.715 250.054 394.715 249.653V249.589C394.715 248.933 394.49 248.426 394.038 248.068C393.586 247.71 392.977 247.531 392.21 247.531C391.383 247.531 390.718 247.71 390.215 248.068C389.713 248.426 389.393 248.92 389.257 249.551L383.491 249.347C383.661 248.153 384.1 247.088 384.808 246.151C385.524 245.205 386.504 244.463 387.748 243.926C389.001 243.381 390.505 243.108 392.261 243.108C393.514 243.108 394.669 243.257 395.725 243.555C396.782 243.845 397.703 244.271 398.487 244.834C399.271 245.388 399.876 246.07 400.302 246.879C400.737 247.689 400.954 248.614 400.954 249.653V263H395.073V260.264H394.92C394.57 260.929 394.123 261.491 393.578 261.952C393.041 262.412 392.406 262.757 391.673 262.987C390.948 263.217 390.13 263.332 389.218 263.332ZM391.149 259.241C391.822 259.241 392.427 259.105 392.964 258.832C393.509 258.56 393.944 258.185 394.268 257.707C394.592 257.222 394.754 256.659 394.754 256.02V254.153C394.575 254.247 394.357 254.332 394.102 254.409C393.855 254.486 393.582 254.558 393.284 254.626C392.985 254.695 392.678 254.754 392.363 254.805C392.048 254.857 391.745 254.903 391.455 254.946C390.867 255.04 390.365 255.185 389.947 255.381C389.538 255.577 389.222 255.832 389.001 256.148C388.788 256.455 388.681 256.821 388.681 257.247C388.681 257.895 388.911 258.389 389.372 258.73C389.84 259.071 390.433 259.241 391.149 259.241ZM407.896 270.364C407.146 270.364 406.438 270.304 405.774 270.185C405.109 270.074 404.538 269.925 404.061 269.737L405.441 265.199C406.055 265.403 406.609 265.523 407.103 265.557C407.606 265.591 408.036 265.51 408.394 265.314C408.761 265.126 409.042 264.79 409.238 264.304L409.481 263.716L402.501 243.364H409.046L412.664 257.375H412.869L416.538 243.364H423.122L415.72 264.879C415.362 265.953 414.855 266.899 414.198 267.717C413.551 268.544 412.711 269.192 411.68 269.661C410.657 270.129 409.396 270.364 407.896 270.364ZM434.065 263.371C432.011 263.371 430.238 262.966 428.747 262.156C427.264 261.338 426.122 260.175 425.32 258.666C424.528 257.149 424.132 255.347 424.132 253.259C424.132 251.23 424.532 249.457 425.333 247.94C426.134 246.415 427.264 245.23 428.721 244.386C430.178 243.534 431.896 243.108 433.873 243.108C435.271 243.108 436.549 243.325 437.708 243.76C438.867 244.195 439.869 244.838 440.713 245.69C441.556 246.543 442.213 247.595 442.681 248.848C443.15 250.092 443.384 251.52 443.384 253.131V254.69H426.318V251.06H437.568C437.559 250.395 437.401 249.803 437.095 249.283C436.788 248.763 436.366 248.358 435.829 248.068C435.301 247.77 434.691 247.621 434.001 247.621C433.302 247.621 432.676 247.778 432.122 248.094C431.568 248.401 431.129 248.822 430.805 249.359C430.481 249.888 430.311 250.489 430.294 251.162V254.857C430.294 255.658 430.451 256.361 430.767 256.966C431.082 257.562 431.529 258.027 432.109 258.359C432.688 258.692 433.379 258.858 434.18 258.858C434.734 258.858 435.237 258.781 435.688 258.628C436.14 258.474 436.528 258.249 436.852 257.95C437.176 257.652 437.419 257.286 437.58 256.851L443.32 257.017C443.082 258.304 442.558 259.425 441.748 260.379C440.947 261.325 439.894 262.062 438.59 262.591C437.286 263.111 435.778 263.371 434.065 263.371ZM446.577 263V243.364H452.65V246.943H452.854C453.212 245.648 453.796 244.685 454.606 244.054C455.415 243.415 456.357 243.095 457.431 243.095C457.721 243.095 458.019 243.116 458.326 243.159C458.633 243.193 458.918 243.249 459.182 243.325V248.759C458.884 248.656 458.492 248.575 458.006 248.516C457.529 248.456 457.103 248.426 456.728 248.426C455.986 248.426 455.317 248.592 454.721 248.925C454.133 249.249 453.668 249.705 453.327 250.293C452.995 250.872 452.829 251.554 452.829 252.338V263H446.577ZM469.889 263.371C467.835 263.371 466.062 262.966 464.571 262.156C463.088 261.338 461.946 260.175 461.145 258.666C460.352 257.149 459.956 255.347 459.956 253.259C459.956 251.23 460.356 249.457 461.157 247.94C461.959 246.415 463.088 245.23 464.545 244.386C466.003 243.534 467.72 243.108 469.697 243.108C471.095 243.108 472.373 243.325 473.532 243.76C474.692 244.195 475.693 244.838 476.537 245.69C477.381 246.543 478.037 247.595 478.506 248.848C478.974 250.092 479.209 251.52 479.209 253.131V254.69H462.142V251.06H473.392C473.383 250.395 473.226 249.803 472.919 249.283C472.612 248.763 472.19 248.358 471.653 248.068C471.125 247.77 470.515 247.621 469.825 247.621C469.126 247.621 468.5 247.778 467.946 248.094C467.392 248.401 466.953 248.822 466.629 249.359C466.305 249.888 466.135 250.489 466.118 251.162V254.857C466.118 255.658 466.275 256.361 466.591 256.966C466.906 257.562 467.354 258.027 467.933 258.359C468.513 258.692 469.203 258.858 470.004 258.858C470.558 258.858 471.061 258.781 471.513 258.628C471.964 258.474 472.352 258.249 472.676 257.95C473 257.652 473.243 257.286 473.405 256.851L479.145 257.017C478.906 258.304 478.382 259.425 477.572 260.379C476.771 261.325 475.719 262.062 474.415 262.591C473.111 263.111 471.602 263.371 469.889 263.371ZM489.573 263.281C488.124 263.281 486.808 262.906 485.623 262.156C484.438 261.406 483.492 260.281 482.785 258.781C482.078 257.281 481.724 255.419 481.724 253.195C481.724 250.885 482.09 248.984 482.823 247.493C483.556 246.001 484.515 244.898 485.7 244.182C486.893 243.466 488.176 243.108 489.548 243.108C490.579 243.108 491.461 243.287 492.194 243.645C492.927 243.994 493.532 244.446 494.009 245C494.487 245.554 494.849 246.129 495.096 246.726H495.224V236.818H501.475V263H495.288V259.817H495.096C494.832 260.422 494.457 260.989 493.971 261.517C493.485 262.045 492.876 262.472 492.143 262.795C491.419 263.119 490.562 263.281 489.573 263.281ZM491.747 258.411C492.505 258.411 493.153 258.197 493.69 257.771C494.227 257.337 494.64 256.727 494.93 255.943C495.22 255.159 495.365 254.239 495.365 253.182C495.365 252.108 495.22 251.183 494.93 250.408C494.649 249.632 494.235 249.036 493.69 248.618C493.153 248.2 492.505 247.991 491.747 247.991C490.971 247.991 490.315 248.205 489.778 248.631C489.241 249.057 488.832 249.658 488.551 250.433C488.278 251.209 488.142 252.125 488.142 253.182C488.142 254.239 488.282 255.159 488.563 255.943C488.845 256.727 489.249 257.337 489.778 257.771C490.315 258.197 490.971 258.411 491.747 258.411Z" fill="black"/>
<rect y="100" width="800" height="100" fill="#DDDDDD"/>
<path d="M370.063 136.818L369.475 154.984H364.221L363.632 136.818H370.063ZM366.841 163.371C365.929 163.371 365.145 163.047 364.489 162.399C363.841 161.751 363.517 160.967 363.517 160.047C363.517 159.143 363.841 158.372 364.489 157.733C365.145 157.085 365.929 156.761 366.841 156.761C367.719 156.761 368.49 157.085 369.155 157.733C369.828 158.372 370.165 159.143 370.165 160.047C370.165 160.661 370.007 161.219 369.692 161.722C369.385 162.224 368.98 162.625 368.478 162.923C367.983 163.222 367.438 163.371 366.841 163.371ZM381.198 136.818V163H374.946V136.818H381.198ZM390.712 163.332C389.46 163.332 388.347 163.124 387.376 162.706C386.413 162.28 385.65 161.641 385.087 160.788C384.533 159.928 384.256 158.849 384.256 157.554C384.256 156.463 384.448 155.543 384.832 154.793C385.215 154.043 385.744 153.433 386.417 152.964C387.09 152.496 387.866 152.142 388.744 151.903C389.621 151.656 390.559 151.49 391.556 151.405C392.673 151.303 393.572 151.196 394.254 151.085C394.935 150.966 395.43 150.8 395.737 150.587C396.052 150.365 396.21 150.054 396.21 149.653V149.589C396.21 148.933 395.984 148.426 395.532 148.068C395.08 147.71 394.471 147.531 393.704 147.531C392.877 147.531 392.212 147.71 391.71 148.068C391.207 148.426 390.887 148.92 390.751 149.551L384.985 149.347C385.156 148.153 385.594 147.088 386.302 146.151C387.018 145.205 387.998 144.463 389.242 143.926C390.495 143.381 391.999 143.108 393.755 143.108C395.008 143.108 396.163 143.257 397.219 143.555C398.276 143.845 399.197 144.271 399.981 144.834C400.765 145.388 401.37 146.07 401.796 146.879C402.231 147.689 402.448 148.614 402.448 149.653V163H396.567V160.264H396.414C396.065 160.929 395.617 161.491 395.072 161.952C394.535 162.412 393.9 162.757 393.167 162.987C392.442 163.217 391.624 163.332 390.712 163.332ZM392.643 159.241C393.316 159.241 393.921 159.105 394.458 158.832C395.004 158.56 395.438 158.185 395.762 157.707C396.086 157.222 396.248 156.659 396.248 156.02V154.153C396.069 154.247 395.852 154.332 395.596 154.409C395.349 154.486 395.076 154.558 394.778 154.626C394.479 154.695 394.173 154.754 393.857 154.805C393.542 154.857 393.239 154.903 392.95 154.946C392.362 155.04 391.859 155.185 391.441 155.381C391.032 155.577 390.717 155.832 390.495 156.148C390.282 156.455 390.175 156.821 390.175 157.247C390.175 157.895 390.406 158.389 390.866 158.73C391.335 159.071 391.927 159.241 392.643 159.241ZM423.414 149.359L417.674 149.513C417.614 149.104 417.452 148.741 417.188 148.426C416.924 148.102 416.579 147.851 416.153 147.672C415.735 147.484 415.249 147.391 414.695 147.391C413.971 147.391 413.353 147.536 412.842 147.825C412.339 148.115 412.092 148.507 412.1 149.001C412.092 149.385 412.245 149.717 412.56 149.999C412.884 150.28 413.46 150.506 414.286 150.676L418.07 151.392C420.031 151.767 421.488 152.389 422.442 153.259C423.406 154.128 423.891 155.278 423.9 156.71C423.891 158.057 423.491 159.229 422.698 160.226C421.914 161.223 420.84 161.999 419.477 162.553C418.113 163.098 416.553 163.371 414.798 163.371C411.994 163.371 409.782 162.795 408.163 161.645C406.552 160.486 405.631 158.935 405.401 156.991L411.576 156.838C411.712 157.554 412.066 158.099 412.637 158.474C413.208 158.849 413.937 159.037 414.823 159.037C415.624 159.037 416.276 158.888 416.779 158.589C417.282 158.291 417.538 157.895 417.546 157.401C417.538 156.957 417.342 156.604 416.958 156.339C416.575 156.067 415.974 155.854 415.156 155.7L411.729 155.048C409.761 154.69 408.295 154.03 407.332 153.067C406.369 152.095 405.891 150.859 405.9 149.359C405.891 148.047 406.241 146.926 406.948 145.997C407.656 145.06 408.661 144.344 409.965 143.849C411.269 143.355 412.808 143.108 414.58 143.108C417.239 143.108 419.336 143.666 420.87 144.783C422.404 145.891 423.252 147.416 423.414 149.359ZM438.061 143.364V147.966H425.674V143.364H438.061ZM428.269 138.659H434.52V156.825C434.52 157.209 434.58 157.52 434.699 157.759C434.827 157.989 435.01 158.155 435.249 158.257C435.488 158.351 435.773 158.398 436.105 158.398C436.344 158.398 436.596 158.376 436.86 158.334C437.132 158.283 437.337 158.24 437.473 158.206L438.419 162.719C438.121 162.804 437.699 162.911 437.154 163.038C436.617 163.166 435.973 163.247 435.223 163.281C433.757 163.349 432.5 163.179 431.452 162.77C430.412 162.352 429.615 161.705 429.061 160.827C428.516 159.949 428.252 158.845 428.269 157.516V138.659Z" fill="black"/>
<rect y="500" width="800" height="100" fill="#DDDDDD"/>
<path d="M375.876 543.364V547.966H363.246V543.364H375.876ZM365.879 563V542.366C365.879 540.849 366.165 539.592 366.736 538.595C367.307 537.589 368.099 536.839 369.114 536.345C370.128 535.842 371.3 535.591 372.629 535.591C373.499 535.591 374.317 535.659 375.084 535.795C375.859 535.923 376.435 536.038 376.81 536.141L375.812 540.717C375.582 540.641 375.301 540.577 374.969 540.526C374.645 540.474 374.338 540.449 374.048 540.449C373.315 540.449 372.813 540.611 372.54 540.935C372.267 541.259 372.131 541.702 372.131 542.264V563H365.879ZM378.884 563V543.364H385.135V563H378.884ZM382.016 541.075C381.138 541.075 380.384 540.786 379.753 540.206C379.123 539.618 378.807 538.911 378.807 538.084C378.807 537.266 379.123 536.567 379.753 535.987C380.384 535.399 381.138 535.105 382.016 535.105C382.902 535.105 383.657 535.399 384.279 535.987C384.909 536.567 385.225 537.266 385.225 538.084C385.225 538.911 384.909 539.618 384.279 540.206C383.657 540.786 382.902 541.075 382.016 541.075ZM389.114 563V543.364H395.187V546.943H395.391C395.749 545.648 396.333 544.685 397.143 544.054C397.952 543.415 398.894 543.095 399.968 543.095C400.258 543.095 400.556 543.116 400.863 543.159C401.17 543.193 401.455 543.249 401.719 543.325V548.759C401.421 548.656 401.029 548.575 400.543 548.516C400.066 548.456 399.64 548.426 399.265 548.426C398.523 548.426 397.854 548.592 397.258 548.925C396.67 549.249 396.205 549.705 395.864 550.293C395.532 550.872 395.366 551.554 395.366 552.338V563H389.114ZM421.41 549.359L415.67 549.513C415.61 549.104 415.449 548.741 415.184 548.426C414.92 548.102 414.575 547.851 414.149 547.672C413.731 547.484 413.245 547.391 412.691 547.391C411.967 547.391 411.349 547.536 410.838 547.825C410.335 548.115 410.088 548.507 410.096 549.001C410.088 549.385 410.241 549.717 410.556 549.999C410.88 550.28 411.456 550.506 412.282 550.676L416.066 551.392C418.027 551.767 419.484 552.389 420.439 553.259C421.402 554.128 421.887 555.278 421.896 556.71C421.887 558.057 421.487 559.229 420.694 560.226C419.91 561.223 418.836 561.999 417.473 562.553C416.109 563.098 414.549 563.371 412.794 563.371C409.99 563.371 407.778 562.795 406.159 561.645C404.548 560.486 403.627 558.935 403.397 556.991L409.572 556.838C409.708 557.554 410.062 558.099 410.633 558.474C411.204 558.849 411.933 559.037 412.819 559.037C413.62 559.037 414.272 558.888 414.775 558.589C415.278 558.291 415.534 557.895 415.542 557.401C415.534 556.957 415.338 556.604 414.954 556.339C414.571 556.067 413.97 555.854 413.152 555.7L409.725 555.048C407.757 554.69 406.291 554.03 405.328 553.067C404.365 552.095 403.887 550.859 403.896 549.359C403.887 548.047 404.237 546.926 404.944 545.997C405.652 545.06 406.657 544.344 407.961 543.849C409.265 543.355 410.804 543.108 412.576 543.108C415.235 543.108 417.332 543.666 418.866 544.783C420.4 545.891 421.248 547.416 421.41 549.359ZM436.058 543.364V547.966H423.67V543.364H436.058ZM426.265 538.659H432.516V556.825C432.516 557.209 432.576 557.52 432.695 557.759C432.823 557.989 433.006 558.155 433.245 558.257C433.484 558.351 433.769 558.398 434.102 558.398C434.34 558.398 434.592 558.376 434.856 558.334C435.129 558.283 435.333 558.24 435.469 558.206L436.415 562.719C436.117 562.804 435.695 562.911 435.15 563.038C434.613 563.166 433.969 563.247 433.219 563.281C431.754 563.349 430.496 563.179 429.448 562.77C428.408 562.352 427.612 561.705 427.058 560.827C426.512 559.949 426.248 558.845 426.265 557.516V538.659Z" fill="black"/>
<rect y="300" width="800" height="100" fill="#DDDDDD"/>
<path d="M317.32 354.524V343.364H323.559V363H317.602V359.344H317.397C316.963 360.545 316.221 361.5 315.173 362.207C314.133 362.906 312.876 363.256 311.401 363.256C310.063 363.256 308.887 362.949 307.873 362.335C306.859 361.722 306.07 360.865 305.508 359.766C304.945 358.658 304.66 357.362 304.651 355.879V343.364H310.903V354.652C310.911 355.717 311.193 356.557 311.747 357.17C312.301 357.784 313.055 358.091 314.009 358.091C314.632 358.091 315.19 357.955 315.684 357.682C316.187 357.401 316.583 356.996 316.873 356.467C317.171 355.93 317.32 355.283 317.32 354.524ZM333.79 351.801V363H327.538V343.364H333.483V346.969H333.7C334.135 345.767 334.876 344.825 335.925 344.143C336.973 343.453 338.221 343.108 339.67 343.108C341.051 343.108 342.248 343.419 343.263 344.041C344.285 344.655 345.078 345.516 345.64 346.624C346.211 347.723 346.493 349.01 346.484 350.484V363H340.233V351.712C340.241 350.621 339.964 349.768 339.402 349.155C338.848 348.541 338.077 348.234 337.088 348.234C336.432 348.234 335.852 348.379 335.349 348.669C334.855 348.95 334.471 349.355 334.199 349.884C333.934 350.412 333.798 351.051 333.79 351.801ZM362.921 349.999V354.818H350.802V349.999H362.921ZM373.586 336.818V363H367.335V336.818H373.586ZM383.101 363.332C381.848 363.332 380.736 363.124 379.764 362.706C378.801 362.28 378.039 361.641 377.476 360.788C376.922 359.928 376.645 358.849 376.645 357.554C376.645 356.463 376.837 355.543 377.22 354.793C377.604 354.043 378.132 353.433 378.806 352.964C379.479 352.496 380.254 352.142 381.132 351.903C382.01 351.656 382.948 351.49 383.945 351.405C385.061 351.303 385.96 351.196 386.642 351.085C387.324 350.966 387.818 350.8 388.125 350.587C388.441 350.365 388.598 350.054 388.598 349.653V349.589C388.598 348.933 388.372 348.426 387.921 348.068C387.469 347.71 386.86 347.531 386.093 347.531C385.266 347.531 384.601 347.71 384.098 348.068C383.595 348.426 383.276 348.92 383.139 349.551L377.374 349.347C377.544 348.153 377.983 347.088 378.691 346.151C379.406 345.205 380.387 344.463 381.631 343.926C382.884 343.381 384.388 343.108 386.144 343.108C387.396 343.108 388.551 343.257 389.608 343.555C390.665 343.845 391.585 344.271 392.369 344.834C393.154 345.388 393.759 346.07 394.185 346.879C394.619 347.689 394.837 348.614 394.837 349.653V363H388.956V360.264H388.803C388.453 360.929 388.006 361.491 387.46 361.952C386.923 362.412 386.289 362.757 385.556 362.987C384.831 363.217 384.013 363.332 383.101 363.332ZM385.031 359.241C385.705 359.241 386.31 359.105 386.847 358.832C387.392 358.56 387.827 358.185 388.151 357.707C388.475 357.222 388.637 356.659 388.637 356.02V354.153C388.458 354.247 388.24 354.332 387.985 354.409C387.737 354.486 387.465 354.558 387.166 354.626C386.868 354.695 386.561 354.754 386.246 354.805C385.931 354.857 385.628 354.903 385.338 354.946C384.75 355.04 384.247 355.185 383.83 355.381C383.421 355.577 383.105 355.832 382.884 356.148C382.671 356.455 382.564 356.821 382.564 357.247C382.564 357.895 382.794 358.389 383.254 358.73C383.723 359.071 384.316 359.241 385.031 359.241ZM401.779 370.364C401.029 370.364 400.321 370.304 399.656 370.185C398.992 370.074 398.421 369.925 397.943 369.737L399.324 365.199C399.938 365.403 400.492 365.523 400.986 365.557C401.489 365.591 401.919 365.51 402.277 365.314C402.644 365.126 402.925 364.79 403.121 364.304L403.364 363.716L396.384 343.364H402.929L406.547 357.375H406.752L410.421 343.364H417.004L409.602 364.879C409.244 365.953 408.737 366.899 408.081 367.717C407.433 368.544 406.594 369.192 405.563 369.661C404.54 370.129 403.279 370.364 401.779 370.364ZM427.948 363.371C425.894 363.371 424.121 362.966 422.629 362.156C421.146 361.338 420.004 360.175 419.203 358.666C418.411 357.149 418.014 355.347 418.014 353.259C418.014 351.23 418.415 349.457 419.216 347.94C420.017 346.415 421.146 345.23 422.604 344.386C424.061 343.534 425.779 343.108 427.756 343.108C429.154 343.108 430.432 343.325 431.591 343.76C432.75 344.195 433.752 344.838 434.595 345.69C435.439 346.543 436.095 347.595 436.564 348.848C437.033 350.092 437.267 351.52 437.267 353.131V354.69H420.2V351.06H431.45C431.442 350.395 431.284 349.803 430.977 349.283C430.671 348.763 430.249 348.358 429.712 348.068C429.183 347.77 428.574 347.621 427.884 347.621C427.185 347.621 426.558 347.778 426.004 348.094C425.45 348.401 425.012 348.822 424.688 349.359C424.364 349.888 424.193 350.489 424.176 351.162V354.857C424.176 355.658 424.334 356.361 424.649 356.966C424.965 357.562 425.412 358.027 425.992 358.359C426.571 358.692 427.262 358.858 428.063 358.858C428.617 358.858 429.119 358.781 429.571 358.628C430.023 358.474 430.411 358.249 430.735 357.95C431.058 357.652 431.301 357.286 431.463 356.851L437.203 357.017C436.965 358.304 436.441 359.425 435.631 360.379C434.83 361.325 433.777 362.062 432.473 362.591C431.169 363.111 429.661 363.371 427.948 363.371ZM440.46 363V343.364H446.532V346.943H446.737C447.095 345.648 447.679 344.685 448.488 344.054C449.298 343.415 450.24 343.095 451.314 343.095C451.604 343.095 451.902 343.116 452.209 343.159C452.515 343.193 452.801 343.249 453.065 343.325V348.759C452.767 348.656 452.375 348.575 451.889 348.516C451.412 348.456 450.986 348.426 450.611 348.426C449.869 348.426 449.2 348.592 448.604 348.925C448.015 349.249 447.551 349.705 447.21 350.293C446.878 350.872 446.711 351.554 446.711 352.338V363H440.46ZM463.772 363.371C461.718 363.371 459.945 362.966 458.454 362.156C456.971 361.338 455.829 360.175 455.028 358.666C454.235 357.149 453.839 355.347 453.839 353.259C453.839 351.23 454.239 349.457 455.04 347.94C455.841 346.415 456.971 345.23 458.428 344.386C459.885 343.534 461.603 343.108 463.58 343.108C464.978 343.108 466.256 343.325 467.415 343.76C468.574 344.195 469.576 344.838 470.42 345.69C471.263 346.543 471.92 347.595 472.388 348.848C472.857 350.092 473.091 351.52 473.091 353.131V354.69H456.025V351.06H467.275C467.266 350.395 467.108 349.803 466.802 349.283C466.495 348.763 466.073 348.358 465.536 348.068C465.008 347.77 464.398 347.621 463.708 347.621C463.009 347.621 462.383 347.778 461.829 348.094C461.275 348.401 460.836 348.822 460.512 349.359C460.188 349.888 460.018 350.489 460.001 351.162V354.857C460.001 355.658 460.158 356.361 460.474 356.966C460.789 357.562 461.236 358.027 461.816 358.359C462.395 358.692 463.086 358.858 463.887 358.858C464.441 358.858 464.944 358.781 465.395 358.628C465.847 358.474 466.235 358.249 466.559 357.95C466.883 357.652 467.126 357.286 467.287 356.851L473.028 357.017C472.789 358.304 472.265 359.425 471.455 360.379C470.654 361.325 469.601 362.062 468.297 362.591C466.993 363.111 465.485 363.371 463.772 363.371ZM483.456 363.281C482.007 363.281 480.691 362.906 479.506 362.156C478.321 361.406 477.375 360.281 476.668 358.781C475.96 357.281 475.607 355.419 475.607 353.195C475.607 350.885 475.973 348.984 476.706 347.493C477.439 346.001 478.398 344.898 479.583 344.182C480.776 343.466 482.058 343.108 483.431 343.108C484.462 343.108 485.344 343.287 486.077 343.645C486.81 343.994 487.415 344.446 487.892 345C488.369 345.554 488.732 346.129 488.979 346.726H489.107V336.818H495.358V363H489.171V359.817H488.979C488.715 360.422 488.34 360.989 487.854 361.517C487.368 362.045 486.759 362.472 486.026 362.795C485.301 363.119 484.445 363.281 483.456 363.281ZM485.629 358.411C486.388 358.411 487.036 358.197 487.573 357.771C488.11 357.337 488.523 356.727 488.813 355.943C489.102 355.159 489.247 354.239 489.247 353.182C489.247 352.108 489.102 351.183 488.813 350.408C488.531 349.632 488.118 349.036 487.573 348.618C487.036 348.2 486.388 347.991 485.629 347.991C484.854 347.991 484.198 348.205 483.661 348.631C483.124 349.057 482.715 349.658 482.433 350.433C482.161 351.209 482.024 352.125 482.024 353.182C482.024 354.239 482.165 355.159 482.446 355.943C482.727 356.727 483.132 357.337 483.661 357.771C484.198 358.197 484.854 358.411 485.629 358.411Z" fill="black"/>
</svg>
