<svg width="800" height="800" viewBox="0 0 800 800" fill="none" xmlns="http://www.w3.org/2000/svg">
<rect y="100" width="800" height="100" fill="#AAAAAA"/>
<path d="M329.405 136.818L328.817 154.984H323.562L322.974 136.818H329.405ZM326.183 163.371C325.271 163.371 324.487 163.047 323.831 162.399C323.183 161.751 322.859 160.967 322.859 160.047C322.859 159.143 323.183 158.372 323.831 157.733C324.487 157.085 325.271 156.761 326.183 156.761C327.061 156.761 327.832 157.085 328.497 157.733C329.17 158.372 329.507 159.143 329.507 160.047C329.507 160.661 329.349 161.219 329.034 161.722C328.727 162.224 328.322 162.625 327.819 162.923C327.325 163.222 326.78 163.371 326.183 163.371ZM334.288 163V136.818H340.54V146.726H340.667C340.923 146.129 341.285 145.554 341.754 145C342.231 144.446 342.836 143.994 343.569 143.645C344.311 143.287 345.197 143.108 346.229 143.108C347.592 143.108 348.866 143.466 350.051 144.182C351.244 144.898 352.207 146.001 352.94 147.493C353.673 148.984 354.04 150.885 354.04 153.195C354.04 155.419 353.686 157.281 352.979 158.781C352.28 160.281 351.334 161.406 350.14 162.156C348.956 162.906 347.639 163.281 346.19 163.281C345.202 163.281 344.345 163.119 343.621 162.795C342.896 162.472 342.287 162.045 341.792 161.517C341.307 160.989 340.932 160.422 340.667 159.817H340.476V163H334.288ZM340.412 153.182C340.412 154.239 340.552 155.159 340.834 155.943C341.123 156.727 341.537 157.337 342.074 157.771C342.619 158.197 343.271 158.411 344.03 158.411C344.797 158.411 345.449 158.197 345.986 157.771C346.523 157.337 346.927 156.727 347.2 155.943C347.481 155.159 347.622 154.239 347.622 153.182C347.622 152.125 347.481 151.209 347.2 150.433C346.927 149.658 346.523 149.057 345.986 148.631C345.457 148.205 344.805 147.991 344.03 147.991C343.263 147.991 342.611 148.2 342.074 148.618C341.537 149.036 341.123 149.632 340.834 150.408C340.552 151.183 340.412 152.108 340.412 153.182ZM357.316 163V143.364H363.388V146.943H363.593C363.95 145.648 364.534 144.685 365.344 144.054C366.154 143.415 367.095 143.095 368.169 143.095C368.459 143.095 368.757 143.116 369.064 143.159C369.371 143.193 369.656 143.249 369.921 143.325V148.759C369.622 148.656 369.23 148.575 368.744 148.516C368.267 148.456 367.841 148.426 367.466 148.426C366.725 148.426 366.056 148.592 365.459 148.925C364.871 149.249 364.406 149.705 364.066 150.293C363.733 150.872 363.567 151.554 363.567 152.338V163H357.316ZM380.615 163.371C378.552 163.371 376.779 162.949 375.296 162.105C373.822 161.253 372.684 160.068 371.883 158.551C371.09 157.026 370.694 155.257 370.694 153.246C370.694 151.226 371.09 149.457 371.883 147.94C372.684 146.415 373.822 145.23 375.296 144.386C376.779 143.534 378.552 143.108 380.615 143.108C382.677 143.108 384.445 143.534 385.92 144.386C387.403 145.23 388.541 146.415 389.333 147.94C390.134 149.457 390.535 151.226 390.535 153.246C390.535 155.257 390.134 157.026 389.333 158.551C388.541 160.068 387.403 161.253 385.92 162.105C384.445 162.949 382.677 163.371 380.615 163.371ZM380.653 158.653C381.403 158.653 382.038 158.423 382.558 157.963C383.078 157.503 383.474 156.864 383.747 156.045C384.028 155.227 384.169 154.281 384.169 153.207C384.169 152.116 384.028 151.162 383.747 150.344C383.474 149.526 383.078 148.886 382.558 148.426C382.038 147.966 381.403 147.736 380.653 147.736C379.877 147.736 379.221 147.966 378.684 148.426C378.156 148.886 377.751 149.526 377.47 150.344C377.197 151.162 377.061 152.116 377.061 153.207C377.061 154.281 377.197 155.227 377.47 156.045C377.751 156.864 378.156 157.503 378.684 157.963C379.221 158.423 379.877 158.653 380.653 158.653ZM396.985 163L391.871 143.364H398.148L400.794 155.943H400.96L403.798 143.364H409.922L412.837 155.854H413.003L415.573 143.364H421.85L416.723 163H410.037L406.969 151.558H406.752L403.683 163H396.985ZM441.502 149.359L435.762 149.513C435.702 149.104 435.54 148.741 435.276 148.426C435.012 148.102 434.667 147.851 434.241 147.672C433.823 147.484 433.337 147.391 432.783 147.391C432.059 147.391 431.441 147.536 430.93 147.825C430.427 148.115 430.18 148.507 430.188 149.001C430.18 149.385 430.333 149.717 430.648 149.999C430.972 150.28 431.547 150.506 432.374 150.676L436.158 151.392C438.118 151.767 439.576 152.389 440.53 153.259C441.493 154.128 441.979 155.278 441.988 156.71C441.979 158.057 441.579 159.229 440.786 160.226C440.002 161.223 438.928 161.999 437.564 162.553C436.201 163.098 434.641 163.371 432.885 163.371C430.081 163.371 427.87 162.795 426.251 161.645C424.64 160.486 423.719 158.935 423.489 156.991L429.664 156.838C429.8 157.554 430.154 158.099 430.725 158.474C431.296 158.849 432.025 159.037 432.911 159.037C433.712 159.037 434.364 158.888 434.867 158.589C435.37 158.291 435.626 157.895 435.634 157.401C435.626 156.957 435.43 156.604 435.046 156.339C434.662 156.067 434.062 155.854 433.243 155.7L429.817 155.048C427.849 154.69 426.383 154.03 425.42 153.067C424.456 152.095 423.979 150.859 423.988 149.359C423.979 148.047 424.329 146.926 425.036 145.997C425.743 145.06 426.749 144.344 428.053 143.849C429.357 143.355 430.895 143.108 432.668 143.108C435.327 143.108 437.424 143.666 438.958 144.783C440.492 145.891 441.34 147.416 441.502 149.359ZM454.244 163.371C452.191 163.371 450.418 162.966 448.926 162.156C447.443 161.338 446.301 160.175 445.5 158.666C444.708 157.149 444.311 155.347 444.311 153.259C444.311 151.23 444.712 149.457 445.513 147.94C446.314 146.415 447.443 145.23 448.901 144.386C450.358 143.534 452.075 143.108 454.053 143.108C455.45 143.108 456.729 143.325 457.888 143.76C459.047 144.195 460.048 144.838 460.892 145.69C461.736 146.543 462.392 147.595 462.861 148.848C463.33 150.092 463.564 151.52 463.564 153.131V154.69H446.497V151.06H457.747C457.739 150.395 457.581 149.803 457.274 149.283C456.968 148.763 456.546 148.358 456.009 148.068C455.48 147.77 454.871 147.621 454.181 147.621C453.482 147.621 452.855 147.778 452.301 148.094C451.747 148.401 451.308 148.822 450.985 149.359C450.661 149.888 450.49 150.489 450.473 151.162V154.857C450.473 155.658 450.631 156.361 450.946 156.966C451.262 157.562 451.709 158.027 452.289 158.359C452.868 158.692 453.558 158.858 454.36 158.858C454.914 158.858 455.416 158.781 455.868 158.628C456.32 158.474 456.708 158.249 457.031 157.95C457.355 157.652 457.598 157.286 457.76 156.851L463.5 157.017C463.262 158.304 462.737 159.425 461.928 160.379C461.127 161.325 460.074 162.062 458.77 162.591C457.466 163.111 455.958 163.371 454.244 163.371ZM466.757 163V143.364H472.829V146.943H473.034C473.392 145.648 473.976 144.685 474.785 144.054C475.595 143.415 476.537 143.095 477.611 143.095C477.9 143.095 478.199 143.116 478.506 143.159C478.812 143.193 479.098 143.249 479.362 143.325V148.759C479.064 148.656 478.672 148.575 478.186 148.516C477.709 148.456 477.282 148.426 476.907 148.426C476.166 148.426 475.497 148.592 474.9 148.925C474.312 149.249 473.848 149.705 473.507 150.293C473.175 150.872 473.008 151.554 473.008 152.338V163H466.757Z" fill="black"/>
<rect y="300" width="800" height="100" fill="#AAAAAA"/>
<path d="M343.713 336.818L343.125 354.984H337.871L337.283 336.818H343.713ZM340.492 363.371C339.58 363.371 338.796 363.047 338.139 362.399C337.492 361.751 337.168 360.967 337.168 360.047C337.168 359.143 337.492 358.372 338.139 357.733C338.796 357.085 339.58 356.761 340.492 356.761C341.369 356.761 342.141 357.085 342.806 357.733C343.479 358.372 343.816 359.143 343.816 360.047C343.816 360.661 343.658 361.219 343.343 361.722C343.036 362.224 342.631 362.625 342.128 362.923C341.634 363.222 341.088 363.371 340.492 363.371ZM354.132 363.332C352.879 363.332 351.767 363.124 350.796 362.706C349.833 362.28 349.07 361.641 348.507 360.788C347.953 359.928 347.676 358.849 347.676 357.554C347.676 356.463 347.868 355.543 348.252 354.793C348.635 354.043 349.164 353.433 349.837 352.964C350.51 352.496 351.286 352.142 352.164 351.903C353.041 351.656 353.979 351.49 354.976 351.405C356.093 351.303 356.992 351.196 357.673 351.085C358.355 350.966 358.85 350.8 359.156 350.587C359.472 350.365 359.629 350.054 359.629 349.653V349.589C359.629 348.933 359.404 348.426 358.952 348.068C358.5 347.71 357.891 347.531 357.124 347.531C356.297 347.531 355.632 347.71 355.129 348.068C354.627 348.426 354.307 348.92 354.171 349.551L348.405 349.347C348.575 348.153 349.014 347.088 349.722 346.151C350.438 345.205 351.418 344.463 352.662 343.926C353.915 343.381 355.419 343.108 357.175 343.108C358.428 343.108 359.583 343.257 360.639 343.555C361.696 343.845 362.617 344.271 363.401 344.834C364.185 345.388 364.79 346.07 365.216 346.879C365.651 347.689 365.868 348.614 365.868 349.653V363H359.987V360.264H359.834C359.485 360.929 359.037 361.491 358.492 361.952C357.955 362.412 357.32 362.757 356.587 362.987C355.862 363.217 355.044 363.332 354.132 363.332ZM356.063 359.241C356.736 359.241 357.341 359.105 357.878 358.832C358.423 358.56 358.858 358.185 359.182 357.707C359.506 357.222 359.668 356.659 359.668 356.02V354.153C359.489 354.247 359.271 354.332 359.016 354.409C358.769 354.486 358.496 354.558 358.198 354.626C357.899 354.695 357.593 354.754 357.277 354.805C356.962 354.857 356.659 354.903 356.369 354.946C355.781 355.04 355.279 355.185 354.861 355.381C354.452 355.577 354.137 355.832 353.915 356.148C353.702 356.455 353.595 356.821 353.595 357.247C353.595 357.895 353.825 358.389 354.286 358.73C354.754 359.071 355.347 359.241 356.063 359.241ZM382.36 354.524V343.364H388.598V363H382.641V359.344H382.436C382.002 360.545 381.26 361.5 380.212 362.207C379.172 362.906 377.915 363.256 376.441 363.256C375.102 363.256 373.926 362.949 372.912 362.335C371.898 361.722 371.11 360.865 370.547 359.766C369.985 358.658 369.699 357.362 369.691 355.879V343.364H375.942V354.652C375.95 355.717 376.232 356.557 376.786 357.17C377.34 357.784 378.094 358.091 379.048 358.091C379.671 358.091 380.229 357.955 380.723 357.682C381.226 357.401 381.622 356.996 381.912 356.467C382.21 355.93 382.36 355.283 382.36 354.524ZM403.661 343.364V347.966H391.273V343.364H403.661ZM393.868 338.659H400.12V356.825C400.12 357.209 400.18 357.52 400.299 357.759C400.427 357.989 400.61 358.155 400.849 358.257C401.087 358.351 401.373 358.398 401.705 358.398C401.944 358.398 402.195 358.376 402.459 358.334C402.732 358.283 402.937 358.24 403.073 358.206L404.019 362.719C403.721 362.804 403.299 362.911 402.753 363.038C402.216 363.166 401.573 363.247 400.823 363.281C399.357 363.349 398.1 363.179 397.052 362.77C396.012 362.352 395.215 361.705 394.661 360.827C394.116 359.949 393.851 358.845 393.868 357.516V338.659ZM413.524 351.801V363H407.273V336.818H413.319V346.969H413.537C413.98 345.759 414.704 344.812 415.71 344.131C416.724 343.449 417.964 343.108 419.43 343.108C420.811 343.108 422.013 343.415 423.035 344.028C424.058 344.634 424.851 345.49 425.413 346.598C425.984 347.706 426.265 349.001 426.257 350.484V363H420.006V351.712C420.014 350.621 419.741 349.768 419.187 349.155C418.633 348.541 417.854 348.234 416.848 348.234C416.192 348.234 415.612 348.379 415.109 348.669C414.615 348.95 414.227 349.355 413.946 349.884C413.673 350.412 413.532 351.051 413.524 351.801ZM439.325 363.371C437.263 363.371 435.49 362.949 434.007 362.105C432.533 361.253 431.395 360.068 430.594 358.551C429.801 357.026 429.405 355.257 429.405 353.246C429.405 351.226 429.801 349.457 430.594 347.94C431.395 346.415 432.533 345.23 434.007 344.386C435.49 343.534 437.263 343.108 439.325 343.108C441.388 343.108 443.156 343.534 444.631 344.386C446.114 345.23 447.252 346.415 448.044 347.94C448.845 349.457 449.246 351.226 449.246 353.246C449.246 355.257 448.845 357.026 448.044 358.551C447.252 360.068 446.114 361.253 444.631 362.105C443.156 362.949 441.388 363.371 439.325 363.371ZM439.364 358.653C440.114 358.653 440.749 358.423 441.269 357.963C441.789 357.503 442.185 356.864 442.458 356.045C442.739 355.227 442.879 354.281 442.879 353.207C442.879 352.116 442.739 351.162 442.458 350.344C442.185 349.526 441.789 348.886 441.269 348.426C440.749 347.966 440.114 347.736 439.364 347.736C438.588 347.736 437.932 347.966 437.395 348.426C436.867 348.886 436.462 349.526 436.181 350.344C435.908 351.162 435.771 352.116 435.771 353.207C435.771 354.281 435.908 355.227 436.181 356.045C436.462 356.864 436.867 357.503 437.395 357.963C437.932 358.423 438.588 358.653 439.364 358.653ZM452.448 363V343.364H458.521V346.943H458.725C459.083 345.648 459.667 344.685 460.477 344.054C461.286 343.415 462.228 343.095 463.302 343.095C463.592 343.095 463.89 343.116 464.197 343.159C464.504 343.193 464.789 343.249 465.053 343.325V348.759C464.755 348.656 464.363 348.575 463.877 348.516C463.4 348.456 462.974 348.426 462.599 348.426C461.857 348.426 461.188 348.592 460.592 348.925C460.004 349.249 459.539 349.705 459.198 350.293C458.866 350.872 458.7 351.554 458.7 352.338V363H452.448Z" fill="black"/>
<rect y="500" width="800" height="100" fill="#AAAAAA"/>
<path d="M348.015 563.332C346.762 563.332 345.65 563.124 344.678 562.706C343.715 562.28 342.953 561.641 342.39 560.788C341.836 559.928 341.559 558.849 341.559 557.554C341.559 556.463 341.751 555.543 342.134 554.793C342.518 554.043 343.046 553.433 343.72 552.964C344.393 552.496 345.169 552.142 346.046 551.903C346.924 551.656 347.862 551.49 348.859 551.405C349.975 551.303 350.874 551.196 351.556 551.085C352.238 550.966 352.732 550.8 353.039 550.587C353.355 550.365 353.512 550.054 353.512 549.653V549.589C353.512 548.933 353.286 548.426 352.835 548.068C352.383 547.71 351.774 547.531 351.007 547.531C350.18 547.531 349.515 547.71 349.012 548.068C348.509 548.426 348.19 548.92 348.053 549.551L342.288 549.347C342.458 548.153 342.897 547.088 343.605 546.151C344.32 545.205 345.301 544.463 346.545 543.926C347.798 543.381 349.302 543.108 351.058 543.108C352.311 543.108 353.465 543.257 354.522 543.555C355.579 543.845 356.499 544.271 357.284 544.834C358.068 545.388 358.673 546.07 359.099 546.879C359.534 547.689 359.751 548.614 359.751 549.653V563H353.87V560.264H353.717C353.367 560.929 352.92 561.491 352.374 561.952C351.838 562.412 351.203 562.757 350.47 562.987C349.745 563.217 348.927 563.332 348.015 563.332ZM349.945 559.241C350.619 559.241 351.224 559.105 351.761 558.832C352.306 558.56 352.741 558.185 353.065 557.707C353.389 557.222 353.551 556.659 353.551 556.02V554.153C353.372 554.247 353.154 554.332 352.899 554.409C352.651 554.486 352.379 554.558 352.08 554.626C351.782 554.695 351.475 554.754 351.16 554.805C350.845 554.857 350.542 554.903 350.252 554.946C349.664 555.04 349.161 555.185 348.744 555.381C348.335 555.577 348.019 555.832 347.798 556.148C347.585 556.455 347.478 556.821 347.478 557.247C347.478 557.895 347.708 558.389 348.169 558.73C348.637 559.071 349.23 559.241 349.945 559.241ZM376.242 554.524V543.364H382.481V563H376.524V559.344H376.319C375.884 560.545 375.143 561.5 374.095 562.207C373.055 562.906 371.798 563.256 370.323 563.256C368.985 563.256 367.809 562.949 366.795 562.335C365.781 561.722 364.992 560.865 364.43 559.766C363.867 558.658 363.582 557.362 363.573 555.879V543.364H369.825V554.652C369.833 555.717 370.115 556.557 370.669 557.17C371.222 557.784 371.977 558.091 372.931 558.091C373.553 558.091 374.112 557.955 374.606 557.682C375.109 557.401 375.505 556.996 375.795 556.467C376.093 555.93 376.242 555.283 376.242 554.524ZM397.544 543.364V547.966H385.156V543.364H397.544ZM387.751 538.659H394.003V556.825C394.003 557.209 394.062 557.52 394.182 557.759C394.309 557.989 394.493 558.155 394.731 558.257C394.97 558.351 395.256 558.398 395.588 558.398C395.827 558.398 396.078 558.376 396.342 558.334C396.615 558.283 396.819 558.24 396.956 558.206L397.902 562.719C397.604 562.804 397.182 562.911 396.636 563.038C396.099 563.166 395.456 563.247 394.706 563.281C393.24 563.349 391.983 563.179 390.934 562.77C389.895 562.352 389.098 561.705 388.544 560.827C387.998 559.949 387.734 558.845 387.751 557.516V538.659ZM407.407 551.801V563H401.155V536.818H407.202V546.969H407.42C407.863 545.759 408.587 544.812 409.593 544.131C410.607 543.449 411.847 543.108 413.313 543.108C414.694 543.108 415.895 543.415 416.918 544.028C417.941 544.634 418.733 545.49 419.296 546.598C419.867 547.706 420.148 549.001 420.14 550.484V563H413.888V551.712C413.897 550.621 413.624 549.768 413.07 549.155C412.516 548.541 411.736 548.234 410.731 548.234C410.074 548.234 409.495 548.379 408.992 548.669C408.498 548.95 408.11 549.355 407.829 549.884C407.556 550.412 407.415 551.051 407.407 551.801ZM433.208 563.371C431.146 563.371 429.373 562.949 427.89 562.105C426.416 561.253 425.278 560.068 424.477 558.551C423.684 557.026 423.288 555.257 423.288 553.246C423.288 551.226 423.684 549.457 424.477 547.94C425.278 546.415 426.416 545.23 427.89 544.386C429.373 543.534 431.146 543.108 433.208 543.108C435.271 543.108 437.039 543.534 438.514 544.386C439.997 545.23 441.134 546.415 441.927 547.94C442.728 549.457 443.129 551.226 443.129 553.246C443.129 555.257 442.728 557.026 441.927 558.551C441.134 560.068 439.997 561.253 438.514 562.105C437.039 562.949 435.271 563.371 433.208 563.371ZM433.247 558.653C433.997 558.653 434.632 558.423 435.151 557.963C435.671 557.503 436.068 556.864 436.34 556.045C436.622 555.227 436.762 554.281 436.762 553.207C436.762 552.116 436.622 551.162 436.34 550.344C436.068 549.526 435.671 548.886 435.151 548.426C434.632 547.966 433.997 547.736 433.247 547.736C432.471 547.736 431.815 547.966 431.278 548.426C430.749 548.886 430.345 549.526 430.063 550.344C429.791 551.162 429.654 552.116 429.654 553.207C429.654 554.281 429.791 555.227 430.063 556.045C430.345 556.864 430.749 557.503 431.278 557.963C431.815 558.423 432.471 558.653 433.247 558.653ZM446.331 563V543.364H452.404V546.943H452.608C452.966 545.648 453.55 544.685 454.36 544.054C455.169 543.415 456.111 543.095 457.185 543.095C457.475 543.095 457.773 543.116 458.08 543.159C458.387 543.193 458.672 543.249 458.936 543.325V548.759C458.638 548.656 458.246 548.575 457.76 548.516C457.283 548.456 456.857 548.426 456.482 548.426C455.74 548.426 455.071 548.592 454.475 548.925C453.887 549.249 453.422 549.705 453.081 550.293C452.749 550.872 452.583 551.554 452.583 552.338V563H446.331Z" fill="black"/>
<rect y="700" width="800" height="100" fill="#AAAAAA"/>
<path d="M328.171 763V736.818H334.422V746.726H334.55C334.806 746.129 335.168 745.554 335.637 745C336.114 744.446 336.719 743.994 337.452 743.645C338.194 743.287 339.08 743.108 340.111 743.108C341.475 743.108 342.749 743.466 343.934 744.182C345.127 744.898 346.09 746.001 346.823 747.493C347.556 748.984 347.922 750.885 347.922 753.195C347.922 755.419 347.569 757.281 346.861 758.781C346.162 760.281 345.216 761.406 344.023 762.156C342.839 762.906 341.522 763.281 340.073 763.281C339.084 763.281 338.228 763.119 337.503 762.795C336.779 762.472 336.17 762.045 335.675 761.517C335.189 760.989 334.814 760.422 334.55 759.817H334.358V763H328.171ZM334.295 753.182C334.295 754.239 334.435 755.159 334.716 755.943C335.006 756.727 335.42 757.337 335.956 757.771C336.502 758.197 337.154 758.411 337.912 758.411C338.68 758.411 339.331 758.197 339.868 757.771C340.405 757.337 340.81 756.727 341.083 755.943C341.364 755.159 341.505 754.239 341.505 753.182C341.505 752.125 341.364 751.209 341.083 750.433C340.81 749.658 340.405 749.057 339.868 748.631C339.34 748.205 338.688 747.991 337.912 747.991C337.145 747.991 336.493 748.2 335.956 748.618C335.42 749.036 335.006 749.632 334.716 750.408C334.435 751.183 334.295 752.108 334.295 753.182ZM351.198 763V743.364H357.271V746.943H357.475C357.833 745.648 358.417 744.685 359.227 744.054C360.036 743.415 360.978 743.095 362.052 743.095C362.342 743.095 362.64 743.116 362.947 743.159C363.254 743.193 363.539 743.249 363.803 743.325V748.759C363.505 748.656 363.113 748.575 362.627 748.516C362.15 748.456 361.724 748.426 361.349 748.426C360.607 748.426 359.938 748.592 359.342 748.925C358.754 749.249 358.289 749.705 357.948 750.293C357.616 750.872 357.45 751.554 357.45 752.338V763H351.198ZM374.497 763.371C372.435 763.371 370.662 762.949 369.179 762.105C367.705 761.253 366.567 760.068 365.766 758.551C364.973 757.026 364.577 755.257 364.577 753.246C364.577 751.226 364.973 749.457 365.766 747.94C366.567 746.415 367.705 745.23 369.179 744.386C370.662 743.534 372.435 743.108 374.497 743.108C376.56 743.108 378.328 743.534 379.803 744.386C381.286 745.23 382.423 746.415 383.216 747.94C384.017 749.457 384.418 751.226 384.418 753.246C384.418 755.257 384.017 757.026 383.216 758.551C382.423 760.068 381.286 761.253 379.803 762.105C378.328 762.949 376.56 763.371 374.497 763.371ZM374.536 758.653C375.286 758.653 375.921 758.423 376.441 757.963C376.96 757.503 377.357 756.864 377.629 756.045C377.911 755.227 378.051 754.281 378.051 753.207C378.051 752.116 377.911 751.162 377.629 750.344C377.357 749.526 376.96 748.886 376.441 748.426C375.921 747.966 375.286 747.736 374.536 747.736C373.76 747.736 373.104 747.966 372.567 748.426C372.039 748.886 371.634 749.526 371.352 750.344C371.08 751.162 370.943 752.116 370.943 753.207C370.943 754.281 371.08 755.227 371.352 756.045C371.634 756.864 372.039 757.503 372.567 757.963C373.104 758.423 373.76 758.653 374.536 758.653ZM390.867 763L385.754 743.364H392.031L394.677 755.943H394.843L397.681 743.364H403.805L406.72 755.854H406.886L409.455 743.364H415.732L410.606 763H403.92L400.852 751.558H400.634L397.566 763H390.867ZM435.385 749.359L429.645 749.513C429.585 749.104 429.423 748.741 429.159 748.426C428.895 748.102 428.55 747.851 428.123 747.672C427.706 747.484 427.22 747.391 426.666 747.391C425.942 747.391 425.324 747.536 424.812 747.825C424.309 748.115 424.062 748.507 424.071 749.001C424.062 749.385 424.216 749.717 424.531 749.999C424.855 750.28 425.43 750.506 426.257 750.676L430.041 751.392C432.001 751.767 433.459 752.389 434.413 753.259C435.376 754.128 435.862 755.278 435.871 756.71C435.862 758.057 435.461 759.229 434.669 760.226C433.885 761.223 432.811 761.999 431.447 762.553C430.084 763.098 428.524 763.371 426.768 763.371C423.964 763.371 421.753 762.795 420.133 761.645C418.523 760.486 417.602 758.935 417.372 756.991L423.547 756.838C423.683 757.554 424.037 758.099 424.608 758.474C425.179 758.849 425.907 759.037 426.794 759.037C427.595 759.037 428.247 758.888 428.75 758.589C429.253 758.291 429.508 757.895 429.517 757.401C429.508 756.957 429.312 756.604 428.929 756.339C428.545 756.067 427.944 755.854 427.126 755.7L423.7 755.048C421.731 754.69 420.265 754.03 419.302 753.067C418.339 752.095 417.862 750.859 417.871 749.359C417.862 748.047 418.211 746.926 418.919 745.997C419.626 745.06 420.632 744.344 421.936 743.849C423.24 743.355 424.778 743.108 426.551 743.108C429.21 743.108 431.307 743.666 432.841 744.783C434.375 745.891 435.223 747.416 435.385 749.359ZM448.127 763.371C446.073 763.371 444.301 762.966 442.809 762.156C441.326 761.338 440.184 760.175 439.383 758.666C438.59 757.149 438.194 755.347 438.194 753.259C438.194 751.23 438.595 749.457 439.396 747.94C440.197 746.415 441.326 745.23 442.784 744.386C444.241 743.534 445.958 743.108 447.936 743.108C449.333 743.108 450.612 743.325 451.771 743.76C452.93 744.195 453.931 744.838 454.775 745.69C455.619 746.543 456.275 747.595 456.744 748.848C457.213 750.092 457.447 751.52 457.447 753.131V754.69H440.38V751.06H451.63C451.622 750.395 451.464 749.803 451.157 749.283C450.85 748.763 450.428 748.358 449.892 748.068C449.363 747.77 448.754 747.621 448.063 747.621C447.365 747.621 446.738 747.778 446.184 748.094C445.63 748.401 445.191 748.822 444.867 749.359C444.544 749.888 444.373 750.489 444.356 751.162V754.857C444.356 755.658 444.514 756.361 444.829 756.966C445.144 757.562 445.592 758.027 446.171 758.359C446.751 758.692 447.441 758.858 448.242 758.858C448.796 758.858 449.299 758.781 449.751 758.628C450.203 758.474 450.59 758.249 450.914 757.95C451.238 757.652 451.481 757.286 451.643 756.851L457.383 757.017C457.144 758.304 456.62 759.425 455.811 760.379C455.009 761.325 453.957 762.062 452.653 762.591C451.349 763.111 449.84 763.371 448.127 763.371ZM460.64 763V743.364H466.712V746.943H466.917C467.275 745.648 467.858 744.685 468.668 744.054C469.478 743.415 470.42 743.095 471.493 743.095C471.783 743.095 472.081 743.116 472.388 743.159C472.695 743.193 472.981 743.249 473.245 743.325V748.759C472.947 748.656 472.555 748.575 472.069 748.516C471.591 748.456 471.165 748.426 470.79 748.426C470.049 748.426 469.38 748.592 468.783 748.925C468.195 749.249 467.731 749.705 467.39 750.293C467.057 750.872 466.891 751.554 466.891 752.338V763H460.64Z" fill="black"/>
<rect y="200" width="800" height="100" fill="#DDDDDD"/>
<path d="M362.996 236.818L362.408 254.984H357.154L356.566 236.818H362.996ZM359.775 263.371C358.863 263.371 358.079 263.047 357.423 262.399C356.775 261.751 356.451 260.967 356.451 260.047C356.451 259.143 356.775 258.372 357.423 257.733C358.079 257.085 358.863 256.761 359.775 256.761C360.653 256.761 361.424 257.085 362.089 257.733C362.762 258.372 363.099 259.143 363.099 260.047C363.099 260.661 362.941 261.219 362.626 261.722C362.319 262.224 361.914 262.625 361.411 262.923C360.917 263.222 360.371 263.371 359.775 263.371ZM380.549 254.524V243.364H386.788V263H380.83V259.344H380.626C380.191 260.545 379.45 261.5 378.401 262.207C377.362 262.906 376.104 263.256 374.63 263.256C373.292 263.256 372.116 262.949 371.102 262.335C370.087 261.722 369.299 260.865 368.737 259.766C368.174 258.658 367.888 257.362 367.88 255.879V243.364H374.131V254.652C374.14 255.717 374.421 256.557 374.975 257.17C375.529 257.784 376.283 258.091 377.238 258.091C377.86 258.091 378.418 257.955 378.913 257.682C379.415 257.401 379.812 256.996 380.102 256.467C380.4 255.93 380.549 255.283 380.549 254.524ZM407.91 249.359L402.17 249.513C402.11 249.104 401.949 248.741 401.684 248.426C401.42 248.102 401.075 247.851 400.649 247.672C400.231 247.484 399.745 247.391 399.191 247.391C398.467 247.391 397.849 247.536 397.338 247.825C396.835 248.115 396.588 248.507 396.596 249.001C396.588 249.385 396.741 249.717 397.056 249.999C397.38 250.28 397.956 250.506 398.782 250.676L402.566 251.392C404.527 251.767 405.984 252.389 406.939 253.259C407.902 254.128 408.387 255.278 408.396 256.71C408.387 258.057 407.987 259.229 407.194 260.226C406.41 261.223 405.336 261.999 403.973 262.553C402.609 263.098 401.049 263.371 399.294 263.371C396.49 263.371 394.278 262.795 392.659 261.645C391.048 260.486 390.127 258.935 389.897 256.991L396.072 256.838C396.208 257.554 396.562 258.099 397.133 258.474C397.704 258.849 398.433 259.037 399.319 259.037C400.12 259.037 400.772 258.888 401.275 258.589C401.778 258.291 402.034 257.895 402.042 257.401C402.034 256.957 401.838 256.604 401.454 256.339C401.071 256.067 400.47 255.854 399.652 255.7L396.225 255.048C394.257 254.69 392.791 254.03 391.828 253.067C390.865 252.095 390.387 250.859 390.396 249.359C390.387 248.047 390.737 246.926 391.444 245.997C392.152 245.06 393.157 244.344 394.461 243.849C395.765 243.355 397.304 243.108 399.076 243.108C401.735 243.108 403.832 243.666 405.366 244.783C406.9 245.891 407.748 247.416 407.91 249.359ZM420.653 263.371C418.599 263.371 416.826 262.966 415.335 262.156C413.852 261.338 412.71 260.175 411.908 258.666C411.116 257.149 410.719 255.347 410.719 253.259C410.719 251.23 411.12 249.457 411.921 247.94C412.722 246.415 413.852 245.23 415.309 244.386C416.766 243.534 418.484 243.108 420.461 243.108C421.859 243.108 423.137 243.325 424.296 243.76C425.455 244.195 426.457 244.838 427.3 245.69C428.144 246.543 428.8 247.595 429.269 248.848C429.738 250.092 429.972 251.52 429.972 253.131V254.69H412.906V251.06H424.156C424.147 250.395 423.989 249.803 423.683 249.283C423.376 248.763 422.954 248.358 422.417 248.068C421.888 247.77 421.279 247.621 420.589 247.621C419.89 247.621 419.263 247.778 418.71 248.094C418.156 248.401 417.717 248.822 417.393 249.359C417.069 249.888 416.898 250.489 416.881 251.162V254.857C416.881 255.658 417.039 256.361 417.354 256.966C417.67 257.562 418.117 258.027 418.697 258.359C419.276 258.692 419.967 258.858 420.768 258.858C421.322 258.858 421.825 258.781 422.276 258.628C422.728 258.474 423.116 258.249 423.44 257.95C423.763 257.652 424.006 257.286 424.168 256.851L429.908 257.017C429.67 258.304 429.146 259.425 428.336 260.379C427.535 261.325 426.482 262.062 425.178 262.591C423.874 263.111 422.366 263.371 420.653 263.371ZM433.165 263V243.364H439.238V246.943H439.442C439.8 245.648 440.384 244.685 441.194 244.054C442.003 243.415 442.945 243.095 444.019 243.095C444.309 243.095 444.607 243.116 444.914 243.159C445.221 243.193 445.506 243.249 445.77 243.325V248.759C445.472 248.656 445.08 248.575 444.594 248.516C444.117 248.456 443.691 248.426 443.316 248.426C442.574 248.426 441.905 248.592 441.309 248.925C440.721 249.249 440.256 249.705 439.915 250.293C439.583 250.872 439.417 251.554 439.417 252.338V263H433.165Z" fill="black"/>
<rect y="600" width="800" height="100" fill="#DDDDDD"/>
<path d="M374.432 654.524V643.364H380.67V663H374.713V659.344H374.509C374.074 660.545 373.332 661.5 372.284 662.207C371.244 662.906 369.987 663.256 368.513 663.256C367.175 663.256 365.999 662.949 364.984 662.335C363.97 661.722 363.182 660.865 362.619 659.766C362.057 658.658 361.771 657.362 361.763 655.879V643.364H368.014V654.652C368.023 655.717 368.304 656.557 368.858 657.17C369.412 657.784 370.166 658.091 371.121 658.091C371.743 658.091 372.301 657.955 372.795 657.682C373.298 657.401 373.695 656.996 373.984 656.467C374.283 655.93 374.432 655.283 374.432 654.524ZM401.793 649.359L396.053 649.513C395.993 649.104 395.831 648.741 395.567 648.426C395.303 648.102 394.958 647.851 394.532 647.672C394.114 647.484 393.628 647.391 393.074 647.391C392.35 647.391 391.732 647.536 391.221 647.825C390.718 648.115 390.471 648.507 390.479 649.001C390.471 649.385 390.624 649.717 390.939 649.999C391.263 650.28 391.838 650.506 392.665 650.676L396.449 651.392C398.409 651.767 399.867 652.389 400.821 653.259C401.784 654.128 402.27 655.278 402.279 656.71C402.27 658.057 401.87 659.229 401.077 660.226C400.293 661.223 399.219 661.999 397.855 662.553C396.492 663.098 394.932 663.371 393.176 663.371C390.373 663.371 388.161 662.795 386.542 661.645C384.931 660.486 384.01 658.935 383.78 656.991L389.955 656.838C390.091 657.554 390.445 658.099 391.016 658.474C391.587 658.849 392.316 659.037 393.202 659.037C394.003 659.037 394.655 658.888 395.158 658.589C395.661 658.291 395.917 657.895 395.925 657.401C395.917 656.957 395.721 656.604 395.337 656.339C394.953 656.067 394.353 655.854 393.534 655.7L390.108 655.048C388.14 654.69 386.674 654.03 385.711 653.067C384.748 652.095 384.27 650.859 384.279 649.359C384.27 648.047 384.62 646.926 385.327 645.997C386.034 645.06 387.04 644.344 388.344 643.849C389.648 643.355 391.186 643.108 392.959 643.108C395.618 643.108 397.715 643.666 399.249 644.783C400.783 645.891 401.631 647.416 401.793 649.359ZM414.536 663.371C412.482 663.371 410.709 662.966 409.217 662.156C407.734 661.338 406.592 660.175 405.791 658.666C404.999 657.149 404.602 655.347 404.602 653.259C404.602 651.23 405.003 649.457 405.804 647.94C406.605 646.415 407.734 645.23 409.192 644.386C410.649 643.534 412.366 643.108 414.344 643.108C415.741 643.108 417.02 643.325 418.179 643.76C419.338 644.195 420.339 644.838 421.183 645.69C422.027 646.543 422.683 647.595 423.152 648.848C423.621 650.092 423.855 651.52 423.855 653.131V654.69H406.788V651.06H418.038C418.03 650.395 417.872 649.803 417.565 649.283C417.259 648.763 416.837 648.358 416.3 648.068C415.771 647.77 415.162 647.621 414.472 647.621C413.773 647.621 413.146 647.778 412.592 648.094C412.038 648.401 411.599 648.822 411.276 649.359C410.952 649.888 410.781 650.489 410.764 651.162V654.857C410.764 655.658 410.922 656.361 411.237 656.966C411.553 657.562 412 658.027 412.58 658.359C413.159 658.692 413.849 658.858 414.651 658.858C415.205 658.858 415.707 658.781 416.159 658.628C416.611 658.474 416.999 658.249 417.322 657.95C417.646 657.652 417.889 657.286 418.051 656.851L423.791 657.017C423.553 658.304 423.028 659.425 422.219 660.379C421.418 661.325 420.365 662.062 419.061 662.591C417.757 663.111 416.249 663.371 414.536 663.371ZM427.048 663V643.364H433.12V646.943H433.325C433.683 645.648 434.267 644.685 435.076 644.054C435.886 643.415 436.828 643.095 437.902 643.095C438.191 643.095 438.49 643.116 438.797 643.159C439.103 643.193 439.389 643.249 439.653 643.325V648.759C439.355 648.656 438.963 648.575 438.477 648.516C438 648.456 437.574 648.426 437.199 648.426C436.457 648.426 435.788 648.592 435.191 648.925C434.603 649.249 434.139 649.705 433.798 650.293C433.466 650.872 433.299 651.554 433.299 652.338V663H427.048Z" fill="black"/>
</svg>
