<svg width="1920" height="1080" viewBox="0 0 1920 1080" fill="none" xmlns="http://www.w3.org/2000/svg">
<rect width="1920" height="1080" fill="white"/>
<path d="M1157.88 537.879C1156.71 539.05 1156.71 540.95 1157.88 542.121L1176.97 561.213C1178.14 562.385 1180.04 562.385 1181.21 561.213C1182.38 560.042 1182.38 558.142 1181.21 556.971L1164.24 540L1181.21 523.029C1182.38 521.858 1182.38 519.958 1181.21 518.787C1180.04 517.615 1178.14 517.615 1176.97 518.787L1157.88 537.879ZM1412.12 542.121C1413.29 540.95 1413.29 539.05 1412.12 537.879L1393.03 518.787C1391.86 517.615 1389.96 517.615 1388.79 518.787C1387.62 519.958 1387.62 521.858 1388.79 523.029L1405.76 540L1388.79 556.971C1387.62 558.142 1387.62 560.042 1388.79 561.213C1389.96 562.385 1391.86 562.385 1393.03 561.213L1412.12 542.121ZM1160 543L1410 543L1410 537L1160 537L1160 543Z" fill="black"/>
<path d="M517.879 537.879C516.707 539.05 516.707 540.95 517.879 542.121L536.971 561.213C538.142 562.385 540.042 562.385 541.213 561.213C542.385 560.042 542.385 558.142 541.213 556.971L524.243 540L541.213 523.029C542.385 521.858 542.385 519.958 541.213 518.787C540.042 517.615 538.142 517.615 536.971 518.787L517.879 537.879ZM772.121 542.121C773.293 540.95 773.293 539.05 772.121 537.879L753.029 518.787C751.858 517.615 749.958 517.615 748.787 518.787C747.615 519.958 747.615 521.858 748.787 523.029L765.757 540L748.787 556.971C747.615 558.142 747.615 560.042 748.787 561.213C749.958 562.385 751.858 562.385 753.029 561.213L772.121 542.121ZM520 543L770 543L770 537L520 537L520 543Z" fill="black"/>
<path d="M1033.69 522.75L1031.89 520.95C1033.06 518.53 1033.46 515.813 1033.04 513.161C1032.62 510.509 1031.4 508.047 1029.55 506.104C1028.28 504.846 1026.76 503.871 1025.09 503.246C1023.42 502.621 1021.63 502.359 1019.85 502.479C1018.18 502.577 1016.54 502.968 1015 503.633V473.333H898.333V606.667H1015V539.25L1027.87 526.375L1028.97 527.471C1029.12 527.614 1029.23 527.785 1029.31 527.973C1029.39 528.16 1029.43 528.361 1029.43 528.565C1029.43 528.768 1029.39 528.969 1029.31 529.157C1029.23 529.344 1029.12 529.515 1028.97 529.658L1019.17 539.467C1018.55 540.092 1018.19 540.939 1018.19 541.824C1018.19 542.708 1018.54 543.556 1019.17 544.181C1019.79 544.807 1020.64 545.158 1021.53 545.159C1022.41 545.159 1023.26 544.808 1023.88 544.183L1033.69 534.375C1035.23 532.833 1036.1 530.742 1036.1 528.563C1036.1 526.383 1035.23 524.292 1033.69 522.75ZM923.333 499.167H990.008V505.833H923.333V499.167ZM923.333 515.833H990.008V522.5H923.333V515.833ZM923.333 532.5H967.083V539.167H923.333V532.5ZM984.962 589.567H952.45C948.691 589.567 945.175 589.208 943.308 586.133C941.396 582.988 943.296 579.333 944.683 576.658C944.929 576.188 944.383 575.604 943.758 576.25C941.925 578.133 939.008 581.525 936.662 584.25C934.183 587.133 933.2 588.263 932.675 588.738C932.119 589.383 931.365 589.825 930.53 589.994C929.696 590.163 928.829 590.049 928.066 589.671C927.382 589.275 926.845 588.667 926.539 587.938C926.233 587.208 926.174 586.399 926.371 585.633C926.546 584.592 929.521 573 932.216 562.579C928.633 568.942 917.258 587.996 916.725 588.892C916.328 589.556 915.683 590.036 914.933 590.226C914.182 590.415 913.387 590.299 912.723 589.902C912.058 589.505 911.578 588.861 911.389 588.11C911.199 587.36 911.315 586.565 911.712 585.9C911.858 585.663 926.108 561.783 927.904 558.317C928.489 556.931 929.579 555.819 930.952 555.206C932.326 554.592 933.881 554.523 935.304 555.013C936.588 555.534 937.626 556.524 938.21 557.781C938.794 559.038 938.88 560.47 938.45 561.788C936.95 567.571 935.421 573.504 934.241 578.121C936.146 575.921 938.137 573.663 939.575 572.183C940.681 570.853 942.193 569.923 943.878 569.534C945.564 569.144 947.331 569.319 948.908 570.029C949.888 570.528 950.673 571.341 951.138 572.337C951.603 573.334 951.722 574.458 951.475 575.529C951.077 576.857 950.535 578.136 949.858 579.346C948.746 581.658 949.275 583.729 952.45 583.729H984.962C985.736 583.729 986.478 584.036 987.025 584.583C987.572 585.13 987.879 585.872 987.879 586.646C987.879 587.419 987.572 588.161 987.025 588.708C986.478 589.255 985.736 589.563 984.962 589.563V589.567ZM976.296 568.525L965.446 571.388C965.288 571.432 965.121 571.433 964.962 571.391C964.804 571.348 964.66 571.264 964.546 571.146C964.426 571.033 964.34 570.889 964.296 570.73C964.253 570.572 964.254 570.404 964.3 570.246L967.066 559.417L994.525 531.958L1003.69 541.125L976.296 568.525ZM1024.07 520.746L1008.4 536.413L999.237 527.246L1014.9 511.579C1016.3 510.139 1018.19 509.269 1020.2 509.138L1020.57 509.125C1021.36 509.111 1022.14 509.254 1022.87 509.545C1023.6 509.836 1024.27 510.27 1024.83 510.821C1026.03 512.242 1026.63 514.081 1026.49 515.939C1026.34 517.797 1025.48 519.524 1024.07 520.746Z" fill="black"/>
<path d="M324.5 585H332C333.989 585 335.897 585.79 337.303 587.197C338.71 588.603 339.5 590.511 339.5 592.5H392V607.5H339.5C339.5 609.489 338.71 611.397 337.303 612.803C335.897 614.21 333.989 615 332 615H302C300.011 615 298.103 614.21 296.697 612.803C295.29 611.397 294.5 609.489 294.5 607.5H242V592.5H294.5C294.5 590.511 295.29 588.603 296.697 587.197C298.103 585.79 300.011 585 302 585H309.5V570H257C255.011 570 253.103 569.21 251.697 567.803C250.29 566.397 249.5 564.489 249.5 562.5V532.5C249.5 530.511 250.29 528.603 251.697 527.197C253.103 525.79 255.011 525 257 525H377C378.989 525 380.897 525.79 382.303 527.197C383.71 528.603 384.5 530.511 384.5 532.5V562.5C384.5 564.489 383.71 566.397 382.303 567.803C380.897 569.21 378.989 570 377 570H324.5V585ZM257 465H377C378.989 465 380.897 465.79 382.303 467.197C383.71 468.603 384.5 470.511 384.5 472.5V502.5C384.5 504.489 383.71 506.397 382.303 507.803C380.897 509.21 378.989 510 377 510H257C255.011 510 253.103 509.21 251.697 507.803C250.29 506.397 249.5 504.489 249.5 502.5V472.5C249.5 470.511 250.29 468.603 251.697 467.197C253.103 465.79 255.011 465 257 465ZM294.5 495H302V480H294.5V495ZM294.5 555H302V540H294.5V555ZM264.5 480V495H279.5V480H264.5ZM264.5 540V555H279.5V540H264.5Z" fill="black"/>
<path d="M1572.09 594.545H1599.36V587.727H1572.09V594.545ZM1551.64 615C1547.89 615 1544.68 613.666 1542.01 610.998C1539.34 608.325 1538 605.114 1538 601.364V478.636C1538 474.886 1539.34 471.675 1542.01 469.002C1544.68 466.334 1547.89 465 1551.64 465H1619.82C1623.57 465 1626.78 466.334 1629.45 469.002C1632.12 471.675 1633.45 474.886 1633.45 478.636V601.364C1633.45 605.114 1632.12 608.325 1629.45 610.998C1626.78 613.666 1623.57 615 1619.82 615H1551.64ZM1551.64 567.273H1619.82V499.091H1551.64V567.273Z" fill="black"/>
</svg>
