<svg width="1920" height="1080" viewBox="0 0 1920 1080" fill="none" xmlns="http://www.w3.org/2000/svg">
<rect width="1920" height="1080" fill="white"/>
<path d="M1256.88 537.879C1255.71 539.05 1255.71 540.95 1256.88 542.121L1275.97 561.213C1277.14 562.385 1279.04 562.385 1280.21 561.213C1281.38 560.042 1281.38 558.142 1280.21 556.971L1263.24 540L1280.21 523.029C1281.38 521.858 1281.38 519.958 1280.21 518.787C1279.04 517.615 1277.14 517.615 1275.97 518.787L1256.88 537.879ZM1412.12 542.121C1413.29 540.95 1413.29 539.05 1412.12 537.879L1393.03 518.787C1391.86 517.615 1389.96 517.615 1388.79 518.787C1387.62 519.958 1387.62 521.858 1388.79 523.029L1405.76 540L1388.79 556.971C1387.62 558.142 1387.62 560.042 1388.79 561.213C1389.96 562.385 1391.86 562.385 1393.03 561.213L1412.12 542.121ZM1259 543L1410 543L1410 537L1259 537L1259 543Z" fill="black"/>
<path d="M517.879 537.879C516.707 539.05 516.707 540.95 517.879 542.121L536.971 561.213C538.142 562.385 540.042 562.385 541.213 561.213C542.385 560.042 542.385 558.142 541.213 556.971L524.243 540L541.213 523.029C542.385 521.858 542.385 519.958 541.213 518.787C540.042 517.615 538.142 517.615 536.971 518.787L517.879 537.879ZM672.121 542.121C673.293 540.95 673.293 539.05 672.121 537.879L653.029 518.787C651.858 517.615 649.958 517.615 648.787 518.787C647.615 519.958 647.615 521.858 648.787 523.029L665.757 540L648.787 556.971C647.615 558.142 647.615 560.042 648.787 561.213C649.958 562.385 651.858 562.385 653.029 561.213L672.121 542.121ZM520 543L670 543L670 537L520 537L520 543Z" fill="black"/>
<path d="M324.5 585H332C333.989 585 335.897 585.79 337.303 587.197C338.71 588.603 339.5 590.511 339.5 592.5H392V607.5H339.5C339.5 609.489 338.71 611.397 337.303 612.803C335.897 614.21 333.989 615 332 615H302C300.011 615 298.103 614.21 296.697 612.803C295.29 611.397 294.5 609.489 294.5 607.5H242V592.5H294.5C294.5 590.511 295.29 588.603 296.697 587.197C298.103 585.79 300.011 585 302 585H309.5V570H257C255.011 570 253.103 569.21 251.697 567.803C250.29 566.397 249.5 564.489 249.5 562.5V532.5C249.5 530.511 250.29 528.603 251.697 527.197C253.103 525.79 255.011 525 257 525H377C378.989 525 380.897 525.79 382.303 527.197C383.71 528.603 384.5 530.511 384.5 532.5V562.5C384.5 564.489 383.71 566.397 382.303 567.803C380.897 569.21 378.989 570 377 570H324.5V585ZM257 465H377C378.989 465 380.897 465.79 382.303 467.197C383.71 468.603 384.5 470.511 384.5 472.5V502.5C384.5 504.489 383.71 506.397 382.303 507.803C380.897 509.21 378.989 510 377 510H257C255.011 510 253.103 509.21 251.697 507.803C250.29 506.397 249.5 504.489 249.5 502.5V472.5C249.5 470.511 250.29 468.603 251.697 467.197C253.103 465.79 255.011 465 257 465ZM294.5 495H302V480H294.5V495ZM294.5 555H302V540H294.5V555ZM264.5 480V495H279.5V480H264.5ZM264.5 540V555H279.5V540H264.5Z" fill="black"/>
<path d="M1572.09 594.545H1599.36V587.727H1572.09V594.545ZM1551.64 615C1547.89 615 1544.68 613.666 1542.01 610.998C1539.34 608.325 1538 605.114 1538 601.364V478.636C1538 474.886 1539.34 471.675 1542.01 469.002C1544.68 466.334 1547.89 465 1551.64 465H1619.82C1623.57 465 1626.78 466.334 1629.45 469.002C1632.12 471.675 1633.45 474.886 1633.45 478.636V601.364C1633.45 605.114 1632.12 608.325 1629.45 610.998C1626.78 613.666 1623.57 615 1619.82 615H1551.64ZM1551.64 567.273H1619.82V499.091H1551.64V567.273Z" fill="black"/>
<path d="M1018.66 456.829C1023.07 456.829 1026.63 453.26 1026.63 448.858C1026.63 444.456 1023.07 440.887 1018.66 440.887C1014.26 440.887 1010.69 444.456 1010.69 448.858C1010.69 453.26 1014.26 456.829 1018.66 456.829Z" fill="url(#paint0_radial_102_296)"/>
<path d="M1018.66 456.829C1023.07 456.829 1026.63 453.26 1026.63 448.858C1026.63 444.456 1023.07 440.887 1018.66 440.887C1014.26 440.887 1010.69 444.456 1010.69 448.858C1010.69 453.26 1014.26 456.829 1018.66 456.829Z" fill="url(#paint1_radial_102_296)"/>
<g filter="url(#filter0_i_102_296)">
<path d="M1006.15 439.202C1008.46 439.202 1010.33 437.329 1010.33 435.02C1010.33 432.711 1008.46 430.839 1006.15 430.839C1003.84 430.839 1001.96 432.711 1001.96 435.02C1001.96 437.329 1003.84 439.202 1006.15 439.202Z" fill="url(#paint2_radial_102_296)"/>
<path d="M1006.15 439.202C1008.46 439.202 1010.33 437.329 1010.33 435.02C1010.33 432.711 1008.46 430.839 1006.15 430.839C1003.84 430.839 1001.96 432.711 1001.96 435.02C1001.96 437.329 1003.84 439.202 1006.15 439.202Z" fill="url(#paint3_radial_102_296)"/>
</g>
<g filter="url(#filter1_i_102_296)">
<path d="M1040.18 427.732C1044.49 423.421 1050.34 421 1056.44 421C1062.53 421 1068.38 423.421 1072.69 427.732L1092.27 447.309C1096.58 451.621 1099 457.468 1099 463.564C1099 469.661 1096.58 475.508 1092.27 479.819L1057.82 514.268C1053.51 518.579 1047.66 521 1041.56 521C1035.47 521 1029.62 518.579 1025.31 514.268L1005.73 494.691C1001.42 490.379 999 484.532 999 478.436C999 472.339 1001.42 466.492 1005.73 462.181L1040.18 427.732Z" fill="url(#paint4_linear_102_296)"/>
<path d="M1040.18 427.732C1044.49 423.421 1050.34 421 1056.44 421C1062.53 421 1068.38 423.421 1072.69 427.732L1092.27 447.309C1096.58 451.621 1099 457.468 1099 463.564C1099 469.661 1096.58 475.508 1092.27 479.819L1057.82 514.268C1053.51 518.579 1047.66 521 1041.56 521C1035.47 521 1029.62 518.579 1025.31 514.268L1005.73 494.691C1001.42 490.379 999 484.532 999 478.436C999 472.339 1001.42 466.492 1005.73 462.181L1040.18 427.732Z" fill="url(#paint5_radial_102_296)"/>
<path d="M1040.18 427.732C1044.49 423.421 1050.34 421 1056.44 421C1062.53 421 1068.38 423.421 1072.69 427.732L1092.27 447.309C1096.58 451.621 1099 457.468 1099 463.564C1099 469.661 1096.58 475.508 1092.27 479.819L1057.82 514.268C1053.51 518.579 1047.66 521 1041.56 521C1035.47 521 1029.62 518.579 1025.31 514.268L1005.73 494.691C1001.42 490.379 999 484.532 999 478.436C999 472.339 1001.42 466.492 1005.73 462.181L1040.18 427.732Z" fill="url(#paint6_radial_102_296)"/>
<path d="M1040.18 427.732C1044.49 423.421 1050.34 421 1056.44 421C1062.53 421 1068.38 423.421 1072.69 427.732L1092.27 447.309C1096.58 451.621 1099 457.468 1099 463.564C1099 469.661 1096.58 475.508 1092.27 479.819L1057.82 514.268C1053.51 518.579 1047.66 521 1041.56 521C1035.47 521 1029.62 518.579 1025.31 514.268L1005.73 494.691C1001.42 490.379 999 484.532 999 478.436C999 472.339 1001.42 466.492 1005.73 462.181L1040.18 427.732Z" fill="url(#paint7_radial_102_296)"/>
<path d="M1040.18 427.732C1044.49 423.421 1050.34 421 1056.44 421C1062.53 421 1068.38 423.421 1072.69 427.732L1092.27 447.309C1096.58 451.621 1099 457.468 1099 463.564C1099 469.661 1096.58 475.508 1092.27 479.819L1057.82 514.268C1053.51 518.579 1047.66 521 1041.56 521C1035.47 521 1029.62 518.579 1025.31 514.268L1005.73 494.691C1001.42 490.379 999 484.532 999 478.436C999 472.339 1001.42 466.492 1005.73 462.181L1040.18 427.732Z" fill="url(#paint8_radial_102_296)"/>
<path d="M1040.18 427.732C1044.49 423.421 1050.34 421 1056.44 421C1062.53 421 1068.38 423.421 1072.69 427.732L1092.27 447.309C1096.58 451.621 1099 457.468 1099 463.564C1099 469.661 1096.58 475.508 1092.27 479.819L1057.82 514.268C1053.51 518.579 1047.66 521 1041.56 521C1035.47 521 1029.62 518.579 1025.31 514.268L1005.73 494.691C1001.42 490.379 999 484.532 999 478.436C999 472.339 1001.42 466.492 1005.73 462.181L1040.18 427.732Z" fill="url(#paint9_radial_102_296)"/>
<path d="M1040.18 427.732C1044.49 423.421 1050.34 421 1056.44 421C1062.53 421 1068.38 423.421 1072.69 427.732L1092.27 447.309C1096.58 451.621 1099 457.468 1099 463.564C1099 469.661 1096.58 475.508 1092.27 479.819L1057.82 514.268C1053.51 518.579 1047.66 521 1041.56 521C1035.47 521 1029.62 518.579 1025.31 514.268L1005.73 494.691C1001.42 490.379 999 484.532 999 478.436C999 472.339 1001.42 466.492 1005.73 462.181L1040.18 427.732Z" fill="url(#paint10_radial_102_296)"/>
</g>
<g filter="url(#filter2_f_102_296)">
<path d="M1083.11 456.786L1063.21 436.89C1059.01 432.681 1052.18 432.681 1047.97 436.89L1014.89 469.976C1010.68 474.185 1010.68 481.008 1014.89 485.217L1034.78 505.113C1038.99 509.322 1045.82 509.322 1050.02 505.113L1083.11 472.026C1087.32 467.818 1087.32 460.994 1083.11 456.786Z" fill="url(#paint11_linear_102_296)"/>
<path d="M1083.11 456.786L1063.21 436.89C1059.01 432.681 1052.18 432.681 1047.97 436.89L1014.89 469.976C1010.68 474.185 1010.68 481.008 1014.89 485.217L1034.78 505.113C1038.99 509.322 1045.82 509.322 1050.02 505.113L1083.11 472.026C1087.32 467.818 1087.32 460.994 1083.11 456.786Z" fill="url(#paint12_linear_102_296)"/>
<path d="M1083.43 456.468L1063.53 436.571C1059.15 432.187 1052.04 432.187 1047.66 436.571L1014.57 469.658C1010.19 474.042 1010.19 481.15 1014.57 485.534L1034.47 505.43C1038.85 509.814 1045.96 509.814 1050.34 505.43L1083.43 472.343C1087.81 467.959 1087.81 460.852 1083.43 456.468Z" stroke="url(#paint13_linear_102_296)" stroke-width="0.25"/>
</g>
<g filter="url(#filter3_i_102_296)">
<path d="M1010.69 473.666C1017.08 473.666 1022.26 468.489 1022.26 462.102C1022.26 455.716 1017.08 450.539 1010.69 450.539C1004.31 450.539 999.131 455.716 999.131 462.102C999.131 468.489 1004.31 473.666 1010.69 473.666Z" fill="url(#paint14_radial_102_296)"/>
<path d="M1010.69 473.666C1017.08 473.666 1022.26 468.489 1022.26 462.102C1022.26 455.716 1017.08 450.539 1010.69 450.539C1004.31 450.539 999.131 455.716 999.131 462.102C999.131 468.489 1004.31 473.666 1010.69 473.666Z" fill="url(#paint15_radial_102_296)"/>
<path d="M1010.69 473.666C1017.08 473.666 1022.26 468.489 1022.26 462.102C1022.26 455.716 1017.08 450.539 1010.69 450.539C1004.31 450.539 999.131 455.716 999.131 462.102C999.131 468.489 1004.31 473.666 1010.69 473.666Z" fill="url(#paint16_radial_102_296)"/>
</g>
<g filter="url(#filter4_f_102_296)">
<path d="M1046.8 507.336L1052.01 434.342C1053.93 433.668 1056 433.549 1057.98 434C1059.96 434.452 1061.78 435.454 1063.21 436.892L1083.11 456.786C1085.13 458.807 1086.27 461.548 1086.27 464.405C1086.27 467.263 1085.13 470.003 1083.11 472.024L1050.03 505.108C1049.1 506.043 1048 506.797 1046.8 507.336Z" fill="url(#paint17_linear_102_296)"/>
<path d="M1046.8 507.336L1052.01 434.342C1053.93 433.668 1056 433.549 1057.98 434C1059.96 434.452 1061.78 435.454 1063.21 436.892L1083.11 456.786C1085.13 458.807 1086.27 461.548 1086.27 464.405C1086.27 467.263 1085.13 470.003 1083.11 472.024L1050.03 505.108C1049.1 506.043 1048 506.797 1046.8 507.336Z" fill="url(#paint18_radial_102_296)"/>
</g>
<path d="M1069.29 518.231C1074.71 518.231 1079.11 513.834 1079.11 508.409C1079.11 502.985 1074.71 498.588 1069.29 498.588C1063.86 498.588 1059.47 502.985 1059.47 508.409C1059.47 513.834 1063.86 518.231 1069.29 518.231Z" fill="url(#paint19_radial_102_296)"/>
<path d="M1069.29 518.231C1074.71 518.231 1079.11 513.834 1079.11 508.409C1079.11 502.985 1074.71 498.588 1069.29 498.588C1063.86 498.588 1059.47 502.985 1059.47 508.409C1059.47 513.834 1063.86 518.231 1069.29 518.231Z" fill="url(#paint20_radial_102_296)"/>
<g filter="url(#filter5_i_102_296)">
<path d="M1082.17 510.403C1091.45 510.403 1098.98 502.876 1098.98 493.592C1098.98 484.307 1091.45 476.78 1082.17 476.78C1072.88 476.78 1065.36 484.307 1065.36 493.592C1065.36 502.876 1072.88 510.403 1082.17 510.403Z" fill="url(#paint21_radial_102_296)"/>
<path d="M1082.17 510.403C1091.45 510.403 1098.98 502.876 1098.98 493.592C1098.98 484.307 1091.45 476.78 1082.17 476.78C1072.88 476.78 1065.36 484.307 1065.36 493.592C1065.36 502.876 1072.88 510.403 1082.17 510.403Z" fill="url(#paint22_radial_102_296)"/>
<path d="M1082.17 510.403C1091.45 510.403 1098.98 502.876 1098.98 493.592C1098.98 484.307 1091.45 476.78 1082.17 476.78C1072.88 476.78 1065.36 484.307 1065.36 493.592C1065.36 502.876 1072.88 510.403 1082.17 510.403Z" fill="url(#paint23_radial_102_296)"/>
</g>
<path d="M1082.17 510.403C1091.45 510.403 1098.98 502.876 1098.98 493.592C1098.98 484.307 1091.45 476.78 1082.17 476.78C1072.88 476.78 1065.36 484.307 1065.36 493.592C1065.36 502.876 1072.88 510.403 1082.17 510.403Z" fill="url(#paint24_radial_102_296)"/>
<path d="M831.772 633.59L835.366 635.665L875.404 566.32L871.81 564.245L831.772 633.59Z" fill="#E535AB"/>
<path d="M911.024 628.05H830.949V632.2H911.024V628.05Z" fill="#E535AB"/>
<path d="M832.534 630.382L872.587 653.507L874.662 649.913L834.609 626.788L832.534 630.382Z" fill="#E535AB"/>
<path d="M867.328 570.112L907.381 593.237L909.456 589.643L869.403 566.518L867.328 570.112Z" fill="#E535AB"/>
<path d="M832.545 589.627L834.62 593.221L874.673 570.096L872.598 566.502L832.545 589.627Z" fill="#E535AB"/>
<path d="M866.604 566.321L906.642 635.666L910.235 633.591L870.198 564.246L866.604 566.321Z" fill="#E535AB"/>
<path d="M838.275 586.875H834.125V633.125H838.275V586.875Z" fill="#E535AB"/>
<path d="M907.875 586.875H903.725V633.125H907.875V586.875Z" fill="#E535AB"/>
<path d="M870.067 648.611L871.88 651.75L906.715 631.637L904.902 628.498L870.067 648.611Z" fill="#E535AB"/>
<path d="M913.375 634.475C910.975 638.65 905.625 640.075 901.45 637.675C897.275 635.275 895.85 629.925 898.25 625.75C900.65 621.575 906 620.15 910.175 622.55C914.375 624.975 915.8 630.3 913.375 634.475Z" fill="#E535AB"/>
<path d="M843.725 594.25C841.325 598.425 835.975 599.85 831.8 597.45C827.625 595.05 826.2 589.7 828.6 585.525C831 581.35 836.35 579.925 840.525 582.325C844.7 584.75 846.125 590.075 843.725 594.25Z" fill="#E535AB"/>
<path d="M828.625 634.475C826.225 630.3 827.65 624.975 831.825 622.55C836 620.15 841.325 621.575 843.75 625.75C846.15 629.925 844.725 635.25 840.55 637.675C836.35 640.075 831.025 638.65 828.625 634.475Z" fill="#E535AB"/>
<path d="M898.274 594.25C895.874 590.075 897.299 584.75 901.474 582.325C905.649 579.925 910.974 581.35 913.399 585.525C915.799 589.7 914.374 595.025 910.199 597.45C906.024 599.85 900.674 598.425 898.274 594.25Z" fill="#E535AB"/>
<path d="M870.999 658.95C866.174 658.95 862.274 655.05 862.274 650.225C862.274 645.4 866.174 641.5 870.999 641.5C875.824 641.5 879.724 645.4 879.724 650.225C879.724 655.025 875.824 658.95 870.999 658.95Z" fill="#E535AB"/>
<path d="M870.999 578.5C866.174 578.5 862.274 574.6 862.274 569.775C862.274 564.95 866.174 561.05 870.999 561.05C875.824 561.05 879.724 564.95 879.724 569.775C879.724 574.6 875.824 578.5 870.999 578.5Z" fill="#E535AB"/>
<path d="M821 484.193V457H827.818V466.064H836.909V457H843.727V484.193H836.909V472.863H827.818V484.193H821ZM855.091 484.193V463.798H848.273V457H868.727V463.798H861.909V484.193H855.091ZM880.091 484.193V463.798H873.273V457H893.727V463.798H886.909V484.193H880.091ZM898.273 484.193V457H914.182C916 457 917.591 457.68 918.955 459.039C920.318 460.399 921 461.985 921 463.798V468.33C921 470.143 920.318 471.73 918.955 473.089C917.591 474.449 916 475.129 914.182 475.129H905.091V484.193H898.273ZM905.091 468.33H914.182V463.798H905.091V468.33Z" fill="black"/>
<g clip-path="url(#clip0_102_296)">
<path d="M1014.38 640.159H1021.59V643.815H1014.38V652.113C1014.36 652.709 1014.45 653.302 1014.62 653.872C1014.75 654.294 1014.99 654.677 1015.31 654.987C1015.61 655.274 1015.98 655.483 1016.39 655.593C1016.79 655.702 1017.21 655.761 1017.63 655.769L1017.81 655.77C1018.19 655.77 1018.58 655.77 1018.98 655.717L1019.22 655.687L1019.68 655.635C1019.83 655.617 1019.98 655.598 1020.13 655.573L1020.34 655.539L1020.75 655.478C1020.88 655.459 1021.01 655.438 1021.14 655.413L1021.44 655.353L1021.58 655.323L1021.84 655.266L1021.96 655.237L1022.44 658.644C1022.05 658.863 1021.64 659.039 1021.21 659.168C1020.72 659.322 1020.23 659.444 1019.73 659.533C1019.2 659.631 1018.66 659.706 1018.09 659.759C1017.53 659.811 1016.97 659.837 1016.42 659.837C1015.44 659.851 1014.47 659.712 1013.54 659.427C1012.72 659.169 1011.96 658.719 1011.34 658.115C1010.7 657.488 1010.21 656.718 1009.93 655.868C1009.57 654.812 1009.4 653.703 1009.42 652.589V643.815H1005V640.159H1009.41V635.432H1014.38V640.159H1014.38ZM1032.06 649.756V659.464H1027.04V633.485H1035.78C1037.1 633.468 1038.42 633.639 1039.69 633.993C1040.78 634.293 1041.79 634.799 1042.69 635.485C1043.51 636.14 1044.16 636.984 1044.59 637.945C1045.06 639.013 1045.29 640.17 1045.26 641.335C1045.27 642.182 1045.16 643.025 1044.93 643.84C1044.53 645.256 1043.68 646.502 1042.5 647.382C1041.9 647.836 1041.25 648.22 1040.56 648.526L1046.15 659.246V659.48H1040.76L1035.86 649.756H1032.06ZM1032.06 645.681H1035.78C1036.48 645.695 1037.17 645.584 1037.83 645.353C1038.38 645.158 1038.88 644.829 1039.27 644.398C1039.58 644.055 1039.81 643.655 1039.96 643.221C1040.11 642.776 1040.19 642.311 1040.2 641.843L1040.2 641.667C1040.21 641.044 1040.11 640.423 1039.89 639.839C1039.69 639.33 1039.37 638.879 1038.95 638.527C1038.55 638.203 1038.09 637.961 1037.6 637.814C1037.07 637.659 1036.52 637.576 1035.96 637.565L1032.06 637.564V645.681ZM1054.33 659.464H1049.32V633.485H1058.21C1059.52 633.466 1060.82 633.674 1062.05 634.1C1063.13 634.472 1064.13 635.051 1064.98 635.805C1065.78 636.544 1066.41 637.444 1066.83 638.445C1067.25 639.457 1067.47 640.539 1067.48 641.633V641.852C1067.49 642.962 1067.27 644.063 1066.83 645.082C1066.41 646.055 1065.78 646.925 1064.98 647.632C1064.12 648.387 1063.12 648.963 1062.04 649.33C1060.81 649.75 1059.51 649.955 1058.2 649.936H1054.33L1054.33 659.464ZM1054.33 645.87H1058.2C1058.84 645.882 1059.47 645.772 1060.06 645.546C1060.56 645.351 1061.01 645.053 1061.38 644.672C1061.73 644.305 1061.99 643.871 1062.16 643.397C1062.33 642.913 1062.42 642.403 1062.42 641.889C1062.43 641.314 1062.34 640.742 1062.16 640.196C1062 639.689 1061.73 639.22 1061.38 638.818C1061.02 638.418 1060.57 638.103 1060.06 637.892C1059.47 637.653 1058.84 637.538 1058.2 637.551H1054.33V645.87ZM1088.15 654.86C1087.69 655.873 1087.03 656.783 1086.21 657.537C1085.37 658.291 1084.39 658.871 1083.32 659.242C1082.2 659.624 1081.03 659.825 1079.85 659.837L1079.6 659.837C1078.6 659.849 1077.59 659.711 1076.63 659.427C1075.75 659.164 1074.92 658.756 1074.17 658.221C1073.49 657.724 1072.89 657.129 1072.39 656.454C1071.86 655.748 1071.42 654.982 1071.08 654.171C1070.72 653.286 1070.45 652.365 1070.29 651.424C1070.1 650.376 1070 649.313 1070.01 648.247V644.75C1070 643.749 1070.09 642.749 1070.26 641.762C1070.4 640.961 1070.61 640.175 1070.9 639.414L1071.01 639.13C1071.37 638.178 1071.88 637.288 1072.51 636.49C1073.11 635.735 1073.82 635.074 1074.61 634.53C1075.33 634.069 1076.11 633.717 1076.93 633.485C1077.73 633.257 1078.55 633.135 1079.38 633.121L1079.63 633.12C1080.93 633.097 1082.22 633.303 1083.45 633.726C1084.51 634.09 1085.48 634.679 1086.29 635.451C1087.1 636.224 1087.74 637.163 1088.15 638.203C1088.62 639.371 1088.91 640.604 1089.01 641.86H1084.01C1083.98 641.165 1083.87 640.476 1083.67 639.81C1083.51 639.273 1083.24 638.774 1082.87 638.347C1082.5 637.958 1082.05 637.662 1081.54 637.482C1080.93 637.272 1080.28 637.172 1079.64 637.187C1079.27 637.185 1078.9 637.228 1078.54 637.314C1078.21 637.393 1077.9 637.519 1077.6 637.687C1077.1 637.993 1076.68 638.415 1076.37 638.917C1076.01 639.491 1075.74 640.114 1075.55 640.766C1075.39 641.359 1075.28 641.965 1075.21 642.577C1075.14 643.285 1075.1 643.997 1075.11 644.709V648.239C1075.1 649.167 1075.16 650.094 1075.28 651.014C1075.37 651.743 1075.54 652.458 1075.8 653.146C1075.96 653.538 1076.16 653.91 1076.4 654.253C1076.62 654.568 1076.89 654.845 1077.2 655.073C1077.52 655.312 1077.89 655.49 1078.28 655.597C1078.71 655.717 1079.16 655.775 1079.6 655.77C1080.2 655.777 1080.8 655.693 1081.37 655.52C1081.88 655.365 1082.34 655.096 1082.72 654.733C1083.11 654.346 1083.4 653.876 1083.59 653.359C1083.83 652.711 1083.97 652.032 1084 651.343H1089.02C1088.95 652.558 1088.65 653.75 1088.15 654.86H1088.15ZM1066.17 590.296L1078.8 597.581V612.159L1066.17 619.444L1060.56 616.204L1046.93 624.068L1033.37 616.249L1027.85 619.444L1015.22 612.147V597.58L1027.85 590.295L1040.48 597.581V612.146L1036.66 614.354L1046.93 620.28L1057.28 614.309L1053.54 612.146V597.58L1066.17 590.295V590.296ZM1056.82 601.377V610.269L1064.53 614.713V605.821L1056.82 601.377ZM1075.52 601.365L1067.81 605.809V614.713L1075.52 610.257V601.365ZM1018.5 601.365V610.257L1026.2 614.701V605.809L1018.5 601.365ZM1037.19 601.365L1029.49 605.809V614.7L1037.19 610.256V601.365L1037.19 601.365ZM1066.17 594.092L1058.46 598.536L1066.17 602.984L1073.88 598.536L1066.17 594.092ZM1027.85 594.08L1020.14 598.536L1027.85 602.972L1035.55 598.536L1027.85 594.08ZM1034.13 571.483V575.267L1022.44 582.011V593.412L1019.16 595.306V580.116L1034.13 571.483L1034.13 571.483ZM1046.76 560L1059.4 567.285V571.291L1074.7 580.116V595.211L1071.41 593.317V582.01L1059.4 575.079V581.855L1046.77 589.14L1034.14 581.855V567.285L1046.76 560ZM1037.42 571.069V579.961L1045.12 584.405V575.517L1037.42 571.069H1037.42ZM1056.11 571.069L1048.41 575.517V584.401L1056.11 579.961V571.069H1056.11ZM1046.76 563.788L1039.06 568.232L1046.76 572.676L1054.47 568.232L1046.76 563.788H1046.76Z" fill="#398CCB"/>
</g>
<defs>
<filter id="filter0_i_102_296" x="1001.96" y="430.739" width="8.4623" height="8.46255" filterUnits="userSpaceOnUse" color-interpolation-filters="sRGB">
<feFlood flood-opacity="0" result="BackgroundImageFix"/>
<feBlend mode="normal" in="SourceGraphic" in2="BackgroundImageFix" result="shape"/>
<feColorMatrix in="SourceAlpha" type="matrix" values="0 0 0 0 0 0 0 0 0 0 0 0 0 0 0 0 0 0 127 0" result="hardAlpha"/>
<feOffset dx="0.1" dy="-0.1"/>
<feGaussianBlur stdDeviation="0.4"/>
<feComposite in2="hardAlpha" operator="arithmetic" k2="-1" k3="1"/>
<feColorMatrix type="matrix" values="0 0 0 0 0.85098 0 0 0 0 0.737255 0 0 0 0 0.92549 0 0 0 1 0"/>
<feBlend mode="normal" in2="shape" result="effect1_innerShadow_102_296"/>
</filter>
<filter id="filter1_i_102_296" x="999" y="421" width="100.3" height="100" filterUnits="userSpaceOnUse" color-interpolation-filters="sRGB">
<feFlood flood-opacity="0" result="BackgroundImageFix"/>
<feBlend mode="normal" in="SourceGraphic" in2="BackgroundImageFix" result="shape"/>
<feColorMatrix in="SourceAlpha" type="matrix" values="0 0 0 0 0 0 0 0 0 0 0 0 0 0 0 0 0 0 127 0" result="hardAlpha"/>
<feOffset dx="0.3"/>
<feGaussianBlur stdDeviation="0.5"/>
<feComposite in2="hardAlpha" operator="arithmetic" k2="-1" k3="1"/>
<feColorMatrix type="matrix" values="0 0 0 0 0.94902 0 0 0 0 0.564706 0 0 0 0 0.811765 0 0 0 1 0"/>
<feBlend mode="normal" in2="shape" result="effect1_innerShadow_102_296"/>
</filter>
<filter id="filter2_f_102_296" x="1010.41" y="432.408" width="77.1846" height="77.1846" filterUnits="userSpaceOnUse" color-interpolation-filters="sRGB">
<feFlood flood-opacity="0" result="BackgroundImageFix"/>
<feBlend mode="normal" in="SourceGraphic" in2="BackgroundImageFix" result="shape"/>
<feGaussianBlur stdDeviation="0.375" result="effect1_foregroundBlur_102_296"/>
</filter>
<filter id="filter3_i_102_296" x="999.131" y="450.439" width="23.227" height="23.2267" filterUnits="userSpaceOnUse" color-interpolation-filters="sRGB">
<feFlood flood-opacity="0" result="BackgroundImageFix"/>
<feBlend mode="normal" in="SourceGraphic" in2="BackgroundImageFix" result="shape"/>
<feColorMatrix in="SourceAlpha" type="matrix" values="0 0 0 0 0 0 0 0 0 0 0 0 0 0 0 0 0 0 127 0" result="hardAlpha"/>
<feOffset dx="0.1" dy="-0.1"/>
<feGaussianBlur stdDeviation="0.4"/>
<feComposite in2="hardAlpha" operator="arithmetic" k2="-1" k3="1"/>
<feColorMatrix type="matrix" values="0 0 0 0 0.909804 0 0 0 0 0.843137 0 0 0 0 0.980392 0 0 0 1 0"/>
<feBlend mode="normal" in2="shape" result="effect1_innerShadow_102_296"/>
</filter>
<filter id="filter4_f_102_296" x="1046.05" y="432.981" width="40.9688" height="75.104" filterUnits="userSpaceOnUse" color-interpolation-filters="sRGB">
<feFlood flood-opacity="0" result="BackgroundImageFix"/>
<feBlend mode="normal" in="SourceGraphic" in2="BackgroundImageFix" result="shape"/>
<feGaussianBlur stdDeviation="0.375" result="effect1_foregroundBlur_102_296"/>
</filter>
<filter id="filter5_i_102_296" x="1065.36" y="476.68" width="34.023" height="33.723" filterUnits="userSpaceOnUse" color-interpolation-filters="sRGB">
<feFlood flood-opacity="0" result="BackgroundImageFix"/>
<feBlend mode="normal" in="SourceGraphic" in2="BackgroundImageFix" result="shape"/>
<feColorMatrix in="SourceAlpha" type="matrix" values="0 0 0 0 0 0 0 0 0 0 0 0 0 0 0 0 0 0 127 0" result="hardAlpha"/>
<feOffset dx="0.4" dy="-0.1"/>
<feGaussianBlur stdDeviation="0.5"/>
<feComposite in2="hardAlpha" operator="arithmetic" k2="-1" k3="1"/>
<feColorMatrix type="matrix" values="0 0 0 0 0.792157 0 0 0 0 0.54902 0 0 0 0 0.894118 0 0 0 1 0"/>
<feBlend mode="normal" in2="shape" result="effect1_innerShadow_102_296"/>
</filter>
<radialGradient id="paint0_radial_102_296" cx="0" cy="0" r="1" gradientUnits="userSpaceOnUse" gradientTransform="translate(1010.69 448.859) rotate(-8.079) scale(15.1292)">
<stop stop-color="#CEC4D1"/>
<stop offset="1" stop-color="#C8C1C9"/>
</radialGradient>
<radialGradient id="paint1_radial_102_296" cx="0" cy="0" r="1" gradientUnits="userSpaceOnUse" gradientTransform="translate(1021.97 448.858) rotate(180) scale(11.2794)">
<stop offset="0.529" stop-color="#CEC5D1" stop-opacity="0"/>
<stop offset="1" stop-color="#E4DFE8"/>
</radialGradient>
<radialGradient id="paint2_radial_102_296" cx="0" cy="0" r="1" gradientUnits="userSpaceOnUse" gradientTransform="translate(1008.72 434.003) rotate(168.14) scale(6.89929 6.5294)">
<stop offset="0.135" stop-color="#FFEDFF"/>
<stop offset="0.911" stop-color="#DBCBEA"/>
</radialGradient>
<radialGradient id="paint3_radial_102_296" cx="0" cy="0" r="1" gradientUnits="userSpaceOnUse" gradientTransform="translate(1006.99 437.443) rotate(-100.366) scale(6.71638 6.71638)">
<stop offset="0.818" stop-color="#DAD4E0" stop-opacity="0"/>
<stop offset="1" stop-color="#DAD4E0"/>
</radialGradient>
<linearGradient id="paint4_linear_102_296" x1="1088.04" y1="441.113" x2="1018.21" y2="505.324" gradientUnits="userSpaceOnUse">
<stop stop-color="#FFABBD"/>
<stop offset="1" stop-color="#F756E5"/>
</linearGradient>
<radialGradient id="paint5_radial_102_296" cx="0" cy="0" r="1" gradientUnits="userSpaceOnUse" gradientTransform="translate(1075.19 476.741) rotate(-111.029) scale(66.7959 91.9072)">
<stop offset="0.713" stop-color="#E082A1" stop-opacity="0"/>
<stop offset="0.965" stop-color="#E1959A"/>
</radialGradient>
<radialGradient id="paint6_radial_102_296" cx="0" cy="0" r="1" gradientUnits="userSpaceOnUse" gradientTransform="translate(1014.4 459.297) rotate(-46.1412) scale(39.8551 28.2259)">
<stop stop-color="#E775AB"/>
<stop offset="1" stop-color="#E775AB" stop-opacity="0"/>
</radialGradient>
<radialGradient id="paint7_radial_102_296" cx="0" cy="0" r="1" gradientUnits="userSpaceOnUse" gradientTransform="translate(1007.44 472.318) rotate(119.055) scale(9.24603 6.90234)">
<stop stop-color="#E551C0"/>
<stop offset="1" stop-color="#E551C0" stop-opacity="0"/>
</radialGradient>
<radialGradient id="paint8_radial_102_296" cx="0" cy="0" r="1" gradientUnits="userSpaceOnUse" gradientTransform="translate(1069.4 500.384) rotate(158.405) scale(23.1803 24.6445)">
<stop offset="0.187" stop-color="#D24BB4"/>
<stop offset="1" stop-color="#D24BB4" stop-opacity="0"/>
</radialGradient>
<radialGradient id="paint9_radial_102_296" cx="0" cy="0" r="1" gradientUnits="userSpaceOnUse" gradientTransform="translate(1092.08 484.442) rotate(-103.241) scale(19.6048 18.1374)">
<stop offset="0.329" stop-color="#E588A9"/>
<stop offset="1" stop-color="#E588A9" stop-opacity="0"/>
</radialGradient>
<radialGradient id="paint10_radial_102_296" cx="0" cy="0" r="1" gradientUnits="userSpaceOnUse" gradientTransform="translate(1082.2 453.686) rotate(-4.58391) scale(16.8555 22.9847)">
<stop stop-color="#FFA7C0"/>
<stop offset="1" stop-color="#FFA7C0" stop-opacity="0"/>
</radialGradient>
<linearGradient id="paint11_linear_102_296" x1="1073.16" y1="446.836" x2="1025.96" y2="494.039" gradientUnits="userSpaceOnUse">
<stop stop-color="#EE7BBE"/>
<stop offset="1" stop-color="#FF7BE6"/>
</linearGradient>
<linearGradient id="paint12_linear_102_296" x1="1026.24" y1="497.912" x2="1037.02" y2="486.914" gradientUnits="userSpaceOnUse">
<stop offset="0.178" stop-color="#FF83E6"/>
<stop offset="1" stop-color="#FF83E6" stop-opacity="0"/>
</linearGradient>
<linearGradient id="paint13_linear_102_296" x1="1027.97" y1="446.666" x2="1038.47" y2="458.121" gradientUnits="userSpaceOnUse">
<stop offset="0.493" stop-color="#F89BB9"/>
<stop offset="1" stop-color="#F89BB9" stop-opacity="0"/>
</linearGradient>
<radialGradient id="paint14_radial_102_296" cx="0" cy="0" r="1" gradientUnits="userSpaceOnUse" gradientTransform="translate(1014.81 460.934) rotate(171.772) scale(15.8444 14.9949)">
<stop offset="0.135" stop-color="#FFEDFF"/>
<stop offset="1" stop-color="#ECAEFF"/>
</radialGradient>
<radialGradient id="paint15_radial_102_296" cx="0" cy="0" r="1" gradientUnits="userSpaceOnUse" gradientTransform="translate(999.131 469.527) rotate(-25.398) scale(12.7995 18.384)">
<stop offset="0.182" stop-color="#DBB6FF"/>
<stop offset="1" stop-color="#DBB6FF" stop-opacity="0"/>
</radialGradient>
<radialGradient id="paint16_radial_102_296" cx="0" cy="0" r="1" gradientUnits="userSpaceOnUse" gradientTransform="translate(1013.02 468.809) rotate(-100.366) scale(18.5714)">
<stop offset="0.818" stop-color="#DAD4E0" stop-opacity="0"/>
<stop offset="1" stop-color="#DAD4E0"/>
</radialGradient>
<linearGradient id="paint17_linear_102_296" x1="1046.8" y1="498.589" x2="1079.22" y2="468.727" gradientUnits="userSpaceOnUse">
<stop stop-color="#F068CB"/>
<stop offset="1" stop-color="#F068CB" stop-opacity="0"/>
</linearGradient>
<radialGradient id="paint18_radial_102_296" cx="0" cy="0" r="1" gradientUnits="userSpaceOnUse" gradientTransform="translate(1070.76 486.986) rotate(131.285) scale(13.9317 10.616)">
<stop offset="0.07" stop-color="#D35F9E"/>
<stop offset="1" stop-color="#D35F9E" stop-opacity="0"/>
</radialGradient>
<radialGradient id="paint19_radial_102_296" cx="0" cy="0" r="1" gradientUnits="userSpaceOnUse" gradientTransform="translate(1068.21 513.797) rotate(-99.462) scale(12.4253)">
<stop stop-color="#EDA5FF"/>
<stop offset="1" stop-color="#C28CDD"/>
</radialGradient>
<radialGradient id="paint20_radial_102_296" cx="0" cy="0" r="1" gradientUnits="userSpaceOnUse" gradientTransform="translate(1076.76 504.602) rotate(129.237) scale(9.88999 13.6201)">
<stop offset="0.381" stop-color="#D89AFF"/>
<stop offset="1" stop-color="#D89AFF" stop-opacity="0"/>
</radialGradient>
<radialGradient id="paint21_radial_102_296" cx="0" cy="0" r="1" gradientUnits="userSpaceOnUse" gradientTransform="translate(1093.49 489.026) rotate(167.646) scale(28.7939 27.2501)">
<stop offset="0.218" stop-color="#FFEDFF"/>
<stop offset="1" stop-color="#ECAEFF"/>
</radialGradient>
<radialGradient id="paint22_radial_102_296" cx="0" cy="0" r="1" gradientUnits="userSpaceOnUse" gradientTransform="translate(1065.36 504.382) rotate(-29.477) scale(16.5094 23.7126)">
<stop offset="0.182" stop-color="#DBB6FF"/>
<stop offset="1" stop-color="#DBB6FF" stop-opacity="0"/>
</radialGradient>
<radialGradient id="paint23_radial_102_296" cx="0" cy="0" r="1" gradientUnits="userSpaceOnUse" gradientTransform="translate(1085.56 503.341) rotate(-100.366) scale(27.0007 27.0007)">
<stop offset="0.818" stop-color="#DAD4E0" stop-opacity="0"/>
<stop offset="1" stop-color="#DAD4E0"/>
</radialGradient>
<radialGradient id="paint24_radial_102_296" cx="0" cy="0" r="1" gradientUnits="userSpaceOnUse" gradientTransform="translate(1086.34 482.517) rotate(98.499) scale(28.1971 34.6002)">
<stop offset="0.681" stop-color="#F3B7FF" stop-opacity="0"/>
<stop offset="1" stop-color="#E697FF"/>
</radialGradient>
<clipPath id="clip0_102_296">
<rect width="84.0206" height="100" fill="white" transform="translate(1005 560)"/>
</clipPath>
</defs>
</svg>
