<svg width="1920" height="1080" viewBox="0 0 1920 1080" fill="none" xmlns="http://www.w3.org/2000/svg">
<rect width="1920" height="1080" fill="white"/>
<path d="M869.621 519.135L830 608.116L875.756 628.496L894.998 585.271C906.26 559.979 894.891 530.376 869.621 519.135Z" fill="black"/>
<path d="M844.216 453C832.975 478.27 844.344 507.873 869.614 519.135L889.993 473.379L844.216 453Z" fill="black"/>
<path d="M1003.52 503.626C1027.29 503.626 1046.63 522.975 1046.63 546.743C1046.63 570.511 1027.29 589.861 1003.52 589.861C979.748 589.861 960.399 570.511 960.399 546.743C960.399 522.975 979.748 503.626 1003.52 503.626ZM1003.52 460.486C955.873 460.486 917.26 499.099 917.26 546.743C917.26 594.387 955.873 633 1003.52 633C1051.16 633 1089.77 594.387 1089.77 546.743C1089.77 499.121 1051.16 460.486 1003.52 460.486Z" fill="black"/>
</svg>
