<svg width="1920" height="1080" viewBox="0 0 1920 1080" fill="none" xmlns="http://www.w3.org/2000/svg">
<rect width="1920" height="1080" fill="white"/>
<line x1="479" y1="535" x2="1441" y2="535" stroke="black" stroke-width="10"/>
<line x1="528.309" y1="418.175" x2="1394.31" y2="653.174" stroke="black" stroke-width="10"/>
<line x1="569.346" y1="323.584" x2="1354.35" y2="740.584" stroke="black" stroke-width="10"/>
<line x1="615.262" y1="204.527" x2="1311.64" y2="868.233" stroke="black" stroke-width="10"/>
<line x1="737.277" y1="158.41" x2="1190.28" y2="906.41" stroke="black" stroke-width="10"/>
<line x1="846.811" y1="119.638" x2="1081.81" y2="949.638" stroke="black" stroke-width="10"/>
<line x1="964" y1="73" x2="964" y2="1000" stroke="black" stroke-width="10"/>
<line x1="1081.81" y1="122.362" x2="846.811" y2="952.362" stroke="black" stroke-width="10"/>
<line x1="1190.32" y1="149.509" x2="738.325" y2="928.509" stroke="black" stroke-width="10"/>
<path d="M1304 193.5L616.5 877.5" stroke="black" stroke-width="10"/>
<path d="M1352.5 315L566.5 761.5" stroke="black" stroke-width="10"/>
<line x1="1394.31" y1="426.825" x2="528.309" y2="661.826" stroke="black" stroke-width="10"/>
<circle cx="1303.66" cy="195.523" r="26.6396" transform="rotate(45 1303.66 195.523)" fill="#ED7F53" stroke="white" stroke-width="20"/>
<circle cx="1352.4" cy="313.183" r="26.6396" transform="rotate(90 1352.4 313.183)" fill="#ED7F53" stroke="white" stroke-width="20"/>
<circle cx="1352.4" cy="313.183" r="26.6396" transform="rotate(90 1352.4 313.183)" fill="#ED7F53" stroke="white" stroke-width="20"/>
<circle cx="1186" cy="146.787" r="26.6396" transform="rotate(-180 1186 146.787)" fill="#ED7F53" stroke="white" stroke-width="20"/>
<circle cx="1186" cy="146.787" r="26.6396" transform="rotate(-180 1186 146.787)" fill="#ED7F53" stroke="white" stroke-width="20"/>
<circle cx="1303.69" cy="862.597" r="26.6396" transform="rotate(135 1303.69 862.597)" fill="#ED7F53" stroke="white" stroke-width="20"/>
<circle cx="1186.03" cy="911.334" r="26.6396" transform="rotate(-180 1186.03 911.334)" fill="#ED7F53" stroke="white" stroke-width="20"/>
<circle cx="1186.03" cy="911.334" r="26.6396" transform="rotate(-180 1186.03 911.334)" fill="#ED7F53" stroke="white" stroke-width="20"/>
<circle cx="1352.42" cy="744.938" r="26.6396" transform="rotate(-90 1352.42 744.938)" fill="#ED7F53" stroke="white" stroke-width="20"/>
<circle cx="1352.42" cy="744.938" r="26.6396" transform="rotate(-90 1352.42 744.938)" fill="#ED7F53" stroke="white" stroke-width="20"/>
<circle cx="1441.27" cy="539.431" r="26.6396" transform="rotate(90 1441.27 539.431)" fill="#ED7F53" stroke="white" stroke-width="20"/>
<circle cx="1392.53" cy="657.09" r="26.6396" transform="rotate(135 1392.53 657.09)" fill="#ED7F53" stroke="white" stroke-width="20"/>
<circle cx="1392.53" cy="657.09" r="26.6396" transform="rotate(135 1392.53 657.09)" fill="#ED7F53" stroke="white" stroke-width="20"/>
<circle cx="1392.53" cy="421.771" r="26.6396" transform="rotate(-135 1392.53 421.771)" fill="#ED7F53" stroke="white" stroke-width="20"/>
<circle cx="1392.53" cy="421.771" r="26.6396" transform="rotate(-135 1392.53 421.771)" fill="#ED7F53" stroke="white" stroke-width="20"/>
<circle cx="959.777" cy="1000.08" r="26.6396" transform="rotate(-180 959.777 1000.08)" fill="#ED7F53" stroke="white" stroke-width="20"/>
<circle cx="842.118" cy="951.341" r="26.6396" transform="rotate(-135 842.118 951.341)" fill="#ED7F53" stroke="white" stroke-width="20"/>
<circle cx="842.118" cy="951.341" r="26.6396" transform="rotate(-135 842.118 951.341)" fill="#ED7F53" stroke="white" stroke-width="20"/>
<circle cx="1077.44" cy="951.341" r="26.6396" transform="rotate(-45 1077.44 951.341)" fill="#ED7F53" stroke="white" stroke-width="20"/>
<circle cx="1077.44" cy="951.341" r="26.6396" transform="rotate(-45 1077.44 951.341)" fill="#ED7F53" stroke="white" stroke-width="20"/>
<circle cx="616.057" cy="877.194" r="26.6396" transform="rotate(-135 616.057 877.194)" fill="#ED7F53" stroke="white" stroke-width="20"/>
<circle cx="567.32" cy="759.534" r="26.6396" transform="rotate(-90 567.32 759.534)" fill="#ED7F53" stroke="white" stroke-width="20"/>
<circle cx="567.32" cy="759.534" r="26.6396" transform="rotate(-90 567.32 759.534)" fill="#ED7F53" stroke="white" stroke-width="20"/>
<circle cx="733.716" cy="925.93" r="26.6396" fill="#ED7F53" stroke="white" stroke-width="20"/>
<circle cx="733.716" cy="925.93" r="26.6396" fill="#ED7F53" stroke="white" stroke-width="20"/>
<circle cx="616.03" cy="210.12" r="26.6396" transform="rotate(-45 616.03 210.12)" fill="#ED7F53" stroke="white" stroke-width="20"/>
<circle cx="733.689" cy="161.383" r="26.6396" fill="#ED7F53" stroke="white" stroke-width="20"/>
<circle cx="733.689" cy="161.383" r="26.6396" fill="#ED7F53" stroke="white" stroke-width="20"/>
<circle cx="567.294" cy="327.779" r="26.6396" transform="rotate(90 567.294 327.779)" fill="#ED7F53" stroke="white" stroke-width="20"/>
<circle cx="567.294" cy="327.779" r="26.6396" transform="rotate(90 567.294 327.779)" fill="#ED7F53" stroke="white" stroke-width="20"/>
<circle cx="478.577" cy="540.191" r="26.6396" transform="rotate(-90 478.577 540.191)" fill="#ED7F53" stroke="white" stroke-width="20"/>
<circle cx="527.314" cy="422.532" r="26.6396" transform="rotate(-45 527.314 422.532)" fill="#ED7F53" stroke="white" stroke-width="20"/>
<circle cx="527.314" cy="422.532" r="26.6396" transform="rotate(-45 527.314 422.532)" fill="#ED7F53" stroke="white" stroke-width="20"/>
<circle cx="527.313" cy="657.851" r="26.6396" transform="rotate(45 527.313 657.851)" fill="#ED7F53" stroke="white" stroke-width="20"/>
<circle cx="527.313" cy="657.851" r="26.6396" transform="rotate(45 527.313 657.851)" fill="#ED7F53" stroke="white" stroke-width="20"/>
<circle cx="959.938" cy="72.6396" r="26.6396" fill="#ED7F53" stroke="white" stroke-width="20"/>
<circle cx="1077.6" cy="121.376" r="26.6396" transform="rotate(45 1077.6 121.376)" fill="#ED7F53" stroke="white" stroke-width="20"/>
<circle cx="1077.6" cy="121.376" r="26.6396" transform="rotate(45 1077.6 121.376)" fill="#ED7F53" stroke="white" stroke-width="20"/>
<circle cx="842.279" cy="121.375" r="26.6396" transform="rotate(135 842.279 121.375)" fill="#ED7F53" stroke="white" stroke-width="20"/>
<circle cx="842.279" cy="121.375" r="26.6396" transform="rotate(135 842.279 121.375)" fill="#ED7F53" stroke="white" stroke-width="20"/>
<circle cx="960" cy="540" r="255" fill="white"/>
<path d="M869.621 516.135L830 605.116L875.756 625.495L894.998 582.271C906.26 556.979 894.891 527.376 869.621 516.135Z" fill="black"/>
<path d="M844.216 450C832.975 475.27 844.344 504.873 869.614 516.135L889.993 470.379L844.216 450Z" fill="black"/>
<path d="M1003.52 500.626C1027.29 500.626 1046.63 519.975 1046.63 543.743C1046.63 567.511 1027.29 586.861 1003.52 586.861C979.748 586.861 960.399 567.511 960.399 543.743C960.399 519.975 979.748 500.626 1003.52 500.626ZM1003.52 457.486C955.873 457.486 917.26 496.099 917.26 543.743C917.26 591.387 955.873 630 1003.52 630C1051.16 630 1089.77 591.387 1089.77 543.743C1089.77 496.121 1051.16 457.486 1003.52 457.486Z" fill="black"/>
<g clip-path="url(#clip0_102_467)">
<path d="M366.337 135.829C360.145 140.184 353.128 145.12 349.368 153.286C342.837 167.532 362.732 183.072 363.582 183.727C363.78 183.879 364.016 183.955 364.252 183.955C364.502 183.955 364.753 183.869 364.957 183.699C365.352 183.368 365.464 182.807 365.227 182.35C365.155 182.212 358.013 168.341 358.279 158.389C358.373 154.923 363.223 150.992 368.358 146.829C373.061 143.016 378.392 138.695 381.512 133.64C388.359 122.513 380.748 111.571 380.671 111.462C380.368 111.037 379.81 110.884 379.333 111.093C378.857 111.303 378.593 111.818 378.701 112.328C378.717 112.401 380.197 119.636 376.079 127.091C374.382 130.171 370.654 132.793 366.337 135.829Z" fill="#DB380E"/>
<path d="M392.423 140.736C392.86 140.407 392.989 139.807 392.724 139.328C392.46 138.849 391.884 138.638 391.373 138.832C390.321 139.232 365.615 148.755 365.615 160.262C365.615 168.194 369.003 172.384 371.478 175.444C372.448 176.644 373.286 177.68 373.562 178.565C374.339 181.115 372.498 185.724 371.723 187.285C371.5 187.734 371.609 188.277 371.989 188.605C372.194 188.782 372.451 188.872 372.707 188.872C372.925 188.872 373.145 188.807 373.334 188.676C373.759 188.38 383.716 181.341 381.93 172.859C381.265 169.635 379.681 167.28 378.283 165.201C376.117 161.981 374.553 159.654 376.926 155.358C379.706 150.347 392.296 140.831 392.423 140.736Z" fill="#DB380E"/>
<path d="M328.113 189.054C327.69 190.322 327.89 191.58 328.691 192.693C331.369 196.411 340.855 198.458 355.404 198.458C355.405 198.458 355.405 198.458 355.406 198.458C357.377 198.458 359.458 198.419 361.59 198.343C384.85 197.51 393.478 190.264 393.834 189.956C394.221 189.62 394.325 189.061 394.084 188.609C393.843 188.157 393.323 187.93 392.826 188.066C384.634 190.303 369.337 191.097 358.727 191.097C346.854 191.097 340.808 190.242 339.328 189.61C340.087 188.567 344.772 186.705 350.577 185.563C351.132 185.454 351.513 184.942 351.458 184.379C351.404 183.816 350.931 183.387 350.365 183.387C346.962 183.387 329.897 183.66 328.113 189.054Z" fill="#73A1FB"/>
<path d="M405.947 181.59C401.15 181.59 396.6 183.995 396.409 184.097C395.965 184.334 395.74 184.843 395.862 185.332C395.984 185.82 396.423 186.163 396.926 186.164C397.028 186.164 407.16 186.247 408.078 192.036C408.891 197.03 398.491 205.122 394.415 207.819C393.975 208.11 393.804 208.673 394.009 209.159C394.183 209.574 394.586 209.833 395.021 209.833C395.097 209.833 395.174 209.825 395.25 209.809C396.218 209.602 418.911 204.601 416.512 191.388C415.048 183.29 409.959 181.59 405.947 181.59Z" fill="#73A1FB"/>
<path d="M390.384 206.202C390.463 205.779 390.287 205.348 389.935 205.101L384.494 201.289C384.228 201.103 383.893 201.045 383.582 201.128C383.525 201.142 377.834 202.638 369.573 203.555C366.294 203.923 362.622 204.117 358.952 204.117C350.693 204.117 345.292 203.147 344.506 202.435C344.402 202.235 344.435 202.144 344.453 202.094C344.596 201.696 345.362 201.224 345.855 201.037C346.401 200.836 346.695 200.243 346.525 199.688C346.356 199.131 345.782 198.804 345.217 198.939C339.758 200.257 337.089 202.099 337.283 204.414C337.628 208.519 347.137 210.626 355.176 211.183C356.332 211.262 357.582 211.302 358.891 211.302C358.892 211.302 358.892 211.302 358.893 211.302C372.26 211.302 389.396 207.108 389.568 207.066C389.986 206.964 390.305 206.626 390.384 206.202Z" fill="#73A1FB"/>
<path d="M349.361 215.012C349.773 214.744 349.956 214.235 349.81 213.765C349.664 213.296 349.225 212.988 348.732 212.994C348 213.014 341.574 213.304 341.124 217.395C340.988 218.618 341.338 219.735 342.166 220.715C344.473 223.45 350.701 225.075 361.203 225.684C362.446 225.758 363.708 225.796 364.955 225.796C378.307 225.796 387.299 221.615 387.675 221.437C388.04 221.265 388.281 220.906 388.303 220.503C388.324 220.1 388.123 219.717 387.778 219.507L380.902 215.309C380.663 215.163 380.378 215.115 380.105 215.171C380.062 215.18 375.696 216.085 369.106 216.98C367.859 217.15 366.298 217.236 364.466 217.236C357.884 217.236 350.562 216.16 349.158 215.456C349.138 215.325 349.164 215.158 349.361 215.012Z" fill="#73A1FB"/>
<path d="M358.732 238.418C389.315 238.392 405.729 232.953 408.891 229.531C410.011 228.32 410.132 227.174 410.037 226.425C409.801 224.583 408.123 223.455 407.933 223.332C407.474 223.037 406.858 223.114 406.5 223.527C406.142 223.94 406.134 224.544 406.493 224.956C406.685 225.204 406.797 225.62 406.233 226.184C404.969 227.365 392.219 230.949 370.991 232.025C368.083 232.176 365.033 232.253 361.926 232.254C342.919 232.254 329.009 229.65 327.183 228.133C327.887 227.122 332.807 225.506 338.039 224.592C338.629 224.49 339.027 223.934 338.936 223.342C338.845 222.751 338.3 222.344 337.704 222.422C337.556 222.442 337.055 222.471 336.475 222.507C327.842 223.034 317.865 224.209 317.344 228.657C317.186 230.013 317.589 231.244 318.542 232.315C320.873 234.934 327.575 238.418 358.731 238.418C358.731 238.418 358.731 238.418 358.732 238.418Z" fill="#73A1FB"/>
<path d="M414.898 230.495C414.466 230.295 413.955 230.396 413.632 230.744C413.588 230.793 408.989 235.601 395.164 238.424C389.872 239.485 379.937 240.023 365.636 240.023C351.308 240.023 337.674 239.459 337.538 239.453C336.969 239.425 336.482 239.839 336.404 240.4C336.326 240.96 336.688 241.488 337.237 241.619C337.379 241.653 351.667 245 371.203 245C380.573 245 389.691 244.239 398.304 242.737C414.363 239.922 415.487 231.959 415.527 231.621C415.583 231.15 415.33 230.695 414.898 230.495Z" fill="#73A1FB"/>
</g>
<g clip-path="url(#clip1_102_467)">
<path d="M1707.5 297H1604.5C1597.6 297 1592 302.596 1592 309.5V412.5C1592 419.404 1597.6 425 1604.5 425H1707.5C1714.4 425 1720 419.404 1720 412.5V309.5C1720 302.596 1714.4 297 1707.5 297Z" fill="#3178C6"/>
<path d="M1707.5 297H1604.5C1597.6 297 1592 302.596 1592 309.5V412.5C1592 419.404 1597.6 425 1604.5 425H1707.5C1714.4 425 1720 419.404 1720 412.5V309.5C1720 302.596 1714.4 297 1707.5 297Z" fill="#3178C6"/>
<path fill-rule="evenodd" clip-rule="evenodd" d="M1671.23 398.856V411.371C1673.27 412.414 1675.68 413.196 1678.45 413.718C1681.23 414.239 1684.16 414.5 1687.24 414.5C1690.24 414.5 1693.09 414.213 1695.79 413.64C1698.49 413.066 1700.85 412.121 1702.89 410.804C1704.92 409.487 1706.53 407.767 1707.72 405.642C1708.91 403.517 1709.5 400.89 1709.5 397.761C1709.5 395.493 1709.16 393.505 1708.48 391.797C1707.8 390.089 1706.83 388.57 1705.55 387.241C1704.27 385.911 1702.74 384.718 1700.95 383.662C1699.16 382.606 1697.15 381.608 1694.91 380.67C1693.26 379.992 1691.79 379.334 1690.48 378.695C1689.18 378.056 1688.07 377.404 1687.16 376.74C1686.25 376.075 1685.54 375.371 1685.05 374.628C1684.55 373.884 1684.3 373.044 1684.3 372.105C1684.3 371.245 1684.52 370.469 1684.97 369.778C1685.41 369.087 1686.04 368.494 1686.85 367.998C1687.65 367.503 1688.65 367.118 1689.82 366.844C1690.99 366.571 1692.3 366.434 1693.73 366.434C1694.78 366.434 1695.88 366.512 1697.04 366.669C1698.2 366.825 1699.37 367.066 1700.54 367.392C1701.71 367.718 1702.86 368.129 1703.96 368.624C1705.07 369.12 1706.1 369.693 1707.04 370.345V358.651C1705.13 357.921 1703.05 357.38 1700.79 357.028C1698.54 356.676 1695.95 356.5 1693.03 356.5C1690.05 356.5 1687.24 356.819 1684.58 357.458C1681.92 358.097 1679.58 359.094 1677.55 360.45C1675.53 361.806 1673.93 363.533 1672.76 365.632C1671.59 367.731 1671 370.241 1671 373.161C1671 376.889 1672.08 380.07 1674.23 382.704C1676.38 385.337 1679.65 387.566 1684.03 389.392C1685.75 390.096 1687.35 390.786 1688.84 391.464C1690.33 392.142 1691.61 392.846 1692.7 393.576C1693.78 394.306 1694.63 395.101 1695.26 395.962C1695.88 396.822 1696.2 397.8 1696.2 398.895C1696.2 399.703 1696 400.453 1695.61 401.144C1695.22 401.835 1694.63 402.435 1693.83 402.943C1693.03 403.451 1692.04 403.849 1690.86 404.136C1689.67 404.423 1688.28 404.566 1686.69 404.566C1683.98 404.566 1681.29 404.09 1678.63 403.138C1675.97 402.187 1673.5 400.76 1671.23 398.856ZM1650.19 368.021H1666.25V357.75H1621.5V368.021H1637.48V413.75H1650.19V368.021Z" fill="white"/>
</g>
<path d="M1613.99 93.4537C1613.98 92.1664 1613.97 90.8797 1613.94 89.5909C1613.86 86.7873 1613.69 83.9584 1613.2 81.1848C1612.69 78.3682 1611.86 75.7491 1610.56 73.1905C1609.28 70.6777 1607.61 68.3783 1605.62 66.3843C1603.62 64.3902 1601.32 62.7189 1598.81 61.4395C1596.25 60.1384 1593.63 59.3121 1590.82 58.8065C1588.05 58.3067 1585.22 58.142 1582.41 58.0662C1581.12 58.0313 1579.84 58.0166 1578.55 58.0086C1577.02 58 1575.49 58 1573.96 58H1526.04C1524.51 58 1522.98 58 1521.45 58.0088C1520.17 58.0168 1518.88 58.0315 1517.59 58.0664C1516.89 58.0853 1516.19 58.1099 1515.48 58.1438C1513.37 58.2455 1511.26 58.4319 1509.18 58.8067C1507.07 59.186 1505.07 59.7455 1503.12 60.5505C1502.47 60.8186 1501.83 61.1143 1501.19 61.4395C1499.31 62.399 1497.54 63.579 1495.94 64.9502C1495.4 65.4073 1494.88 65.8855 1494.38 66.384C1492.39 68.3781 1490.72 70.6775 1489.44 73.1902C1488.14 75.7489 1487.31 78.368 1486.81 81.1846C1486.31 83.9582 1486.14 86.7871 1486.07 89.5907C1486.03 90.8795 1486.02 92.1661 1486.01 93.4535C1486 94.9824 1486 96.5115 1486 98.04V145.959C1486 147.489 1486 149.017 1486.01 150.547C1486.02 151.834 1486.03 153.121 1486.07 154.408C1486.14 157.213 1486.31 160.042 1486.81 162.814C1487.31 165.63 1488.14 168.252 1489.44 170.81C1490.72 173.323 1492.39 175.622 1494.38 177.615C1496.38 179.61 1498.68 181.281 1501.19 182.561C1503.75 183.863 1506.37 184.688 1509.18 185.193C1511.96 185.693 1514.79 185.859 1517.59 185.934C1518.88 185.968 1520.17 185.983 1521.45 185.99C1522.98 186.001 1524.51 186 1526.04 186H1573.96C1575.49 186 1577.02 186.001 1578.55 185.99C1579.84 185.983 1581.12 185.968 1582.41 185.934C1585.22 185.859 1588.05 185.692 1590.82 185.193C1593.63 184.688 1596.25 183.862 1598.81 182.561C1601.32 181.281 1603.62 179.61 1605.62 177.615C1607.61 175.622 1609.28 173.323 1610.56 170.81C1611.86 168.252 1612.69 165.63 1613.2 162.814C1613.69 160.042 1613.86 157.213 1613.94 154.408C1613.97 153.121 1613.98 151.834 1613.99 150.547C1614 149.017 1614 147.489 1614 145.959V98.04C1614 96.5115 1614 94.9824 1613.99 93.4537H1613.99Z" fill="#F05138"/>
<path d="M1587.43 137.013C1587.42 137.009 1587.42 137.006 1587.42 137.003C1587.56 136.521 1587.71 136.042 1587.83 135.548C1593.14 114.382 1580.18 89.357 1558.23 76.1821C1567.85 89.2167 1572.1 105.004 1568.32 118.812C1567.99 120.044 1567.58 121.226 1567.13 122.375C1566.65 122.055 1566.04 121.693 1565.21 121.24C1565.21 121.24 1543.39 107.764 1519.73 83.9287C1519.11 83.303 1532.35 102.845 1547.37 118.714C1540.29 114.743 1520.57 100.394 1508.08 88.9676C1509.62 91.5256 1511.44 93.9888 1513.45 96.3602C1523.87 109.582 1537.47 125.895 1553.76 138.424C1542.31 145.428 1526.14 145.972 1510.04 138.431C1506.06 136.565 1502.31 134.313 1498.85 131.754C1505.66 142.656 1516.16 152.062 1528.94 157.554C1544.17 164.102 1559.32 163.658 1570.61 157.662L1570.6 157.674C1570.65 157.642 1570.72 157.606 1570.77 157.573C1571.23 157.324 1571.69 157.071 1572.14 156.803C1577.57 153.988 1588.28 151.133 1594.02 162.317C1595.43 165.055 1598.42 150.549 1587.43 137.017L1587.43 137.013Z" fill="white"/>
<g clip-path="url(#clip2_102_467)">
<path d="M203 599L267.213 534.787L331 599H203Z" fill="url(#paint0_linear_102_467)"/>
<path d="M203 471H267.213L203 540.333V471Z" fill="url(#paint1_linear_102_467)"/>
<path d="M267.213 471L203 538.627V599L267.213 534.787L331 471H267.213Z" fill="url(#paint2_linear_102_467)"/>
</g>
<path d="M1659.39 677.327C1683.78 677.327 1703.56 657.554 1703.56 633.164C1703.56 608.773 1683.78 589 1659.39 589C1635 589 1615.23 608.773 1615.23 633.164C1615.23 657.554 1635 677.327 1659.39 677.327Z" fill="#05930C"/>
<path opacity="0.1" d="M1628.78 601.421C1624.29 605.422 1620.67 610.297 1618.13 615.748C1615.59 621.2 1614.19 627.112 1614.02 633.123C1613.85 639.134 1614.9 645.117 1617.12 650.705C1619.34 656.293 1622.68 661.369 1626.94 665.621C1631.19 669.873 1636.26 673.212 1641.85 675.433C1647.44 677.654 1653.42 678.711 1659.43 678.538C1665.44 678.365 1671.36 676.966 1676.81 674.428C1682.26 671.889 1687.13 668.264 1691.14 663.774L1628.78 601.421Z" fill="white"/>
<path d="M1657.23 649.104C1654.22 650.565 1650.9 651.267 1647.56 651.146C1645.36 651.243 1643.16 650.867 1641.11 650.043C1639.06 649.22 1637.21 647.968 1635.68 646.371C1632.61 642.932 1631.01 638.429 1631.22 633.826C1631.12 631.357 1631.51 628.891 1632.37 626.575C1633.23 624.259 1634.55 622.139 1636.25 620.342C1637.9 618.647 1639.9 617.316 1642.1 616.434C1644.3 615.553 1646.66 615.14 1649.03 615.222C1651.83 615.115 1654.62 615.585 1657.23 616.602V620.949C1654.7 619.543 1651.84 618.824 1648.95 618.865C1647.14 618.806 1645.35 619.132 1643.68 619.822C1642.02 620.512 1640.52 621.551 1639.28 622.868C1636.7 625.814 1635.36 629.65 1635.56 633.564C1635.37 637.262 1636.61 640.892 1639.04 643.694C1640.2 644.943 1641.62 645.926 1643.19 646.576C1644.77 647.226 1646.47 647.528 1648.17 647.461C1651.35 647.54 1654.49 646.733 1657.24 645.129L1657.23 649.104Z" fill="white"/>
<path d="M1688.04 625.517L1687.49 628.085H1681.14L1679.62 635.371H1686.44L1685.79 637.938H1679.11L1676.98 647.599H1673.93L1676.01 637.938H1669.94L1667.89 647.599H1664.91L1666.96 637.938H1660.55L1661.03 635.371H1667.47L1668.94 628.098H1662.22L1662.73 625.531H1669.45L1671.5 615.774H1674.57L1672.53 625.531H1678.64L1680.73 615.774H1683.71L1681.67 625.531L1688.04 625.517ZM1678.15 628.085H1672.02L1670.43 635.371H1676.59L1678.15 628.085Z" fill="white"/>
<path d="M1448.09 873.117C1447.62 873.117 1447.51 872.883 1447.74 872.533L1450.19 869.382C1450.42 869.032 1451.01 868.798 1451.47 868.798H1493.14C1493.61 868.798 1493.72 869.148 1493.49 869.499L1491.51 872.533C1491.27 872.883 1490.69 873.233 1490.34 873.233L1448.09 873.117Z" fill="#00ACD7"/>
<path d="M1430.47 883.854C1430 883.854 1429.88 883.62 1430.12 883.27L1432.57 880.119C1432.8 879.769 1433.38 879.536 1433.85 879.536H1487.07C1487.54 879.536 1487.77 879.886 1487.65 880.236L1486.72 883.037C1486.6 883.504 1486.14 883.737 1485.67 883.737L1430.47 883.854Z" fill="#00ACD7"/>
<path d="M1458.71 894.591C1458.24 894.591 1458.13 894.241 1458.36 893.891L1459.99 890.973C1460.23 890.623 1460.7 890.273 1461.16 890.273H1484.5C1484.97 890.273 1485.2 890.623 1485.2 891.09L1484.97 893.891C1484.97 894.358 1484.5 894.708 1484.15 894.708L1458.71 894.591Z" fill="#00ACD7"/>
<path d="M1579.86 871.016C1572.5 872.883 1567.48 874.284 1560.25 876.151C1558.5 876.618 1558.38 876.735 1556.86 874.984C1555.11 873 1553.83 871.716 1551.38 870.549C1544.03 866.931 1536.91 867.981 1530.25 872.3C1522.32 877.435 1518.23 885.021 1518.35 894.475C1518.47 903.811 1524.89 911.514 1534.11 912.798C1542.04 913.848 1548.69 911.047 1553.95 905.095C1555 903.811 1555.93 902.411 1557.1 900.777C1552.9 900.777 1547.64 900.777 1534.57 900.777C1532.12 900.777 1531.54 899.26 1532.36 897.276C1533.87 893.658 1536.67 887.589 1538.31 884.554C1538.66 883.854 1539.47 882.687 1541.23 882.687C1547.18 882.687 1569.12 882.687 1583.71 882.687C1583.47 885.838 1583.47 888.989 1583.01 892.14C1581.72 900.543 1578.57 908.246 1573.44 915.015C1565.03 926.103 1554.06 932.989 1540.17 934.856C1528.74 936.373 1518.12 934.156 1508.78 927.153C1500.14 920.617 1495.24 911.981 1493.96 901.244C1492.44 888.522 1496.18 877.085 1503.88 867.048C1512.16 856.194 1523.14 849.308 1536.56 846.857C1547.53 844.873 1558.03 846.157 1567.48 852.576C1573.67 856.661 1578.11 862.263 1581.02 869.032C1581.72 870.082 1581.26 870.666 1579.86 871.016Z" fill="#00ACD7"/>
<path d="M1618.49 935.556C1607.87 935.323 1598.18 932.288 1590.01 925.286C1583.12 919.334 1578.8 911.747 1577.4 902.761C1575.3 889.573 1578.92 877.902 1586.86 867.514C1595.38 856.31 1605.65 850.475 1619.54 848.024C1631.44 845.923 1642.64 847.09 1652.8 853.976C1662.02 860.278 1667.74 868.798 1669.25 880.002C1671.24 895.758 1666.69 908.596 1655.83 919.567C1648.13 927.386 1638.68 932.288 1627.82 934.506C1624.67 935.089 1621.52 935.206 1618.49 935.556ZM1646.26 888.405C1646.15 886.888 1646.15 885.721 1645.91 884.554C1643.81 873 1633.19 866.464 1622.1 869.032C1611.25 871.483 1604.25 878.368 1601.68 889.339C1599.58 898.443 1604.01 907.663 1612.42 911.397C1618.84 914.198 1625.26 913.848 1631.44 910.697C1640.66 905.912 1645.68 898.443 1646.26 888.405Z" fill="#00ACD7"/>
<path fill-rule="evenodd" clip-rule="evenodd" d="M297.124 787C296.893 787.003 296.66 787.058 296.454 787.179C296.043 787.42 295.784 787.863 295.784 788.339V822.491C295.784 822.826 295.628 823.126 295.338 823.295C295.047 823.463 294.692 823.463 294.401 823.295L288.82 820.08C287.989 819.601 286.973 819.601 286.142 820.08L263.865 832.937C263.032 833.418 262.526 834.342 262.526 835.303V861.017C262.526 861.978 263.033 862.858 263.865 863.339L286.142 876.196C286.975 876.676 287.987 876.676 288.82 876.196L311.097 863.339C311.929 862.858 312.436 861.978 312.436 861.017V796.911C312.436 795.936 311.904 795.02 311.052 794.545L297.793 787.134C297.585 787.018 297.354 786.998 297.124 787V787ZM153.821 819.098C153.396 819.115 152.997 819.189 152.616 819.411L130.339 832.268C129.509 832.747 129 833.621 129 834.589L129.045 869.098C129.045 869.578 129.292 870.023 129.714 870.259C130.128 870.506 130.641 870.506 131.053 870.259L144.268 862.669C145.105 862.172 145.652 861.307 145.652 860.348V844.232C145.652 843.271 146.157 842.388 146.991 841.91L152.616 838.652C153.036 838.409 153.486 838.294 153.955 838.294C154.414 838.294 154.886 838.409 155.294 838.652L160.919 841.91C161.753 842.388 162.259 843.271 162.259 844.232V860.348C162.259 861.307 162.811 862.177 163.643 862.669L176.857 870.259C177.272 870.506 177.784 870.506 178.196 870.259C178.606 870.023 178.866 869.578 178.866 869.098L178.91 834.589C178.91 833.621 178.407 832.747 177.571 832.268L155.294 819.411C154.918 819.189 154.517 819.115 154.089 819.098H153.821H153.821ZM353.998 819.411C353.533 819.41 353.077 819.528 352.659 819.768L330.382 832.625C329.55 833.105 329.043 833.985 329.043 834.946V860.66C329.043 861.627 329.588 862.504 330.427 862.982L352.525 875.571C353.341 876.037 354.338 876.072 355.159 875.615L368.552 868.16C368.977 867.924 369.264 867.484 369.266 866.999C369.269 866.514 369.016 866.08 368.596 865.838L346.186 852.981C345.766 852.742 345.472 852.257 345.472 851.776V843.74C345.472 843.26 345.77 842.82 346.186 842.58L353.15 838.562C353.564 838.322 354.073 838.322 354.489 838.562L361.454 842.58C361.87 842.82 362.123 843.26 362.123 843.74V850.08C362.123 850.561 362.377 851 362.793 851.24C363.211 851.481 363.716 851.482 364.132 851.24L377.48 843.473C378.309 842.991 378.82 842.109 378.82 841.151V834.946C378.82 833.987 378.311 833.106 377.48 832.624L355.338 819.767C354.921 819.526 354.464 819.411 353.998 819.41V819.411ZM287.392 838.607C287.508 838.607 287.645 838.635 287.749 838.695L295.383 843.115C295.59 843.235 295.74 843.456 295.74 843.695V852.535C295.74 852.775 295.591 852.996 295.383 853.115L287.749 857.535C287.541 857.653 287.287 857.653 287.079 857.535L279.445 853.115C279.237 852.995 279.088 852.775 279.088 852.535V843.695C279.088 843.456 279.238 843.236 279.445 843.115L287.079 838.696C287.183 838.636 287.276 838.608 287.392 838.608V838.607Z" fill="#404137"/>
<path fill-rule="evenodd" clip-rule="evenodd" d="M420.739 818.786C419.967 818.786 419.216 818.945 418.551 819.321L397.525 831.464C396.164 832.248 395.337 833.728 395.337 835.303V859.544C395.337 861.118 396.164 862.598 397.525 863.383L403.016 866.553C405.684 867.868 406.668 867.848 407.882 867.848C411.832 867.848 414.087 865.451 414.087 861.285V837.357C414.087 837.019 413.794 836.777 413.462 836.777H410.828C410.491 836.777 410.203 837.019 410.203 837.357V861.285C410.203 863.132 408.28 864.989 405.159 863.428L399.444 860.08C399.243 859.97 399.087 859.776 399.087 859.544V835.303C399.087 835.073 399.241 834.84 399.444 834.723L420.426 822.625C420.623 822.512 420.857 822.512 421.051 822.625L442.033 834.723C442.233 834.843 442.39 835.066 442.39 835.303V859.544C442.39 859.776 442.274 860.013 442.078 860.125L421.051 872.223C420.871 872.33 420.623 872.33 420.426 872.223L415.025 869.009C414.864 868.914 414.644 868.921 414.489 869.009C412.998 869.854 412.717 869.952 411.319 870.437C410.975 870.557 410.451 870.744 411.498 871.33L418.551 875.482C419.223 875.87 419.971 876.062 420.739 876.062C421.517 876.062 422.255 875.87 422.926 875.482L443.953 863.383C445.314 862.592 446.14 861.118 446.14 859.544V835.303C446.14 833.728 445.314 832.251 443.953 831.464L422.926 819.321C422.267 818.945 421.511 818.786 420.739 818.786ZM220.74 819.277C220.276 819.277 219.817 819.394 219.401 819.634L197.124 832.446C196.292 832.926 195.785 833.852 195.785 834.812V860.526C195.785 861.488 196.292 862.367 197.124 862.848L219.401 875.705C220.234 876.186 221.247 876.186 222.08 875.705L244.356 862.848C245.188 862.367 245.696 861.488 245.696 860.526V834.812C245.696 833.85 245.189 832.926 244.356 832.446L222.08 819.634C221.664 819.394 221.205 819.277 220.74 819.277ZM451.944 819.411V820.036H453.685V824.634H454.399V820.036H456.185V819.411H451.944ZM456.81 819.411V824.634H457.48V821.554C457.48 821.428 457.485 821.234 457.48 820.973C457.471 820.708 457.48 820.478 457.48 820.348V820.214L458.953 824.634H459.667L461.185 820.214C461.185 820.495 461.147 820.767 461.14 821.018C461.138 821.262 461.14 821.445 461.14 821.553V824.634H461.81V819.411H460.828L459.31 823.83L457.837 819.411H456.81L456.81 819.411ZM426.364 836.107C420.376 836.107 416.81 838.655 416.81 842.893C416.81 847.49 420.35 848.753 426.096 849.321C432.971 849.994 433.507 851.004 433.507 852.357C433.507 854.704 431.635 855.705 427.212 855.705C421.655 855.705 420.434 854.318 420.025 851.554C419.976 851.257 419.748 851.018 419.444 851.018H416.721C416.385 851.018 416.096 851.307 416.096 851.643C416.096 855.181 418.021 859.366 427.212 859.366C433.866 859.366 437.703 856.754 437.703 852.179C437.703 847.642 434.603 846.425 428.15 845.571C421.628 844.709 421.007 844.286 421.007 842.759C421.007 841.498 421.533 839.813 426.364 839.813C430.678 839.813 432.273 840.743 432.926 843.652C432.983 843.925 433.224 844.143 433.507 844.143H436.23C436.398 844.143 436.56 844.04 436.676 843.92C436.791 843.791 436.871 843.646 436.855 843.473C436.433 838.464 433.092 836.107 426.364 836.107ZM353.954 842.223C353.865 842.223 353.766 842.223 353.686 842.268L349.4 844.768C349.239 844.859 349.132 845.029 349.132 845.214V850.125C349.132 850.31 349.239 850.479 349.4 850.571L353.686 853.026C353.847 853.119 354.018 853.119 354.177 853.026L358.463 850.571C358.621 850.48 358.73 850.31 358.73 850.125V845.214C358.73 845.029 358.622 844.86 358.463 844.768L354.177 842.268C354.097 842.22 354.043 842.223 353.954 842.223Z" fill="#83CD29"/>
<defs>
<linearGradient id="paint0_linear_102_467" x1="237.047" y1="628.897" x2="297.521" y2="568.422" gradientUnits="userSpaceOnUse">
<stop offset="0.09677" stop-color="#0095D5"/>
<stop offset="0.3007" stop-color="#238AD9"/>
<stop offset="0.6211" stop-color="#557BDE"/>
<stop offset="0.8643" stop-color="#7472E2"/>
<stop offset="1" stop-color="#806EE3"/>
</linearGradient>
<linearGradient id="paint1_linear_102_467" x1="211.98" y1="496.726" x2="247.103" y2="461.603" gradientUnits="userSpaceOnUse">
<stop offset="0.1183" stop-color="#0095D5"/>
<stop offset="0.4178" stop-color="#3C83DC"/>
<stop offset="0.6962" stop-color="#6D74E1"/>
<stop offset="0.8333" stop-color="#806EE3"/>
</linearGradient>
<linearGradient id="paint2_linear_102_467" x1="181.45" y1="588.683" x2="300.561" y2="469.572" gradientUnits="userSpaceOnUse">
<stop offset="0.1075" stop-color="#C757BC"/>
<stop offset="0.2138" stop-color="#D0609A"/>
<stop offset="0.4254" stop-color="#E1725C"/>
<stop offset="0.6048" stop-color="#EE7E2F"/>
<stop offset="0.743" stop-color="#F58613"/>
<stop offset="0.8232" stop-color="#F88909"/>
</linearGradient>
<clipPath id="clip0_102_467">
<rect width="134" height="134" fill="white" transform="translate(300 111)"/>
</clipPath>
<clipPath id="clip1_102_467">
<rect width="128" height="128" fill="white" transform="translate(1592 297)"/>
</clipPath>
<clipPath id="clip2_102_467">
<rect width="128" height="128" fill="white" transform="translate(203 471)"/>
</clipPath>
</defs>
</svg>
