<svg xmlns="http://www.w3.org/2000/svg" width="154" height="67">
    <g fill="none" fill-rule="evenodd">
        <ellipse fill="#fff" rx="32.55" ry="32.453" transform="translate(32.55 32.99)"/>
        <path d="M53.346 7.904a29.232 29.232 0 00-2.561-1.914c-.134.044-.144-.04-.163-.122C35.599-3.926 15.469.156 5.477 15.023c.041-.047.146-.053.187-.117.059-.099.059-.099.146-.14-.035.204.128.082.128.198-.046.1-.046.163-.11.227.186-.04.128-.081.21-.128.093.21-.292.239-.403.32a.456.456 0 00-.245-.145 32.769 32.769 0 00-2.917 5.455c.111.076.14-.07.216-.11a.29.29 0 01-.082.215C.82 24.684-.016 28.924 0 33.203c0 .913.047 1.827.122 2.722-.023.157.187.058.316.058.034-.04.21-.029.297-.058-.082.274-.408.041-.583.175.033.186.066.186.099.192.275 3.895 1.324 7.625 3.004 11.085a32.754 32.754 0 004.55 6.938c.21-.79.45-1.523.67-2.18.08-.264.14-.532.182-.803a79.26 79.26 0 011.073-3.025c.11-.378.502-1.128.583-1.384 0 .027.078-.114.234-.424.198-.31.266-.398.204-.262a44.801 44.801 0 011.592-3.757c.286-.5.7-1.344.916-1.704.298-.785.128-.262.373-.791a1.695 1.695 0 00-.128.325l.73-1.535c.317-.496.603-1.01.857-1.541-.082.09-.149.192-.198.302l.204-.413.216-.29.256-.582c.274-.436.303-.64.496-.989.712-1.297.583-1.018 1.114-1.93-.029-.152.77-1.478.834-1.745.327-.762.77-1.629 1.237-2.548-.175.023-.058-.145-.17-.21.17-.116.298-.168.398-.238.297-.581.583-1.163.904-1.745.338-.54.285-.692.688-1.436.24-.355.642-1.146 1.02-1.902-.116-.215-.18-.052-.244-.186.151-.029 0-.198.227-.192.029.07.052.142.07.215.257-.523.502-1.023.677-1.395-.082.191 0 .11.146-.187.146-.296-.187.21.099-.302-.039.09.06-.114.297-.61a43.077 43.077 0 002.176-4.293c.086-.17.55-1.276 1.395-3.315.197-.395.327-.698.484-.989.07-.14-.199.43-.251.617.49-.977.21-.582.677-1.559l-.07.273c.21-.35.376-.726.495-1.116.508-1.024.473-.663 1.313-1.96-.42.285-.904.657-1.184.919-.362.256-.654.581-1.074.954-.25.174.064-.192-.583.418-.093.128.245-.087-.32.413 0 0 .472-.46.186-.244-.531.512-.181.151-.712.582-.245.302-.548.494-.548.61a2.53 2.53 0 00-.514.39c.175-.117-.583.657-.53.675-.181.098.501-.611 0-.222a6.561 6.561 0 00-.759.954 8.49 8.49 0 00-.665.68c.046-.056.087-.116.123-.18a20.78 20.78 0 00-1.5 2.21c0-.203-1.044 1.565-.746.954-.03.239-.134.221-.187.309a9.094 9.094 0 00-.338.634c-.047-.07-.496.767-.723 1.099-.07.197-.409.767-.584 1.134.076-.157.105-.25.059-.204a2.867 2.867 0 01-.315.658c-.234.581.093-.076 0 .267-.223.374-.29.625-.345.878-.052.146-.093.245-.116.303-.049.224-.026.458.064.669-.087-.059-.117-.268-.087-.466 0 .076-.035.157-.047.227.047.25.152.314.373.29.455-.04.66-.139.735-.133a1.07 1.07 0 01.49-.093.945.945 0 00-.222.064l-.227.058c.712-.21 1.493.506.59.89-1.698.756-1.488.733-3.08.85l.49-.018c.407-.047.77-.093.962-.1-.12.035-.24.063-.362.082.255.02.51-.034.735-.157a3.043 3.043 0 01-.28.105c-.322.092-.652.15-.986.174.181 0 .636-.098.496-.11-.35.066-.705.108-1.062.128-.14 0-.28.035-.425.046.109-.006.217-.028.32-.064a.433.433 0 00-.274 0 .654.654 0 01-.484-.11c-.152-.145-.134-.297-.093-.174a.59.59 0 00.402.203c-.216-.04-.414-.169-.379-.413a3.634 3.634 0 01.17-1.274s-.082.5 0 .344c.08-.157.04-.216.063-.326.112-.67.276-1.332.49-1.978.387-1.05.873-2.06 1.453-3.018-.088.157.105-.233.134-.25.28-.582.502-.774.718-1.163-.047.093.169-.198.32-.384 0 .087.42-.547-.052.232.478-.802 1.003-1.302 1.353-1.913l-.163.174c.204-.232.42-.465.624-.697.222-.257.46-.5.712-.727l-.52.616c.356-.343.666-.79 1.045-1.163 0 .04-.385.43-.245.343l.344-.372c-.062-.055.072-.192.402-.413.73-.6.204-.285.765-.733.204-.21.682-.628.25-.169.24-.226.52-.5.63-.634-.12.103-.248.195-.385.274l.934-.948c.116-.105-.064.081-.216.215 1.277-.977 2.432-2.158 3.972-3.123-.18.093.094-.1.222-.221.478-.332 1.196-.855 1.663-1.163l.659-.466c.245-.182.545-.277.851-.267.15-.008.3.026.432.099.154.089.226.272.175.442-.087.226-.19.445-.31.657-.22.453-.688 1.128-.688 1.332l.117-.221-1.826 3.797c-.192.268.356-.715.175-.488l-1.347 2.664.082-.198c-.502.913.104-.082-.31.698 0-.053 0 0-.169.232l-.082.256c-.134.262-.688 1.286-.787 1.582-.32.35-.595.646-.595.93a1.912 1.912 0 01-.455.838c-.402.733-.04.128-.315.704l.344-.582-.53 1.047.192-.424c-.268.47-.484.983-.776 1.547l.163-.244-.315.645c-.087.035-.437.809-.315.425-.641 1.163-.974 1.971-1.528 3.053-.197.3-.427.775-.63 1.262-.203.488.059-.165.082-.25-.391.745-.204.471-.613 1.297a2.815 2.815 0 00-.187.378c.21-.68-.513.896-.402.46 0 .052-.583 1.36-.373 1.017l.11-.226a2.43 2.43 0 01-.239.517 1.66 1.66 0 00.111-.256c-.206.442-.424.89-.653 1.344l.274-.32c.216-.215.397-.471.683-.762.186-.128-.035.151.443-.297.064-.099-.187.035.204-.296-.064.064-.303.296-.117.168.385-.36.129-.104.537-.383.187-.216.432-.315.432-.413.147-.056.288-.128.42-.216-.146.053.501-.4.449-.43.219.008.454-.186.676-.395.205-.11.31-.14.625-.315.396-.267 1.271-.628 1.575-.837-.088.122 1.265-.488.84-.233.25-.093.641-.267.717-.308 0 .076.642-.18.933-.203.29-.105.586-.189.887-.25.026.007.203-.017.38 0 .431-.1-.088-.041.168-.117.253-.03.483-.062.689-.093a.74.74 0 01.25 0c.213-.057.434-.08.654-.07l-.484.041.77-.081c.197-.017.395.005.583.064a.766.766 0 01.362.046 2.12 2.12 0 00-.35 0c.922.076-.018.878-.554.884-.77.019-1.534.12-2.281.303.34-.076.852-.174 1.37-.198l-.256.046c.175.027.354.017.525-.029.054 0 .15-.015.286-.046-.123.04-.759.122-1.167.203.123-.04.432-.099.338-.11-.355.064-.694.157-1.026.25.14-.052.21-.099.274-.122-.2.033-.396.09-.583.168-.479.117-.759.198-1.138.303 0 0 .333-.134.216-.122-.747.267-.88.378-1.546.68-.793.413-1.598.698-2.123 1.047.116-.07-.146.093-.175.093-.344.268-.584.32-.805.518.058-.053-.17.075-.315.157-.379.148-.813.494-1.22.872l-.215.227c-.344.267-.385.302-.718.518.117-.122.298-.28.42-.39-.296.23-.57.49-.816.774 0-.041.285-.291.175-.239-.191.174-.372.359-.543.553-.513.418-.122.215-.513.535-.14.163-.467.465-.187.128a3.081 3.081 0 00-.385.506c.152-.14.17-.187.251-.221-.204.25-.402.5-.583.767-.064.082.035-.075.116-.186a10.462 10.462 0 00-1.72 3.1c.07-.128 0 .099 0 .221-.128.45-.218.908-.269 1.373-.061.638.038 1.403.292 2.123.11.331.274.895.426.965.19.281.484.723.81 1.14.619-.774 1.278-1.541 1.896-2.297l-.146.244c.7-.687.362-.541.899-1.111a69.638 69.638 0 014.666-4.438c.022-.045.152-.14.269-.25.064-.104.207-.182.361-.227a2.565 2.565 0 01.782-.075.873.873 0 01.38.11c.177.024.285-.012.396-.023 0 .035.11.013.222.006.21.116.338.192.338.337-.055.169-.08.304-.14.425-.07.273-.297.413-.344.581-.024.186-.134.204-.14.297-.175.18-.333.262-.298.442-.106.181-.154.236-.215.273a.485.485 0 00-.14.256c-.129.157.052.11-.076.21-.101.055-.117.117-.117.18-.24.384-.192.762-.426 1.064.146-.163.082-.133.175-.285.047.105.216-.215.233-.081 0 0 .123-.285.03-.25.18-.239.379-.442.542-.698.158-.127.302-.344.432-.57.07.04-.204.256-.152.32l.368-.506c-.012-.024.07-.125.245-.303.151 0 .315-.308.583-.296-.03-.03.082-.087.216-.11.163-.036.583.046.537.121.075-.075.274.221.315.291.006.021.083.052.233.093l-.146.151a.887.887 0 01.082.18c0-.07.076.146.122.187-.07-.03.076.122.088.215.04.14.163.268.169.36.151.274.297.646.53.954V36.2c0-.152.076.07.123-.17-.011-.26-.017-.127.076-.29 0-.11.082-.18 0-.227.07-.104.175-.378.128-.39.111-.023.181-.22.111-.261a1.05 1.05 0 00.146-.215c.053-.18.25-.471.245-.628.052.081.245-.437.233-.239.038-.09.067-.184.088-.279.052.047.128-.21.216-.28 0-.063.093-.214.122-.313.198-.157.058-.082.082-.18a.515.515 0 01.128-.216c.092-.138.13-.211.187-.267.134-.21.192-.239.227-.233.419-.305.971-.397 1.412-.151-.07-.227-.403-.11-.502-.21-.097-.019-.165-.011-.204.024a.725.725 0 01.473-.064c.01.023.166.06.297.145.158.274.07.25.041.227.04.145-.004.3-.117.401-.093.157-.081.245-.198.489s-.362.53-.426.762c-.035.232-.163.267-.18.384-.21.25-.374.372-.357.581-.12.24-.17.315-.233.378l.059-.203c-.094.093-.076.261-.129.395-.21.372-.029.28-.151.43a.64.64 0 00.134-.215c.122.053.256-.11.256-.18 0-.046.187-.215.17-.174.151-.163 0-.041.07-.198.082-.129.17-.251.25-.378.1-.1.199-.25.187-.1.122-.111.233-.234.332-.365.082-.687.14-.285.21-.367.102-.097.19-.206.263-.326.163-.063.058-.035.303-.18-.035.128.432-.04.333.064 0-.052.426-.064.315-.116a.848.848 0 01.542.325c.119.135.254.255.403.355.151.209.434.367.74.465 0 .082-.355-.186-.408-.139.362.21.757.359 1.167.442.117.157.42.076.67.203 0-.046.117-.029.263 0 .187.064.566.064.543.14.035-.07.286 0 .396 0 .195.01.39.01.584 0-.076-.04.21 0 .286-.04-.047 0 .18-.041.297 0 .214-.019.365-.039.514-.018.157-.006.414-.03.664-.047-.268-.07-.548-.122-.834-.209-.128-.093-.11 0-.256-.11-.07-.1-.006.035-.245-.07-.001-.097-.113-.114-.216-.082-.292-.058-.117-.174-.514-.314-.226-.125-.276-.314-.221-.488a.634.634 0 01.198-.308c.016.095-.037.151-.081.215.068.009.16-.152.274-.297.105-.198.35-.372.437-.506 0 0 .123-.18.233-.28.187-.11.082-.098.245-.203.24-.098.35-.087.327-.162.105 0 .35-.146.321-.18.076.052.24-.053.227-.117.082-.012.162-.031.24-.058.14-.1.466-.169.536-.28 0 .1.461-.122.315 0a1.37 1.37 0 00.245-.122c0 .07.222-.04.333 0 .11.041.204-.07.303-.116.263-.093.181-.006.233.018l.187-.093c.151-.043.228-.06.303-.047.228-.07.28-.035.298-.006.805.053.642.634.157.867.164.017.28-.233.391-.268.051.053-.005.154-.087.233-.02-.025-.116.074-.228.151-.231.024-.292.044-.355.052-.333.082-.374.146-.584.28-.21.133-.548.22-.712.372-.151.151-.256.128-.315.22-.28.076-.478.111-.519.303-.006.026-.084.119-.233.28-.076.127.064.203.134.232.187.14.111-.052.245.064.108.084.184.084.257.064-.043-.027.03-.04.222-.04.303.156.717.04 1.137.203.222-.018.432-.018.56.011.292 0 .542-.04.747 0 .122-.005.32.117.367.035.403-.015.74-.056 1.074-.122.122.082.355.012.606 0 .129-.064.129-.029.199-.023.151-.064.431-.07.501-.128.093.056.184.026.263-.023a.392.392 0 00.233-.053c.163 0 .093-.226.122-.273.016-.081.04.008.07.268.138-.014.275-.04.409-.076.105-.017.169-.047.21-.047a1.938 1.938 0 01-.245-.54c.072.025.15.025.221 0-.081-.21-.122-.11-.175-.152.21.035.129-.197.199-.145-.082-.07-.094-.105-.094-.175-.081.01-.155-.05-.239-.046.222-.023.333-.012.391-.099.1.076 0 .273.117.32-.152.105.081.355-.041.419.1.081.082.279.076.46.216-.042.385-.129.618-.175.094.02.218-.024.327-.093.14.017.058 0 .274-.064-.04.133.362-.024.28.081 0 0 .333-.157.222-.18.315-.134.647-.18.986-.303.221-.02.506-.127.781-.256.041.07-.373.11-.362.187.362-.117.73-.245 1.12-.396.175.064.386-.157.66-.151-.035-.03.087-.076.221-.117.187-.034.525-.15.537-.075 0-.076.257-.076.338-.151.082-.076.315-.117.508-.157-.076 0 .18-.076.245-.117-.035.059.163-.075.268-.087.193-.088.326-.142.467-.157.173-.047.428-.136.688-.21a.941.941 0 011.015.105c-.057.035.019.16.064.297.056.114.04.25-.04.349a.986.986 0 01-.584.39l-.536.15a9.828 9.828 0 00-1.039.332c-.42.03-.962.373-1.248.326-.28.14-.514.128-.858.302-.081 0-.2.035-.355.105-.263.239-.846.239-1.237.413-.319.092-.56.172-.805.239-.17 0-.093 0-.257.093-.223.052-.449.093-.676.122-.076.058-.187.07-.181.116-.274.07-.42.122-.764.192-.082.076-.304.03-.362.076-.167-.04-.235-.057-.204-.053-.339.146-.671.233-.974.268-.165.004-.333.022-.502.017-.199.117-.035-.011-.245.047.035 0-.058.013-.28.04a.847.847 0 00-.438 0l-.274.012c-.122-.046-.163.04-.262.04a2.234 2.234 0 01-.554-.063c0 .099-.409 0-.473.076-.257-.041-.583-.035-.933-.053a.837.837 0 01-.356.61c-.351.163-.604.197-.858.199-.192.036-.39.036-.583 0-.327.07-.583 0-.968.11-.09 0-.214.006-.374.018-.356.11-.962-.03-1.417.046a7.997 7.997 0 01-.904.064c-.158-.14-.1-.03-.286-.006a4.772 4.772 0 01-.7-.058c-.093.035-.216 0-.222.052a8.04 8.04 0 01-.857-.098c-.111.04-.31-.094-.385-.088-.183-.1-.241-.141-.175-.122-.359-.013-.707-.14-1.039-.302a2.203 2.203 0 01-.431-.28c-.257-.08-.041-.058-.263-.15.006-.018-.122-.105-.257-.181-.274.18-.204.273-.355.436-.26.18-.49.444-.683.733a.767.767 0 00-.169.239c-.28.285-.613.616-.887.924-.256.215-.472.465-.688.67-.175.092-.064.121-.257.203-.157.023.053.023-.256.191-.156.189-.308.325-.49.408a4.427 4.427 0 01-.689.162.672.672 0 01-.367-.07.332.332 0 01-.17-.174c-.25-.122-.338-.314-.583-.5-.08-.115-.156-.183-.227-.256-.257-.174-.368-.675-.584-.954-.121-.239-.228-.424-.32-.616-.146.04-.123.116-.175.174-.11.11-.231.208-.362.291.064.082-.216.268-.192.355-.24.174-.467.53-.741.797-.14.064-.07.157-.199.273a2.29 2.29 0 00-.583.54c-.043.055-.097.121-.163.199l-.432.267a2.333 2.333 0 01-.53.198c-.142-.018-.287-.004-.432-.012a.484.484 0 01-.42-.314c.046-.203-.047-.145 0-.302.046-.093-.053.006-.041-.215.094-.026.074-.129.006-.198-.041-.25.134-.157.134-.471-.018-.262-.07-.303.023-.518.105.03.03.291.07.285a2.6 2.6 0 00.053-.419c-.006-.197.099-.413.099-.54 0 0 0-.18.04-.297.129-.157.018-.11.082-.244.123-.163.198-.204.123-.256.064-.087.169-.274.122-.285.1-.006.163-.151.1-.192a.715.715 0 00.128-.157c.046-.122.186-.314.198-.442a17.767 17.767 0 00-1.622 1.593c-.179.152-.398.427-.659.826-.548.733-1.762 1.826-2.479 2.867.03-.075-.146.105-.263.268 0 .043-.379.601-1.137 1.675.187-.326-.222.268-.28.273l.157.268-.169-.25c.27.448.51.856.724 1.28.227.558-.082-.227.204.343-.041 0-.03 0 .04.209.254.514.43.93.578 1.355.018.326.204.547.204.762a1.681 1.681 0 000 .29l-.128-.284c0 .238.082.802.058.68.03.582.041.093.105.547v-.483c0 .28.047.582.053.85l-.03-.338c0 .39.036.797 0 1.245l.047-.21v.524c-.064.034-.099.657-.134.36-.12.788-.299 1.566-.537 2.327-.18.436-.28.727-.384 1.023-.222.36-.07.169-.391.768-.035 0-.111.128-.17.233.193-.483-.472.581-.373.267.03.064-.682.843-.443.669.169-.134-.023.04-.181.163.055-.047.105-.097.152-.151-.371.361-.847.597-1.36.674a2.854 2.854 0 01-1.615-.308c.087.035.513.186.25.064a4.816 4.816 0 01-2.164-1.745c0-.04.175.221.374.454.198.232.437.46.472.442a4.24 4.24 0 01-1.417-3.222 9.8 9.8 0 01.355-1.99c-.052.065 0-.313.17-.709.235-.604.433-1.033.7-1.419.124-.342.275-.675.449-.995.245-.39.472-.872.799-1.355-.152.152.286-.5.39-.686.06.018.275-.442.473-.692.1-.11 0 .052.158-.14.165-.302.36-.586.583-.849l-.28-.349a12.708 12.708 0 01-1.674-3.065 1.012 1.012 0 00-.047-.343c-.297.582-.583 1.43-1.061 2.228a3.73 3.73 0 01-.391.942c.058-.192-.21.36-.158.198-.23.605-.512 1.189-.845 1.744 0 .152-.467.99-.584 1.396-.291.582-.583 1.256-.898 1.983.134-.209-.187.507-.344.885-.129.15-.333.814-.52 1.227-.093.186 0-.064-.145.244a13.702 13.702 0 01-.584 1.582c.038-.109.069-.22.094-.332a50.492 50.492 0 00-1.739 5.34 32.673 32.673 0 0023.205 9.887c.076-.146.228-.274.21-.361a1.01 1.01 0 00.718-.267c.239.11 0 .127.064.447-.146-.046-.123.076-.123.18a32.578 32.578 0 0018.451-6.21c.129-.111.012-.268-.052-.286 8.6-5.987 13.605-15.772 13.533-26.172a32.444 32.444 0 00-11.993-25.27zM14.46 31.668c.029.081.134.052.029.116.04.18-.158.373-.443.326.046-.093.262-.03.32-.116-.064-.07 0-.146 0-.239s-.093 0-.087.087c.006.088 0-.087 0-.116-.134-.04-.122.14-.21.058.04-.064.117-.099.152-.18-.094 0-.094.052-.175 0 .046-.221.455-.233.472.035.064.122.006-.052-.058.052v-.023zm.618 3.117c-.175 0-.163-.075-.327 0 .053-.279-.093-.314-.064-.628.129 0 .21-.134.42-.122 0-.04-.07 0-.116-.029 0-.227.367-.04.21.03a.441.441 0 01-.123.773v-.024zm6.878-16.517c.035 0 .134.14 0 .192a.197.197 0 00-.065-.105c-.029.03 0 .157-.058.064s.14-.11.123-.151zm-3.08 3.92c-.146.035-.193.151-.362.151 0-.058-.088-.11-.082-.168.006-.059.03.098.123.127-.064-.081.169-.168.04-.25-.128-.081-.087.064-.128.082-.029-.087 0-.18 0-.274 0-.093.1 0 .146-.064-.035.053-.035.123-.11.152 0 .029.14 0 .081-.047-.058-.046.134.134 0 .105.082.07.11 0 .146-.058l-.064-.11c.145-.018.25.267.21.36v-.006zm1.166-2c-.052-.076-.105-.053-.151-.105 0-.175.07-.35-.064-.524.081 0 .081 0 .122-.081 0 0 .047.035.064 0 .018-.035 0 .058 0 .087 0 .029.053 0 .088-.04.035-.041-.129-.036-.129-.129s-.046.03-.122.082c0-.07 0-.134.047-.21 0 .088.122 0 .186.1a.163.163 0 00-.087.046c.116.058.233-.105.338-.088 0-.104-.163-.04-.17.041.047-.32.357.064.403.064-.093.122-.07.239-.105.36-.035-.046-.064 0-.04 0-.111-.11-.216.036-.321 0 .035-.04.07 0 .105-.063a.836.836 0 00-.274 0c-.03.07 0 .174.105.145.046.058-.065.11-.035.169a.088.088 0 01.145.064c.082-.047 0-.087-.04-.122.093 0 .075-.093.145-.152.07-.058.134.152.274.064.059 0-.105.134 0 .088.105-.047-.157.04-.21.168-.07-.099-.169.024-.256.035h-.018zm-2.14 5.984c0-.03 0-.058-.041-.087-.041-.03.064 0 .04-.041-.023-.04 0 .087.105 0v.081c0 .024 0-.064.082-.081.032.029.08.029.111 0 .047.093-.047.046-.04.128 0-.07-.2-.04-.363.064-.052-.035-.035-.07-.058-.105-.023-.035.105.087.158.04h.006zm-.403-7.56c-.093-.164 0-.268 0-.042.11.03.25 0 .292-.122.04.163-.205.227-.292.163zm1.674-6.98c-.035.046 0 .093 0 .145.1.088.076-.122.146 0-.087.082-.087.088 0 .128l-.064.064v-.064c0-.023-.128-.064-.198-.058.07-.04.122-.244-.059-.232.082-.059.082-.117.123-.17-.035.135.256.123.145.105-.11-.017 0 0 .041-.04l.047.04c-.152.047-.053.256-.187.134l.006-.052zm8.581-3.763c-.052 0-.04 0-.064-.064-.023-.064-.128.134-.041.081 0 .047-.035 0-.07.064-.093-.064 0-.128 0-.186 0-.058.11 0 .17-.046.017.052.04.099-.018.145l.023.006zm7.957 19.885c-.053-.064-.082-.117-.129-.122-.046-.006.094 0 .129-.047.035-.046 0-.04 0-.064a.17.17 0 00-.251.082c-.03-.082.04-.163.081-.25-.058 0-.11.046-.169.04-.058-.006 0 0 0-.04v-.041c.094 0 .187.046.275 0 .075.122-.094 0-.082.128.071.06.17.076.256.04.059.123-.151.053-.11.187.04 0 .07-.035.11-.064.053.046-.075.157-.134.157l.024-.006zm2.584 3.117a1.227 1.227 0 01-.654-.988c.076-.088.21-.17.123-.256.064-.047.128 0 .187 0-.035.058-.082-.035-.123 0-.04.035.17.14 0 .209.035.058.07 0 .105 0a.145.145 0 010 .192c.082.035.082-.099.123-.128.04-.03 0 .07 0 .105 0 .035 0-.157.163-.21 0 .04 0 .082-.04.128-.042.047.07.04.104 0 .035-.04 0-.07 0-.104.117-.059.123.034.21.127-.064 0-.187 0-.187.105a.204.204 0 00.251-.128c.339.36.105.692-.256.966l-.006-.018zm1.563-5.2c-.093-.075.07-.034.041-.127-.03-.093-.122.11-.187.151 0 .04.053 0 .082 0 .03 0-.082.099-.105.145-.128-.099.04-.197.123-.296-.053 0-.111.064-.164-.041-.053.034-.11.063-.169.087-.03 0 0-.15-.064-.104.122-.198.117-.344.227-.582.1.03-.093.18.047.081.04.059-.082.105-.11.11.08.06.238-.051.192.106.052.064.099 0 .151 0 .053 0-.081 0-.11-.064l.081-.082c0 .11.047 0 .105.064.058.064 0 0-.035 0s.035 0 .059.064c0 .215-.088.273 0 .419-.036.064-.088-.012-.14.07h-.024zm1.027.856c.023.093.052 0 .087-.041.059.081-.046.11-.105.151-.035-.145-.105-.052-.186 0a.495.495 0 00-.152-.151c.047-.047 0-.099.105-.146.105-.046 0 .082.04.128.042.047.077-.046.158-.11.082-.064-.04-.099-.07-.145l.111-.105c.035.052 0 .331.146.186.058 0-.14.128-.03.081.042.1-.128.059-.104.152zm.834-7.462c-.04-.07.128-.053.105-.152-.023-.098-.105.094-.11 0l-.1.111c-.053-.064 0-.128 0-.192h.064c.088.087.187.169.274.145a.11.11 0 010 .17c-.046-.123-.134-.07-.216-.082h-.017zm.28.855c-.058-.03-.152 0-.146-.105.14.134.315-.238.403-.064a.885.885 0 01.122-.21c-.122-.087-.134.129-.274.065.053 0 .1-.053.146-.105-.064-.11-.128-.035-.193-.105.117 0-.046-.122.105-.192 0 .152.053.093.135 0 .029-.035.093-.07.064-.104.064-.047 0 .064.081.081 0 0-.046 0-.07.04-.023.041-.029.059.041.088-.058 0-.11.099-.175.04 0 .07.199.1.28 0 .018.164-.274.495-.519.57zm5.746-2.926h-.07a.11.11 0 00-.064.047s0 .11-.07.168c0-.15-.065-.058-.152 0 .053 0 .07.187.128.123 0 .033.016.065.041.087-.146 0-.169-.035-.291-.082-.035-.064.163-.128.064-.192.089-.067.19-.119.297-.15.035 0 .093-.03.129-.059.034-.029 0 .047-.024.058h.012zM50.93 9.55c-.064.122 0 .25-.064.384-.094 0 .046-.14-.076-.122 0-.059.082-.03.052-.111-.029-.081-.058-.046-.128-.07-.07-.023.1 0 .11-.075a.321.321 0 00-.238-.134c0-.064.046-.076.105-.076-.059.053 0 .07.075.07a.302.302 0 010-.29c-.175-.117 0-.379-.18-.5 0-.07.11-.088.18-.117.07-.03 0-.064 0-.087 0-.024-.081-.053-.075-.123.005-.07.064-.052.128-.04.064.011 0 .157-.053.22a.882.882 0 01.03.797.447.447 0 00.134.25v.024zm-.35-2.501c.076 0 .14.046.146 0 .006-.047-.059 0-.088-.035-.029-.035 0-.134.047-.198s.157.11.099.198c.11.04.105.244.047.343.052.07.058.198-.07.186a.052.052 0 01.052-.04.708.708 0 00-.187-.105c0-.14.111 0 .146-.076a.688.688 0 00-.338-.244s.087 0 .087-.093a.105.105 0 01.053.064h.006zm-.024 4.507c-.029-.046.059-.122.088-.168.03-.047-.053 0-.093-.053-.041-.052.075-.104.105-.075.029.029 0-.076 0-.11.175-.03 0-.367.128-.443 0-.046 0-.058-.07-.052-.07.006.064-.058.093-.099a.453.453 0 01.123.489h-.093c-.053 0 .035.122.058.075.07.093.14.448-.059.471-.035 0 0 .082-.07.058 0 .07.082.041.076.105-.006.064-.029-.046-.087-.035-.059.012.047.087.093.105-.076.07-.11-.064-.169-.087-.058-.024.064 0 .058-.053-.005-.052-.11-.18-.186-.128h.005zm.152 1.827c0-.059-.035-.053 0-.111s.134 0 .152.052c.017.053.105-.029.082-.11-.024-.082-.053-.03-.094-.053-.04-.023.059-.08 0-.162.17 0 .14.296.105.395-.11.018-.163-.017-.257.012l.012-.023zM14.245 56.49c-.047-.477.52-.396.537-.03-.041.187-.45.163-.537.041v-.012zm12.122 3.995c-.204 0-.327.163-.444.146-.116-.018 0 .058-.064.064.082.104.134-.064.24-.03.104.035-.036.117-.059.18-.035-.18-.17.111-.303-.057 0-.035.058 0 .093-.03.035-.029-.105 0-.152 0-.046 0 .053-.14-.087-.122 0-.081.099-.168.18-.093v-.087a.707.707 0 01-.274.03s.03.051.065.057c.035.006-.094-.035-.088-.087.006-.052.088-.052.175-.029 0-.076-.064-.076-.087-.122-.024-.047.07-.128.151-.146 0 .076 0 .123-.064.146.117.163.181.052.333.093v-.058c-.088-.035-.088 0-.204-.058 0-.088.204 0 .204-.059.087 0 .029.047.029.117.058-.169.216-.11.356 0v.145zm11.258-13.685c-.163-.04-.35-.046-.385-.21.076 0 .058.065.087.094.03.029.082-.122.21-.093-.105.093 0 .075.094.122 0-.058.081-.18 0-.18a.144.144 0 000-.093c.11.093.099.145.157.267.059.122-.215-.012-.186.105l.023-.012zm6.977 1.978c0-.03-.035 0-.059-.03 0-.128 0-.25-.087-.302a.11.11 0 01.116-.116c0 .116.1.14.152.21.053.069-.134-.06-.18.028-.047.087.14 0 .058.087h.151c-.035.11-.105.134-.175.152l.024-.03zm7.146-5.654c0 .053.116.035.087.152a.812.812 0 01.18.058c0 .04-.122.087-.034.122a4.59 4.59 0 00-.584.238c-.04-.087.199-.058.035-.087 0-.07.129 0 .152 0 0-.093-.204-.134-.064-.21 0-.08-.058-.075-.123-.092-.064-.018.076.04.035.116h-.099c.076-.081-.052 0-.035-.116l.035.029c.035.029 0-.04 0-.087.17-.14.251-.128.292-.303.093 0 .07.093.18.058 0 .122-.075 0-.116.059-.04.058.17 0 .24.029.07.029 0-.059-.059-.059-.058 0 .123 0 .175-.034.017.174-.175.122-.303.127h.006zm.583-1.669c0-.11-.088 0-.175-.029-.088-.029-.047.099-.064.151h-.175c0-.064.245-.215 0-.238 0-.058.204 0 .087-.058.041-.087.129.058.181 0 .052-.058-.053 0-.088-.03 0-.092.117-.04.175 0-.075.123.041.111.123.146a.463.463 0 000 .21c-.07 0-.088.052-.175.029.04-.117.123-.1.093-.18h.018zm4.188 3.548c-.047 0-.157 0-.18.058-.024.058.081-.058.145 0-.047.117.053 0 .088.087.035.088-.065.076-.117.128-.052.053-.04-.11-.1-.122l-.063.11a.106.106 0 010 .053s.029 0 .04-.035c.012-.035 0 .053.035.053-.046.128-.081.075-.116.186-.064-.169.058-.42-.093-.547 0-.03.087 0 .087-.07.035.053.158.116.204.047.047-.07-.064 0-.07-.047.111-.052.1-.145.064-.273-.099.105-.233.215-.332.046.11-.052.303-.035.35-.162.099 0 .11.18.04.215.147.052.03.203.018.29v-.017zm.163 3.298c.053.07.059.192-.07.186a.047.047 0 01.047-.041.491.491 0 00-.18-.099c0-.14.116 0 .145-.081a.711.711 0 00-.338-.245s.093 0 .093-.093a.11.11 0 01.053.088c.075 0 .134.046.145 0 .012-.047-.058 0-.093-.03-.035-.093 0-.139.053-.203.052-.064.157.116.093.198.122.04.11.238.052.337v-.017zm.1 2.198c-.059.122 0 .25-.059.39-.093 0 .047-.146-.081-.128 0-.058.081 0 .052-.11-.029-.111-.058-.053-.11-.053-.053 0 .093 0 .11-.07a.315.315 0 00-.245-.14c0-.058.047-.07.105-.075-.058.052 0 .07.076.07a.29.29 0 010-.291c-.175-.122 0-.378-.18-.506.028-.07.11-.081.18-.116.07-.035 0-.064 0-.093 0-.03-.076-.053-.076-.123s.058-.052.128-.04c.07.011 0 .157-.046.22.13.25.13.548 0 .798a.505.505 0 00.146.279V50.5zm-.105-1.518a.796.796 0 01-.228-.285c0-.058.064-.081.03-.145.25-.087.332.215.203.424l-.005.006zm-.059-1.245c-.058 0-.07-.04-.11-.052-.041-.012-.082.064-.053.146-.187-.17.204-.384 0-.541.03-.03.064 0 .087-.041 0 .04 0 .134.094.122-.03.099 0 .29-.082.28.03.04.105 0 .093.07l-.029.017zm-.058-.546c-.064 0-.07-.053-.128-.053 0-.14-.059-.197 0-.308.058-.11-.193-.07-.228-.174.068.006.136.006.204 0 0-.082-.105-.087-.04-.163.04.058.081.116.169.122.087.006 0-.03 0-.052 0-.024-.047 0-.076 0 .128-.1-.07-.186-.17-.128 0-.053-.063 0-.028-.093.058.02.122.02.18 0 .035-.03 0-.105.047-.146.047-.04-.146 0-.146-.122.1 0 .07-.04.21-.04.078.377.088.764.03 1.145l-.024.012zm-.1-1.541c.042.04 0 .087 0 .128-.08.093-.14-.059-.18 0 0-.053.076-.163.157-.187 0-.046-.093-.046-.122-.087.093 0 .082-.075.198-.099.117-.023 0 .151.041.215.041.065-.017-.005-.064.012l-.03.018zm-.15-1.309h.057a.18.18 0 01-.25.192c.087-.07.227-.14.221-.204l-.029.012zm.046 8.259c-.041-.035.058-.123.087-.163.03-.04-.058 0-.093-.052-.035-.053.076-.1.11-.07.036.029 0-.076 0-.117.176 0 0-.366.13-.436 0-.052 0-.058-.077-.058-.075 0 .065-.058.088-.093a.447.447 0 01.122.489h-.093c-.047 0 .035.122.058.07.07.098.14.441-.058.47-.04 0 0 .082-.07.059 0 .075.082.04.076.104-.006.064-.035-.046-.094-.035-.058.012.047.082.094.105-.082.07-.117-.064-.175-.087-.058-.023.07 0 .058-.053-.011-.052-.035-.244-.105-.191l-.058.058zm.379 1.86c-.093 0-.146-.046-.24 0 0-.057-.034-.052 0-.11.036-.058.123 0 .147.053.023.052.11 0 .093-.11-.017-.111-.053-.036-.093-.053-.041-.018.058-.082 0-.163.215-.04.192.233.151.331l-.058.053zm.32-11.672c0 .076.053.093.094.122.041.03-.117.041-.122.117.081-.128-.1-.221-.21-.326-.03 0-.03.07-.082.064-.053-.006.157-.128-.064-.151.064-.146.221 0 .21.122.146 0 .21.046.356.029.145-.018-.07-.035-.123-.03l-.058.053zm1.47 8.666a.093.093 0 00-.145 0c0 .07.187 0 .146.122-.123-.081-.123.157-.292 0 .041-.134.158-.203.146-.384-.076 0-.053.11-.088.146-.035.035-.093-.047-.151-.059 0-.192.151-.226.327-.18 0 .053.07.076.058.146-.012.07-.059.098-.088.15.204-.092.175-.214.146.012l-.058.047zm2.86-15.104c-.095.107-.203.2-.322.279l-.274.169c-.268.17-.57.277-.886.314-.549.163-.864.052-1.47.186-.146 0 .058-.047.046-.053h-.187l-.455.076c-.42.07-.875.098-1.33.082l-.886.075c-.584.081-.706.093-1.167.145.14-.029 0 0-.11-.029h-.152l-.158.053c-.315.029-.583.035-.869.04l-.297.03c-.117.029-.24.04-.24.081l-1.248.145c-.146.07-.484 0-.583.064 0 0 .076-.035.052-.046l-.245.04c.07 0 .105-.04.1-.058h-.205-.14c-.04 0 0 .053.111.047l-1.58.186.046-.04a4.988 4.988 0 01-.8.07s-.07.034 0 .046c-.32.081-.046-.059-.39.034a.825.825 0 00.21-.07l-.706.17c-.124-.02-.25-.02-.373 0l-.315.034h.146l-.175.035-.117-.07-.274.07c-.173.038-.292.075-.415.1-.194.013-.389.013-.583 0l-.379.046c-.087 0-.216.029-.338.04h-.17a.37.37 0 00-.134.035h-.32l-2.036.262c-.1.04-.203.065-.31.075h-.134l-.694.105c-.239.047-.478.093-.647.14.081 0 .035-.053-.088-.03-.122.024.111.053-.116.07.035 0-.053.026-.263.076-.426.04-.904.087-1.36.151a.191.191 0 00-.058-.081v.093h-.21c-.04-.035-.087-.047-.151 0l.047-.116c-.059.04-.187.064-.298.122h-.152l-.916.186h-.25c-.173.057-.272.08-.368.064-.052 0 .105 0 .199-.053l-.286.047a.446.446 0 01-.152.058.725.725 0 00-.204-.081v-.035a.951.951 0 00-.52.262c-.085.009-.17.009-.256 0l-.216.035c-.194.024-.39.024-.583 0 .047.034 0 0 0 .04s-.158.396-.163-.192c-.088 0-.199.041-.286.047v.366c-.321-.337-.66.297-.852-.04-.052.081-.134.116-.187.191v-.14a1.041 1.041 0 00-.478.053v-.116c-.07 0-.093.163-.117.302l-.128.035v-.087c-.216.035-.455-.151-.636.087 0-.035 0-.134.03-.145-.106 0-.234-.268-.158.046 0-.15-.1-.197-.134-.197h-.123v.366c.034-.12.06-.243.076-.366-.14.581-.286.25-.303.331-.1 0-.088.151-.234.151v.03c.035.029-.338.116-.315.156.024.041.1-.07.123-.104l-.292.058-.116.046a.251.251 0 00-.216.076h-.146a.221.221 0 000-.087.744.744 0 01.25 0c0-.14-.134-.151-.058-.35-.081.111-.227.356-.338.297a.087.087 0 010-.04s-.047 0-.064.029a.217.217 0 00-.105-.035c0-.116-.134-.052-.193-.052 0 .15-.07.133 0 .25l.047-.03h.146c-.041.082-.082.146-.152.07v.105h-.116c-.088-.128-.193-.215-.222-.308l-.14.058-.14.035a.372.372 0 00-.222.262c-.052.04-.07-.076-.093-.117-.023-.04.064-.029.076-.07-.1.082-.304.053-.31.25-.14-.075.053-.185-.122-.139v-.064c-.38-.29-.537.547-.963.174.03 0 .047.035.053.07-.473-.145-.904.256-1.388.041-.14-.035-.129.093-.187.198l-.03-.076a.123.123 0 01-.08.04l-.047.088c-.152.175-.415-.32-.584 0l.059.105c-.07 0-.181.075-.228.046-.39 0-.402-.11-.25-.256a2.99 2.99 0 011.212-.581c2.707-.582 5.717-1.105 8.097-1.588v-.052s-.081.035-.128.058c-.163 0 .064-.058-.204 0-.105 0-.105.046-.088.064a1.603 1.603 0 00-.379 0 .772.772 0 01.17 0s-.083 0-.083-.035c-.128 0-.046.052-.21.064l-.029.105c-.06.01-.121.023-.18.04.099 0 .075-.064.058-.081-.368.093-.053.116-.064.163a6.969 6.969 0 00-.904.192l.04-.053a.801.801 0 00-.239.082l-.21.04c.117-.04.152-.064.152-.098-.203.023-.4.08-.584.168-.297.035-.91.134-.892.11-.31.088-.712.129-.712.187-.18.058-.501 0-.612.128-.233 0 0 0 .04-.07-.221 0-.437.145-.518.081-.257.076.064 0 0 .059-.076-.07-.479.081-.735.093-.1.052.116 0-.065.064h-.134l-.04.058-.269-.07c-.356.14.087.07-.39.192-.2.02-.395.06-.584.122h-.14a1.317 1.317 0 00-.187.035c-.099 0-.058.047-.268.07.128-.047.081-.07 0-.07l-.257.151.088-.105c-.286.094-.584.408-.753.437l.111-.1s-.117 0-.274.193c-.047.064-.03.104 0 .035a.583.583 0 00-.117.122c0-.03.047-.146.17-.262.098-.096.206-.184.32-.262-.052.053-.187.169-.128.157a3.21 3.21 0 01.502-.337.354.354 0 00-.123.128c.198-.07.134-.099.286-.163.26-.082.457-.13.659-.14 0 0-.227.082-.093.076.379-.105.449-.174.863-.29.414-.117.95-.163 1.277-.28 0 0-.256 0-.04-.04 0 .046.14 0 .151 0 .228-.105.356-.065.514-.134H28s.233-.047-.076.081c.302-.074.596-.173.881-.297l-.1-.052.363-.145c.145 0 .174.064.384.075l-.303.187c.2-.033.395-.086.584-.158 0 .041-.216.059-.146.088.14-.03.278-.066.414-.11.379 0 .122-.123.414-.111V39.7c.105 0 .35 0 .117.058.116-.02.23-.055.338-.105h-.187l.52-.122c.058 0-.047 0-.117.04.636 0 1.23-.307 1.954-.313-.082 0 .04-.035.105-.07.233-.03.583-.099.782-.116l-.059.029c.531-.117.899-.21 1.249-.256 0 0 0 .035-.059.052.257-.087.584 0 .654-.11.42-.07.985-.221 1.522-.32.134.035-.309.058-.187.099.38-.041.753-.146 1.167-.192l-.081.029c.408-.03-.053-.047.291-.087 0 0 0 .029.117 0l.093-.064s0 .029-.029.046c.14-.081.583-.128.712-.198.128-.07-.047 0 0 .041.18 0 .309-.169.42-.169.11 0 .437.047.373.064.327-.029.047.047.292 0h-.263l.45-.075-.176.046c.216 0 .42-.081.665-.11h-.116l.28-.058c.035.058.355-.035.216.058.525-.04.845-.169 1.324-.239-.082 0-.047 0-.064.035.198-.02.394-.062.583-.128-.03 0-.093.035-.093.053.326-.047.192-.059.548-.128-.1.035-.064.046.04.04 0 0 .065-.046.129-.063-.257.157.408 0 .25.116 0-.03.584-.157.403-.18-.099-.03.024-.035.123-.053a.316.316 0 00-.111.035c.507-.11 1.05-.134 1.622-.238-.053 0-.28.07-.135.058.584-.047.899-.157 1.476-.25.03.07-.624.081-.636.157l1.896-.303c.251.088.654-.122 1.08-.075-.041-.035.163-.07.39-.093-.07.035.164 0 .1.04.198-.058.77-.133.758-.058.047-.07.431-.04.583-.11.251 0 .537-.064.858-.076-.117-.029.309-.052.425-.081.018.029.275-.07.461-.064.076 0 0 .04.117.035.21-.075.431-.106.653-.093a.311.311 0 00-.14.04c.84-.133 1.75-.151 2.602-.29l-.14.07c.542 0 .35-.123.776-.146l.992-.047c.169-.034.343-.034.513 0h.28l.91-.052a7.336 7.336 0 011.219-.04c.128 0 .07-.03.053-.053.198.017.393.056.583.116-.053.053-.164.117-.158.227.006.105-.274.198-.344.29zm-43.6 10.37c-.093.256-.448.733-.5.919 0-.035.04-.134 0-.123l-.188.413c.076-.197.082-.331-.081 0-.163.332.07-.081 0 .105l-.1.081c-.116.274-.093.373.065.053-.202.434-.37.883-.502 1.343.047 0 .088 0 .111-.035.087.035-.03.105 0 .187a.234.234 0 00-.14-.047 6.13 6.13 0 00-.216 1.245l-.029-.1c-.02.463.029.926.146 1.373 0 0 .07.11.052.041.257.489-.046.093.28.582-.093-.117-.175-.28-.21-.303.138.333.39.605.712.768.095.084.217.13.344.128.246.011.49-.051.7-.18 0 0-.116 0-.227.064.09-.042.177-.089.262-.14.077-.02.153-.046.228-.076.114-.099.22-.206.32-.32l.041.035c.24-.238.28-.39.455-.581.337-.39.634-.813.887-1.262.035-.201.096-.397.18-.582.083-.219.119-.453.106-.686.228-1.22.228-2.473 0-3.693l.029.099c-.1-.393-.25-.772-.443-1.129l.07.128a5.519 5.519 0 00-.619-1.221l-.268.395c-.1.227-.28.495-.25.53l-1.168 1.948-.046.04z" fill="#0077B2" fill-rule="nonzero"/>
    </g>
    <path fill="#000" d="M132.417 39.857l-5.005-13.237h2.193v-3.525h-11.083v3.53h2.152l-4.882 13.238-5.017-13.238h2.433v-3.53h-11.51v3.53h2.334l-4.865 13.232h-2.789v3.53h9.293v-3.53h-2.421l1.108-3.088h6.184l1.085 3.088h-2.404v3.53h12.834v-3.53h-2.182l1.103-3.088h6.189l1.079 3.088h-2.199v3.53h8.411v-3.53h-2.041zm-26.956-6.613l2.041-6.142 1.961 6.142h-4.002zm16.607 0l2.036-6.142 1.96 6.142h-3.996zM80.092 23.095v3.53h-1.768v13.232h1.768v3.53h-7.963V39.857h1.773V26.625H72.13V23.095zM95.38 34.146a5.617 5.617 0 00-2.216-2.123 21.516 21.516 0 00-3.82-1.28c-.865-.2-1.718-.449-2.556-.744a2.071 2.071 0 01-.863-.686 1.741 1.741 0 01-.327-1.042c.001-.521.247-1.012.665-1.326a2.742 2.742 0 011.931-.581 3.83 3.83 0 013.39 1.803v1.855h3.5V22.63h-3.5v1.064c-.882-.669-2.503-.919-3.588-.919a6.306 6.306 0 00-4.37 1.588 5.285 5.285 0 00-1.75 4.182c-.02 1.1.275 2.184.852 3.123a5.59 5.59 0 002.223 1.96 23.414 23.414 0 003.96 1.343c1.01.204 1.978.58 2.859 1.111.439.383.658.959.583 1.536a2.323 2.323 0 01-.793 1.872 3.074 3.074 0 01-2.094.74c-1.581 0-2.683-.792-4.008-2.717v-1.518h-3.54v7.398h3.54v-.867c1.26.8 2.719 1.231 4.212 1.245a6.802 6.802 0 004.72-1.745 5.866 5.866 0 001.924-4.484 6.383 6.383 0 00-.933-3.396z"/>
    <path fill="#000" d="M149.8 34.971l-.146.413a6.78 6.78 0 01-2.164 3.153 5.844 5.844 0 01-3.669 1.29 5.701 5.701 0 01-4.229-1.86 7.01 7.01 0 010-9.381 5.7 5.7 0 014.229-1.867c1.336 0 2.631.458 3.669 1.296a6.295 6.295 0 011.657 2.007h3.552V22.63h-3.541v1.553a11.106 11.106 0 00-5.541-1.402c-3.121 0-5.664 1.03-7.584 3.053a10.625 10.625 0 00-2.852 7.317v.233a10.6 10.6 0 002.876 7.328c1.896 2.03 4.439 3.059 7.583 3.059a10.932 10.932 0 006.277-1.896 9.1 9.1 0 003.645-5.153l.111-.401-3.873-1.35z"/>
</svg>
