<svg width="1920" height="1080" viewBox="0 0 1920 1080" fill="none" xmlns="http://www.w3.org/2000/svg">
<rect width="1920" height="1080" fill="white"/>
<path d="M271.496 446.744C278.099 446.744 283.452 441.391 283.452 434.787C283.452 428.184 278.099 422.831 271.496 422.831C264.892 422.831 259.539 428.184 259.539 434.787C259.539 441.391 264.892 446.744 271.496 446.744Z" fill="url(#paint0_radial_102_383)"/>
<path d="M271.496 446.744C278.099 446.744 283.452 441.391 283.452 434.787C283.452 428.184 278.099 422.831 271.496 422.831C264.892 422.831 259.539 428.184 259.539 434.787C259.539 441.391 264.892 446.744 271.496 446.744Z" fill="url(#paint1_radial_102_383)"/>
<g filter="url(#filter0_i_102_383)">
<path d="M252.719 420.302C256.183 420.302 258.991 417.494 258.991 414.03C258.991 410.566 256.183 407.758 252.719 407.758C249.255 407.758 246.447 410.566 246.447 414.03C246.447 417.494 249.255 420.302 252.719 420.302Z" fill="url(#paint2_radial_102_383)"/>
<path d="M252.719 420.302C256.183 420.302 258.991 417.494 258.991 414.03C258.991 410.566 256.183 407.758 252.719 407.758C249.255 407.758 246.447 410.566 246.447 414.03C246.447 417.494 249.255 420.302 252.719 420.302Z" fill="url(#paint3_radial_102_383)"/>
</g>
<g filter="url(#filter1_i_102_383)">
<path d="M303.772 403.098C310.239 396.632 319.009 393 328.154 393C337.299 393 346.069 396.632 352.536 403.098L381.902 432.464C388.368 438.931 392 447.701 392 456.846C392 465.991 388.368 474.761 381.902 481.228L330.228 532.902C323.761 539.368 314.991 543 305.846 543C296.701 543 287.931 539.368 281.464 532.902L252.098 503.536C245.632 497.069 242 488.299 242 479.154C242 470.009 245.632 461.239 252.098 454.772L303.772 403.098Z" fill="url(#paint4_linear_102_383)"/>
<path d="M303.772 403.098C310.239 396.632 319.009 393 328.154 393C337.299 393 346.069 396.632 352.536 403.098L381.902 432.464C388.368 438.931 392 447.701 392 456.846C392 465.991 388.368 474.761 381.902 481.228L330.228 532.902C323.761 539.368 314.991 543 305.846 543C296.701 543 287.931 539.368 281.464 532.902L252.098 503.536C245.632 497.069 242 488.299 242 479.154C242 470.009 245.632 461.239 252.098 454.772L303.772 403.098Z" fill="url(#paint5_radial_102_383)"/>
<path d="M303.772 403.098C310.239 396.632 319.009 393 328.154 393C337.299 393 346.069 396.632 352.536 403.098L381.902 432.464C388.368 438.931 392 447.701 392 456.846C392 465.991 388.368 474.761 381.902 481.228L330.228 532.902C323.761 539.368 314.991 543 305.846 543C296.701 543 287.931 539.368 281.464 532.902L252.098 503.536C245.632 497.069 242 488.299 242 479.154C242 470.009 245.632 461.239 252.098 454.772L303.772 403.098Z" fill="url(#paint6_radial_102_383)"/>
<path d="M303.772 403.098C310.239 396.632 319.009 393 328.154 393C337.299 393 346.069 396.632 352.536 403.098L381.902 432.464C388.368 438.931 392 447.701 392 456.846C392 465.991 388.368 474.761 381.902 481.228L330.228 532.902C323.761 539.368 314.991 543 305.846 543C296.701 543 287.931 539.368 281.464 532.902L252.098 503.536C245.632 497.069 242 488.299 242 479.154C242 470.009 245.632 461.239 252.098 454.772L303.772 403.098Z" fill="url(#paint7_radial_102_383)"/>
<path d="M303.772 403.098C310.239 396.632 319.009 393 328.154 393C337.299 393 346.069 396.632 352.536 403.098L381.902 432.464C388.368 438.931 392 447.701 392 456.846C392 465.991 388.368 474.761 381.902 481.228L330.228 532.902C323.761 539.368 314.991 543 305.846 543C296.701 543 287.931 539.368 281.464 532.902L252.098 503.536C245.632 497.069 242 488.299 242 479.154C242 470.009 245.632 461.239 252.098 454.772L303.772 403.098Z" fill="url(#paint8_radial_102_383)"/>
<path d="M303.772 403.098C310.239 396.632 319.009 393 328.154 393C337.299 393 346.069 396.632 352.536 403.098L381.902 432.464C388.368 438.931 392 447.701 392 456.846C392 465.991 388.368 474.761 381.902 481.228L330.228 532.902C323.761 539.368 314.991 543 305.846 543C296.701 543 287.931 539.368 281.464 532.902L252.098 503.536C245.632 497.069 242 488.299 242 479.154C242 470.009 245.632 461.239 252.098 454.772L303.772 403.098Z" fill="url(#paint9_radial_102_383)"/>
<path d="M303.772 403.098C310.239 396.632 319.009 393 328.154 393C337.299 393 346.069 396.632 352.536 403.098L381.902 432.464C388.368 438.931 392 447.701 392 456.846C392 465.991 388.368 474.761 381.902 481.228L330.228 532.902C323.761 539.368 314.991 543 305.846 543C296.701 543 287.931 539.368 281.464 532.902L252.098 503.536C245.632 497.069 242 488.299 242 479.154C242 470.009 245.632 461.239 252.098 454.772L303.772 403.098Z" fill="url(#paint10_radial_102_383)"/>
</g>
<g filter="url(#filter2_f_102_383)">
<path d="M368.167 446.679L338.323 416.834C332.01 410.521 321.775 410.521 315.462 416.834L265.832 466.465C259.519 472.777 259.519 483.012 265.832 489.325L295.676 519.17C301.989 525.483 312.224 525.483 318.537 519.17L368.167 469.539C374.48 463.227 374.48 452.991 368.167 446.679Z" fill="url(#paint11_linear_102_383)"/>
<path d="M368.167 446.679L338.323 416.834C332.01 410.521 321.775 410.521 315.462 416.834L265.832 466.465C259.519 472.777 259.519 483.012 265.832 489.325L295.676 519.17C301.989 525.483 312.224 525.483 318.537 519.17L368.167 469.539C374.48 463.227 374.48 452.991 368.167 446.679Z" fill="url(#paint12_linear_102_383)"/>
<path d="M368.644 446.201L338.799 416.357C332.223 409.781 321.562 409.781 314.986 416.357L265.356 465.987C258.78 472.563 258.78 483.225 265.356 489.8L295.2 519.645C301.776 526.221 312.437 526.221 319.013 519.645L368.644 470.015C375.22 463.439 375.22 452.777 368.644 446.201Z" stroke="url(#paint13_linear_102_383)" stroke-width="0.25"/>
</g>
<g filter="url(#filter3_i_102_383)">
<path d="M259.541 471.999C269.121 471.999 276.886 464.233 276.886 454.654C276.886 445.074 269.121 437.309 259.541 437.309C249.962 437.309 242.196 445.074 242.196 454.654C242.196 464.233 249.962 471.999 259.541 471.999Z" fill="url(#paint14_radial_102_383)"/>
<path d="M259.541 471.999C269.121 471.999 276.886 464.233 276.886 454.654C276.886 445.074 269.121 437.309 259.541 437.309C249.962 437.309 242.196 445.074 242.196 454.654C242.196 464.233 249.962 471.999 259.541 471.999Z" fill="url(#paint15_radial_102_383)"/>
<path d="M259.541 471.999C269.121 471.999 276.886 464.233 276.886 454.654C276.886 445.074 269.121 437.309 259.541 437.309C249.962 437.309 242.196 445.074 242.196 454.654C242.196 464.233 249.962 471.999 259.541 471.999Z" fill="url(#paint16_radial_102_383)"/>
</g>
<g filter="url(#filter4_f_102_383)">
<path d="M313.695 522.503L321.519 413.013C324.395 412.001 327.499 411.824 330.472 412.501C333.445 413.178 336.165 414.681 338.32 416.839L368.166 446.679C371.196 449.71 372.899 453.821 372.899 458.108C372.899 462.394 371.196 466.505 368.166 469.536L318.539 519.163C317.143 520.564 315.501 521.696 313.695 522.503Z" fill="url(#paint17_linear_102_383)"/>
<path d="M313.695 522.503L321.519 413.013C324.395 412.001 327.499 411.824 330.472 412.501C333.445 413.178 336.165 414.681 338.32 416.839L368.166 446.679C371.196 449.71 372.899 453.821 372.899 458.108C372.899 462.394 371.196 466.505 368.166 469.536L318.539 519.163C317.143 520.564 315.501 521.696 313.695 522.503Z" fill="url(#paint18_radial_102_383)"/>
</g>
<path d="M347.433 538.846C355.569 538.846 362.164 532.25 362.164 524.114C362.164 515.978 355.569 509.383 347.433 509.383C339.297 509.383 332.701 515.978 332.701 524.114C332.701 532.25 339.297 538.846 347.433 538.846Z" fill="url(#paint19_radial_102_383)"/>
<path d="M347.433 538.846C355.569 538.846 362.164 532.25 362.164 524.114C362.164 515.978 355.569 509.383 347.433 509.383C339.297 509.383 332.701 515.978 332.701 524.114C332.701 532.25 339.297 538.846 347.433 538.846Z" fill="url(#paint20_radial_102_383)"/>
<g filter="url(#filter5_i_102_383)">
<path d="M366.753 527.104C380.681 527.104 391.971 515.814 391.971 501.887C391.971 487.96 380.681 476.669 366.753 476.669C352.826 476.669 341.536 487.96 341.536 501.887C341.536 515.814 352.826 527.104 366.753 527.104Z" fill="url(#paint21_radial_102_383)"/>
<path d="M366.753 527.104C380.681 527.104 391.971 515.814 391.971 501.887C391.971 487.96 380.681 476.669 366.753 476.669C352.826 476.669 341.536 487.96 341.536 501.887C341.536 515.814 352.826 527.104 366.753 527.104Z" fill="url(#paint22_radial_102_383)"/>
<path d="M366.753 527.104C380.681 527.104 391.971 515.814 391.971 501.887C391.971 487.96 380.681 476.669 366.753 476.669C352.826 476.669 341.536 487.96 341.536 501.887C341.536 515.814 352.826 527.104 366.753 527.104Z" fill="url(#paint23_radial_102_383)"/>
</g>
<path d="M366.753 527.104C380.681 527.104 391.971 515.814 391.971 501.887C391.971 487.96 380.681 476.67 366.753 476.67C352.826 476.67 341.536 487.96 341.536 501.887C341.536 515.814 352.826 527.104 366.753 527.104Z" fill="url(#paint24_radial_102_383)"/>
<path d="M668.159 503.385L673.55 506.498L733.606 402.48L728.215 399.368L668.159 503.385Z" fill="#E535AB"/>
<path d="M787.037 495.075H666.925V501.3H787.037V495.075Z" fill="#E535AB"/>
<path d="M669.302 498.572L729.381 533.26L732.493 527.869L672.415 493.181L669.302 498.572Z" fill="#E535AB"/>
<path d="M721.493 408.167L781.571 442.855L784.684 437.464L724.605 402.777L721.493 408.167Z" fill="#E535AB"/>
<path d="M669.318 437.44L672.431 442.831L732.509 408.144L729.397 402.753L669.318 437.44Z" fill="#E535AB"/>
<path d="M720.407 402.482L780.463 506.499L785.854 503.387L725.797 399.369L720.407 402.482Z" fill="#E535AB"/>
<path d="M677.912 433.312H671.688V502.688H677.912V433.312Z" fill="#E535AB"/>
<path d="M782.312 433.312H776.087V502.688H782.312V433.312Z" fill="#E535AB"/>
<path d="M725.602 525.916L728.32 530.625L780.573 500.456L777.854 495.747L725.602 525.916Z" fill="#E535AB"/>
<path d="M790.562 504.713C786.962 510.975 778.937 513.113 772.674 509.513C766.412 505.913 764.274 497.888 767.874 491.625C771.474 485.363 779.499 483.225 785.762 486.825C792.062 490.463 794.199 498.45 790.562 504.713Z" fill="#E535AB"/>
<path d="M686.087 444.375C682.487 450.638 674.462 452.775 668.2 449.175C661.937 445.575 659.8 437.55 663.4 431.288C667 425.025 675.025 422.888 681.287 426.488C687.55 430.125 689.687 438.113 686.087 444.375Z" fill="#E535AB"/>
<path d="M663.437 504.713C659.837 498.45 661.974 490.463 668.237 486.825C674.499 483.225 682.487 485.363 686.124 491.625C689.724 497.888 687.587 505.875 681.324 509.513C675.024 513.113 667.037 510.975 663.437 504.713Z" fill="#E535AB"/>
<path d="M767.913 444.375C764.313 438.113 766.45 430.125 772.713 426.488C778.975 422.888 786.963 425.025 790.6 431.288C794.2 437.55 792.063 445.538 785.8 449.175C779.538 452.775 771.513 450.638 767.913 444.375Z" fill="#E535AB"/>
<path d="M727 541.425C719.762 541.425 713.912 535.575 713.912 528.337C713.912 521.1 719.762 515.25 727 515.25C734.237 515.25 740.087 521.1 740.087 528.337C740.087 535.538 734.237 541.425 727 541.425Z" fill="#E535AB"/>
<path d="M727 420.75C719.762 420.75 713.912 414.9 713.912 407.663C713.912 400.425 719.762 394.575 727 394.575C734.237 394.575 740.087 400.425 740.087 407.663C740.087 414.9 734.237 420.75 727 420.75Z" fill="#E535AB"/>
<path d="M1448 493V443H1460.54V459.667H1477.25V443H1489.79V493H1477.25V472.167H1460.54V493H1448ZM1510.68 493V455.5H1498.15V443H1535.76V455.5H1523.22V493H1510.68ZM1556.65 493V455.5H1544.11V443H1581.72V455.5H1569.19V493H1556.65ZM1590.08 493V443H1619.33C1622.68 443 1625.6 444.25 1628.11 446.75C1630.62 449.25 1631.87 452.167 1631.87 455.5V463.833C1631.87 467.167 1630.62 470.083 1628.11 472.583C1625.6 475.083 1622.68 476.333 1619.33 476.333H1602.62V493H1590.08ZM1602.62 463.833H1619.33V455.5H1602.62V463.833Z" fill="black"/>
<g clip-path="url(#clip0_102_383)">
<path d="M1076.07 513.238H1086.89V518.723H1076.07V531.17C1076.05 532.063 1076.17 532.954 1076.43 533.808C1076.63 534.442 1076.98 535.016 1077.46 535.48C1077.92 535.912 1078.47 536.224 1079.08 536.39C1079.69 536.552 1080.32 536.641 1080.94 536.654L1081.21 536.655C1081.78 536.655 1082.36 536.655 1082.97 536.575L1083.33 536.531L1084.02 536.452C1084.25 536.426 1084.47 536.397 1084.69 536.36L1085.02 536.308L1085.63 536.218C1085.82 536.188 1086.02 536.157 1086.2 536.12L1086.66 536.029L1086.87 535.985L1087.26 535.898L1087.44 535.856L1088.16 540.965C1087.58 541.295 1086.96 541.559 1086.32 541.752C1085.59 541.983 1084.85 542.165 1084.09 542.3C1083.31 542.447 1082.49 542.558 1081.63 542.638C1080.8 542.716 1079.96 542.755 1079.13 542.755C1077.67 542.776 1076.21 542.569 1074.82 542.14C1073.57 541.753 1072.44 541.079 1071.51 540.172C1070.54 539.231 1069.82 538.077 1069.39 536.802C1068.85 535.219 1068.6 533.554 1068.64 531.883V518.723H1062V513.238H1068.62V506.148H1076.07V513.238H1076.07ZM1102.59 527.634V542.195H1095.06V503.227H1108.17C1110.15 503.202 1112.12 503.459 1114.03 503.989C1115.66 504.439 1117.19 505.199 1118.53 506.228C1119.77 507.21 1120.74 508.476 1121.38 509.917C1122.08 511.52 1122.43 513.255 1122.39 515.003C1122.41 516.273 1122.24 517.538 1121.89 518.76C1121.3 520.884 1120.02 522.752 1118.25 524.073C1117.35 524.754 1116.38 525.329 1115.34 525.789L1123.73 541.869V542.22H1115.63L1108.3 527.634H1102.59ZM1102.6 521.521H1108.17C1109.21 521.542 1110.26 521.375 1111.25 521.03C1112.07 520.736 1112.81 520.244 1113.41 519.597C1113.87 519.083 1114.22 518.483 1114.45 517.831C1114.67 517.164 1114.79 516.467 1114.8 515.764L1114.8 515.501C1114.82 514.565 1114.66 513.635 1114.34 512.759C1114.04 511.995 1113.56 511.318 1112.93 510.791C1112.33 510.305 1111.64 509.941 1110.89 509.721C1110.1 509.489 1109.28 509.363 1108.45 509.347L1102.6 509.345V521.521ZM1136 542.195H1128.48V503.227H1141.82C1143.78 503.199 1145.73 503.511 1147.58 504.15C1149.2 504.707 1150.69 505.576 1151.98 506.707C1153.17 507.816 1154.11 509.166 1154.75 510.668C1155.37 512.186 1155.7 513.808 1155.72 515.45V515.778C1155.74 517.444 1155.41 519.095 1154.75 520.623C1154.11 522.083 1153.16 523.387 1151.98 524.448C1150.69 525.58 1149.19 526.445 1147.56 526.994C1145.71 527.625 1143.76 527.933 1141.8 527.904H1135.99L1136 542.195ZM1136 521.804H1141.81C1142.76 521.823 1143.71 521.658 1144.6 521.318C1145.34 521.026 1146.02 520.58 1146.58 520.009C1147.09 519.458 1147.49 518.807 1147.74 518.096C1148 517.37 1148.14 516.604 1148.14 515.833C1148.14 514.971 1148.01 514.114 1147.74 513.294C1147.5 512.533 1147.1 511.83 1146.58 511.227C1146.02 510.628 1145.35 510.154 1144.6 509.838C1143.71 509.48 1142.76 509.306 1141.81 509.327H1136V521.804ZM1186.72 535.29C1186.03 536.809 1185.05 538.175 1183.82 539.305C1182.55 540.436 1181.08 541.306 1179.48 541.863C1177.8 542.436 1176.05 542.737 1174.28 542.756L1173.9 542.755C1172.39 542.773 1170.89 542.566 1169.44 542.14C1168.12 541.746 1166.87 541.135 1165.75 540.332C1164.74 539.586 1163.84 538.693 1163.09 537.682C1162.3 536.623 1161.63 535.473 1161.12 534.257C1160.58 532.929 1160.18 531.548 1159.93 530.136C1159.64 528.564 1159.5 526.969 1159.51 525.371V520.125C1159.51 518.623 1159.63 517.123 1159.89 515.642C1160.09 514.441 1160.42 513.262 1160.85 512.121L1161.01 511.695C1161.56 510.267 1162.32 508.932 1163.27 507.734C1164.16 506.602 1165.23 505.611 1166.42 504.795C1167.5 504.103 1168.67 503.575 1169.89 503.227C1171.09 502.886 1172.33 502.702 1173.58 502.681L1173.95 502.68C1175.9 502.646 1177.83 502.954 1179.67 503.589C1181.26 504.136 1182.71 505.018 1183.93 506.177C1185.15 507.336 1186.11 508.744 1186.73 510.305C1187.44 512.056 1187.87 513.907 1188.02 515.79H1180.52C1180.47 514.747 1180.3 513.715 1180 512.715C1179.76 511.909 1179.35 511.161 1178.81 510.52C1178.25 509.937 1177.57 509.493 1176.81 509.222C1175.89 508.908 1174.93 508.758 1173.96 508.78C1173.4 508.778 1172.85 508.842 1172.31 508.971C1171.82 509.09 1171.34 509.279 1170.9 509.53C1170.15 509.99 1169.52 510.623 1169.06 511.375C1168.52 512.237 1168.1 513.171 1167.83 514.148C1167.58 515.039 1167.41 515.948 1167.32 516.866C1167.21 517.928 1167.16 518.996 1167.16 520.064V525.359C1167.15 526.75 1167.23 528.141 1167.41 529.522C1167.55 530.614 1167.82 531.688 1168.2 532.719C1168.43 533.307 1168.73 533.864 1169.1 534.38C1169.43 534.852 1169.83 535.267 1170.29 535.609C1170.78 535.969 1171.33 536.235 1171.91 536.396C1172.56 536.576 1173.23 536.663 1173.91 536.655C1174.81 536.665 1175.7 536.539 1176.56 536.28C1177.31 536.048 1178 535.644 1178.57 535.099C1179.16 534.518 1179.61 533.814 1179.88 533.039C1180.24 532.067 1180.45 531.047 1180.5 530.014H1188.03C1187.92 531.837 1187.48 533.625 1186.72 535.29H1186.72ZM1153.76 438.444L1172.7 449.371V471.238L1153.76 482.166L1145.34 477.306L1124.89 489.102L1104.56 477.374L1096.27 482.165L1077.32 471.22V449.37L1096.27 438.443L1115.22 449.371V471.219L1109.48 474.531L1124.89 483.42L1140.42 474.463L1134.81 471.219V449.37L1153.76 438.443V438.444ZM1139.73 455.066V468.403L1151.29 475.07V461.732L1139.73 455.066ZM1167.78 455.047L1156.22 461.713V475.07L1167.78 468.385V455.047ZM1082.25 455.047V468.385L1093.81 475.051V461.713L1082.25 455.047ZM1110.29 455.047L1098.73 461.713V475.05L1110.29 468.385V455.047L1110.29 455.047ZM1153.76 444.138L1142.2 450.804L1153.76 457.476L1165.31 450.804L1153.76 444.138ZM1096.27 444.12L1084.71 450.804L1096.27 457.458L1107.83 450.804L1096.27 444.12ZM1105.69 410.225V415.9L1088.16 426.017V443.118L1083.24 445.959V423.175L1105.69 410.224L1105.69 410.225ZM1124.64 393L1143.6 403.927V409.937L1166.55 423.175V445.817L1161.62 442.976V426.016L1143.6 415.619V425.782L1124.65 436.71L1105.71 425.782V403.927L1124.64 393ZM1110.63 409.603V422.941L1122.18 429.607V416.275L1110.63 409.603H1110.63ZM1138.66 409.603L1127.11 416.275V429.601L1138.66 422.941V409.603H1138.66ZM1124.64 398.682L1113.09 405.348L1124.64 412.014L1136.2 405.348L1124.64 398.682H1124.64Z" fill="#398CCB"/>
</g>
<path d="M245.304 675L235.361 638.636H239.836L247.435 668.253H247.79L255.532 638.636H260.503L268.245 668.253H268.6L276.199 638.636H280.674L270.731 675H266.185L258.16 646.023H257.875L249.85 675H245.304ZM306.047 647.727C305.834 645.928 304.969 644.531 303.454 643.537C301.939 642.543 300.081 642.045 297.879 642.045C296.269 642.045 294.861 642.306 293.653 642.827C292.458 643.348 291.522 644.064 290.848 644.975C290.185 645.887 289.853 646.922 289.853 648.082C289.853 649.053 290.084 649.888 290.546 650.586C291.019 651.272 291.623 651.847 292.357 652.308C293.091 652.758 293.86 653.131 294.665 653.427C295.47 653.711 296.21 653.942 296.885 654.119L300.578 655.114C301.525 655.362 302.578 655.705 303.738 656.143C304.91 656.581 306.029 657.179 307.094 657.937C308.171 658.683 309.059 659.641 309.758 660.813C310.456 661.985 310.805 663.423 310.805 665.128C310.805 667.093 310.29 668.868 309.26 670.455C308.242 672.041 306.751 673.301 304.786 674.237C302.833 675.172 300.459 675.639 297.666 675.639C295.062 675.639 292.807 675.219 290.901 674.379C289.007 673.538 287.516 672.366 286.427 670.863C285.349 669.36 284.74 667.614 284.598 665.625H289.143C289.262 666.998 289.723 668.134 290.528 669.034C291.345 669.922 292.375 670.585 293.618 671.023C294.872 671.449 296.222 671.662 297.666 671.662C299.347 671.662 300.856 671.39 302.194 670.845C303.531 670.289 304.591 669.519 305.372 668.537C306.153 667.543 306.544 666.383 306.544 665.057C306.544 663.849 306.206 662.867 305.532 662.109C304.857 661.352 303.969 660.736 302.868 660.263C301.767 659.789 300.578 659.375 299.299 659.02L294.825 657.741C291.984 656.925 289.735 655.759 288.078 654.244C286.421 652.728 285.592 650.746 285.592 648.295C285.592 646.259 286.142 644.484 287.243 642.969C288.356 641.442 289.848 640.258 291.718 639.418C293.6 638.565 295.701 638.139 298.021 638.139C300.365 638.139 302.448 638.559 304.271 639.4C306.094 640.228 307.538 641.365 308.603 642.809C309.681 644.253 310.249 645.893 310.308 647.727H306.047ZM329.267 675H318.045V638.636H329.764C333.291 638.636 336.31 639.364 338.819 640.82C341.329 642.264 343.252 644.342 344.59 647.053C345.927 649.751 346.596 652.983 346.596 656.747C346.596 660.535 345.921 663.796 344.572 666.531C343.223 669.253 341.258 671.348 338.677 672.816C336.097 674.272 332.96 675 329.267 675ZM322.448 671.094H328.983C331.989 671.094 334.481 670.514 336.458 669.354C338.434 668.194 339.908 666.542 340.879 664.4C341.849 662.257 342.335 659.706 342.335 656.747C342.335 653.812 341.855 651.284 340.897 649.165C339.938 647.035 338.505 645.401 336.6 644.265C334.694 643.117 332.321 642.543 329.48 642.543H322.448V671.094ZM353.983 675V638.636H358.386V671.094H375.289V675H353.983Z" fill="black"/>
<path d="M650.746 647.727C650.533 645.928 649.669 644.531 648.153 643.537C646.638 642.543 644.78 642.045 642.578 642.045C640.968 642.045 639.56 642.306 638.352 642.827C637.157 643.348 636.222 644.064 635.547 644.975C634.884 645.887 634.553 646.922 634.553 648.082C634.553 649.053 634.783 649.888 635.245 650.586C635.719 651.272 636.322 651.847 637.056 652.308C637.79 652.758 638.56 653.131 639.364 653.427C640.169 653.711 640.909 653.942 641.584 654.119L645.277 655.114C646.224 655.362 647.278 655.705 648.438 656.143C649.609 656.581 650.728 657.179 651.793 657.937C652.871 658.683 653.758 659.641 654.457 660.813C655.155 661.985 655.504 663.423 655.504 665.128C655.504 667.093 654.989 668.868 653.96 670.455C652.942 672.041 651.45 673.301 649.485 674.237C647.532 675.172 645.159 675.639 642.365 675.639C639.761 675.639 637.506 675.219 635.6 674.379C633.706 673.538 632.215 672.366 631.126 670.863C630.049 669.36 629.439 667.614 629.297 665.625H633.842C633.961 666.998 634.422 668.134 635.227 669.034C636.044 669.922 637.074 670.585 638.317 671.023C639.572 671.449 640.921 671.662 642.365 671.662C644.046 671.662 645.555 671.39 646.893 670.845C648.23 670.289 649.29 669.519 650.071 668.537C650.852 667.543 651.243 666.383 651.243 665.057C651.243 663.849 650.906 662.867 650.231 662.109C649.556 661.352 648.668 660.736 647.568 660.263C646.467 659.789 645.277 659.375 643.999 659.02L639.524 657.741C636.683 656.925 634.434 655.759 632.777 654.244C631.12 652.728 630.291 650.746 630.291 648.295C630.291 646.259 630.842 644.484 631.943 642.969C633.055 641.442 634.547 640.258 636.417 639.418C638.299 638.565 640.4 638.139 642.72 638.139C645.064 638.139 647.147 638.559 648.97 639.4C650.793 640.228 652.237 641.365 653.303 642.809C654.38 644.253 654.948 645.893 655.007 647.727H650.746ZM673.256 675.568C670.699 675.568 668.497 674.964 666.65 673.757C664.804 672.55 663.383 670.887 662.389 668.768C661.395 666.649 660.898 664.228 660.898 661.506C660.898 658.736 661.407 656.291 662.425 654.173C663.454 652.042 664.887 650.379 666.722 649.183C668.568 647.976 670.722 647.372 673.185 647.372C675.102 647.372 676.83 647.727 678.369 648.438C679.908 649.148 681.169 650.142 682.151 651.42C683.134 652.699 683.743 654.19 683.98 655.895H679.79C679.47 654.652 678.76 653.551 677.659 652.592C676.57 651.622 675.102 651.136 673.256 651.136C671.622 651.136 670.19 651.562 668.959 652.415C667.739 653.255 666.787 654.445 666.1 655.984C665.425 657.511 665.088 659.304 665.088 661.364C665.088 663.471 665.419 665.305 666.082 666.868C666.757 668.43 667.704 669.644 668.923 670.508C670.154 671.372 671.598 671.804 673.256 671.804C674.345 671.804 675.333 671.615 676.221 671.236C677.109 670.857 677.86 670.312 678.476 669.602C679.091 668.892 679.529 668.04 679.79 667.045H683.98C683.743 668.655 683.157 670.105 682.222 671.396C681.299 672.674 680.074 673.692 678.547 674.45C677.032 675.195 675.268 675.568 673.256 675.568ZM694.296 658.594V675H690.106V638.636H694.296V651.989H694.651C695.29 650.58 696.249 649.461 697.528 648.633C698.818 647.792 700.534 647.372 702.677 647.372C704.535 647.372 706.163 647.745 707.56 648.491C708.956 649.225 710.039 650.355 710.809 651.882C711.59 653.397 711.981 655.327 711.981 657.67V675H707.79V657.955C707.79 655.788 707.228 654.113 706.104 652.93C704.991 651.734 703.446 651.136 701.469 651.136C700.096 651.136 698.865 651.426 697.776 652.006C696.699 652.586 695.847 653.433 695.219 654.545C694.604 655.658 694.296 657.008 694.296 658.594ZM731.081 675.568C728.454 675.568 726.187 674.988 724.281 673.828C722.387 672.656 720.925 671.023 719.895 668.928C718.877 666.821 718.368 664.37 718.368 661.577C718.368 658.783 718.877 656.321 719.895 654.19C720.925 652.048 722.357 650.379 724.192 649.183C726.039 647.976 728.193 647.372 730.655 647.372C732.076 647.372 733.478 647.609 734.863 648.082C736.248 648.556 737.509 649.325 738.645 650.391C739.782 651.444 740.687 652.841 741.362 654.581C742.037 656.321 742.374 658.464 742.374 661.009V662.784H721.351V659.162H738.113C738.113 657.623 737.805 656.25 737.189 655.043C736.586 653.835 735.722 652.882 734.597 652.184C733.484 651.486 732.17 651.136 730.655 651.136C728.986 651.136 727.542 651.551 726.323 652.379C725.116 653.196 724.186 654.261 723.535 655.575C722.884 656.889 722.559 658.298 722.559 659.801V662.216C722.559 664.276 722.914 666.022 723.624 667.454C724.346 668.874 725.346 669.957 726.625 670.703C727.903 671.437 729.389 671.804 731.081 671.804C732.182 671.804 733.177 671.65 734.064 671.342C734.964 671.023 735.739 670.549 736.39 669.922C737.041 669.283 737.544 668.49 737.9 667.543L741.948 668.679C741.522 670.052 740.806 671.259 739.799 672.301C738.793 673.331 737.55 674.136 736.071 674.716C734.591 675.284 732.928 675.568 731.081 675.568ZM748.748 675V647.727H752.797V651.989H753.152C753.72 650.533 754.637 649.402 755.904 648.597C757.17 647.781 758.691 647.372 760.467 647.372C762.266 647.372 763.764 647.781 764.959 648.597C766.167 649.402 767.108 650.533 767.782 651.989H768.066C768.765 650.58 769.812 649.461 771.209 648.633C772.606 647.792 774.281 647.372 776.234 647.372C778.673 647.372 780.667 648.136 782.218 649.663C783.768 651.178 784.544 653.539 784.544 656.747V675H780.353V656.747C780.353 654.735 779.803 653.297 778.702 652.433C777.601 651.568 776.305 651.136 774.814 651.136C772.896 651.136 771.41 651.716 770.357 652.876C769.303 654.025 768.777 655.481 768.777 657.244V675H764.515V656.321C764.515 654.77 764.012 653.522 763.006 652.575C762 651.616 760.704 651.136 759.118 651.136C758.029 651.136 757.011 651.426 756.064 652.006C755.129 652.586 754.371 653.391 753.791 654.421C753.223 655.439 752.939 656.617 752.939 657.955V675H748.748ZM800.231 675.639C798.503 675.639 796.934 675.314 795.526 674.663C794.117 674 792.998 673.047 792.17 671.804C791.341 670.549 790.927 669.034 790.927 667.259C790.927 665.696 791.235 664.429 791.85 663.459C792.466 662.476 793.288 661.707 794.318 661.151C795.348 660.594 796.484 660.18 797.727 659.908C798.982 659.624 800.243 659.399 801.509 659.233C803.167 659.02 804.51 658.86 805.54 658.754C806.582 658.635 807.339 658.44 807.813 658.168C808.298 657.895 808.541 657.422 808.541 656.747V656.605C808.541 654.853 808.061 653.492 807.102 652.521C806.155 651.551 804.717 651.065 802.788 651.065C800.787 651.065 799.219 651.503 798.082 652.379C796.946 653.255 796.147 654.19 795.685 655.185L791.708 653.764C792.418 652.107 793.365 650.817 794.549 649.893C795.745 648.958 797.047 648.307 798.455 647.94C799.876 647.562 801.273 647.372 802.646 647.372C803.522 647.372 804.528 647.479 805.664 647.692C806.812 647.893 807.919 648.313 808.984 648.952C810.062 649.592 810.955 650.556 811.666 651.847C812.376 653.137 812.731 654.865 812.731 657.031V675H808.541V671.307H808.328C808.043 671.899 807.57 672.532 806.907 673.207C806.244 673.881 805.362 674.455 804.261 674.929C803.161 675.402 801.817 675.639 800.231 675.639ZM800.87 671.875C802.527 671.875 803.924 671.549 805.06 670.898C806.209 670.247 807.073 669.407 807.653 668.377C808.245 667.347 808.541 666.264 808.541 665.128V661.293C808.363 661.506 807.972 661.701 807.369 661.879C806.777 662.044 806.09 662.192 805.309 662.322C804.54 662.441 803.788 662.547 803.054 662.642C802.332 662.725 801.746 662.796 801.296 662.855C800.207 662.997 799.189 663.228 798.242 663.548C797.307 663.855 796.55 664.323 795.97 664.95C795.401 665.566 795.117 666.406 795.117 667.472C795.117 668.928 795.656 670.028 796.733 670.774C797.822 671.508 799.201 671.875 800.87 671.875Z" fill="black"/>
<path d="M999.778 642.543V638.636H1027.05V642.543H1015.62V675H1011.21V642.543H999.778ZM1032.85 685.227C1032.14 685.227 1031.51 685.168 1030.95 685.05C1030.4 684.943 1030.01 684.837 1029.8 684.73L1030.86 681.037C1031.88 681.297 1032.78 681.392 1033.56 681.321C1034.34 681.25 1035.04 680.901 1035.64 680.273C1036.26 679.658 1036.82 678.658 1037.33 677.273L1038.11 675.142L1028.02 647.727H1032.57L1040.1 669.46H1040.38L1047.91 647.727H1052.45L1040.88 678.977C1040.36 680.386 1039.71 681.552 1038.94 682.475C1038.17 683.41 1037.28 684.103 1036.26 684.553C1035.26 685.002 1034.12 685.227 1032.85 685.227ZM1057.99 685.227V647.727H1062.03V652.06H1062.53C1062.84 651.586 1063.26 650.982 1063.81 650.249C1064.37 649.503 1065.16 648.84 1066.19 648.26C1067.23 647.668 1068.64 647.372 1070.41 647.372C1072.71 647.372 1074.74 647.946 1076.49 649.094C1078.24 650.243 1079.61 651.87 1080.59 653.977C1081.57 656.084 1082.06 658.57 1082.06 661.435C1082.06 664.323 1081.57 666.826 1080.59 668.945C1079.61 671.052 1078.24 672.686 1076.5 673.846C1074.76 674.994 1072.76 675.568 1070.49 675.568C1068.73 675.568 1067.33 675.278 1066.28 674.698C1065.22 674.106 1064.41 673.437 1063.84 672.692C1063.28 671.934 1062.84 671.307 1062.53 670.81H1062.18V685.227H1057.99ZM1062.1 661.364C1062.1 663.423 1062.41 665.24 1063.01 666.815C1063.61 668.377 1064.5 669.602 1065.66 670.49C1066.82 671.366 1068.24 671.804 1069.92 671.804C1071.67 671.804 1073.13 671.342 1074.3 670.419C1075.49 669.484 1076.37 668.229 1076.97 666.655C1077.57 665.069 1077.87 663.305 1077.87 661.364C1077.87 659.446 1077.58 657.718 1076.98 656.179C1076.4 654.628 1075.52 653.403 1074.34 652.504C1073.17 651.592 1071.69 651.136 1069.92 651.136C1068.21 651.136 1066.78 651.568 1065.62 652.433C1064.46 653.285 1063.58 654.48 1062.99 656.019C1062.4 657.546 1062.1 659.328 1062.1 661.364ZM1099.89 675.568C1097.26 675.568 1094.99 674.988 1093.09 673.828C1091.19 672.656 1089.73 671.023 1088.7 668.928C1087.68 666.821 1087.18 664.37 1087.18 661.577C1087.18 658.783 1087.68 656.321 1088.7 654.19C1089.73 652.048 1091.17 650.379 1093 649.183C1094.85 647.976 1097 647.372 1099.46 647.372C1100.88 647.372 1102.29 647.609 1103.67 648.082C1105.06 648.556 1106.32 649.325 1107.45 650.391C1108.59 651.444 1109.49 652.841 1110.17 654.581C1110.84 656.321 1111.18 658.464 1111.18 661.009V662.784H1090.16V659.162H1106.92C1106.92 657.623 1106.61 656.25 1106 655.043C1105.39 653.835 1104.53 652.882 1103.4 652.184C1102.29 651.486 1100.98 651.136 1099.46 651.136C1097.79 651.136 1096.35 651.551 1095.13 652.379C1093.92 653.196 1092.99 654.261 1092.34 655.575C1091.69 656.889 1091.37 658.298 1091.37 659.801V662.216C1091.37 664.276 1091.72 666.022 1092.43 667.454C1093.15 668.874 1094.15 669.957 1095.43 670.703C1096.71 671.437 1098.2 671.804 1099.89 671.804C1100.99 671.804 1101.98 671.65 1102.87 671.342C1103.77 671.023 1104.55 670.549 1105.2 669.922C1105.85 669.283 1106.35 668.49 1106.71 667.543L1110.76 668.679C1110.33 670.052 1109.61 671.259 1108.61 672.301C1107.6 673.331 1106.36 674.136 1104.88 674.716C1103.4 675.284 1101.74 675.568 1099.89 675.568ZM1138.01 647.727C1137.8 645.928 1136.93 644.531 1135.42 643.537C1133.9 642.543 1132.04 642.045 1129.84 642.045C1128.23 642.045 1126.82 642.306 1125.62 642.827C1124.42 643.348 1123.49 644.064 1122.81 644.975C1122.15 645.887 1121.82 646.922 1121.82 648.082C1121.82 649.053 1122.05 649.888 1122.51 650.586C1122.98 651.272 1123.59 651.847 1124.32 652.308C1125.05 652.758 1125.82 653.131 1126.63 653.427C1127.43 653.711 1128.17 653.942 1128.85 654.119L1132.54 655.114C1133.49 655.362 1134.54 655.705 1135.7 656.143C1136.87 656.581 1137.99 657.179 1139.06 657.937C1140.14 658.683 1141.02 659.641 1141.72 660.813C1142.42 661.985 1142.77 663.423 1142.77 665.128C1142.77 667.093 1142.25 668.868 1141.22 670.455C1140.21 672.041 1138.71 673.301 1136.75 674.237C1134.8 675.172 1132.42 675.639 1129.63 675.639C1127.03 675.639 1124.77 675.219 1122.86 674.379C1120.97 673.538 1119.48 672.366 1118.39 670.863C1117.31 669.36 1116.7 667.614 1116.56 665.625H1121.11C1121.23 666.998 1121.69 668.134 1122.49 669.034C1123.31 669.922 1124.34 670.585 1125.58 671.023C1126.84 671.449 1128.19 671.662 1129.63 671.662C1131.31 671.662 1132.82 671.39 1134.16 670.845C1135.5 670.289 1136.55 669.519 1137.34 668.537C1138.12 667.543 1138.51 666.383 1138.51 665.057C1138.51 663.849 1138.17 662.867 1137.5 662.109C1136.82 661.352 1135.93 660.736 1134.83 660.263C1133.73 659.789 1132.54 659.375 1131.26 659.02L1126.79 657.741C1123.95 656.925 1121.7 655.759 1120.04 654.244C1118.38 652.728 1117.56 650.746 1117.56 648.295C1117.56 646.259 1118.11 644.484 1119.21 642.969C1120.32 641.442 1121.81 640.258 1123.68 639.418C1125.56 638.565 1127.66 638.139 1129.98 638.139C1132.33 638.139 1134.41 638.559 1136.23 639.4C1138.06 640.228 1139.5 641.365 1140.57 642.809C1141.64 644.253 1142.21 645.893 1142.27 647.727H1138.01ZM1160.52 675.568C1157.96 675.568 1155.76 674.964 1153.92 673.757C1152.07 672.55 1150.65 670.887 1149.65 668.768C1148.66 666.649 1148.16 664.228 1148.16 661.506C1148.16 658.736 1148.67 656.291 1149.69 654.173C1150.72 652.042 1152.15 650.379 1153.99 649.183C1155.83 647.976 1157.99 647.372 1160.45 647.372C1162.37 647.372 1164.1 647.727 1165.63 648.438C1167.17 649.148 1168.43 650.142 1169.42 651.42C1170.4 652.699 1171.01 654.19 1171.24 655.895H1167.05C1166.73 654.652 1166.02 653.551 1164.92 652.592C1163.83 651.622 1162.37 651.136 1160.52 651.136C1158.89 651.136 1157.45 651.562 1156.22 652.415C1155 653.255 1154.05 654.445 1153.36 655.984C1152.69 657.511 1152.35 659.304 1152.35 661.364C1152.35 663.471 1152.68 665.305 1153.35 666.868C1154.02 668.43 1154.97 669.644 1156.19 670.508C1157.42 671.372 1158.86 671.804 1160.52 671.804C1161.61 671.804 1162.6 671.615 1163.49 671.236C1164.37 670.857 1165.12 670.312 1165.74 669.602C1166.36 668.892 1166.79 668.04 1167.05 667.045H1171.24C1171.01 668.655 1170.42 670.105 1169.49 671.396C1168.56 672.674 1167.34 673.692 1165.81 674.45C1164.3 675.195 1162.53 675.568 1160.52 675.568ZM1177.37 675V647.727H1181.42V651.847H1181.7C1182.2 650.497 1183.1 649.402 1184.4 648.562C1185.7 647.721 1187.17 647.301 1188.81 647.301C1189.11 647.301 1189.5 647.307 1189.96 647.319C1190.42 647.331 1190.77 647.348 1191.01 647.372V651.634C1190.86 651.598 1190.54 651.545 1190.03 651.474C1189.53 651.391 1189.01 651.349 1188.45 651.349C1187.12 651.349 1185.94 651.628 1184.9 652.184C1183.87 652.728 1183.05 653.486 1182.45 654.457C1181.86 655.415 1181.56 656.51 1181.56 657.741V675H1177.37ZM1195.97 675V647.727H1200.16V675H1195.97ZM1198.1 643.182C1197.29 643.182 1196.58 642.904 1195.99 642.347C1195.41 641.791 1195.12 641.122 1195.12 640.341C1195.12 639.56 1195.41 638.891 1195.99 638.335C1196.58 637.778 1197.29 637.5 1198.1 637.5C1198.92 637.5 1199.62 637.778 1200.2 638.335C1200.79 638.891 1201.09 639.56 1201.09 640.341C1201.09 641.122 1200.79 641.791 1200.2 642.347C1199.62 642.904 1198.92 643.182 1198.1 643.182ZM1207.84 685.227V647.727H1211.89V652.06H1212.38C1212.69 651.586 1213.12 650.982 1213.66 650.249C1214.22 649.503 1215.01 648.84 1216.04 648.26C1217.08 647.668 1218.49 647.372 1220.27 647.372C1222.56 647.372 1224.59 647.946 1226.34 649.094C1228.09 650.243 1229.46 651.87 1230.44 653.977C1231.42 656.084 1231.92 658.57 1231.92 661.435C1231.92 664.323 1231.42 666.826 1230.44 668.945C1229.46 671.052 1228.1 672.686 1226.36 673.846C1224.62 674.994 1222.61 675.568 1220.34 675.568C1218.59 675.568 1217.18 675.278 1216.13 674.698C1215.08 674.106 1214.27 673.437 1213.7 672.692C1213.13 671.934 1212.69 671.307 1212.38 670.81H1212.03V685.227H1207.84ZM1211.96 661.364C1211.96 663.423 1212.26 665.24 1212.86 666.815C1213.47 668.377 1214.35 669.602 1215.51 670.49C1216.67 671.366 1218.09 671.804 1219.77 671.804C1221.52 671.804 1222.98 671.342 1224.16 670.419C1225.34 669.484 1226.23 668.229 1226.82 666.655C1227.42 665.069 1227.73 663.305 1227.73 661.364C1227.73 659.446 1227.43 657.718 1226.84 656.179C1226.26 654.628 1225.38 653.403 1224.19 652.504C1223.02 651.592 1221.55 651.136 1219.77 651.136C1218.07 651.136 1216.63 651.568 1215.47 652.433C1214.31 653.285 1213.44 654.48 1212.85 656.019C1212.25 657.546 1211.96 659.328 1211.96 661.364ZM1250.17 647.727V651.278H1236.04V647.727H1250.17ZM1240.15 641.193H1244.34V667.188C1244.34 668.371 1244.52 669.259 1244.86 669.851C1245.21 670.431 1245.66 670.821 1246.21 671.023C1246.77 671.212 1247.35 671.307 1247.97 671.307C1248.43 671.307 1248.81 671.283 1249.1 671.236C1249.4 671.177 1249.64 671.129 1249.81 671.094L1250.67 674.858C1250.38 674.964 1249.99 675.071 1249.48 675.178C1248.97 675.296 1248.32 675.355 1247.54 675.355C1246.36 675.355 1245.2 675.101 1244.06 674.592C1242.94 674.083 1242 673.307 1241.26 672.266C1240.52 671.224 1240.15 669.91 1240.15 668.324V641.193Z" fill="black"/>
<path d="M1472.25 656.818C1472.25 660.653 1471.56 663.968 1470.18 666.761C1468.79 669.555 1466.89 671.709 1464.48 673.224C1462.06 674.74 1459.3 675.497 1456.2 675.497C1453.1 675.497 1450.34 674.74 1447.93 673.224C1445.51 671.709 1443.61 669.555 1442.23 666.761C1440.84 663.968 1440.15 660.653 1440.15 656.818C1440.15 652.983 1440.84 649.669 1442.23 646.875C1443.61 644.081 1445.51 641.927 1447.93 640.412C1450.34 638.897 1453.1 638.139 1456.2 638.139C1459.3 638.139 1462.06 638.897 1464.48 640.412C1466.89 641.927 1468.79 644.081 1470.18 646.875C1471.56 649.669 1472.25 652.983 1472.25 656.818ZM1467.99 656.818C1467.99 653.67 1467.47 651.012 1466.41 648.846C1465.37 646.68 1463.96 645.04 1462.17 643.928C1460.39 642.815 1458.4 642.259 1456.2 642.259C1454 642.259 1452.01 642.815 1450.22 643.928C1448.44 645.04 1447.03 646.68 1445.97 648.846C1444.93 651.012 1444.41 653.67 1444.41 656.818C1444.41 659.967 1444.93 662.624 1445.97 664.79C1447.03 666.957 1448.44 668.596 1450.22 669.709C1452.01 670.821 1454 671.378 1456.2 671.378C1458.4 671.378 1460.39 670.821 1462.17 669.709C1463.96 668.596 1465.37 666.957 1466.41 664.79C1467.47 662.624 1467.99 659.967 1467.99 656.818ZM1479.09 685.227V647.727H1483.14V652.06H1483.63C1483.94 651.586 1484.37 650.982 1484.91 650.249C1485.47 649.503 1486.26 648.84 1487.29 648.26C1488.33 647.668 1489.74 647.372 1491.52 647.372C1493.81 647.372 1495.84 647.946 1497.59 649.094C1499.34 650.243 1500.71 651.87 1501.69 653.977C1502.67 656.084 1503.17 658.57 1503.17 661.435C1503.17 664.323 1502.67 666.826 1501.69 668.945C1500.71 671.052 1499.35 672.686 1497.61 673.846C1495.87 674.994 1493.86 675.568 1491.59 675.568C1489.84 675.568 1488.43 675.278 1487.38 674.698C1486.33 674.106 1485.52 673.437 1484.95 672.692C1484.38 671.934 1483.94 671.307 1483.63 670.81H1483.28V685.227H1479.09ZM1483.21 661.364C1483.21 663.423 1483.51 665.24 1484.11 666.815C1484.72 668.377 1485.6 669.602 1486.76 670.49C1487.92 671.366 1489.34 671.804 1491.02 671.804C1492.77 671.804 1494.23 671.342 1495.41 670.419C1496.59 669.484 1497.48 668.229 1498.07 666.655C1498.67 665.069 1498.98 663.305 1498.98 661.364C1498.98 659.446 1498.68 657.718 1498.09 656.179C1497.51 654.628 1496.63 653.403 1495.44 652.504C1494.27 651.592 1492.8 651.136 1491.02 651.136C1489.32 651.136 1487.88 651.568 1486.72 652.433C1485.56 653.285 1484.69 654.48 1484.1 656.019C1483.5 657.546 1483.21 659.328 1483.21 661.364ZM1520.99 675.568C1518.36 675.568 1516.1 674.988 1514.19 673.828C1512.3 672.656 1510.84 671.023 1509.81 668.928C1508.79 666.821 1508.28 664.37 1508.28 661.577C1508.28 658.783 1508.79 656.321 1509.81 654.19C1510.84 652.048 1512.27 650.379 1514.1 649.183C1515.95 647.976 1518.1 647.372 1520.57 647.372C1521.99 647.372 1523.39 647.609 1524.77 648.082C1526.16 648.556 1527.42 649.325 1528.56 650.391C1529.69 651.444 1530.6 652.841 1531.27 654.581C1531.95 656.321 1532.29 658.464 1532.29 661.009V662.784H1511.26V659.162H1528.02C1528.02 657.623 1527.72 656.25 1527.1 655.043C1526.5 653.835 1525.63 652.882 1524.51 652.184C1523.4 651.486 1522.08 651.136 1520.57 651.136C1518.9 651.136 1517.45 651.551 1516.23 652.379C1515.03 653.196 1514.1 654.261 1513.45 655.575C1512.8 656.889 1512.47 658.298 1512.47 659.801V662.216C1512.47 664.276 1512.82 666.022 1513.54 667.454C1514.26 668.874 1515.26 669.957 1516.54 670.703C1517.81 671.437 1519.3 671.804 1520.99 671.804C1522.09 671.804 1523.09 671.65 1523.98 671.342C1524.88 671.023 1525.65 670.549 1526.3 669.922C1526.95 669.283 1527.46 668.49 1527.81 667.543L1531.86 668.679C1531.43 670.052 1530.72 671.259 1529.71 672.301C1528.7 673.331 1527.46 674.136 1525.98 674.716C1524.5 675.284 1522.84 675.568 1520.99 675.568ZM1542.85 658.594V675H1538.66V647.727H1542.71V651.989H1543.06C1543.7 650.604 1544.67 649.491 1545.97 648.651C1547.28 647.798 1548.96 647.372 1551.02 647.372C1552.86 647.372 1554.48 647.751 1555.86 648.509C1557.25 649.254 1558.33 650.391 1559.1 651.918C1559.87 653.433 1560.25 655.35 1560.25 657.67V675H1556.06V657.955C1556.06 655.812 1555.5 654.143 1554.39 652.947C1553.28 651.74 1551.75 651.136 1549.81 651.136C1548.47 651.136 1547.28 651.426 1546.22 652.006C1545.18 652.586 1544.36 653.433 1543.76 654.545C1543.15 655.658 1542.85 657.008 1542.85 658.594ZM1569.97 675H1565.35L1578.7 638.636H1583.25L1596.6 675H1591.98L1581.12 644.389H1580.83L1569.97 675ZM1571.67 660.795H1590.28V664.702H1571.67V660.795ZM1602.26 675V638.636H1614.55C1617.4 638.636 1619.74 639.151 1621.55 640.181C1623.37 641.199 1624.72 642.578 1625.6 644.318C1626.47 646.058 1626.91 648 1626.91 650.142C1626.91 652.285 1626.47 654.232 1625.6 655.984C1624.73 657.736 1623.39 659.132 1621.58 660.174C1619.77 661.204 1617.45 661.719 1614.62 661.719H1605.82V657.812H1614.48C1616.43 657.812 1618 657.475 1619.19 656.8C1620.37 656.126 1621.23 655.214 1621.76 654.066C1622.3 652.906 1622.58 651.598 1622.58 650.142C1622.58 648.686 1622.3 647.384 1621.76 646.236C1621.23 645.088 1620.36 644.188 1619.17 643.537C1617.97 642.874 1616.39 642.543 1614.41 642.543H1606.67V675H1602.26ZM1638.41 638.636V675H1634V638.636H1638.41Z" fill="black"/>
<defs>
<filter id="filter0_i_102_383" x="246.447" y="407.658" width="12.6439" height="12.6439" filterUnits="userSpaceOnUse" color-interpolation-filters="sRGB">
<feFlood flood-opacity="0" result="BackgroundImageFix"/>
<feBlend mode="normal" in="SourceGraphic" in2="BackgroundImageFix" result="shape"/>
<feColorMatrix in="SourceAlpha" type="matrix" values="0 0 0 0 0 0 0 0 0 0 0 0 0 0 0 0 0 0 127 0" result="hardAlpha"/>
<feOffset dx="0.1" dy="-0.1"/>
<feGaussianBlur stdDeviation="0.4"/>
<feComposite in2="hardAlpha" operator="arithmetic" k2="-1" k3="1"/>
<feColorMatrix type="matrix" values="0 0 0 0 0.85098 0 0 0 0 0.737255 0 0 0 0 0.92549 0 0 0 1 0"/>
<feBlend mode="normal" in2="shape" result="effect1_innerShadow_102_383"/>
</filter>
<filter id="filter1_i_102_383" x="242" y="393" width="150.3" height="150" filterUnits="userSpaceOnUse" color-interpolation-filters="sRGB">
<feFlood flood-opacity="0" result="BackgroundImageFix"/>
<feBlend mode="normal" in="SourceGraphic" in2="BackgroundImageFix" result="shape"/>
<feColorMatrix in="SourceAlpha" type="matrix" values="0 0 0 0 0 0 0 0 0 0 0 0 0 0 0 0 0 0 127 0" result="hardAlpha"/>
<feOffset dx="0.3"/>
<feGaussianBlur stdDeviation="0.5"/>
<feComposite in2="hardAlpha" operator="arithmetic" k2="-1" k3="1"/>
<feColorMatrix type="matrix" values="0 0 0 0 0.94902 0 0 0 0 0.564706 0 0 0 0 0.811765 0 0 0 1 0"/>
<feBlend mode="normal" in2="shape" result="effect1_innerShadow_102_383"/>
</filter>
<filter id="filter2_f_102_383" x="259.549" y="410.55" width="114.901" height="114.902" filterUnits="userSpaceOnUse" color-interpolation-filters="sRGB">
<feFlood flood-opacity="0" result="BackgroundImageFix"/>
<feBlend mode="normal" in="SourceGraphic" in2="BackgroundImageFix" result="shape"/>
<feGaussianBlur stdDeviation="0.375" result="effect1_foregroundBlur_102_383"/>
</filter>
<filter id="filter3_i_102_383" x="242.196" y="437.209" width="34.7895" height="34.7899" filterUnits="userSpaceOnUse" color-interpolation-filters="sRGB">
<feFlood flood-opacity="0" result="BackgroundImageFix"/>
<feBlend mode="normal" in="SourceGraphic" in2="BackgroundImageFix" result="shape"/>
<feColorMatrix in="SourceAlpha" type="matrix" values="0 0 0 0 0 0 0 0 0 0 0 0 0 0 0 0 0 0 127 0" result="hardAlpha"/>
<feOffset dx="0.1" dy="-0.1"/>
<feGaussianBlur stdDeviation="0.4"/>
<feComposite in2="hardAlpha" operator="arithmetic" k2="-1" k3="1"/>
<feColorMatrix type="matrix" values="0 0 0 0 0.909804 0 0 0 0 0.843137 0 0 0 0 0.980392 0 0 0 1 0"/>
<feBlend mode="normal" in2="shape" result="effect1_innerShadow_102_383"/>
</filter>
<filter id="filter4_f_102_383" x="312.945" y="411.347" width="60.7031" height="111.906" filterUnits="userSpaceOnUse" color-interpolation-filters="sRGB">
<feFlood flood-opacity="0" result="BackgroundImageFix"/>
<feBlend mode="normal" in="SourceGraphic" in2="BackgroundImageFix" result="shape"/>
<feGaussianBlur stdDeviation="0.375" result="effect1_foregroundBlur_102_383"/>
</filter>
<filter id="filter5_i_102_383" x="341.536" y="476.569" width="50.8346" height="50.5346" filterUnits="userSpaceOnUse" color-interpolation-filters="sRGB">
<feFlood flood-opacity="0" result="BackgroundImageFix"/>
<feBlend mode="normal" in="SourceGraphic" in2="BackgroundImageFix" result="shape"/>
<feColorMatrix in="SourceAlpha" type="matrix" values="0 0 0 0 0 0 0 0 0 0 0 0 0 0 0 0 0 0 127 0" result="hardAlpha"/>
<feOffset dx="0.4" dy="-0.1"/>
<feGaussianBlur stdDeviation="0.5"/>
<feComposite in2="hardAlpha" operator="arithmetic" k2="-1" k3="1"/>
<feColorMatrix type="matrix" values="0 0 0 0 0.792157 0 0 0 0 0.54902 0 0 0 0 0.894118 0 0 0 1 0"/>
<feBlend mode="normal" in2="shape" result="effect1_innerShadow_102_383"/>
</filter>
<radialGradient id="paint0_radial_102_383" cx="0" cy="0" r="1" gradientUnits="userSpaceOnUse" gradientTransform="translate(259.54 434.789) rotate(-8.079) scale(22.6938)">
<stop stop-color="#CEC4D1"/>
<stop offset="1" stop-color="#C8C1C9"/>
</radialGradient>
<radialGradient id="paint1_radial_102_383" cx="0" cy="0" r="1" gradientUnits="userSpaceOnUse" gradientTransform="translate(276.458 434.787) rotate(180) scale(16.9192)">
<stop offset="0.529" stop-color="#CEC5D1" stop-opacity="0"/>
<stop offset="1" stop-color="#E4DFE8"/>
</radialGradient>
<radialGradient id="paint2_radial_102_383" cx="0" cy="0" r="1" gradientUnits="userSpaceOnUse" gradientTransform="translate(256.575 412.505) rotate(168.14) scale(10.3489 9.79411)">
<stop offset="0.135" stop-color="#FFEDFF"/>
<stop offset="0.911" stop-color="#DBCBEA"/>
</radialGradient>
<radialGradient id="paint3_radial_102_383" cx="0" cy="0" r="1" gradientUnits="userSpaceOnUse" gradientTransform="translate(253.983 417.665) rotate(-100.366) scale(10.0746 10.0746)">
<stop offset="0.818" stop-color="#DAD4E0" stop-opacity="0"/>
<stop offset="1" stop-color="#DAD4E0"/>
</radialGradient>
<linearGradient id="paint4_linear_102_383" x1="375.555" y1="423.169" x2="270.822" y2="519.485" gradientUnits="userSpaceOnUse">
<stop stop-color="#FFABBD"/>
<stop offset="1" stop-color="#F756E5"/>
</linearGradient>
<radialGradient id="paint5_radial_102_383" cx="0" cy="0" r="1" gradientUnits="userSpaceOnUse" gradientTransform="translate(356.282 476.612) rotate(-111.029) scale(100.194 137.861)">
<stop offset="0.713" stop-color="#E082A1" stop-opacity="0"/>
<stop offset="0.965" stop-color="#E1959A"/>
</radialGradient>
<radialGradient id="paint6_radial_102_383" cx="0" cy="0" r="1" gradientUnits="userSpaceOnUse" gradientTransform="translate(265.094 450.445) rotate(-46.1412) scale(59.7827 42.3389)">
<stop stop-color="#E775AB"/>
<stop offset="1" stop-color="#E775AB" stop-opacity="0"/>
</radialGradient>
<radialGradient id="paint7_radial_102_383" cx="0" cy="0" r="1" gradientUnits="userSpaceOnUse" gradientTransform="translate(254.657 469.978) rotate(119.055) scale(13.8691 10.3535)">
<stop stop-color="#E551C0"/>
<stop offset="1" stop-color="#E551C0" stop-opacity="0"/>
</radialGradient>
<radialGradient id="paint8_radial_102_383" cx="0" cy="0" r="1" gradientUnits="userSpaceOnUse" gradientTransform="translate(347.606 512.076) rotate(158.405) scale(34.7704 36.9667)">
<stop offset="0.187" stop-color="#D24BB4"/>
<stop offset="1" stop-color="#D24BB4" stop-opacity="0"/>
</radialGradient>
<radialGradient id="paint9_radial_102_383" cx="0" cy="0" r="1" gradientUnits="userSpaceOnUse" gradientTransform="translate(381.617 488.163) rotate(-103.241) scale(29.4072 27.206)">
<stop offset="0.329" stop-color="#E588A9"/>
<stop offset="1" stop-color="#E588A9" stop-opacity="0"/>
</radialGradient>
<radialGradient id="paint10_radial_102_383" cx="0" cy="0" r="1" gradientUnits="userSpaceOnUse" gradientTransform="translate(366.799 442.028) rotate(-4.58391) scale(25.2833 34.4771)">
<stop stop-color="#FFA7C0"/>
<stop offset="1" stop-color="#FFA7C0" stop-opacity="0"/>
</radialGradient>
<linearGradient id="paint11_linear_102_383" x1="353.243" y1="431.755" x2="282.44" y2="502.558" gradientUnits="userSpaceOnUse">
<stop stop-color="#EE7BBE"/>
<stop offset="1" stop-color="#FF7BE6"/>
</linearGradient>
<linearGradient id="paint12_linear_102_383" x1="282.863" y1="508.368" x2="299.025" y2="491.87" gradientUnits="userSpaceOnUse">
<stop offset="0.178" stop-color="#FF83E6"/>
<stop offset="1" stop-color="#FF83E6" stop-opacity="0"/>
</linearGradient>
<linearGradient id="paint13_linear_102_383" x1="285.45" y1="431.498" x2="301.201" y2="448.682" gradientUnits="userSpaceOnUse">
<stop offset="0.493" stop-color="#F89BB9"/>
<stop offset="1" stop-color="#F89BB9" stop-opacity="0"/>
</linearGradient>
<radialGradient id="paint14_radial_102_383" cx="0" cy="0" r="1" gradientUnits="userSpaceOnUse" gradientTransform="translate(265.72 452.901) rotate(171.772) scale(23.7666 22.4923)">
<stop offset="0.135" stop-color="#FFEDFF"/>
<stop offset="1" stop-color="#ECAEFF"/>
</radialGradient>
<radialGradient id="paint15_radial_102_383" cx="0" cy="0" r="1" gradientUnits="userSpaceOnUse" gradientTransform="translate(242.196 465.791) rotate(-25.398) scale(19.1992 27.5759)">
<stop offset="0.182" stop-color="#DBB6FF"/>
<stop offset="1" stop-color="#DBB6FF" stop-opacity="0"/>
</radialGradient>
<radialGradient id="paint16_radial_102_383" cx="0" cy="0" r="1" gradientUnits="userSpaceOnUse" gradientTransform="translate(263.029 464.714) rotate(-100.366) scale(27.8572)">
<stop offset="0.818" stop-color="#DAD4E0" stop-opacity="0"/>
<stop offset="1" stop-color="#DAD4E0"/>
</radialGradient>
<linearGradient id="paint17_linear_102_383" x1="313.695" y1="509.383" x2="362.336" y2="464.59" gradientUnits="userSpaceOnUse">
<stop stop-color="#F068CB"/>
<stop offset="1" stop-color="#F068CB" stop-opacity="0"/>
</linearGradient>
<radialGradient id="paint18_radial_102_383" cx="0" cy="0" r="1" gradientUnits="userSpaceOnUse" gradientTransform="translate(349.641 491.979) rotate(131.285) scale(20.8975 15.924)">
<stop offset="0.07" stop-color="#D35F9E"/>
<stop offset="1" stop-color="#D35F9E" stop-opacity="0"/>
</radialGradient>
<radialGradient id="paint19_radial_102_383" cx="0" cy="0" r="1" gradientUnits="userSpaceOnUse" gradientTransform="translate(345.812 532.196) rotate(-99.462) scale(18.6379)">
<stop stop-color="#EDA5FF"/>
<stop offset="1" stop-color="#C28CDD"/>
</radialGradient>
<radialGradient id="paint20_radial_102_383" cx="0" cy="0" r="1" gradientUnits="userSpaceOnUse" gradientTransform="translate(358.646 518.403) rotate(129.237) scale(14.835 20.4301)">
<stop offset="0.381" stop-color="#D89AFF"/>
<stop offset="1" stop-color="#D89AFF" stop-opacity="0"/>
</radialGradient>
<radialGradient id="paint21_radial_102_383" cx="0" cy="0" r="1" gradientUnits="userSpaceOnUse" gradientTransform="translate(383.731 495.038) rotate(167.646) scale(43.1909 40.8751)">
<stop offset="0.218" stop-color="#FFEDFF"/>
<stop offset="1" stop-color="#ECAEFF"/>
</radialGradient>
<radialGradient id="paint22_radial_102_383" cx="0" cy="0" r="1" gradientUnits="userSpaceOnUse" gradientTransform="translate(341.538 518.072) rotate(-29.477) scale(24.7642 35.5689)">
<stop offset="0.182" stop-color="#DBB6FF"/>
<stop offset="1" stop-color="#DBB6FF" stop-opacity="0"/>
</radialGradient>
<radialGradient id="paint23_radial_102_383" cx="0" cy="0" r="1" gradientUnits="userSpaceOnUse" gradientTransform="translate(371.836 516.512) rotate(-100.366) scale(40.501 40.501)">
<stop offset="0.818" stop-color="#DAD4E0" stop-opacity="0"/>
<stop offset="1" stop-color="#DAD4E0"/>
</radialGradient>
<radialGradient id="paint24_radial_102_383" cx="0" cy="0" r="1" gradientUnits="userSpaceOnUse" gradientTransform="translate(373.011 485.275) rotate(98.499) scale(42.2956 51.9003)">
<stop offset="0.681" stop-color="#F3B7FF" stop-opacity="0"/>
<stop offset="1" stop-color="#E697FF"/>
</radialGradient>
<clipPath id="clip0_102_383">
<rect width="126.031" height="150" fill="white" transform="translate(1062 393)"/>
</clipPath>
</defs>
</svg>
