<svg width="1920" height="1080" viewBox="0 0 1920 1080" fill="none" xmlns="http://www.w3.org/2000/svg">
<rect width="1920" height="1080" fill="white"/>
<path d="M263.496 413.744C270.099 413.744 275.452 408.391 275.452 401.787C275.452 395.184 270.099 389.831 263.496 389.831C256.892 389.831 251.539 395.184 251.539 401.787C251.539 408.391 256.892 413.744 263.496 413.744Z" fill="url(#paint0_radial_104_81)"/>
<path d="M263.496 413.744C270.099 413.744 275.452 408.391 275.452 401.787C275.452 395.184 270.099 389.831 263.496 389.831C256.892 389.831 251.539 395.184 251.539 401.787C251.539 408.391 256.892 413.744 263.496 413.744Z" fill="url(#paint1_radial_104_81)"/>
<g filter="url(#filter0_i_104_81)">
<path d="M244.719 387.302C248.183 387.302 250.991 384.494 250.991 381.03C250.991 377.566 248.183 374.758 244.719 374.758C241.255 374.758 238.447 377.566 238.447 381.03C238.447 384.494 241.255 387.302 244.719 387.302Z" fill="url(#paint2_radial_104_81)"/>
<path d="M244.719 387.302C248.183 387.302 250.991 384.494 250.991 381.03C250.991 377.566 248.183 374.758 244.719 374.758C241.255 374.758 238.447 377.566 238.447 381.03C238.447 384.494 241.255 387.302 244.719 387.302Z" fill="url(#paint3_radial_104_81)"/>
</g>
<g filter="url(#filter1_i_104_81)">
<path d="M295.772 370.098C302.239 363.632 311.009 360 320.154 360C329.299 360 338.069 363.632 344.536 370.098L373.902 399.464C380.368 405.931 384 414.701 384 423.846C384 432.991 380.368 441.761 373.902 448.228L322.228 499.902C315.761 506.368 306.991 510 297.846 510C288.701 510 279.931 506.368 273.464 499.902L244.098 470.536C237.632 464.069 234 455.299 234 446.154C234 437.009 237.632 428.239 244.098 421.772L295.772 370.098V370.098Z" fill="url(#paint4_linear_104_81)"/>
<path d="M295.772 370.098C302.239 363.632 311.009 360 320.154 360C329.299 360 338.069 363.632 344.536 370.098L373.902 399.464C380.368 405.931 384 414.701 384 423.846C384 432.991 380.368 441.761 373.902 448.228L322.228 499.902C315.761 506.368 306.991 510 297.846 510C288.701 510 279.931 506.368 273.464 499.902L244.098 470.536C237.632 464.069 234 455.299 234 446.154C234 437.009 237.632 428.239 244.098 421.772L295.772 370.098V370.098Z" fill="url(#paint5_radial_104_81)"/>
<path d="M295.772 370.098C302.239 363.632 311.009 360 320.154 360C329.299 360 338.069 363.632 344.536 370.098L373.902 399.464C380.368 405.931 384 414.701 384 423.846C384 432.991 380.368 441.761 373.902 448.228L322.228 499.902C315.761 506.368 306.991 510 297.846 510C288.701 510 279.931 506.368 273.464 499.902L244.098 470.536C237.632 464.069 234 455.299 234 446.154C234 437.009 237.632 428.239 244.098 421.772L295.772 370.098V370.098Z" fill="url(#paint6_radial_104_81)"/>
<path d="M295.772 370.098C302.239 363.632 311.009 360 320.154 360C329.299 360 338.069 363.632 344.536 370.098L373.902 399.464C380.368 405.931 384 414.701 384 423.846C384 432.991 380.368 441.761 373.902 448.228L322.228 499.902C315.761 506.368 306.991 510 297.846 510C288.701 510 279.931 506.368 273.464 499.902L244.098 470.536C237.632 464.069 234 455.299 234 446.154C234 437.009 237.632 428.239 244.098 421.772L295.772 370.098V370.098Z" fill="url(#paint7_radial_104_81)"/>
<path d="M295.772 370.098C302.239 363.632 311.009 360 320.154 360C329.299 360 338.069 363.632 344.536 370.098L373.902 399.464C380.368 405.931 384 414.701 384 423.846C384 432.991 380.368 441.761 373.902 448.228L322.228 499.902C315.761 506.368 306.991 510 297.846 510C288.701 510 279.931 506.368 273.464 499.902L244.098 470.536C237.632 464.069 234 455.299 234 446.154C234 437.009 237.632 428.239 244.098 421.772L295.772 370.098V370.098Z" fill="url(#paint8_radial_104_81)"/>
<path d="M295.772 370.098C302.239 363.632 311.009 360 320.154 360C329.299 360 338.069 363.632 344.536 370.098L373.902 399.464C380.368 405.931 384 414.701 384 423.846C384 432.991 380.368 441.761 373.902 448.228L322.228 499.902C315.761 506.368 306.991 510 297.846 510C288.701 510 279.931 506.368 273.464 499.902L244.098 470.536C237.632 464.069 234 455.299 234 446.154C234 437.009 237.632 428.239 244.098 421.772L295.772 370.098V370.098Z" fill="url(#paint9_radial_104_81)"/>
<path d="M295.772 370.098C302.239 363.632 311.009 360 320.154 360C329.299 360 338.069 363.632 344.536 370.098L373.902 399.464C380.368 405.931 384 414.701 384 423.846C384 432.991 380.368 441.761 373.902 448.228L322.228 499.902C315.761 506.368 306.991 510 297.846 510C288.701 510 279.931 506.368 273.464 499.902L244.098 470.536C237.632 464.069 234 455.299 234 446.154C234 437.009 237.632 428.239 244.098 421.772L295.772 370.098V370.098Z" fill="url(#paint10_radial_104_81)"/>
</g>
<g filter="url(#filter2_f_104_81)">
<path d="M360.167 413.679L330.323 383.834C324.01 377.521 313.775 377.521 307.462 383.834L257.832 433.465C251.519 439.777 251.519 450.012 257.832 456.325L287.676 486.17C293.989 492.483 304.224 492.483 310.537 486.17L360.167 436.539C366.48 430.227 366.48 419.991 360.167 413.679Z" fill="url(#paint11_linear_104_81)"/>
<path d="M360.167 413.679L330.323 383.834C324.01 377.521 313.775 377.521 307.462 383.834L257.832 433.465C251.519 439.777 251.519 450.012 257.832 456.325L287.676 486.17C293.989 492.483 304.224 492.483 310.537 486.17L360.167 436.539C366.48 430.227 366.48 419.991 360.167 413.679Z" fill="url(#paint12_linear_104_81)"/>
<path d="M360.644 413.201L330.799 383.357C324.223 376.781 313.562 376.781 306.986 383.357L257.356 432.987C250.78 439.563 250.78 450.225 257.356 456.8L287.2 486.645C293.776 493.221 304.437 493.221 311.013 486.645L360.644 437.015C367.22 430.439 367.22 419.777 360.644 413.201Z" stroke="url(#paint13_linear_104_81)" stroke-width="0.25"/>
</g>
<g filter="url(#filter3_i_104_81)">
<path d="M251.541 438.999C261.121 438.999 268.886 431.233 268.886 421.654C268.886 412.074 261.121 404.309 251.541 404.309C241.962 404.309 234.196 412.074 234.196 421.654C234.196 431.233 241.962 438.999 251.541 438.999Z" fill="url(#paint14_radial_104_81)"/>
<path d="M251.541 438.999C261.121 438.999 268.886 431.233 268.886 421.654C268.886 412.074 261.121 404.309 251.541 404.309C241.962 404.309 234.196 412.074 234.196 421.654C234.196 431.233 241.962 438.999 251.541 438.999Z" fill="url(#paint15_radial_104_81)"/>
<path d="M251.541 438.999C261.121 438.999 268.886 431.233 268.886 421.654C268.886 412.074 261.121 404.309 251.541 404.309C241.962 404.309 234.196 412.074 234.196 421.654C234.196 431.233 241.962 438.999 251.541 438.999Z" fill="url(#paint16_radial_104_81)"/>
</g>
<g filter="url(#filter4_f_104_81)">
<path d="M305.695 489.503L313.519 380.013C316.395 379.001 319.499 378.824 322.472 379.501C325.445 380.178 328.165 381.681 330.32 383.839L360.166 413.679C363.196 416.71 364.899 420.821 364.899 425.108C364.899 429.394 363.196 433.505 360.166 436.536L310.539 486.163C309.143 487.564 307.501 488.696 305.695 489.503V489.503Z" fill="url(#paint17_linear_104_81)"/>
<path d="M305.695 489.503L313.519 380.013C316.395 379.001 319.499 378.824 322.472 379.501C325.445 380.178 328.165 381.681 330.32 383.839L360.166 413.679C363.196 416.71 364.899 420.821 364.899 425.108C364.899 429.394 363.196 433.505 360.166 436.536L310.539 486.163C309.143 487.564 307.501 488.696 305.695 489.503V489.503Z" fill="url(#paint18_radial_104_81)"/>
</g>
<path d="M339.433 505.846C347.569 505.846 354.164 499.25 354.164 491.114C354.164 482.978 347.569 476.383 339.433 476.383C331.297 476.383 324.701 482.978 324.701 491.114C324.701 499.25 331.297 505.846 339.433 505.846Z" fill="url(#paint19_radial_104_81)"/>
<path d="M339.433 505.846C347.569 505.846 354.164 499.25 354.164 491.114C354.164 482.978 347.569 476.383 339.433 476.383C331.297 476.383 324.701 482.978 324.701 491.114C324.701 499.25 331.297 505.846 339.433 505.846Z" fill="url(#paint20_radial_104_81)"/>
<g filter="url(#filter5_i_104_81)">
<path d="M358.753 494.104C372.681 494.104 383.971 482.814 383.971 468.887C383.971 454.96 372.681 443.669 358.753 443.669C344.826 443.669 333.536 454.96 333.536 468.887C333.536 482.814 344.826 494.104 358.753 494.104Z" fill="url(#paint21_radial_104_81)"/>
<path d="M358.753 494.104C372.681 494.104 383.971 482.814 383.971 468.887C383.971 454.96 372.681 443.669 358.753 443.669C344.826 443.669 333.536 454.96 333.536 468.887C333.536 482.814 344.826 494.104 358.753 494.104Z" fill="url(#paint22_radial_104_81)"/>
<path d="M358.753 494.104C372.681 494.104 383.971 482.814 383.971 468.887C383.971 454.96 372.681 443.669 358.753 443.669C344.826 443.669 333.536 454.96 333.536 468.887C333.536 482.814 344.826 494.104 358.753 494.104Z" fill="url(#paint23_radial_104_81)"/>
</g>
<path d="M358.753 494.104C372.681 494.104 383.971 482.814 383.971 468.887C383.971 454.96 372.681 443.67 358.753 443.67C344.826 443.67 333.536 454.96 333.536 468.887C333.536 482.814 344.826 494.104 358.753 494.104Z" fill="url(#paint24_radial_104_81)"/>
<path d="M660.159 470.385L665.55 473.498L725.606 369.48L720.215 366.368L660.159 470.385Z" fill="#E535AB"/>
<path d="M779.037 462.075H658.925V468.3H779.037V462.075Z" fill="#E535AB"/>
<path d="M661.302 465.572L721.381 500.26L724.493 494.869L664.415 460.181L661.302 465.572Z" fill="#E535AB"/>
<path d="M713.493 375.167L773.571 409.855L776.684 404.464L716.605 369.777L713.493 375.167Z" fill="#E535AB"/>
<path d="M661.318 404.44L664.431 409.831L724.509 375.144L721.397 369.753L661.318 404.44Z" fill="#E535AB"/>
<path d="M712.407 369.482L772.463 473.499L777.854 470.387L717.797 366.369L712.407 369.482Z" fill="#E535AB"/>
<path d="M669.912 400.312H663.688V469.688H669.912V400.312Z" fill="#E535AB"/>
<path d="M774.312 400.312H768.087V469.688H774.312V400.312Z" fill="#E535AB"/>
<path d="M717.602 492.916L720.32 497.625L772.573 467.456L769.854 462.747L717.602 492.916Z" fill="#E535AB"/>
<path d="M782.562 471.713C778.962 477.975 770.937 480.113 764.674 476.513C758.412 472.913 756.274 464.888 759.874 458.625C763.474 452.363 771.499 450.225 777.762 453.825C784.062 457.463 786.199 465.45 782.562 471.713Z" fill="#E535AB"/>
<path d="M678.087 411.375C674.487 417.638 666.462 419.775 660.2 416.175C653.937 412.575 651.8 404.55 655.4 398.288C659 392.025 667.025 389.888 673.287 393.488C679.55 397.125 681.687 405.113 678.087 411.375Z" fill="#E535AB"/>
<path d="M655.437 471.713C651.837 465.45 653.974 457.463 660.237 453.825C666.499 450.225 674.487 452.363 678.124 458.625C681.724 464.888 679.587 472.875 673.324 476.513C667.024 480.113 659.037 477.975 655.437 471.713Z" fill="#E535AB"/>
<path d="M759.913 411.375C756.313 405.113 758.45 397.125 764.713 393.488C770.975 389.888 778.963 392.025 782.6 398.288C786.2 404.55 784.063 412.538 777.8 416.175C771.538 419.775 763.513 417.638 759.913 411.375Z" fill="#E535AB"/>
<path d="M719 508.425C711.762 508.425 705.912 502.575 705.912 495.337C705.912 488.1 711.762 482.25 719 482.25C726.237 482.25 732.087 488.1 732.087 495.337C732.087 502.537 726.237 508.425 719 508.425Z" fill="#E535AB"/>
<path d="M719 387.75C711.762 387.75 705.912 381.9 705.912 374.663C705.912 367.425 711.762 361.575 719 361.575C726.237 361.575 732.087 367.425 732.087 374.663C732.087 381.9 726.237 387.75 719 387.75Z" fill="#E535AB"/>
<path d="M1440 460V410H1452.54V426.667H1469.25V410H1481.79V460H1469.25V439.167H1452.54V460H1440ZM1502.68 460V422.5H1490.15V410H1527.76V422.5H1515.22V460H1502.68ZM1548.65 460V422.5H1536.11V410H1573.72V422.5H1561.19V460H1548.65ZM1582.08 460V410H1611.33C1614.68 410 1617.6 411.25 1620.11 413.75C1622.62 416.25 1623.87 419.167 1623.87 422.5V430.833C1623.87 434.167 1622.62 437.083 1620.11 439.583C1617.6 442.083 1614.68 443.333 1611.33 443.333H1594.62V460H1582.08ZM1594.62 430.833H1611.33V422.5H1594.62V430.833Z" fill="black"/>
<g clip-path="url(#clip0_104_81)">
<path d="M1068.07 480.238H1078.89V485.723H1068.07V498.17C1068.05 499.063 1068.17 499.954 1068.43 500.808C1068.63 501.442 1068.98 502.016 1069.46 502.48C1069.92 502.912 1070.47 503.224 1071.08 503.39C1071.69 503.552 1072.32 503.641 1072.94 503.654L1073.21 503.655C1073.78 503.655 1074.36 503.655 1074.97 503.575L1075.33 503.531L1076.02 503.452C1076.25 503.426 1076.47 503.397 1076.69 503.36L1077.02 503.308L1077.63 503.218C1077.82 503.188 1078.02 503.157 1078.2 503.12L1078.66 503.029L1078.87 502.985L1079.26 502.898L1079.44 502.856L1080.16 507.965C1079.58 508.295 1078.96 508.559 1078.32 508.752C1077.59 508.983 1076.85 509.165 1076.09 509.3C1075.31 509.447 1074.49 509.558 1073.63 509.638C1072.8 509.716 1071.96 509.755 1071.13 509.755C1069.67 509.776 1068.21 509.569 1066.82 509.14C1065.57 508.753 1064.44 508.079 1063.51 507.172C1062.54 506.231 1061.82 505.077 1061.39 503.802C1060.85 502.219 1060.6 500.554 1060.64 498.883V485.723H1054V480.238H1060.62V473.148H1068.07V480.238H1068.07ZM1094.59 494.634V509.195H1087.06V470.227H1100.17C1102.15 470.202 1104.12 470.459 1106.03 470.989C1107.66 471.439 1109.19 472.199 1110.53 473.228C1111.77 474.21 1112.74 475.476 1113.38 476.917C1114.08 478.52 1114.43 480.255 1114.39 482.003C1114.41 483.273 1114.24 484.538 1113.89 485.76C1113.3 487.884 1112.02 489.752 1110.25 491.073C1109.35 491.754 1108.38 492.329 1107.34 492.789L1115.73 508.869V509.22H1107.63L1100.3 494.634H1094.59ZM1094.6 488.521H1100.17C1101.21 488.542 1102.26 488.375 1103.25 488.03C1104.07 487.736 1104.81 487.244 1105.41 486.597C1105.87 486.083 1106.22 485.483 1106.45 484.831C1106.67 484.164 1106.79 483.467 1106.8 482.764L1106.8 482.501C1106.82 481.565 1106.66 480.635 1106.34 479.759C1106.04 478.995 1105.56 478.318 1104.93 477.791C1104.33 477.305 1103.64 476.941 1102.89 476.721C1102.1 476.489 1101.28 476.363 1100.45 476.347L1094.6 476.345V488.521V488.521ZM1128 509.195H1120.48V470.227H1133.82C1135.78 470.199 1137.73 470.511 1139.58 471.15C1141.2 471.707 1142.69 472.576 1143.98 473.707C1145.17 474.816 1146.11 476.166 1146.75 477.668C1147.37 479.186 1147.7 480.808 1147.72 482.45V482.778C1147.74 484.444 1147.41 486.095 1146.75 487.623C1146.11 489.083 1145.16 490.387 1143.98 491.448C1142.69 492.58 1141.19 493.445 1139.56 493.994C1137.71 494.625 1135.76 494.933 1133.8 494.904H1127.99L1128 509.195V509.195ZM1128 488.804H1133.81C1134.76 488.823 1135.71 488.658 1136.6 488.318C1137.34 488.026 1138.02 487.58 1138.58 487.009C1139.09 486.458 1139.49 485.807 1139.74 485.096C1140 484.37 1140.14 483.604 1140.14 482.833C1140.14 481.971 1140.01 481.114 1139.74 480.294C1139.5 479.533 1139.1 478.83 1138.58 478.227C1138.02 477.628 1137.35 477.154 1136.6 476.838C1135.71 476.48 1134.76 476.306 1133.81 476.327H1128V488.804ZM1178.72 502.29C1178.03 503.809 1177.05 505.175 1175.82 506.305C1174.55 507.436 1173.08 508.306 1171.48 508.863C1169.8 509.436 1168.05 509.737 1166.28 509.756L1165.9 509.755C1164.39 509.773 1162.89 509.566 1161.44 509.14C1160.12 508.746 1158.87 508.135 1157.75 507.332C1156.74 506.586 1155.84 505.693 1155.09 504.682C1154.3 503.623 1153.63 502.473 1153.12 501.257C1152.58 499.929 1152.18 498.548 1151.93 497.136C1151.64 495.564 1151.5 493.969 1151.51 492.371V487.125C1151.51 485.623 1151.63 484.123 1151.89 482.642C1152.09 481.441 1152.42 480.262 1152.85 479.121L1153.01 478.695C1153.56 477.267 1154.32 475.932 1155.27 474.734C1156.16 473.602 1157.23 472.611 1158.42 471.795C1159.5 471.103 1160.67 470.575 1161.89 470.227C1163.09 469.886 1164.33 469.702 1165.58 469.681L1165.95 469.68C1167.9 469.646 1169.83 469.954 1171.67 470.589C1173.26 471.136 1174.71 472.018 1175.93 473.177C1177.15 474.336 1178.11 475.744 1178.73 477.305C1179.44 479.056 1179.87 480.907 1180.02 482.79H1172.52C1172.47 481.747 1172.3 480.715 1172 479.715C1171.76 478.909 1171.35 478.161 1170.81 477.52C1170.25 476.937 1169.57 476.493 1168.81 476.222C1167.89 475.908 1166.93 475.758 1165.96 475.78C1165.4 475.778 1164.85 475.842 1164.31 475.971C1163.82 476.09 1163.34 476.279 1162.9 476.53C1162.15 476.99 1161.52 477.623 1161.06 478.375C1160.52 479.237 1160.1 480.171 1159.83 481.148C1159.58 482.039 1159.41 482.948 1159.32 483.866C1159.21 484.928 1159.16 485.996 1159.16 487.064V492.359C1159.15 493.75 1159.23 495.141 1159.41 496.522C1159.55 497.614 1159.82 498.688 1160.2 499.719C1160.43 500.307 1160.73 500.864 1161.1 501.38C1161.43 501.852 1161.83 502.267 1162.29 502.609C1162.78 502.969 1163.33 503.235 1163.91 503.396C1164.56 503.576 1165.23 503.663 1165.91 503.655C1166.81 503.665 1167.7 503.539 1168.56 503.28C1169.31 503.048 1170 502.644 1170.57 502.099C1171.16 501.518 1171.61 500.814 1171.88 500.039C1172.24 499.067 1172.45 498.047 1172.5 497.014H1180.03C1179.92 498.837 1179.48 500.625 1178.72 502.29H1178.72ZM1145.76 405.444L1164.7 416.371V438.238L1145.76 449.166L1137.34 444.306L1116.89 456.102L1096.56 444.374L1088.27 449.165L1069.32 438.22V416.37L1088.27 405.443L1107.22 416.371V438.219L1101.48 441.531L1116.89 450.42L1132.42 441.463L1126.81 438.219V416.37L1145.76 405.443V405.444ZM1131.73 422.066V435.403L1143.29 442.07V428.732L1131.73 422.066ZM1159.78 422.047L1148.22 428.713V442.07L1159.78 435.385V422.047V422.047ZM1074.25 422.047V435.385L1085.81 442.051V428.713L1074.25 422.047V422.047ZM1102.29 422.047L1090.73 428.713V442.05L1102.29 435.385V422.047L1102.29 422.047ZM1145.76 411.138L1134.2 417.804L1145.76 424.476L1157.31 417.804L1145.76 411.138ZM1088.27 411.12L1076.71 417.804L1088.27 424.458L1099.83 417.804L1088.27 411.12V411.12ZM1097.69 377.225V382.9L1080.16 393.017V410.118L1075.24 412.959V390.175L1097.69 377.224L1097.69 377.225ZM1116.64 360L1135.6 370.927V376.937L1158.55 390.175V412.817L1153.62 409.976V393.016L1135.6 382.619V392.782L1116.65 403.71L1097.71 392.782V370.927L1116.64 360ZM1102.63 376.603V389.941L1114.18 396.607V383.275L1102.63 376.603H1102.63ZM1130.66 376.603L1119.11 383.275V396.601L1130.66 389.941V376.603H1130.66ZM1116.64 365.682L1105.09 372.348L1116.64 379.014L1128.2 372.348L1116.64 365.682H1116.64Z" fill="#398CCB"/>
</g>
<path d="M251.087 616.094C250.945 614.662 250.336 613.549 249.258 612.756C248.181 611.963 246.719 611.567 244.873 611.567C243.618 611.567 242.559 611.744 241.695 612.099C240.83 612.443 240.168 612.922 239.706 613.538C239.256 614.153 239.031 614.852 239.031 615.633C239.007 616.284 239.144 616.852 239.44 617.337C239.747 617.823 240.168 618.243 240.7 618.598C241.233 618.941 241.848 619.243 242.547 619.504C243.245 619.752 243.991 619.965 244.784 620.143L248.051 620.924C249.637 621.279 251.093 621.753 252.419 622.344C253.745 622.936 254.893 623.664 255.864 624.528C256.834 625.393 257.586 626.411 258.119 627.582C258.663 628.754 258.941 630.098 258.953 631.613C258.941 633.838 258.373 635.768 257.248 637.401C256.136 639.023 254.526 640.284 252.419 641.183C250.324 642.071 247.797 642.515 244.837 642.515C241.902 642.515 239.345 642.065 237.167 641.165C235.001 640.266 233.308 638.934 232.089 637.17C230.881 635.395 230.248 633.199 230.189 630.583H237.628C237.711 631.802 238.061 632.82 238.676 633.637C239.303 634.442 240.138 635.052 241.18 635.466C242.233 635.868 243.423 636.07 244.748 636.07C246.051 636.07 247.181 635.88 248.14 635.501C249.11 635.123 249.862 634.596 250.395 633.921C250.927 633.246 251.194 632.471 251.194 631.595C251.194 630.778 250.951 630.092 250.466 629.536C249.992 628.979 249.294 628.506 248.371 628.115C247.459 627.724 246.341 627.369 245.015 627.05L241.055 626.055C237.989 625.31 235.569 624.144 233.793 622.558C232.018 620.971 231.136 618.835 231.148 616.148C231.136 613.946 231.722 612.022 232.905 610.377C234.101 608.732 235.74 607.447 237.824 606.524C239.907 605.601 242.275 605.139 244.926 605.139C247.625 605.139 249.98 605.601 251.993 606.524C254.017 607.447 255.591 608.732 256.716 610.377C257.84 612.022 258.42 613.928 258.456 616.094H251.087ZM297.541 623.818C297.541 627.784 296.789 631.157 295.286 633.939C293.794 636.721 291.758 638.845 289.178 640.313C286.609 641.769 283.721 642.497 280.513 642.497C277.281 642.497 274.381 641.763 271.813 640.295C269.244 638.828 267.214 636.703 265.722 633.921C264.231 631.139 263.485 627.772 263.485 623.818C263.485 619.853 264.231 616.479 265.722 613.697C267.214 610.916 269.244 608.797 271.813 607.341C274.381 605.873 277.281 605.139 280.513 605.139C283.721 605.139 286.609 605.873 289.178 607.341C291.758 608.797 293.794 610.916 295.286 613.697C296.789 616.479 297.541 619.853 297.541 623.818ZM289.746 623.818C289.746 621.25 289.361 619.083 288.592 617.32C287.834 615.556 286.763 614.218 285.378 613.307C283.993 612.395 282.371 611.94 280.513 611.94C278.654 611.94 277.033 612.395 275.648 613.307C274.263 614.218 273.186 615.556 272.416 617.32C271.659 619.083 271.28 621.25 271.28 623.818C271.28 626.387 271.659 628.553 272.416 630.317C273.186 632.08 274.263 633.418 275.648 634.33C277.033 635.241 278.654 635.697 280.513 635.697C282.371 635.697 283.993 635.241 285.378 634.33C286.763 633.418 287.834 632.08 288.592 630.317C289.361 628.553 289.746 626.387 289.746 623.818ZM307.453 642H299.214L311.767 605.636H321.675L334.21 642H325.972L316.863 613.946H316.579L307.453 642ZM306.938 627.707H326.398V633.708H306.938V627.707ZM338.587 642V605.636H352.934C355.692 605.636 358.042 606.163 359.983 607.217C361.924 608.258 363.404 609.708 364.422 611.567C365.452 613.413 365.967 615.544 365.967 617.959C365.967 620.374 365.446 622.504 364.404 624.351C363.362 626.197 361.853 627.636 359.876 628.665C357.911 629.695 355.532 630.21 352.739 630.21H343.594V624.049H351.496C352.975 624.049 354.195 623.795 355.153 623.286C356.124 622.765 356.846 622.049 357.32 621.137C357.805 620.214 358.047 619.154 358.047 617.959C358.047 616.751 357.805 615.698 357.32 614.798C356.846 613.887 356.124 613.183 355.153 612.685C354.183 612.176 352.952 611.922 351.46 611.922H346.275V642H338.587Z" fill="black"/>
<path d="M249.944 712L241.989 682.909H245.569L251.648 706.602H251.932L258.125 682.909H262.103L268.296 706.602H268.58L274.659 682.909H278.239L270.284 712H266.648L260.228 688.818H260L253.58 712H249.944ZM298.537 690.182C298.367 688.742 297.676 687.625 296.463 686.83C295.251 686.034 293.765 685.636 292.003 685.636C290.715 685.636 289.588 685.845 288.623 686.261C287.666 686.678 286.918 687.251 286.378 687.98C285.848 688.709 285.583 689.538 285.583 690.466C285.583 691.242 285.767 691.91 286.137 692.469C286.516 693.018 286.998 693.477 287.586 693.847C288.173 694.206 288.788 694.505 289.432 694.741C290.076 694.969 290.668 695.153 291.208 695.295L294.162 696.091C294.92 696.29 295.763 696.564 296.691 696.915C297.628 697.265 298.523 697.743 299.375 698.349C300.237 698.946 300.947 699.713 301.506 700.651C302.065 701.588 302.344 702.739 302.344 704.102C302.344 705.674 301.932 707.095 301.108 708.364C300.294 709.633 299.101 710.641 297.529 711.389C295.966 712.137 294.068 712.511 291.833 712.511C289.749 712.511 287.945 712.175 286.421 711.503C284.906 710.83 283.712 709.893 282.841 708.69C281.98 707.488 281.492 706.091 281.378 704.5H285.015C285.109 705.598 285.479 706.508 286.123 707.227C286.776 707.937 287.6 708.468 288.594 708.818C289.598 709.159 290.677 709.33 291.833 709.33C293.177 709.33 294.385 709.112 295.455 708.676C296.525 708.231 297.373 707.616 297.998 706.83C298.623 706.034 298.935 705.106 298.935 704.045C298.935 703.08 298.665 702.294 298.125 701.688C297.586 701.081 296.875 700.589 295.995 700.21C295.114 699.831 294.162 699.5 293.14 699.216L289.56 698.193C287.287 697.54 285.488 696.607 284.162 695.395C282.837 694.183 282.174 692.597 282.174 690.636C282.174 689.008 282.614 687.587 283.495 686.375C284.385 685.153 285.578 684.206 287.074 683.534C288.58 682.852 290.261 682.511 292.117 682.511C293.992 682.511 295.658 682.848 297.117 683.52C298.575 684.183 299.73 685.092 300.583 686.247C301.444 687.402 301.899 688.714 301.946 690.182H298.537ZM317.113 712H308.136V682.909H317.511C320.333 682.909 322.748 683.491 324.755 684.656C326.763 685.812 328.302 687.473 329.372 689.642C330.442 691.801 330.977 694.386 330.977 697.398C330.977 700.428 330.437 703.037 329.358 705.224C328.278 707.402 326.706 709.079 324.642 710.253C322.577 711.418 320.068 712 317.113 712ZM311.659 708.875H316.886C319.291 708.875 321.285 708.411 322.866 707.483C324.448 706.555 325.627 705.234 326.403 703.52C327.18 701.806 327.568 699.765 327.568 697.398C327.568 695.049 327.184 693.027 326.417 691.332C325.65 689.628 324.504 688.321 322.98 687.412C321.455 686.493 319.556 686.034 317.284 686.034H311.659V708.875ZM336.886 712V682.909H340.409V708.875H353.931V712H336.886Z" fill="black"/>
<path d="M631.752 617.391C631.504 616.527 631.154 615.763 630.705 615.1C630.255 614.425 629.704 613.857 629.053 613.396C628.414 612.922 627.68 612.561 626.852 612.312C626.035 612.064 625.129 611.94 624.135 611.94C622.277 611.94 620.643 612.401 619.234 613.325C617.838 614.248 616.749 615.591 615.967 617.355C615.186 619.107 614.796 621.25 614.796 623.783C614.796 626.316 615.18 628.47 615.95 630.246C616.719 632.021 617.808 633.377 619.217 634.312C620.625 635.235 622.288 635.697 624.206 635.697C625.946 635.697 627.432 635.389 628.663 634.773C629.906 634.146 630.853 633.264 631.504 632.128C632.167 630.991 632.498 629.648 632.498 628.097L634.06 628.328H624.685V622.54H639.902V627.121C639.902 630.317 639.227 633.063 637.878 635.359C636.528 637.644 634.67 639.408 632.303 640.651C629.935 641.882 627.225 642.497 624.171 642.497C620.761 642.497 617.767 641.746 615.186 640.242C612.606 638.727 610.593 636.579 609.149 633.797C607.717 631.003 607.001 627.689 607.001 623.854C607.001 620.906 607.427 618.278 608.279 615.97C609.143 613.65 610.351 611.685 611.901 610.075C613.452 608.465 615.257 607.24 617.317 606.4C619.377 605.559 621.608 605.139 624.011 605.139C626.07 605.139 627.988 605.441 629.764 606.045C631.539 606.637 633.113 607.477 634.487 608.566C635.872 609.655 637.002 610.951 637.878 612.455C638.754 613.946 639.316 615.591 639.565 617.391H631.752ZM645.535 642V614.727H652.868V619.486H653.152C653.649 617.793 654.484 616.515 655.656 615.651C656.828 614.775 658.177 614.337 659.704 614.337C660.083 614.337 660.491 614.36 660.929 614.408C661.367 614.455 661.752 614.52 662.083 614.603V621.315C661.728 621.208 661.237 621.113 660.61 621.031C659.982 620.948 659.408 620.906 658.887 620.906C657.775 620.906 656.78 621.149 655.904 621.634C655.04 622.108 654.354 622.771 653.845 623.623C653.348 624.475 653.099 625.458 653.099 626.57V642H645.535ZM672.99 642.515C671.25 642.515 669.699 642.213 668.338 641.609C666.977 640.994 665.899 640.088 665.106 638.893C664.325 637.685 663.934 636.182 663.934 634.383C663.934 632.868 664.213 631.595 664.769 630.565C665.325 629.536 666.083 628.707 667.042 628.08C668 627.452 669.089 626.979 670.309 626.659C671.54 626.339 672.83 626.115 674.179 625.984C675.766 625.819 677.044 625.665 678.015 625.523C678.985 625.369 679.69 625.144 680.128 624.848C680.566 624.552 680.785 624.114 680.785 623.534V623.428C680.785 622.303 680.429 621.433 679.719 620.817C679.021 620.202 678.026 619.894 676.736 619.894C675.375 619.894 674.292 620.196 673.487 620.8C672.682 621.392 672.149 622.137 671.889 623.037L664.893 622.469C665.248 620.812 665.947 619.379 666.988 618.172C668.03 616.953 669.374 616.018 671.019 615.366C672.676 614.704 674.594 614.372 676.772 614.372C678.287 614.372 679.737 614.55 681.122 614.905C682.519 615.26 683.756 615.81 684.833 616.556C685.922 617.302 686.78 618.261 687.407 619.433C688.035 620.593 688.348 621.983 688.348 623.605V642H681.175V638.218H680.962C680.524 639.07 679.938 639.822 679.204 640.473C678.47 641.112 677.589 641.615 676.559 641.982C675.529 642.337 674.339 642.515 672.99 642.515ZM675.156 637.295C676.269 637.295 677.251 637.076 678.103 636.638C678.956 636.188 679.624 635.584 680.11 634.827C680.595 634.069 680.838 633.211 680.838 632.252V629.358C680.601 629.512 680.276 629.654 679.861 629.784C679.459 629.902 679.003 630.015 678.494 630.121C677.985 630.216 677.476 630.305 676.967 630.388C676.458 630.459 675.996 630.524 675.582 630.583C674.694 630.713 673.919 630.92 673.256 631.205C672.593 631.489 672.078 631.873 671.711 632.359C671.344 632.832 671.161 633.424 671.161 634.134C671.161 635.164 671.534 635.951 672.28 636.496C673.037 637.028 673.996 637.295 675.156 637.295ZM694.217 652.227V614.727H701.674V619.308H702.011C702.343 618.574 702.822 617.829 703.45 617.071C704.089 616.302 704.917 615.662 705.935 615.153C706.965 614.633 708.244 614.372 709.771 614.372C711.759 614.372 713.594 614.893 715.275 615.935C716.956 616.964 718.299 618.521 719.305 620.604C720.312 622.676 720.815 625.274 720.815 628.399C720.815 631.441 720.323 634.01 719.341 636.105C718.37 638.188 717.045 639.769 715.364 640.846C713.695 641.911 711.824 642.444 709.753 642.444C708.285 642.444 707.036 642.201 706.006 641.716C704.988 641.231 704.154 640.621 703.503 639.887C702.852 639.141 702.355 638.39 702.011 637.632H701.781V652.227H694.217ZM701.621 628.364C701.621 629.985 701.846 631.4 702.296 632.607C702.745 633.815 703.396 634.756 704.249 635.43C705.101 636.093 706.137 636.425 707.356 636.425C708.587 636.425 709.629 636.087 710.481 635.413C711.333 634.726 711.978 633.779 712.416 632.572C712.866 631.353 713.091 629.95 713.091 628.364C713.091 626.789 712.872 625.404 712.434 624.209C711.996 623.013 711.351 622.078 710.499 621.403C709.646 620.729 708.599 620.391 707.356 620.391C706.125 620.391 705.083 620.717 704.231 621.368C703.39 622.019 702.745 622.942 702.296 624.138C701.846 625.333 701.621 626.742 701.621 628.364ZM733.421 626.233V642H725.857V605.636H733.208V619.539H733.528C734.143 617.929 735.138 616.669 736.511 615.757C737.884 614.834 739.606 614.372 741.678 614.372C743.572 614.372 745.223 614.786 746.631 615.615C748.052 616.432 749.153 617.61 749.934 619.148C750.727 620.675 751.118 622.504 751.106 624.635V642H743.542V625.984C743.554 624.304 743.128 622.996 742.264 622.06C741.411 621.125 740.216 620.658 738.677 620.658C737.647 620.658 736.736 620.877 735.943 621.315C735.161 621.753 734.546 622.392 734.096 623.232C733.658 624.061 733.433 625.061 733.421 626.233ZM770.926 629.358H777.46L780.745 633.584L783.976 637.348L790.066 644.983H782.893L778.703 639.834L776.554 636.78L770.926 629.358ZM790.617 623.818C790.617 627.784 789.865 631.157 788.362 633.939C786.87 636.721 784.834 638.845 782.254 640.313C779.685 641.769 776.797 642.497 773.589 642.497C770.358 642.497 767.457 641.763 764.889 640.295C762.32 638.828 760.29 636.703 758.799 633.921C757.307 631.139 756.561 627.772 756.561 623.818C756.561 619.853 757.307 616.479 758.799 613.697C760.29 610.916 762.32 608.797 764.889 607.341C767.457 605.873 770.358 605.139 773.589 605.139C776.797 605.139 779.685 605.873 782.254 607.341C784.834 608.797 786.87 610.916 788.362 613.697C789.865 616.479 790.617 619.853 790.617 623.818ZM782.822 623.818C782.822 621.25 782.437 619.083 781.668 617.32C780.91 615.556 779.839 614.218 778.454 613.307C777.069 612.395 775.447 611.94 773.589 611.94C771.731 611.94 770.109 612.395 768.724 613.307C767.339 614.218 766.262 615.556 765.492 617.32C764.735 619.083 764.356 621.25 764.356 623.818C764.356 626.387 764.735 628.553 765.492 630.317C766.262 632.08 767.339 633.418 768.724 634.33C770.109 635.241 771.731 635.697 773.589 635.697C775.447 635.697 777.069 635.241 778.454 634.33C779.839 633.418 780.91 632.08 781.668 630.317C782.437 628.553 782.822 626.387 782.822 623.818ZM796.312 642V605.636H804V635.661H819.59V642H796.312Z" fill="black"/>
<path d="M656.897 690.182C656.726 688.742 656.035 687.625 654.823 686.83C653.611 686.034 652.124 685.636 650.363 685.636C649.075 685.636 647.948 685.845 646.982 686.261C646.025 686.678 645.277 687.251 644.738 687.98C644.207 688.709 643.942 689.538 643.942 690.466C643.942 691.242 644.127 691.91 644.496 692.469C644.875 693.018 645.358 693.477 645.945 693.847C646.532 694.206 647.148 694.505 647.792 694.741C648.435 694.969 649.027 695.153 649.567 695.295L652.522 696.091C653.279 696.29 654.122 696.564 655.05 696.915C655.988 697.265 656.882 697.743 657.735 698.349C658.596 698.946 659.307 699.713 659.865 700.651C660.424 701.588 660.703 702.739 660.703 704.102C660.703 705.674 660.292 707.095 659.468 708.364C658.653 709.633 657.46 710.641 655.888 711.389C654.326 712.137 652.427 712.511 650.192 712.511C648.109 712.511 646.305 712.175 644.78 711.503C643.265 710.83 642.072 709.893 641.201 708.69C640.339 707.488 639.851 706.091 639.738 704.5H643.374C643.469 705.598 643.838 706.508 644.482 707.227C645.135 707.937 645.959 708.468 646.953 708.818C647.957 709.159 649.037 709.33 650.192 709.33C651.537 709.33 652.744 709.112 653.814 708.676C654.884 708.231 655.732 707.616 656.357 706.83C656.982 706.034 657.294 705.106 657.294 704.045C657.294 703.08 657.025 702.294 656.485 701.688C655.945 701.081 655.235 700.589 654.354 700.21C653.473 699.831 652.522 699.5 651.499 699.216L647.919 698.193C645.647 697.54 643.847 696.607 642.522 695.395C641.196 694.183 640.533 692.597 640.533 690.636C640.533 689.008 640.973 687.587 641.854 686.375C642.744 685.153 643.937 684.206 645.434 683.534C646.939 682.852 648.62 682.511 650.476 682.511C652.351 682.511 654.018 682.848 655.476 683.52C656.935 684.183 658.09 685.092 658.942 686.247C659.804 687.402 660.258 688.714 660.306 690.182H656.897ZM674.904 712.455C672.859 712.455 671.098 711.972 669.62 711.006C668.143 710.04 667.007 708.709 666.211 707.014C665.416 705.319 665.018 703.383 665.018 701.205C665.018 698.989 665.425 697.033 666.24 695.338C667.064 693.634 668.209 692.303 669.677 691.347C671.154 690.381 672.878 689.898 674.848 689.898C676.382 689.898 677.764 690.182 678.995 690.75C680.226 691.318 681.235 692.114 682.021 693.136C682.807 694.159 683.295 695.352 683.484 696.716H680.132C679.876 695.722 679.308 694.841 678.427 694.074C677.556 693.297 676.382 692.909 674.904 692.909C673.598 692.909 672.452 693.25 671.467 693.932C670.492 694.604 669.729 695.556 669.18 696.787C668.64 698.009 668.37 699.443 668.37 701.091C668.37 702.777 668.636 704.244 669.166 705.494C669.706 706.744 670.463 707.715 671.439 708.406C672.423 709.098 673.579 709.443 674.904 709.443C675.776 709.443 676.566 709.292 677.277 708.989C677.987 708.686 678.588 708.25 679.081 707.682C679.573 707.114 679.923 706.432 680.132 705.636H683.484C683.295 706.924 682.826 708.084 682.078 709.116C681.339 710.139 680.359 710.954 679.137 711.56C677.925 712.156 676.514 712.455 674.904 712.455ZM691.737 698.875V712H688.385V682.909H691.737V693.591H692.021C692.532 692.464 693.299 691.569 694.322 690.906C695.354 690.234 696.727 689.898 698.441 689.898C699.928 689.898 701.23 690.196 702.348 690.793C703.465 691.38 704.332 692.284 704.947 693.506C705.572 694.718 705.885 696.261 705.885 698.136V712H702.532V698.364C702.532 696.631 702.083 695.291 701.183 694.344C700.293 693.387 699.057 692.909 697.475 692.909C696.377 692.909 695.392 693.141 694.521 693.605C693.659 694.069 692.977 694.746 692.475 695.636C691.983 696.527 691.737 697.606 691.737 698.875ZM721.165 712.455C719.063 712.455 717.249 711.991 715.725 711.062C714.21 710.125 713.04 708.818 712.216 707.142C711.402 705.456 710.995 703.496 710.995 701.261C710.995 699.027 711.402 697.057 712.216 695.352C713.04 693.638 714.186 692.303 715.654 691.347C717.131 690.381 718.855 689.898 720.824 689.898C721.961 689.898 723.083 690.087 724.191 690.466C725.299 690.845 726.307 691.46 727.216 692.312C728.125 693.155 728.85 694.273 729.39 695.665C729.929 697.057 730.199 698.771 730.199 700.807V702.227H713.381V699.33H726.79C726.79 698.098 726.544 697 726.051 696.034C725.569 695.068 724.877 694.306 723.978 693.747C723.087 693.188 722.036 692.909 720.824 692.909C719.489 692.909 718.334 693.241 717.358 693.903C716.392 694.557 715.649 695.409 715.128 696.46C714.607 697.511 714.347 698.638 714.347 699.841V701.773C714.347 703.42 714.631 704.817 715.199 705.963C715.777 707.099 716.577 707.966 717.6 708.562C718.623 709.15 719.811 709.443 721.165 709.443C722.046 709.443 722.841 709.32 723.551 709.074C724.271 708.818 724.891 708.439 725.412 707.938C725.933 707.426 726.336 706.792 726.62 706.034L729.858 706.943C729.517 708.042 728.944 709.008 728.14 709.841C727.335 710.665 726.34 711.309 725.157 711.773C723.973 712.227 722.642 712.455 721.165 712.455ZM735.299 712V690.182H738.537V693.591H738.821C739.276 692.426 740.01 691.522 741.023 690.878C742.036 690.224 743.253 689.898 744.674 689.898C746.113 689.898 747.311 690.224 748.267 690.878C749.233 691.522 749.986 692.426 750.526 693.591H750.753C751.312 692.464 752.15 691.569 753.267 690.906C754.385 690.234 755.725 689.898 757.287 689.898C759.238 689.898 760.834 690.509 762.074 691.73C763.315 692.942 763.935 694.831 763.935 697.398V712H760.583V697.398C760.583 695.788 760.142 694.637 759.262 693.946C758.381 693.255 757.344 692.909 756.151 692.909C754.617 692.909 753.428 693.373 752.586 694.301C751.743 695.22 751.321 696.384 751.321 697.795V712H747.912V697.057C747.912 695.816 747.51 694.817 746.705 694.06C745.9 693.293 744.863 692.909 743.594 692.909C742.723 692.909 741.908 693.141 741.151 693.605C740.403 694.069 739.797 694.713 739.333 695.537C738.878 696.351 738.651 697.294 738.651 698.364V712H735.299ZM776.485 712.511C775.102 712.511 773.847 712.251 772.721 711.73C771.594 711.2 770.699 710.438 770.036 709.443C769.373 708.439 769.042 707.227 769.042 705.807C769.042 704.557 769.288 703.544 769.78 702.767C770.273 701.981 770.931 701.366 771.755 700.92C772.578 700.475 773.488 700.144 774.482 699.926C775.486 699.699 776.494 699.519 777.507 699.386C778.833 699.216 779.908 699.088 780.732 699.003C781.565 698.908 782.171 698.752 782.55 698.534C782.938 698.316 783.132 697.937 783.132 697.398V697.284C783.132 695.883 782.749 694.794 781.982 694.017C781.224 693.241 780.074 692.852 778.53 692.852C776.93 692.852 775.675 693.203 774.766 693.903C773.857 694.604 773.218 695.352 772.848 696.148L769.667 695.011C770.235 693.686 770.992 692.653 771.939 691.915C772.896 691.167 773.937 690.646 775.064 690.352C776.201 690.049 777.318 689.898 778.417 689.898C779.117 689.898 779.922 689.983 780.831 690.153C781.75 690.314 782.635 690.651 783.488 691.162C784.349 691.673 785.064 692.445 785.632 693.477C786.201 694.509 786.485 695.892 786.485 697.625V712H783.132V709.045H782.962C782.735 709.519 782.356 710.026 781.826 710.565C781.295 711.105 780.59 711.564 779.709 711.943C778.828 712.322 777.754 712.511 776.485 712.511ZM776.996 709.5C778.322 709.5 779.439 709.24 780.348 708.719C781.267 708.198 781.958 707.526 782.422 706.702C782.896 705.878 783.132 705.011 783.132 704.102V701.034C782.99 701.205 782.678 701.361 782.195 701.503C781.721 701.635 781.172 701.754 780.547 701.858C779.932 701.953 779.33 702.038 778.743 702.114C778.166 702.18 777.697 702.237 777.337 702.284C776.466 702.398 775.651 702.582 774.894 702.838C774.146 703.084 773.54 703.458 773.076 703.96C772.621 704.453 772.394 705.125 772.394 705.977C772.394 707.142 772.825 708.023 773.686 708.619C774.558 709.206 775.661 709.5 776.996 709.5Z" fill="black"/>
<path d="M1073.62 614.727V620.409H1057.2V614.727H1073.62ZM1060.93 608.193H1068.49V633.619C1068.49 634.318 1068.6 634.862 1068.81 635.253C1069.02 635.632 1069.32 635.898 1069.7 636.052C1070.09 636.206 1070.54 636.283 1071.05 636.283C1071.4 636.283 1071.76 636.253 1072.11 636.194C1072.47 636.123 1072.74 636.07 1072.93 636.034L1074.12 641.663C1073.74 641.781 1073.21 641.917 1072.52 642.071C1071.84 642.237 1071 642.337 1070.02 642.373C1068.2 642.444 1066.6 642.201 1065.23 641.645C1063.86 641.089 1062.8 640.224 1062.05 639.053C1061.29 637.881 1060.92 636.401 1060.93 634.614V608.193ZM1079.28 642V605.636H1093.63C1096.37 605.636 1098.72 606.128 1100.66 607.11C1102.61 608.081 1104.1 609.46 1105.11 611.247C1106.14 613.023 1106.66 615.112 1106.66 617.515C1106.66 619.93 1106.14 622.007 1105.1 623.747C1104.05 625.475 1102.54 626.801 1100.57 627.724C1098.6 628.648 1096.22 629.109 1093.43 629.109H1083.82V622.93H1092.19C1093.65 622.93 1094.87 622.729 1095.84 622.327C1096.82 621.924 1097.54 621.321 1098.01 620.516C1098.5 619.711 1098.74 618.71 1098.74 617.515C1098.74 616.308 1098.5 615.29 1098.01 614.461C1097.54 613.632 1096.81 613.005 1095.83 612.579C1094.86 612.141 1093.63 611.922 1092.15 611.922H1086.97V642H1079.28ZM1098.92 625.452L1107.95 642H1099.47L1090.62 625.452H1098.92ZM1112.09 642V605.636H1126.44C1129.2 605.636 1131.55 606.163 1133.49 607.217C1135.43 608.258 1136.91 609.708 1137.93 611.567C1138.96 613.413 1139.47 615.544 1139.47 617.959C1139.47 620.374 1138.95 622.504 1137.91 624.351C1136.87 626.197 1135.36 627.636 1133.38 628.665C1131.42 629.695 1129.04 630.21 1126.24 630.21H1117.1V624.049H1125C1126.48 624.049 1127.7 623.795 1128.66 623.286C1129.63 622.765 1130.35 622.049 1130.82 621.137C1131.31 620.214 1131.55 619.154 1131.55 617.959C1131.55 616.751 1131.31 615.698 1130.82 614.798C1130.35 613.887 1129.63 613.183 1128.66 612.685C1127.69 612.176 1126.46 611.922 1124.96 611.922H1119.78V642H1112.09ZM1176.55 618.367H1168.77C1168.63 617.361 1168.34 616.467 1167.9 615.686C1167.46 614.893 1166.9 614.218 1166.21 613.662C1165.53 613.106 1164.74 612.679 1163.84 612.384C1162.95 612.088 1161.98 611.94 1160.94 611.94C1159.06 611.94 1157.42 612.407 1156.02 613.342C1154.63 614.266 1153.54 615.615 1152.77 617.391C1152 619.154 1151.62 621.297 1151.62 623.818C1151.62 626.411 1152 628.589 1152.77 630.352C1153.56 632.116 1154.64 633.448 1156.04 634.347C1157.44 635.247 1159.05 635.697 1160.89 635.697C1161.92 635.697 1162.87 635.561 1163.75 635.288C1164.63 635.016 1165.42 634.62 1166.11 634.099C1166.79 633.566 1167.36 632.921 1167.81 632.163C1168.27 631.406 1168.59 630.542 1168.77 629.571L1176.55 629.607C1176.35 631.276 1175.84 632.885 1175.04 634.436C1174.25 635.975 1173.18 637.354 1171.83 638.573C1170.49 639.781 1168.89 640.739 1167.03 641.45C1165.19 642.148 1163.1 642.497 1160.76 642.497C1157.52 642.497 1154.62 641.763 1152.06 640.295C1149.52 638.828 1147.51 636.703 1146.03 633.921C1144.56 631.139 1143.83 627.772 1143.83 623.818C1143.83 619.853 1144.57 616.479 1146.06 613.697C1147.55 610.916 1149.58 608.797 1152.13 607.341C1154.69 605.873 1157.57 605.139 1160.76 605.139C1162.87 605.139 1164.82 605.435 1166.62 606.027C1168.43 606.619 1170.04 607.483 1171.44 608.619C1172.83 609.744 1173.97 611.123 1174.84 612.756C1175.73 614.39 1176.3 616.26 1176.55 618.367Z" fill="black"/>
<path d="M1017.32 686.034V682.909H1039.14V686.034H1029.99V712H1026.47V686.034H1017.32ZM1043.78 720.182C1043.21 720.182 1042.71 720.134 1042.26 720.04C1041.82 719.955 1041.51 719.869 1041.34 719.784L1042.19 716.83C1043.01 717.038 1043.73 717.114 1044.35 717.057C1044.98 717 1045.53 716.721 1046.01 716.219C1046.5 715.726 1046.95 714.926 1047.36 713.818L1047.99 712.114L1039.92 690.182H1043.55L1049.58 707.568H1049.8L1055.83 690.182H1059.46L1050.2 715.182C1049.79 716.309 1049.27 717.241 1048.65 717.98C1048.04 718.728 1047.32 719.282 1046.51 719.642C1045.7 720.002 1044.8 720.182 1043.78 720.182ZM1063.89 720.182V690.182H1067.13V693.648H1067.52C1067.77 693.269 1068.11 692.786 1068.55 692.199C1068.99 691.602 1069.63 691.072 1070.45 690.608C1071.28 690.134 1072.41 689.898 1073.83 689.898C1075.67 689.898 1077.29 690.357 1078.69 691.276C1080.09 692.194 1081.18 693.496 1081.97 695.182C1082.76 696.867 1083.15 698.856 1083.15 701.148C1083.15 703.458 1082.76 705.461 1081.97 707.156C1081.18 708.842 1080.1 710.149 1078.7 711.077C1077.31 711.995 1075.71 712.455 1073.89 712.455C1072.49 712.455 1071.36 712.223 1070.52 711.759C1069.68 711.285 1069.03 710.75 1068.58 710.153C1068.12 709.547 1067.77 709.045 1067.52 708.648H1067.24V720.182H1063.89ZM1067.18 701.091C1067.18 702.739 1067.43 704.192 1067.91 705.452C1068.39 706.702 1069.1 707.682 1070.02 708.392C1070.95 709.093 1072.09 709.443 1073.43 709.443C1074.84 709.443 1076 709.074 1076.94 708.335C1077.89 707.587 1078.6 706.583 1079.07 705.324C1079.56 704.055 1079.8 702.644 1079.8 701.091C1079.8 699.557 1079.56 698.174 1079.09 696.943C1078.62 695.703 1077.92 694.723 1076.97 694.003C1076.03 693.274 1074.85 692.909 1073.43 692.909C1072.07 692.909 1070.92 693.255 1070 693.946C1069.07 694.628 1068.37 695.584 1067.89 696.815C1067.42 698.037 1067.18 699.462 1067.18 701.091ZM1097.41 712.455C1095.31 712.455 1093.5 711.991 1091.97 711.062C1090.46 710.125 1089.29 708.818 1088.46 707.142C1087.65 705.456 1087.24 703.496 1087.24 701.261C1087.24 699.027 1087.65 697.057 1088.46 695.352C1089.29 693.638 1090.43 692.303 1091.9 691.347C1093.38 690.381 1095.1 689.898 1097.07 689.898C1098.21 689.898 1099.33 690.087 1100.44 690.466C1101.54 690.845 1102.55 691.46 1103.46 692.312C1104.37 693.155 1105.1 694.273 1105.64 695.665C1106.18 697.057 1106.45 698.771 1106.45 700.807V702.227H1089.63V699.33H1103.04C1103.04 698.098 1102.79 697 1102.3 696.034C1101.81 695.068 1101.12 694.306 1100.22 693.747C1099.33 693.188 1098.28 692.909 1097.07 692.909C1095.74 692.909 1094.58 693.241 1093.6 693.903C1092.64 694.557 1091.9 695.409 1091.37 696.46C1090.85 697.511 1090.59 698.638 1090.59 699.841V701.773C1090.59 703.42 1090.88 704.817 1091.45 705.963C1092.02 707.099 1092.82 707.966 1093.85 708.562C1094.87 709.15 1096.06 709.443 1097.41 709.443C1098.29 709.443 1099.09 709.32 1099.8 709.074C1100.52 708.818 1101.14 708.439 1101.66 707.938C1102.18 707.426 1102.58 706.792 1102.87 706.034L1106.1 706.943C1105.76 708.042 1105.19 709.008 1104.39 709.841C1103.58 710.665 1102.59 711.309 1101.4 711.773C1100.22 712.227 1098.89 712.455 1097.41 712.455ZM1127.91 690.182C1127.74 688.742 1127.05 687.625 1125.83 686.83C1124.62 686.034 1123.14 685.636 1121.37 685.636C1120.09 685.636 1118.96 685.845 1117.99 686.261C1117.04 686.678 1116.29 687.251 1115.75 687.98C1115.22 688.709 1114.95 689.538 1114.95 690.466C1114.95 691.242 1115.14 691.91 1115.51 692.469C1115.89 693.018 1116.37 693.477 1116.96 693.847C1117.54 694.206 1118.16 694.505 1118.8 694.741C1119.45 694.969 1120.04 695.153 1120.58 695.295L1123.53 696.091C1124.29 696.29 1125.13 696.564 1126.06 696.915C1127 697.265 1127.89 697.743 1128.75 698.349C1129.61 698.946 1130.32 699.713 1130.88 700.651C1131.44 701.588 1131.72 702.739 1131.72 704.102C1131.72 705.674 1131.3 707.095 1130.48 708.364C1129.67 709.633 1128.47 710.641 1126.9 711.389C1125.34 712.137 1123.44 712.511 1121.2 712.511C1119.12 712.511 1117.32 712.175 1115.79 711.503C1114.28 710.83 1113.08 709.893 1112.21 708.69C1111.35 707.488 1110.86 706.091 1110.75 704.5H1114.39C1114.48 705.598 1114.85 706.508 1115.49 707.227C1116.15 707.937 1116.97 708.468 1117.97 708.818C1118.97 709.159 1120.05 709.33 1121.2 709.33C1122.55 709.33 1123.76 709.112 1124.83 708.676C1125.9 708.231 1126.74 707.616 1127.37 706.83C1127.99 706.034 1128.31 705.106 1128.31 704.045C1128.31 703.08 1128.04 702.294 1127.5 701.688C1126.96 701.081 1126.25 700.589 1125.37 700.21C1124.49 699.831 1123.53 699.5 1122.51 699.216L1118.93 698.193C1116.66 697.54 1114.86 696.607 1113.53 695.395C1112.21 694.183 1111.54 692.597 1111.54 690.636C1111.54 689.008 1111.99 687.587 1112.87 686.375C1113.76 685.153 1114.95 684.206 1116.45 683.534C1117.95 682.852 1119.63 682.511 1121.49 682.511C1123.36 682.511 1125.03 682.848 1126.49 683.52C1127.95 684.183 1129.1 685.092 1129.95 686.247C1130.82 687.402 1131.27 688.714 1131.32 690.182H1127.91ZM1145.92 712.455C1143.87 712.455 1142.11 711.972 1140.63 711.006C1139.15 710.04 1138.02 708.709 1137.22 707.014C1136.43 705.319 1136.03 703.383 1136.03 701.205C1136.03 698.989 1136.44 697.033 1137.25 695.338C1138.08 693.634 1139.22 692.303 1140.69 691.347C1142.17 690.381 1143.89 689.898 1145.86 689.898C1147.39 689.898 1148.78 690.182 1150.01 690.75C1151.24 691.318 1152.25 692.114 1153.03 693.136C1153.82 694.159 1154.31 695.352 1154.5 696.716H1151.14C1150.89 695.722 1150.32 694.841 1149.44 694.074C1148.57 693.297 1147.39 692.909 1145.92 692.909C1144.61 692.909 1143.46 693.25 1142.48 693.932C1141.5 694.604 1140.74 695.556 1140.19 696.787C1139.65 698.009 1139.38 699.443 1139.38 701.091C1139.38 702.777 1139.65 704.244 1140.18 705.494C1140.72 706.744 1141.47 707.715 1142.45 708.406C1143.44 709.098 1144.59 709.443 1145.92 709.443C1146.79 709.443 1147.58 709.292 1148.29 708.989C1149 708.686 1149.6 708.25 1150.09 707.682C1150.58 707.114 1150.94 706.432 1151.14 705.636H1154.5C1154.31 706.924 1153.84 708.084 1153.09 709.116C1152.35 710.139 1151.37 710.954 1150.15 711.56C1148.94 712.156 1147.53 712.455 1145.92 712.455ZM1159.4 712V690.182H1162.63V693.477H1162.86C1163.26 692.398 1163.98 691.522 1165.02 690.849C1166.06 690.177 1167.24 689.841 1168.54 689.841C1168.79 689.841 1169.1 689.846 1169.47 689.855C1169.84 689.865 1170.12 689.879 1170.31 689.898V693.307C1170.19 693.278 1169.93 693.236 1169.52 693.179C1169.13 693.113 1168.71 693.08 1168.26 693.08C1167.2 693.08 1166.25 693.302 1165.42 693.747C1164.6 694.183 1163.94 694.789 1163.46 695.565C1162.99 696.332 1162.75 697.208 1162.75 698.193V712H1159.4ZM1174.28 712V690.182H1177.63V712H1174.28ZM1175.98 686.545C1175.33 686.545 1174.77 686.323 1174.29 685.878C1173.83 685.433 1173.6 684.898 1173.6 684.273C1173.6 683.648 1173.83 683.113 1174.29 682.668C1174.77 682.223 1175.33 682 1175.98 682C1176.64 682 1177.2 682.223 1177.66 682.668C1178.13 683.113 1178.37 683.648 1178.37 684.273C1178.37 684.898 1178.13 685.433 1177.66 685.878C1177.2 686.323 1176.64 686.545 1175.98 686.545ZM1183.77 720.182V690.182H1187.01V693.648H1187.41C1187.65 693.269 1187.99 692.786 1188.43 692.199C1188.88 691.602 1189.51 691.072 1190.33 690.608C1191.17 690.134 1192.29 689.898 1193.71 689.898C1195.55 689.898 1197.17 690.357 1198.57 691.276C1199.97 692.194 1201.07 693.496 1201.85 695.182C1202.64 696.867 1203.03 698.856 1203.03 701.148C1203.03 703.458 1202.64 705.461 1201.85 707.156C1201.07 708.842 1199.98 710.149 1198.59 711.077C1197.19 711.995 1195.59 712.455 1193.77 712.455C1192.37 712.455 1191.25 712.223 1190.4 711.759C1189.56 711.285 1188.91 710.75 1188.46 710.153C1188 709.547 1187.65 709.045 1187.41 708.648H1187.12V720.182H1183.77ZM1187.07 701.091C1187.07 702.739 1187.31 704.192 1187.79 705.452C1188.27 706.702 1188.98 707.682 1189.91 708.392C1190.84 709.093 1191.97 709.443 1193.32 709.443C1194.72 709.443 1195.89 709.074 1196.83 708.335C1197.77 707.587 1198.48 706.583 1198.96 705.324C1199.44 704.055 1199.68 702.644 1199.68 701.091C1199.68 699.557 1199.44 698.174 1198.97 696.943C1198.51 695.703 1197.8 694.723 1196.85 694.003C1195.92 693.274 1194.74 692.909 1193.32 692.909C1191.95 692.909 1190.81 693.255 1189.88 693.946C1188.95 694.628 1188.25 695.584 1187.78 696.815C1187.3 698.037 1187.07 699.462 1187.07 701.091ZM1217.63 690.182V693.023H1206.33V690.182H1217.63ZM1209.62 684.955H1212.98V705.75C1212.98 706.697 1213.11 707.407 1213.39 707.881C1213.67 708.345 1214.03 708.657 1214.47 708.818C1214.91 708.97 1215.38 709.045 1215.87 709.045C1216.24 709.045 1216.55 709.027 1216.78 708.989C1217.02 708.941 1217.21 708.903 1217.35 708.875L1218.03 711.886C1217.81 711.972 1217.49 712.057 1217.08 712.142C1216.67 712.237 1216.16 712.284 1215.53 712.284C1214.59 712.284 1213.66 712.08 1212.75 711.673C1211.85 711.266 1211.1 710.646 1210.5 709.812C1209.92 708.979 1209.62 707.928 1209.62 706.659V684.955Z" fill="black"/>
<path d="M1376.64 642V605.636H1390.99C1393.73 605.636 1396.08 606.128 1398.02 607.11C1399.97 608.081 1401.46 609.46 1402.47 611.247C1403.5 613.023 1404.02 615.112 1404.02 617.515C1404.02 619.93 1403.5 622.007 1402.46 623.747C1401.42 625.475 1399.91 626.801 1397.93 627.724C1395.96 628.648 1393.58 629.109 1390.79 629.109H1381.19V622.93H1389.55C1391.02 622.93 1392.24 622.729 1393.21 622.327C1394.18 621.924 1394.9 621.321 1395.37 620.516C1395.86 619.711 1396.1 618.71 1396.1 617.515C1396.1 616.308 1395.86 615.29 1395.37 614.461C1394.9 613.632 1394.17 613.005 1393.19 612.579C1392.22 612.141 1390.99 611.922 1389.51 611.922H1384.33V642H1376.64ZM1396.28 625.452L1405.32 642H1396.83L1387.99 625.452H1396.28ZM1409.45 642V605.636H1433.96V611.975H1417.14V620.64H1432.69V626.979H1417.14V635.661H1434.03V642H1409.45ZM1459.79 616.094C1459.65 614.662 1459.04 613.549 1457.97 612.756C1456.89 611.963 1455.43 611.567 1453.58 611.567C1452.33 611.567 1451.27 611.744 1450.4 612.099C1449.54 612.443 1448.87 612.922 1448.41 613.538C1447.96 614.153 1447.74 614.852 1447.74 615.633C1447.71 616.284 1447.85 616.852 1448.15 617.337C1448.45 617.823 1448.87 618.243 1449.41 618.598C1449.94 618.941 1450.56 619.243 1451.25 619.504C1451.95 619.752 1452.7 619.965 1453.49 620.143L1456.76 620.924C1458.34 621.279 1459.8 621.753 1461.13 622.344C1462.45 622.936 1463.6 623.664 1464.57 624.528C1465.54 625.393 1466.29 626.411 1466.83 627.582C1467.37 628.754 1467.65 630.098 1467.66 631.613C1467.65 633.838 1467.08 635.768 1465.96 637.401C1464.84 639.023 1463.23 640.284 1461.13 641.183C1459.03 642.071 1456.5 642.515 1453.54 642.515C1450.61 642.515 1448.05 642.065 1445.87 641.165C1443.71 640.266 1442.01 638.934 1440.8 637.17C1439.59 635.395 1438.96 633.199 1438.9 630.583H1446.34C1446.42 631.802 1446.77 632.82 1447.38 633.637C1448.01 634.442 1448.84 635.052 1449.89 635.466C1450.94 635.868 1452.13 636.07 1453.46 636.07C1454.76 636.07 1455.89 635.88 1456.85 635.501C1457.82 635.123 1458.57 634.596 1459.1 633.921C1459.63 633.246 1459.9 632.471 1459.9 631.595C1459.9 630.778 1459.66 630.092 1459.17 629.536C1458.7 628.979 1458 628.506 1457.08 628.115C1456.17 627.724 1455.05 627.369 1453.72 627.05L1449.76 626.055C1446.7 625.31 1444.28 624.144 1442.5 622.558C1440.72 620.971 1439.84 618.835 1439.85 616.148C1439.84 613.946 1440.43 612.022 1441.61 610.377C1442.81 608.732 1444.45 607.447 1446.53 606.524C1448.61 605.601 1450.98 605.139 1453.63 605.139C1456.33 605.139 1458.69 605.601 1460.7 606.524C1462.72 607.447 1464.3 608.732 1465.42 610.377C1466.55 612.022 1467.13 613.928 1467.16 616.094H1459.79ZM1471.45 611.975V605.636H1501.31V611.975H1490.18V642H1482.58V611.975H1471.45ZM1520.75 614.727V620.409H1503.92V614.727H1520.75ZM1507.77 642V612.756C1507.77 610.78 1508.16 609.14 1508.93 607.838C1509.71 606.536 1510.78 605.559 1512.12 604.908C1513.47 604.257 1515.01 603.932 1516.72 603.932C1517.88 603.932 1518.94 604.021 1519.9 604.198C1520.87 604.376 1521.59 604.536 1522.07 604.678L1520.72 610.359C1520.42 610.265 1520.06 610.176 1519.62 610.093C1519.19 610.01 1518.75 609.969 1518.3 609.969C1517.19 609.969 1516.42 610.229 1515.98 610.75C1515.54 611.259 1515.32 611.975 1515.32 612.898V642H1507.77ZM1542.86 630.388V614.727H1550.43V642H1543.17V637.046H1542.88C1542.27 638.644 1541.24 639.929 1539.81 640.899C1538.39 641.87 1536.66 642.355 1534.61 642.355C1532.78 642.355 1531.18 641.941 1529.8 641.112C1528.41 640.284 1527.33 639.106 1526.55 637.579C1525.78 636.052 1525.39 634.223 1525.37 632.092V614.727H1532.94V630.743C1532.95 632.353 1533.38 633.625 1534.23 634.56C1535.09 635.496 1536.23 635.963 1537.66 635.963C1538.57 635.963 1539.43 635.756 1540.22 635.342C1541.01 634.915 1541.65 634.288 1542.14 633.46C1542.63 632.631 1542.88 631.607 1542.86 630.388ZM1564.04 605.636V642H1556.48V605.636H1564.04ZM1588.08 642H1579.84L1592.4 605.636H1602.31L1614.84 642H1606.6L1597.49 613.946H1597.21L1588.08 642ZM1587.57 627.707H1607.03V633.708H1587.57V627.707ZM1619.22 642V605.636H1633.56C1636.32 605.636 1638.67 606.163 1640.61 607.217C1642.56 608.258 1644.03 609.708 1645.05 611.567C1646.08 613.413 1646.6 615.544 1646.6 617.959C1646.6 620.374 1646.08 622.504 1645.03 624.351C1643.99 626.197 1642.48 627.636 1640.51 628.665C1638.54 629.695 1636.16 630.21 1633.37 630.21H1624.23V624.049H1632.13C1633.61 624.049 1634.83 623.795 1635.78 623.286C1636.75 622.765 1637.48 622.049 1637.95 621.137C1638.44 620.214 1638.68 619.154 1638.68 617.959C1638.68 616.751 1638.44 615.698 1637.95 614.798C1637.48 613.887 1636.75 613.183 1635.78 612.685C1634.81 612.176 1633.58 611.922 1632.09 611.922H1626.91V642H1619.22ZM1659.28 605.636V642H1651.59V605.636H1659.28ZM1688.15 622.504L1681.23 622.93C1681.11 622.339 1680.86 621.806 1680.47 621.332C1680.08 620.847 1679.56 620.462 1678.92 620.178C1678.29 619.882 1677.54 619.734 1676.67 619.734C1675.49 619.734 1674.51 619.983 1673.7 620.48C1672.9 620.965 1672.49 621.616 1672.49 622.433C1672.49 623.084 1672.75 623.635 1673.28 624.085C1673.8 624.534 1674.69 624.895 1675.96 625.168L1680.89 626.162C1683.54 626.706 1685.52 627.582 1686.82 628.79C1688.12 629.997 1688.78 631.583 1688.78 633.548C1688.78 635.336 1688.25 636.904 1687.2 638.254C1686.15 639.603 1684.72 640.656 1682.9 641.414C1681.09 642.16 1679 642.533 1676.63 642.533C1673.02 642.533 1670.14 641.781 1668 640.278C1665.87 638.763 1664.62 636.703 1664.26 634.099L1671.7 633.708C1671.92 634.809 1672.46 635.649 1673.33 636.229C1674.19 636.798 1675.3 637.082 1676.65 637.082C1677.97 637.082 1679.04 636.827 1679.84 636.318C1680.66 635.797 1681.08 635.129 1681.09 634.312C1681.08 633.625 1680.79 633.063 1680.22 632.625C1679.65 632.175 1678.77 631.832 1677.59 631.595L1672.87 630.654C1670.2 630.121 1668.22 629.198 1666.92 627.884C1665.63 626.57 1664.98 624.895 1664.98 622.859C1664.98 621.107 1665.46 619.598 1666.4 618.332C1667.36 617.065 1668.71 616.089 1670.43 615.402C1672.17 614.715 1674.21 614.372 1676.54 614.372C1679.99 614.372 1682.7 615.1 1684.67 616.556C1686.66 618.012 1687.82 619.995 1688.15 622.504Z" fill="black"/>
<path d="M1529.81 703.818V703.648C1529.83 701.839 1530.01 700.4 1530.37 699.33C1530.73 698.259 1531.25 697.393 1531.91 696.73C1532.57 696.067 1533.37 695.456 1534.3 694.898C1534.85 694.557 1535.36 694.154 1535.8 693.69C1536.25 693.217 1536.6 692.672 1536.85 692.057C1537.12 691.441 1537.25 690.759 1537.25 690.011C1537.25 689.083 1537.03 688.278 1536.6 687.597C1536.16 686.915 1535.58 686.389 1534.85 686.02C1534.12 685.651 1533.31 685.466 1532.42 685.466C1531.64 685.466 1530.9 685.627 1530.18 685.949C1529.46 686.271 1528.85 686.777 1528.37 687.469C1527.89 688.16 1527.61 689.064 1527.53 690.182H1523.95C1524.03 688.572 1524.45 687.194 1525.2 686.048C1525.97 684.902 1526.98 684.027 1528.23 683.42C1529.49 682.814 1530.89 682.511 1532.42 682.511C1534.09 682.511 1535.54 682.843 1536.77 683.506C1538.01 684.169 1538.96 685.078 1539.64 686.233C1540.32 687.388 1540.66 688.705 1540.66 690.182C1540.66 691.223 1540.5 692.166 1540.18 693.009C1539.86 693.851 1539.41 694.604 1538.81 695.267C1538.23 695.93 1537.51 696.517 1536.68 697.028C1535.85 697.549 1535.18 698.098 1534.68 698.676C1534.18 699.244 1533.81 699.921 1533.58 700.707C1533.36 701.493 1533.23 702.473 1533.22 703.648V703.818H1529.81ZM1531.62 712.227C1530.92 712.227 1530.32 711.976 1529.82 711.474C1529.32 710.973 1529.07 710.371 1529.07 709.67C1529.07 708.97 1529.32 708.368 1529.82 707.866C1530.32 707.365 1530.92 707.114 1531.62 707.114C1532.33 707.114 1532.93 707.365 1533.43 707.866C1533.93 708.368 1534.18 708.97 1534.18 709.67C1534.18 710.134 1534.06 710.561 1533.83 710.949C1533.6 711.337 1533.29 711.65 1532.9 711.886C1532.52 712.114 1532.1 712.227 1531.62 712.227Z" fill="black"/>
<defs>
<filter id="filter0_i_104_81" x="238.447" y="374.658" width="12.6439" height="12.6439" filterUnits="userSpaceOnUse" color-interpolation-filters="sRGB">
<feFlood flood-opacity="0" result="BackgroundImageFix"/>
<feBlend mode="normal" in="SourceGraphic" in2="BackgroundImageFix" result="shape"/>
<feColorMatrix in="SourceAlpha" type="matrix" values="0 0 0 0 0 0 0 0 0 0 0 0 0 0 0 0 0 0 127 0" result="hardAlpha"/>
<feOffset dx="0.1" dy="-0.1"/>
<feGaussianBlur stdDeviation="0.4"/>
<feComposite in2="hardAlpha" operator="arithmetic" k2="-1" k3="1"/>
<feColorMatrix type="matrix" values="0 0 0 0 0.85098 0 0 0 0 0.737255 0 0 0 0 0.92549 0 0 0 1 0"/>
<feBlend mode="normal" in2="shape" result="effect1_innerShadow_104_81"/>
</filter>
<filter id="filter1_i_104_81" x="234" y="360" width="150.3" height="150" filterUnits="userSpaceOnUse" color-interpolation-filters="sRGB">
<feFlood flood-opacity="0" result="BackgroundImageFix"/>
<feBlend mode="normal" in="SourceGraphic" in2="BackgroundImageFix" result="shape"/>
<feColorMatrix in="SourceAlpha" type="matrix" values="0 0 0 0 0 0 0 0 0 0 0 0 0 0 0 0 0 0 127 0" result="hardAlpha"/>
<feOffset dx="0.3"/>
<feGaussianBlur stdDeviation="0.5"/>
<feComposite in2="hardAlpha" operator="arithmetic" k2="-1" k3="1"/>
<feColorMatrix type="matrix" values="0 0 0 0 0.94902 0 0 0 0 0.564706 0 0 0 0 0.811765 0 0 0 1 0"/>
<feBlend mode="normal" in2="shape" result="effect1_innerShadow_104_81"/>
</filter>
<filter id="filter2_f_104_81" x="251.549" y="377.55" width="114.901" height="114.902" filterUnits="userSpaceOnUse" color-interpolation-filters="sRGB">
<feFlood flood-opacity="0" result="BackgroundImageFix"/>
<feBlend mode="normal" in="SourceGraphic" in2="BackgroundImageFix" result="shape"/>
<feGaussianBlur stdDeviation="0.375" result="effect1_foregroundBlur_104_81"/>
</filter>
<filter id="filter3_i_104_81" x="234.196" y="404.209" width="34.7895" height="34.7899" filterUnits="userSpaceOnUse" color-interpolation-filters="sRGB">
<feFlood flood-opacity="0" result="BackgroundImageFix"/>
<feBlend mode="normal" in="SourceGraphic" in2="BackgroundImageFix" result="shape"/>
<feColorMatrix in="SourceAlpha" type="matrix" values="0 0 0 0 0 0 0 0 0 0 0 0 0 0 0 0 0 0 127 0" result="hardAlpha"/>
<feOffset dx="0.1" dy="-0.1"/>
<feGaussianBlur stdDeviation="0.4"/>
<feComposite in2="hardAlpha" operator="arithmetic" k2="-1" k3="1"/>
<feColorMatrix type="matrix" values="0 0 0 0 0.909804 0 0 0 0 0.843137 0 0 0 0 0.980392 0 0 0 1 0"/>
<feBlend mode="normal" in2="shape" result="effect1_innerShadow_104_81"/>
</filter>
<filter id="filter4_f_104_81" x="304.945" y="378.347" width="60.7031" height="111.906" filterUnits="userSpaceOnUse" color-interpolation-filters="sRGB">
<feFlood flood-opacity="0" result="BackgroundImageFix"/>
<feBlend mode="normal" in="SourceGraphic" in2="BackgroundImageFix" result="shape"/>
<feGaussianBlur stdDeviation="0.375" result="effect1_foregroundBlur_104_81"/>
</filter>
<filter id="filter5_i_104_81" x="333.536" y="443.569" width="50.8346" height="50.5346" filterUnits="userSpaceOnUse" color-interpolation-filters="sRGB">
<feFlood flood-opacity="0" result="BackgroundImageFix"/>
<feBlend mode="normal" in="SourceGraphic" in2="BackgroundImageFix" result="shape"/>
<feColorMatrix in="SourceAlpha" type="matrix" values="0 0 0 0 0 0 0 0 0 0 0 0 0 0 0 0 0 0 127 0" result="hardAlpha"/>
<feOffset dx="0.4" dy="-0.1"/>
<feGaussianBlur stdDeviation="0.5"/>
<feComposite in2="hardAlpha" operator="arithmetic" k2="-1" k3="1"/>
<feColorMatrix type="matrix" values="0 0 0 0 0.792157 0 0 0 0 0.54902 0 0 0 0 0.894118 0 0 0 1 0"/>
<feBlend mode="normal" in2="shape" result="effect1_innerShadow_104_81"/>
</filter>
<radialGradient id="paint0_radial_104_81" cx="0" cy="0" r="1" gradientUnits="userSpaceOnUse" gradientTransform="translate(251.54 401.789) rotate(-8.079) scale(22.6938)">
<stop stop-color="#CEC4D1"/>
<stop offset="1" stop-color="#C8C1C9"/>
</radialGradient>
<radialGradient id="paint1_radial_104_81" cx="0" cy="0" r="1" gradientUnits="userSpaceOnUse" gradientTransform="translate(268.458 401.787) rotate(180) scale(16.9192)">
<stop offset="0.529" stop-color="#CEC5D1" stop-opacity="0"/>
<stop offset="1" stop-color="#E4DFE8"/>
</radialGradient>
<radialGradient id="paint2_radial_104_81" cx="0" cy="0" r="1" gradientUnits="userSpaceOnUse" gradientTransform="translate(248.575 379.505) rotate(168.14) scale(10.3489 9.79411)">
<stop offset="0.135" stop-color="#FFEDFF"/>
<stop offset="0.911" stop-color="#DBCBEA"/>
</radialGradient>
<radialGradient id="paint3_radial_104_81" cx="0" cy="0" r="1" gradientUnits="userSpaceOnUse" gradientTransform="translate(245.983 384.665) rotate(-100.366) scale(10.0746 10.0746)">
<stop offset="0.818" stop-color="#DAD4E0" stop-opacity="0"/>
<stop offset="1" stop-color="#DAD4E0"/>
</radialGradient>
<linearGradient id="paint4_linear_104_81" x1="367.555" y1="390.169" x2="262.822" y2="486.485" gradientUnits="userSpaceOnUse">
<stop stop-color="#FFABBD"/>
<stop offset="1" stop-color="#F756E5"/>
</linearGradient>
<radialGradient id="paint5_radial_104_81" cx="0" cy="0" r="1" gradientUnits="userSpaceOnUse" gradientTransform="translate(348.282 443.612) rotate(-111.029) scale(100.194 137.861)">
<stop offset="0.713" stop-color="#E082A1" stop-opacity="0"/>
<stop offset="0.965" stop-color="#E1959A"/>
</radialGradient>
<radialGradient id="paint6_radial_104_81" cx="0" cy="0" r="1" gradientUnits="userSpaceOnUse" gradientTransform="translate(257.094 417.445) rotate(-46.1412) scale(59.7827 42.3389)">
<stop stop-color="#E775AB"/>
<stop offset="1" stop-color="#E775AB" stop-opacity="0"/>
</radialGradient>
<radialGradient id="paint7_radial_104_81" cx="0" cy="0" r="1" gradientUnits="userSpaceOnUse" gradientTransform="translate(246.657 436.978) rotate(119.055) scale(13.8691 10.3535)">
<stop stop-color="#E551C0"/>
<stop offset="1" stop-color="#E551C0" stop-opacity="0"/>
</radialGradient>
<radialGradient id="paint8_radial_104_81" cx="0" cy="0" r="1" gradientUnits="userSpaceOnUse" gradientTransform="translate(339.606 479.076) rotate(158.405) scale(34.7704 36.9667)">
<stop offset="0.187" stop-color="#D24BB4"/>
<stop offset="1" stop-color="#D24BB4" stop-opacity="0"/>
</radialGradient>
<radialGradient id="paint9_radial_104_81" cx="0" cy="0" r="1" gradientUnits="userSpaceOnUse" gradientTransform="translate(373.617 455.163) rotate(-103.241) scale(29.4072 27.206)">
<stop offset="0.329" stop-color="#E588A9"/>
<stop offset="1" stop-color="#E588A9" stop-opacity="0"/>
</radialGradient>
<radialGradient id="paint10_radial_104_81" cx="0" cy="0" r="1" gradientUnits="userSpaceOnUse" gradientTransform="translate(358.799 409.028) rotate(-4.58391) scale(25.2833 34.4771)">
<stop stop-color="#FFA7C0"/>
<stop offset="1" stop-color="#FFA7C0" stop-opacity="0"/>
</radialGradient>
<linearGradient id="paint11_linear_104_81" x1="345.243" y1="398.755" x2="274.44" y2="469.558" gradientUnits="userSpaceOnUse">
<stop stop-color="#EE7BBE"/>
<stop offset="1" stop-color="#FF7BE6"/>
</linearGradient>
<linearGradient id="paint12_linear_104_81" x1="274.863" y1="475.368" x2="291.025" y2="458.87" gradientUnits="userSpaceOnUse">
<stop offset="0.178" stop-color="#FF83E6"/>
<stop offset="1" stop-color="#FF83E6" stop-opacity="0"/>
</linearGradient>
<linearGradient id="paint13_linear_104_81" x1="277.45" y1="398.498" x2="293.201" y2="415.682" gradientUnits="userSpaceOnUse">
<stop offset="0.493" stop-color="#F89BB9"/>
<stop offset="1" stop-color="#F89BB9" stop-opacity="0"/>
</linearGradient>
<radialGradient id="paint14_radial_104_81" cx="0" cy="0" r="1" gradientUnits="userSpaceOnUse" gradientTransform="translate(257.72 419.901) rotate(171.772) scale(23.7666 22.4923)">
<stop offset="0.135" stop-color="#FFEDFF"/>
<stop offset="1" stop-color="#ECAEFF"/>
</radialGradient>
<radialGradient id="paint15_radial_104_81" cx="0" cy="0" r="1" gradientUnits="userSpaceOnUse" gradientTransform="translate(234.196 432.791) rotate(-25.398) scale(19.1992 27.5759)">
<stop offset="0.182" stop-color="#DBB6FF"/>
<stop offset="1" stop-color="#DBB6FF" stop-opacity="0"/>
</radialGradient>
<radialGradient id="paint16_radial_104_81" cx="0" cy="0" r="1" gradientUnits="userSpaceOnUse" gradientTransform="translate(255.029 431.714) rotate(-100.366) scale(27.8572)">
<stop offset="0.818" stop-color="#DAD4E0" stop-opacity="0"/>
<stop offset="1" stop-color="#DAD4E0"/>
</radialGradient>
<linearGradient id="paint17_linear_104_81" x1="305.695" y1="476.383" x2="354.336" y2="431.59" gradientUnits="userSpaceOnUse">
<stop stop-color="#F068CB"/>
<stop offset="1" stop-color="#F068CB" stop-opacity="0"/>
</linearGradient>
<radialGradient id="paint18_radial_104_81" cx="0" cy="0" r="1" gradientUnits="userSpaceOnUse" gradientTransform="translate(341.641 458.979) rotate(131.285) scale(20.8975 15.924)">
<stop offset="0.07" stop-color="#D35F9E"/>
<stop offset="1" stop-color="#D35F9E" stop-opacity="0"/>
</radialGradient>
<radialGradient id="paint19_radial_104_81" cx="0" cy="0" r="1" gradientUnits="userSpaceOnUse" gradientTransform="translate(337.812 499.196) rotate(-99.462) scale(18.6379)">
<stop stop-color="#EDA5FF"/>
<stop offset="1" stop-color="#C28CDD"/>
</radialGradient>
<radialGradient id="paint20_radial_104_81" cx="0" cy="0" r="1" gradientUnits="userSpaceOnUse" gradientTransform="translate(350.646 485.403) rotate(129.237) scale(14.835 20.4301)">
<stop offset="0.381" stop-color="#D89AFF"/>
<stop offset="1" stop-color="#D89AFF" stop-opacity="0"/>
</radialGradient>
<radialGradient id="paint21_radial_104_81" cx="0" cy="0" r="1" gradientUnits="userSpaceOnUse" gradientTransform="translate(375.731 462.038) rotate(167.646) scale(43.1909 40.8751)">
<stop offset="0.218" stop-color="#FFEDFF"/>
<stop offset="1" stop-color="#ECAEFF"/>
</radialGradient>
<radialGradient id="paint22_radial_104_81" cx="0" cy="0" r="1" gradientUnits="userSpaceOnUse" gradientTransform="translate(333.538 485.072) rotate(-29.477) scale(24.7642 35.5689)">
<stop offset="0.182" stop-color="#DBB6FF"/>
<stop offset="1" stop-color="#DBB6FF" stop-opacity="0"/>
</radialGradient>
<radialGradient id="paint23_radial_104_81" cx="0" cy="0" r="1" gradientUnits="userSpaceOnUse" gradientTransform="translate(363.836 483.512) rotate(-100.366) scale(40.501 40.501)">
<stop offset="0.818" stop-color="#DAD4E0" stop-opacity="0"/>
<stop offset="1" stop-color="#DAD4E0"/>
</radialGradient>
<radialGradient id="paint24_radial_104_81" cx="0" cy="0" r="1" gradientUnits="userSpaceOnUse" gradientTransform="translate(365.011 452.275) rotate(98.499) scale(42.2956 51.9003)">
<stop offset="0.681" stop-color="#F3B7FF" stop-opacity="0"/>
<stop offset="1" stop-color="#E697FF"/>
</radialGradient>
<clipPath id="clip0_104_81">
<rect width="126.031" height="150" fill="white" transform="translate(1054 360)"/>
</clipPath>
</defs>
</svg>
