<svg width="1920" height="1080" viewBox="0 0 1920 1080" fill="none" xmlns="http://www.w3.org/2000/svg">
<rect width="1920" height="1080" fill="white"/>
<path d="M264.496 413.744C271.099 413.744 276.452 408.391 276.452 401.787C276.452 395.184 271.099 389.831 264.496 389.831C257.892 389.831 252.539 395.184 252.539 401.787C252.539 408.391 257.892 413.744 264.496 413.744Z" fill="url(#paint0_radial_104_2)"/>
<path d="M264.496 413.744C271.099 413.744 276.452 408.391 276.452 401.787C276.452 395.184 271.099 389.831 264.496 389.831C257.892 389.831 252.539 395.184 252.539 401.787C252.539 408.391 257.892 413.744 264.496 413.744Z" fill="url(#paint1_radial_104_2)"/>
<g filter="url(#filter0_i_104_2)">
<path d="M245.719 387.302C249.183 387.302 251.991 384.494 251.991 381.03C251.991 377.566 249.183 374.758 245.719 374.758C242.255 374.758 239.447 377.566 239.447 381.03C239.447 384.494 242.255 387.302 245.719 387.302Z" fill="url(#paint2_radial_104_2)"/>
<path d="M245.719 387.302C249.183 387.302 251.991 384.494 251.991 381.03C251.991 377.566 249.183 374.758 245.719 374.758C242.255 374.758 239.447 377.566 239.447 381.03C239.447 384.494 242.255 387.302 245.719 387.302Z" fill="url(#paint3_radial_104_2)"/>
</g>
<g filter="url(#filter1_i_104_2)">
<path d="M296.772 370.098C303.239 363.632 312.009 360 321.154 360C330.299 360 339.069 363.632 345.536 370.098L374.902 399.464C381.368 405.931 385 414.701 385 423.846C385 432.991 381.368 441.761 374.902 448.228L323.228 499.902C316.761 506.368 307.991 510 298.846 510C289.701 510 280.931 506.368 274.464 499.902L245.098 470.536C238.632 464.069 235 455.299 235 446.154C235 437.009 238.632 428.239 245.098 421.772L296.772 370.098V370.098Z" fill="url(#paint4_linear_104_2)"/>
<path d="M296.772 370.098C303.239 363.632 312.009 360 321.154 360C330.299 360 339.069 363.632 345.536 370.098L374.902 399.464C381.368 405.931 385 414.701 385 423.846C385 432.991 381.368 441.761 374.902 448.228L323.228 499.902C316.761 506.368 307.991 510 298.846 510C289.701 510 280.931 506.368 274.464 499.902L245.098 470.536C238.632 464.069 235 455.299 235 446.154C235 437.009 238.632 428.239 245.098 421.772L296.772 370.098V370.098Z" fill="url(#paint5_radial_104_2)"/>
<path d="M296.772 370.098C303.239 363.632 312.009 360 321.154 360C330.299 360 339.069 363.632 345.536 370.098L374.902 399.464C381.368 405.931 385 414.701 385 423.846C385 432.991 381.368 441.761 374.902 448.228L323.228 499.902C316.761 506.368 307.991 510 298.846 510C289.701 510 280.931 506.368 274.464 499.902L245.098 470.536C238.632 464.069 235 455.299 235 446.154C235 437.009 238.632 428.239 245.098 421.772L296.772 370.098V370.098Z" fill="url(#paint6_radial_104_2)"/>
<path d="M296.772 370.098C303.239 363.632 312.009 360 321.154 360C330.299 360 339.069 363.632 345.536 370.098L374.902 399.464C381.368 405.931 385 414.701 385 423.846C385 432.991 381.368 441.761 374.902 448.228L323.228 499.902C316.761 506.368 307.991 510 298.846 510C289.701 510 280.931 506.368 274.464 499.902L245.098 470.536C238.632 464.069 235 455.299 235 446.154C235 437.009 238.632 428.239 245.098 421.772L296.772 370.098V370.098Z" fill="url(#paint7_radial_104_2)"/>
<path d="M296.772 370.098C303.239 363.632 312.009 360 321.154 360C330.299 360 339.069 363.632 345.536 370.098L374.902 399.464C381.368 405.931 385 414.701 385 423.846C385 432.991 381.368 441.761 374.902 448.228L323.228 499.902C316.761 506.368 307.991 510 298.846 510C289.701 510 280.931 506.368 274.464 499.902L245.098 470.536C238.632 464.069 235 455.299 235 446.154C235 437.009 238.632 428.239 245.098 421.772L296.772 370.098V370.098Z" fill="url(#paint8_radial_104_2)"/>
<path d="M296.772 370.098C303.239 363.632 312.009 360 321.154 360C330.299 360 339.069 363.632 345.536 370.098L374.902 399.464C381.368 405.931 385 414.701 385 423.846C385 432.991 381.368 441.761 374.902 448.228L323.228 499.902C316.761 506.368 307.991 510 298.846 510C289.701 510 280.931 506.368 274.464 499.902L245.098 470.536C238.632 464.069 235 455.299 235 446.154C235 437.009 238.632 428.239 245.098 421.772L296.772 370.098V370.098Z" fill="url(#paint9_radial_104_2)"/>
<path d="M296.772 370.098C303.239 363.632 312.009 360 321.154 360C330.299 360 339.069 363.632 345.536 370.098L374.902 399.464C381.368 405.931 385 414.701 385 423.846C385 432.991 381.368 441.761 374.902 448.228L323.228 499.902C316.761 506.368 307.991 510 298.846 510C289.701 510 280.931 506.368 274.464 499.902L245.098 470.536C238.632 464.069 235 455.299 235 446.154C235 437.009 238.632 428.239 245.098 421.772L296.772 370.098V370.098Z" fill="url(#paint10_radial_104_2)"/>
</g>
<g filter="url(#filter2_f_104_2)">
<path d="M361.167 413.679L331.323 383.834C325.01 377.521 314.775 377.521 308.462 383.834L258.832 433.465C252.519 439.777 252.519 450.012 258.832 456.325L288.676 486.17C294.989 492.483 305.224 492.483 311.537 486.17L361.167 436.539C367.48 430.227 367.48 419.991 361.167 413.679Z" fill="url(#paint11_linear_104_2)"/>
<path d="M361.167 413.679L331.323 383.834C325.01 377.521 314.775 377.521 308.462 383.834L258.832 433.465C252.519 439.777 252.519 450.012 258.832 456.325L288.676 486.17C294.989 492.483 305.224 492.483 311.537 486.17L361.167 436.539C367.48 430.227 367.48 419.991 361.167 413.679Z" fill="url(#paint12_linear_104_2)"/>
<path d="M361.644 413.201L331.799 383.357C325.223 376.781 314.562 376.781 307.986 383.357L258.356 432.987C251.78 439.563 251.78 450.225 258.356 456.8L288.2 486.645C294.776 493.221 305.437 493.221 312.013 486.645L361.644 437.015C368.22 430.439 368.22 419.777 361.644 413.201Z" stroke="url(#paint13_linear_104_2)" stroke-width="0.25"/>
</g>
<g filter="url(#filter3_i_104_2)">
<path d="M252.54 438.999C262.12 438.999 269.885 431.233 269.885 421.654C269.885 412.074 262.12 404.309 252.54 404.309C242.961 404.309 235.195 412.074 235.195 421.654C235.195 431.233 242.961 438.999 252.54 438.999Z" fill="url(#paint14_radial_104_2)"/>
<path d="M252.54 438.999C262.12 438.999 269.885 431.233 269.885 421.654C269.885 412.074 262.12 404.309 252.54 404.309C242.961 404.309 235.195 412.074 235.195 421.654C235.195 431.233 242.961 438.999 252.54 438.999Z" fill="url(#paint15_radial_104_2)"/>
<path d="M252.54 438.999C262.12 438.999 269.885 431.233 269.885 421.654C269.885 412.074 262.12 404.309 252.54 404.309C242.961 404.309 235.195 412.074 235.195 421.654C235.195 431.233 242.961 438.999 252.54 438.999Z" fill="url(#paint16_radial_104_2)"/>
</g>
<g filter="url(#filter4_f_104_2)">
<path d="M306.695 489.503L314.519 380.013C317.395 379.001 320.499 378.824 323.472 379.501C326.445 380.178 329.165 381.681 331.32 383.839L361.166 413.679C364.196 416.71 365.899 420.821 365.899 425.108C365.899 429.394 364.196 433.505 361.166 436.536L311.539 486.163C310.143 487.564 308.501 488.696 306.695 489.503V489.503Z" fill="url(#paint17_linear_104_2)"/>
<path d="M306.695 489.503L314.519 380.013C317.395 379.001 320.499 378.824 323.472 379.501C326.445 380.178 329.165 381.681 331.32 383.839L361.166 413.679C364.196 416.71 365.899 420.821 365.899 425.108C365.899 429.394 364.196 433.505 361.166 436.536L311.539 486.163C310.143 487.564 308.501 488.696 306.695 489.503V489.503Z" fill="url(#paint18_radial_104_2)"/>
</g>
<path d="M340.433 505.846C348.569 505.846 355.164 499.25 355.164 491.114C355.164 482.978 348.569 476.383 340.433 476.383C332.297 476.383 325.701 482.978 325.701 491.114C325.701 499.25 332.297 505.846 340.433 505.846Z" fill="url(#paint19_radial_104_2)"/>
<path d="M340.433 505.846C348.569 505.846 355.164 499.25 355.164 491.114C355.164 482.978 348.569 476.383 340.433 476.383C332.297 476.383 325.701 482.978 325.701 491.114C325.701 499.25 332.297 505.846 340.433 505.846Z" fill="url(#paint20_radial_104_2)"/>
<g filter="url(#filter5_i_104_2)">
<path d="M359.752 494.104C373.68 494.104 384.97 482.814 384.97 468.887C384.97 454.96 373.68 443.669 359.752 443.669C345.825 443.669 334.535 454.96 334.535 468.887C334.535 482.814 345.825 494.104 359.752 494.104Z" fill="url(#paint21_radial_104_2)"/>
<path d="M359.752 494.104C373.68 494.104 384.97 482.814 384.97 468.887C384.97 454.96 373.68 443.669 359.752 443.669C345.825 443.669 334.535 454.96 334.535 468.887C334.535 482.814 345.825 494.104 359.752 494.104Z" fill="url(#paint22_radial_104_2)"/>
<path d="M359.752 494.104C373.68 494.104 384.97 482.814 384.97 468.887C384.97 454.96 373.68 443.669 359.752 443.669C345.825 443.669 334.535 454.96 334.535 468.887C334.535 482.814 345.825 494.104 359.752 494.104Z" fill="url(#paint23_radial_104_2)"/>
</g>
<path d="M359.752 494.104C373.68 494.104 384.97 482.814 384.97 468.887C384.97 454.96 373.68 443.67 359.752 443.67C345.825 443.67 334.535 454.96 334.535 468.887C334.535 482.814 345.825 494.104 359.752 494.104Z" fill="url(#paint24_radial_104_2)"/>
<path d="M661.16 470.385L666.551 473.498L726.607 369.48L721.216 366.368L661.16 470.385Z" fill="#E535AB"/>
<path d="M780.036 462.075H659.924V468.3H780.036V462.075Z" fill="#E535AB"/>
<path d="M662.301 465.572L722.38 500.26L725.492 494.869L665.414 460.181L662.301 465.572Z" fill="#E535AB"/>
<path d="M714.493 375.167L774.571 409.855L777.684 404.464L717.605 369.777L714.493 375.167Z" fill="#E535AB"/>
<path d="M662.319 404.44L665.432 409.831L725.51 375.144L722.398 369.753L662.319 404.44Z" fill="#E535AB"/>
<path d="M713.407 369.482L773.463 473.499L778.854 470.387L718.797 366.369L713.407 369.482Z" fill="#E535AB"/>
<path d="M670.912 400.312H664.688V469.688H670.912V400.312Z" fill="#E535AB"/>
<path d="M775.312 400.312H769.087V469.688H775.312V400.312Z" fill="#E535AB"/>
<path d="M718.602 492.916L721.32 497.625L773.573 467.456L770.854 462.747L718.602 492.916Z" fill="#E535AB"/>
<path d="M783.562 471.713C779.962 477.975 771.937 480.113 765.674 476.513C759.412 472.913 757.274 464.888 760.874 458.625C764.474 452.363 772.499 450.225 778.762 453.825C785.062 457.463 787.199 465.45 783.562 471.713Z" fill="#E535AB"/>
<path d="M679.087 411.375C675.487 417.638 667.462 419.775 661.2 416.175C654.937 412.575 652.8 404.55 656.4 398.288C660 392.025 668.025 389.888 674.287 393.488C680.55 397.125 682.687 405.113 679.087 411.375Z" fill="#E535AB"/>
<path d="M656.437 471.713C652.837 465.45 654.974 457.463 661.237 453.825C667.499 450.225 675.487 452.363 679.124 458.625C682.724 464.888 680.587 472.875 674.324 476.513C668.024 480.113 660.037 477.975 656.437 471.713Z" fill="#E535AB"/>
<path d="M760.913 411.375C757.313 405.113 759.45 397.125 765.713 393.488C771.975 389.888 779.963 392.025 783.6 398.288C787.2 404.55 785.063 412.538 778.8 416.175C772.538 419.775 764.513 417.638 760.913 411.375Z" fill="#E535AB"/>
<path d="M720 508.425C712.762 508.425 706.912 502.575 706.912 495.337C706.912 488.1 712.762 482.25 720 482.25C727.237 482.25 733.087 488.1 733.087 495.337C733.087 502.537 727.237 508.425 720 508.425Z" fill="#E535AB"/>
<path d="M720 387.75C712.762 387.75 706.912 381.9 706.912 374.663C706.912 367.425 712.762 361.575 720 361.575C727.237 361.575 733.087 367.425 733.087 374.663C733.087 381.9 727.237 387.75 720 387.75Z" fill="#E535AB"/>
<path d="M1441 460V410H1453.54V426.667H1470.25V410H1482.79V460H1470.25V439.167H1453.54V460H1441ZM1503.68 460V422.5H1491.15V410H1528.76V422.5H1516.22V460H1503.68ZM1549.65 460V422.5H1537.11V410H1574.72V422.5H1562.19V460H1549.65ZM1583.08 460V410H1612.33C1615.68 410 1618.6 411.25 1621.11 413.75C1623.62 416.25 1624.87 419.167 1624.87 422.5V430.833C1624.87 434.167 1623.62 437.083 1621.11 439.583C1618.6 442.083 1615.68 443.333 1612.33 443.333H1595.62V460H1583.08ZM1595.62 430.833H1612.33V422.5H1595.62V430.833Z" fill="black"/>
<g clip-path="url(#clip0_104_2)">
<path d="M1069.07 480.238H1079.89V485.723H1069.07V498.17C1069.05 499.063 1069.17 499.954 1069.43 500.808C1069.63 501.442 1069.98 502.016 1070.46 502.48C1070.92 502.912 1071.47 503.224 1072.08 503.39C1072.69 503.552 1073.32 503.641 1073.94 503.654L1074.21 503.655C1074.78 503.655 1075.36 503.655 1075.97 503.575L1076.33 503.531L1077.02 503.452C1077.25 503.426 1077.47 503.397 1077.69 503.36L1078.02 503.308L1078.63 503.218C1078.82 503.188 1079.02 503.157 1079.2 503.12L1079.66 503.029L1079.87 502.985L1080.26 502.898L1080.44 502.856L1081.16 507.965C1080.58 508.295 1079.96 508.559 1079.32 508.752C1078.59 508.983 1077.85 509.165 1077.09 509.3C1076.31 509.447 1075.49 509.558 1074.63 509.638C1073.8 509.716 1072.96 509.755 1072.13 509.755C1070.67 509.776 1069.21 509.569 1067.82 509.14C1066.57 508.753 1065.44 508.079 1064.51 507.172C1063.54 506.231 1062.82 505.077 1062.39 503.802C1061.85 502.219 1061.6 500.554 1061.64 498.883V485.723H1055V480.238H1061.62V473.148H1069.07V480.238H1069.07ZM1095.59 494.634V509.195H1088.06V470.227H1101.17C1103.15 470.202 1105.12 470.459 1107.03 470.989C1108.66 471.439 1110.19 472.199 1111.53 473.228C1112.77 474.21 1113.74 475.476 1114.38 476.917C1115.08 478.52 1115.43 480.255 1115.39 482.003C1115.41 483.273 1115.24 484.538 1114.89 485.76C1114.3 487.884 1113.02 489.752 1111.25 491.073C1110.35 491.754 1109.38 492.329 1108.34 492.789L1116.73 508.869V509.22H1108.63L1101.3 494.634H1095.59ZM1095.6 488.521H1101.17C1102.21 488.542 1103.26 488.375 1104.25 488.03C1105.07 487.736 1105.81 487.244 1106.41 486.597C1106.87 486.083 1107.22 485.483 1107.45 484.831C1107.67 484.164 1107.79 483.467 1107.8 482.764L1107.8 482.501C1107.82 481.565 1107.66 480.635 1107.34 479.759C1107.04 478.995 1106.56 478.318 1105.93 477.791C1105.33 477.305 1104.64 476.941 1103.89 476.721C1103.1 476.489 1102.28 476.363 1101.45 476.347L1095.6 476.345V488.521V488.521ZM1129 509.195H1121.48V470.227H1134.82C1136.78 470.199 1138.73 470.511 1140.58 471.15C1142.2 471.707 1143.69 472.576 1144.98 473.707C1146.17 474.816 1147.11 476.166 1147.75 477.668C1148.37 479.186 1148.7 480.808 1148.72 482.45V482.778C1148.74 484.444 1148.41 486.095 1147.75 487.623C1147.11 489.083 1146.16 490.387 1144.98 491.448C1143.69 492.58 1142.19 493.445 1140.56 493.994C1138.71 494.625 1136.76 494.933 1134.8 494.904H1128.99L1129 509.195V509.195ZM1129 488.804H1134.81C1135.76 488.823 1136.71 488.658 1137.6 488.318C1138.34 488.026 1139.02 487.58 1139.58 487.009C1140.09 486.458 1140.49 485.807 1140.74 485.096C1141 484.37 1141.14 483.604 1141.14 482.833C1141.14 481.971 1141.01 481.114 1140.74 480.294C1140.5 479.533 1140.1 478.83 1139.58 478.227C1139.02 477.628 1138.35 477.154 1137.6 476.838C1136.71 476.48 1135.76 476.306 1134.81 476.327H1129V488.804ZM1179.72 502.29C1179.03 503.809 1178.05 505.175 1176.82 506.305C1175.55 507.436 1174.08 508.306 1172.48 508.863C1170.8 509.436 1169.05 509.737 1167.28 509.756L1166.9 509.755C1165.39 509.773 1163.89 509.566 1162.44 509.14C1161.12 508.746 1159.87 508.135 1158.75 507.332C1157.74 506.586 1156.84 505.693 1156.09 504.682C1155.3 503.623 1154.63 502.473 1154.12 501.257C1153.58 499.929 1153.18 498.548 1152.93 497.136C1152.64 495.564 1152.5 493.969 1152.51 492.371V487.125C1152.51 485.623 1152.63 484.123 1152.89 482.642C1153.09 481.441 1153.42 480.262 1153.85 479.121L1154.01 478.695C1154.56 477.267 1155.32 475.932 1156.27 474.734C1157.16 473.602 1158.23 472.611 1159.42 471.795C1160.5 471.103 1161.67 470.575 1162.89 470.227C1164.09 469.886 1165.33 469.702 1166.58 469.681L1166.95 469.68C1168.9 469.646 1170.83 469.954 1172.67 470.589C1174.26 471.136 1175.71 472.018 1176.93 473.177C1178.15 474.336 1179.11 475.744 1179.73 477.305C1180.44 479.056 1180.87 480.907 1181.02 482.79H1173.52C1173.47 481.747 1173.3 480.715 1173 479.715C1172.76 478.909 1172.35 478.161 1171.81 477.52C1171.25 476.937 1170.57 476.493 1169.81 476.222C1168.89 475.908 1167.93 475.758 1166.96 475.78C1166.4 475.778 1165.85 475.842 1165.31 475.971C1164.82 476.09 1164.34 476.279 1163.9 476.53C1163.15 476.99 1162.52 477.623 1162.06 478.375C1161.52 479.237 1161.1 480.171 1160.83 481.148C1160.58 482.039 1160.41 482.948 1160.32 483.866C1160.21 484.928 1160.16 485.996 1160.16 487.064V492.359C1160.15 493.75 1160.23 495.141 1160.41 496.522C1160.55 497.614 1160.82 498.688 1161.2 499.719C1161.43 500.307 1161.73 500.864 1162.1 501.38C1162.43 501.852 1162.83 502.267 1163.29 502.609C1163.78 502.969 1164.33 503.235 1164.91 503.396C1165.56 503.576 1166.23 503.663 1166.91 503.655C1167.81 503.665 1168.7 503.539 1169.56 503.28C1170.31 503.048 1171 502.644 1171.57 502.099C1172.16 501.518 1172.61 500.814 1172.88 500.039C1173.24 499.067 1173.45 498.047 1173.5 497.014H1181.03C1180.92 498.837 1180.48 500.625 1179.72 502.29H1179.72ZM1146.76 405.444L1165.7 416.371V438.238L1146.76 449.166L1138.34 444.306L1117.89 456.102L1097.56 444.374L1089.27 449.165L1070.32 438.22V416.37L1089.27 405.443L1108.22 416.371V438.219L1102.48 441.531L1117.89 450.42L1133.42 441.463L1127.81 438.219V416.37L1146.76 405.443V405.444ZM1132.73 422.066V435.403L1144.29 442.07V428.732L1132.73 422.066ZM1160.78 422.047L1149.22 428.713V442.07L1160.78 435.385V422.047V422.047ZM1075.25 422.047V435.385L1086.81 442.051V428.713L1075.25 422.047V422.047ZM1103.29 422.047L1091.73 428.713V442.05L1103.29 435.385V422.047L1103.29 422.047ZM1146.76 411.138L1135.2 417.804L1146.76 424.476L1158.31 417.804L1146.76 411.138ZM1089.27 411.12L1077.71 417.804L1089.27 424.458L1100.83 417.804L1089.27 411.12V411.12ZM1098.69 377.225V382.9L1081.16 393.017V410.118L1076.24 412.959V390.175L1098.69 377.224L1098.69 377.225ZM1117.64 360L1136.6 370.927V376.937L1159.55 390.175V412.817L1154.62 409.976V393.016L1136.6 382.619V392.782L1117.65 403.71L1098.71 392.782V370.927L1117.64 360ZM1103.63 376.603V389.941L1115.18 396.607V383.275L1103.63 376.603H1103.63ZM1131.66 376.603L1120.11 383.275V396.601L1131.66 389.941V376.603H1131.66ZM1117.64 365.682L1106.09 372.348L1117.64 379.014L1129.2 372.348L1117.64 365.682H1117.64Z" fill="#398CCB"/>
</g>
<path d="M252.087 616.094C251.945 614.662 251.336 613.549 250.258 612.756C249.181 611.963 247.719 611.567 245.873 611.567C244.618 611.567 243.559 611.744 242.695 612.099C241.83 612.443 241.168 612.922 240.706 613.538C240.256 614.153 240.031 614.852 240.031 615.633C240.007 616.284 240.144 616.852 240.44 617.337C240.747 617.823 241.168 618.243 241.7 618.598C242.233 618.941 242.848 619.243 243.547 619.504C244.245 619.752 244.991 619.965 245.784 620.143L249.051 620.924C250.637 621.279 252.093 621.753 253.419 622.344C254.745 622.936 255.893 623.664 256.864 624.528C257.834 625.393 258.586 626.411 259.119 627.582C259.663 628.754 259.941 630.098 259.953 631.613C259.941 633.838 259.373 635.768 258.248 637.401C257.136 639.023 255.526 640.284 253.419 641.183C251.324 642.071 248.797 642.515 245.837 642.515C242.902 642.515 240.345 642.065 238.167 641.165C236.001 640.266 234.308 638.934 233.089 637.17C231.881 635.395 231.248 633.199 231.189 630.583H238.628C238.711 631.802 239.061 632.82 239.676 633.637C240.303 634.442 241.138 635.052 242.18 635.466C243.233 635.868 244.423 636.07 245.748 636.07C247.051 636.07 248.181 635.88 249.14 635.501C250.11 635.123 250.862 634.596 251.395 633.921C251.927 633.246 252.194 632.471 252.194 631.595C252.194 630.778 251.951 630.092 251.466 629.536C250.992 628.979 250.294 628.506 249.371 628.115C248.459 627.724 247.341 627.369 246.015 627.05L242.055 626.055C238.989 625.31 236.569 624.144 234.793 622.558C233.018 620.971 232.136 618.835 232.148 616.148C232.136 613.946 232.722 612.022 233.905 610.377C235.101 608.732 236.74 607.447 238.824 606.524C240.907 605.601 243.275 605.139 245.926 605.139C248.625 605.139 250.98 605.601 252.993 606.524C255.017 607.447 256.591 608.732 257.716 610.377C258.84 612.022 259.42 613.928 259.456 616.094H252.087ZM298.541 623.818C298.541 627.784 297.789 631.157 296.286 633.939C294.794 636.721 292.758 638.845 290.178 640.313C287.609 641.769 284.721 642.497 281.513 642.497C278.281 642.497 275.381 641.763 272.813 640.295C270.244 638.828 268.214 636.703 266.722 633.921C265.231 631.139 264.485 627.772 264.485 623.818C264.485 619.853 265.231 616.479 266.722 613.697C268.214 610.916 270.244 608.797 272.813 607.341C275.381 605.873 278.281 605.139 281.513 605.139C284.721 605.139 287.609 605.873 290.178 607.341C292.758 608.797 294.794 610.916 296.286 613.697C297.789 616.479 298.541 619.853 298.541 623.818ZM290.746 623.818C290.746 621.25 290.361 619.083 289.592 617.32C288.834 615.556 287.763 614.218 286.378 613.307C284.993 612.395 283.371 611.94 281.513 611.94C279.654 611.94 278.033 612.395 276.648 613.307C275.263 614.218 274.186 615.556 273.416 617.32C272.659 619.083 272.28 621.25 272.28 623.818C272.28 626.387 272.659 628.553 273.416 630.317C274.186 632.08 275.263 633.418 276.648 634.33C278.033 635.241 279.654 635.697 281.513 635.697C283.371 635.697 284.993 635.241 286.378 634.33C287.763 633.418 288.834 632.08 289.592 630.317C290.361 628.553 290.746 626.387 290.746 623.818ZM308.453 642H300.214L312.767 605.636H322.675L335.21 642H326.972L317.863 613.946H317.579L308.453 642ZM307.938 627.707H327.398V633.708H307.938V627.707ZM339.587 642V605.636H353.934C356.692 605.636 359.042 606.163 360.983 607.217C362.924 608.258 364.404 609.708 365.422 611.567C366.452 613.413 366.967 615.544 366.967 617.959C366.967 620.374 366.446 622.504 365.404 624.351C364.362 626.197 362.853 627.636 360.876 628.665C358.911 629.695 356.532 630.21 353.739 630.21H344.594V624.049H352.496C353.975 624.049 355.195 623.795 356.153 623.286C357.124 622.765 357.846 622.049 358.32 621.137C358.805 620.214 359.047 619.154 359.047 617.959C359.047 616.751 358.805 615.698 358.32 614.798C357.846 613.887 357.124 613.183 356.153 612.685C355.183 612.176 353.952 611.922 352.46 611.922H347.275V642H339.587Z" fill="black"/>
<path d="M632.752 617.391C632.504 616.527 632.154 615.763 631.705 615.1C631.255 614.425 630.704 613.857 630.053 613.396C629.414 612.922 628.68 612.561 627.852 612.312C627.035 612.064 626.129 611.94 625.135 611.94C623.277 611.94 621.643 612.401 620.234 613.325C618.838 614.248 617.749 615.591 616.967 617.355C616.186 619.107 615.796 621.25 615.796 623.783C615.796 626.316 616.18 628.47 616.95 630.246C617.719 632.021 618.808 633.377 620.217 634.312C621.625 635.235 623.288 635.697 625.206 635.697C626.946 635.697 628.432 635.389 629.663 634.773C630.906 634.146 631.853 633.264 632.504 632.128C633.167 630.991 633.498 629.648 633.498 628.097L635.06 628.328H625.685V622.54H640.902V627.121C640.902 630.317 640.227 633.063 638.878 635.359C637.528 637.644 635.67 639.408 633.303 640.651C630.935 641.882 628.225 642.497 625.171 642.497C621.761 642.497 618.767 641.746 616.186 640.242C613.606 638.727 611.593 636.579 610.149 633.797C608.717 631.003 608.001 627.689 608.001 623.854C608.001 620.906 608.427 618.278 609.279 615.97C610.143 613.65 611.351 611.685 612.901 610.075C614.452 608.465 616.257 607.24 618.317 606.4C620.377 605.559 622.608 605.139 625.011 605.139C627.07 605.139 628.988 605.441 630.764 606.045C632.539 606.637 634.113 607.477 635.487 608.566C636.872 609.655 638.002 610.951 638.878 612.455C639.754 613.946 640.316 615.591 640.565 617.391H632.752ZM646.535 642V614.727H653.868V619.486H654.152C654.649 617.793 655.484 616.515 656.656 615.651C657.828 614.775 659.177 614.337 660.704 614.337C661.083 614.337 661.491 614.36 661.929 614.408C662.367 614.455 662.752 614.52 663.083 614.603V621.315C662.728 621.208 662.237 621.113 661.61 621.031C660.982 620.948 660.408 620.906 659.887 620.906C658.775 620.906 657.78 621.149 656.904 621.634C656.04 622.108 655.354 622.771 654.845 623.623C654.348 624.475 654.099 625.458 654.099 626.57V642H646.535ZM673.99 642.515C672.25 642.515 670.699 642.213 669.338 641.609C667.977 640.994 666.899 640.088 666.106 638.893C665.325 637.685 664.934 636.182 664.934 634.383C664.934 632.868 665.213 631.595 665.769 630.565C666.325 629.536 667.083 628.707 668.042 628.08C669 627.452 670.089 626.979 671.309 626.659C672.54 626.339 673.83 626.115 675.179 625.984C676.766 625.819 678.044 625.665 679.015 625.523C679.985 625.369 680.69 625.144 681.128 624.848C681.566 624.552 681.785 624.114 681.785 623.534V623.428C681.785 622.303 681.429 621.433 680.719 620.817C680.021 620.202 679.026 619.894 677.736 619.894C676.375 619.894 675.292 620.196 674.487 620.8C673.682 621.392 673.149 622.137 672.889 623.037L665.893 622.469C666.248 620.812 666.947 619.379 667.988 618.172C669.03 616.953 670.374 616.018 672.019 615.366C673.676 614.704 675.594 614.372 677.772 614.372C679.287 614.372 680.737 614.55 682.122 614.905C683.519 615.26 684.756 615.81 685.833 616.556C686.922 617.302 687.78 618.261 688.407 619.433C689.035 620.593 689.348 621.983 689.348 623.605V642H682.175V638.218H681.962C681.524 639.07 680.938 639.822 680.204 640.473C679.47 641.112 678.589 641.615 677.559 641.982C676.529 642.337 675.339 642.515 673.99 642.515ZM676.156 637.295C677.269 637.295 678.251 637.076 679.103 636.638C679.956 636.188 680.624 635.584 681.11 634.827C681.595 634.069 681.838 633.211 681.838 632.252V629.358C681.601 629.512 681.276 629.654 680.861 629.784C680.459 629.902 680.003 630.015 679.494 630.121C678.985 630.216 678.476 630.305 677.967 630.388C677.458 630.459 676.996 630.524 676.582 630.583C675.694 630.713 674.919 630.92 674.256 631.205C673.593 631.489 673.078 631.873 672.711 632.359C672.344 632.832 672.161 633.424 672.161 634.134C672.161 635.164 672.534 635.951 673.28 636.496C674.037 637.028 674.996 637.295 676.156 637.295ZM695.217 652.227V614.727H702.674V619.308H703.011C703.343 618.574 703.822 617.829 704.45 617.071C705.089 616.302 705.917 615.662 706.935 615.153C707.965 614.633 709.244 614.372 710.771 614.372C712.759 614.372 714.594 614.893 716.275 615.935C717.956 616.964 719.299 618.521 720.305 620.604C721.312 622.676 721.815 625.274 721.815 628.399C721.815 631.441 721.323 634.01 720.341 636.105C719.37 638.188 718.045 639.769 716.364 640.846C714.695 641.911 712.824 642.444 710.753 642.444C709.285 642.444 708.036 642.201 707.006 641.716C705.988 641.231 705.154 640.621 704.503 639.887C703.852 639.141 703.355 638.39 703.011 637.632H702.781V652.227H695.217ZM702.621 628.364C702.621 629.985 702.846 631.4 703.296 632.607C703.745 633.815 704.396 634.756 705.249 635.43C706.101 636.093 707.137 636.425 708.356 636.425C709.587 636.425 710.629 636.087 711.481 635.413C712.333 634.726 712.978 633.779 713.416 632.572C713.866 631.353 714.091 629.95 714.091 628.364C714.091 626.789 713.872 625.404 713.434 624.209C712.996 623.013 712.351 622.078 711.499 621.403C710.646 620.729 709.599 620.391 708.356 620.391C707.125 620.391 706.083 620.717 705.231 621.368C704.39 622.019 703.745 622.942 703.296 624.138C702.846 625.333 702.621 626.742 702.621 628.364ZM734.421 626.233V642H726.857V605.636H734.208V619.539H734.528C735.143 617.929 736.138 616.669 737.511 615.757C738.884 614.834 740.606 614.372 742.678 614.372C744.572 614.372 746.223 614.786 747.631 615.615C749.052 616.432 750.153 617.61 750.934 619.148C751.727 620.675 752.118 622.504 752.106 624.635V642H744.542V625.984C744.554 624.304 744.128 622.996 743.264 622.06C742.411 621.125 741.216 620.658 739.677 620.658C738.647 620.658 737.736 620.877 736.943 621.315C736.161 621.753 735.546 622.392 735.096 623.232C734.658 624.061 734.433 625.061 734.421 626.233ZM771.926 629.358H778.46L781.745 633.584L784.976 637.348L791.066 644.983H783.893L779.703 639.834L777.554 636.78L771.926 629.358ZM791.617 623.818C791.617 627.784 790.865 631.157 789.362 633.939C787.87 636.721 785.834 638.845 783.254 640.313C780.685 641.769 777.797 642.497 774.589 642.497C771.358 642.497 768.457 641.763 765.889 640.295C763.32 638.828 761.29 636.703 759.799 633.921C758.307 631.139 757.561 627.772 757.561 623.818C757.561 619.853 758.307 616.479 759.799 613.697C761.29 610.916 763.32 608.797 765.889 607.341C768.457 605.873 771.358 605.139 774.589 605.139C777.797 605.139 780.685 605.873 783.254 607.341C785.834 608.797 787.87 610.916 789.362 613.697C790.865 616.479 791.617 619.853 791.617 623.818ZM783.822 623.818C783.822 621.25 783.437 619.083 782.668 617.32C781.91 615.556 780.839 614.218 779.454 613.307C778.069 612.395 776.447 611.94 774.589 611.94C772.731 611.94 771.109 612.395 769.724 613.307C768.339 614.218 767.262 615.556 766.492 617.32C765.735 619.083 765.356 621.25 765.356 623.818C765.356 626.387 765.735 628.553 766.492 630.317C767.262 632.08 768.339 633.418 769.724 634.33C771.109 635.241 772.731 635.697 774.589 635.697C776.447 635.697 778.069 635.241 779.454 634.33C780.839 633.418 781.91 632.08 782.668 630.317C783.437 628.553 783.822 626.387 783.822 623.818ZM797.312 642V605.636H805V635.661H820.59V642H797.312Z" fill="black"/>
<path d="M1074.62 614.727V620.409H1058.2V614.727H1074.62ZM1061.93 608.193H1069.49V633.619C1069.49 634.318 1069.6 634.862 1069.81 635.253C1070.02 635.632 1070.32 635.898 1070.7 636.052C1071.09 636.206 1071.54 636.283 1072.05 636.283C1072.4 636.283 1072.76 636.253 1073.11 636.194C1073.47 636.123 1073.74 636.07 1073.93 636.034L1075.12 641.663C1074.74 641.781 1074.21 641.917 1073.52 642.071C1072.84 642.237 1072 642.337 1071.02 642.373C1069.2 642.444 1067.6 642.201 1066.23 641.645C1064.86 641.089 1063.8 640.224 1063.05 639.053C1062.29 637.881 1061.92 636.401 1061.93 634.614V608.193ZM1080.28 642V605.636H1094.63C1097.37 605.636 1099.72 606.128 1101.66 607.11C1103.61 608.081 1105.1 609.46 1106.11 611.247C1107.14 613.023 1107.66 615.112 1107.66 617.515C1107.66 619.93 1107.14 622.007 1106.1 623.747C1105.05 625.475 1103.54 626.801 1101.57 627.724C1099.6 628.648 1097.22 629.109 1094.43 629.109H1084.82V622.93H1093.19C1094.65 622.93 1095.87 622.729 1096.84 622.327C1097.82 621.924 1098.54 621.321 1099.01 620.516C1099.5 619.711 1099.74 618.71 1099.74 617.515C1099.74 616.308 1099.5 615.29 1099.01 614.461C1098.54 613.632 1097.81 613.005 1096.83 612.579C1095.86 612.141 1094.63 611.922 1093.15 611.922H1087.97V642H1080.28ZM1099.92 625.452L1108.95 642H1100.47L1091.62 625.452H1099.92ZM1113.09 642V605.636H1127.44C1130.2 605.636 1132.55 606.163 1134.49 607.217C1136.43 608.258 1137.91 609.708 1138.93 611.567C1139.96 613.413 1140.47 615.544 1140.47 617.959C1140.47 620.374 1139.95 622.504 1138.91 624.351C1137.87 626.197 1136.36 627.636 1134.38 628.665C1132.42 629.695 1130.04 630.21 1127.24 630.21H1118.1V624.049H1126C1127.48 624.049 1128.7 623.795 1129.66 623.286C1130.63 622.765 1131.35 622.049 1131.82 621.137C1132.31 620.214 1132.55 619.154 1132.55 617.959C1132.55 616.751 1132.31 615.698 1131.82 614.798C1131.35 613.887 1130.63 613.183 1129.66 612.685C1128.69 612.176 1127.46 611.922 1125.96 611.922H1120.78V642H1113.09ZM1177.55 618.367H1169.77C1169.63 617.361 1169.34 616.467 1168.9 615.686C1168.46 614.893 1167.9 614.218 1167.21 613.662C1166.53 613.106 1165.74 612.679 1164.84 612.384C1163.95 612.088 1162.98 611.94 1161.94 611.94C1160.06 611.94 1158.42 612.407 1157.02 613.342C1155.63 614.266 1154.54 615.615 1153.77 617.391C1153 619.154 1152.62 621.297 1152.62 623.818C1152.62 626.411 1153 628.589 1153.77 630.352C1154.56 632.116 1155.64 633.448 1157.04 634.347C1158.44 635.247 1160.05 635.697 1161.89 635.697C1162.92 635.697 1163.87 635.561 1164.75 635.288C1165.63 635.016 1166.42 634.62 1167.11 634.099C1167.79 633.566 1168.36 632.921 1168.81 632.163C1169.27 631.406 1169.59 630.542 1169.77 629.571L1177.55 629.607C1177.35 631.276 1176.84 632.885 1176.04 634.436C1175.25 635.975 1174.18 637.354 1172.83 638.573C1171.49 639.781 1169.89 640.739 1168.03 641.45C1166.19 642.148 1164.1 642.497 1161.76 642.497C1158.52 642.497 1155.62 641.763 1153.06 640.295C1150.52 638.828 1148.51 636.703 1147.03 633.921C1145.56 631.139 1144.83 627.772 1144.83 623.818C1144.83 619.853 1145.57 616.479 1147.06 613.697C1148.55 610.916 1150.58 608.797 1153.13 607.341C1155.69 605.873 1158.57 605.139 1161.76 605.139C1163.87 605.139 1165.82 605.435 1167.62 606.027C1169.43 606.619 1171.04 607.483 1172.44 608.619C1173.83 609.744 1174.97 611.123 1175.84 612.756C1176.73 614.39 1177.3 616.26 1177.55 618.367Z" fill="black"/>
<path d="M1377.64 642V605.636H1391.99C1394.73 605.636 1397.08 606.128 1399.02 607.11C1400.97 608.081 1402.46 609.46 1403.47 611.247C1404.5 613.023 1405.02 615.112 1405.02 617.515C1405.02 619.93 1404.5 622.007 1403.46 623.747C1402.42 625.475 1400.91 626.801 1398.93 627.724C1396.96 628.648 1394.58 629.109 1391.79 629.109H1382.19V622.93H1390.55C1392.02 622.93 1393.24 622.729 1394.21 622.327C1395.18 621.924 1395.9 621.321 1396.37 620.516C1396.86 619.711 1397.1 618.71 1397.1 617.515C1397.1 616.308 1396.86 615.29 1396.37 614.461C1395.9 613.632 1395.17 613.005 1394.19 612.579C1393.22 612.141 1391.99 611.922 1390.51 611.922H1385.33V642H1377.64ZM1397.28 625.452L1406.32 642H1397.83L1388.99 625.452H1397.28ZM1410.45 642V605.636H1434.96V611.975H1418.14V620.64H1433.69V626.979H1418.14V635.661H1435.03V642H1410.45ZM1460.79 616.094C1460.65 614.662 1460.04 613.549 1458.97 612.756C1457.89 611.963 1456.43 611.567 1454.58 611.567C1453.33 611.567 1452.27 611.744 1451.4 612.099C1450.54 612.443 1449.87 612.922 1449.41 613.538C1448.96 614.153 1448.74 614.852 1448.74 615.633C1448.71 616.284 1448.85 616.852 1449.15 617.337C1449.45 617.823 1449.87 618.243 1450.41 618.598C1450.94 618.941 1451.56 619.243 1452.25 619.504C1452.95 619.752 1453.7 619.965 1454.49 620.143L1457.76 620.924C1459.34 621.279 1460.8 621.753 1462.13 622.344C1463.45 622.936 1464.6 623.664 1465.57 624.528C1466.54 625.393 1467.29 626.411 1467.83 627.582C1468.37 628.754 1468.65 630.098 1468.66 631.613C1468.65 633.838 1468.08 635.768 1466.96 637.401C1465.84 639.023 1464.23 640.284 1462.13 641.183C1460.03 642.071 1457.5 642.515 1454.54 642.515C1451.61 642.515 1449.05 642.065 1446.87 641.165C1444.71 640.266 1443.01 638.934 1441.8 637.17C1440.59 635.395 1439.96 633.199 1439.9 630.583H1447.34C1447.42 631.802 1447.77 632.82 1448.38 633.637C1449.01 634.442 1449.84 635.052 1450.89 635.466C1451.94 635.868 1453.13 636.07 1454.46 636.07C1455.76 636.07 1456.89 635.88 1457.85 635.501C1458.82 635.123 1459.57 634.596 1460.1 633.921C1460.63 633.246 1460.9 632.471 1460.9 631.595C1460.9 630.778 1460.66 630.092 1460.17 629.536C1459.7 628.979 1459 628.506 1458.08 628.115C1457.17 627.724 1456.05 627.369 1454.72 627.05L1450.76 626.055C1447.7 625.31 1445.28 624.144 1443.5 622.558C1441.72 620.971 1440.84 618.835 1440.85 616.148C1440.84 613.946 1441.43 612.022 1442.61 610.377C1443.81 608.732 1445.45 607.447 1447.53 606.524C1449.61 605.601 1451.98 605.139 1454.63 605.139C1457.33 605.139 1459.69 605.601 1461.7 606.524C1463.72 607.447 1465.3 608.732 1466.42 610.377C1467.55 612.022 1468.13 613.928 1468.16 616.094H1460.79ZM1472.45 611.975V605.636H1502.31V611.975H1491.18V642H1483.58V611.975H1472.45ZM1521.75 614.727V620.409H1504.92V614.727H1521.75ZM1508.77 642V612.756C1508.77 610.78 1509.16 609.14 1509.93 607.838C1510.71 606.536 1511.78 605.559 1513.12 604.908C1514.47 604.257 1516.01 603.932 1517.72 603.932C1518.88 603.932 1519.94 604.021 1520.9 604.198C1521.87 604.376 1522.59 604.536 1523.07 604.678L1521.72 610.359C1521.42 610.265 1521.06 610.176 1520.62 610.093C1520.19 610.01 1519.75 609.969 1519.3 609.969C1518.19 609.969 1517.42 610.229 1516.98 610.75C1516.54 611.259 1516.32 611.975 1516.32 612.898V642H1508.77ZM1543.86 630.388V614.727H1551.43V642H1544.17V637.046H1543.88C1543.27 638.644 1542.24 639.929 1540.81 640.899C1539.39 641.87 1537.66 642.355 1535.61 642.355C1533.78 642.355 1532.18 641.941 1530.8 641.112C1529.41 640.284 1528.33 639.106 1527.55 637.579C1526.78 636.052 1526.39 634.223 1526.37 632.092V614.727H1533.94V630.743C1533.95 632.353 1534.38 633.625 1535.23 634.56C1536.09 635.496 1537.23 635.963 1538.66 635.963C1539.57 635.963 1540.43 635.756 1541.22 635.342C1542.01 634.915 1542.65 634.288 1543.14 633.46C1543.63 632.631 1543.88 631.607 1543.86 630.388ZM1565.04 605.636V642H1557.48V605.636H1565.04ZM1589.08 642H1580.84L1593.4 605.636H1603.31L1615.84 642H1607.6L1598.49 613.946H1598.21L1589.08 642ZM1588.57 627.707H1608.03V633.708H1588.57V627.707ZM1620.22 642V605.636H1634.56C1637.32 605.636 1639.67 606.163 1641.61 607.217C1643.56 608.258 1645.03 609.708 1646.05 611.567C1647.08 613.413 1647.6 615.544 1647.6 617.959C1647.6 620.374 1647.08 622.504 1646.03 624.351C1644.99 626.197 1643.48 627.636 1641.51 628.665C1639.54 629.695 1637.16 630.21 1634.37 630.21H1625.23V624.049H1633.13C1634.61 624.049 1635.83 623.795 1636.78 623.286C1637.75 622.765 1638.48 622.049 1638.95 621.137C1639.44 620.214 1639.68 619.154 1639.68 617.959C1639.68 616.751 1639.44 615.698 1638.95 614.798C1638.48 613.887 1637.75 613.183 1636.78 612.685C1635.81 612.176 1634.58 611.922 1633.09 611.922H1627.91V642H1620.22ZM1660.28 605.636V642H1652.59V605.636H1660.28ZM1689.15 622.504L1682.23 622.93C1682.11 622.339 1681.86 621.806 1681.47 621.332C1681.08 620.847 1680.56 620.462 1679.92 620.178C1679.29 619.882 1678.54 619.734 1677.67 619.734C1676.49 619.734 1675.51 619.983 1674.7 620.48C1673.9 620.965 1673.49 621.616 1673.49 622.433C1673.49 623.084 1673.75 623.635 1674.28 624.085C1674.8 624.534 1675.69 624.895 1676.96 625.168L1681.89 626.162C1684.54 626.706 1686.52 627.582 1687.82 628.79C1689.12 629.997 1689.78 631.583 1689.78 633.548C1689.78 635.336 1689.25 636.904 1688.2 638.254C1687.15 639.603 1685.72 640.656 1683.9 641.414C1682.09 642.16 1680 642.533 1677.63 642.533C1674.02 642.533 1671.14 641.781 1669 640.278C1666.87 638.763 1665.62 636.703 1665.26 634.099L1672.7 633.708C1672.92 634.809 1673.46 635.649 1674.33 636.229C1675.19 636.798 1676.3 637.082 1677.65 637.082C1678.97 637.082 1680.04 636.827 1680.84 636.318C1681.66 635.797 1682.08 635.129 1682.09 634.312C1682.08 633.625 1681.79 633.063 1681.22 632.625C1680.65 632.175 1679.77 631.832 1678.59 631.595L1673.87 630.654C1671.2 630.121 1669.22 629.198 1667.92 627.884C1666.63 626.57 1665.98 624.895 1665.98 622.859C1665.98 621.107 1666.46 619.598 1667.4 618.332C1668.36 617.065 1669.71 616.089 1671.43 615.402C1673.17 614.715 1675.21 614.372 1677.54 614.372C1680.99 614.372 1683.7 615.1 1685.67 616.556C1687.66 618.012 1688.82 619.995 1689.15 622.504Z" fill="black"/>
<defs>
<filter id="filter0_i_104_2" x="239.447" y="374.658" width="12.6449" height="12.6439" filterUnits="userSpaceOnUse" color-interpolation-filters="sRGB">
<feFlood flood-opacity="0" result="BackgroundImageFix"/>
<feBlend mode="normal" in="SourceGraphic" in2="BackgroundImageFix" result="shape"/>
<feColorMatrix in="SourceAlpha" type="matrix" values="0 0 0 0 0 0 0 0 0 0 0 0 0 0 0 0 0 0 127 0" result="hardAlpha"/>
<feOffset dx="0.1" dy="-0.1"/>
<feGaussianBlur stdDeviation="0.4"/>
<feComposite in2="hardAlpha" operator="arithmetic" k2="-1" k3="1"/>
<feColorMatrix type="matrix" values="0 0 0 0 0.85098 0 0 0 0 0.737255 0 0 0 0 0.92549 0 0 0 1 0"/>
<feBlend mode="normal" in2="shape" result="effect1_innerShadow_104_2"/>
</filter>
<filter id="filter1_i_104_2" x="235" y="360" width="150.3" height="150" filterUnits="userSpaceOnUse" color-interpolation-filters="sRGB">
<feFlood flood-opacity="0" result="BackgroundImageFix"/>
<feBlend mode="normal" in="SourceGraphic" in2="BackgroundImageFix" result="shape"/>
<feColorMatrix in="SourceAlpha" type="matrix" values="0 0 0 0 0 0 0 0 0 0 0 0 0 0 0 0 0 0 127 0" result="hardAlpha"/>
<feOffset dx="0.3"/>
<feGaussianBlur stdDeviation="0.5"/>
<feComposite in2="hardAlpha" operator="arithmetic" k2="-1" k3="1"/>
<feColorMatrix type="matrix" values="0 0 0 0 0.94902 0 0 0 0 0.564706 0 0 0 0 0.811765 0 0 0 1 0"/>
<feBlend mode="normal" in2="shape" result="effect1_innerShadow_104_2"/>
</filter>
<filter id="filter2_f_104_2" x="252.549" y="377.55" width="114.902" height="114.902" filterUnits="userSpaceOnUse" color-interpolation-filters="sRGB">
<feFlood flood-opacity="0" result="BackgroundImageFix"/>
<feBlend mode="normal" in="SourceGraphic" in2="BackgroundImageFix" result="shape"/>
<feGaussianBlur stdDeviation="0.375" result="effect1_foregroundBlur_104_2"/>
</filter>
<filter id="filter3_i_104_2" x="235.195" y="404.209" width="34.7895" height="34.7899" filterUnits="userSpaceOnUse" color-interpolation-filters="sRGB">
<feFlood flood-opacity="0" result="BackgroundImageFix"/>
<feBlend mode="normal" in="SourceGraphic" in2="BackgroundImageFix" result="shape"/>
<feColorMatrix in="SourceAlpha" type="matrix" values="0 0 0 0 0 0 0 0 0 0 0 0 0 0 0 0 0 0 127 0" result="hardAlpha"/>
<feOffset dx="0.1" dy="-0.1"/>
<feGaussianBlur stdDeviation="0.4"/>
<feComposite in2="hardAlpha" operator="arithmetic" k2="-1" k3="1"/>
<feColorMatrix type="matrix" values="0 0 0 0 0.909804 0 0 0 0 0.843137 0 0 0 0 0.980392 0 0 0 1 0"/>
<feBlend mode="normal" in2="shape" result="effect1_innerShadow_104_2"/>
</filter>
<filter id="filter4_f_104_2" x="305.945" y="378.347" width="60.7031" height="111.906" filterUnits="userSpaceOnUse" color-interpolation-filters="sRGB">
<feFlood flood-opacity="0" result="BackgroundImageFix"/>
<feBlend mode="normal" in="SourceGraphic" in2="BackgroundImageFix" result="shape"/>
<feGaussianBlur stdDeviation="0.375" result="effect1_foregroundBlur_104_2"/>
</filter>
<filter id="filter5_i_104_2" x="334.535" y="443.569" width="50.8336" height="50.5346" filterUnits="userSpaceOnUse" color-interpolation-filters="sRGB">
<feFlood flood-opacity="0" result="BackgroundImageFix"/>
<feBlend mode="normal" in="SourceGraphic" in2="BackgroundImageFix" result="shape"/>
<feColorMatrix in="SourceAlpha" type="matrix" values="0 0 0 0 0 0 0 0 0 0 0 0 0 0 0 0 0 0 127 0" result="hardAlpha"/>
<feOffset dx="0.4" dy="-0.1"/>
<feGaussianBlur stdDeviation="0.5"/>
<feComposite in2="hardAlpha" operator="arithmetic" k2="-1" k3="1"/>
<feColorMatrix type="matrix" values="0 0 0 0 0.792157 0 0 0 0 0.54902 0 0 0 0 0.894118 0 0 0 1 0"/>
<feBlend mode="normal" in2="shape" result="effect1_innerShadow_104_2"/>
</filter>
<radialGradient id="paint0_radial_104_2" cx="0" cy="0" r="1" gradientUnits="userSpaceOnUse" gradientTransform="translate(252.54 401.789) rotate(-8.079) scale(22.6938)">
<stop stop-color="#CEC4D1"/>
<stop offset="1" stop-color="#C8C1C9"/>
</radialGradient>
<radialGradient id="paint1_radial_104_2" cx="0" cy="0" r="1" gradientUnits="userSpaceOnUse" gradientTransform="translate(269.458 401.787) rotate(180) scale(16.9192)">
<stop offset="0.529" stop-color="#CEC5D1" stop-opacity="0"/>
<stop offset="1" stop-color="#E4DFE8"/>
</radialGradient>
<radialGradient id="paint2_radial_104_2" cx="0" cy="0" r="1" gradientUnits="userSpaceOnUse" gradientTransform="translate(249.575 379.505) rotate(168.14) scale(10.3489 9.79411)">
<stop offset="0.135" stop-color="#FFEDFF"/>
<stop offset="0.911" stop-color="#DBCBEA"/>
</radialGradient>
<radialGradient id="paint3_radial_104_2" cx="0" cy="0" r="1" gradientUnits="userSpaceOnUse" gradientTransform="translate(246.983 384.665) rotate(-100.366) scale(10.0746 10.0746)">
<stop offset="0.818" stop-color="#DAD4E0" stop-opacity="0"/>
<stop offset="1" stop-color="#DAD4E0"/>
</radialGradient>
<linearGradient id="paint4_linear_104_2" x1="368.555" y1="390.169" x2="263.822" y2="486.485" gradientUnits="userSpaceOnUse">
<stop stop-color="#FFABBD"/>
<stop offset="1" stop-color="#F756E5"/>
</linearGradient>
<radialGradient id="paint5_radial_104_2" cx="0" cy="0" r="1" gradientUnits="userSpaceOnUse" gradientTransform="translate(349.282 443.612) rotate(-111.029) scale(100.194 137.861)">
<stop offset="0.713" stop-color="#E082A1" stop-opacity="0"/>
<stop offset="0.965" stop-color="#E1959A"/>
</radialGradient>
<radialGradient id="paint6_radial_104_2" cx="0" cy="0" r="1" gradientUnits="userSpaceOnUse" gradientTransform="translate(258.094 417.445) rotate(-46.1412) scale(59.7827 42.3389)">
<stop stop-color="#E775AB"/>
<stop offset="1" stop-color="#E775AB" stop-opacity="0"/>
</radialGradient>
<radialGradient id="paint7_radial_104_2" cx="0" cy="0" r="1" gradientUnits="userSpaceOnUse" gradientTransform="translate(247.657 436.978) rotate(119.055) scale(13.8691 10.3535)">
<stop stop-color="#E551C0"/>
<stop offset="1" stop-color="#E551C0" stop-opacity="0"/>
</radialGradient>
<radialGradient id="paint8_radial_104_2" cx="0" cy="0" r="1" gradientUnits="userSpaceOnUse" gradientTransform="translate(340.606 479.076) rotate(158.405) scale(34.7704 36.9667)">
<stop offset="0.187" stop-color="#D24BB4"/>
<stop offset="1" stop-color="#D24BB4" stop-opacity="0"/>
</radialGradient>
<radialGradient id="paint9_radial_104_2" cx="0" cy="0" r="1" gradientUnits="userSpaceOnUse" gradientTransform="translate(374.617 455.163) rotate(-103.241) scale(29.4072 27.206)">
<stop offset="0.329" stop-color="#E588A9"/>
<stop offset="1" stop-color="#E588A9" stop-opacity="0"/>
</radialGradient>
<radialGradient id="paint10_radial_104_2" cx="0" cy="0" r="1" gradientUnits="userSpaceOnUse" gradientTransform="translate(359.799 409.028) rotate(-4.58391) scale(25.2833 34.4771)">
<stop stop-color="#FFA7C0"/>
<stop offset="1" stop-color="#FFA7C0" stop-opacity="0"/>
</radialGradient>
<linearGradient id="paint11_linear_104_2" x1="346.243" y1="398.755" x2="275.44" y2="469.558" gradientUnits="userSpaceOnUse">
<stop stop-color="#EE7BBE"/>
<stop offset="1" stop-color="#FF7BE6"/>
</linearGradient>
<linearGradient id="paint12_linear_104_2" x1="275.863" y1="475.368" x2="292.025" y2="458.87" gradientUnits="userSpaceOnUse">
<stop offset="0.178" stop-color="#FF83E6"/>
<stop offset="1" stop-color="#FF83E6" stop-opacity="0"/>
</linearGradient>
<linearGradient id="paint13_linear_104_2" x1="278.45" y1="398.498" x2="294.201" y2="415.682" gradientUnits="userSpaceOnUse">
<stop offset="0.493" stop-color="#F89BB9"/>
<stop offset="1" stop-color="#F89BB9" stop-opacity="0"/>
</linearGradient>
<radialGradient id="paint14_radial_104_2" cx="0" cy="0" r="1" gradientUnits="userSpaceOnUse" gradientTransform="translate(258.719 419.901) rotate(171.772) scale(23.7666 22.4923)">
<stop offset="0.135" stop-color="#FFEDFF"/>
<stop offset="1" stop-color="#ECAEFF"/>
</radialGradient>
<radialGradient id="paint15_radial_104_2" cx="0" cy="0" r="1" gradientUnits="userSpaceOnUse" gradientTransform="translate(235.195 432.791) rotate(-25.398) scale(19.1992 27.5759)">
<stop offset="0.182" stop-color="#DBB6FF"/>
<stop offset="1" stop-color="#DBB6FF" stop-opacity="0"/>
</radialGradient>
<radialGradient id="paint16_radial_104_2" cx="0" cy="0" r="1" gradientUnits="userSpaceOnUse" gradientTransform="translate(256.028 431.714) rotate(-100.366) scale(27.8572)">
<stop offset="0.818" stop-color="#DAD4E0" stop-opacity="0"/>
<stop offset="1" stop-color="#DAD4E0"/>
</radialGradient>
<linearGradient id="paint17_linear_104_2" x1="306.695" y1="476.383" x2="355.336" y2="431.59" gradientUnits="userSpaceOnUse">
<stop stop-color="#F068CB"/>
<stop offset="1" stop-color="#F068CB" stop-opacity="0"/>
</linearGradient>
<radialGradient id="paint18_radial_104_2" cx="0" cy="0" r="1" gradientUnits="userSpaceOnUse" gradientTransform="translate(342.641 458.979) rotate(131.285) scale(20.8975 15.924)">
<stop offset="0.07" stop-color="#D35F9E"/>
<stop offset="1" stop-color="#D35F9E" stop-opacity="0"/>
</radialGradient>
<radialGradient id="paint19_radial_104_2" cx="0" cy="0" r="1" gradientUnits="userSpaceOnUse" gradientTransform="translate(338.812 499.196) rotate(-99.462) scale(18.6379)">
<stop stop-color="#EDA5FF"/>
<stop offset="1" stop-color="#C28CDD"/>
</radialGradient>
<radialGradient id="paint20_radial_104_2" cx="0" cy="0" r="1" gradientUnits="userSpaceOnUse" gradientTransform="translate(351.646 485.403) rotate(129.237) scale(14.835 20.4301)">
<stop offset="0.381" stop-color="#D89AFF"/>
<stop offset="1" stop-color="#D89AFF" stop-opacity="0"/>
</radialGradient>
<radialGradient id="paint21_radial_104_2" cx="0" cy="0" r="1" gradientUnits="userSpaceOnUse" gradientTransform="translate(376.73 462.038) rotate(167.646) scale(43.1909 40.8751)">
<stop offset="0.218" stop-color="#FFEDFF"/>
<stop offset="1" stop-color="#ECAEFF"/>
</radialGradient>
<radialGradient id="paint22_radial_104_2" cx="0" cy="0" r="1" gradientUnits="userSpaceOnUse" gradientTransform="translate(334.537 485.072) rotate(-29.477) scale(24.7642 35.5689)">
<stop offset="0.182" stop-color="#DBB6FF"/>
<stop offset="1" stop-color="#DBB6FF" stop-opacity="0"/>
</radialGradient>
<radialGradient id="paint23_radial_104_2" cx="0" cy="0" r="1" gradientUnits="userSpaceOnUse" gradientTransform="translate(364.835 483.512) rotate(-100.366) scale(40.501 40.501)">
<stop offset="0.818" stop-color="#DAD4E0" stop-opacity="0"/>
<stop offset="1" stop-color="#DAD4E0"/>
</radialGradient>
<radialGradient id="paint24_radial_104_2" cx="0" cy="0" r="1" gradientUnits="userSpaceOnUse" gradientTransform="translate(366.01 452.275) rotate(98.499) scale(42.2956 51.9003)">
<stop offset="0.681" stop-color="#F3B7FF" stop-opacity="0"/>
<stop offset="1" stop-color="#E697FF"/>
</radialGradient>
<clipPath id="clip0_104_2">
<rect width="126.031" height="150" fill="white" transform="translate(1055 360)"/>
</clipPath>
</defs>
</svg>
