<svg width="1920" height="1080" viewBox="0 0 1920 1080" fill="none" xmlns="http://www.w3.org/2000/svg">
<rect width="1920" height="1080" fill="white"/>
<path d="M271.496 518.744C278.099 518.744 283.452 513.391 283.452 506.787C283.452 500.184 278.099 494.831 271.496 494.831C264.892 494.831 259.539 500.184 259.539 506.787C259.539 513.391 264.892 518.744 271.496 518.744Z" fill="url(#paint0_radial_104_2)"/>
<path d="M271.496 518.744C278.099 518.744 283.452 513.391 283.452 506.787C283.452 500.184 278.099 494.831 271.496 494.831C264.892 494.831 259.539 500.184 259.539 506.787C259.539 513.391 264.892 518.744 271.496 518.744Z" fill="url(#paint1_radial_104_2)"/>
<g filter="url(#filter0_i_104_2)">
<path d="M252.719 492.302C256.183 492.302 258.991 489.494 258.991 486.03C258.991 482.566 256.183 479.758 252.719 479.758C249.255 479.758 246.447 482.566 246.447 486.03C246.447 489.494 249.255 492.302 252.719 492.302Z" fill="url(#paint2_radial_104_2)"/>
<path d="M252.719 492.302C256.183 492.302 258.991 489.494 258.991 486.03C258.991 482.566 256.183 479.758 252.719 479.758C249.255 479.758 246.447 482.566 246.447 486.03C246.447 489.494 249.255 492.302 252.719 492.302Z" fill="url(#paint3_radial_104_2)"/>
</g>
<g filter="url(#filter1_i_104_2)">
<path d="M303.772 475.098C310.239 468.632 319.009 465 328.154 465C337.299 465 346.069 468.632 352.536 475.098L381.902 504.464C388.368 510.931 392 519.701 392 528.846C392 537.991 388.368 546.761 381.902 553.228L330.228 604.902C323.761 611.368 314.991 615 305.846 615C296.701 615 287.931 611.368 281.464 604.902L252.098 575.536C245.632 569.069 242 560.299 242 551.154C242 542.009 245.632 533.239 252.098 526.772L303.772 475.098V475.098Z" fill="url(#paint4_linear_104_2)"/>
<path d="M303.772 475.098C310.239 468.632 319.009 465 328.154 465C337.299 465 346.069 468.632 352.536 475.098L381.902 504.464C388.368 510.931 392 519.701 392 528.846C392 537.991 388.368 546.761 381.902 553.228L330.228 604.902C323.761 611.368 314.991 615 305.846 615C296.701 615 287.931 611.368 281.464 604.902L252.098 575.536C245.632 569.069 242 560.299 242 551.154C242 542.009 245.632 533.239 252.098 526.772L303.772 475.098V475.098Z" fill="url(#paint5_radial_104_2)"/>
<path d="M303.772 475.098C310.239 468.632 319.009 465 328.154 465C337.299 465 346.069 468.632 352.536 475.098L381.902 504.464C388.368 510.931 392 519.701 392 528.846C392 537.991 388.368 546.761 381.902 553.228L330.228 604.902C323.761 611.368 314.991 615 305.846 615C296.701 615 287.931 611.368 281.464 604.902L252.098 575.536C245.632 569.069 242 560.299 242 551.154C242 542.009 245.632 533.239 252.098 526.772L303.772 475.098V475.098Z" fill="url(#paint6_radial_104_2)"/>
<path d="M303.772 475.098C310.239 468.632 319.009 465 328.154 465C337.299 465 346.069 468.632 352.536 475.098L381.902 504.464C388.368 510.931 392 519.701 392 528.846C392 537.991 388.368 546.761 381.902 553.228L330.228 604.902C323.761 611.368 314.991 615 305.846 615C296.701 615 287.931 611.368 281.464 604.902L252.098 575.536C245.632 569.069 242 560.299 242 551.154C242 542.009 245.632 533.239 252.098 526.772L303.772 475.098V475.098Z" fill="url(#paint7_radial_104_2)"/>
<path d="M303.772 475.098C310.239 468.632 319.009 465 328.154 465C337.299 465 346.069 468.632 352.536 475.098L381.902 504.464C388.368 510.931 392 519.701 392 528.846C392 537.991 388.368 546.761 381.902 553.228L330.228 604.902C323.761 611.368 314.991 615 305.846 615C296.701 615 287.931 611.368 281.464 604.902L252.098 575.536C245.632 569.069 242 560.299 242 551.154C242 542.009 245.632 533.239 252.098 526.772L303.772 475.098V475.098Z" fill="url(#paint8_radial_104_2)"/>
<path d="M303.772 475.098C310.239 468.632 319.009 465 328.154 465C337.299 465 346.069 468.632 352.536 475.098L381.902 504.464C388.368 510.931 392 519.701 392 528.846C392 537.991 388.368 546.761 381.902 553.228L330.228 604.902C323.761 611.368 314.991 615 305.846 615C296.701 615 287.931 611.368 281.464 604.902L252.098 575.536C245.632 569.069 242 560.299 242 551.154C242 542.009 245.632 533.239 252.098 526.772L303.772 475.098V475.098Z" fill="url(#paint9_radial_104_2)"/>
<path d="M303.772 475.098C310.239 468.632 319.009 465 328.154 465C337.299 465 346.069 468.632 352.536 475.098L381.902 504.464C388.368 510.931 392 519.701 392 528.846C392 537.991 388.368 546.761 381.902 553.228L330.228 604.902C323.761 611.368 314.991 615 305.846 615C296.701 615 287.931 611.368 281.464 604.902L252.098 575.536C245.632 569.069 242 560.299 242 551.154C242 542.009 245.632 533.239 252.098 526.772L303.772 475.098V475.098Z" fill="url(#paint10_radial_104_2)"/>
</g>
<g filter="url(#filter2_f_104_2)">
<path d="M368.167 518.679L338.323 488.834C332.01 482.521 321.775 482.521 315.462 488.834L265.832 538.465C259.519 544.777 259.519 555.012 265.832 561.325L295.676 591.17C301.989 597.483 312.224 597.483 318.537 591.17L368.167 541.539C374.48 535.227 374.48 524.991 368.167 518.679Z" fill="url(#paint11_linear_104_2)"/>
<path d="M368.167 518.679L338.323 488.834C332.01 482.521 321.775 482.521 315.462 488.834L265.832 538.465C259.519 544.777 259.519 555.012 265.832 561.325L295.676 591.17C301.989 597.483 312.224 597.483 318.537 591.17L368.167 541.539C374.48 535.227 374.48 524.991 368.167 518.679Z" fill="url(#paint12_linear_104_2)"/>
<path d="M368.644 518.201L338.799 488.357C332.223 481.781 321.562 481.781 314.986 488.357L265.356 537.987C258.78 544.563 258.78 555.225 265.356 561.8L295.2 591.645C301.776 598.221 312.437 598.221 319.013 591.645L368.644 542.015C375.22 535.439 375.22 524.777 368.644 518.201Z" stroke="url(#paint13_linear_104_2)" stroke-width="0.25"/>
</g>
<g filter="url(#filter3_i_104_2)">
<path d="M259.541 543.999C269.121 543.999 276.886 536.233 276.886 526.654C276.886 517.074 269.121 509.309 259.541 509.309C249.962 509.309 242.196 517.074 242.196 526.654C242.196 536.233 249.962 543.999 259.541 543.999Z" fill="url(#paint14_radial_104_2)"/>
<path d="M259.541 543.999C269.121 543.999 276.886 536.233 276.886 526.654C276.886 517.074 269.121 509.309 259.541 509.309C249.962 509.309 242.196 517.074 242.196 526.654C242.196 536.233 249.962 543.999 259.541 543.999Z" fill="url(#paint15_radial_104_2)"/>
<path d="M259.541 543.999C269.121 543.999 276.886 536.233 276.886 526.654C276.886 517.074 269.121 509.309 259.541 509.309C249.962 509.309 242.196 517.074 242.196 526.654C242.196 536.233 249.962 543.999 259.541 543.999Z" fill="url(#paint16_radial_104_2)"/>
</g>
<g filter="url(#filter4_f_104_2)">
<path d="M313.695 594.503L321.519 485.013C324.395 484.001 327.499 483.824 330.472 484.501C333.445 485.178 336.165 486.681 338.32 488.839L368.166 518.679C371.196 521.71 372.899 525.821 372.899 530.108C372.899 534.394 371.196 538.505 368.166 541.536L318.539 591.163C317.143 592.564 315.501 593.696 313.695 594.503V594.503Z" fill="url(#paint17_linear_104_2)"/>
<path d="M313.695 594.503L321.519 485.013C324.395 484.001 327.499 483.824 330.472 484.501C333.445 485.178 336.165 486.681 338.32 488.839L368.166 518.679C371.196 521.71 372.899 525.821 372.899 530.108C372.899 534.394 371.196 538.505 368.166 541.536L318.539 591.163C317.143 592.564 315.501 593.696 313.695 594.503V594.503Z" fill="url(#paint18_radial_104_2)"/>
</g>
<path d="M347.433 610.846C355.569 610.846 362.164 604.25 362.164 596.114C362.164 587.978 355.569 581.383 347.433 581.383C339.297 581.383 332.701 587.978 332.701 596.114C332.701 604.25 339.297 610.846 347.433 610.846Z" fill="url(#paint19_radial_104_2)"/>
<path d="M347.433 610.846C355.569 610.846 362.164 604.25 362.164 596.114C362.164 587.978 355.569 581.383 347.433 581.383C339.297 581.383 332.701 587.978 332.701 596.114C332.701 604.25 339.297 610.846 347.433 610.846Z" fill="url(#paint20_radial_104_2)"/>
<g filter="url(#filter5_i_104_2)">
<path d="M366.753 599.104C380.681 599.104 391.971 587.814 391.971 573.887C391.971 559.96 380.681 548.669 366.753 548.669C352.826 548.669 341.536 559.96 341.536 573.887C341.536 587.814 352.826 599.104 366.753 599.104Z" fill="url(#paint21_radial_104_2)"/>
<path d="M366.753 599.104C380.681 599.104 391.971 587.814 391.971 573.887C391.971 559.96 380.681 548.669 366.753 548.669C352.826 548.669 341.536 559.96 341.536 573.887C341.536 587.814 352.826 599.104 366.753 599.104Z" fill="url(#paint22_radial_104_2)"/>
<path d="M366.753 599.104C380.681 599.104 391.971 587.814 391.971 573.887C391.971 559.96 380.681 548.669 366.753 548.669C352.826 548.669 341.536 559.96 341.536 573.887C341.536 587.814 352.826 599.104 366.753 599.104Z" fill="url(#paint23_radial_104_2)"/>
</g>
<path d="M366.753 599.104C380.681 599.104 391.971 587.814 391.971 573.887C391.971 559.96 380.681 548.67 366.753 548.67C352.826 548.67 341.536 559.96 341.536 573.887C341.536 587.814 352.826 599.104 366.753 599.104Z" fill="url(#paint24_radial_104_2)"/>
<path d="M668.159 575.385L673.55 578.498L733.606 474.48L728.215 471.368L668.159 575.385Z" fill="#E535AB"/>
<path d="M787.037 567.075H666.925V573.3H787.037V567.075Z" fill="#E535AB"/>
<path d="M669.302 570.572L729.381 605.26L732.493 599.869L672.415 565.181L669.302 570.572Z" fill="#E535AB"/>
<path d="M721.493 480.167L781.571 514.855L784.684 509.464L724.605 474.777L721.493 480.167Z" fill="#E535AB"/>
<path d="M669.318 509.44L672.431 514.831L732.509 480.144L729.397 474.753L669.318 509.44Z" fill="#E535AB"/>
<path d="M720.407 474.482L780.463 578.499L785.854 575.387L725.797 471.369L720.407 474.482Z" fill="#E535AB"/>
<path d="M677.912 505.312H671.688V574.688H677.912V505.312Z" fill="#E535AB"/>
<path d="M782.312 505.312H776.087V574.688H782.312V505.312Z" fill="#E535AB"/>
<path d="M725.602 597.916L728.32 602.625L780.573 572.456L777.854 567.747L725.602 597.916Z" fill="#E535AB"/>
<path d="M790.562 576.713C786.962 582.975 778.937 585.113 772.674 581.513C766.412 577.913 764.274 569.888 767.874 563.625C771.474 557.363 779.499 555.225 785.762 558.825C792.062 562.463 794.199 570.45 790.562 576.713Z" fill="#E535AB"/>
<path d="M686.087 516.375C682.487 522.638 674.462 524.775 668.2 521.175C661.937 517.575 659.8 509.55 663.4 503.288C667 497.025 675.025 494.888 681.287 498.488C687.55 502.125 689.687 510.113 686.087 516.375Z" fill="#E535AB"/>
<path d="M663.437 576.713C659.837 570.45 661.974 562.463 668.237 558.825C674.499 555.225 682.487 557.363 686.124 563.625C689.724 569.888 687.587 577.875 681.324 581.513C675.024 585.113 667.037 582.975 663.437 576.713Z" fill="#E535AB"/>
<path d="M767.913 516.375C764.313 510.113 766.45 502.125 772.713 498.488C778.975 494.888 786.963 497.025 790.6 503.288C794.2 509.55 792.063 517.538 785.8 521.175C779.538 524.775 771.513 522.638 767.913 516.375Z" fill="#E535AB"/>
<path d="M727 613.425C719.762 613.425 713.912 607.575 713.912 600.337C713.912 593.1 719.762 587.25 727 587.25C734.237 587.25 740.087 593.1 740.087 600.337C740.087 607.537 734.237 613.425 727 613.425Z" fill="#E535AB"/>
<path d="M727 492.75C719.762 492.75 713.912 486.9 713.912 479.663C713.912 472.425 719.762 466.575 727 466.575C734.237 466.575 740.087 472.425 740.087 479.663C740.087 486.9 734.237 492.75 727 492.75Z" fill="#E535AB"/>
<path d="M1448 565V515H1460.54V531.667H1477.25V515H1489.79V565H1477.25V544.167H1460.54V565H1448ZM1510.68 565V527.5H1498.15V515H1535.76V527.5H1523.22V565H1510.68ZM1556.65 565V527.5H1544.11V515H1581.72V527.5H1569.19V565H1556.65ZM1590.08 565V515H1619.33C1622.68 515 1625.6 516.25 1628.11 518.75C1630.62 521.25 1631.87 524.167 1631.87 527.5V535.833C1631.87 539.167 1630.62 542.083 1628.11 544.583C1625.6 547.083 1622.68 548.333 1619.33 548.333H1602.62V565H1590.08ZM1602.62 535.833H1619.33V527.5H1602.62V535.833Z" fill="black"/>
<g clip-path="url(#clip0_104_2)">
<path d="M1076.07 585.238H1086.89V590.723H1076.07V603.17C1076.05 604.063 1076.17 604.954 1076.43 605.808C1076.63 606.442 1076.98 607.016 1077.46 607.48C1077.92 607.912 1078.47 608.224 1079.08 608.39C1079.69 608.552 1080.32 608.641 1080.94 608.654L1081.21 608.655C1081.78 608.655 1082.36 608.655 1082.97 608.575L1083.33 608.531L1084.02 608.452C1084.25 608.426 1084.47 608.397 1084.69 608.36L1085.02 608.308L1085.63 608.218C1085.82 608.188 1086.02 608.157 1086.2 608.12L1086.66 608.029L1086.87 607.985L1087.26 607.898L1087.44 607.856L1088.16 612.965C1087.58 613.295 1086.96 613.559 1086.32 613.752C1085.59 613.983 1084.85 614.165 1084.09 614.3C1083.31 614.447 1082.49 614.558 1081.63 614.638C1080.8 614.716 1079.96 614.755 1079.13 614.755C1077.67 614.776 1076.21 614.569 1074.82 614.14C1073.57 613.753 1072.44 613.079 1071.51 612.172C1070.54 611.231 1069.82 610.077 1069.39 608.802C1068.85 607.219 1068.6 605.554 1068.64 603.883V590.723H1062V585.238H1068.62V578.148H1076.07V585.238H1076.07ZM1102.59 599.634V614.195H1095.06V575.227H1108.17C1110.15 575.202 1112.12 575.459 1114.03 575.989C1115.66 576.439 1117.19 577.199 1118.53 578.228C1119.77 579.21 1120.74 580.476 1121.38 581.917C1122.08 583.52 1122.43 585.255 1122.39 587.003C1122.41 588.273 1122.24 589.538 1121.89 590.76C1121.3 592.884 1120.02 594.752 1118.25 596.073C1117.35 596.754 1116.38 597.329 1115.34 597.789L1123.73 613.869V614.22H1115.63L1108.3 599.634H1102.59ZM1102.6 593.521H1108.17C1109.21 593.542 1110.26 593.375 1111.25 593.03C1112.07 592.736 1112.81 592.244 1113.41 591.597C1113.87 591.083 1114.22 590.483 1114.45 589.831C1114.67 589.164 1114.79 588.467 1114.8 587.764L1114.8 587.501C1114.82 586.565 1114.66 585.635 1114.34 584.759C1114.04 583.995 1113.56 583.318 1112.93 582.791C1112.33 582.305 1111.64 581.941 1110.89 581.721C1110.1 581.489 1109.28 581.363 1108.45 581.347L1102.6 581.345V593.521V593.521ZM1136 614.195H1128.48V575.227H1141.82C1143.78 575.199 1145.73 575.511 1147.58 576.15C1149.2 576.707 1150.69 577.576 1151.98 578.707C1153.17 579.816 1154.11 581.166 1154.75 582.668C1155.37 584.186 1155.7 585.808 1155.72 587.45V587.778C1155.74 589.444 1155.41 591.095 1154.75 592.623C1154.11 594.083 1153.16 595.387 1151.98 596.448C1150.69 597.58 1149.19 598.445 1147.56 598.994C1145.71 599.625 1143.76 599.933 1141.8 599.904H1135.99L1136 614.195V614.195ZM1136 593.804H1141.81C1142.76 593.823 1143.71 593.658 1144.6 593.318C1145.34 593.026 1146.02 592.58 1146.58 592.009C1147.09 591.458 1147.49 590.807 1147.74 590.096C1148 589.37 1148.14 588.604 1148.14 587.833C1148.14 586.971 1148.01 586.114 1147.74 585.294C1147.5 584.533 1147.1 583.83 1146.58 583.227C1146.02 582.628 1145.35 582.154 1144.6 581.838C1143.71 581.48 1142.76 581.306 1141.81 581.327H1136V593.804ZM1186.72 607.29C1186.03 608.809 1185.05 610.175 1183.82 611.305C1182.55 612.436 1181.08 613.306 1179.48 613.863C1177.8 614.436 1176.05 614.737 1174.28 614.756L1173.9 614.755C1172.39 614.773 1170.89 614.566 1169.44 614.14C1168.12 613.746 1166.87 613.135 1165.75 612.332C1164.74 611.586 1163.84 610.693 1163.09 609.682C1162.3 608.623 1161.63 607.473 1161.12 606.257C1160.58 604.929 1160.18 603.548 1159.93 602.136C1159.64 600.564 1159.5 598.969 1159.51 597.371V592.125C1159.51 590.623 1159.63 589.123 1159.89 587.642C1160.09 586.441 1160.42 585.262 1160.85 584.121L1161.01 583.695C1161.56 582.267 1162.32 580.932 1163.27 579.734C1164.16 578.602 1165.23 577.611 1166.42 576.795C1167.5 576.103 1168.67 575.575 1169.89 575.227C1171.09 574.886 1172.33 574.702 1173.58 574.681L1173.95 574.68C1175.9 574.646 1177.83 574.954 1179.67 575.589C1181.26 576.136 1182.71 577.018 1183.93 578.177C1185.15 579.336 1186.11 580.744 1186.73 582.305C1187.44 584.056 1187.87 585.907 1188.02 587.79H1180.52C1180.47 586.747 1180.3 585.715 1180 584.715C1179.76 583.909 1179.35 583.161 1178.81 582.52C1178.25 581.937 1177.57 581.493 1176.81 581.222C1175.89 580.908 1174.93 580.758 1173.96 580.78C1173.4 580.778 1172.85 580.842 1172.31 580.971C1171.82 581.09 1171.34 581.279 1170.9 581.53C1170.15 581.99 1169.52 582.623 1169.06 583.375C1168.52 584.237 1168.1 585.171 1167.83 586.148C1167.58 587.039 1167.41 587.948 1167.32 588.866C1167.21 589.928 1167.16 590.996 1167.16 592.064V597.359C1167.15 598.75 1167.23 600.141 1167.41 601.522C1167.55 602.614 1167.82 603.688 1168.2 604.719C1168.43 605.307 1168.73 605.864 1169.1 606.38C1169.43 606.852 1169.83 607.267 1170.29 607.609C1170.78 607.969 1171.33 608.235 1171.91 608.396C1172.56 608.576 1173.23 608.663 1173.91 608.655C1174.81 608.665 1175.7 608.539 1176.56 608.28C1177.31 608.048 1178 607.644 1178.57 607.099C1179.16 606.518 1179.61 605.814 1179.88 605.039C1180.24 604.067 1180.45 603.047 1180.5 602.014H1188.03C1187.92 603.837 1187.48 605.625 1186.72 607.29H1186.72ZM1153.76 510.444L1172.7 521.371V543.238L1153.76 554.166L1145.34 549.306L1124.89 561.102L1104.56 549.374L1096.27 554.165L1077.32 543.22V521.37L1096.27 510.443L1115.22 521.371V543.219L1109.48 546.531L1124.89 555.42L1140.42 546.463L1134.81 543.219V521.37L1153.76 510.443V510.444ZM1139.73 527.066V540.403L1151.29 547.07V533.732L1139.73 527.066ZM1167.78 527.047L1156.22 533.713V547.07L1167.78 540.385V527.047V527.047ZM1082.25 527.047V540.385L1093.81 547.051V533.713L1082.25 527.047V527.047ZM1110.29 527.047L1098.73 533.713V547.05L1110.29 540.385V527.047L1110.29 527.047ZM1153.76 516.138L1142.2 522.804L1153.76 529.476L1165.31 522.804L1153.76 516.138ZM1096.27 516.12L1084.71 522.804L1096.27 529.458L1107.83 522.804L1096.27 516.12V516.12ZM1105.69 482.225V487.9L1088.16 498.017V515.118L1083.24 517.959V495.175L1105.69 482.224L1105.69 482.225ZM1124.64 465L1143.6 475.927V481.937L1166.55 495.175V517.817L1161.62 514.976V498.016L1143.6 487.619V497.782L1124.65 508.71L1105.71 497.782V475.927L1124.64 465ZM1110.63 481.603V494.941L1122.18 501.607V488.275L1110.63 481.603H1110.63ZM1138.66 481.603L1127.11 488.275V501.601L1138.66 494.941V481.603H1138.66ZM1124.64 470.682L1113.09 477.348L1124.64 484.014L1136.2 477.348L1124.64 470.682H1124.64Z" fill="#398CCB"/>
</g>
<defs>
<filter id="filter0_i_104_2" x="246.447" y="479.658" width="12.6439" height="12.6439" filterUnits="userSpaceOnUse" color-interpolation-filters="sRGB">
<feFlood flood-opacity="0" result="BackgroundImageFix"/>
<feBlend mode="normal" in="SourceGraphic" in2="BackgroundImageFix" result="shape"/>
<feColorMatrix in="SourceAlpha" type="matrix" values="0 0 0 0 0 0 0 0 0 0 0 0 0 0 0 0 0 0 127 0" result="hardAlpha"/>
<feOffset dx="0.1" dy="-0.1"/>
<feGaussianBlur stdDeviation="0.4"/>
<feComposite in2="hardAlpha" operator="arithmetic" k2="-1" k3="1"/>
<feColorMatrix type="matrix" values="0 0 0 0 0.85098 0 0 0 0 0.737255 0 0 0 0 0.92549 0 0 0 1 0"/>
<feBlend mode="normal" in2="shape" result="effect1_innerShadow_104_2"/>
</filter>
<filter id="filter1_i_104_2" x="242" y="465" width="150.3" height="150" filterUnits="userSpaceOnUse" color-interpolation-filters="sRGB">
<feFlood flood-opacity="0" result="BackgroundImageFix"/>
<feBlend mode="normal" in="SourceGraphic" in2="BackgroundImageFix" result="shape"/>
<feColorMatrix in="SourceAlpha" type="matrix" values="0 0 0 0 0 0 0 0 0 0 0 0 0 0 0 0 0 0 127 0" result="hardAlpha"/>
<feOffset dx="0.3"/>
<feGaussianBlur stdDeviation="0.5"/>
<feComposite in2="hardAlpha" operator="arithmetic" k2="-1" k3="1"/>
<feColorMatrix type="matrix" values="0 0 0 0 0.94902 0 0 0 0 0.564706 0 0 0 0 0.811765 0 0 0 1 0"/>
<feBlend mode="normal" in2="shape" result="effect1_innerShadow_104_2"/>
</filter>
<filter id="filter2_f_104_2" x="259.549" y="482.55" width="114.901" height="114.902" filterUnits="userSpaceOnUse" color-interpolation-filters="sRGB">
<feFlood flood-opacity="0" result="BackgroundImageFix"/>
<feBlend mode="normal" in="SourceGraphic" in2="BackgroundImageFix" result="shape"/>
<feGaussianBlur stdDeviation="0.375" result="effect1_foregroundBlur_104_2"/>
</filter>
<filter id="filter3_i_104_2" x="242.196" y="509.209" width="34.7895" height="34.7899" filterUnits="userSpaceOnUse" color-interpolation-filters="sRGB">
<feFlood flood-opacity="0" result="BackgroundImageFix"/>
<feBlend mode="normal" in="SourceGraphic" in2="BackgroundImageFix" result="shape"/>
<feColorMatrix in="SourceAlpha" type="matrix" values="0 0 0 0 0 0 0 0 0 0 0 0 0 0 0 0 0 0 127 0" result="hardAlpha"/>
<feOffset dx="0.1" dy="-0.1"/>
<feGaussianBlur stdDeviation="0.4"/>
<feComposite in2="hardAlpha" operator="arithmetic" k2="-1" k3="1"/>
<feColorMatrix type="matrix" values="0 0 0 0 0.909804 0 0 0 0 0.843137 0 0 0 0 0.980392 0 0 0 1 0"/>
<feBlend mode="normal" in2="shape" result="effect1_innerShadow_104_2"/>
</filter>
<filter id="filter4_f_104_2" x="312.945" y="483.347" width="60.7031" height="111.906" filterUnits="userSpaceOnUse" color-interpolation-filters="sRGB">
<feFlood flood-opacity="0" result="BackgroundImageFix"/>
<feBlend mode="normal" in="SourceGraphic" in2="BackgroundImageFix" result="shape"/>
<feGaussianBlur stdDeviation="0.375" result="effect1_foregroundBlur_104_2"/>
</filter>
<filter id="filter5_i_104_2" x="341.536" y="548.569" width="50.8346" height="50.5346" filterUnits="userSpaceOnUse" color-interpolation-filters="sRGB">
<feFlood flood-opacity="0" result="BackgroundImageFix"/>
<feBlend mode="normal" in="SourceGraphic" in2="BackgroundImageFix" result="shape"/>
<feColorMatrix in="SourceAlpha" type="matrix" values="0 0 0 0 0 0 0 0 0 0 0 0 0 0 0 0 0 0 127 0" result="hardAlpha"/>
<feOffset dx="0.4" dy="-0.1"/>
<feGaussianBlur stdDeviation="0.5"/>
<feComposite in2="hardAlpha" operator="arithmetic" k2="-1" k3="1"/>
<feColorMatrix type="matrix" values="0 0 0 0 0.792157 0 0 0 0 0.54902 0 0 0 0 0.894118 0 0 0 1 0"/>
<feBlend mode="normal" in2="shape" result="effect1_innerShadow_104_2"/>
</filter>
<radialGradient id="paint0_radial_104_2" cx="0" cy="0" r="1" gradientUnits="userSpaceOnUse" gradientTransform="translate(259.54 506.789) rotate(-8.079) scale(22.6938)">
<stop stop-color="#CEC4D1"/>
<stop offset="1" stop-color="#C8C1C9"/>
</radialGradient>
<radialGradient id="paint1_radial_104_2" cx="0" cy="0" r="1" gradientUnits="userSpaceOnUse" gradientTransform="translate(276.458 506.787) rotate(180) scale(16.9192)">
<stop offset="0.529" stop-color="#CEC5D1" stop-opacity="0"/>
<stop offset="1" stop-color="#E4DFE8"/>
</radialGradient>
<radialGradient id="paint2_radial_104_2" cx="0" cy="0" r="1" gradientUnits="userSpaceOnUse" gradientTransform="translate(256.575 484.505) rotate(168.14) scale(10.3489 9.79411)">
<stop offset="0.135" stop-color="#FFEDFF"/>
<stop offset="0.911" stop-color="#DBCBEA"/>
</radialGradient>
<radialGradient id="paint3_radial_104_2" cx="0" cy="0" r="1" gradientUnits="userSpaceOnUse" gradientTransform="translate(253.983 489.665) rotate(-100.366) scale(10.0746 10.0746)">
<stop offset="0.818" stop-color="#DAD4E0" stop-opacity="0"/>
<stop offset="1" stop-color="#DAD4E0"/>
</radialGradient>
<linearGradient id="paint4_linear_104_2" x1="375.555" y1="495.169" x2="270.822" y2="591.485" gradientUnits="userSpaceOnUse">
<stop stop-color="#FFABBD"/>
<stop offset="1" stop-color="#F756E5"/>
</linearGradient>
<radialGradient id="paint5_radial_104_2" cx="0" cy="0" r="1" gradientUnits="userSpaceOnUse" gradientTransform="translate(356.282 548.612) rotate(-111.029) scale(100.194 137.861)">
<stop offset="0.713" stop-color="#E082A1" stop-opacity="0"/>
<stop offset="0.965" stop-color="#E1959A"/>
</radialGradient>
<radialGradient id="paint6_radial_104_2" cx="0" cy="0" r="1" gradientUnits="userSpaceOnUse" gradientTransform="translate(265.094 522.445) rotate(-46.1412) scale(59.7827 42.3389)">
<stop stop-color="#E775AB"/>
<stop offset="1" stop-color="#E775AB" stop-opacity="0"/>
</radialGradient>
<radialGradient id="paint7_radial_104_2" cx="0" cy="0" r="1" gradientUnits="userSpaceOnUse" gradientTransform="translate(254.657 541.978) rotate(119.055) scale(13.8691 10.3535)">
<stop stop-color="#E551C0"/>
<stop offset="1" stop-color="#E551C0" stop-opacity="0"/>
</radialGradient>
<radialGradient id="paint8_radial_104_2" cx="0" cy="0" r="1" gradientUnits="userSpaceOnUse" gradientTransform="translate(347.606 584.076) rotate(158.405) scale(34.7704 36.9667)">
<stop offset="0.187" stop-color="#D24BB4"/>
<stop offset="1" stop-color="#D24BB4" stop-opacity="0"/>
</radialGradient>
<radialGradient id="paint9_radial_104_2" cx="0" cy="0" r="1" gradientUnits="userSpaceOnUse" gradientTransform="translate(381.617 560.163) rotate(-103.241) scale(29.4072 27.206)">
<stop offset="0.329" stop-color="#E588A9"/>
<stop offset="1" stop-color="#E588A9" stop-opacity="0"/>
</radialGradient>
<radialGradient id="paint10_radial_104_2" cx="0" cy="0" r="1" gradientUnits="userSpaceOnUse" gradientTransform="translate(366.799 514.028) rotate(-4.58391) scale(25.2833 34.4771)">
<stop stop-color="#FFA7C0"/>
<stop offset="1" stop-color="#FFA7C0" stop-opacity="0"/>
</radialGradient>
<linearGradient id="paint11_linear_104_2" x1="353.243" y1="503.755" x2="282.44" y2="574.558" gradientUnits="userSpaceOnUse">
<stop stop-color="#EE7BBE"/>
<stop offset="1" stop-color="#FF7BE6"/>
</linearGradient>
<linearGradient id="paint12_linear_104_2" x1="282.863" y1="580.368" x2="299.025" y2="563.87" gradientUnits="userSpaceOnUse">
<stop offset="0.178" stop-color="#FF83E6"/>
<stop offset="1" stop-color="#FF83E6" stop-opacity="0"/>
</linearGradient>
<linearGradient id="paint13_linear_104_2" x1="285.45" y1="503.498" x2="301.201" y2="520.682" gradientUnits="userSpaceOnUse">
<stop offset="0.493" stop-color="#F89BB9"/>
<stop offset="1" stop-color="#F89BB9" stop-opacity="0"/>
</linearGradient>
<radialGradient id="paint14_radial_104_2" cx="0" cy="0" r="1" gradientUnits="userSpaceOnUse" gradientTransform="translate(265.72 524.901) rotate(171.772) scale(23.7666 22.4923)">
<stop offset="0.135" stop-color="#FFEDFF"/>
<stop offset="1" stop-color="#ECAEFF"/>
</radialGradient>
<radialGradient id="paint15_radial_104_2" cx="0" cy="0" r="1" gradientUnits="userSpaceOnUse" gradientTransform="translate(242.196 537.791) rotate(-25.398) scale(19.1992 27.5759)">
<stop offset="0.182" stop-color="#DBB6FF"/>
<stop offset="1" stop-color="#DBB6FF" stop-opacity="0"/>
</radialGradient>
<radialGradient id="paint16_radial_104_2" cx="0" cy="0" r="1" gradientUnits="userSpaceOnUse" gradientTransform="translate(263.029 536.714) rotate(-100.366) scale(27.8572)">
<stop offset="0.818" stop-color="#DAD4E0" stop-opacity="0"/>
<stop offset="1" stop-color="#DAD4E0"/>
</radialGradient>
<linearGradient id="paint17_linear_104_2" x1="313.695" y1="581.383" x2="362.336" y2="536.59" gradientUnits="userSpaceOnUse">
<stop stop-color="#F068CB"/>
<stop offset="1" stop-color="#F068CB" stop-opacity="0"/>
</linearGradient>
<radialGradient id="paint18_radial_104_2" cx="0" cy="0" r="1" gradientUnits="userSpaceOnUse" gradientTransform="translate(349.641 563.979) rotate(131.285) scale(20.8975 15.924)">
<stop offset="0.07" stop-color="#D35F9E"/>
<stop offset="1" stop-color="#D35F9E" stop-opacity="0"/>
</radialGradient>
<radialGradient id="paint19_radial_104_2" cx="0" cy="0" r="1" gradientUnits="userSpaceOnUse" gradientTransform="translate(345.812 604.196) rotate(-99.462) scale(18.6379)">
<stop stop-color="#EDA5FF"/>
<stop offset="1" stop-color="#C28CDD"/>
</radialGradient>
<radialGradient id="paint20_radial_104_2" cx="0" cy="0" r="1" gradientUnits="userSpaceOnUse" gradientTransform="translate(358.646 590.403) rotate(129.237) scale(14.835 20.4301)">
<stop offset="0.381" stop-color="#D89AFF"/>
<stop offset="1" stop-color="#D89AFF" stop-opacity="0"/>
</radialGradient>
<radialGradient id="paint21_radial_104_2" cx="0" cy="0" r="1" gradientUnits="userSpaceOnUse" gradientTransform="translate(383.731 567.038) rotate(167.646) scale(43.1909 40.8751)">
<stop offset="0.218" stop-color="#FFEDFF"/>
<stop offset="1" stop-color="#ECAEFF"/>
</radialGradient>
<radialGradient id="paint22_radial_104_2" cx="0" cy="0" r="1" gradientUnits="userSpaceOnUse" gradientTransform="translate(341.538 590.072) rotate(-29.477) scale(24.7642 35.5689)">
<stop offset="0.182" stop-color="#DBB6FF"/>
<stop offset="1" stop-color="#DBB6FF" stop-opacity="0"/>
</radialGradient>
<radialGradient id="paint23_radial_104_2" cx="0" cy="0" r="1" gradientUnits="userSpaceOnUse" gradientTransform="translate(371.836 588.512) rotate(-100.366) scale(40.501 40.501)">
<stop offset="0.818" stop-color="#DAD4E0" stop-opacity="0"/>
<stop offset="1" stop-color="#DAD4E0"/>
</radialGradient>
<radialGradient id="paint24_radial_104_2" cx="0" cy="0" r="1" gradientUnits="userSpaceOnUse" gradientTransform="translate(373.011 557.275) rotate(98.499) scale(42.2956 51.9003)">
<stop offset="0.681" stop-color="#F3B7FF" stop-opacity="0"/>
<stop offset="1" stop-color="#E697FF"/>
</radialGradient>
<clipPath id="clip0_104_2">
<rect width="126.031" height="150" fill="white" transform="translate(1062 465)"/>
</clipPath>
</defs>
</svg>
