<svg width="1920" height="1080" viewBox="0 0 1920 1080" fill="none" xmlns="http://www.w3.org/2000/svg">
<rect width="1920" height="1080" fill="white"/>
<path d="M1157.88 537.879C1156.71 539.05 1156.71 540.95 1157.88 542.121L1176.97 561.213C1178.14 562.385 1180.04 562.385 1181.21 561.213C1182.38 560.042 1182.38 558.142 1181.21 556.971L1164.24 540L1181.21 523.029C1182.38 521.858 1182.38 519.958 1181.21 518.787C1180.04 517.615 1178.14 517.615 1176.97 518.787L1157.88 537.879ZM1412.12 542.121C1413.29 540.95 1413.29 539.05 1412.12 537.879L1393.03 518.787C1391.86 517.615 1389.96 517.615 1388.79 518.787C1387.62 519.958 1387.62 521.858 1388.79 523.029L1405.76 540L1388.79 556.971C1387.62 558.142 1387.62 560.042 1388.79 561.213C1389.96 562.385 1391.86 562.385 1393.03 561.213L1412.12 542.121ZM1160 543L1410 543L1410 537L1160 537L1160 543Z" fill="black"/>
<path d="M517.879 537.879C516.707 539.05 516.707 540.95 517.879 542.121L536.971 561.213C538.142 562.385 540.042 562.385 541.213 561.213C542.385 560.042 542.385 558.142 541.213 556.971L524.243 540L541.213 523.029C542.385 521.858 542.385 519.958 541.213 518.787C540.042 517.615 538.142 517.615 536.971 518.787L517.879 537.879ZM772.121 542.121C773.293 540.95 773.293 539.05 772.121 537.879L753.029 518.787C751.858 517.615 749.958 517.615 748.787 518.787C747.615 519.958 747.615 521.858 748.787 523.029L765.757 540L748.787 556.971C747.615 558.142 747.615 560.042 748.787 561.213C749.958 562.385 751.858 562.385 753.029 561.213L772.121 542.121ZM520 543L770 543L770 537L520 537L520 543Z" fill="black"/>
<path d="M208.333 623.333C208.333 605.652 215.357 588.695 227.859 576.193C240.362 563.69 257.319 556.667 275 556.667C292.681 556.667 309.638 563.69 322.14 576.193C334.643 588.695 341.666 605.652 341.666 623.333H208.333ZM275 548.333C247.375 548.333 225 525.958 225 498.333C225 470.708 247.375 448.333 275 448.333C302.625 448.333 325 470.708 325 498.333C325 525.958 302.625 548.333 275 548.333ZM352.05 466.533C356.212 476.618 358.347 487.424 358.333 498.333C358.347 509.243 356.212 520.049 352.05 530.133L338.075 519.967C340.459 513.004 341.673 505.693 341.666 498.333C341.676 490.974 340.465 483.664 338.083 476.7L352.05 466.533ZM379.566 446.533C387.551 462.632 391.693 480.363 391.666 498.333C391.666 516.942 387.308 534.533 379.566 550.133L365.858 540.167C371.901 527.05 375.021 512.776 375 498.333C375.019 483.891 371.9 469.617 365.858 456.5L379.566 446.533Z" fill="black"/>
<path d="M1721.67 623.333C1721.67 605.652 1714.64 588.695 1702.14 576.193C1689.64 563.69 1672.68 556.667 1655 556.667C1637.32 556.667 1620.36 563.69 1607.86 576.193C1595.36 588.695 1588.33 605.652 1588.33 623.333H1721.67ZM1655 548.333C1682.63 548.333 1705 525.958 1705 498.333C1705 470.708 1682.63 448.333 1655 448.333C1627.38 448.333 1605 470.708 1605 498.333C1605 525.958 1627.38 548.333 1655 548.333ZM1577.95 466.533C1573.79 476.618 1571.65 487.424 1571.67 498.333C1571.65 509.243 1573.79 520.049 1577.95 530.133L1591.93 519.967C1589.54 513.004 1588.33 505.693 1588.33 498.333C1588.32 490.974 1589.54 483.664 1591.92 476.7L1577.95 466.533ZM1550.43 446.533C1542.45 462.632 1538.31 480.363 1538.33 498.333C1538.33 516.942 1542.69 534.533 1550.43 550.133L1564.14 540.167C1558.1 527.05 1554.98 512.776 1555 498.333C1554.98 483.891 1558.1 469.617 1564.14 456.5L1550.43 446.533Z" fill="black"/>
<path d="M1033.69 522.75L1031.89 520.95C1033.06 518.53 1033.46 515.813 1033.04 513.161C1032.62 510.509 1031.4 508.047 1029.55 506.104C1028.28 504.845 1026.76 503.871 1025.09 503.246C1023.42 502.621 1021.63 502.359 1019.85 502.479C1018.18 502.577 1016.54 502.968 1015 503.633V473.333H898.333V606.667H1015V539.25L1027.87 526.375L1028.97 527.471C1029.12 527.614 1029.23 527.785 1029.31 527.973C1029.39 528.16 1029.43 528.361 1029.43 528.565C1029.43 528.768 1029.39 528.969 1029.31 529.157C1029.23 529.344 1029.12 529.515 1028.97 529.658L1019.17 539.467C1018.55 540.092 1018.19 540.939 1018.19 541.824C1018.19 542.708 1018.54 543.556 1019.17 544.181C1019.79 544.807 1020.64 545.158 1021.53 545.159C1022.41 545.159 1023.26 544.808 1023.88 544.183L1033.69 534.375C1035.23 532.833 1036.1 530.742 1036.1 528.563C1036.1 526.383 1035.23 524.292 1033.69 522.75ZM923.333 499.167H990.008V505.833H923.333V499.167ZM923.333 515.833H990.008V522.5H923.333V515.833ZM923.333 532.5H967.083V539.167H923.333V532.5ZM984.962 589.567H952.45C948.691 589.567 945.175 589.208 943.308 586.133C941.396 582.988 943.296 579.333 944.683 576.658C944.929 576.188 944.383 575.604 943.758 576.25C941.925 578.133 939.008 581.525 936.662 584.25C934.183 587.133 933.2 588.263 932.675 588.738C932.119 589.383 931.365 589.825 930.53 589.994C929.696 590.163 928.829 590.049 928.066 589.671C927.382 589.275 926.845 588.667 926.539 587.938C926.233 587.208 926.174 586.399 926.371 585.633C926.546 584.592 929.521 573 932.216 562.579C928.633 568.942 917.258 587.996 916.725 588.892C916.328 589.556 915.683 590.036 914.933 590.226C914.182 590.415 913.387 590.299 912.723 589.902C912.058 589.505 911.578 588.861 911.389 588.11C911.199 587.36 911.315 586.565 911.712 585.9C911.858 585.663 926.108 561.783 927.904 558.317C928.489 556.931 929.579 555.819 930.952 555.206C932.326 554.592 933.881 554.523 935.304 555.013C936.588 555.534 937.626 556.524 938.21 557.781C938.794 559.038 938.88 560.47 938.45 561.788C936.95 567.571 935.421 573.504 934.241 578.121C936.146 575.921 938.137 573.663 939.575 572.183C940.681 570.853 942.193 569.923 943.878 569.533C945.564 569.144 947.331 569.319 948.908 570.029C949.888 570.528 950.673 571.341 951.138 572.337C951.603 573.334 951.722 574.457 951.475 575.529C951.077 576.857 950.535 578.136 949.858 579.346C948.746 581.658 949.275 583.729 952.45 583.729H984.962C985.736 583.729 986.478 584.036 987.025 584.583C987.572 585.13 987.879 585.872 987.879 586.646C987.879 587.419 987.572 588.161 987.025 588.708C986.478 589.255 985.736 589.563 984.962 589.563V589.567ZM976.296 568.525L965.446 571.388C965.288 571.432 965.121 571.433 964.962 571.391C964.804 571.348 964.66 571.264 964.546 571.146C964.426 571.033 964.34 570.889 964.296 570.73C964.253 570.572 964.254 570.404 964.3 570.246L967.066 559.417L994.525 531.958L1003.69 541.125L976.296 568.525ZM1024.07 520.746L1008.4 536.413L999.237 527.246L1014.9 511.579C1016.3 510.139 1018.19 509.269 1020.2 509.138L1020.57 509.125C1021.36 509.111 1022.14 509.254 1022.87 509.545C1023.6 509.836 1024.27 510.27 1024.83 510.821C1026.03 512.242 1026.63 514.081 1026.49 515.939C1026.34 517.797 1025.48 519.524 1024.07 520.746Z" fill="black"/>
</svg>
