<svg width="232" height="232" viewBox="0 0 232 232" fill="none" xmlns="http://www.w3.org/2000/svg">
	<path
		d="M115 85C131.569 85 145 98.4314 145 115C145 131.569 131.569 145 115 145C98.4314 145 85 131.569 85 115C85 98.4314 98.4314 85 115 85ZM92.4688 115C92.4688 118.287 93.1766 121.411 94.4472 124.229L111.266 112.992V92.7801C100.613 94.5647 92.4688 103.848 92.4688 115ZM118.734 92.7801V112.992L135.553 124.229C136.823 121.411 137.531 118.287 137.531 115C137.531 103.848 129.387 94.5647 118.734 92.7801ZM131.397 130.435L118.735 121.974V137.22C123.686 136.39 128.096 133.941 131.397 130.435ZM111.266 137.22V121.974L98.6028 130.435C101.904 133.941 106.314 136.39 111.266 137.22Z"
		fill="black" />
</svg>