<svg width="1920" height="1080" viewBox="0 0 1920 1080" fill="none" xmlns="http://www.w3.org/2000/svg">
<rect width="1920" height="1080" fill="white"/>
<rect opacity="0.5" x="1168.5" y="413.5" width="620" height="253" fill="#EEEEEE" stroke="black" stroke-width="3" stroke-linecap="round" stroke-dasharray="10 10"/>
<rect opacity="0.5" x="1168.5" y="80.5" width="620" height="305" fill="#EEEEEE" stroke="black" stroke-width="3" stroke-linecap="round" stroke-dasharray="10 10"/>
<rect opacity="0.5" x="1168.5" y="699.5" width="620" height="300" fill="#EEEEEE" stroke="black" stroke-width="3" stroke-linecap="round" stroke-dasharray="10 10"/>
<rect opacity="0.5" x="131.5" y="356.5" width="620" height="467" fill="#EEEEEE" stroke="black" stroke-width="3" stroke-linecap="round" stroke-dasharray="10 10"/>
<rect opacity="0.2" x="1272.5" y="35.5" width="1002" height="625" transform="rotate(90 1272.5 35.5)" fill="#DDDDDD" stroke="black" stroke-width="3" stroke-linecap="round" stroke-dasharray="10 10"/>
<path d="M937 530H932C929.348 530 926.804 528.946 924.929 527.071C923.054 525.196 922 522.652 922 520V500C922 497.348 923.054 494.804 924.929 492.929C926.804 491.054 929.348 490 932 490H1012C1014.65 490 1017.2 491.054 1019.07 492.929C1020.95 494.804 1022 497.348 1022 500V520C1022 522.652 1020.95 525.196 1019.07 527.071C1017.2 528.946 1014.65 530 1012 530H1007M937 550H932C929.348 550 926.804 551.054 924.929 552.929C923.054 554.804 922 557.348 922 560V580C922 582.652 923.054 585.196 924.929 587.071C926.804 588.946 929.348 590 932 590H1012C1014.65 590 1017.2 588.946 1019.07 587.071C1020.95 585.196 1022 582.652 1022 580V560C1022 557.348 1020.95 554.804 1019.07 552.929C1017.2 551.054 1014.65 550 1012 550H1007M942 510H942.05M942 570H942.05" stroke="black" stroke-width="10" stroke-linecap="round" stroke-linejoin="round"/>
<path d="M972 555C980.284 555 987 548.284 987 540C987 531.716 980.284 525 972 525C963.715 525 957 531.716 957 540C957 548.284 963.715 555 972 555Z" stroke="black" stroke-width="10" stroke-linecap="round" stroke-linejoin="round"/>
<path d="M972 520V525M972 555V560M992 540H987M957 540H952M987 525L982.6 529.4M961.4 550.6L957 555M987 555L982.6 550.6M961.4 529.4L957 525" stroke="black" stroke-width="10" stroke-linecap="round" stroke-linejoin="round"/>
<path d="M859 387L926 393L952 485V516H916.5V502.5H861L859 387Z" fill="#F8F8F8"/>
<path d="M942.457 405.495L921.486 384.524C919.236 382.275 916.187 381 913.013 381H861.998C855.374 381.025 850 386.399 850 393.023V497.002C850 503.626 855.374 509 861.998 509H933.984C940.607 509 945.981 503.626 945.981 497.002V413.994C945.981 410.819 944.707 407.745 942.457 405.495ZM933.009 413.019H913.988V393.997L933.009 413.019ZM861.998 497.002V393.023H901.99V419.018C901.99 422.342 904.664 425.016 907.989 425.016H933.984V497.002H861.998Z" fill="black"/>
<path d="M878.674 459.788C877.594 459.788 876.664 459.536 875.884 459.032C875.116 458.528 874.522 457.844 874.102 456.98C873.694 456.116 873.49 455.144 873.49 454.064V438.476C873.49 437.384 873.694 436.412 874.102 435.56C874.522 434.696 875.116 434.012 875.884 433.508C876.664 433.004 877.594 432.752 878.674 432.752C879.754 432.752 880.678 433.004 881.446 433.508C882.226 434.012 882.82 434.696 883.228 435.56C883.648 436.424 883.858 437.396 883.858 438.476V454.064C883.858 455.144 883.648 456.116 883.228 456.98C882.82 457.844 882.226 458.528 881.446 459.032C880.678 459.536 879.754 459.788 878.674 459.788ZM878.674 456.008C879.154 456.008 879.49 455.81 879.682 455.414C879.874 455.006 879.97 454.556 879.97 454.064V438.476C879.97 437.984 879.868 437.54 879.664 437.144C879.46 436.736 879.13 436.532 878.674 436.532C878.23 436.532 877.9 436.736 877.684 437.144C877.48 437.54 877.378 437.984 877.378 438.476V454.064C877.378 454.556 877.48 455.006 877.684 455.414C877.888 455.81 878.218 456.008 878.674 456.008ZM886.573 459.5V433.04H890.461C891.937 433.04 893.167 433.364 894.151 434.012C895.147 434.66 895.891 435.578 896.383 436.766C896.875 437.954 897.121 439.352 897.121 440.96C897.121 442.568 896.863 443.954 896.347 445.118C895.831 446.282 895.075 447.194 894.079 447.854C893.095 448.502 891.889 448.856 890.461 448.916V459.5H886.573ZM890.461 444.956C891.145 444.956 891.685 444.824 892.081 444.56C892.477 444.284 892.759 443.852 892.927 443.264C893.107 442.676 893.197 441.92 893.197 440.996C893.197 440.06 893.107 439.298 892.927 438.71C892.759 438.122 892.471 437.69 892.063 437.414C891.667 437.138 891.133 437 890.461 437V444.956ZM899.229 459.5V433.04H908.121V437.036H903.117V444.164H906.717V448.052H903.117V455.504H908.121V459.5H899.229ZM911.006 459.5V433.04H914.642L918.242 446.828L918.566 448.052H918.782V433.04H922.346V459.5H919.07L915.11 445.712L914.786 444.488H914.57V459.5H911.006Z" fill="black"/>
<path d="M881.913 489L885.909 462.54H890.661L894.657 489H890.877L890.157 483.6H886.413L885.693 489H881.913ZM886.953 479.496H889.617L888.501 470.604L888.393 469.2H888.177L888.069 470.604L886.953 479.496ZM896.715 489V462.54H900.603C902.079 462.54 903.309 462.864 904.293 463.512C905.289 464.16 906.033 465.078 906.525 466.266C907.017 467.454 907.263 468.852 907.263 470.46C907.263 472.068 907.005 473.454 906.489 474.618C905.973 475.782 905.217 476.694 904.221 477.354C903.237 478.002 902.031 478.356 900.603 478.416V489H896.715ZM900.603 474.456C901.287 474.456 901.827 474.324 902.223 474.06C902.619 473.784 902.901 473.352 903.069 472.764C903.249 472.176 903.339 471.42 903.339 470.496C903.339 469.56 903.249 468.798 903.069 468.21C902.901 467.622 902.613 467.19 902.205 466.914C901.809 466.638 901.275 466.5 900.603 466.5V474.456ZM909.372 489V462.54H913.26V489H909.372Z" fill="black"/>
<path d="M403 519H291C286.582 519 283 515.418 283 511V495C283 490.582 286.582 487 291 487H403C407.418 487 411 490.582 411 495V511C411 515.418 407.418 519 403 519ZM391 497C387.686 497 385 499.686 385 503C385 506.314 387.686 509 391 509C394.314 509 397 506.314 397 503C397 499.686 394.314 497 391 497ZM375 497C371.686 497 369 499.686 369 503C369 506.314 371.686 509 375 509C378.314 509 381 506.314 381 503C381 499.686 378.314 497 375 497ZM403 559H291C286.582 559 283 555.418 283 551V535C283 530.582 286.582 527 291 527H403C407.418 527 411 530.582 411 535V551C411 555.418 407.418 559 403 559ZM391 537C387.686 537 385 539.686 385 543C385 546.314 387.686 549 391 549C394.314 549 397 546.314 397 543C397 539.686 394.314 537 391 537ZM375 537C371.686 537 369 539.686 369 543C369 546.314 371.686 549 375 549C378.314 549 381 546.314 381 543C381 539.686 378.314 537 375 537ZM403 599H291C286.582 599 283 595.418 283 591V575C283 570.582 286.582 567 291 567H403C407.418 567 411 570.582 411 575V591C411 595.418 407.418 599 403 599ZM391 577C387.686 577 385 579.686 385 583C385 586.314 387.686 589 391 589C394.314 589 397 586.314 397 583C397 579.686 394.314 577 391 577ZM375 577C371.686 577 369 579.686 369 583C369 586.314 371.686 589 375 589C378.314 589 381 586.314 381 583C381 579.686 378.314 577 375 577Z" fill="black"/>
<path d="M466.232 540.732C465.255 541.709 465.255 543.291 466.232 544.268L482.141 560.178C483.118 561.154 484.701 561.154 485.677 560.178C486.653 559.201 486.653 557.618 485.677 556.642L471.535 542.5L485.677 528.358C486.653 527.382 486.653 525.799 485.677 524.822C484.701 523.846 483.118 523.846 482.141 524.822L466.232 540.732ZM824.001 540L467.999 540L467.999 545L824.001 545L824.001 540Z" fill="black"/>
<path d="M973.768 270.232C972.791 269.256 971.209 269.256 970.232 270.232L954.322 286.142C953.346 287.118 953.346 288.701 954.322 289.678C955.299 290.654 956.882 290.654 957.858 289.678L972 275.536L986.142 289.678C987.118 290.654 988.701 290.654 989.678 289.678C990.654 288.701 990.654 287.118 989.678 286.142L973.768 270.232ZM974.5 412L974.5 272L969.5 272L969.5 412L974.5 412Z" fill="black"/>
<path d="M929.333 129C929.333 125.464 930.738 122.073 933.238 119.572C935.739 117.072 939.13 115.667 942.667 115.667H1004C1005.75 115.667 1007.48 116.012 1009.1 116.682C1010.72 117.352 1012.19 118.334 1013.43 119.572C1014.67 120.81 1015.65 122.28 1016.32 123.898C1016.99 125.516 1017.33 127.249 1017.33 129V205C1017.33 206.061 1016.91 207.079 1016.16 207.829C1015.41 208.579 1014.39 209 1013.33 209H937.333C937.333 210.415 937.895 211.771 938.895 212.772C939.896 213.772 941.252 214.334 942.667 214.334H1013.33C1014.39 214.334 1015.41 214.755 1016.16 215.505C1016.91 216.255 1017.33 217.273 1017.33 218.334C1017.33 219.395 1016.91 220.412 1016.16 221.162C1015.41 221.912 1014.39 222.334 1013.33 222.334H942.667C939.13 222.334 935.739 220.929 933.238 218.428C930.738 215.928 929.333 212.537 929.333 209V129ZM973.333 147.667C974.748 147.667 976.104 147.105 977.104 146.105C978.105 145.105 978.667 143.748 978.667 142.334C978.667 140.919 978.105 139.563 977.104 138.562C976.104 137.562 974.748 137 973.333 137C971.919 137 970.562 137.562 969.562 138.562C968.562 139.563 968 140.919 968 142.334C968 143.748 968.562 145.105 969.562 146.105C970.562 147.105 971.919 147.667 973.333 147.667V147.667ZM969.333 157V183.667C969.333 184.728 969.755 185.745 970.505 186.495C971.255 187.246 972.272 187.667 973.333 187.667C974.394 187.667 975.412 187.246 976.162 186.495C976.912 185.745 977.333 184.728 977.333 183.667V157C977.333 155.939 976.912 154.922 976.162 154.172C975.412 153.422 974.394 153 973.333 153C972.272 153 971.255 153.422 970.505 154.172C969.755 154.922 969.333 155.939 969.333 157Z" fill="black"/>
<path d="M1689 160H1601C1594.38 160 1589 165.375 1589 172V260C1589 266.625 1594.38 272 1601 272H1689C1695.62 272 1701 266.625 1701 260V172C1701 165.375 1695.62 160 1689 160ZM1620.75 248.125C1619.38 250.525 1616.3 251.325 1613.92 249.95C1611.52 248.575 1610.73 245.5 1612.1 243.125L1615.67 236.95C1619.7 235.725 1623 236.675 1625.58 239.8L1620.75 248.125ZM1655.47 234.65H1610C1607.25 234.65 1605 232.4 1605 229.65C1605 226.9 1607.25 224.65 1610 224.65H1622.75L1639.1 196.35L1633.97 187.5C1632.6 185.1 1633.42 182.05 1635.8 180.675C1638.2 179.3 1641.25 180.125 1642.62 182.5L1644.85 186.35L1647.08 182.5C1648.45 180.1 1651.53 179.3 1653.9 180.675C1656.3 182.05 1657.1 185.125 1655.72 187.5L1634.28 224.65H1649.8C1654.85 224.65 1657.67 230.575 1655.47 234.65V234.65ZM1680 234.65H1672.75L1677.65 243.125C1679.03 245.525 1678.2 248.575 1675.82 249.95C1673.42 251.325 1670.38 250.5 1669 248.125C1660.77 233.9 1654.62 223.2 1650.5 216.1C1646.32 208.85 1649.3 201.6 1652.28 199.15C1655.55 204.825 1660.45 213.325 1667 224.65H1680C1682.75 224.65 1685 226.9 1685 229.65C1685 232.425 1682.75 234.65 1680 234.65V234.65Z" fill="black"/>
<path d="M1541.76 541.412C1543.32 542.975 1545.85 542.975 1547.42 541.412L1550.24 538.585C1551.81 537.022 1551.81 534.49 1550.24 532.928L1541.31 524L1550.24 515.07C1551.8 513.507 1551.8 510.975 1550.24 509.412L1547.41 506.585C1545.85 505.022 1543.32 505.022 1541.76 506.585L1527.17 521.17C1525.61 522.732 1525.61 525.265 1527.17 526.827L1541.76 541.412V541.412ZM1565.76 538.588L1568.59 541.415C1570.15 542.978 1572.68 542.978 1574.25 541.415L1588.83 526.83C1590.39 525.268 1590.39 522.735 1588.83 521.173L1574.25 506.587C1572.68 505.025 1570.15 505.025 1568.59 506.587L1565.76 509.415C1564.2 510.978 1564.2 513.51 1565.76 515.072L1574.69 524L1565.76 532.93C1564.2 534.493 1564.2 537.025 1565.76 538.588V538.588ZM1634 580H1573.39C1573.2 584.952 1569.71 588 1565.2 588H1550C1545.33 588 1541.74 583.632 1541.81 580H1482C1479.8 580 1478 581.8 1478 584V588C1478 596.8 1485.2 604 1494 604H1622C1630.8 604 1638 596.8 1638 588V584C1638 581.8 1636.2 580 1634 580ZM1622 488C1622 481.4 1616.6 476 1610 476H1506C1499.4 476 1494 481.4 1494 488V572H1622V488ZM1606 556H1510V492H1606V556Z" fill="black"/>
<path d="M1612.4 856.65C1613.42 853.975 1614 851.05 1614 848C1614 834.75 1603.25 824 1590 824C1585.07 824 1580.48 825.5 1576.68 828.05C1569.75 816.05 1556.82 808 1542 808C1519.9 808 1502 825.9 1502 848C1502 848.675 1502.02 849.35 1502.05 850.025C1488.05 854.95 1478 868.3 1478 884C1478 903.875 1494.12 920 1514 920H1606C1623.67 920 1638 905.675 1638 888C1638 872.525 1627 859.6 1612.4 856.65Z" fill="black"/>
<path d="M1490 210.575L1434.82 155.25L1505.02 195.55L1490 210.575V210.575ZM1420.42 152C1417.18 153.7 1415 156.8 1415 160.825V271.15C1415 275.175 1417.18 278.275 1420.42 279.975L1484.58 215.975L1420.42 152ZM1526.72 208.4L1512 199.875L1495.57 216L1512 232.125L1527.02 223.6C1531.52 220.025 1531.52 211.975 1526.72 208.4V208.4ZM1434.82 276.75L1505.02 236.45L1490 221.425L1434.82 276.75Z" fill="black"/>
<path d="M1387.43 233.598C1387.76 232.257 1386.94 230.903 1385.6 230.573L1363.75 225.191C1362.41 224.861 1361.06 225.68 1360.73 227.021C1360.4 228.361 1361.21 229.716 1362.56 230.046L1381.97 234.83L1377.19 254.249C1376.86 255.59 1377.68 256.944 1379.02 257.274C1380.36 257.605 1381.72 256.786 1382.05 255.445L1387.43 233.598ZM1090.29 414.139L1386.29 235.139L1383.71 230.861L1087.71 409.861L1090.29 414.139Z" fill="black"/>
<path d="M1416.77 543.762C1417.75 542.783 1417.74 541.2 1416.76 540.227L1400.8 524.366C1399.82 523.392 1398.24 523.397 1397.27 524.377C1396.29 525.356 1396.3 526.939 1397.28 527.912L1411.46 542.011L1397.37 556.196C1396.39 557.176 1396.4 558.759 1397.38 559.732C1398.36 560.705 1399.94 560.7 1400.91 559.721L1416.77 543.762ZM1089.01 545.5L1415.01 544.5L1414.99 539.5L1088.99 540.5L1089.01 545.5Z" fill="black"/>
<path d="M1415.6 871.426C1416.94 871.092 1417.76 869.736 1417.43 868.396L1411.99 846.563C1411.65 845.223 1410.3 844.407 1408.96 844.741C1407.62 845.075 1406.8 846.431 1407.14 847.771L1411.97 867.178L1392.56 872.011C1391.22 872.345 1390.41 873.702 1390.74 875.042C1391.07 876.381 1392.43 877.197 1393.77 876.863L1415.6 871.426ZM1087.71 675.143L1413.71 871.143L1416.29 866.857L1090.29 670.857L1087.71 675.143Z" fill="black"/>
<path d="M285.107 726V699.818H295.922C297.882 699.818 299.574 700.172 300.997 700.879C302.429 701.578 303.533 702.584 304.308 703.896C305.084 705.2 305.472 706.747 305.472 708.537C305.472 710.352 305.075 711.895 304.283 713.165C303.49 714.426 302.365 715.389 300.908 716.054C299.45 716.71 297.724 717.038 295.73 717.038H288.891V712.053H294.554C295.509 712.053 296.305 711.929 296.945 711.682C297.592 711.426 298.082 711.043 298.415 710.531C298.747 710.011 298.913 709.347 298.913 708.537C298.913 707.727 298.747 707.058 298.415 706.53C298.082 705.993 297.592 705.592 296.945 705.328C296.297 705.055 295.5 704.919 294.554 704.919H291.435V726H285.107ZM299.847 714.034L306.366 726H299.463L293.071 714.034H299.847ZM317.735 726.371C315.681 726.371 313.908 725.966 312.417 725.156C310.934 724.338 309.792 723.175 308.99 721.666C308.198 720.149 307.801 718.347 307.801 716.259C307.801 714.23 308.202 712.457 309.003 710.94C309.804 709.415 310.934 708.23 312.391 707.386C313.848 706.534 315.566 706.108 317.543 706.108C318.941 706.108 320.219 706.325 321.378 706.76C322.537 707.195 323.539 707.838 324.382 708.69C325.226 709.543 325.882 710.595 326.351 711.848C326.82 713.092 327.054 714.52 327.054 716.131V717.69H309.988V714.06H321.238C321.229 713.395 321.071 712.803 320.765 712.283C320.458 711.763 320.036 711.358 319.499 711.068C318.971 710.77 318.361 710.621 317.671 710.621C316.972 710.621 316.346 710.778 315.792 711.094C315.238 711.401 314.799 711.822 314.475 712.359C314.151 712.888 313.98 713.489 313.963 714.162V717.857C313.963 718.658 314.121 719.361 314.436 719.966C314.752 720.562 315.199 721.027 315.779 721.359C316.358 721.692 317.049 721.858 317.85 721.858C318.404 721.858 318.907 721.781 319.358 721.628C319.81 721.474 320.198 721.249 320.522 720.95C320.846 720.652 321.088 720.286 321.25 719.851L326.99 720.017C326.752 721.304 326.228 722.425 325.418 723.379C324.617 724.325 323.564 725.062 322.26 725.591C320.956 726.111 319.448 726.371 317.735 726.371ZM330.247 733.364V706.364H336.435V709.726H336.626C336.882 709.129 337.244 708.554 337.713 708C338.19 707.446 338.795 706.994 339.528 706.645C340.27 706.287 341.156 706.108 342.188 706.108C343.551 706.108 344.825 706.466 346.01 707.182C347.203 707.898 348.166 709.001 348.899 710.493C349.632 711.984 349.999 713.885 349.999 716.195C349.999 718.419 349.645 720.281 348.938 721.781C348.239 723.281 347.293 724.406 346.099 725.156C344.915 725.906 343.598 726.281 342.149 726.281C341.161 726.281 340.304 726.119 339.58 725.795C338.855 725.472 338.246 725.045 337.751 724.517C337.266 723.989 336.891 723.422 336.626 722.817H336.499V733.364H330.247ZM336.371 716.182C336.371 717.239 336.511 718.159 336.793 718.943C337.082 719.727 337.496 720.337 338.033 720.771C338.578 721.197 339.23 721.411 339.989 721.411C340.756 721.411 341.408 721.197 341.945 720.771C342.482 720.337 342.886 719.727 343.159 718.943C343.44 718.159 343.581 717.239 343.581 716.182C343.581 715.125 343.44 714.209 343.159 713.433C342.886 712.658 342.482 712.057 341.945 711.631C341.416 711.205 340.764 710.991 339.989 710.991C339.222 710.991 338.57 711.2 338.033 711.618C337.496 712.036 337.082 712.632 336.793 713.408C336.511 714.183 336.371 715.108 336.371 716.182ZM362.441 726.371C360.378 726.371 358.605 725.949 357.123 725.105C355.648 724.253 354.51 723.068 353.709 721.551C352.917 720.026 352.52 718.257 352.52 716.246C352.52 714.226 352.917 712.457 353.709 710.94C354.51 709.415 355.648 708.23 357.123 707.386C358.605 706.534 360.378 706.108 362.441 706.108C364.503 706.108 366.272 706.534 367.746 707.386C369.229 708.23 370.367 709.415 371.159 710.94C371.961 712.457 372.361 714.226 372.361 716.246C372.361 718.257 371.961 720.026 371.159 721.551C370.367 723.068 369.229 724.253 367.746 725.105C366.272 725.949 364.503 726.371 362.441 726.371ZM362.479 721.653C363.229 721.653 363.864 721.423 364.384 720.963C364.904 720.503 365.3 719.864 365.573 719.045C365.854 718.227 365.995 717.281 365.995 716.207C365.995 715.116 365.854 714.162 365.573 713.344C365.3 712.526 364.904 711.886 364.384 711.426C363.864 710.966 363.229 710.736 362.479 710.736C361.703 710.736 361.047 710.966 360.51 711.426C359.982 711.886 359.577 712.526 359.296 713.344C359.023 714.162 358.887 715.116 358.887 716.207C358.887 717.281 359.023 718.227 359.296 719.045C359.577 719.864 359.982 720.503 360.51 720.963C361.047 721.423 361.703 721.653 362.479 721.653ZM388.961 726H382.16L390.994 699.818H399.419L408.252 726H401.451L395.302 706.415H395.098L388.961 726ZM388.054 715.696H402.27V720.503H388.054V715.696ZM411.071 726V699.818H421.887C423.847 699.818 425.539 700.202 426.962 700.969C428.394 701.727 429.498 702.788 430.273 704.152C431.049 705.507 431.436 707.084 431.436 708.882C431.436 710.689 431.04 712.27 430.248 713.625C429.463 714.972 428.343 716.016 426.885 716.757C425.428 717.499 423.698 717.869 421.695 717.869H415.022V712.884H420.519C421.473 712.884 422.27 712.717 422.909 712.385C423.557 712.053 424.047 711.588 424.38 710.991C424.712 710.386 424.878 709.683 424.878 708.882C424.878 708.072 424.712 707.374 424.38 706.786C424.047 706.189 423.557 705.729 422.909 705.405C422.262 705.081 421.465 704.919 420.519 704.919H417.4V726H411.071ZM440.884 699.818V726H434.556V699.818H440.884Z" fill="black"/>
<path d="M1582.12 130V103.818H1592.93C1594.89 103.818 1596.59 104.172 1598.01 104.879C1599.44 105.578 1600.54 106.584 1601.32 107.896C1602.1 109.2 1602.48 110.747 1602.48 112.537C1602.48 114.352 1602.09 115.895 1601.29 117.165C1600.5 118.426 1599.38 119.389 1597.92 120.054C1596.46 120.71 1594.74 121.038 1592.74 121.038H1585.9V116.053H1591.57C1592.52 116.053 1593.32 115.929 1593.96 115.682C1594.6 115.426 1595.09 115.043 1595.43 114.531C1595.76 114.011 1595.93 113.347 1595.93 112.537C1595.93 111.727 1595.76 111.058 1595.43 110.53C1595.09 109.993 1594.6 109.592 1593.96 109.328C1593.31 109.055 1592.51 108.919 1591.57 108.919H1588.45V130H1582.12ZM1596.86 118.034L1603.38 130H1596.47L1590.08 118.034H1596.86ZM1614.75 130.371C1612.69 130.371 1610.92 129.966 1609.43 129.156C1607.95 128.338 1606.8 127.175 1606 125.666C1605.21 124.149 1604.81 122.347 1604.81 120.259C1604.81 118.23 1605.21 116.457 1606.01 114.94C1606.82 113.415 1607.95 112.23 1609.4 111.386C1610.86 110.534 1612.58 110.108 1614.55 110.108C1615.95 110.108 1617.23 110.325 1618.39 110.76C1619.55 111.195 1620.55 111.838 1621.39 112.69C1622.24 113.543 1622.89 114.595 1623.36 115.848C1623.83 117.092 1624.07 118.52 1624.07 120.131V121.69H1607V118.06H1618.25C1618.24 117.395 1618.08 116.803 1617.78 116.283C1617.47 115.763 1617.05 115.358 1616.51 115.068C1615.98 114.77 1615.37 114.621 1614.68 114.621C1613.98 114.621 1613.36 114.778 1612.8 115.094C1612.25 115.401 1611.81 115.822 1611.49 116.359C1611.16 116.888 1610.99 117.489 1610.98 118.162V121.857C1610.98 122.658 1611.13 123.361 1611.45 123.966C1611.76 124.562 1612.21 125.027 1612.79 125.359C1613.37 125.692 1614.06 125.858 1614.86 125.858C1615.42 125.858 1615.92 125.781 1616.37 125.628C1616.82 125.474 1617.21 125.249 1617.53 124.95C1617.86 124.652 1618.1 124.286 1618.26 123.851L1624 124.017C1623.76 125.304 1623.24 126.425 1622.43 127.379C1621.63 128.325 1620.58 129.062 1619.27 129.591C1617.97 130.111 1616.46 130.371 1614.75 130.371ZM1627.26 137.364V110.364H1633.45V113.726H1633.64C1633.89 113.129 1634.26 112.554 1634.72 112C1635.2 111.446 1635.81 110.994 1636.54 110.645C1637.28 110.287 1638.17 110.108 1639.2 110.108C1640.56 110.108 1641.84 110.466 1643.02 111.182C1644.21 111.898 1645.18 113.001 1645.91 114.493C1646.64 115.984 1647.01 117.885 1647.01 120.195C1647.01 122.419 1646.66 124.281 1645.95 125.781C1645.25 127.281 1644.3 128.406 1643.11 129.156C1641.93 129.906 1640.61 130.281 1639.16 130.281C1638.17 130.281 1637.32 130.119 1636.59 129.795C1635.87 129.472 1635.26 129.045 1634.76 128.517C1634.28 127.989 1633.9 127.422 1633.64 126.817H1633.51V137.364H1627.26ZM1633.38 120.182C1633.38 121.239 1633.52 122.159 1633.8 122.943C1634.09 123.727 1634.51 124.337 1635.04 124.771C1635.59 125.197 1636.24 125.411 1637 125.411C1637.77 125.411 1638.42 125.197 1638.96 124.771C1639.49 124.337 1639.9 123.727 1640.17 122.943C1640.45 122.159 1640.59 121.239 1640.59 120.182C1640.59 119.125 1640.45 118.209 1640.17 117.433C1639.9 116.658 1639.49 116.057 1638.96 115.631C1638.43 115.205 1637.78 114.991 1637 114.991C1636.23 114.991 1635.58 115.2 1635.04 115.618C1634.51 116.036 1634.09 116.632 1633.8 117.408C1633.52 118.183 1633.38 119.108 1633.38 120.182ZM1659.45 130.371C1657.39 130.371 1655.62 129.949 1654.13 129.105C1652.66 128.253 1651.52 127.068 1650.72 125.551C1649.93 124.026 1649.53 122.257 1649.53 120.246C1649.53 118.226 1649.93 116.457 1650.72 114.94C1651.52 113.415 1652.66 112.23 1654.13 111.386C1655.62 110.534 1657.39 110.108 1659.45 110.108C1661.51 110.108 1663.28 110.534 1664.76 111.386C1666.24 112.23 1667.38 113.415 1668.17 114.94C1668.97 116.457 1669.37 118.226 1669.37 120.246C1669.37 122.257 1668.97 124.026 1668.17 125.551C1667.38 127.068 1666.24 128.253 1664.76 129.105C1663.28 129.949 1661.51 130.371 1659.45 130.371ZM1659.49 125.653C1660.24 125.653 1660.88 125.423 1661.4 124.963C1661.92 124.503 1662.31 123.864 1662.58 123.045C1662.87 122.227 1663.01 121.281 1663.01 120.207C1663.01 119.116 1662.87 118.162 1662.58 117.344C1662.31 116.526 1661.92 115.886 1661.4 115.426C1660.88 114.966 1660.24 114.736 1659.49 114.736C1658.72 114.736 1658.06 114.966 1657.52 115.426C1656.99 115.886 1656.59 116.526 1656.31 117.344C1656.03 118.162 1655.9 119.116 1655.9 120.207C1655.9 121.281 1656.03 122.227 1656.31 123.045C1656.59 123.864 1656.99 124.503 1657.52 124.963C1658.06 125.423 1658.72 125.653 1659.49 125.653ZM1685.97 130H1679.17L1688.01 103.818H1696.43L1705.26 130H1698.46L1692.31 110.415H1692.11L1685.97 130ZM1685.07 119.696H1699.28V124.503H1685.07V119.696ZM1708.08 137.364V110.364H1714.27V113.726H1714.46C1714.72 113.129 1715.08 112.554 1715.55 112C1716.03 111.446 1716.63 110.994 1717.36 110.645C1718.11 110.287 1718.99 110.108 1720.02 110.108C1721.39 110.108 1722.66 110.466 1723.85 111.182C1725.04 111.898 1726 113.001 1726.74 114.493C1727.47 115.984 1727.83 117.885 1727.83 120.195C1727.83 122.419 1727.48 124.281 1726.77 125.781C1726.07 127.281 1725.13 128.406 1723.94 129.156C1722.75 129.906 1721.43 130.281 1719.99 130.281C1719 130.281 1718.14 130.119 1717.42 129.795C1716.69 129.472 1716.08 129.045 1715.59 128.517C1715.1 127.989 1714.73 127.422 1714.46 126.817H1714.33V137.364H1708.08ZM1714.21 120.182C1714.21 121.239 1714.35 122.159 1714.63 122.943C1714.92 123.727 1715.33 124.337 1715.87 124.771C1716.41 125.197 1717.07 125.411 1717.82 125.411C1718.59 125.411 1719.24 125.197 1719.78 124.771C1720.32 124.337 1720.72 123.727 1721 122.943C1721.28 122.159 1721.42 121.239 1721.42 120.182C1721.42 119.125 1721.28 118.209 1721 117.433C1720.72 116.658 1720.32 116.057 1719.78 115.631C1719.25 115.205 1718.6 114.991 1717.82 114.991C1717.06 114.991 1716.41 115.2 1715.87 115.618C1715.33 116.036 1714.92 116.632 1714.63 117.408C1714.35 118.183 1714.21 119.108 1714.21 120.182ZM1731.11 137.364V110.364H1737.3V113.726H1737.49C1737.75 113.129 1738.11 112.554 1738.58 112C1739.05 111.446 1739.66 110.994 1740.39 110.645C1741.13 110.287 1742.02 110.108 1743.05 110.108C1744.41 110.108 1745.69 110.466 1746.87 111.182C1748.07 111.898 1749.03 113.001 1749.76 114.493C1750.5 115.984 1750.86 117.885 1750.86 120.195C1750.86 122.419 1750.51 124.281 1749.8 125.781C1749.1 127.281 1748.16 128.406 1746.96 129.156C1745.78 129.906 1744.46 130.281 1743.01 130.281C1742.02 130.281 1741.17 130.119 1740.44 129.795C1739.72 129.472 1739.11 129.045 1738.61 128.517C1738.13 127.989 1737.75 127.422 1737.49 126.817H1737.36V137.364H1731.11ZM1737.23 120.182C1737.23 121.239 1737.37 122.159 1737.66 122.943C1737.95 123.727 1738.36 124.337 1738.9 124.771C1739.44 125.197 1740.09 125.411 1740.85 125.411C1741.62 125.411 1742.27 125.197 1742.81 124.771C1743.34 124.337 1743.75 123.727 1744.02 122.943C1744.3 122.159 1744.44 121.239 1744.44 120.182C1744.44 119.125 1744.3 118.209 1744.02 117.433C1743.75 116.658 1743.34 116.057 1742.81 115.631C1742.28 115.205 1741.63 114.991 1740.85 114.991C1740.08 114.991 1739.43 115.2 1738.9 115.618C1738.36 116.036 1737.95 116.632 1737.66 117.408C1737.37 118.183 1737.23 119.108 1737.23 120.182ZM1771.28 116.359L1765.54 116.513C1765.48 116.104 1765.32 115.741 1765.06 115.426C1764.79 115.102 1764.45 114.851 1764.02 114.672C1763.6 114.484 1763.12 114.391 1762.56 114.391C1761.84 114.391 1761.22 114.536 1760.71 114.825C1760.21 115.115 1759.96 115.507 1759.97 116.001C1759.96 116.385 1760.11 116.717 1760.43 116.999C1760.75 117.28 1761.33 117.506 1762.15 117.676L1765.94 118.392C1767.9 118.767 1769.36 119.389 1770.31 120.259C1771.27 121.128 1771.76 122.278 1771.77 123.71C1771.76 125.057 1771.36 126.229 1770.57 127.226C1769.78 128.223 1768.71 128.999 1767.34 129.553C1765.98 130.098 1764.42 130.371 1762.66 130.371C1759.86 130.371 1757.65 129.795 1756.03 128.645C1754.42 127.486 1753.5 125.935 1753.27 123.991L1759.44 123.838C1759.58 124.554 1759.93 125.099 1760.5 125.474C1761.08 125.849 1761.8 126.037 1762.69 126.037C1763.49 126.037 1764.14 125.888 1764.65 125.589C1765.15 125.291 1765.4 124.895 1765.41 124.401C1765.4 123.957 1765.21 123.604 1764.83 123.339C1764.44 123.067 1763.84 122.854 1763.02 122.7L1759.6 122.048C1757.63 121.69 1756.16 121.03 1755.2 120.067C1754.24 119.095 1753.76 117.859 1753.77 116.359C1753.76 115.047 1754.11 113.926 1754.82 112.997C1755.52 112.06 1756.53 111.344 1757.83 110.849C1759.14 110.355 1760.67 110.108 1762.45 110.108C1765.11 110.108 1767.2 110.666 1768.74 111.783C1770.27 112.891 1771.12 114.416 1771.28 116.359Z" fill="black"/>
<path d="M1595.46 459V432.818H1606.27C1608.23 432.818 1609.92 433.172 1611.35 433.879C1612.78 434.578 1613.88 435.584 1614.66 436.896C1615.43 438.2 1615.82 439.747 1615.82 441.537C1615.82 443.352 1615.42 444.895 1614.63 446.165C1613.84 447.426 1612.71 448.389 1611.26 449.054C1609.8 449.71 1608.07 450.038 1606.08 450.038H1599.24V445.053H1604.9C1605.86 445.053 1606.66 444.929 1607.29 444.682C1607.94 444.426 1608.43 444.043 1608.76 443.531C1609.1 443.011 1609.26 442.347 1609.26 441.537C1609.26 440.727 1609.1 440.058 1608.76 439.53C1608.43 438.993 1607.94 438.592 1607.29 438.328C1606.65 438.055 1605.85 437.919 1604.9 437.919H1601.78V459H1595.46ZM1610.2 447.034L1616.72 459H1609.81L1603.42 447.034H1610.2ZM1628.08 459.371C1626.03 459.371 1624.26 458.966 1622.77 458.156C1621.28 457.338 1620.14 456.175 1619.34 454.666C1618.55 453.149 1618.15 451.347 1618.15 449.259C1618.15 447.23 1618.55 445.457 1619.35 443.94C1620.15 442.415 1621.28 441.23 1622.74 440.386C1624.2 439.534 1625.92 439.108 1627.89 439.108C1629.29 439.108 1630.57 439.325 1631.73 439.76C1632.89 440.195 1633.89 440.838 1634.73 441.69C1635.58 442.543 1636.23 443.595 1636.7 444.848C1637.17 446.092 1637.4 447.52 1637.4 449.131V450.69H1620.34V447.06H1631.59C1631.58 446.395 1631.42 445.803 1631.11 445.283C1630.81 444.763 1630.39 444.358 1629.85 444.068C1629.32 443.77 1628.71 443.621 1628.02 443.621C1627.32 443.621 1626.7 443.778 1626.14 444.094C1625.59 444.401 1625.15 444.822 1624.82 445.359C1624.5 445.888 1624.33 446.489 1624.31 447.162V450.857C1624.31 451.658 1624.47 452.361 1624.79 452.966C1625.1 453.562 1625.55 454.027 1626.13 454.359C1626.71 454.692 1627.4 454.858 1628.2 454.858C1628.75 454.858 1629.26 454.781 1629.71 454.628C1630.16 454.474 1630.55 454.249 1630.87 453.95C1631.2 453.652 1631.44 453.286 1631.6 452.851L1637.34 453.017C1637.1 454.304 1636.58 455.425 1635.77 456.379C1634.97 457.325 1633.91 458.062 1632.61 458.591C1631.31 459.111 1629.8 459.371 1628.08 459.371ZM1640.6 466.364V439.364H1646.78V442.726H1646.98C1647.23 442.129 1647.59 441.554 1648.06 441C1648.54 440.446 1649.15 439.994 1649.88 439.645C1650.62 439.287 1651.51 439.108 1652.54 439.108C1653.9 439.108 1655.17 439.466 1656.36 440.182C1657.55 440.898 1658.52 442.001 1659.25 443.493C1659.98 444.984 1660.35 446.885 1660.35 449.195C1660.35 451.419 1659.99 453.281 1659.29 454.781C1658.59 456.281 1657.64 457.406 1656.45 458.156C1655.26 458.906 1653.95 459.281 1652.5 459.281C1651.51 459.281 1650.65 459.119 1649.93 458.795C1649.2 458.472 1648.6 458.045 1648.1 457.517C1647.62 456.989 1647.24 456.422 1646.98 455.817H1646.85V466.364H1640.6ZM1646.72 449.182C1646.72 450.239 1646.86 451.159 1647.14 451.943C1647.43 452.727 1647.85 453.337 1648.38 453.771C1648.93 454.197 1649.58 454.411 1650.34 454.411C1651.11 454.411 1651.76 454.197 1652.29 453.771C1652.83 453.337 1653.24 452.727 1653.51 451.943C1653.79 451.159 1653.93 450.239 1653.93 449.182C1653.93 448.125 1653.79 447.209 1653.51 446.433C1653.24 445.658 1652.83 445.057 1652.29 444.631C1651.77 444.205 1651.11 443.991 1650.34 443.991C1649.57 443.991 1648.92 444.2 1648.38 444.618C1647.85 445.036 1647.43 445.632 1647.14 446.408C1646.86 447.183 1646.72 448.108 1646.72 449.182ZM1672.79 459.371C1670.73 459.371 1668.96 458.949 1667.47 458.105C1666 457.253 1664.86 456.068 1664.06 454.551C1663.27 453.026 1662.87 451.257 1662.87 449.246C1662.87 447.226 1663.27 445.457 1664.06 443.94C1664.86 442.415 1666 441.23 1667.47 440.386C1668.96 439.534 1670.73 439.108 1672.79 439.108C1674.85 439.108 1676.62 439.534 1678.1 440.386C1679.58 441.23 1680.72 442.415 1681.51 443.94C1682.31 445.457 1682.71 447.226 1682.71 449.246C1682.71 451.257 1682.31 453.026 1681.51 454.551C1680.72 456.068 1679.58 457.253 1678.1 458.105C1676.62 458.949 1674.85 459.371 1672.79 459.371ZM1672.83 454.653C1673.58 454.653 1674.21 454.423 1674.73 453.963C1675.25 453.503 1675.65 452.864 1675.92 452.045C1676.2 451.227 1676.34 450.281 1676.34 449.207C1676.34 448.116 1676.2 447.162 1675.92 446.344C1675.65 445.526 1675.25 444.886 1674.73 444.426C1674.21 443.966 1673.58 443.736 1672.83 443.736C1672.05 443.736 1671.4 443.966 1670.86 444.426C1670.33 444.886 1669.93 445.526 1669.65 446.344C1669.37 447.162 1669.24 448.116 1669.24 449.207C1669.24 450.281 1669.37 451.227 1669.65 452.045C1669.93 452.864 1670.33 453.503 1670.86 453.963C1671.4 454.423 1672.05 454.653 1672.83 454.653ZM1699.92 459L1692.31 432.818H1699.3L1703.25 449.974H1703.47L1707.98 432.818H1713.68L1718.19 450.013H1718.41L1722.37 432.818H1729.35L1721.75 459H1715.65L1710.93 443.122H1710.73L1706.01 459H1699.92ZM1738.97 459.371C1736.91 459.371 1735.14 458.966 1733.65 458.156C1732.17 457.338 1731.02 456.175 1730.22 454.666C1729.43 453.149 1729.03 451.347 1729.03 449.259C1729.03 447.23 1729.43 445.457 1730.24 443.94C1731.04 442.415 1732.17 441.23 1733.62 440.386C1735.08 439.534 1736.8 439.108 1738.78 439.108C1740.17 439.108 1741.45 439.325 1742.61 439.76C1743.77 440.195 1744.77 440.838 1745.61 441.69C1746.46 442.543 1747.11 443.595 1747.58 444.848C1748.05 446.092 1748.29 447.52 1748.29 449.131V450.69H1731.22V447.06H1742.47C1742.46 446.395 1742.3 445.803 1742 445.283C1741.69 444.763 1741.27 444.358 1740.73 444.068C1740.2 443.77 1739.59 443.621 1738.9 443.621C1738.2 443.621 1737.58 443.778 1737.02 444.094C1736.47 444.401 1736.03 444.822 1735.71 445.359C1735.38 445.888 1735.21 446.489 1735.2 447.162V450.857C1735.2 451.658 1735.35 452.361 1735.67 452.966C1735.98 453.562 1736.43 454.027 1737.01 454.359C1737.59 454.692 1738.28 454.858 1739.08 454.858C1739.64 454.858 1740.14 454.781 1740.59 454.628C1741.04 454.474 1741.43 454.249 1741.75 453.95C1742.08 453.652 1742.32 453.286 1742.48 452.851L1748.22 453.017C1747.98 454.304 1747.46 455.425 1746.65 456.379C1745.85 457.325 1744.8 458.062 1743.49 458.591C1742.19 459.111 1740.68 459.371 1738.97 459.371ZM1751.48 459V432.818H1757.73V442.726H1757.86C1758.11 442.129 1758.48 441.554 1758.95 441C1759.42 440.446 1760.03 439.994 1760.76 439.645C1761.5 439.287 1762.39 439.108 1763.42 439.108C1764.78 439.108 1766.06 439.466 1767.24 440.182C1768.44 440.898 1769.4 442.001 1770.13 443.493C1770.86 444.984 1771.23 446.885 1771.23 449.195C1771.23 451.419 1770.88 453.281 1770.17 454.781C1769.47 456.281 1768.53 457.406 1767.33 458.156C1766.15 458.906 1764.83 459.281 1763.38 459.281C1762.39 459.281 1761.54 459.119 1760.81 458.795C1760.09 458.472 1759.48 458.045 1758.98 457.517C1758.5 456.989 1758.12 456.422 1757.86 455.817H1757.67V459H1751.48ZM1757.6 449.182C1757.6 450.239 1757.74 451.159 1758.03 451.943C1758.31 452.727 1758.73 453.337 1759.27 453.771C1759.81 454.197 1760.46 454.411 1761.22 454.411C1761.99 454.411 1762.64 454.197 1763.18 453.771C1763.71 453.337 1764.12 452.727 1764.39 451.943C1764.67 451.159 1764.81 450.239 1764.81 449.182C1764.81 448.125 1764.67 447.209 1764.39 446.433C1764.12 445.658 1763.71 445.057 1763.18 444.631C1762.65 444.205 1762 443.991 1761.22 443.991C1760.45 443.991 1759.8 444.2 1759.27 444.618C1758.73 445.036 1758.31 445.632 1758.03 446.408C1757.74 447.183 1757.6 448.108 1757.6 449.182Z" fill="black"/>
<path d="M1540.36 748V721.818H1551.17C1553.13 721.818 1554.83 722.172 1556.25 722.879C1557.68 723.578 1558.78 724.584 1559.56 725.896C1560.34 727.2 1560.72 728.747 1560.72 730.537C1560.72 732.352 1560.33 733.895 1559.53 735.165C1558.74 736.426 1557.62 737.389 1556.16 738.054C1554.7 738.71 1552.98 739.038 1550.98 739.038H1544.14V734.053H1549.81C1550.76 734.053 1551.56 733.929 1552.2 733.682C1552.84 733.426 1553.33 733.043 1553.67 732.531C1554 732.011 1554.17 731.347 1554.17 730.537C1554.17 729.727 1554 729.058 1553.67 728.53C1553.33 727.993 1552.84 727.592 1552.2 727.328C1551.55 727.055 1550.75 726.919 1549.81 726.919H1546.69V748H1540.36ZM1555.1 736.034L1561.62 748H1554.72L1548.32 736.034H1555.1ZM1572.99 748.371C1570.93 748.371 1569.16 747.966 1567.67 747.156C1566.19 746.338 1565.04 745.175 1564.24 743.666C1563.45 742.149 1563.05 740.347 1563.05 738.259C1563.05 736.23 1563.45 734.457 1564.26 732.94C1565.06 731.415 1566.19 730.23 1567.64 729.386C1569.1 728.534 1570.82 728.108 1572.79 728.108C1574.19 728.108 1575.47 728.325 1576.63 728.76C1577.79 729.195 1578.79 729.838 1579.63 730.69C1580.48 731.543 1581.13 732.595 1581.6 733.848C1582.07 735.092 1582.31 736.52 1582.31 738.131V739.69H1565.24V736.06H1576.49C1576.48 735.395 1576.32 734.803 1576.02 734.283C1575.71 733.763 1575.29 733.358 1574.75 733.068C1574.22 732.77 1573.61 732.621 1572.92 732.621C1572.22 732.621 1571.6 732.778 1571.04 733.094C1570.49 733.401 1570.05 733.822 1569.73 734.359C1569.4 734.888 1569.23 735.489 1569.22 736.162V739.857C1569.22 740.658 1569.37 741.361 1569.69 741.966C1570 742.562 1570.45 743.027 1571.03 743.359C1571.61 743.692 1572.3 743.858 1573.1 743.858C1573.66 743.858 1574.16 743.781 1574.61 743.628C1575.06 743.474 1575.45 743.249 1575.77 742.95C1576.1 742.652 1576.34 742.286 1576.5 741.851L1582.24 742.017C1582 743.304 1581.48 744.425 1580.67 745.379C1579.87 746.325 1578.82 747.062 1577.51 747.591C1576.21 748.111 1574.7 748.371 1572.99 748.371ZM1585.5 755.364V728.364H1591.69V731.726H1591.88C1592.13 731.129 1592.5 730.554 1592.97 730C1593.44 729.446 1594.05 728.994 1594.78 728.645C1595.52 728.287 1596.41 728.108 1597.44 728.108C1598.8 728.108 1600.08 728.466 1601.26 729.182C1602.46 729.898 1603.42 731.001 1604.15 732.493C1604.88 733.984 1605.25 735.885 1605.25 738.195C1605.25 740.419 1604.9 742.281 1604.19 743.781C1603.49 745.281 1602.54 746.406 1601.35 747.156C1600.17 747.906 1598.85 748.281 1597.4 748.281C1596.41 748.281 1595.56 748.119 1594.83 747.795C1594.11 747.472 1593.5 747.045 1593 746.517C1592.52 745.989 1592.14 745.422 1591.88 744.817H1591.75V755.364H1585.5ZM1591.62 738.182C1591.62 739.239 1591.76 740.159 1592.04 740.943C1592.33 741.727 1592.75 742.337 1593.28 742.771C1593.83 743.197 1594.48 743.411 1595.24 743.411C1596.01 743.411 1596.66 743.197 1597.2 742.771C1597.73 742.337 1598.14 741.727 1598.41 740.943C1598.69 740.159 1598.83 739.239 1598.83 738.182C1598.83 737.125 1598.69 736.209 1598.41 735.433C1598.14 734.658 1597.73 734.057 1597.2 733.631C1596.67 733.205 1596.02 732.991 1595.24 732.991C1594.47 732.991 1593.82 733.2 1593.28 733.618C1592.75 734.036 1592.33 734.632 1592.04 735.408C1591.76 736.183 1591.62 737.108 1591.62 738.182ZM1617.69 748.371C1615.63 748.371 1613.86 747.949 1612.37 747.105C1610.9 746.253 1609.76 745.068 1608.96 743.551C1608.17 742.026 1607.77 740.257 1607.77 738.246C1607.77 736.226 1608.17 734.457 1608.96 732.94C1609.76 731.415 1610.9 730.23 1612.37 729.386C1613.86 728.534 1615.63 728.108 1617.69 728.108C1619.76 728.108 1621.52 728.534 1623 729.386C1624.48 730.23 1625.62 731.415 1626.41 732.94C1627.21 734.457 1627.61 736.226 1627.61 738.246C1627.61 740.257 1627.21 742.026 1626.41 743.551C1625.62 745.068 1624.48 746.253 1623 747.105C1621.52 747.949 1619.76 748.371 1617.69 748.371ZM1617.73 743.653C1618.48 743.653 1619.12 743.423 1619.64 742.963C1620.16 742.503 1620.55 741.864 1620.82 741.045C1621.11 740.227 1621.25 739.281 1621.25 738.207C1621.25 737.116 1621.11 736.162 1620.82 735.344C1620.55 734.526 1620.16 733.886 1619.64 733.426C1619.12 732.966 1618.48 732.736 1617.73 732.736C1616.96 732.736 1616.3 732.966 1615.76 733.426C1615.23 733.886 1614.83 734.526 1614.55 735.344C1614.28 736.162 1614.14 737.116 1614.14 738.207C1614.14 739.281 1614.28 740.227 1614.55 741.045C1614.83 741.864 1615.23 742.503 1615.76 742.963C1616.3 743.423 1616.96 743.653 1617.73 743.653ZM1652.7 729.668C1652.62 728.73 1652.24 728.001 1651.56 727.482C1650.9 726.953 1649.95 726.689 1648.71 726.689C1647.9 726.689 1647.21 726.795 1646.67 727.009C1646.12 727.222 1645.71 727.516 1645.44 727.891C1645.17 728.257 1645.03 728.679 1645.02 729.156C1645 729.548 1645.08 729.893 1645.25 730.192C1645.43 730.49 1645.68 730.754 1646.02 730.984C1646.36 731.206 1646.77 731.402 1647.24 731.572C1647.72 731.743 1648.26 731.892 1648.85 732.02L1651.1 732.531C1652.4 732.812 1653.54 733.188 1654.53 733.656C1655.53 734.125 1656.36 734.683 1657.04 735.331C1657.72 735.979 1658.23 736.724 1658.58 737.568C1658.93 738.412 1659.11 739.358 1659.12 740.406C1659.11 742.06 1658.69 743.479 1657.87 744.663C1657.04 745.848 1655.85 746.756 1654.3 747.386C1652.76 748.017 1650.9 748.332 1648.71 748.332C1646.52 748.332 1644.61 748.004 1642.99 747.348C1641.36 746.692 1640.09 745.695 1639.19 744.357C1638.29 743.018 1637.82 741.327 1637.8 739.281H1643.86C1643.91 740.125 1644.13 740.828 1644.53 741.391C1644.93 741.953 1645.48 742.379 1646.18 742.669C1646.89 742.959 1647.71 743.104 1648.64 743.104C1649.49 743.104 1650.21 742.989 1650.81 742.759C1651.41 742.528 1651.88 742.209 1652.2 741.8C1652.53 741.391 1652.69 740.922 1652.7 740.393C1652.69 739.899 1652.54 739.477 1652.24 739.128C1651.94 738.77 1651.48 738.463 1650.86 738.207C1650.25 737.943 1649.46 737.7 1648.51 737.479L1645.77 736.839C1643.51 736.32 1641.72 735.48 1640.42 734.321C1639.11 733.153 1638.46 731.577 1638.47 729.591C1638.46 727.972 1638.9 726.553 1639.78 725.334C1640.66 724.115 1641.87 723.165 1643.42 722.483C1644.97 721.801 1646.74 721.46 1648.73 721.46C1650.75 721.46 1652.51 721.805 1654.01 722.496C1655.51 723.178 1656.67 724.136 1657.5 725.372C1658.32 726.608 1658.74 728.04 1658.76 729.668H1652.7ZM1671.49 748.371C1669.44 748.371 1667.67 747.966 1666.18 747.156C1664.69 746.338 1663.55 745.175 1662.75 743.666C1661.96 742.149 1661.56 740.347 1661.56 738.259C1661.56 736.23 1661.96 734.457 1662.76 732.94C1663.56 731.415 1664.69 730.23 1666.15 729.386C1667.61 728.534 1669.33 728.108 1671.3 728.108C1672.7 728.108 1673.98 728.325 1675.14 728.76C1676.3 729.195 1677.3 729.838 1678.14 730.69C1678.99 731.543 1679.64 732.595 1680.11 733.848C1680.58 735.092 1680.81 736.52 1680.81 738.131V739.69H1663.75V736.06H1675C1674.99 735.395 1674.83 734.803 1674.52 734.283C1674.22 733.763 1673.8 733.358 1673.26 733.068C1672.73 732.77 1672.12 732.621 1671.43 732.621C1670.73 732.621 1670.11 732.778 1669.55 733.094C1669 733.401 1668.56 733.822 1668.23 734.359C1667.91 734.888 1667.74 735.489 1667.72 736.162V739.857C1667.72 740.658 1667.88 741.361 1668.2 741.966C1668.51 742.562 1668.96 743.027 1669.54 743.359C1670.12 743.692 1670.81 743.858 1671.61 743.858C1672.16 743.858 1672.67 743.781 1673.12 743.628C1673.57 743.474 1673.96 743.249 1674.28 742.95C1674.61 742.652 1674.85 742.286 1675.01 741.851L1680.75 742.017C1680.51 743.304 1679.99 744.425 1679.18 745.379C1678.38 746.325 1677.32 747.062 1676.02 747.591C1674.72 748.111 1673.21 748.371 1671.49 748.371ZM1684.01 748V728.364H1690.08V731.943H1690.28C1690.64 730.648 1691.23 729.685 1692.04 729.054C1692.84 728.415 1693.79 728.095 1694.86 728.095C1695.15 728.095 1695.45 728.116 1695.76 728.159C1696.06 728.193 1696.35 728.249 1696.61 728.325V733.759C1696.31 733.656 1695.92 733.575 1695.44 733.516C1694.96 733.456 1694.53 733.426 1694.16 733.426C1693.42 733.426 1692.75 733.592 1692.15 733.925C1691.56 734.249 1691.1 734.705 1690.76 735.293C1690.42 735.872 1690.26 736.554 1690.26 737.338V748H1684.01ZM1718.81 728.364L1712.07 748H1704.91L1698.18 728.364H1704.77L1708.39 741.889H1708.59L1712.22 728.364H1718.81ZM1721.2 748V728.364H1727.45V748H1721.2ZM1724.33 726.075C1723.46 726.075 1722.7 725.786 1722.07 725.206C1721.44 724.618 1721.13 723.911 1721.13 723.084C1721.13 722.266 1721.44 721.567 1722.07 720.987C1722.7 720.399 1723.46 720.105 1724.33 720.105C1725.22 720.105 1725.97 720.399 1726.6 720.987C1727.23 721.567 1727.54 722.266 1727.54 723.084C1727.54 723.911 1727.23 724.618 1726.6 725.206C1725.97 725.786 1725.22 726.075 1724.33 726.075ZM1740.6 748.371C1738.53 748.371 1736.75 747.945 1735.27 747.092C1733.79 746.24 1732.66 745.055 1731.87 743.538C1731.07 742.013 1730.68 740.249 1730.68 738.246C1730.68 736.234 1731.07 734.47 1731.87 732.953C1732.67 731.428 1733.81 730.239 1735.28 729.386C1736.76 728.534 1738.53 728.108 1740.59 728.108C1742.4 728.108 1743.98 728.436 1745.33 729.092C1746.68 729.749 1747.74 730.678 1748.5 731.879C1749.27 733.072 1749.67 734.474 1749.71 736.085H1743.87C1743.75 735.08 1743.41 734.291 1742.85 733.72C1742.29 733.149 1741.57 732.864 1740.68 732.864C1739.95 732.864 1739.32 733.068 1738.77 733.477C1738.23 733.878 1737.8 734.474 1737.49 735.267C1737.19 736.051 1737.04 737.023 1737.04 738.182C1737.04 739.341 1737.19 740.321 1737.49 741.122C1737.8 741.915 1738.23 742.516 1738.77 742.925C1739.32 743.325 1739.95 743.526 1740.68 743.526C1741.26 743.526 1741.77 743.402 1742.21 743.155C1742.66 742.908 1743.03 742.545 1743.32 742.068C1743.61 741.582 1743.79 740.994 1743.87 740.304H1749.71C1749.65 741.923 1749.25 743.338 1748.5 744.548C1747.76 745.759 1746.71 746.7 1745.37 747.374C1744.03 748.038 1742.44 748.371 1740.6 748.371ZM1762.09 748.371C1760.04 748.371 1758.27 747.966 1756.77 747.156C1755.29 746.338 1754.15 745.175 1753.35 743.666C1752.56 742.149 1752.16 740.347 1752.16 738.259C1752.16 736.23 1752.56 734.457 1753.36 732.94C1754.16 731.415 1755.29 730.23 1756.75 729.386C1758.21 728.534 1759.92 728.108 1761.9 728.108C1763.3 728.108 1764.58 728.325 1765.74 728.76C1766.89 729.195 1767.9 729.838 1768.74 730.69C1769.58 731.543 1770.24 732.595 1770.71 733.848C1771.18 735.092 1771.41 736.52 1771.41 738.131V739.69H1754.34V736.06H1765.59C1765.59 735.395 1765.43 734.803 1765.12 734.283C1764.82 733.763 1764.39 733.358 1763.86 733.068C1763.33 732.77 1762.72 732.621 1762.03 732.621C1761.33 732.621 1760.7 732.778 1760.15 733.094C1759.59 733.401 1759.16 733.822 1758.83 734.359C1758.51 734.888 1758.34 735.489 1758.32 736.162V739.857C1758.32 740.658 1758.48 741.361 1758.79 741.966C1759.11 742.562 1759.56 743.027 1760.14 743.359C1760.72 743.692 1761.41 743.858 1762.21 743.858C1762.76 743.858 1763.26 743.781 1763.72 743.628C1764.17 743.474 1764.56 743.249 1764.88 742.95C1765.2 742.652 1765.45 742.286 1765.61 741.851L1771.35 742.017C1771.11 743.304 1770.59 744.425 1769.78 745.379C1768.97 746.325 1767.92 747.062 1766.62 747.591C1765.31 748.111 1763.81 748.371 1762.09 748.371Z" fill="black"/>
<path d="M803.386 841V814.818H814.201C816.161 814.818 817.853 815.172 819.276 815.879C820.708 816.578 821.812 817.584 822.588 818.896C823.363 820.2 823.751 821.747 823.751 823.537C823.751 825.352 823.355 826.895 822.562 828.165C821.769 829.426 820.644 830.389 819.187 831.054C817.73 831.71 816.004 832.038 814.009 832.038H807.17V827.053H812.833C813.788 827.053 814.585 826.929 815.224 826.682C815.872 826.426 816.362 826.043 816.694 825.531C817.026 825.011 817.193 824.347 817.193 823.537C817.193 822.727 817.026 822.058 816.694 821.53C816.362 820.993 815.872 820.592 815.224 820.328C814.576 820.055 813.779 819.919 812.833 819.919H809.714V841H803.386ZM818.126 829.034L824.646 841H817.742L811.35 829.034H818.126ZM836.014 841.371C833.96 841.371 832.187 840.966 830.696 840.156C829.213 839.338 828.071 838.175 827.27 836.666C826.477 835.149 826.081 833.347 826.081 831.259C826.081 829.23 826.481 827.457 827.282 825.94C828.084 824.415 829.213 823.23 830.67 822.386C832.128 821.534 833.845 821.108 835.822 821.108C837.22 821.108 838.498 821.325 839.657 821.76C840.817 822.195 841.818 822.838 842.662 823.69C843.506 824.543 844.162 825.595 844.631 826.848C845.099 828.092 845.334 829.52 845.334 831.131V832.69H828.267V829.06H839.517C839.508 828.395 839.351 827.803 839.044 827.283C838.737 826.763 838.315 826.358 837.778 826.068C837.25 825.77 836.64 825.621 835.95 825.621C835.251 825.621 834.625 825.778 834.071 826.094C833.517 826.401 833.078 826.822 832.754 827.359C832.43 827.888 832.26 828.489 832.243 829.162V832.857C832.243 833.658 832.4 834.361 832.716 834.966C833.031 835.562 833.479 836.027 834.058 836.359C834.638 836.692 835.328 836.858 836.129 836.858C836.683 836.858 837.186 836.781 837.638 836.628C838.089 836.474 838.477 836.249 838.801 835.95C839.125 835.652 839.368 835.286 839.53 834.851L845.27 835.017C845.031 836.304 844.507 837.425 843.697 838.379C842.896 839.325 841.844 840.062 840.54 840.591C839.236 841.111 837.727 841.371 836.014 841.371ZM848.526 848.364V821.364H854.714V824.726H854.906C855.161 824.129 855.524 823.554 855.992 823C856.47 822.446 857.075 821.994 857.808 821.645C858.549 821.287 859.436 821.108 860.467 821.108C861.83 821.108 863.105 821.466 864.289 822.182C865.482 822.898 866.445 824.001 867.178 825.493C867.911 826.984 868.278 828.885 868.278 831.195C868.278 833.419 867.924 835.281 867.217 836.781C866.518 838.281 865.572 839.406 864.379 840.156C863.194 840.906 861.877 841.281 860.428 841.281C859.44 841.281 858.583 841.119 857.859 840.795C857.134 840.472 856.525 840.045 856.031 839.517C855.545 838.989 855.17 838.422 854.906 837.817H854.778V848.364H848.526ZM854.65 831.182C854.65 832.239 854.791 833.159 855.072 833.943C855.362 834.727 855.775 835.337 856.312 835.771C856.857 836.197 857.509 836.411 858.268 836.411C859.035 836.411 859.687 836.197 860.224 835.771C860.761 835.337 861.166 834.727 861.438 833.943C861.72 833.159 861.86 832.239 861.86 831.182C861.86 830.125 861.72 829.209 861.438 828.433C861.166 827.658 860.761 827.057 860.224 826.631C859.695 826.205 859.044 825.991 858.268 825.991C857.501 825.991 856.849 826.2 856.312 826.618C855.775 827.036 855.362 827.632 855.072 828.408C854.791 829.183 854.65 830.108 854.65 831.182ZM880.72 841.371C878.657 841.371 876.885 840.949 875.402 840.105C873.927 839.253 872.79 838.068 871.988 836.551C871.196 835.026 870.8 833.257 870.8 831.246C870.8 829.226 871.196 827.457 871.988 825.94C872.79 824.415 873.927 823.23 875.402 822.386C876.885 821.534 878.657 821.108 880.72 821.108C882.782 821.108 884.551 821.534 886.025 822.386C887.508 823.23 888.646 824.415 889.439 825.94C890.24 827.457 890.64 829.226 890.64 831.246C890.64 833.257 890.24 835.026 889.439 836.551C888.646 838.068 887.508 839.253 886.025 840.105C884.551 840.949 882.782 841.371 880.72 841.371ZM880.758 836.653C881.508 836.653 882.143 836.423 882.663 835.963C883.183 835.503 883.579 834.864 883.852 834.045C884.133 833.227 884.274 832.281 884.274 831.207C884.274 830.116 884.133 829.162 883.852 828.344C883.579 827.526 883.183 826.886 882.663 826.426C882.143 825.966 881.508 825.736 880.758 825.736C879.983 825.736 879.327 825.966 878.79 826.426C878.261 826.886 877.856 827.526 877.575 828.344C877.302 829.162 877.166 830.116 877.166 831.207C877.166 832.281 877.302 833.227 877.575 834.045C877.856 834.864 878.261 835.503 878.79 835.963C879.327 836.423 879.983 836.653 880.758 836.653ZM926.289 827.909C926.289 830.79 925.735 833.232 924.627 835.234C923.519 837.237 922.019 838.759 920.127 839.798C918.243 840.838 916.13 841.358 913.786 841.358C911.434 841.358 909.316 840.834 907.432 839.786C905.549 838.737 904.053 837.216 902.945 835.222C901.846 833.219 901.296 830.781 901.296 827.909C901.296 825.028 901.846 822.587 902.945 820.584C904.053 818.581 905.549 817.06 907.432 816.02C909.316 814.98 911.434 814.46 913.786 814.46C916.13 814.46 918.243 814.98 920.127 816.02C922.019 817.06 923.519 818.581 924.627 820.584C925.735 822.587 926.289 825.028 926.289 827.909ZM919.82 827.909C919.82 826.205 919.577 824.764 919.091 823.588C918.614 822.412 917.924 821.521 917.02 820.916C916.126 820.311 915.047 820.009 913.786 820.009C912.533 820.009 911.455 820.311 910.552 820.916C909.648 821.521 908.954 822.412 908.468 823.588C907.991 824.764 907.752 826.205 907.752 827.909C907.752 829.614 907.991 831.054 908.468 832.23C908.954 833.406 909.648 834.297 910.552 834.902C911.455 835.507 912.533 835.81 913.786 835.81C915.047 835.81 916.126 835.507 917.02 834.902C917.924 834.297 918.614 833.406 919.091 832.23C919.577 831.054 919.82 829.614 919.82 827.909ZM929.983 848.364V821.364H936.171V824.726H936.363C936.618 824.129 936.981 823.554 937.449 823C937.927 822.446 938.532 821.994 939.265 821.645C940.006 821.287 940.893 821.108 941.924 821.108C943.287 821.108 944.562 821.466 945.746 822.182C946.939 822.898 947.903 824.001 948.635 825.493C949.368 826.984 949.735 828.885 949.735 831.195C949.735 833.419 949.381 835.281 948.674 836.781C947.975 838.281 947.029 839.406 945.836 840.156C944.651 840.906 943.334 841.281 941.885 841.281C940.897 841.281 940.04 841.119 939.316 840.795C938.591 840.472 937.982 840.045 937.488 839.517C937.002 838.989 936.627 838.422 936.363 837.817H936.235V848.364H929.983ZM936.107 831.182C936.107 832.239 936.248 833.159 936.529 833.943C936.819 834.727 937.232 835.337 937.769 835.771C938.314 836.197 938.966 836.411 939.725 836.411C940.492 836.411 941.144 836.197 941.681 835.771C942.218 835.337 942.623 834.727 942.895 833.943C943.177 833.159 943.317 832.239 943.317 831.182C943.317 830.125 943.177 829.209 942.895 828.433C942.623 827.658 942.218 827.057 941.681 826.631C941.153 826.205 940.501 825.991 939.725 825.991C938.958 825.991 938.306 826.2 937.769 826.618C937.232 827.036 936.819 827.632 936.529 828.408C936.248 829.183 936.107 830.108 936.107 831.182ZM962.19 841.371C960.136 841.371 958.363 840.966 956.872 840.156C955.389 839.338 954.247 838.175 953.445 836.666C952.653 835.149 952.257 833.347 952.257 831.259C952.257 829.23 952.657 827.457 953.458 825.94C954.259 824.415 955.389 823.23 956.846 822.386C958.303 821.534 960.021 821.108 961.998 821.108C963.396 821.108 964.674 821.325 965.833 821.76C966.992 822.195 967.994 822.838 968.838 823.69C969.681 824.543 970.338 825.595 970.806 826.848C971.275 828.092 971.509 829.52 971.509 831.131V832.69H954.443V829.06H965.693C965.684 828.395 965.526 827.803 965.22 827.283C964.913 826.763 964.491 826.358 963.954 826.068C963.426 825.77 962.816 825.621 962.126 825.621C961.427 825.621 960.801 825.778 960.247 826.094C959.693 826.401 959.254 826.822 958.93 827.359C958.606 827.888 958.436 828.489 958.419 829.162V832.857C958.419 833.658 958.576 834.361 958.892 834.966C959.207 835.562 959.654 836.027 960.234 836.359C960.813 836.692 961.504 836.858 962.305 836.858C962.859 836.858 963.362 836.781 963.813 836.628C964.265 836.474 964.653 836.249 964.977 835.95C965.301 835.652 965.544 835.286 965.705 834.851L971.445 835.017C971.207 836.304 970.683 837.425 969.873 838.379C969.072 839.325 968.019 840.062 966.715 840.591C965.411 841.111 963.903 841.371 962.19 841.371ZM980.954 829.801V841H974.702V821.364H980.647V824.969H980.864C981.299 823.767 982.04 822.825 983.089 822.143C984.137 821.453 985.385 821.108 986.834 821.108C988.215 821.108 989.412 821.419 990.427 822.041C991.449 822.655 992.242 823.516 992.805 824.624C993.376 825.723 993.657 827.01 993.648 828.484V841H987.397V829.712C987.405 828.621 987.128 827.768 986.566 827.155C986.012 826.541 985.241 826.234 984.252 826.234C983.596 826.234 983.016 826.379 982.513 826.669C982.019 826.95 981.635 827.355 981.363 827.884C981.099 828.412 980.962 829.051 980.954 829.801ZM1003.18 841H996.381L1005.21 814.818H1013.64L1022.47 841H1015.67L1009.52 821.415H1009.32L1003.18 841ZM1002.27 830.696H1016.49V835.503H1002.27V830.696ZM1025.29 841V814.818H1036.11C1038.07 814.818 1039.76 815.202 1041.18 815.969C1042.61 816.727 1043.72 817.788 1044.49 819.152C1045.27 820.507 1045.66 822.084 1045.66 823.882C1045.66 825.689 1045.26 827.27 1044.47 828.625C1043.68 829.972 1042.56 831.016 1041.11 831.757C1039.65 832.499 1037.92 832.869 1035.92 832.869H1029.24V827.884H1034.74C1035.69 827.884 1036.49 827.717 1037.13 827.385C1037.78 827.053 1038.27 826.588 1038.6 825.991C1038.93 825.386 1039.1 824.683 1039.1 823.882C1039.1 823.072 1038.93 822.374 1038.6 821.786C1038.27 821.189 1037.78 820.729 1037.13 820.405C1036.48 820.081 1035.69 819.919 1034.74 819.919H1031.62V841H1025.29ZM1055.1 814.818V841H1048.78V814.818H1055.1ZM1073.98 841.281C1072.53 841.281 1071.22 840.906 1070.03 840.156C1068.85 839.406 1067.9 838.281 1067.2 836.781C1066.49 835.281 1066.13 833.419 1066.13 831.195C1066.13 828.885 1066.5 826.984 1067.23 825.493C1067.97 824.001 1068.93 822.898 1070.11 822.182C1071.3 821.466 1072.59 821.108 1073.96 821.108C1074.99 821.108 1075.87 821.287 1076.6 821.645C1077.34 821.994 1077.94 822.446 1078.42 823C1078.9 823.554 1079.26 824.129 1079.51 824.726H1079.63V814.818H1085.89V841H1079.7V837.817H1079.51C1079.24 838.422 1078.87 838.989 1078.38 839.517C1077.9 840.045 1077.29 840.472 1076.55 840.795C1075.83 841.119 1074.97 841.281 1073.98 841.281ZM1076.16 836.411C1076.92 836.411 1077.56 836.197 1078.1 835.771C1078.64 835.337 1079.05 834.727 1079.34 833.943C1079.63 833.159 1079.77 832.239 1079.77 831.182C1079.77 830.108 1079.63 829.183 1079.34 828.408C1079.06 827.632 1078.65 827.036 1078.1 826.618C1077.56 826.2 1076.92 825.991 1076.16 825.991C1075.38 825.991 1074.72 826.205 1074.19 826.631C1073.65 827.057 1073.24 827.658 1072.96 828.433C1072.69 829.209 1072.55 830.125 1072.55 831.182C1072.55 832.239 1072.69 833.159 1072.97 833.943C1073.25 834.727 1073.66 835.337 1074.19 835.771C1074.72 836.197 1075.38 836.411 1076.16 836.411ZM1099.01 841.371C1096.94 841.371 1095.17 840.949 1093.69 840.105C1092.21 839.253 1091.07 838.068 1090.27 836.551C1089.48 835.026 1089.08 833.257 1089.08 831.246C1089.08 829.226 1089.48 827.457 1090.27 825.94C1091.07 824.415 1092.21 823.23 1093.69 822.386C1095.17 821.534 1096.94 821.108 1099.01 821.108C1101.07 821.108 1102.84 821.534 1104.31 822.386C1105.79 823.23 1106.93 824.415 1107.72 825.94C1108.53 827.457 1108.93 829.226 1108.93 831.246C1108.93 833.257 1108.53 835.026 1107.72 836.551C1106.93 838.068 1105.79 839.253 1104.31 840.105C1102.84 840.949 1101.07 841.371 1099.01 841.371ZM1099.04 836.653C1099.79 836.653 1100.43 836.423 1100.95 835.963C1101.47 835.503 1101.86 834.864 1102.14 834.045C1102.42 833.227 1102.56 832.281 1102.56 831.207C1102.56 830.116 1102.42 829.162 1102.14 828.344C1101.86 827.526 1101.47 826.886 1100.95 826.426C1100.43 825.966 1099.79 825.736 1099.04 825.736C1098.27 825.736 1097.61 825.966 1097.07 826.426C1096.55 826.886 1096.14 827.526 1095.86 828.344C1095.59 829.162 1095.45 830.116 1095.45 831.207C1095.45 832.281 1095.59 833.227 1095.86 834.045C1096.14 834.864 1096.55 835.503 1097.07 835.963C1097.61 836.423 1098.27 836.653 1099.04 836.653ZM1121.29 841.371C1119.22 841.371 1117.45 840.945 1115.96 840.092C1114.49 839.24 1113.36 838.055 1112.56 836.538C1111.77 835.013 1111.37 833.249 1111.37 831.246C1111.37 829.234 1111.77 827.47 1112.56 825.953C1113.36 824.428 1114.5 823.239 1115.98 822.386C1117.46 821.534 1119.23 821.108 1121.28 821.108C1123.1 821.108 1124.68 821.436 1126.02 822.092C1127.38 822.749 1128.44 823.678 1129.19 824.879C1129.96 826.072 1130.37 827.474 1130.41 829.085H1124.57C1124.45 828.08 1124.11 827.291 1123.54 826.72C1122.99 826.149 1122.27 825.864 1121.37 825.864C1120.65 825.864 1120.01 826.068 1119.47 826.477C1118.92 826.878 1118.49 827.474 1118.19 828.267C1117.89 829.051 1117.74 830.023 1117.74 831.182C1117.74 832.341 1117.89 833.321 1118.19 834.122C1118.49 834.915 1118.92 835.516 1119.47 835.925C1120.01 836.325 1120.65 836.526 1121.37 836.526C1121.95 836.526 1122.46 836.402 1122.91 836.155C1123.36 835.908 1123.73 835.545 1124.02 835.068C1124.31 834.582 1124.49 833.994 1124.57 833.304H1130.41C1130.35 834.923 1129.94 836.338 1129.19 837.548C1128.45 838.759 1127.41 839.7 1126.06 840.374C1124.72 841.038 1123.14 841.371 1121.29 841.371ZM1137.12 841.371C1136.2 841.371 1135.42 841.047 1134.76 840.399C1134.11 839.751 1133.79 838.967 1133.8 838.047C1133.79 837.143 1134.11 836.372 1134.76 835.733C1135.42 835.085 1136.2 834.761 1137.12 834.761C1137.99 834.761 1138.76 835.085 1139.43 835.733C1140.1 836.372 1140.44 837.143 1140.45 838.047C1140.44 838.661 1140.28 839.219 1139.96 839.722C1139.66 840.224 1139.25 840.625 1138.75 840.923C1138.25 841.222 1137.71 841.371 1137.12 841.371Z" fill="black"/>
<path d="M698.849 766.175C697.562 766.166 696.578 766.584 695.896 767.428C695.214 768.263 694.874 769.431 694.874 770.931C694.874 772.004 695.044 772.963 695.385 773.807C695.717 774.642 696.178 775.324 696.766 775.852C697.345 776.372 698.006 776.692 698.747 776.811C699.369 776.922 699.906 776.867 700.358 776.645C700.81 776.415 701.189 776.087 701.496 775.661C701.794 775.226 702.045 774.749 702.25 774.229C702.446 773.709 702.608 773.206 702.736 772.72L703.401 770.266C703.605 769.473 703.882 768.668 704.232 767.85C704.581 767.031 705.041 766.294 705.612 765.638C706.183 764.982 706.891 764.492 707.734 764.168C708.578 763.844 709.588 763.78 710.764 763.976C712.247 764.232 713.564 764.833 714.714 765.779C715.865 766.725 716.773 767.973 717.437 769.524C718.102 771.075 718.435 772.874 718.435 774.919C718.435 776.879 718.124 778.529 717.501 779.867C716.879 781.196 715.997 782.172 714.855 782.794C713.705 783.416 712.341 783.638 710.764 783.459L710.764 779.483C711.71 779.577 712.499 779.406 713.129 778.972C713.751 778.529 714.216 777.906 714.523 777.105C714.821 776.304 714.97 775.396 714.97 774.382C714.97 773.257 714.795 772.23 714.446 771.301C714.088 770.372 713.594 769.605 712.963 769C712.324 768.395 711.578 768.024 710.726 767.888C709.95 767.752 709.315 767.862 708.821 768.22C708.327 768.57 707.918 769.098 707.594 769.806C707.27 770.504 706.984 771.301 706.737 772.196L705.893 775.149C705.322 777.152 704.483 778.669 703.375 779.7C702.267 780.732 700.801 781.102 698.977 780.813C697.469 780.557 696.152 779.926 695.027 778.921C693.902 777.915 693.028 776.662 692.406 775.162C691.776 773.662 691.46 772.034 691.46 770.279C691.46 768.506 691.776 766.997 692.406 765.753C693.037 764.509 693.906 763.588 695.014 762.992C696.122 762.395 697.401 762.186 698.849 762.365L698.849 766.175ZM709.857 746.97L698.364 745.052L698.364 741.217L718 744.49L718 748.248L714.599 747.673L714.599 747.878C715.648 748.491 716.521 749.361 717.22 750.486C717.911 751.602 718.256 752.898 718.256 754.372C718.256 755.633 717.979 756.703 717.425 757.581C716.862 758.45 716.031 759.068 714.932 759.434C713.832 759.801 712.473 759.852 710.854 759.588L698.364 757.491L698.364 753.669L710.393 755.676C711.732 755.889 712.797 755.689 713.589 755.075C714.382 754.461 714.778 753.567 714.778 752.39C714.778 751.675 714.599 750.933 714.241 750.166C713.884 749.399 713.342 748.721 712.618 748.133C711.893 747.537 710.973 747.149 709.857 746.97ZM718 739.047L691.818 734.7L691.818 730.878L701.547 732.476L701.547 732.246C701.138 731.956 700.665 731.56 700.128 731.057C699.591 730.546 699.122 729.885 698.722 729.075C698.312 728.266 698.108 727.252 698.108 726.033C698.108 724.448 698.509 723.101 699.31 721.993C700.111 720.885 701.266 720.101 702.774 719.641C704.283 719.181 706.098 719.125 708.22 719.475C710.342 719.824 712.162 720.48 713.679 721.443C715.187 722.398 716.351 723.561 717.169 724.933C717.979 726.306 718.384 727.784 718.384 729.369C718.384 730.563 718.183 731.504 717.783 732.195C717.382 732.877 716.913 733.388 716.376 733.729C715.839 734.061 715.362 734.313 714.945 734.483L714.945 734.803L718 735.314L718 739.047ZM708.182 733.665C709.562 733.887 710.773 733.887 711.812 733.665C712.852 733.435 713.666 732.987 714.254 732.323C714.834 731.649 715.124 730.767 715.124 729.676C715.124 728.534 714.821 727.529 714.216 726.659C713.602 725.79 712.771 725.074 711.723 724.512C710.675 723.949 709.494 723.557 708.182 723.335C706.886 723.131 705.723 723.135 704.692 723.348C703.661 723.561 702.847 724.004 702.25 724.678C701.653 725.343 701.355 726.25 701.355 727.401C701.355 728.509 701.641 729.493 702.212 730.354C702.783 731.215 703.58 731.926 704.602 732.489C705.625 733.051 706.818 733.443 708.182 733.665ZM718 716.806L698.364 713.533L698.364 709.864L701.56 710.401L701.56 710.158C700.477 709.562 699.634 708.752 699.028 707.729C698.415 706.698 698.108 705.53 698.108 704.226C698.108 702.931 698.415 701.887 699.028 701.094C699.642 700.293 700.486 699.769 701.56 699.522L701.56 699.317C700.503 698.687 699.663 697.805 699.041 696.671C698.419 695.537 698.108 694.263 698.108 692.849C698.108 691.084 698.67 689.729 699.795 688.783C700.912 687.829 702.591 687.539 704.832 687.914L718 690.113L718 693.948L705.19 691.8C703.852 691.587 702.889 691.792 702.301 692.414C701.705 693.036 701.406 693.85 701.406 694.856C701.406 696.1 701.79 697.131 702.557 697.949C703.315 698.768 704.291 699.27 705.484 699.458L718 701.567L718 705.364L704.947 703.178C703.874 703.008 703.017 703.204 702.378 703.766C701.73 704.32 701.406 705.13 701.406 706.195C701.406 706.92 701.598 707.623 701.982 708.305C702.365 708.978 702.893 709.553 703.567 710.03C704.24 710.508 705.016 710.819 705.893 710.964L718 712.983L718 716.806ZM718.396 676.642C718.396 678.508 717.97 680.068 717.118 681.32C716.257 682.573 715.055 683.455 713.513 683.967C711.962 684.47 710.159 684.555 708.105 684.222C706.094 683.899 704.338 683.247 702.838 682.267C701.338 681.278 700.175 680.042 699.348 678.559C698.521 677.068 698.108 675.41 698.108 673.586C698.108 671.72 698.538 670.164 699.399 668.92C700.26 667.667 701.466 666.785 703.017 666.274C704.568 665.762 706.375 665.673 708.437 666.005C710.432 666.329 712.179 666.99 713.679 667.987C715.17 668.975 716.33 670.211 717.156 671.694C717.983 673.177 718.396 674.826 718.396 676.642ZM715.187 676.424C715.187 675.197 714.864 674.127 714.216 673.215C713.568 672.295 712.707 671.545 711.634 670.965C710.56 670.386 709.384 669.99 708.105 669.776C706.869 669.58 705.74 669.585 704.717 669.789C703.686 669.985 702.859 670.411 702.237 671.068C701.615 671.724 701.304 672.636 701.304 673.803C701.304 675.031 701.632 676.109 702.288 677.038C702.936 677.958 703.801 678.708 704.884 679.288C705.966 679.859 707.146 680.247 708.425 680.451C709.652 680.647 710.781 680.647 711.812 680.451C712.835 680.255 713.653 679.829 714.267 679.173C714.881 678.517 715.187 677.6 715.187 676.424ZM718.384 655.986C718.384 657.579 717.979 658.93 717.169 660.038C716.351 661.138 715.187 661.917 713.679 662.378C712.162 662.829 710.342 662.881 708.22 662.531C706.098 662.173 704.283 661.513 702.774 660.55C701.266 659.586 700.111 658.419 699.31 657.047C698.509 655.675 698.108 654.196 698.108 652.611C698.108 651.392 698.312 650.446 698.722 649.773C699.122 649.091 699.591 648.588 700.128 648.264C700.665 647.94 701.138 647.697 701.547 647.535L701.547 647.318L691.818 645.694L691.818 641.872L718 646.219L718 649.952L714.945 649.427L714.945 649.747C715.362 650.045 715.839 650.459 716.376 650.987C716.913 651.507 717.382 652.172 717.783 652.981C718.183 653.791 718.384 654.792 718.384 655.986ZM715.124 654.694C715.124 653.595 714.834 652.611 714.254 651.741C713.666 650.863 712.852 650.135 711.812 649.555C710.773 648.967 709.562 648.558 708.182 648.328C706.818 648.098 705.625 648.102 704.602 648.341C703.58 648.579 702.783 649.04 702.212 649.721C701.641 650.403 701.355 651.302 701.355 652.419C701.355 653.569 701.653 654.571 702.25 655.423C702.847 656.275 703.661 656.974 704.692 657.52C705.723 658.057 706.886 658.432 708.182 658.645C709.494 658.866 710.675 658.875 711.723 658.67C712.771 658.466 713.602 658.035 714.216 657.379C714.821 656.723 715.124 655.828 715.124 654.694ZM709.857 626.982L698.364 625.064L698.364 621.229L718 624.502L718 628.26L714.599 627.685L714.599 627.889C715.648 628.503 716.521 629.372 717.22 630.497C717.911 631.614 718.256 632.909 718.256 634.384C718.256 635.645 717.979 636.715 717.425 637.593C716.862 638.462 716.031 639.08 714.932 639.446C713.832 639.813 712.473 639.864 710.854 639.6L698.364 637.503L698.364 633.681L710.393 635.688C711.732 635.901 712.797 635.7 713.589 635.087C714.382 634.473 714.778 633.578 714.778 632.402C714.778 631.686 714.599 630.945 714.241 630.178C713.884 629.411 713.342 628.733 712.618 628.145C711.893 627.548 710.973 627.161 709.857 626.982ZM691.818 611.197L718 615.543L718 619.366L691.818 615.019L691.818 611.197ZM718.396 601.989C718.396 603.915 717.983 605.509 717.156 606.77C716.321 608.023 715.149 608.901 713.641 609.404C712.124 609.906 710.347 609.987 708.31 609.646C706.298 609.314 704.526 608.645 702.991 607.639C701.457 606.634 700.26 605.381 699.399 603.881C698.538 602.372 698.108 600.706 698.108 598.882C698.108 597.774 698.291 596.73 698.658 595.75C699.024 594.762 699.599 593.922 700.384 593.232C701.168 592.541 702.186 592.064 703.439 591.8C704.683 591.527 706.196 591.536 707.977 591.825L709.332 592.043L709.332 607.665L706.469 607.218L706.469 595.354C705.463 595.175 704.572 595.222 703.797 595.494C703.013 595.767 702.395 596.236 701.943 596.901C701.491 597.557 701.266 598.384 701.266 599.381C701.266 600.404 701.534 601.358 702.071 602.244C702.608 603.131 703.294 603.872 704.129 604.469C704.956 605.057 705.808 605.428 706.686 605.581L709.307 606.029C710.739 606.25 711.889 606.212 712.759 605.914C713.628 605.607 714.259 605.07 714.651 604.303C715.043 603.536 715.239 602.577 715.239 601.426C715.239 600.685 715.136 599.999 714.932 599.368C714.719 598.729 714.408 598.162 713.999 597.668C713.581 597.173 713.061 596.76 712.439 596.428L713.091 592.925C714.156 593.394 715.089 594.067 715.891 594.945C716.683 595.823 717.301 596.858 717.744 598.051C718.179 599.236 718.396 600.548 718.396 601.989Z" fill="black"/>
<path d="M1221.15 128.825C1222.44 128.834 1223.42 128.416 1224.1 127.572C1224.79 126.737 1225.13 125.569 1225.13 124.069C1225.13 122.996 1224.96 122.037 1224.62 121.193C1224.28 120.358 1223.82 119.676 1223.23 119.148C1222.65 118.628 1221.99 118.308 1221.25 118.189C1220.63 118.078 1220.09 118.133 1219.64 118.355C1219.19 118.585 1218.81 118.913 1218.5 119.339C1218.21 119.774 1217.95 120.251 1217.75 120.771C1217.55 121.291 1217.39 121.794 1217.26 122.28L1216.6 124.734C1216.39 125.527 1216.12 126.332 1215.77 127.15C1215.42 127.969 1214.96 128.706 1214.39 129.362C1213.82 130.018 1213.11 130.508 1212.27 130.832C1211.42 131.156 1210.41 131.22 1209.24 131.024C1207.75 130.768 1206.44 130.167 1205.29 129.221C1204.13 128.275 1203.23 127.027 1202.56 125.476C1201.9 123.925 1201.57 122.126 1201.57 120.081C1201.57 118.121 1201.88 116.471 1202.5 115.133C1203.12 113.804 1204 112.828 1205.14 112.206C1206.3 111.584 1207.66 111.362 1209.24 111.541L1209.24 115.517C1208.29 115.423 1207.5 115.594 1206.87 116.028C1206.25 116.471 1205.78 117.094 1205.48 117.895C1205.18 118.696 1205.03 119.604 1205.03 120.618C1205.03 121.743 1205.2 122.77 1205.55 123.699C1205.91 124.628 1206.41 125.395 1207.04 126C1207.68 126.605 1208.42 126.976 1209.27 127.112C1210.05 127.248 1210.68 127.138 1211.18 126.78C1211.67 126.43 1212.08 125.902 1212.41 125.194C1212.73 124.496 1213.02 123.699 1213.26 122.804L1214.11 119.851C1214.68 117.848 1215.52 116.331 1216.62 115.3C1217.73 114.268 1219.2 113.898 1221.02 114.187C1222.53 114.443 1223.85 115.074 1224.97 116.079C1226.1 117.085 1226.97 118.338 1227.59 119.838C1228.22 121.338 1228.54 122.966 1228.54 124.721C1228.54 126.494 1228.22 128.003 1227.59 129.247C1226.96 130.491 1226.09 131.412 1224.99 132.008C1223.88 132.605 1222.6 132.814 1221.15 132.635L1221.15 128.825ZM1210.14 148.03L1221.64 149.948L1221.64 153.783L1202 150.51L1202 146.752L1205.4 147.327L1205.4 147.122C1204.35 146.509 1203.48 145.639 1202.78 144.514C1202.09 143.398 1201.74 142.102 1201.74 140.628C1201.74 139.367 1202.02 138.297 1202.58 137.419C1203.14 136.55 1203.97 135.932 1205.07 135.566C1206.17 135.199 1207.53 135.148 1209.15 135.412L1221.64 137.509L1221.64 141.331L1209.61 139.324C1208.27 139.111 1207.2 139.311 1206.41 139.925C1205.62 140.539 1205.22 141.433 1205.22 142.61C1205.22 143.325 1205.4 144.067 1205.76 144.834C1206.12 145.601 1206.66 146.279 1207.38 146.867C1208.11 147.463 1209.03 147.851 1210.14 148.03ZM1202 155.953L1228.18 160.3L1228.18 164.122L1218.45 162.524L1218.45 162.754C1218.86 163.044 1219.34 163.44 1219.87 163.943C1220.41 164.454 1220.88 165.115 1221.28 165.925C1221.69 166.734 1221.89 167.748 1221.89 168.967C1221.89 170.552 1221.49 171.899 1220.69 173.007C1219.89 174.115 1218.73 174.899 1217.23 175.359C1215.72 175.819 1213.9 175.875 1211.78 175.525C1209.66 175.176 1207.84 174.52 1206.32 173.557C1204.81 172.602 1203.65 171.439 1202.83 170.067C1202.02 168.694 1201.62 167.216 1201.62 165.631C1201.62 164.437 1201.82 163.496 1202.22 162.805C1202.62 162.123 1203.09 161.612 1203.62 161.271C1204.16 160.939 1204.64 160.687 1205.06 160.517L1205.06 160.197L1202 159.686L1202 155.953ZM1211.82 161.335C1210.44 161.113 1209.23 161.113 1208.19 161.335C1207.15 161.565 1206.33 162.013 1205.75 162.677C1205.17 163.351 1204.88 164.233 1204.88 165.324C1204.88 166.466 1205.18 167.471 1205.78 168.341C1206.4 169.21 1207.23 169.926 1208.28 170.488C1209.33 171.051 1210.51 171.443 1211.82 171.665C1213.11 171.869 1214.28 171.865 1215.31 171.652C1216.34 171.439 1217.15 170.996 1217.75 170.322C1218.35 169.657 1218.64 168.75 1218.64 167.599C1218.64 166.491 1218.36 165.507 1217.79 164.646C1217.22 163.785 1216.42 163.074 1215.4 162.511C1214.37 161.949 1213.18 161.557 1211.82 161.335ZM1202 178.194L1221.64 181.467L1221.64 185.136L1218.44 184.599L1218.44 184.842C1219.52 185.438 1220.37 186.248 1220.97 187.271C1221.59 188.302 1221.89 189.47 1221.89 190.774C1221.89 192.069 1221.59 193.113 1220.97 193.906C1220.36 194.707 1219.51 195.231 1218.44 195.478L1218.44 195.683C1219.5 196.313 1220.34 197.195 1220.96 198.329C1221.58 199.463 1221.89 200.737 1221.89 202.151C1221.89 203.916 1221.33 205.271 1220.2 206.217C1219.09 207.171 1217.41 207.461 1215.17 207.086L1202 204.887L1202 201.052L1214.81 203.2C1216.15 203.413 1217.11 203.208 1217.7 202.586C1218.3 201.964 1218.59 201.15 1218.59 200.144C1218.59 198.9 1218.21 197.869 1217.44 197.051C1216.68 196.232 1215.71 195.73 1214.52 195.542L1202 193.433L1202 189.636L1215.05 191.822C1216.13 191.992 1216.98 191.796 1217.62 191.234C1218.27 190.68 1218.59 189.87 1218.59 188.805C1218.59 188.08 1218.4 187.377 1218.02 186.695C1217.63 186.022 1217.11 185.447 1216.43 184.97C1215.76 184.492 1214.98 184.181 1214.11 184.036L1202 182.017L1202 178.194ZM1201.6 218.358C1201.6 216.492 1202.03 214.932 1202.88 213.68C1203.74 212.427 1204.94 211.545 1206.49 211.033C1208.04 210.53 1209.84 210.445 1211.89 210.778C1213.91 211.101 1215.66 211.753 1217.16 212.733C1218.66 213.722 1219.83 214.958 1220.65 216.441C1221.48 217.932 1221.89 219.59 1221.89 221.414C1221.89 223.28 1221.46 224.836 1220.6 226.08C1219.74 227.333 1218.53 228.215 1216.98 228.726C1215.43 229.238 1213.62 229.327 1211.56 228.995C1209.57 228.671 1207.82 228.01 1206.32 227.013C1204.83 226.025 1203.67 224.789 1202.84 223.306C1202.02 221.823 1201.6 220.174 1201.6 218.358ZM1204.81 218.576C1204.81 219.803 1205.14 220.873 1205.78 221.785C1206.43 222.705 1207.29 223.455 1208.37 224.035C1209.44 224.614 1210.62 225.01 1211.89 225.224C1213.13 225.42 1214.26 225.415 1215.28 225.211C1216.31 225.015 1217.14 224.589 1217.76 223.932C1218.38 223.276 1218.7 222.364 1218.7 221.197C1218.7 219.969 1218.37 218.891 1217.71 217.962C1217.06 217.042 1216.2 216.292 1215.12 215.712C1214.03 215.141 1212.85 214.753 1211.58 214.549C1210.35 214.353 1209.22 214.353 1208.19 214.549C1207.16 214.745 1206.35 215.171 1205.73 215.827C1205.12 216.483 1204.81 217.4 1204.81 218.576ZM1201.62 239.014C1201.62 237.421 1202.02 236.07 1202.83 234.962C1203.65 233.862 1204.81 233.083 1206.32 232.622C1207.84 232.171 1209.66 232.119 1211.78 232.469C1213.9 232.827 1215.72 233.487 1217.23 234.45C1218.73 235.414 1219.89 236.581 1220.69 237.953C1221.49 239.325 1221.89 240.804 1221.89 242.389C1221.89 243.608 1221.69 244.554 1221.28 245.227C1220.88 245.909 1220.41 246.412 1219.87 246.736C1219.34 247.06 1218.86 247.303 1218.45 247.465L1218.45 247.682L1228.18 249.306L1228.18 253.128L1202 248.781L1202 245.048L1205.06 245.573L1205.06 245.253C1204.64 244.955 1204.16 244.541 1203.62 244.013C1203.09 243.493 1202.62 242.828 1202.22 242.019C1201.82 241.209 1201.62 240.208 1201.62 239.014ZM1204.88 240.306C1204.88 241.405 1205.17 242.389 1205.75 243.259C1206.33 244.137 1207.15 244.865 1208.19 245.445C1209.23 246.033 1210.44 246.442 1211.82 246.672C1213.18 246.902 1214.37 246.898 1215.4 246.659C1216.42 246.421 1217.22 245.96 1217.79 245.279C1218.36 244.597 1218.64 243.698 1218.64 242.581C1218.64 241.431 1218.35 240.429 1217.75 239.577C1217.15 238.725 1216.34 238.026 1215.31 237.48C1214.28 236.943 1213.11 236.568 1211.82 236.355C1210.51 236.134 1209.33 236.125 1208.28 236.33C1207.23 236.534 1206.4 236.965 1205.78 237.621C1205.18 238.277 1204.88 239.172 1204.88 240.306ZM1210.14 268.018L1221.64 269.936L1221.64 273.771L1202 270.498L1202 266.74L1205.4 267.315L1205.4 267.111C1204.35 266.497 1203.48 265.628 1202.78 264.503C1202.09 263.386 1201.74 262.091 1201.74 260.616C1201.74 259.355 1202.02 258.285 1202.58 257.407C1203.14 256.538 1203.97 255.92 1205.07 255.554C1206.17 255.187 1207.53 255.136 1209.15 255.4L1221.64 257.497L1221.64 261.319L1209.61 259.312C1208.27 259.099 1207.2 259.3 1206.41 259.913C1205.62 260.527 1205.22 261.422 1205.22 262.598C1205.22 263.314 1205.4 264.055 1205.76 264.822C1206.12 265.589 1206.66 266.267 1207.38 266.855C1208.11 267.452 1209.03 267.839 1210.14 268.018ZM1228.18 283.803L1202 279.457L1202 275.634L1228.18 279.981L1228.18 283.803ZM1201.6 293.011C1201.6 291.085 1202.02 289.491 1202.84 288.23C1203.68 286.977 1204.85 286.099 1206.36 285.596C1207.88 285.094 1209.65 285.013 1211.69 285.354C1213.7 285.686 1215.47 286.355 1217.01 287.361C1218.54 288.366 1219.74 289.619 1220.6 291.119C1221.46 292.628 1221.89 294.294 1221.89 296.118C1221.89 297.226 1221.71 298.27 1221.34 299.25C1220.98 300.238 1220.4 301.078 1219.62 301.768C1218.83 302.459 1217.81 302.936 1216.56 303.2C1215.32 303.473 1213.8 303.464 1212.02 303.175L1210.67 302.957L1210.67 287.335L1213.53 287.782L1213.53 299.646C1214.54 299.825 1215.43 299.778 1216.2 299.506C1216.99 299.233 1217.61 298.764 1218.06 298.099C1218.51 297.443 1218.73 296.616 1218.73 295.619C1218.73 294.596 1218.47 293.642 1217.93 292.756C1217.39 291.869 1216.71 291.128 1215.87 290.531C1215.04 289.943 1214.19 289.572 1213.31 289.419L1210.69 288.971C1209.26 288.75 1208.11 288.788 1207.24 289.086C1206.37 289.393 1205.74 289.93 1205.35 290.697C1204.96 291.464 1204.76 292.423 1204.76 293.574C1204.76 294.315 1204.86 295.001 1205.07 295.632C1205.28 296.271 1205.59 296.838 1206 297.332C1206.42 297.827 1206.94 298.24 1207.56 298.572L1206.91 302.075C1205.84 301.606 1204.91 300.933 1204.11 300.055C1203.32 299.177 1202.7 298.142 1202.26 296.949C1201.82 295.764 1201.6 294.452 1201.6 293.011Z" fill="black"/>
<path d="M1221.15 468.825C1222.44 468.834 1223.42 468.416 1224.1 467.572C1224.79 466.737 1225.13 465.569 1225.13 464.069C1225.13 462.996 1224.96 462.037 1224.62 461.193C1224.28 460.358 1223.82 459.676 1223.23 459.148C1222.65 458.628 1221.99 458.308 1221.25 458.189C1220.63 458.078 1220.09 458.133 1219.64 458.355C1219.19 458.585 1218.81 458.913 1218.5 459.339C1218.21 459.774 1217.95 460.251 1217.75 460.771C1217.55 461.291 1217.39 461.794 1217.26 462.28L1216.6 464.734C1216.39 465.527 1216.12 466.332 1215.77 467.15C1215.42 467.969 1214.96 468.706 1214.39 469.362C1213.82 470.018 1213.11 470.508 1212.27 470.832C1211.42 471.156 1210.41 471.22 1209.24 471.024C1207.75 470.768 1206.44 470.167 1205.29 469.221C1204.13 468.275 1203.23 467.027 1202.56 465.476C1201.9 463.925 1201.57 462.126 1201.57 460.081C1201.57 458.121 1201.88 456.471 1202.5 455.133C1203.12 453.804 1204 452.828 1205.14 452.206C1206.3 451.584 1207.66 451.362 1209.24 451.541L1209.24 455.517C1208.29 455.423 1207.5 455.594 1206.87 456.028C1206.25 456.471 1205.78 457.094 1205.48 457.895C1205.18 458.696 1205.03 459.604 1205.03 460.618C1205.03 461.743 1205.2 462.77 1205.55 463.699C1205.91 464.628 1206.41 465.395 1207.04 466C1207.68 466.605 1208.42 466.976 1209.27 467.112C1210.05 467.248 1210.68 467.138 1211.18 466.78C1211.67 466.43 1212.08 465.902 1212.41 465.194C1212.73 464.496 1213.02 463.699 1213.26 462.804L1214.11 459.851C1214.68 457.848 1215.52 456.331 1216.62 455.3C1217.73 454.268 1219.2 453.898 1221.02 454.187C1222.53 454.443 1223.85 455.074 1224.97 456.079C1226.1 457.085 1226.97 458.338 1227.59 459.838C1228.22 461.338 1228.54 462.966 1228.54 464.721C1228.54 466.494 1228.22 468.003 1227.59 469.247C1226.96 470.491 1226.09 471.412 1224.99 472.008C1223.88 472.605 1222.6 472.814 1221.15 472.635L1221.15 468.825ZM1210.14 488.03L1221.64 489.948L1221.64 493.783L1202 490.51L1202 486.752L1205.4 487.327L1205.4 487.122C1204.35 486.509 1203.48 485.639 1202.78 484.514C1202.09 483.398 1201.74 482.102 1201.74 480.628C1201.74 479.367 1202.02 478.297 1202.58 477.419C1203.14 476.55 1203.97 475.932 1205.07 475.566C1206.17 475.199 1207.53 475.148 1209.15 475.412L1221.64 477.509L1221.64 481.331L1209.61 479.324C1208.27 479.111 1207.2 479.311 1206.41 479.925C1205.62 480.539 1205.22 481.433 1205.22 482.61C1205.22 483.325 1205.4 484.067 1205.76 484.834C1206.12 485.601 1206.66 486.279 1207.38 486.867C1208.11 487.463 1209.03 487.851 1210.14 488.03ZM1202 495.953L1228.18 500.3L1228.18 504.122L1218.45 502.524L1218.45 502.754C1218.86 503.044 1219.34 503.44 1219.87 503.943C1220.41 504.454 1220.88 505.115 1221.28 505.925C1221.69 506.734 1221.89 507.748 1221.89 508.967C1221.89 510.552 1221.49 511.899 1220.69 513.007C1219.89 514.115 1218.73 514.899 1217.23 515.359C1215.72 515.819 1213.9 515.875 1211.78 515.525C1209.66 515.176 1207.84 514.52 1206.32 513.557C1204.81 512.602 1203.65 511.439 1202.83 510.067C1202.02 508.694 1201.62 507.216 1201.62 505.631C1201.62 504.437 1201.82 503.496 1202.22 502.805C1202.62 502.123 1203.09 501.612 1203.62 501.271C1204.16 500.939 1204.64 500.687 1205.06 500.517L1205.06 500.197L1202 499.686L1202 495.953ZM1211.82 501.335C1210.44 501.113 1209.23 501.113 1208.19 501.335C1207.15 501.565 1206.33 502.013 1205.75 502.677C1205.17 503.351 1204.88 504.233 1204.88 505.324C1204.88 506.466 1205.18 507.471 1205.78 508.341C1206.4 509.21 1207.23 509.926 1208.28 510.488C1209.33 511.051 1210.51 511.443 1211.82 511.665C1213.11 511.869 1214.28 511.865 1215.31 511.652C1216.34 511.439 1217.15 510.996 1217.75 510.322C1218.35 509.657 1218.64 508.75 1218.64 507.599C1218.64 506.491 1218.36 505.507 1217.79 504.646C1217.22 503.785 1216.42 503.074 1215.4 502.511C1214.37 501.949 1213.18 501.557 1211.82 501.335ZM1202 518.194L1221.64 521.467L1221.64 525.136L1218.44 524.599L1218.44 524.842C1219.52 525.438 1220.37 526.248 1220.97 527.271C1221.59 528.302 1221.89 529.47 1221.89 530.774C1221.89 532.069 1221.59 533.113 1220.97 533.906C1220.36 534.707 1219.51 535.231 1218.44 535.478L1218.44 535.683C1219.5 536.313 1220.34 537.195 1220.96 538.329C1221.58 539.463 1221.89 540.737 1221.89 542.151C1221.89 543.916 1221.33 545.271 1220.2 546.217C1219.09 547.171 1217.41 547.461 1215.17 547.086L1202 544.887L1202 541.052L1214.81 543.2C1216.15 543.413 1217.11 543.208 1217.7 542.586C1218.3 541.964 1218.59 541.15 1218.59 540.144C1218.59 538.9 1218.21 537.869 1217.44 537.051C1216.68 536.232 1215.71 535.73 1214.52 535.542L1202 533.433L1202 529.636L1215.05 531.822C1216.13 531.992 1216.98 531.796 1217.62 531.234C1218.27 530.68 1218.59 529.87 1218.59 528.805C1218.59 528.08 1218.4 527.377 1218.02 526.695C1217.63 526.022 1217.11 525.447 1216.43 524.97C1215.76 524.492 1214.98 524.181 1214.11 524.036L1202 522.017L1202 518.194ZM1201.6 558.358C1201.6 556.492 1202.03 554.932 1202.88 553.68C1203.74 552.427 1204.94 551.545 1206.49 551.033C1208.04 550.53 1209.84 550.445 1211.89 550.778C1213.91 551.101 1215.66 551.753 1217.16 552.733C1218.66 553.722 1219.83 554.958 1220.65 556.441C1221.48 557.932 1221.89 559.59 1221.89 561.414C1221.89 563.28 1221.46 564.836 1220.6 566.08C1219.74 567.333 1218.53 568.215 1216.98 568.726C1215.43 569.238 1213.62 569.327 1211.56 568.995C1209.57 568.671 1207.82 568.01 1206.32 567.013C1204.83 566.025 1203.67 564.789 1202.84 563.306C1202.02 561.823 1201.6 560.174 1201.6 558.358ZM1204.81 558.576C1204.81 559.803 1205.14 560.873 1205.78 561.785C1206.43 562.705 1207.29 563.455 1208.37 564.035C1209.44 564.614 1210.62 565.01 1211.89 565.224C1213.13 565.42 1214.26 565.415 1215.28 565.211C1216.31 565.015 1217.14 564.589 1217.76 563.932C1218.38 563.276 1218.7 562.364 1218.7 561.197C1218.7 559.969 1218.37 558.891 1217.71 557.962C1217.06 557.042 1216.2 556.292 1215.12 555.712C1214.03 555.141 1212.85 554.753 1211.58 554.549C1210.35 554.353 1209.22 554.353 1208.19 554.549C1207.16 554.745 1206.35 555.171 1205.73 555.827C1205.12 556.483 1204.81 557.4 1204.81 558.576ZM1201.62 579.014C1201.62 577.421 1202.02 576.07 1202.83 574.962C1203.65 573.862 1204.81 573.083 1206.32 572.622C1207.84 572.171 1209.66 572.119 1211.78 572.469C1213.9 572.827 1215.72 573.487 1217.23 574.45C1218.73 575.414 1219.89 576.581 1220.69 577.953C1221.49 579.325 1221.89 580.804 1221.89 582.389C1221.89 583.608 1221.69 584.554 1221.28 585.227C1220.88 585.909 1220.41 586.412 1219.87 586.736C1219.34 587.06 1218.86 587.303 1218.45 587.465L1218.45 587.682L1228.18 589.306L1228.18 593.128L1202 588.781L1202 585.048L1205.06 585.573L1205.06 585.253C1204.64 584.955 1204.16 584.541 1203.62 584.013C1203.09 583.493 1202.62 582.828 1202.22 582.019C1201.82 581.209 1201.62 580.208 1201.62 579.014ZM1204.88 580.306C1204.88 581.405 1205.17 582.389 1205.75 583.259C1206.33 584.137 1207.15 584.865 1208.19 585.445C1209.23 586.033 1210.44 586.442 1211.82 586.672C1213.18 586.902 1214.37 586.898 1215.4 586.659C1216.42 586.421 1217.22 585.96 1217.79 585.279C1218.36 584.597 1218.64 583.698 1218.64 582.581C1218.64 581.431 1218.35 580.429 1217.75 579.577C1217.15 578.725 1216.34 578.026 1215.31 577.48C1214.28 576.943 1213.11 576.568 1211.82 576.355C1210.51 576.134 1209.33 576.125 1208.28 576.33C1207.23 576.534 1206.4 576.965 1205.78 577.621C1205.18 578.277 1204.88 579.172 1204.88 580.306ZM1210.14 608.018L1221.64 609.936L1221.64 613.771L1202 610.498L1202 606.74L1205.4 607.315L1205.4 607.111C1204.35 606.497 1203.48 605.628 1202.78 604.503C1202.09 603.386 1201.74 602.091 1201.74 600.616C1201.74 599.355 1202.02 598.285 1202.58 597.407C1203.14 596.538 1203.97 595.92 1205.07 595.554C1206.17 595.187 1207.53 595.136 1209.15 595.4L1221.64 597.497L1221.64 601.319L1209.61 599.312C1208.27 599.099 1207.2 599.3 1206.41 599.913C1205.62 600.527 1205.22 601.422 1205.22 602.598C1205.22 603.314 1205.4 604.055 1205.76 604.822C1206.12 605.589 1206.66 606.267 1207.38 606.855C1208.11 607.452 1209.03 607.839 1210.14 608.018ZM1228.18 623.803L1202 619.457L1202 615.634L1228.18 619.981L1228.18 623.803ZM1201.6 633.011C1201.6 631.085 1202.02 629.491 1202.84 628.23C1203.68 626.977 1204.85 626.099 1206.36 625.596C1207.88 625.094 1209.65 625.013 1211.69 625.354C1213.7 625.686 1215.47 626.355 1217.01 627.361C1218.54 628.366 1219.74 629.619 1220.6 631.119C1221.46 632.628 1221.89 634.294 1221.89 636.118C1221.89 637.226 1221.71 638.27 1221.34 639.25C1220.98 640.238 1220.4 641.078 1219.62 641.768C1218.83 642.459 1217.81 642.936 1216.56 643.2C1215.32 643.473 1213.8 643.464 1212.02 643.175L1210.67 642.957L1210.67 627.335L1213.53 627.782L1213.53 639.646C1214.54 639.825 1215.43 639.778 1216.2 639.506C1216.99 639.233 1217.61 638.764 1218.06 638.099C1218.51 637.443 1218.73 636.616 1218.73 635.619C1218.73 634.596 1218.47 633.642 1217.93 632.756C1217.39 631.869 1216.71 631.128 1215.87 630.531C1215.04 629.943 1214.19 629.572 1213.31 629.419L1210.69 628.971C1209.26 628.75 1208.11 628.788 1207.24 629.086C1206.37 629.393 1205.74 629.93 1205.35 630.697C1204.96 631.464 1204.76 632.423 1204.76 633.574C1204.76 634.315 1204.86 635.001 1205.07 635.632C1205.28 636.271 1205.59 636.838 1206 637.332C1206.42 637.827 1206.94 638.24 1207.56 638.572L1206.91 642.075C1205.84 641.606 1204.91 640.933 1204.11 640.055C1203.32 639.177 1202.7 638.142 1202.26 636.949C1201.82 635.764 1201.6 634.452 1201.6 633.011Z" fill="black"/>
<path d="M1221.15 785.825C1222.44 785.834 1223.42 785.416 1224.1 784.572C1224.79 783.737 1225.13 782.569 1225.13 781.069C1225.13 779.996 1224.96 779.037 1224.62 778.193C1224.28 777.358 1223.82 776.676 1223.23 776.148C1222.65 775.628 1221.99 775.308 1221.25 775.189C1220.63 775.078 1220.09 775.133 1219.64 775.355C1219.19 775.585 1218.81 775.913 1218.5 776.339C1218.21 776.774 1217.95 777.251 1217.75 777.771C1217.55 778.291 1217.39 778.794 1217.26 779.28L1216.6 781.734C1216.39 782.527 1216.12 783.332 1215.77 784.15C1215.42 784.969 1214.96 785.706 1214.39 786.362C1213.82 787.018 1213.11 787.508 1212.27 787.832C1211.42 788.156 1210.41 788.22 1209.24 788.024C1207.75 787.768 1206.44 787.167 1205.29 786.221C1204.13 785.275 1203.23 784.027 1202.56 782.476C1201.9 780.925 1201.57 779.126 1201.57 777.081C1201.57 775.121 1201.88 773.471 1202.5 772.133C1203.12 770.804 1204 769.828 1205.14 769.206C1206.3 768.584 1207.66 768.362 1209.24 768.541L1209.24 772.517C1208.29 772.423 1207.5 772.594 1206.87 773.028C1206.25 773.471 1205.78 774.094 1205.48 774.895C1205.18 775.696 1205.03 776.604 1205.03 777.618C1205.03 778.743 1205.2 779.77 1205.55 780.699C1205.91 781.628 1206.41 782.395 1207.04 783C1207.68 783.605 1208.42 783.976 1209.27 784.112C1210.05 784.248 1210.68 784.138 1211.18 783.78C1211.67 783.43 1212.08 782.902 1212.41 782.194C1212.73 781.496 1213.02 780.699 1213.26 779.804L1214.11 776.851C1214.68 774.848 1215.52 773.331 1216.62 772.3C1217.73 771.268 1219.2 770.898 1221.02 771.187C1222.53 771.443 1223.85 772.074 1224.97 773.079C1226.1 774.085 1226.97 775.338 1227.59 776.838C1228.22 778.338 1228.54 779.966 1228.54 781.721C1228.54 783.494 1228.22 785.003 1227.59 786.247C1226.96 787.491 1226.09 788.412 1224.99 789.008C1223.88 789.605 1222.6 789.814 1221.15 789.635L1221.15 785.825ZM1210.14 805.03L1221.64 806.948L1221.64 810.783L1202 807.51L1202 803.752L1205.4 804.327L1205.4 804.122C1204.35 803.509 1203.48 802.639 1202.78 801.514C1202.09 800.398 1201.74 799.102 1201.74 797.628C1201.74 796.367 1202.02 795.297 1202.58 794.419C1203.14 793.55 1203.97 792.932 1205.07 792.566C1206.17 792.199 1207.53 792.148 1209.15 792.412L1221.64 794.509L1221.64 798.331L1209.61 796.324C1208.27 796.111 1207.2 796.311 1206.41 796.925C1205.62 797.539 1205.22 798.433 1205.22 799.61C1205.22 800.325 1205.4 801.067 1205.76 801.834C1206.12 802.601 1206.66 803.279 1207.38 803.867C1208.11 804.463 1209.03 804.851 1210.14 805.03ZM1202 812.953L1228.18 817.3L1228.18 821.122L1218.45 819.524L1218.45 819.754C1218.86 820.044 1219.34 820.44 1219.87 820.943C1220.41 821.454 1220.88 822.115 1221.28 822.925C1221.69 823.734 1221.89 824.748 1221.89 825.967C1221.89 827.552 1221.49 828.899 1220.69 830.007C1219.89 831.115 1218.73 831.899 1217.23 832.359C1215.72 832.819 1213.9 832.875 1211.78 832.525C1209.66 832.176 1207.84 831.52 1206.32 830.557C1204.81 829.602 1203.65 828.439 1202.83 827.067C1202.02 825.694 1201.62 824.216 1201.62 822.631C1201.62 821.437 1201.82 820.496 1202.22 819.805C1202.62 819.123 1203.09 818.612 1203.62 818.271C1204.16 817.939 1204.64 817.687 1205.06 817.517L1205.06 817.197L1202 816.686L1202 812.953ZM1211.82 818.335C1210.44 818.113 1209.23 818.113 1208.19 818.335C1207.15 818.565 1206.33 819.013 1205.75 819.677C1205.17 820.351 1204.88 821.233 1204.88 822.324C1204.88 823.466 1205.18 824.471 1205.78 825.341C1206.4 826.21 1207.23 826.926 1208.28 827.488C1209.33 828.051 1210.51 828.443 1211.82 828.665C1213.11 828.869 1214.28 828.865 1215.31 828.652C1216.34 828.439 1217.15 827.996 1217.75 827.322C1218.35 826.657 1218.64 825.75 1218.64 824.599C1218.64 823.491 1218.36 822.507 1217.79 821.646C1217.22 820.785 1216.42 820.074 1215.4 819.511C1214.37 818.949 1213.18 818.557 1211.82 818.335ZM1202 835.194L1221.64 838.467L1221.64 842.136L1218.44 841.599L1218.44 841.842C1219.52 842.438 1220.37 843.248 1220.97 844.271C1221.59 845.302 1221.89 846.47 1221.89 847.774C1221.89 849.069 1221.59 850.113 1220.97 850.906C1220.36 851.707 1219.51 852.231 1218.44 852.478L1218.44 852.683C1219.5 853.313 1220.34 854.195 1220.96 855.329C1221.58 856.463 1221.89 857.737 1221.89 859.151C1221.89 860.916 1221.33 862.271 1220.2 863.217C1219.09 864.171 1217.41 864.461 1215.17 864.086L1202 861.887L1202 858.052L1214.81 860.2C1216.15 860.413 1217.11 860.208 1217.7 859.586C1218.3 858.964 1218.59 858.15 1218.59 857.144C1218.59 855.9 1218.21 854.869 1217.44 854.051C1216.68 853.232 1215.71 852.73 1214.52 852.542L1202 850.433L1202 846.636L1215.05 848.822C1216.13 848.992 1216.98 848.796 1217.62 848.234C1218.27 847.68 1218.59 846.87 1218.59 845.805C1218.59 845.08 1218.4 844.377 1218.02 843.695C1217.63 843.022 1217.11 842.447 1216.43 841.97C1215.76 841.492 1214.98 841.181 1214.11 841.036L1202 839.017L1202 835.194ZM1201.6 875.358C1201.6 873.492 1202.03 871.932 1202.88 870.68C1203.74 869.427 1204.94 868.545 1206.49 868.033C1208.04 867.53 1209.84 867.445 1211.89 867.778C1213.91 868.101 1215.66 868.753 1217.16 869.733C1218.66 870.722 1219.83 871.958 1220.65 873.441C1221.48 874.932 1221.89 876.59 1221.89 878.414C1221.89 880.28 1221.46 881.836 1220.6 883.08C1219.74 884.333 1218.53 885.215 1216.98 885.726C1215.43 886.238 1213.62 886.327 1211.56 885.995C1209.57 885.671 1207.82 885.01 1206.32 884.013C1204.83 883.025 1203.67 881.789 1202.84 880.306C1202.02 878.823 1201.6 877.174 1201.6 875.358ZM1204.81 875.576C1204.81 876.803 1205.14 877.873 1205.78 878.785C1206.43 879.705 1207.29 880.455 1208.37 881.035C1209.44 881.614 1210.62 882.01 1211.89 882.224C1213.13 882.42 1214.26 882.415 1215.28 882.211C1216.31 882.015 1217.14 881.589 1217.76 880.932C1218.38 880.276 1218.7 879.364 1218.7 878.197C1218.7 876.969 1218.37 875.891 1217.71 874.962C1217.06 874.042 1216.2 873.292 1215.12 872.712C1214.03 872.141 1212.85 871.753 1211.58 871.549C1210.35 871.353 1209.22 871.353 1208.19 871.549C1207.16 871.745 1206.35 872.171 1205.73 872.827C1205.12 873.483 1204.81 874.4 1204.81 875.576ZM1201.62 896.014C1201.62 894.421 1202.02 893.07 1202.83 891.962C1203.65 890.862 1204.81 890.083 1206.32 889.622C1207.84 889.171 1209.66 889.119 1211.78 889.469C1213.9 889.827 1215.72 890.487 1217.23 891.45C1218.73 892.414 1219.89 893.581 1220.69 894.953C1221.49 896.325 1221.89 897.804 1221.89 899.389C1221.89 900.608 1221.69 901.554 1221.28 902.227C1220.88 902.909 1220.41 903.412 1219.87 903.736C1219.34 904.06 1218.86 904.303 1218.45 904.465L1218.45 904.682L1228.18 906.306L1228.18 910.128L1202 905.781L1202 902.048L1205.06 902.573L1205.06 902.253C1204.64 901.955 1204.16 901.541 1203.62 901.013C1203.09 900.493 1202.62 899.828 1202.22 899.019C1201.82 898.209 1201.62 897.208 1201.62 896.014ZM1204.88 897.306C1204.88 898.405 1205.17 899.389 1205.75 900.259C1206.33 901.137 1207.15 901.865 1208.19 902.445C1209.23 903.033 1210.44 903.442 1211.82 903.672C1213.18 903.902 1214.37 903.898 1215.4 903.659C1216.42 903.421 1217.22 902.96 1217.79 902.279C1218.36 901.597 1218.64 900.698 1218.64 899.581C1218.64 898.431 1218.35 897.429 1217.75 896.577C1217.15 895.725 1216.34 895.026 1215.31 894.48C1214.28 893.943 1213.11 893.568 1211.82 893.355C1210.51 893.134 1209.33 893.125 1208.28 893.33C1207.23 893.534 1206.4 893.965 1205.78 894.621C1205.18 895.277 1204.88 896.172 1204.88 897.306ZM1210.14 925.018L1221.64 926.936L1221.64 930.771L1202 927.498L1202 923.74L1205.4 924.315L1205.4 924.111C1204.35 923.497 1203.48 922.628 1202.78 921.503C1202.09 920.386 1201.74 919.091 1201.74 917.616C1201.74 916.355 1202.02 915.285 1202.58 914.407C1203.14 913.538 1203.97 912.92 1205.07 912.554C1206.17 912.187 1207.53 912.136 1209.15 912.4L1221.64 914.497L1221.64 918.319L1209.61 916.312C1208.27 916.099 1207.2 916.3 1206.41 916.913C1205.62 917.527 1205.22 918.422 1205.22 919.598C1205.22 920.314 1205.4 921.055 1205.76 921.822C1206.12 922.589 1206.66 923.267 1207.38 923.855C1208.11 924.452 1209.03 924.839 1210.14 925.018ZM1228.18 940.803L1202 936.457L1202 932.634L1228.18 936.981L1228.18 940.803ZM1201.6 950.011C1201.6 948.085 1202.02 946.491 1202.84 945.23C1203.68 943.977 1204.85 943.099 1206.36 942.596C1207.88 942.094 1209.65 942.013 1211.69 942.354C1213.7 942.686 1215.47 943.355 1217.01 944.361C1218.54 945.366 1219.74 946.619 1220.6 948.119C1221.46 949.628 1221.89 951.294 1221.89 953.118C1221.89 954.226 1221.71 955.27 1221.34 956.25C1220.98 957.238 1220.4 958.078 1219.62 958.768C1218.83 959.459 1217.81 959.936 1216.56 960.2C1215.32 960.473 1213.8 960.464 1212.02 960.175L1210.67 959.957L1210.67 944.335L1213.53 944.782L1213.53 956.646C1214.54 956.825 1215.43 956.778 1216.2 956.506C1216.99 956.233 1217.61 955.764 1218.06 955.099C1218.51 954.443 1218.73 953.616 1218.73 952.619C1218.73 951.596 1218.47 950.642 1217.93 949.756C1217.39 948.869 1216.71 948.128 1215.87 947.531C1215.04 946.943 1214.19 946.572 1213.31 946.419L1210.69 945.971C1209.26 945.75 1208.11 945.788 1207.24 946.086C1206.37 946.393 1205.74 946.93 1205.35 947.697C1204.96 948.464 1204.76 949.423 1204.76 950.574C1204.76 951.315 1204.86 952.001 1205.07 952.632C1205.28 953.271 1205.59 953.838 1206 954.332C1206.42 954.827 1206.94 955.24 1207.56 955.572L1206.91 959.075C1205.84 958.606 1204.91 957.933 1204.11 957.055C1203.32 956.177 1202.7 955.142 1202.26 953.949C1201.82 952.764 1201.6 951.452 1201.6 950.011Z" fill="black"/>
</svg>
