<svg width="1920" height="1080" viewBox="0 0 1920 1080" fill="none" xmlns="http://www.w3.org/2000/svg">
  <rect width="1920" height="1080" fill="white" />
  <rect x="837" y="382" width="115" height="134" fill="white" />
  <path
    d="M942.457 405.495L921.486 384.524C919.236 382.275 916.187 381 913.013 381H861.998C855.374 381.025 850 386.399 850 393.023V497.002C850 503.626 855.374 509 861.998 509H933.984C940.607 509 945.981 503.626 945.981 497.002V413.994C945.981 410.819 944.707 407.745 942.457 405.495ZM933.009 413.019H913.988V393.997L933.009 413.019ZM861.998 497.002V393.023H901.99V419.018C901.99 422.342 904.664 425.016 907.989 425.016H933.984V497.002H861.998Z"
    fill="black" />
  <path
    d="M879.06 458.788C880.596 458.788 881.832 458.278 882.768 457.258C883.704 456.226 884.196 454.828 884.244 453.064V437.476C884.196 435.724 883.704 434.332 882.768 433.3C881.832 432.268 880.596 431.752 879.06 431.752C877.536 431.752 876.306 432.268 875.37 433.3C874.434 434.32 873.936 435.712 873.875 437.476V453.064C873.948 454.84 874.446 456.238 875.37 457.258C876.294 458.278 877.524 458.788 879.06 458.788ZM879.06 455.008C878.652 455.008 878.334 454.834 878.106 454.486C877.878 454.138 877.764 453.664 877.764 453.064V437.476C877.764 436.18 878.196 435.532 879.06 435.532C879.924 435.532 880.356 436.18 880.356 437.476V453.064C880.356 453.664 880.242 454.138 880.014 454.486C879.786 454.834 879.468 455.008 879.06 455.008ZM886.854 458.5H890.742V447.916C892.974 447.916 894.672 447.196 895.836 445.756C897 444.304 897.582 442.372 897.582 439.96C897.582 437.416 896.988 435.46 895.8 434.092C894.624 432.724 892.938 432.04 890.742 432.04H886.854V458.5ZM890.742 443.956V436C892.026 436 892.83 436.336 893.154 437.008C893.49 437.68 893.658 438.712 893.658 440.104C893.658 441.496 893.49 442.486 893.154 443.074C892.818 443.662 892.014 443.956 890.742 443.956ZM899.51 458.5H908.402V454.504H903.398V447.232H906.998V442.984H903.398V436.036H908.402V432.04H899.51V458.5ZM910.549 458.5H914.113V443.488H914.329L914.653 444.712L918.433 458.5H921.889V432.04H918.325V447.052H918.109L917.785 445.828L914.005 432.04H910.549V458.5Z"
    fill="black" />
  <path
    d="M881.907 488H885.687L886.407 482.6H890.151L890.871 488H894.651L890.655 461.54H885.903L881.907 488ZM886.947 478.496L888.063 470.144L888.171 469.46H888.387L888.495 470.144L889.611 478.496H886.947ZM896.452 488H900.34V477.416C902.572 477.416 904.27 476.696 905.434 475.256C906.598 473.804 907.18 471.872 907.18 469.46C907.18 466.916 906.586 464.96 905.398 463.592C904.222 462.224 902.536 461.54 900.34 461.54H896.452V488ZM900.34 473.456V465.5C901.624 465.5 902.428 465.836 902.752 466.508C903.088 467.18 903.256 468.212 903.256 469.604C903.256 470.996 903.088 471.986 902.752 472.574C902.416 473.162 901.612 473.456 900.34 473.456ZM909.108 488H912.996V461.54H909.108V488Z"
    fill="black" />
</svg>