<svg width="1920" height="1080" viewBox="0 0 1920 1080" fill="none" xmlns="http://www.w3.org/2000/svg">
<rect width="1920" height="1080" fill="white"/>
<path d="M1387.43 233.598C1387.76 232.257 1386.94 230.903 1385.6 230.573L1363.75 225.191C1362.41 224.861 1361.06 225.68 1360.73 227.021C1360.4 228.361 1361.21 229.716 1362.56 230.046L1381.97 234.83L1377.19 254.249C1376.86 255.59 1377.68 256.944 1379.02 257.274C1380.36 257.605 1381.72 256.786 1382.05 255.445L1387.43 233.598ZM1090.29 414.139L1386.29 235.139L1383.71 230.861L1087.71 409.861L1090.29 414.139Z" fill="black"/>
<path d="M466.232 537.732C465.255 538.709 465.255 540.291 466.232 541.268L482.141 557.178C483.118 558.154 484.701 558.154 485.677 557.178C486.653 556.201 486.653 554.618 485.677 553.642L471.535 539.5L485.677 525.358C486.653 524.382 486.653 522.799 485.677 521.822C484.701 520.846 483.118 520.846 482.141 521.822L466.232 537.732ZM824.001 537L467.999 537L467.999 542L824.001 542L824.001 537Z" fill="black"/>
<path d="M1416.77 543.762C1417.75 542.783 1417.74 541.2 1416.76 540.227L1400.8 524.366C1399.82 523.392 1398.24 523.397 1397.27 524.377C1396.29 525.356 1396.3 526.939 1397.28 527.912L1411.46 542.011L1397.37 556.196C1396.39 557.176 1396.4 558.759 1397.38 559.732C1398.36 560.705 1399.94 560.7 1400.91 559.721L1416.77 543.762ZM1089.01 545.5L1415.01 544.5L1414.99 539.5L1088.99 540.5L1089.01 545.5Z" fill="black"/>
<path d="M1415.6 866.426C1416.94 866.092 1417.76 864.736 1417.43 863.396L1411.99 841.563C1411.65 840.223 1410.3 839.407 1408.96 839.741C1407.62 840.075 1406.8 841.431 1407.14 842.771L1411.97 862.178L1392.56 867.011C1391.22 867.345 1390.41 868.702 1390.74 870.042C1391.07 871.381 1392.43 872.197 1393.77 871.863L1415.6 866.426ZM1087.71 670.143L1413.71 866.143L1416.29 861.857L1090.29 665.857L1087.71 670.143Z" fill="black"/>
<path d="M312.337 407.829C306.145 412.184 299.127 417.12 295.367 425.286C288.836 439.532 308.731 455.072 309.581 455.727C309.779 455.879 310.016 455.955 310.251 455.955C310.502 455.955 310.753 455.869 310.956 455.699C311.351 455.368 311.463 454.807 311.226 454.35C311.154 454.212 304.013 440.341 304.278 430.389C304.372 426.923 309.223 422.992 314.358 418.829C319.061 415.016 324.392 410.695 327.511 405.64C334.359 394.513 326.748 383.571 326.67 383.462C326.368 383.037 325.81 382.884 325.333 383.093C324.856 383.303 324.592 383.818 324.701 384.328C324.716 384.401 326.196 391.636 322.078 399.091C320.382 402.171 316.654 404.793 312.337 407.829Z" fill="#DB380E"/>
<path d="M338.423 412.736C338.86 412.407 338.988 411.807 338.724 411.328C338.459 410.849 337.884 410.638 337.372 410.832C336.32 411.232 311.615 420.755 311.615 432.262C311.615 440.194 315.003 444.384 317.477 447.444C318.447 448.644 319.285 449.68 319.561 450.565C320.339 453.115 318.497 457.724 317.723 459.285C317.5 459.734 317.609 460.277 317.989 460.605C318.194 460.782 318.45 460.872 318.707 460.872C318.925 460.872 319.144 460.807 319.334 460.676C319.758 460.38 329.715 453.341 327.93 444.859C327.264 441.635 325.68 439.28 324.282 437.201C322.117 433.981 320.553 431.654 322.925 427.358C325.705 422.347 338.296 412.831 338.423 412.736Z" fill="#DB380E"/>
<path d="M274.113 461.054C273.69 462.322 273.89 463.58 274.691 464.693C277.369 468.411 286.856 470.458 301.404 470.458C301.405 470.458 301.405 470.458 301.406 470.458C303.377 470.458 305.458 470.419 307.59 470.343C330.851 469.51 339.478 462.264 339.834 461.956C340.222 461.62 340.325 461.061 340.084 460.609C339.843 460.157 339.323 459.93 338.826 460.066C330.634 462.303 315.337 463.097 304.727 463.097C292.855 463.097 286.808 462.242 285.328 461.61C286.088 460.567 290.772 458.705 296.578 457.563C297.132 457.454 297.514 456.942 297.459 456.379C297.404 455.816 296.931 455.387 296.366 455.387C292.963 455.387 275.897 455.66 274.113 461.054Z" fill="#73A1FB"/>
<path d="M351.947 453.59C347.15 453.59 342.6 455.995 342.409 456.097C341.965 456.334 341.74 456.843 341.862 457.332C341.984 457.82 342.423 458.163 342.926 458.164C343.028 458.164 353.16 458.247 354.078 464.036C354.891 469.03 344.491 477.122 340.415 479.819C339.975 480.11 339.804 480.673 340.009 481.159C340.183 481.574 340.586 481.833 341.021 481.833C341.097 481.833 341.174 481.825 341.25 481.809C342.218 481.602 364.911 476.601 362.512 463.388C361.048 455.29 355.959 453.59 351.947 453.59Z" fill="#73A1FB"/>
<path d="M336.384 478.202C336.463 477.779 336.287 477.348 335.935 477.101L330.493 473.289C330.228 473.103 329.893 473.045 329.581 473.128C329.525 473.142 323.834 474.638 315.573 475.555C312.294 475.923 308.621 476.117 304.952 476.117C296.692 476.117 291.292 475.147 290.505 474.435C290.401 474.235 290.434 474.144 290.453 474.094C290.596 473.696 291.362 473.224 291.855 473.037C292.4 472.836 292.694 472.243 292.525 471.688C292.356 471.131 291.782 470.804 291.216 470.939C285.758 472.257 283.089 474.099 283.283 476.414C283.628 480.519 293.137 482.626 301.176 483.183C302.332 483.262 303.582 483.302 304.891 483.302C304.891 483.302 304.892 483.302 304.893 483.302C318.26 483.302 335.396 479.108 335.567 479.066C335.986 478.964 336.305 478.626 336.384 478.202Z" fill="#73A1FB"/>
<path d="M295.361 487.012C295.773 486.744 295.956 486.235 295.81 485.765C295.664 485.296 295.225 484.988 294.732 484.994C294 485.014 287.574 485.304 287.124 489.395C286.988 490.618 287.338 491.735 288.166 492.715C290.473 495.45 296.701 497.075 307.203 497.684C308.446 497.758 309.708 497.796 310.955 497.796C324.307 497.796 333.299 493.615 333.675 493.437C334.04 493.265 334.281 492.906 334.303 492.503C334.324 492.1 334.123 491.717 333.778 491.507L326.902 487.309C326.663 487.163 326.378 487.115 326.105 487.171C326.062 487.18 321.696 488.085 315.106 488.98C313.859 489.15 312.298 489.236 310.466 489.236C303.884 489.236 296.562 488.16 295.158 487.456C295.138 487.325 295.164 487.158 295.361 487.012Z" fill="#73A1FB"/>
<path d="M304.732 510.418C335.315 510.392 351.729 504.953 354.891 501.531C356.011 500.32 356.132 499.174 356.037 498.425C355.802 496.583 354.123 495.455 353.933 495.332C353.474 495.037 352.858 495.114 352.5 495.527C352.143 495.94 352.134 496.544 352.493 496.956C352.686 497.204 352.797 497.62 352.233 498.184C350.969 499.365 338.219 502.949 316.991 504.025C314.083 504.176 311.033 504.253 307.926 504.254C288.919 504.254 275.009 501.65 273.183 500.133C273.887 499.122 278.807 497.506 284.04 496.592C284.629 496.49 285.028 495.934 284.936 495.342C284.845 494.751 284.3 494.344 283.704 494.422C283.556 494.442 283.055 494.471 282.475 494.507C273.842 495.034 263.865 496.209 263.344 500.657C263.186 502.013 263.589 503.244 264.542 504.315C266.874 506.934 273.575 510.418 304.731 510.418C304.732 510.418 304.732 510.418 304.732 510.418Z" fill="#73A1FB"/>
<path d="M360.899 502.495C360.466 502.295 359.955 502.396 359.633 502.744C359.588 502.793 354.99 507.601 341.165 510.424C335.872 511.485 325.937 512.023 311.636 512.023C297.308 512.023 283.674 511.459 283.539 511.453C282.969 511.425 282.482 511.839 282.405 512.4C282.327 512.96 282.688 513.488 283.238 513.619C283.38 513.653 297.668 517 317.204 517C326.573 517 335.691 516.239 344.304 514.737C360.364 511.922 361.488 503.959 361.528 503.621C361.584 503.15 361.33 502.695 360.899 502.495Z" fill="#73A1FB"/>
<g clip-path="url(#clip0_5_57)">
<path d="M1609.5 476H1506.5C1499.6 476 1494 481.596 1494 488.5V591.5C1494 598.404 1499.6 604 1506.5 604H1609.5C1616.4 604 1622 598.404 1622 591.5V488.5C1622 481.596 1616.4 476 1609.5 476Z" fill="#3178C6"/>
<path d="M1609.5 476H1506.5C1499.6 476 1494 481.596 1494 488.5V591.5C1494 598.404 1499.6 604 1506.5 604H1609.5C1616.4 604 1622 598.404 1622 591.5V488.5C1622 481.596 1616.4 476 1609.5 476Z" fill="#3178C6"/>
<path fill-rule="evenodd" clip-rule="evenodd" d="M1573.23 577.856V590.371C1575.27 591.414 1577.68 592.196 1580.45 592.718C1583.23 593.239 1586.16 593.5 1589.24 593.5C1592.24 593.5 1595.09 593.213 1597.79 592.64C1600.49 592.066 1602.85 591.121 1604.89 589.804C1606.92 588.487 1608.53 586.767 1609.72 584.642C1610.91 582.517 1611.5 579.89 1611.5 576.761C1611.5 574.493 1611.16 572.505 1610.48 570.797C1609.8 569.089 1608.83 567.57 1607.55 566.241C1606.27 564.911 1604.74 563.718 1602.95 562.662C1601.16 561.606 1599.15 560.608 1596.91 559.67C1595.26 558.992 1593.79 558.334 1592.48 557.695C1591.18 557.056 1590.07 556.404 1589.16 555.74C1588.25 555.075 1587.54 554.371 1587.05 553.628C1586.55 552.884 1586.3 552.044 1586.3 551.105C1586.3 550.245 1586.52 549.469 1586.97 548.778C1587.41 548.087 1588.04 547.494 1588.85 546.998C1589.65 546.503 1590.65 546.118 1591.82 545.844C1592.99 545.571 1594.3 545.434 1595.73 545.434C1596.78 545.434 1597.88 545.512 1599.04 545.669C1600.2 545.825 1601.37 546.066 1602.54 546.392C1603.71 546.718 1604.86 547.129 1605.96 547.624C1607.07 548.12 1608.1 548.693 1609.04 549.345V537.651C1607.13 536.921 1605.05 536.38 1602.79 536.028C1600.54 535.676 1597.95 535.5 1595.03 535.5C1592.05 535.5 1589.24 535.819 1586.58 536.458C1583.92 537.097 1581.58 538.094 1579.55 539.45C1577.53 540.806 1575.93 542.533 1574.76 544.632C1573.59 546.731 1573 549.241 1573 552.161C1573 555.889 1574.08 559.07 1576.23 561.704C1578.38 564.337 1581.65 566.566 1586.03 568.392C1587.75 569.096 1589.35 569.786 1590.84 570.464C1592.33 571.142 1593.61 571.846 1594.7 572.576C1595.78 573.306 1596.63 574.101 1597.26 574.962C1597.88 575.822 1598.2 576.8 1598.2 577.895C1598.2 578.703 1598 579.453 1597.61 580.144C1597.22 580.835 1596.63 581.435 1595.83 581.943C1595.03 582.451 1594.04 582.849 1592.86 583.136C1591.67 583.423 1590.28 583.566 1588.69 583.566C1585.98 583.566 1583.29 583.09 1580.63 582.138C1577.97 581.187 1575.5 579.76 1573.23 577.856ZM1552.19 547.021H1568.25V536.75H1523.5V547.021H1539.48V592.75H1552.19V547.021Z" fill="white"/>
</g>
<path d="M1701.99 187.454C1701.98 186.166 1701.97 184.88 1701.94 183.591C1701.86 180.787 1701.69 177.958 1701.2 175.185C1700.69 172.368 1699.86 169.749 1698.56 167.19C1697.28 164.678 1695.61 162.378 1693.62 160.384C1691.62 158.39 1689.32 156.719 1686.81 155.44C1684.25 154.138 1681.63 153.312 1678.82 152.806C1676.05 152.307 1673.22 152.142 1670.41 152.066C1669.12 152.031 1667.84 152.017 1666.55 152.009C1665.02 152 1663.49 152 1661.96 152H1614.04C1612.51 152 1610.98 152 1609.45 152.009C1608.17 152.017 1606.88 152.031 1605.59 152.066C1604.89 152.085 1604.19 152.11 1603.48 152.144C1601.37 152.245 1599.26 152.432 1597.18 152.807C1595.07 153.186 1593.07 153.746 1591.12 154.55C1590.47 154.819 1589.83 155.114 1589.19 155.44C1587.31 156.399 1585.54 157.579 1583.94 158.95C1583.4 159.407 1582.88 159.886 1582.38 160.384C1580.39 162.378 1578.72 164.677 1577.44 167.19C1576.14 169.749 1575.31 172.368 1574.81 175.185C1574.31 177.958 1574.14 180.787 1574.07 183.591C1574.03 184.879 1574.02 186.166 1574.01 187.453C1574 188.982 1574 190.512 1574 192.04V239.959C1574 241.489 1574 243.017 1574.01 244.547C1574.02 245.834 1574.03 247.121 1574.07 248.408C1574.14 251.213 1574.31 254.042 1574.81 256.814C1575.31 259.63 1576.14 262.252 1577.44 264.81C1578.72 267.323 1580.39 269.622 1582.38 271.615C1584.38 273.61 1586.68 275.281 1589.19 276.561C1591.75 277.863 1594.37 278.688 1597.18 279.193C1599.96 279.693 1602.79 279.859 1605.59 279.934C1606.88 279.968 1608.17 279.983 1609.45 279.99C1610.98 280.001 1612.51 280 1614.04 280H1661.96C1663.49 280 1665.02 280.001 1666.55 279.99C1667.84 279.983 1669.12 279.968 1670.41 279.934C1673.22 279.859 1676.05 279.692 1678.82 279.193C1681.63 278.688 1684.25 277.862 1686.81 276.561C1689.32 275.281 1691.62 273.61 1693.62 271.615C1695.61 269.622 1697.28 267.323 1698.56 264.81C1699.86 262.252 1700.69 259.63 1701.2 256.814C1701.69 254.042 1701.86 251.213 1701.94 248.408C1701.97 247.121 1701.98 245.834 1701.99 244.547C1702 243.017 1702 241.489 1702 239.959V192.04C1702 190.512 1702 188.982 1701.99 187.454H1701.99Z" fill="#F05138"/>
<path d="M1675.43 231.013C1675.42 231.009 1675.42 231.006 1675.42 231.003C1675.56 230.521 1675.71 230.042 1675.83 229.548C1681.14 208.382 1668.18 183.357 1646.23 170.182C1655.85 183.217 1660.1 199.004 1656.32 212.812C1655.99 214.044 1655.58 215.226 1655.13 216.375C1654.65 216.055 1654.04 215.693 1653.21 215.24C1653.21 215.24 1631.39 201.764 1607.73 177.929C1607.11 177.303 1620.35 196.845 1635.37 212.714C1628.29 208.743 1608.57 194.394 1596.08 182.968C1597.62 185.526 1599.44 187.989 1601.45 190.36C1611.87 203.582 1625.47 219.895 1641.76 232.424C1630.31 239.428 1614.14 239.972 1598.04 232.431C1594.06 230.565 1590.31 228.313 1586.85 225.754C1593.66 236.656 1604.16 246.062 1616.94 251.554C1632.17 258.102 1647.32 257.658 1658.61 251.662L1658.6 251.674C1658.65 251.642 1658.72 251.606 1658.77 251.573C1659.23 251.324 1659.69 251.071 1660.14 250.803C1665.57 247.988 1676.28 245.133 1682.02 256.317C1683.43 259.055 1686.42 244.549 1675.43 231.017L1675.43 231.013Z" fill="white"/>
<g clip-path="url(#clip1_5_57)">
<path d="M1416 280L1480.21 215.787L1544 280H1416Z" fill="url(#paint0_linear_5_57)"/>
<path d="M1416 152H1480.21L1416 221.333V152Z" fill="url(#paint1_linear_5_57)"/>
<path d="M1480.21 152L1416 219.627V280L1480.21 215.787L1544 152H1480.21Z" fill="url(#paint2_linear_5_57)"/>
</g>
<path d="M1758.85 969.771C1783.24 969.771 1803.01 949.998 1803.01 925.607C1803.01 901.217 1783.24 881.444 1758.85 881.444C1734.46 881.444 1714.69 901.217 1714.69 925.607C1714.69 949.998 1734.46 969.771 1758.85 969.771Z" fill="#05930C"/>
<path opacity="0.1" d="M1728.24 893.865C1723.75 897.865 1720.12 902.741 1717.59 908.192C1715.05 913.643 1713.65 919.556 1713.48 925.567C1713.3 931.578 1714.36 937.561 1716.58 943.149C1718.8 948.737 1722.14 953.813 1726.39 958.065C1730.64 962.317 1735.72 965.656 1741.31 967.877C1746.9 970.098 1752.88 971.155 1758.89 970.982C1764.9 970.809 1770.81 969.41 1776.27 966.872C1781.72 964.333 1786.59 960.708 1790.59 956.218L1728.24 893.865Z" fill="white"/>
<path d="M1756.68 941.547C1753.68 943.009 1750.36 943.711 1747.02 943.59C1744.82 943.687 1742.61 943.311 1740.57 942.487C1738.52 941.664 1736.67 940.411 1735.14 938.815C1732.07 935.376 1730.47 930.873 1730.68 926.27C1730.58 923.8 1730.96 921.335 1731.83 919.019C1732.69 916.703 1734.01 914.583 1735.71 912.786C1737.36 911.091 1739.36 909.76 1741.56 908.878C1743.76 907.996 1746.12 907.584 1748.49 907.666C1751.28 907.559 1754.07 908.029 1756.68 909.046V913.393C1754.15 911.987 1751.3 911.268 1748.4 911.309C1746.6 911.249 1744.81 911.576 1743.14 912.266C1741.47 912.956 1739.97 913.995 1738.74 915.312C1736.16 918.257 1734.82 922.093 1735.02 926.007C1734.82 929.706 1736.07 933.336 1738.49 936.137C1739.66 937.386 1741.07 938.37 1742.65 939.02C1744.23 939.67 1745.93 939.972 1747.63 939.905C1750.81 939.984 1753.95 939.177 1756.7 937.573L1756.68 941.547Z" fill="white"/>
<path d="M1787.5 917.961L1786.95 920.528H1780.6L1779.08 927.815H1785.9L1785.25 930.382H1778.57L1776.43 940.043H1773.38L1775.47 930.382H1769.39L1767.35 940.043H1764.37L1766.41 930.382H1760.01L1760.49 927.815H1766.92L1768.4 920.542H1761.68L1762.19 917.975H1768.91L1770.95 908.218H1774.03L1771.99 917.975H1778.1L1780.19 908.218H1783.17L1781.13 917.975L1787.5 917.961ZM1777.61 920.528H1771.48L1769.89 927.815H1776.05L1777.61 920.528Z" fill="white"/>
<path d="M1439.09 908.56C1438.62 908.56 1438.51 908.327 1438.74 907.977L1441.19 904.826C1441.42 904.476 1442.01 904.242 1442.47 904.242H1484.14C1484.61 904.242 1484.72 904.592 1484.49 904.942L1482.51 907.977C1482.27 908.327 1481.69 908.677 1481.34 908.677L1439.09 908.56Z" fill="#00ACD7"/>
<path d="M1421.47 919.298C1421 919.298 1420.88 919.064 1421.12 918.714L1423.57 915.563C1423.8 915.213 1424.38 914.979 1424.85 914.979H1478.07C1478.54 914.979 1478.77 915.33 1478.65 915.68L1477.72 918.481C1477.6 918.948 1477.14 919.181 1476.67 919.181L1421.47 919.298Z" fill="#00ACD7"/>
<path d="M1449.71 930.035C1449.24 930.035 1449.13 929.685 1449.36 929.335L1450.99 926.417C1451.23 926.067 1451.69 925.717 1452.16 925.717H1475.5C1475.97 925.717 1476.2 926.067 1476.2 926.534L1475.97 929.335C1475.97 929.802 1475.5 930.152 1475.15 930.152L1449.71 930.035Z" fill="#00ACD7"/>
<path d="M1570.86 906.46C1563.5 908.327 1558.48 909.728 1551.25 911.595C1549.5 912.062 1549.38 912.179 1547.86 910.428C1546.11 908.444 1544.83 907.16 1542.38 905.993C1535.03 902.375 1527.91 903.425 1521.25 907.744C1513.32 912.879 1509.23 920.465 1509.35 929.918C1509.47 939.255 1515.89 946.958 1525.11 948.242C1533.04 949.292 1539.69 946.491 1544.95 940.539C1546 939.255 1546.93 937.855 1548.1 936.221C1543.9 936.221 1538.64 936.221 1525.57 936.221C1523.12 936.221 1522.54 934.703 1523.35 932.719C1524.87 929.101 1527.67 923.033 1529.31 919.998C1529.66 919.298 1530.47 918.131 1532.22 918.131C1538.18 918.131 1560.12 918.131 1574.71 918.131C1574.47 921.282 1574.47 924.433 1574.01 927.584C1572.72 935.987 1569.57 943.69 1564.44 950.459C1556.03 961.547 1545.06 968.433 1531.17 970.3C1519.74 971.817 1509.12 969.6 1499.78 962.597C1491.14 956.061 1486.24 947.425 1484.96 936.688C1483.44 923.966 1487.17 912.529 1494.88 902.492C1503.16 891.638 1514.13 884.752 1527.56 882.301C1538.53 880.317 1549.03 881.601 1558.48 888.02C1564.67 892.104 1569.1 897.707 1572.02 904.476C1572.72 905.526 1572.26 906.11 1570.86 906.46Z" fill="#00ACD7"/>
<path d="M1609.49 971C1598.87 970.767 1589.18 967.732 1581.01 960.73C1574.12 954.777 1569.8 947.191 1568.4 938.205C1566.3 925.016 1569.92 913.345 1577.86 902.958C1586.38 891.754 1596.65 885.919 1610.54 883.468C1622.44 881.367 1633.64 882.534 1643.8 889.42C1653.02 895.722 1658.74 904.242 1660.25 915.446C1662.24 931.202 1657.69 944.04 1646.83 955.011C1639.13 962.83 1629.68 967.732 1618.82 969.95C1615.67 970.533 1612.52 970.65 1609.49 971ZM1637.26 923.849C1637.15 922.332 1637.15 921.165 1636.91 919.998C1634.81 908.444 1624.19 901.908 1613.1 904.476C1602.25 906.926 1595.25 913.812 1592.68 924.783C1590.58 933.886 1595.01 943.106 1603.42 946.841C1609.84 949.642 1616.25 949.292 1622.44 946.141C1631.66 941.356 1636.68 933.886 1637.26 923.849Z" fill="#00ACD7"/>
<path fill-rule="evenodd" clip-rule="evenodd" d="M1638.1 766C1637.87 766.003 1637.64 766.058 1637.43 766.179C1637.02 766.42 1636.76 766.863 1636.76 767.339V801.491C1636.76 801.826 1636.6 802.126 1636.31 802.295C1636.02 802.463 1635.67 802.463 1635.38 802.295L1629.8 799.08C1628.96 798.601 1627.95 798.601 1627.12 799.08L1604.84 811.937C1604.01 812.418 1603.5 813.342 1603.5 814.303V840.017C1603.5 840.978 1604.01 841.858 1604.84 842.339L1627.12 855.196C1627.95 855.676 1628.96 855.676 1629.8 855.196L1652.07 842.339C1652.91 841.858 1653.41 840.978 1653.41 840.017V775.911C1653.41 774.936 1652.88 774.02 1652.03 773.545L1638.77 766.134C1638.56 766.018 1638.33 765.998 1638.1 766V766ZM1494.8 798.098C1494.37 798.115 1493.97 798.189 1493.59 798.411L1471.32 811.268C1470.49 811.747 1469.98 812.621 1469.98 813.589L1470.02 848.098C1470.02 848.578 1470.27 849.023 1470.69 849.259C1471.1 849.506 1471.62 849.506 1472.03 849.259L1485.24 841.669C1486.08 841.172 1486.63 840.307 1486.63 839.348V823.232C1486.63 822.271 1487.13 821.388 1487.97 820.91L1493.59 817.652C1494.01 817.409 1494.46 817.294 1494.93 817.294C1495.39 817.294 1495.86 817.409 1496.27 817.652L1501.9 820.91C1502.73 821.388 1503.23 822.271 1503.23 823.232V839.348C1503.23 840.307 1503.79 841.177 1504.62 841.669L1517.83 849.259C1518.25 849.506 1518.76 849.506 1519.17 849.259C1519.58 849.023 1519.84 848.578 1519.84 848.098L1519.89 813.589C1519.89 812.621 1519.38 811.747 1518.55 811.268L1496.27 798.411C1495.89 798.189 1495.49 798.115 1495.07 798.098H1494.8H1494.8ZM1694.97 798.411C1694.51 798.41 1694.05 798.528 1693.64 798.768L1671.36 811.625C1670.53 812.105 1670.02 812.985 1670.02 813.946V839.66C1670.02 840.627 1670.56 841.504 1671.4 841.982L1693.5 854.571C1694.32 855.037 1695.31 855.072 1696.14 854.615L1709.53 847.16C1709.95 846.924 1710.24 846.484 1710.24 845.999C1710.24 845.514 1709.99 845.08 1709.57 844.838L1687.16 831.981C1686.74 831.742 1686.45 831.257 1686.45 830.776V822.74C1686.45 822.26 1686.75 821.82 1687.16 821.58L1694.13 817.562C1694.54 817.322 1695.05 817.322 1695.47 817.562L1702.43 821.58C1702.85 821.82 1703.1 822.26 1703.1 822.74V829.08C1703.1 829.561 1703.35 830 1703.77 830.24C1704.19 830.481 1704.69 830.482 1705.11 830.24L1718.46 822.473C1719.28 821.991 1719.8 821.109 1719.8 820.151V813.946C1719.8 812.987 1719.29 812.106 1718.46 811.624L1696.31 798.767C1695.9 798.526 1695.44 798.411 1694.97 798.41V798.411ZM1628.37 817.607C1628.48 817.607 1628.62 817.635 1628.72 817.695L1636.36 822.115C1636.57 822.235 1636.72 822.456 1636.72 822.695V831.535C1636.72 831.775 1636.57 831.996 1636.36 832.115L1628.72 836.535C1628.52 836.653 1628.26 836.653 1628.06 836.535L1620.42 832.115C1620.21 831.995 1620.06 831.775 1620.06 831.535V822.695C1620.06 822.456 1620.21 822.236 1620.42 822.115L1628.06 817.696C1628.16 817.636 1628.25 817.608 1628.37 817.608V817.607Z" fill="#404137"/>
<path fill-rule="evenodd" clip-rule="evenodd" d="M1761.71 797.786C1760.94 797.786 1760.19 797.945 1759.53 798.321L1738.5 810.464C1737.14 811.248 1736.31 812.728 1736.31 814.303V838.544C1736.31 840.118 1737.14 841.598 1738.5 842.383L1743.99 845.553C1746.66 846.868 1747.64 846.848 1748.86 846.848C1752.81 846.848 1755.06 844.451 1755.06 840.285V816.357C1755.06 816.019 1754.77 815.777 1754.44 815.777H1751.8C1751.47 815.777 1751.18 816.019 1751.18 816.357V840.285C1751.18 842.132 1749.26 843.989 1746.13 842.428L1740.42 839.08C1740.22 838.97 1740.06 838.776 1740.06 838.544V814.303C1740.06 814.073 1740.22 813.84 1740.42 813.723L1761.4 801.625C1761.6 801.512 1761.83 801.512 1762.03 801.625L1783.01 813.723C1783.21 813.843 1783.37 814.066 1783.37 814.303V838.544C1783.37 838.776 1783.25 839.013 1783.05 839.125L1762.03 851.223C1761.85 851.33 1761.6 851.33 1761.4 851.223L1756 848.009C1755.84 847.914 1755.62 847.921 1755.46 848.009C1753.97 848.854 1753.69 848.952 1752.3 849.437C1751.95 849.557 1751.43 849.744 1752.47 850.33L1759.53 854.482C1760.2 854.87 1760.95 855.062 1761.71 855.062C1762.49 855.062 1763.23 854.87 1763.9 854.482L1784.93 842.383C1786.29 841.592 1787.12 840.118 1787.12 838.544V814.303C1787.12 812.728 1786.29 811.251 1784.93 810.464L1763.9 798.321C1763.24 797.945 1762.49 797.786 1761.71 797.786ZM1561.72 798.277C1561.25 798.277 1560.79 798.394 1560.38 798.634L1538.1 811.446C1537.27 811.926 1536.76 812.852 1536.76 813.812V839.526C1536.76 840.488 1537.27 841.367 1538.1 841.848L1560.38 854.705C1561.21 855.186 1562.22 855.186 1563.06 854.705L1585.33 841.848C1586.16 841.367 1586.67 840.488 1586.67 839.526V813.812C1586.67 812.85 1586.16 811.926 1585.33 811.446L1563.06 798.634C1562.64 798.394 1562.18 798.277 1561.72 798.277ZM1792.92 798.411V799.036H1794.66V803.634H1795.38V799.036H1797.16V798.411H1792.92ZM1797.79 798.411V803.634H1798.46V800.554C1798.46 800.428 1798.46 800.234 1798.46 799.973C1798.45 799.708 1798.46 799.478 1798.46 799.348V799.214L1799.93 803.634H1800.64L1802.16 799.214C1802.16 799.495 1802.12 799.767 1802.12 800.018C1802.11 800.262 1802.12 800.445 1802.12 800.553V803.634H1802.79V798.411H1801.8L1800.29 802.83L1798.81 798.411H1797.79L1797.79 798.411ZM1767.34 815.107C1761.35 815.107 1757.79 817.655 1757.79 821.893C1757.79 826.49 1761.33 827.753 1767.07 828.321C1773.95 828.994 1774.48 830.004 1774.48 831.357C1774.48 833.704 1772.61 834.705 1768.19 834.705C1762.63 834.705 1761.41 833.318 1761 830.554C1760.95 830.257 1760.72 830.018 1760.42 830.018H1757.7C1757.36 830.018 1757.07 830.307 1757.07 830.643C1757.07 834.181 1759 838.366 1768.19 838.366C1774.84 838.366 1778.68 835.754 1778.68 831.179C1778.68 826.642 1775.58 825.425 1769.13 824.571C1762.6 823.709 1761.98 823.286 1761.98 821.759C1761.98 820.498 1762.51 818.813 1767.34 818.813C1771.65 818.813 1773.25 819.743 1773.9 822.652C1773.96 822.925 1774.2 823.143 1774.48 823.143H1777.21C1777.37 823.143 1777.54 823.04 1777.65 822.92C1777.77 822.791 1777.85 822.646 1777.83 822.473C1777.41 817.464 1774.07 815.107 1767.34 815.107ZM1694.93 821.223C1694.84 821.223 1694.74 821.223 1694.66 821.268L1690.38 823.768C1690.22 823.859 1690.11 824.029 1690.11 824.214V829.125C1690.11 829.31 1690.22 829.479 1690.38 829.571L1694.66 832.026C1694.82 832.119 1694.99 832.119 1695.15 832.026L1699.44 829.571C1699.6 829.48 1699.71 829.31 1699.71 829.125V824.214C1699.71 824.029 1699.6 823.86 1699.44 823.768L1695.15 821.268C1695.07 821.22 1695.02 821.223 1694.93 821.223Z" fill="#83CD29"/>
<path d="M265.789 663.196L270.389 665.852L321.637 577.09L317.037 574.434L265.789 663.196Z" fill="#E535AB"/>
<path d="M367.232 656.104H264.736V661.416H367.232V656.104Z" fill="#E535AB"/>
<path d="M266.764 659.088L318.031 688.688L320.687 684.088L269.42 654.488L266.764 659.088Z" fill="#E535AB"/>
<path d="M311.3 581.943L362.567 611.543L365.223 606.943L313.956 577.343L311.3 581.943Z" fill="#E535AB"/>
<path d="M266.779 606.923L269.435 611.523L320.702 581.923L318.046 577.323L266.779 606.923Z" fill="#E535AB"/>
<path d="M310.374 577.091L361.622 665.853L366.222 663.197L314.974 574.435L310.374 577.091Z" fill="#E535AB"/>
<path d="M274.112 603.4H268.8V662.6H274.112V603.4Z" fill="#E535AB"/>
<path d="M363.2 603.4H357.888V662.6H363.2V603.4Z" fill="#E535AB"/>
<path d="M314.807 682.422L317.127 686.44L361.716 660.696L359.396 656.678L314.807 682.422Z" fill="#E535AB"/>
<path d="M370.24 664.328C367.168 669.672 360.32 671.496 354.976 668.424C349.632 665.352 347.808 658.504 350.88 653.16C353.952 647.816 360.8 645.992 366.144 649.064C371.52 652.168 373.344 658.984 370.24 664.328Z" fill="#E535AB"/>
<path d="M281.088 612.84C278.016 618.184 271.168 620.008 265.824 616.936C260.48 613.864 258.656 607.016 261.728 601.672C264.8 596.328 271.648 594.504 276.992 597.576C282.336 600.68 284.16 607.496 281.088 612.84Z" fill="#E535AB"/>
<path d="M261.76 664.328C258.688 658.984 260.512 652.168 265.856 649.064C271.2 645.992 278.016 647.816 281.12 653.16C284.192 658.504 282.368 665.32 277.024 668.424C271.648 671.496 264.832 669.672 261.76 664.328Z" fill="#E535AB"/>
<path d="M350.912 612.84C347.84 607.496 349.664 600.68 355.008 597.576C360.352 594.504 367.168 596.328 370.272 601.672C373.344 607.016 371.52 613.832 366.176 616.936C360.832 620.008 353.984 618.184 350.912 612.84Z" fill="#E535AB"/>
<path d="M316 695.656C309.824 695.656 304.832 690.664 304.832 684.488C304.832 678.312 309.824 673.32 316 673.32C322.176 673.32 327.168 678.312 327.168 684.488C327.168 690.632 322.176 695.656 316 695.656Z" fill="#E535AB"/>
<path d="M316 592.68C309.824 592.68 304.832 587.688 304.832 581.512C304.832 575.336 309.824 570.344 316 570.344C322.176 570.344 327.168 575.336 327.168 581.512C327.168 587.688 322.176 592.68 316 592.68Z" fill="#E535AB"/>
<g opacity="0.1">
<path d="M924 534H919C916.348 534 913.804 532.946 911.929 531.071C910.054 529.196 909 526.652 909 524V504C909 501.348 910.054 498.804 911.929 496.929C913.804 495.054 916.348 494 919 494H999C1001.65 494 1004.2 495.054 1006.07 496.929C1007.95 498.804 1009 501.348 1009 504V524C1009 526.652 1007.95 529.196 1006.07 531.071C1004.2 532.946 1001.65 534 999 534H994M924 554H919C916.348 554 913.804 555.054 911.929 556.929C910.054 558.804 909 561.348 909 564V584C909 586.652 910.054 589.196 911.929 591.071C913.804 592.946 916.348 594 919 594H999C1001.65 594 1004.2 592.946 1006.07 591.071C1007.95 589.196 1009 586.652 1009 584V564C1009 561.348 1007.95 558.804 1006.07 556.929C1004.2 555.054 1001.65 554 999 554H994M929 514H929.05M929 574H929.05" stroke="black" stroke-width="10" stroke-linecap="round" stroke-linejoin="round"/>
<path d="M959 559C967.284 559 974 552.284 974 544C974 535.716 967.284 529 959 529C950.715 529 944 535.716 944 544C944 552.284 950.715 559 959 559Z" stroke="black" stroke-width="10" stroke-linecap="round" stroke-linejoin="round"/>
<path d="M959 524V529M959 559V564M979 544H974M944 544H939M974 529L969.6 533.4M948.4 554.6L944 559M974 559L969.6 554.6M948.4 533.4L944 529" stroke="black" stroke-width="10" stroke-linecap="round" stroke-linejoin="round"/>
</g>
<rect x="824" y="386" width="115" height="134" fill="white"/>
<path d="M929.457 409.495L908.486 388.524C906.236 386.275 903.187 385 900.013 385H848.998C842.374 385.025 837 390.399 837 397.023V501.002C837 507.626 842.374 513 848.998 513H920.984C927.607 513 932.981 507.626 932.981 501.002V417.994C932.981 414.819 931.707 411.745 929.457 409.495ZM920.009 417.019H900.988V397.997L920.009 417.019ZM848.998 501.002V397.023H888.99V423.018C888.99 426.342 891.664 429.016 894.989 429.016H920.984V501.002H848.998Z" fill="black"/>
<path d="M866.06 462.788C867.596 462.788 868.832 462.278 869.768 461.258C870.704 460.226 871.196 458.828 871.244 457.064V441.476C871.196 439.724 870.704 438.332 869.768 437.3C868.832 436.268 867.596 435.752 866.06 435.752C864.536 435.752 863.306 436.268 862.37 437.3C861.434 438.32 860.936 439.712 860.875 441.476V457.064C860.948 458.84 861.446 460.238 862.37 461.258C863.294 462.278 864.524 462.788 866.06 462.788ZM866.06 459.008C865.652 459.008 865.334 458.834 865.106 458.486C864.878 458.138 864.764 457.664 864.764 457.064V441.476C864.764 440.18 865.196 439.532 866.06 439.532C866.924 439.532 867.356 440.18 867.356 441.476V457.064C867.356 457.664 867.242 458.138 867.014 458.486C866.786 458.834 866.468 459.008 866.06 459.008ZM873.854 462.5H877.742V451.916C879.974 451.916 881.672 451.196 882.836 449.756C884 448.304 884.582 446.372 884.582 443.96C884.582 441.416 883.988 439.46 882.8 438.092C881.624 436.724 879.938 436.04 877.742 436.04H873.854V462.5ZM877.742 447.956V440C879.026 440 879.83 440.336 880.154 441.008C880.49 441.68 880.658 442.712 880.658 444.104C880.658 445.496 880.49 446.486 880.154 447.074C879.818 447.662 879.014 447.956 877.742 447.956ZM886.51 462.5H895.402V458.504H890.398V451.232H893.998V446.984H890.398V440.036H895.402V436.04H886.51V462.5ZM897.549 462.5H901.113V447.488H901.329L901.653 448.712L905.433 462.5H908.889V436.04H905.325V451.052H905.109L904.785 449.828L901.005 436.04H897.549V462.5Z" fill="black"/>
<path d="M868.907 492H872.687L873.407 486.6H877.151L877.871 492H881.651L877.655 465.54H872.903L868.907 492ZM873.947 482.496L875.063 474.144L875.171 473.46H875.387L875.495 474.144L876.611 482.496H873.947ZM883.452 492H887.34V481.416C889.572 481.416 891.27 480.696 892.434 479.256C893.598 477.804 894.18 475.872 894.18 473.46C894.18 470.916 893.586 468.96 892.398 467.592C891.222 466.224 889.536 465.54 887.34 465.54H883.452V492ZM887.34 477.456V469.5C888.624 469.5 889.428 469.836 889.752 470.508C890.088 471.18 890.256 472.212 890.256 473.604C890.256 474.996 890.088 475.986 889.752 476.574C889.416 477.162 888.612 477.456 887.34 477.456ZM896.108 492H899.996V465.54H896.108V492Z" fill="black"/>
<g opacity="0.1">
<path d="M960.768 274.232C959.791 273.256 958.209 273.256 957.232 274.232L941.322 290.142C940.346 291.118 940.346 292.701 941.322 293.678C942.299 294.654 943.882 294.654 944.858 293.678L959 279.536L973.142 293.678C974.118 294.654 975.701 294.654 976.678 293.678C977.654 292.701 977.654 291.118 976.678 290.142L960.768 274.232ZM961.5 416L961.5 276L956.5 276L956.5 416L961.5 416Z" fill="black"/>
<path d="M916.333 133C916.333 129.464 917.738 126.072 920.238 123.572C922.739 121.071 926.13 119.667 929.667 119.667H991C992.751 119.667 994.485 120.011 996.102 120.681C997.72 121.352 999.19 122.334 1000.43 123.572C1001.67 124.81 1002.65 126.28 1003.32 127.897C1003.99 129.515 1004.33 131.249 1004.33 133V209C1004.33 210.061 1003.91 211.078 1003.16 211.828C1002.41 212.578 1001.39 213 1000.33 213H924.333C924.333 214.414 924.895 215.771 925.895 216.771C926.896 217.771 928.252 218.333 929.667 218.333H1000.33C1001.39 218.333 1002.41 218.755 1003.16 219.505C1003.91 220.255 1004.33 221.272 1004.33 222.333C1004.33 223.394 1003.91 224.411 1003.16 225.162C1002.41 225.912 1001.39 226.333 1000.33 226.333H929.667C926.13 226.333 922.739 224.928 920.238 222.428C917.738 219.927 916.333 216.536 916.333 213V133ZM960.333 151.667C961.748 151.667 963.104 151.105 964.104 150.104C965.105 149.104 965.667 147.748 965.667 146.333C965.667 144.919 965.105 143.562 964.104 142.562C963.104 141.562 961.748 141 960.333 141C958.919 141 957.562 141.562 956.562 142.562C955.562 143.562 955 144.919 955 146.333C955 147.748 955.562 149.104 956.562 150.104C957.562 151.105 958.919 151.667 960.333 151.667ZM956.333 161V187.667C956.333 188.727 956.755 189.745 957.505 190.495C958.255 191.245 959.272 191.667 960.333 191.667C961.394 191.667 962.412 191.245 963.162 190.495C963.912 189.745 964.333 188.727 964.333 187.667V161C964.333 159.939 963.912 158.922 963.162 158.171C962.412 157.421 961.394 157 960.333 157C959.272 157 958.255 157.421 957.505 158.171C956.755 158.922 956.333 159.939 956.333 161Z" fill="black"/>
</g>
<defs>
<linearGradient id="paint0_linear_5_57" x1="1450.05" y1="309.897" x2="1510.52" y2="249.422" gradientUnits="userSpaceOnUse">
<stop offset="0.09677" stop-color="#0095D5"/>
<stop offset="0.3007" stop-color="#238AD9"/>
<stop offset="0.6211" stop-color="#557BDE"/>
<stop offset="0.8643" stop-color="#7472E2"/>
<stop offset="1" stop-color="#806EE3"/>
</linearGradient>
<linearGradient id="paint1_linear_5_57" x1="1424.98" y1="177.726" x2="1460.1" y2="142.603" gradientUnits="userSpaceOnUse">
<stop offset="0.1183" stop-color="#0095D5"/>
<stop offset="0.4178" stop-color="#3C83DC"/>
<stop offset="0.6962" stop-color="#6D74E1"/>
<stop offset="0.8333" stop-color="#806EE3"/>
</linearGradient>
<linearGradient id="paint2_linear_5_57" x1="1394.45" y1="269.683" x2="1513.56" y2="150.572" gradientUnits="userSpaceOnUse">
<stop offset="0.1075" stop-color="#C757BC"/>
<stop offset="0.2138" stop-color="#D0609A"/>
<stop offset="0.4254" stop-color="#E1725C"/>
<stop offset="0.6048" stop-color="#EE7E2F"/>
<stop offset="0.743" stop-color="#F58613"/>
<stop offset="0.8232" stop-color="#F88909"/>
</linearGradient>
<clipPath id="clip0_5_57">
<rect width="128" height="128" fill="white" transform="translate(1494 476)"/>
</clipPath>
<clipPath id="clip1_5_57">
<rect width="128" height="128" fill="white" transform="translate(1416 152)"/>
</clipPath>
</defs>
</svg>
