<svg width="1080" height="1080" viewBox="0 0 1080 1080" fill="none" xmlns="http://www.w3.org/2000/svg">
<rect width="1080" height="1080" fill="#EEEEEE"/>
<rect x="340" y="120" width="207" height="207" fill="#CCCCCC"/>
<rect x="369" y="258" width="149" height="10" rx="3" fill="#999999"/>
<rect x="368" y="288" width="149" height="10" rx="3" fill="#999999"/>
<path fill-rule="evenodd" clip-rule="evenodd" d="M518 223C518 181.579 484.421 148 443 148C401.579 148 368 181.579 368 223L405.003 223C405.001 222.834 405 222.667 405 222.5C405 201.789 421.789 185 442.5 185C463.211 185 480 201.789 480 222.5C480 222.667 479.999 222.834 479.997 223L518 223Z" fill="#999999"/>
<path fill-rule="evenodd" clip-rule="evenodd" d="M430.584 149.023L440.242 185.067C420.583 186.235 405 202.548 405 222.5C405 222.667 405.001 222.834 405.003 223L368 223C368 185.808 395.071 154.939 430.584 149.023Z" fill="#444444"/>
<path d="M418.151 228.932H426.528V232H430.057V228.932H432.222V225.974H430.057V214.545H425.438L418.151 226.026V228.932ZM426.597 225.974H421.866V225.838L426.46 218.568H426.597V225.974ZM441.055 232.239C444.942 232.239 447.584 229.707 447.575 226.179C447.584 222.838 445.249 220.435 442.104 220.435C440.57 220.435 439.249 221.074 438.635 221.935H438.533L438.984 217.562H446.612V214.545H435.942L435.115 223.75L438.396 224.338C438.933 223.614 439.973 223.162 441.004 223.162C442.76 223.17 444.021 224.44 444.021 226.273C444.021 228.088 442.786 229.341 441.055 229.341C439.589 229.341 438.405 228.42 438.32 227.065H434.74C434.808 230.082 437.442 232.239 441.055 232.239ZM459.703 228.727C459.712 230.824 461.05 232.605 463.547 232.605C466.018 232.605 467.399 230.824 467.391 228.727V227.807C467.399 225.693 466.053 223.929 463.547 223.929C461.084 223.929 459.712 225.71 459.703 227.807V228.727ZM450.746 218.739C450.754 220.835 452.092 222.599 454.581 222.599C457.061 222.599 458.442 220.852 458.433 218.739V217.818C458.442 215.705 457.095 213.94 454.581 213.94C452.143 213.94 450.754 215.705 450.746 217.818V218.739ZM451.581 232H453.805L465.805 214.545H463.581L451.581 232ZM462.183 227.807C462.192 226.972 462.524 226.111 463.547 226.111C464.621 226.111 464.902 226.972 464.893 227.807V228.727C464.902 229.562 464.587 230.406 463.547 230.406C462.507 230.406 462.192 229.537 462.183 228.727V227.807ZM453.243 217.818C453.251 217.009 453.567 216.122 454.581 216.122C455.655 216.122 455.945 216.983 455.936 217.818V218.739C455.945 219.574 455.621 220.418 454.581 220.418C453.575 220.418 453.251 219.574 453.243 218.739V217.818Z" fill="#444444"/>
<rect x="340" y="367" width="701" height="673" fill="#CCCCCC"/>
<path fill-rule="evenodd" clip-rule="evenodd" d="M390 418C401.046 418 410 409.046 410 398C410 386.954 401.046 378 390 378C378.954 378 370 386.954 370 398C370 409.046 378.954 418 390 418ZM394.75 393C394.75 395.762 392.512 398 389.75 398C386.988 398 384.75 395.762 384.75 393C384.75 390.238 386.988 388 389.75 388C392.512 388 394.75 390.238 394.75 393ZM392.598 399.25H393.25C396.148 399.25 398.5 401.602 398.5 404.5V406.125C398.5 407.16 397.66 408 396.625 408H382.875C381.84 408 381 407.16 381 406.125V404.5C381 401.602 383.352 399.25 386.25 399.25H386.902C387.773 399.648 388.734 399.875 389.75 399.875C390.766 399.875 391.73 399.648 392.598 399.25Z" fill="#444444"/>
<rect x="439" y="393" width="185" height="10" rx="3" fill="#999999"/>
<rect x="664" y="393" width="110" height="10" rx="3" fill="#999999"/>
<rect x="814" y="393" width="110" height="10" rx="3" fill="#999999"/>
<path d="M962.797 393.435L965.44 396.078C965.552 396.189 965.552 396.371 965.44 396.483L959.041 402.882L956.321 403.184C955.958 403.225 955.65 402.917 955.691 402.554L955.993 399.835L962.393 393.435C962.504 393.324 962.686 393.324 962.797 393.435ZM967.544 392.764L966.114 391.334C965.669 390.889 964.945 390.889 964.497 391.334L963.459 392.371C963.348 392.483 963.348 392.664 963.459 392.776L966.103 395.419C966.214 395.53 966.396 395.53 966.507 395.419L967.544 394.382C967.99 393.933 967.99 393.209 967.544 392.764ZM962.252 401.142V404.125H952.875V394.748H959.609C959.703 394.748 959.791 394.71 959.858 394.645L961.03 393.473C961.253 393.25 961.095 392.872 960.781 392.872H952.407C951.63 392.872 951 393.502 951 394.279V404.593C951 405.37 951.63 406 952.407 406H962.721C963.498 406 964.128 405.37 964.128 404.593V399.97C964.128 399.656 963.75 399.501 963.527 399.72L962.355 400.893C962.29 400.96 962.252 401.048 962.252 401.142Z" fill="#444444"/>
<path d="M1000.66 391.938H997.141L996.865 391.39C996.807 391.273 996.717 391.174 996.606 391.105C996.494 391.036 996.366 391 996.235 391H992.887C992.756 391 992.628 391.036 992.517 391.105C992.406 391.174 992.317 391.272 992.26 391.39L991.984 391.938H988.469C988.344 391.938 988.225 391.987 988.137 392.075C988.049 392.163 988 392.282 988 392.406V393.344C988 393.468 988.049 393.587 988.137 393.675C988.225 393.763 988.344 393.813 988.469 393.813H1000.66C1000.78 393.813 1000.9 393.763 1000.99 393.675C1001.08 393.587 1001.12 393.468 1001.12 393.344V392.406C1001.12 392.282 1001.08 392.163 1000.99 392.075C1000.9 391.987 1000.78 391.938 1000.66 391.938ZM989.559 404.682C989.581 405.039 989.739 405.374 989.999 405.619C990.26 405.864 990.604 406 990.962 406H998.163C998.521 406 998.865 405.864 999.126 405.619C999.386 405.374 999.544 405.039 999.566 404.682L1000.19 394.75H988.937L989.559 404.682Z" fill="#444444"/>
<path fill-rule="evenodd" clip-rule="evenodd" d="M390 662C401.046 662 410 653.046 410 642C410 630.954 401.046 622 390 622C378.954 622 370 630.954 370 642C370 653.046 378.954 662 390 662ZM394.75 637C394.75 639.762 392.512 642 389.75 642C386.988 642 384.75 639.762 384.75 637C384.75 634.238 386.988 632 389.75 632C392.512 632 394.75 634.238 394.75 637ZM392.598 643.25H393.25C396.148 643.25 398.5 645.602 398.5 648.5V650.125C398.5 651.16 397.66 652 396.625 652H382.875C381.84 652 381 651.16 381 650.125V648.5C381 645.602 383.352 643.25 386.25 643.25H386.902C387.773 643.648 388.734 643.875 389.75 643.875C390.766 643.875 391.73 643.648 392.598 643.25Z" fill="#444444"/>
<rect x="439" y="637" width="185" height="10" rx="3" fill="#999999"/>
<rect x="664" y="637" width="110" height="10" rx="3" fill="#999999"/>
<rect x="814" y="637" width="110" height="10" rx="3" fill="#999999"/>
<path d="M962.797 637.435L965.44 640.078C965.552 640.189 965.552 640.371 965.44 640.483L959.041 646.882L956.321 647.184C955.958 647.225 955.65 646.917 955.691 646.554L955.993 643.835L962.393 637.435C962.504 637.324 962.686 637.324 962.797 637.435ZM967.544 636.764L966.114 635.334C965.669 634.889 964.945 634.889 964.497 635.334L963.459 636.371C963.348 636.483 963.348 636.664 963.459 636.776L966.103 639.419C966.214 639.53 966.396 639.53 966.507 639.419L967.544 638.382C967.99 637.933 967.99 637.209 967.544 636.764ZM962.252 645.142V648.125H952.875V638.748H959.609C959.703 638.748 959.791 638.71 959.858 638.645L961.03 637.473C961.253 637.25 961.095 636.872 960.781 636.872H952.407C951.63 636.872 951 637.502 951 638.279V648.593C951 649.37 951.63 650 952.407 650H962.721C963.498 650 964.128 649.37 964.128 648.593V643.97C964.128 643.656 963.75 643.501 963.527 643.72L962.355 644.893C962.29 644.96 962.252 645.048 962.252 645.142Z" fill="#444444"/>
<path d="M1000.66 635.938H997.141L996.865 635.39C996.807 635.273 996.717 635.174 996.606 635.105C996.494 635.036 996.366 635 996.235 635H992.887C992.756 635 992.628 635.036 992.517 635.105C992.406 635.174 992.317 635.272 992.26 635.39L991.984 635.938H988.469C988.344 635.938 988.225 635.987 988.137 636.075C988.049 636.163 988 636.282 988 636.406V637.344C988 637.468 988.049 637.587 988.137 637.675C988.225 637.763 988.344 637.813 988.469 637.813H1000.66C1000.78 637.813 1000.9 637.763 1000.99 637.675C1001.08 637.587 1001.12 637.468 1001.12 637.344V636.406C1001.12 636.282 1001.08 636.163 1000.99 636.075C1000.9 635.987 1000.78 635.938 1000.66 635.938ZM989.559 648.682C989.581 649.039 989.739 649.374 989.999 649.619C990.26 649.864 990.604 650 990.962 650H998.163C998.521 650 998.865 649.864 999.126 649.619C999.386 649.374 999.544 649.039 999.566 648.682L1000.19 638.75H988.937L989.559 648.682Z" fill="#444444"/>
<path fill-rule="evenodd" clip-rule="evenodd" d="M390 538C401.046 538 410 529.046 410 518C410 506.954 401.046 498 390 498C378.954 498 370 506.954 370 518C370 529.046 378.954 538 390 538ZM394.75 513C394.75 515.762 392.512 518 389.75 518C386.988 518 384.75 515.762 384.75 513C384.75 510.238 386.988 508 389.75 508C392.512 508 394.75 510.238 394.75 513ZM392.598 519.25H393.25C396.148 519.25 398.5 521.602 398.5 524.5V526.125C398.5 527.16 397.66 528 396.625 528H382.875C381.84 528 381 527.16 381 526.125V524.5C381 521.602 383.352 519.25 386.25 519.25H386.902C387.773 519.648 388.734 519.875 389.75 519.875C390.766 519.875 391.73 519.648 392.598 519.25Z" fill="#444444"/>
<rect x="439" y="513" width="185" height="10" rx="3" fill="#999999"/>
<rect x="664" y="513" width="110" height="10" rx="3" fill="#999999"/>
<rect x="814" y="513" width="110" height="10" rx="3" fill="#999999"/>
<path d="M962.797 513.435L965.44 516.078C965.552 516.189 965.552 516.371 965.44 516.483L959.041 522.882L956.321 523.184C955.958 523.225 955.65 522.917 955.691 522.554L955.993 519.835L962.393 513.435C962.504 513.324 962.686 513.324 962.797 513.435ZM967.544 512.764L966.114 511.334C965.669 510.889 964.945 510.889 964.497 511.334L963.459 512.371C963.348 512.483 963.348 512.664 963.459 512.776L966.103 515.419C966.214 515.53 966.396 515.53 966.507 515.419L967.544 514.382C967.99 513.933 967.99 513.209 967.544 512.764ZM962.252 521.142V524.125H952.875V514.748H959.609C959.703 514.748 959.791 514.71 959.858 514.645L961.03 513.473C961.253 513.25 961.095 512.872 960.781 512.872H952.407C951.63 512.872 951 513.502 951 514.279V524.593C951 525.37 951.63 526 952.407 526H962.721C963.498 526 964.128 525.37 964.128 524.593V519.97C964.128 519.656 963.75 519.501 963.527 519.72L962.355 520.893C962.29 520.96 962.252 521.048 962.252 521.142Z" fill="#444444"/>
<path d="M1000.66 511.938H997.141L996.865 511.39C996.807 511.273 996.717 511.174 996.606 511.105C996.494 511.036 996.366 511 996.235 511H992.887C992.756 511 992.628 511.036 992.517 511.105C992.406 511.174 992.317 511.272 992.26 511.39L991.984 511.938H988.469C988.344 511.938 988.225 511.987 988.137 512.075C988.049 512.163 988 512.282 988 512.406V513.344C988 513.468 988.049 513.587 988.137 513.675C988.225 513.763 988.344 513.813 988.469 513.813H1000.66C1000.78 513.813 1000.9 513.763 1000.99 513.675C1001.08 513.587 1001.12 513.468 1001.12 513.344V512.406C1001.12 512.282 1001.08 512.163 1000.99 512.075C1000.9 511.987 1000.78 511.938 1000.66 511.938ZM989.559 524.682C989.581 525.039 989.739 525.374 989.999 525.619C990.26 525.864 990.604 526 990.962 526H998.163C998.521 526 998.865 525.864 999.126 525.619C999.386 525.374 999.544 525.039 999.566 524.682L1000.19 514.75H988.937L989.559 524.682Z" fill="#444444"/>
<path fill-rule="evenodd" clip-rule="evenodd" d="M390 782C401.046 782 410 773.046 410 762C410 750.954 401.046 742 390 742C378.954 742 370 750.954 370 762C370 773.046 378.954 782 390 782ZM394.75 757C394.75 759.762 392.512 762 389.75 762C386.988 762 384.75 759.762 384.75 757C384.75 754.238 386.988 752 389.75 752C392.512 752 394.75 754.238 394.75 757ZM392.598 763.25H393.25C396.148 763.25 398.5 765.602 398.5 768.5V770.125C398.5 771.16 397.66 772 396.625 772H382.875C381.84 772 381 771.16 381 770.125V768.5C381 765.602 383.352 763.25 386.25 763.25H386.902C387.773 763.648 388.734 763.875 389.75 763.875C390.766 763.875 391.73 763.648 392.598 763.25Z" fill="#444444"/>
<rect x="439" y="757" width="185" height="10" rx="3" fill="#999999"/>
<rect x="664" y="757" width="110" height="10" rx="3" fill="#999999"/>
<rect x="814" y="757" width="110" height="10" rx="3" fill="#999999"/>
<path d="M962.797 757.435L965.44 760.078C965.552 760.189 965.552 760.371 965.44 760.483L959.041 766.882L956.321 767.184C955.958 767.225 955.65 766.917 955.691 766.554L955.993 763.835L962.393 757.435C962.504 757.324 962.686 757.324 962.797 757.435ZM967.544 756.764L966.114 755.334C965.669 754.889 964.945 754.889 964.497 755.334L963.459 756.371C963.348 756.483 963.348 756.664 963.459 756.776L966.103 759.419C966.214 759.53 966.396 759.53 966.507 759.419L967.544 758.382C967.99 757.933 967.99 757.209 967.544 756.764ZM962.252 765.142V768.125H952.875V758.748H959.609C959.703 758.748 959.791 758.71 959.858 758.645L961.03 757.473C961.253 757.25 961.095 756.872 960.781 756.872H952.407C951.63 756.872 951 757.502 951 758.279V768.593C951 769.37 951.63 770 952.407 770H962.721C963.498 770 964.128 769.37 964.128 768.593V763.97C964.128 763.656 963.75 763.501 963.527 763.72L962.355 764.893C962.29 764.96 962.252 765.048 962.252 765.142Z" fill="#444444"/>
<path d="M1000.66 755.938H997.141L996.865 755.39C996.807 755.273 996.717 755.174 996.606 755.105C996.494 755.036 996.366 755 996.235 755H992.887C992.756 755 992.628 755.036 992.517 755.105C992.406 755.174 992.317 755.272 992.26 755.39L991.984 755.938H988.469C988.344 755.938 988.225 755.987 988.137 756.075C988.049 756.163 988 756.282 988 756.406V757.344C988 757.468 988.049 757.587 988.137 757.675C988.225 757.763 988.344 757.813 988.469 757.813H1000.66C1000.78 757.813 1000.9 757.763 1000.99 757.675C1001.08 757.587 1001.12 757.468 1001.12 757.344V756.406C1001.12 756.282 1001.08 756.163 1000.99 756.075C1000.9 755.987 1000.78 755.938 1000.66 755.938ZM989.559 768.682C989.581 769.039 989.739 769.374 989.999 769.619C990.26 769.864 990.604 770 990.962 770H998.163C998.521 770 998.865 769.864 999.126 769.619C999.386 769.374 999.544 769.039 999.566 768.682L1000.19 758.75H988.937L989.559 768.682Z" fill="#444444"/>
<path fill-rule="evenodd" clip-rule="evenodd" d="M390 478C401.046 478 410 469.046 410 458C410 446.954 401.046 438 390 438C378.954 438 370 446.954 370 458C370 469.046 378.954 478 390 478ZM394.75 453C394.75 455.762 392.512 458 389.75 458C386.988 458 384.75 455.762 384.75 453C384.75 450.238 386.988 448 389.75 448C392.512 448 394.75 450.238 394.75 453ZM392.598 459.25H393.25C396.148 459.25 398.5 461.602 398.5 464.5V466.125C398.5 467.16 397.66 468 396.625 468H382.875C381.84 468 381 467.16 381 466.125V464.5C381 461.602 383.352 459.25 386.25 459.25H386.902C387.773 459.648 388.734 459.875 389.75 459.875C390.766 459.875 391.73 459.648 392.598 459.25Z" fill="#444444"/>
<rect x="439" y="453" width="185" height="10" rx="3" fill="#999999"/>
<rect x="664" y="453" width="110" height="10" rx="3" fill="#999999"/>
<rect x="814" y="453" width="110" height="10" rx="3" fill="#999999"/>
<path d="M962.797 453.435L965.44 456.078C965.552 456.189 965.552 456.371 965.44 456.483L959.041 462.882L956.321 463.184C955.958 463.225 955.65 462.917 955.691 462.554L955.993 459.835L962.393 453.435C962.504 453.324 962.686 453.324 962.797 453.435ZM967.544 452.764L966.114 451.334C965.669 450.889 964.945 450.889 964.497 451.334L963.459 452.371C963.348 452.483 963.348 452.664 963.459 452.776L966.103 455.419C966.214 455.53 966.396 455.53 966.507 455.419L967.544 454.382C967.99 453.933 967.99 453.209 967.544 452.764ZM962.252 461.142V464.125H952.875V454.748H959.609C959.703 454.748 959.791 454.71 959.858 454.645L961.03 453.473C961.253 453.25 961.095 452.872 960.781 452.872H952.407C951.63 452.872 951 453.502 951 454.279V464.593C951 465.37 951.63 466 952.407 466H962.721C963.498 466 964.128 465.37 964.128 464.593V459.97C964.128 459.656 963.75 459.501 963.527 459.72L962.355 460.893C962.29 460.96 962.252 461.048 962.252 461.142Z" fill="#444444"/>
<path d="M1000.66 451.938H997.141L996.865 451.39C996.807 451.273 996.717 451.174 996.606 451.105C996.494 451.036 996.366 451 996.235 451H992.887C992.756 451 992.628 451.036 992.517 451.105C992.406 451.174 992.317 451.272 992.26 451.39L991.984 451.938H988.469C988.344 451.938 988.225 451.987 988.137 452.075C988.049 452.163 988 452.282 988 452.406V453.344C988 453.468 988.049 453.587 988.137 453.675C988.225 453.763 988.344 453.813 988.469 453.813H1000.66C1000.78 453.813 1000.9 453.763 1000.99 453.675C1001.08 453.587 1001.12 453.468 1001.12 453.344V452.406C1001.12 452.282 1001.08 452.163 1000.99 452.075C1000.9 451.987 1000.78 451.938 1000.66 451.938ZM989.559 464.682C989.581 465.039 989.739 465.374 989.999 465.619C990.26 465.864 990.604 466 990.962 466H998.163C998.521 466 998.865 465.864 999.126 465.619C999.386 465.374 999.544 465.039 999.566 464.682L1000.19 454.75H988.937L989.559 464.682Z" fill="#444444"/>
<path fill-rule="evenodd" clip-rule="evenodd" d="M390 722C401.046 722 410 713.046 410 702C410 690.954 401.046 682 390 682C378.954 682 370 690.954 370 702C370 713.046 378.954 722 390 722ZM394.75 697C394.75 699.762 392.512 702 389.75 702C386.988 702 384.75 699.762 384.75 697C384.75 694.238 386.988 692 389.75 692C392.512 692 394.75 694.238 394.75 697ZM392.598 703.25H393.25C396.148 703.25 398.5 705.602 398.5 708.5V710.125C398.5 711.16 397.66 712 396.625 712H382.875C381.84 712 381 711.16 381 710.125V708.5C381 705.602 383.352 703.25 386.25 703.25H386.902C387.773 703.648 388.734 703.875 389.75 703.875C390.766 703.875 391.73 703.648 392.598 703.25Z" fill="#444444"/>
<rect x="439" y="697" width="185" height="10" rx="3" fill="#999999"/>
<rect x="664" y="697" width="110" height="10" rx="3" fill="#999999"/>
<rect x="814" y="697" width="110" height="10" rx="3" fill="#999999"/>
<path d="M962.797 697.435L965.44 700.078C965.552 700.189 965.552 700.371 965.44 700.483L959.041 706.882L956.321 707.184C955.958 707.225 955.65 706.917 955.691 706.554L955.993 703.835L962.393 697.435C962.504 697.324 962.686 697.324 962.797 697.435ZM967.544 696.764L966.114 695.334C965.669 694.889 964.945 694.889 964.497 695.334L963.459 696.371C963.348 696.483 963.348 696.664 963.459 696.776L966.103 699.419C966.214 699.53 966.396 699.53 966.507 699.419L967.544 698.382C967.99 697.933 967.99 697.209 967.544 696.764ZM962.252 705.142V708.125H952.875V698.748H959.609C959.703 698.748 959.791 698.71 959.858 698.645L961.03 697.473C961.253 697.25 961.095 696.872 960.781 696.872H952.407C951.63 696.872 951 697.502 951 698.279V708.593C951 709.37 951.63 710 952.407 710H962.721C963.498 710 964.128 709.37 964.128 708.593V703.97C964.128 703.656 963.75 703.501 963.527 703.72L962.355 704.893C962.29 704.96 962.252 705.048 962.252 705.142Z" fill="#444444"/>
<path d="M1000.66 695.938H997.141L996.865 695.39C996.807 695.273 996.717 695.174 996.606 695.105C996.494 695.036 996.366 695 996.235 695H992.887C992.756 695 992.628 695.036 992.517 695.105C992.406 695.174 992.317 695.272 992.26 695.39L991.984 695.938H988.469C988.344 695.938 988.225 695.987 988.137 696.075C988.049 696.163 988 696.282 988 696.406V697.344C988 697.468 988.049 697.587 988.137 697.675C988.225 697.763 988.344 697.813 988.469 697.813H1000.66C1000.78 697.813 1000.9 697.763 1000.99 697.675C1001.08 697.587 1001.12 697.468 1001.12 697.344V696.406C1001.12 696.282 1001.08 696.163 1000.99 696.075C1000.9 695.987 1000.78 695.938 1000.66 695.938ZM989.559 708.682C989.581 709.039 989.739 709.374 989.999 709.619C990.26 709.864 990.604 710 990.962 710H998.163C998.521 710 998.865 709.864 999.126 709.619C999.386 709.374 999.544 709.039 999.566 708.682L1000.19 698.75H988.937L989.559 708.682Z" fill="#444444"/>
<path fill-rule="evenodd" clip-rule="evenodd" d="M390 598C401.046 598 410 589.046 410 578C410 566.954 401.046 558 390 558C378.954 558 370 566.954 370 578C370 589.046 378.954 598 390 598ZM394.75 573C394.75 575.762 392.512 578 389.75 578C386.988 578 384.75 575.762 384.75 573C384.75 570.238 386.988 568 389.75 568C392.512 568 394.75 570.238 394.75 573ZM392.598 579.25H393.25C396.148 579.25 398.5 581.602 398.5 584.5V586.125C398.5 587.16 397.66 588 396.625 588H382.875C381.84 588 381 587.16 381 586.125V584.5C381 581.602 383.352 579.25 386.25 579.25H386.902C387.773 579.648 388.734 579.875 389.75 579.875C390.766 579.875 391.73 579.648 392.598 579.25Z" fill="#444444"/>
<rect x="439" y="573" width="185" height="10" rx="3" fill="#999999"/>
<rect x="664" y="573" width="110" height="10" rx="3" fill="#999999"/>
<rect x="814" y="573" width="110" height="10" rx="3" fill="#999999"/>
<path d="M962.797 573.435L965.44 576.078C965.552 576.189 965.552 576.371 965.44 576.483L959.041 582.882L956.321 583.184C955.958 583.225 955.65 582.917 955.691 582.554L955.993 579.835L962.393 573.435C962.504 573.324 962.686 573.324 962.797 573.435ZM967.544 572.764L966.114 571.334C965.669 570.889 964.945 570.889 964.497 571.334L963.459 572.371C963.348 572.483 963.348 572.664 963.459 572.776L966.103 575.419C966.214 575.53 966.396 575.53 966.507 575.419L967.544 574.382C967.99 573.933 967.99 573.209 967.544 572.764ZM962.252 581.142V584.125H952.875V574.748H959.609C959.703 574.748 959.791 574.71 959.858 574.645L961.03 573.473C961.253 573.25 961.095 572.872 960.781 572.872H952.407C951.63 572.872 951 573.502 951 574.279V584.593C951 585.37 951.63 586 952.407 586H962.721C963.498 586 964.128 585.37 964.128 584.593V579.97C964.128 579.656 963.75 579.501 963.527 579.72L962.355 580.893C962.29 580.96 962.252 581.048 962.252 581.142Z" fill="#444444"/>
<path d="M1000.66 571.938H997.141L996.865 571.39C996.807 571.273 996.717 571.174 996.606 571.105C996.494 571.036 996.366 571 996.235 571H992.887C992.756 571 992.628 571.036 992.517 571.105C992.406 571.174 992.317 571.272 992.26 571.39L991.984 571.938H988.469C988.344 571.938 988.225 571.987 988.137 572.075C988.049 572.163 988 572.282 988 572.406V573.344C988 573.468 988.049 573.587 988.137 573.675C988.225 573.763 988.344 573.813 988.469 573.813H1000.66C1000.78 573.813 1000.9 573.763 1000.99 573.675C1001.08 573.587 1001.12 573.468 1001.12 573.344V572.406C1001.12 572.282 1001.08 572.163 1000.99 572.075C1000.9 571.987 1000.78 571.938 1000.66 571.938ZM989.559 584.682C989.581 585.039 989.739 585.374 989.999 585.619C990.26 585.864 990.604 586 990.962 586H998.163C998.521 586 998.865 585.864 999.126 585.619C999.386 585.374 999.544 585.039 999.566 584.682L1000.19 574.75H988.937L989.559 584.682Z" fill="#444444"/>
<path fill-rule="evenodd" clip-rule="evenodd" d="M390 842C401.046 842 410 833.046 410 822C410 810.954 401.046 802 390 802C378.954 802 370 810.954 370 822C370 833.046 378.954 842 390 842ZM394.75 817C394.75 819.762 392.512 822 389.75 822C386.988 822 384.75 819.762 384.75 817C384.75 814.238 386.988 812 389.75 812C392.512 812 394.75 814.238 394.75 817ZM392.598 823.25H393.25C396.148 823.25 398.5 825.602 398.5 828.5V830.125C398.5 831.16 397.66 832 396.625 832H382.875C381.84 832 381 831.16 381 830.125V828.5C381 825.602 383.352 823.25 386.25 823.25H386.902C387.773 823.648 388.734 823.875 389.75 823.875C390.766 823.875 391.73 823.648 392.598 823.25Z" fill="#444444"/>
<rect x="439" y="817" width="185" height="10" rx="3" fill="#999999"/>
<rect x="664" y="817" width="110" height="10" rx="3" fill="#999999"/>
<rect x="814" y="817" width="110" height="10" rx="3" fill="#999999"/>
<path d="M962.797 817.435L965.44 820.078C965.552 820.189 965.552 820.371 965.44 820.483L959.041 826.882L956.321 827.184C955.958 827.225 955.65 826.917 955.691 826.554L955.993 823.835L962.393 817.435C962.504 817.324 962.686 817.324 962.797 817.435ZM967.544 816.764L966.114 815.334C965.669 814.889 964.945 814.889 964.497 815.334L963.459 816.371C963.348 816.483 963.348 816.664 963.459 816.776L966.103 819.419C966.214 819.53 966.396 819.53 966.507 819.419L967.544 818.382C967.99 817.933 967.99 817.209 967.544 816.764ZM962.252 825.142V828.125H952.875V818.748H959.609C959.703 818.748 959.791 818.71 959.858 818.645L961.03 817.473C961.253 817.25 961.095 816.872 960.781 816.872H952.407C951.63 816.872 951 817.502 951 818.279V828.593C951 829.37 951.63 830 952.407 830H962.721C963.498 830 964.128 829.37 964.128 828.593V823.97C964.128 823.656 963.75 823.501 963.527 823.72L962.355 824.893C962.29 824.96 962.252 825.048 962.252 825.142Z" fill="#444444"/>
<path d="M1000.66 815.938H997.141L996.865 815.39C996.807 815.273 996.717 815.174 996.606 815.105C996.494 815.036 996.366 815 996.235 815H992.887C992.756 815 992.628 815.036 992.517 815.105C992.406 815.174 992.317 815.272 992.26 815.39L991.984 815.938H988.469C988.344 815.938 988.225 815.987 988.137 816.075C988.049 816.163 988 816.282 988 816.406V817.344C988 817.468 988.049 817.587 988.137 817.675C988.225 817.763 988.344 817.813 988.469 817.813H1000.66C1000.78 817.813 1000.9 817.763 1000.99 817.675C1001.08 817.587 1001.12 817.468 1001.12 817.344V816.406C1001.12 816.282 1001.08 816.163 1000.99 816.075C1000.9 815.987 1000.78 815.938 1000.66 815.938ZM989.559 828.682C989.581 829.039 989.739 829.374 989.999 829.619C990.26 829.864 990.604 830 990.962 830H998.163C998.521 830 998.865 829.864 999.126 829.619C999.386 829.374 999.544 829.039 999.566 828.682L1000.19 818.75H988.937L989.559 828.682Z" fill="#444444"/>
<rect x="338" y="427" width="703" height="1" fill="#EEEEEE"/>
<rect x="338" y="671" width="703" height="1" fill="#EEEEEE"/>
<rect x="338" y="488" width="703" height="1" fill="#EEEEEE"/>
<rect x="338" y="732" width="703" height="1" fill="#EEEEEE"/>
<rect x="338" y="548" width="703" height="1" fill="#EEEEEE"/>
<rect x="338" y="792" width="703" height="1" fill="#EEEEEE"/>
<rect x="338" y="608" width="703" height="1" fill="#EEEEEE"/>
<rect x="338" y="852" width="703" height="1" fill="#EEEEEE"/>
<path fill-rule="evenodd" clip-rule="evenodd" d="M390 906C401.046 906 410 897.046 410 886C410 874.954 401.046 866 390 866C378.954 866 370 874.954 370 886C370 897.046 378.954 906 390 906ZM394.75 881C394.75 883.762 392.512 886 389.75 886C386.988 886 384.75 883.762 384.75 881C384.75 878.238 386.988 876 389.75 876C392.512 876 394.75 878.238 394.75 881ZM392.598 887.25H393.25C396.148 887.25 398.5 889.602 398.5 892.5V894.125C398.5 895.16 397.66 896 396.625 896H382.875C381.84 896 381 895.16 381 894.125V892.5C381 889.602 383.352 887.25 386.25 887.25H386.902C387.773 887.648 388.734 887.875 389.75 887.875C390.766 887.875 391.73 887.648 392.598 887.25Z" fill="#444444"/>
<rect x="439" y="881" width="185" height="10" rx="3" fill="#999999"/>
<rect x="664" y="881" width="110" height="10" rx="3" fill="#999999"/>
<rect x="814" y="881" width="110" height="10" rx="3" fill="#999999"/>
<path d="M962.797 881.435L965.44 884.078C965.552 884.189 965.552 884.371 965.44 884.483L959.041 890.882L956.321 891.184C955.958 891.225 955.65 890.917 955.691 890.554L955.993 887.835L962.393 881.435C962.504 881.324 962.686 881.324 962.797 881.435ZM967.544 880.764L966.114 879.334C965.669 878.889 964.945 878.889 964.497 879.334L963.459 880.371C963.348 880.483 963.348 880.664 963.459 880.776L966.103 883.419C966.214 883.53 966.396 883.53 966.507 883.419L967.544 882.382C967.99 881.933 967.99 881.209 967.544 880.764ZM962.252 889.142V892.125H952.875V882.748H959.609C959.703 882.748 959.791 882.71 959.858 882.645L961.03 881.473C961.253 881.25 961.095 880.872 960.781 880.872H952.407C951.63 880.872 951 881.502 951 882.279V892.593C951 893.37 951.63 894 952.407 894H962.721C963.498 894 964.128 893.37 964.128 892.593V887.97C964.128 887.656 963.75 887.501 963.527 887.72L962.355 888.893C962.29 888.96 962.252 889.048 962.252 889.142Z" fill="#444444"/>
<path d="M1000.66 879.938H997.141L996.865 879.39C996.807 879.273 996.717 879.174 996.606 879.105C996.494 879.036 996.366 879 996.235 879H992.887C992.756 879 992.628 879.036 992.517 879.105C992.406 879.174 992.317 879.272 992.26 879.39L991.984 879.938H988.469C988.344 879.938 988.225 879.987 988.137 880.075C988.049 880.163 988 880.282 988 880.406V881.344C988 881.468 988.049 881.587 988.137 881.675C988.225 881.763 988.344 881.813 988.469 881.813H1000.66C1000.78 881.813 1000.9 881.763 1000.99 881.675C1001.08 881.587 1001.12 881.468 1001.12 881.344V880.406C1001.12 880.282 1001.08 880.163 1000.99 880.075C1000.9 879.987 1000.78 879.938 1000.66 879.938ZM989.559 892.682C989.581 893.039 989.739 893.374 989.999 893.619C990.26 893.864 990.604 894 990.962 894H998.163C998.521 894 998.865 893.864 999.126 893.619C999.386 893.374 999.544 893.039 999.566 892.682L1000.19 882.75H988.937L989.559 892.682Z" fill="#444444"/>
<path fill-rule="evenodd" clip-rule="evenodd" d="M390 1026C401.046 1026 410 1017.05 410 1006C410 994.954 401.046 986 390 986C378.954 986 370 994.954 370 1006C370 1017.05 378.954 1026 390 1026ZM394.75 1001C394.75 1003.76 392.512 1006 389.75 1006C386.988 1006 384.75 1003.76 384.75 1001C384.75 998.238 386.988 996 389.75 996C392.512 996 394.75 998.238 394.75 1001ZM392.598 1007.25H393.25C396.148 1007.25 398.5 1009.6 398.5 1012.5V1014.12C398.5 1015.16 397.66 1016 396.625 1016H382.875C381.84 1016 381 1015.16 381 1014.12V1012.5C381 1009.6 383.352 1007.25 386.25 1007.25H386.902C387.773 1007.65 388.734 1007.88 389.75 1007.88C390.766 1007.88 391.73 1007.65 392.598 1007.25Z" fill="#444444"/>
<rect x="439" y="1001" width="185" height="10" rx="3" fill="#999999"/>
<rect x="664" y="1001" width="110" height="10" rx="3" fill="#999999"/>
<rect x="814" y="1001" width="110" height="10" rx="3" fill="#999999"/>
<path d="M962.797 1001.44L965.44 1004.08C965.552 1004.19 965.552 1004.37 965.44 1004.48L959.041 1010.88L956.321 1011.18C955.958 1011.23 955.65 1010.92 955.691 1010.55L955.993 1007.83L962.393 1001.44C962.504 1001.32 962.686 1001.32 962.797 1001.44ZM967.544 1000.76L966.114 999.334C965.669 998.889 964.945 998.889 964.497 999.334L963.459 1000.37C963.348 1000.48 963.348 1000.66 963.459 1000.78L966.103 1003.42C966.214 1003.53 966.396 1003.53 966.507 1003.42L967.544 1002.38C967.99 1001.93 967.99 1001.21 967.544 1000.76ZM962.252 1009.14V1012.12H952.875V1002.75H959.609C959.703 1002.75 959.791 1002.71 959.858 1002.65L961.03 1001.47C961.253 1001.25 961.095 1000.87 960.781 1000.87H952.407C951.63 1000.87 951 1001.5 951 1002.28V1012.59C951 1013.37 951.63 1014 952.407 1014H962.721C963.498 1014 964.128 1013.37 964.128 1012.59V1007.97C964.128 1007.66 963.75 1007.5 963.527 1007.72L962.355 1008.89C962.29 1008.96 962.252 1009.05 962.252 1009.14Z" fill="#444444"/>
<path d="M1000.66 999.938H997.141L996.865 999.39C996.807 999.273 996.717 999.174 996.606 999.105C996.494 999.036 996.366 999 996.235 999H992.887C992.756 999 992.628 999.036 992.517 999.105C992.406 999.174 992.317 999.272 992.26 999.39L991.984 999.938H988.469C988.344 999.938 988.225 999.987 988.137 1000.07C988.049 1000.16 988 1000.28 988 1000.41V1001.34C988 1001.47 988.049 1001.59 988.137 1001.68C988.225 1001.76 988.344 1001.81 988.469 1001.81H1000.66C1000.78 1001.81 1000.9 1001.76 1000.99 1001.68C1001.08 1001.59 1001.12 1001.47 1001.12 1001.34V1000.41C1001.12 1000.28 1001.08 1000.16 1000.99 1000.07C1000.9 999.987 1000.78 999.938 1000.66 999.938ZM989.559 1012.68C989.581 1013.04 989.739 1013.37 989.999 1013.62C990.26 1013.86 990.604 1014 990.962 1014H998.163C998.521 1014 998.865 1013.86 999.126 1013.62C999.386 1013.37 999.544 1013.04 999.566 1012.68L1000.19 1002.75H988.937L989.559 1012.68Z" fill="#444444"/>
<path fill-rule="evenodd" clip-rule="evenodd" d="M390 966C401.046 966 410 957.046 410 946C410 934.954 401.046 926 390 926C378.954 926 370 934.954 370 946C370 957.046 378.954 966 390 966ZM394.75 941C394.75 943.762 392.512 946 389.75 946C386.988 946 384.75 943.762 384.75 941C384.75 938.238 386.988 936 389.75 936C392.512 936 394.75 938.238 394.75 941ZM392.598 947.25H393.25C396.148 947.25 398.5 949.602 398.5 952.5V954.125C398.5 955.16 397.66 956 396.625 956H382.875C381.84 956 381 955.16 381 954.125V952.5C381 949.602 383.352 947.25 386.25 947.25H386.902C387.773 947.648 388.734 947.875 389.75 947.875C390.766 947.875 391.73 947.648 392.598 947.25Z" fill="#444444"/>
<rect x="439" y="941" width="185" height="10" rx="3" fill="#999999"/>
<rect x="664" y="941" width="110" height="10" rx="3" fill="#999999"/>
<rect x="814" y="941" width="110" height="10" rx="3" fill="#999999"/>
<path d="M962.797 941.435L965.44 944.078C965.552 944.189 965.552 944.371 965.44 944.483L959.041 950.882L956.321 951.184C955.958 951.225 955.65 950.917 955.691 950.554L955.993 947.835L962.393 941.435C962.504 941.324 962.686 941.324 962.797 941.435ZM967.544 940.764L966.114 939.334C965.669 938.889 964.945 938.889 964.497 939.334L963.459 940.371C963.348 940.483 963.348 940.664 963.459 940.776L966.103 943.419C966.214 943.53 966.396 943.53 966.507 943.419L967.544 942.382C967.99 941.933 967.99 941.209 967.544 940.764ZM962.252 949.142V952.125H952.875V942.748H959.609C959.703 942.748 959.791 942.71 959.858 942.645L961.03 941.473C961.253 941.25 961.095 940.872 960.781 940.872H952.407C951.63 940.872 951 941.502 951 942.279V952.593C951 953.37 951.63 954 952.407 954H962.721C963.498 954 964.128 953.37 964.128 952.593V947.97C964.128 947.656 963.75 947.501 963.527 947.72L962.355 948.893C962.29 948.96 962.252 949.048 962.252 949.142Z" fill="#444444"/>
<path d="M1000.66 939.938H997.141L996.865 939.39C996.807 939.273 996.717 939.174 996.606 939.105C996.494 939.036 996.366 939 996.235 939H992.887C992.756 939 992.628 939.036 992.517 939.105C992.406 939.174 992.317 939.272 992.26 939.39L991.984 939.938H988.469C988.344 939.938 988.225 939.987 988.137 940.075C988.049 940.163 988 940.282 988 940.406V941.344C988 941.468 988.049 941.587 988.137 941.675C988.225 941.763 988.344 941.813 988.469 941.813H1000.66C1000.78 941.813 1000.9 941.763 1000.99 941.675C1001.08 941.587 1001.12 941.468 1001.12 941.344V940.406C1001.12 940.282 1001.08 940.163 1000.99 940.075C1000.9 939.987 1000.78 939.938 1000.66 939.938ZM989.559 952.682C989.581 953.039 989.739 953.374 989.999 953.619C990.26 953.864 990.604 954 990.962 954H998.163C998.521 954 998.865 953.864 999.126 953.619C999.386 953.374 999.544 953.039 999.566 952.682L1000.19 942.75H988.937L989.559 952.682Z" fill="#444444"/>
<rect x="338" y="915" width="703" height="1" fill="#EEEEEE"/>
<rect x="338" y="976" width="703" height="1" fill="#EEEEEE"/>
<rect x="834" y="120" width="207" height="207" fill="#CCCCCC"/>
<g clip-path="url(#clip0)">
<path d="M898.938 170.445C898.953 170.297 899 170.156 899 170.008C899 167.25 896.758 165.008 894 165.008C893.016 165.008 892.109 165.305 891.336 165.789C889.961 162.758 886.922 160.633 883.375 160.633C878.547 160.633 874.625 164.547 874.625 169.383C874.625 169.617 874.68 169.836 874.695 170.062C870.82 170.352 867.75 173.555 867.75 177.508C867.75 181.648 871.109 185.008 875.25 185.008H896.5C900.641 185.008 904 181.648 904 177.508C904 174.219 901.875 171.461 898.938 170.445ZM865.313 168.68C861.898 165.266 861.898 159.719 865.313 156.312C868.727 152.898 874.273 152.898 877.688 156.312C878.445 157.07 879.008 157.945 879.43 158.867C880.195 158.578 881 158.398 881.828 158.281L884.156 151.336C884.469 150.406 883.586 149.531 882.656 149.836L875.797 152.125L872.555 145.656C872.125 144.781 870.875 144.781 870.438 145.656L867.203 152.125L860.336 149.836C859.414 149.531 858.531 150.414 858.836 151.336L861.125 158.195L854.656 161.438C853.781 161.875 853.781 163.117 854.656 163.555L861.125 166.789L858.836 173.648C858.523 174.578 859.406 175.453 860.336 175.148L866.281 173.172C866.758 172.203 867.375 171.32 868.125 170.555C867.102 170.133 866.141 169.508 865.313 168.68ZM864.938 162.492C864.938 165.68 867.227 168.336 870.242 168.922C870.867 168.555 871.516 168.234 872.211 168.008C872.633 164.547 874.633 161.562 877.477 159.805C876.445 157.531 874.156 155.938 871.5 155.938C867.883 155.938 864.938 158.875 864.938 162.492Z" fill="#444444"/>
</g>
<path d="M966.122 180H984.787V175.474H973.793V175.295L977.615 171.55C982.997 166.641 984.442 164.186 984.442 161.207C984.442 156.669 980.734 153.46 975.122 153.46C969.625 153.46 965.854 156.746 965.866 161.885H971.121C971.108 159.379 972.693 157.845 975.084 157.845C977.385 157.845 979.098 159.277 979.098 161.578C979.098 163.662 977.82 165.094 975.442 167.382L966.122 176.011V180ZM998.271 153.46C992.416 153.435 988.466 157.27 988.491 162.537C988.504 167.42 991.892 170.962 996.532 170.962C999.409 170.962 1001.97 169.568 1003.13 167.267H1003.31C1003.3 172.457 1001.49 175.615 998.079 175.615C996.072 175.615 994.627 174.516 994.206 172.611H988.747C989.258 177.021 992.838 180.358 998.079 180.358C1004.56 180.358 1008.74 175.116 1008.73 166.232C1008.72 156.746 1003.65 153.486 998.271 153.46ZM998.309 157.807C1000.85 157.807 1002.73 159.878 1002.76 162.371C1002.77 164.876 1000.79 166.947 998.258 166.947C995.701 166.947 993.873 164.953 993.86 162.384C993.835 159.827 995.74 157.807 998.309 157.807ZM1018.71 166.206C1022.19 166.206 1024.99 163.393 1024.99 159.929C1024.99 156.452 1022.19 153.639 1018.71 153.639C1015.25 153.639 1012.44 156.452 1012.44 159.929C1012.44 163.393 1015.25 166.206 1018.71 166.206ZM1018.71 162.575C1017.26 162.575 1016.07 161.386 1016.07 159.929C1016.07 158.459 1017.26 157.27 1018.71 157.27C1020.18 157.27 1021.36 158.459 1021.36 159.929C1021.36 161.386 1020.18 162.575 1018.71 162.575Z" fill="#444444"/>
<path fill-rule="evenodd" clip-rule="evenodd" d="M1041 272.658V327H834V252.878C842.557 255.444 850.57 270.612 858.175 285.005C865.635 299.125 872.701 312.5 879.5 312.5C888.378 312.5 893.851 302.89 899.397 293.15C905.095 283.144 910.872 273 920.5 273C930.195 273 935.464 279.249 940.625 285.37C945.577 291.244 950.43 297 959 297C966.473 297 970.026 285.784 974.096 272.932C979.558 255.689 985.952 235.5 1004 235.5C1016.85 235.5 1021.29 245.41 1025.6 255.042C1029.21 263.093 1032.73 270.949 1041 272.658Z" fill="#444444"/>
<rect x="587" y="120" width="207" height="207" fill="#CCCCCC"/>
<path d="M681.647 231.251V170.074C681.647 167.612 679.487 165.588 677.055 165.934C646.387 170.276 622.944 197.116 624.036 229.284C625.158 262.32 653.551 289.411 686.544 288.996C699.515 288.833 711.5 284.646 721.354 277.644C723.387 276.2 723.521 273.202 721.758 271.436L681.647 231.251Z" fill="#555555"/>
<path d="M698.324 157.009C729.067 159.134 753.634 183.744 755.754 214.543C755.917 216.894 753.94 218.874 751.588 218.874H694V161.186C694 158.829 695.976 156.847 698.324 157.009Z" fill="#999999"/>
<path d="M698.761 231.251H759.828C762.286 231.251 764.306 233.414 763.961 235.853C761.951 250.097 755.1 262.768 745.141 272.168C743.543 273.676 740.985 273.55 739.43 271.993L698.761 231.251Z" fill="#666666"/>
<rect y="80" width="300" height="1000" fill="#CCCCCC"/>
<rect x="20" y="120" width="220" height="10" rx="3" fill="#999999"/>
<path d="M279.151 125.663L271.56 133.254C271.194 133.621 270.6 133.621 270.234 133.254L269.349 132.369C268.983 132.004 268.982 131.411 269.347 131.045L275.363 125L269.347 118.955C268.982 118.589 268.983 117.997 269.349 117.631L270.234 116.746C270.6 116.379 271.194 116.379 271.56 116.746L279.151 124.337C279.517 124.703 279.517 125.297 279.151 125.663Z" fill="#444444"/>
<rect width="300" height="1" transform="matrix(1 0 0 -1 0 166)" fill="#EEEEEE"/>
<rect x="20" y="282" width="220" height="10" rx="3" fill="#999999"/>
<path d="M279.151 287.663L271.56 295.254C271.194 295.621 270.6 295.621 270.234 295.254L269.349 294.369C268.983 294.004 268.982 293.411 269.347 293.045L275.363 287L269.347 280.955C268.982 280.589 268.983 279.997 269.349 279.631L270.234 278.746C270.6 278.379 271.194 278.379 271.56 278.746L279.151 286.337C279.517 286.703 279.517 287.297 279.151 287.663Z" fill="#444444"/>
<rect width="300" height="1" transform="matrix(1 0 0 -1 0 328)" fill="#EEEEEE"/>
<rect x="20" y="201" width="220" height="10" rx="3" fill="#999999"/>
<path d="M279.151 206.663L271.56 214.254C271.194 214.621 270.6 214.621 270.234 214.254L269.349 213.369C268.983 213.004 268.982 212.411 269.347 212.045L275.363 206L269.347 199.955C268.982 199.589 268.983 198.997 269.349 198.631L270.234 197.746C270.6 197.379 271.194 197.379 271.56 197.746L279.151 205.337C279.517 205.703 279.517 206.297 279.151 206.663Z" fill="#444444"/>
<rect width="300" height="1" transform="matrix(1 0 0 -1 0 247)" fill="#EEEEEE"/>
<rect x="20" y="363" width="220" height="10" rx="3" fill="#999999"/>
<path d="M279.151 368.663L271.56 376.254C271.194 376.621 270.6 376.621 270.234 376.254L269.349 375.369C268.983 375.004 268.982 374.411 269.347 374.045L275.363 368L269.347 361.955C268.982 361.589 268.983 360.997 269.349 360.631L270.234 359.746C270.6 359.379 271.194 359.379 271.56 359.746L279.151 367.337C279.517 367.703 279.517 368.297 279.151 368.663Z" fill="#444444"/>
<rect width="300" height="1" transform="matrix(1 0 0 -1 0 409)" fill="#EEEEEE"/>
<rect x="95" y="1040" width="110" height="10" rx="3" fill="#999999"/>
<rect width="1080" height="80" fill="#444444"/>
<rect x="878" y="35" width="120" height="10" rx="3" fill="#999999"/>
<g clip-path="url(#clip1)">
<path d="M1030.59 45.1514L1023 37.5598C1022.63 37.1937 1022.63 36.6001 1023 36.234L1023.88 35.3486C1024.25 34.9831 1024.84 34.9824 1025.21 35.347L1031.25 41.3634L1037.29 35.347C1037.66 34.9824 1038.25 34.9831 1038.62 35.3486L1039.5 36.234C1039.87 36.6001 1039.87 37.1937 1039.5 37.5598L1031.91 45.1513C1031.55 45.5175 1030.95 45.5175 1030.59 45.1514Z" fill="#EEEEEE"/>
</g>
<path d="M21.517 49H25.2074V43.3409H28.3097C32.3239 43.3409 34.6591 40.946 34.6591 37.4602C34.6591 33.9915 32.3665 31.5455 28.4034 31.5455H21.517V49ZM25.2074 40.3835V34.5625H27.696C29.8267 34.5625 30.858 35.7216 30.858 37.4602C30.858 39.1903 29.8267 40.3835 27.7131 40.3835H25.2074ZM42.7429 49.2557C45.9815 49.2557 48.1634 47.679 48.6747 45.25L45.3168 45.0284C44.9503 46.0256 44.0128 46.5455 42.8026 46.5455C40.9872 46.5455 39.8366 45.3438 39.8366 43.392V43.3835H48.7514V42.3864C48.7514 37.9375 46.0582 35.7386 42.598 35.7386C38.7457 35.7386 36.2486 38.4744 36.2486 42.5142C36.2486 46.6648 38.7116 49.2557 42.7429 49.2557ZM39.8366 41.1335C39.9134 39.642 41.0469 38.4489 42.6577 38.4489C44.2344 38.4489 45.3253 39.5739 45.3338 41.1335H39.8366ZM58.0838 35.9091H55.6207V32.7727H51.9901V35.9091H50.2003V38.6364H51.9901V45.4545C51.973 48.0199 53.7202 49.2898 56.3537 49.179C57.2912 49.1449 57.956 48.9574 58.3224 48.8381L57.7514 46.1364C57.5724 46.1705 57.1889 46.2557 56.848 46.2557C56.1236 46.2557 55.6207 45.983 55.6207 44.9773V38.6364H58.0838V35.9091ZM66.2741 49.2557C69.5128 49.2557 71.6946 47.679 72.206 45.25L68.848 45.0284C68.4815 46.0256 67.544 46.5455 66.3338 46.5455C64.5185 46.5455 63.3679 45.3438 63.3679 43.392V43.3835H72.2827V42.3864C72.2827 37.9375 69.5895 35.7386 66.1293 35.7386C62.277 35.7386 59.7798 38.4744 59.7798 42.5142C59.7798 46.6648 62.2429 49.2557 66.2741 49.2557ZM63.3679 41.1335C63.4446 39.642 64.5781 38.4489 66.1889 38.4489C67.7656 38.4489 68.8565 39.5739 68.8651 41.1335H63.3679ZM74.652 49H78.2827V41.5938C78.2827 39.983 79.4588 38.875 81.0611 38.875C81.5639 38.875 82.2543 38.9602 82.5952 39.071V35.8494C82.2713 35.7727 81.8196 35.7216 81.4531 35.7216C79.9872 35.7216 78.7855 36.5739 78.3082 38.1932H78.1719V35.9091H74.652V49ZM87.9134 31.5455H85.1861V33.4034C85.1861 34.8438 84.6747 35.892 84.1037 36.7955L85.706 37.7415C86.9077 36.7358 87.9134 34.946 87.9134 33.3864V31.5455ZM99.5831 39.642C99.2592 37.2301 97.3161 35.7386 94.0092 35.7386C90.6598 35.7386 88.4524 37.2898 88.4609 39.8125C88.4524 41.7727 89.6882 43.0426 92.245 43.554L94.5121 44.0057C95.6541 44.2358 96.174 44.6534 96.1911 45.3097C96.174 46.0852 95.3303 46.6392 94.0604 46.6392C92.7649 46.6392 91.9041 46.0852 91.6825 45.0199L88.1115 45.2074C88.4524 47.7131 90.5831 49.2557 94.0518 49.2557C97.4439 49.2557 99.8729 47.5256 99.8814 44.9432C99.8729 43.0511 98.6371 41.9176 96.0973 41.3977L93.728 40.9205C92.5092 40.6562 92.0575 40.2386 92.0661 39.608C92.0575 38.8239 92.9439 38.3125 94.0689 38.3125C95.3303 38.3125 96.0803 39.0028 96.2592 39.8466L99.5831 39.642ZM107.594 37H110.322V35.142C110.322 33.804 110.765 32.7557 111.404 31.75L109.802 30.804C108.617 31.767 107.594 33.5994 107.594 35.1591V37ZM113.603 49H117.293V43.3409H120.396C124.41 43.3409 126.745 40.946 126.745 37.4602C126.745 33.9915 124.452 31.5455 120.489 31.5455H113.603V49ZM117.293 40.3835V34.5625H119.782C121.913 34.5625 122.944 35.7216 122.944 37.4602C122.944 39.1903 121.913 40.3835 119.799 40.3835H117.293ZM137.469 43.4261C137.477 45.1818 136.276 46.1023 134.972 46.1023C133.599 46.1023 132.713 45.1392 132.705 43.5966V35.9091H129.074V44.2443C129.082 47.304 130.872 49.1705 133.506 49.1705C135.474 49.1705 136.889 48.1562 137.477 46.6222H137.614V49H141.099V35.9091H137.469V43.4261ZM150.967 35.9091H148.504V32.7727H144.873V35.9091H143.083V38.6364H144.873V45.4545C144.856 48.0199 146.603 49.2898 149.237 49.179C150.174 49.1449 150.839 48.9574 151.205 48.8381L150.634 46.1364C150.455 46.1705 150.072 46.2557 149.731 46.2557C149.006 46.2557 148.504 45.983 148.504 44.9773V38.6364H150.967V35.9091ZM159.157 49.2557C162.396 49.2557 164.577 47.679 165.089 45.25L161.731 45.0284C161.364 46.0256 160.427 46.5455 159.217 46.5455C157.401 46.5455 156.251 45.3438 156.251 43.392V43.3835H165.165V42.3864C165.165 37.9375 162.472 35.7386 159.012 35.7386C155.16 35.7386 152.663 38.4744 152.663 42.5142C152.663 46.6648 155.126 49.2557 159.157 49.2557ZM156.251 41.1335C156.327 39.642 157.461 38.4489 159.072 38.4489C160.648 38.4489 161.739 39.5739 161.748 41.1335H156.251ZM167.535 49H171.165V41.5938C171.165 39.983 172.342 38.875 173.944 38.875C174.447 38.875 175.137 38.9602 175.478 39.071V35.8494C175.154 35.7727 174.702 35.7216 174.336 35.7216C172.87 35.7216 171.668 36.5739 171.191 38.1932H171.055V35.9091H167.535V49ZM188.247 39.642C187.923 37.2301 185.98 35.7386 182.673 35.7386C179.324 35.7386 177.116 37.2898 177.125 39.8125C177.116 41.7727 178.352 43.0426 180.909 43.554L183.176 44.0057C184.318 44.2358 184.838 44.6534 184.855 45.3097C184.838 46.0852 183.994 46.6392 182.724 46.6392C181.429 46.6392 180.568 46.0852 180.347 45.0199L176.776 45.2074C177.116 47.7131 179.247 49.2557 182.716 49.2557C186.108 49.2557 188.537 47.5256 188.545 44.9432C188.537 43.0511 187.301 41.9176 184.761 41.3977L182.392 40.9205C181.173 40.6562 180.722 40.2386 180.73 39.608C180.722 38.8239 181.608 38.3125 182.733 38.3125C183.994 38.3125 184.744 39.0028 184.923 39.8466L188.247 39.642ZM202.642 49C207.96 49 211.182 45.7102 211.182 40.2557C211.182 34.8182 207.96 31.5455 202.693 31.5455H196.455V49H202.642ZM200.145 45.8381V34.7074H202.497C205.77 34.7074 207.5 36.3778 207.5 40.2557C207.5 44.1506 205.77 45.8381 202.489 45.8381H200.145ZM217.58 49.2472C219.515 49.2472 220.768 48.4034 221.407 47.1847H221.509V49H224.952V40.1705C224.952 37.0511 222.31 35.7386 219.396 35.7386C216.259 35.7386 214.197 37.2386 213.694 39.625L217.052 39.8977C217.299 39.0284 218.075 38.3892 219.379 38.3892C220.614 38.3892 221.322 39.0114 221.322 40.0852V40.1364C221.322 40.9801 220.427 41.0909 218.151 41.3125C215.56 41.5511 213.234 42.4205 213.234 45.3438C213.234 47.9347 215.083 49.2472 217.58 49.2472ZM218.62 46.7415C217.504 46.7415 216.702 46.2216 216.702 45.2244C216.702 44.2017 217.546 43.6989 218.825 43.5199C219.617 43.4091 220.913 43.2216 221.347 42.9318V44.321C221.347 45.6932 220.214 46.7415 218.62 46.7415ZM238.661 39.642C238.337 37.2301 236.394 35.7386 233.087 35.7386C229.738 35.7386 227.531 37.2898 227.539 39.8125C227.531 41.7727 228.766 43.0426 231.323 43.554L233.59 44.0057C234.732 44.2358 235.252 44.6534 235.269 45.3097C235.252 46.0852 234.408 46.6392 233.138 46.6392C231.843 46.6392 230.982 46.0852 230.761 45.0199L227.19 45.2074C227.531 47.7131 229.661 49.2557 233.13 49.2557C236.522 49.2557 238.951 47.5256 238.96 44.9432C238.951 43.0511 237.715 41.9176 235.175 41.3977L232.806 40.9205C231.587 40.6562 231.136 40.2386 231.144 39.608C231.136 38.8239 232.022 38.3125 233.147 38.3125C234.408 38.3125 235.158 39.0028 235.337 39.8466L238.661 39.642ZM244.876 41.4318C244.885 39.7443 245.916 38.7557 247.399 38.7557C248.874 38.7557 249.743 39.7017 249.734 41.3125V49H253.365V40.6648C253.374 37.5966 251.567 35.7386 248.839 35.7386C246.854 35.7386 245.524 36.6761 244.928 38.2188H244.774V31.5455H241.246V49H244.876V41.4318ZM256.29 49H259.87V46.9034H260.032C260.535 47.9943 261.634 49.2131 263.748 49.2131C266.731 49.2131 269.058 46.8523 269.058 42.4716C269.058 37.9716 266.629 35.7386 263.756 35.7386C261.566 35.7386 260.518 37.0426 260.032 38.108H259.921V31.5455H256.29V49ZM259.844 42.4545C259.844 40.1193 260.833 38.6278 262.597 38.6278C264.396 38.6278 265.35 40.1875 265.35 42.4545C265.35 44.7386 264.379 46.3239 262.597 46.3239C260.85 46.3239 259.844 44.7898 259.844 42.4545ZM277.395 49.2557C281.366 49.2557 283.838 46.5369 283.838 42.5057C283.838 38.4489 281.366 35.7386 277.395 35.7386C273.423 35.7386 270.952 38.4489 270.952 42.5057C270.952 46.5369 273.423 49.2557 277.395 49.2557ZM277.412 46.4432C275.58 46.4432 274.642 44.7642 274.642 42.4801C274.642 40.196 275.58 38.5085 277.412 38.5085C279.21 38.5085 280.148 40.196 280.148 42.4801C280.148 44.7642 279.21 46.4432 277.412 46.4432ZM289.932 49.2472C291.866 49.2472 293.119 48.4034 293.759 47.1847H293.861V49H297.304V40.1705C297.304 37.0511 294.662 35.7386 291.747 35.7386C288.611 35.7386 286.548 37.2386 286.045 39.625L289.403 39.8977C289.651 39.0284 290.426 38.3892 291.73 38.3892C292.966 38.3892 293.673 39.0114 293.673 40.0852V40.1364C293.673 40.9801 292.778 41.0909 290.503 41.3125C287.912 41.5511 285.585 42.4205 285.585 45.3438C285.585 47.9347 287.435 49.2472 289.932 49.2472ZM290.972 46.7415C289.855 46.7415 289.054 46.2216 289.054 45.2244C289.054 44.2017 289.898 43.6989 291.176 43.5199C291.969 43.4091 293.264 43.2216 293.699 42.9318V44.321C293.699 45.6932 292.565 46.7415 290.972 46.7415ZM300.121 49H303.751V41.5938C303.751 39.983 304.928 38.875 306.53 38.875C307.033 38.875 307.723 38.9602 308.064 39.071V35.8494C307.74 35.7727 307.288 35.7216 306.922 35.7216C305.456 35.7216 304.254 36.5739 303.777 38.1932H303.641V35.9091H300.121V49ZM314.156 49.2131C316.269 49.2131 317.369 47.9943 317.871 46.9034H318.025V49H321.604V31.5455H317.982V38.108H317.871C317.386 37.0426 316.337 35.7386 314.147 35.7386C311.275 35.7386 308.846 37.9716 308.846 42.4716C308.846 46.8523 311.173 49.2131 314.156 49.2131ZM315.306 46.3239C313.525 46.3239 312.553 44.7386 312.553 42.4545C312.553 40.1875 313.508 38.6278 315.306 38.6278C317.07 38.6278 318.059 40.1193 318.059 42.4545C318.059 44.7898 317.053 46.3239 315.306 46.3239Z" fill="#EEEEEE"/>
<defs>
<clipPath id="clip0">
<rect width="50" height="40" fill="white" transform="translate(854 145)"/>
</clipPath>
<clipPath id="clip1">
<rect width="12.5" height="20" fill="white" transform="translate(1041.25 34) rotate(90)"/>
</clipPath>
</defs>
</svg>
