<svg width="1080" height="1080" viewBox="0 0 1080 1080" fill="none" xmlns="http://www.w3.org/2000/svg">
<g clip-path="url(#clip0)">
<rect width="1080" height="1080" fill="#EEEEEE"/>
<rect x="834" y="367" width="207" height="207" fill="#CCCCCC"/>
<rect x="863" y="505" width="149" height="10" rx="3" fill="#999999"/>
<rect x="862" y="535" width="149" height="10" rx="3" fill="#999999"/>
<path fill-rule="evenodd" clip-rule="evenodd" d="M1012 470C1012 428.579 978.421 395 937 395C895.579 395 862 428.579 862 470L899.003 470C899.001 469.834 899 469.667 899 469.5C899 448.789 915.789 432 936.5 432C957.211 432 974 448.789 974 469.5C974 469.667 973.999 469.834 973.997 470L1012 470Z" fill="#999999"/>
<path fill-rule="evenodd" clip-rule="evenodd" d="M924.584 396.023L934.242 432.067C914.583 433.235 899 449.548 899 469.5C899 469.667 899.001 469.834 899.003 470L862 470C862 432.808 889.071 401.939 924.584 396.023Z" fill="#444444"/>
<path d="M912.151 475.932H920.528V479H924.057V475.932H926.222V472.974H924.057V461.545H919.438L912.151 473.026V475.932ZM920.597 472.974H915.866V472.838L920.46 465.568H920.597V472.974ZM935.055 479.239C938.942 479.239 941.584 476.707 941.575 473.179C941.584 469.838 939.249 467.435 936.104 467.435C934.57 467.435 933.249 468.074 932.635 468.935H932.533L932.984 464.562H940.612V461.545H929.942L929.115 470.75L932.396 471.338C932.933 470.614 933.973 470.162 935.004 470.162C936.76 470.17 938.021 471.44 938.021 473.273C938.021 475.088 936.786 476.341 935.055 476.341C933.589 476.341 932.405 475.42 932.32 474.065H928.74C928.808 477.082 931.442 479.239 935.055 479.239ZM953.703 475.727C953.712 477.824 955.05 479.605 957.547 479.605C960.018 479.605 961.399 477.824 961.391 475.727V474.807C961.399 472.693 960.053 470.929 957.547 470.929C955.084 470.929 953.712 472.71 953.703 474.807V475.727ZM944.746 465.739C944.754 467.835 946.092 469.599 948.581 469.599C951.061 469.599 952.442 467.852 952.433 465.739V464.818C952.442 462.705 951.095 460.94 948.581 460.94C946.143 460.94 944.754 462.705 944.746 464.818V465.739ZM945.581 479H947.805L959.805 461.545H957.581L945.581 479ZM956.183 474.807C956.192 473.972 956.524 473.111 957.547 473.111C958.621 473.111 958.902 473.972 958.893 474.807V475.727C958.902 476.562 958.587 477.406 957.547 477.406C956.507 477.406 956.192 476.537 956.183 475.727V474.807ZM947.243 464.818C947.251 464.009 947.567 463.122 948.581 463.122C949.655 463.122 949.945 463.983 949.936 464.818V465.739C949.945 466.574 949.621 467.418 948.581 467.418C947.575 467.418 947.251 466.574 947.243 465.739V464.818Z" fill="#444444"/>
<rect x="340" y="614" width="701" height="673" fill="#CCCCCC"/>
<path fill-rule="evenodd" clip-rule="evenodd" d="M390 665C401.046 665 410 656.046 410 645C410 633.954 401.046 625 390 625C378.954 625 370 633.954 370 645C370 656.046 378.954 665 390 665ZM394.75 640C394.75 642.762 392.512 645 389.75 645C386.988 645 384.75 642.762 384.75 640C384.75 637.238 386.988 635 389.75 635C392.512 635 394.75 637.238 394.75 640ZM392.598 646.25H393.25C396.148 646.25 398.5 648.602 398.5 651.5V653.125C398.5 654.16 397.66 655 396.625 655H382.875C381.84 655 381 654.16 381 653.125V651.5C381 648.602 383.352 646.25 386.25 646.25H386.902C387.773 646.648 388.734 646.875 389.75 646.875C390.766 646.875 391.73 646.648 392.598 646.25Z" fill="#444444"/>
<rect x="439" y="640" width="185" height="10" rx="3" fill="#999999"/>
<rect x="664" y="640" width="110" height="10" rx="3" fill="#999999"/>
<rect x="814" y="640" width="110" height="10" rx="3" fill="#999999"/>
<path d="M962.797 640.435L965.44 643.078C965.552 643.189 965.552 643.371 965.44 643.483L959.041 649.882L956.321 650.184C955.958 650.225 955.65 649.917 955.691 649.554L955.993 646.835L962.393 640.435C962.504 640.324 962.686 640.324 962.797 640.435ZM967.544 639.764L966.114 638.334C965.669 637.889 964.945 637.889 964.497 638.334L963.459 639.371C963.348 639.483 963.348 639.664 963.459 639.776L966.103 642.419C966.214 642.53 966.396 642.53 966.507 642.419L967.544 641.382C967.99 640.933 967.99 640.209 967.544 639.764ZM962.252 648.142V651.125H952.875V641.748H959.609C959.703 641.748 959.791 641.71 959.858 641.645L961.03 640.473C961.253 640.25 961.095 639.872 960.781 639.872H952.407C951.63 639.872 951 640.502 951 641.279V651.593C951 652.37 951.63 653 952.407 653H962.721C963.498 653 964.128 652.37 964.128 651.593V646.97C964.128 646.656 963.75 646.501 963.527 646.72L962.355 647.893C962.29 647.96 962.252 648.048 962.252 648.142Z" fill="#444444"/>
<path d="M1000.66 638.938H997.141L996.865 638.39C996.807 638.273 996.717 638.174 996.606 638.105C996.494 638.036 996.366 638 996.235 638H992.887C992.756 638 992.628 638.036 992.517 638.105C992.406 638.174 992.317 638.272 992.26 638.39L991.984 638.938H988.469C988.344 638.938 988.225 638.987 988.137 639.075C988.049 639.163 988 639.282 988 639.406V640.344C988 640.468 988.049 640.587 988.137 640.675C988.225 640.763 988.344 640.813 988.469 640.813H1000.66C1000.78 640.813 1000.9 640.763 1000.99 640.675C1001.08 640.587 1001.12 640.468 1001.12 640.344V639.406C1001.12 639.282 1001.08 639.163 1000.99 639.075C1000.9 638.987 1000.78 638.938 1000.66 638.938ZM989.559 651.682C989.581 652.039 989.739 652.374 989.999 652.619C990.26 652.864 990.604 653 990.962 653H998.163C998.521 653 998.865 652.864 999.126 652.619C999.386 652.374 999.544 652.039 999.566 651.682L1000.19 641.75H988.937L989.559 651.682Z" fill="#444444"/>
<path fill-rule="evenodd" clip-rule="evenodd" d="M390 909C401.046 909 410 900.046 410 889C410 877.954 401.046 869 390 869C378.954 869 370 877.954 370 889C370 900.046 378.954 909 390 909ZM394.75 884C394.75 886.762 392.512 889 389.75 889C386.988 889 384.75 886.762 384.75 884C384.75 881.238 386.988 879 389.75 879C392.512 879 394.75 881.238 394.75 884ZM392.598 890.25H393.25C396.148 890.25 398.5 892.602 398.5 895.5V897.125C398.5 898.16 397.66 899 396.625 899H382.875C381.84 899 381 898.16 381 897.125V895.5C381 892.602 383.352 890.25 386.25 890.25H386.902C387.773 890.648 388.734 890.875 389.75 890.875C390.766 890.875 391.73 890.648 392.598 890.25Z" fill="#444444"/>
<rect x="439" y="884" width="185" height="10" rx="3" fill="#999999"/>
<rect x="664" y="884" width="110" height="10" rx="3" fill="#999999"/>
<rect x="814" y="884" width="110" height="10" rx="3" fill="#999999"/>
<path d="M962.797 884.435L965.44 887.078C965.552 887.189 965.552 887.371 965.44 887.483L959.041 893.882L956.321 894.184C955.958 894.225 955.65 893.917 955.691 893.554L955.993 890.835L962.393 884.435C962.504 884.324 962.686 884.324 962.797 884.435ZM967.544 883.764L966.114 882.334C965.669 881.889 964.945 881.889 964.497 882.334L963.459 883.371C963.348 883.483 963.348 883.664 963.459 883.776L966.103 886.419C966.214 886.53 966.396 886.53 966.507 886.419L967.544 885.382C967.99 884.933 967.99 884.209 967.544 883.764ZM962.252 892.142V895.125H952.875V885.748H959.609C959.703 885.748 959.791 885.71 959.858 885.645L961.03 884.473C961.253 884.25 961.095 883.872 960.781 883.872H952.407C951.63 883.872 951 884.502 951 885.279V895.593C951 896.37 951.63 897 952.407 897H962.721C963.498 897 964.128 896.37 964.128 895.593V890.97C964.128 890.656 963.75 890.501 963.527 890.72L962.355 891.893C962.29 891.96 962.252 892.048 962.252 892.142Z" fill="#444444"/>
<path d="M1000.66 882.938H997.141L996.865 882.39C996.807 882.273 996.717 882.174 996.606 882.105C996.494 882.036 996.366 882 996.235 882H992.887C992.756 882 992.628 882.036 992.517 882.105C992.406 882.174 992.317 882.272 992.26 882.39L991.984 882.938H988.469C988.344 882.938 988.225 882.987 988.137 883.075C988.049 883.163 988 883.282 988 883.406V884.344C988 884.468 988.049 884.587 988.137 884.675C988.225 884.763 988.344 884.813 988.469 884.813H1000.66C1000.78 884.813 1000.9 884.763 1000.99 884.675C1001.08 884.587 1001.12 884.468 1001.12 884.344V883.406C1001.12 883.282 1001.08 883.163 1000.99 883.075C1000.9 882.987 1000.78 882.938 1000.66 882.938ZM989.559 895.682C989.581 896.039 989.739 896.374 989.999 896.619C990.26 896.864 990.604 897 990.962 897H998.163C998.521 897 998.865 896.864 999.126 896.619C999.386 896.374 999.544 896.039 999.566 895.682L1000.19 885.75H988.937L989.559 895.682Z" fill="#444444"/>
<path fill-rule="evenodd" clip-rule="evenodd" d="M390 785C401.046 785 410 776.046 410 765C410 753.954 401.046 745 390 745C378.954 745 370 753.954 370 765C370 776.046 378.954 785 390 785ZM394.75 760C394.75 762.762 392.512 765 389.75 765C386.988 765 384.75 762.762 384.75 760C384.75 757.238 386.988 755 389.75 755C392.512 755 394.75 757.238 394.75 760ZM392.598 766.25H393.25C396.148 766.25 398.5 768.602 398.5 771.5V773.125C398.5 774.16 397.66 775 396.625 775H382.875C381.84 775 381 774.16 381 773.125V771.5C381 768.602 383.352 766.25 386.25 766.25H386.902C387.773 766.648 388.734 766.875 389.75 766.875C390.766 766.875 391.73 766.648 392.598 766.25Z" fill="#444444"/>
<rect x="439" y="760" width="185" height="10" rx="3" fill="#999999"/>
<rect x="664" y="760" width="110" height="10" rx="3" fill="#999999"/>
<rect x="814" y="760" width="110" height="10" rx="3" fill="#999999"/>
<path d="M962.797 760.435L965.44 763.078C965.552 763.189 965.552 763.371 965.44 763.483L959.041 769.882L956.321 770.184C955.958 770.225 955.65 769.917 955.691 769.554L955.993 766.835L962.393 760.435C962.504 760.324 962.686 760.324 962.797 760.435ZM967.544 759.764L966.114 758.334C965.669 757.889 964.945 757.889 964.497 758.334L963.459 759.371C963.348 759.483 963.348 759.664 963.459 759.776L966.103 762.419C966.214 762.53 966.396 762.53 966.507 762.419L967.544 761.382C967.99 760.933 967.99 760.209 967.544 759.764ZM962.252 768.142V771.125H952.875V761.748H959.609C959.703 761.748 959.791 761.71 959.858 761.645L961.03 760.473C961.253 760.25 961.095 759.872 960.781 759.872H952.407C951.63 759.872 951 760.502 951 761.279V771.593C951 772.37 951.63 773 952.407 773H962.721C963.498 773 964.128 772.37 964.128 771.593V766.97C964.128 766.656 963.75 766.501 963.527 766.72L962.355 767.893C962.29 767.96 962.252 768.048 962.252 768.142Z" fill="#444444"/>
<path d="M1000.66 758.938H997.141L996.865 758.39C996.807 758.273 996.717 758.174 996.606 758.105C996.494 758.036 996.366 758 996.235 758H992.887C992.756 758 992.628 758.036 992.517 758.105C992.406 758.174 992.317 758.272 992.26 758.39L991.984 758.938H988.469C988.344 758.938 988.225 758.987 988.137 759.075C988.049 759.163 988 759.282 988 759.406V760.344C988 760.468 988.049 760.587 988.137 760.675C988.225 760.763 988.344 760.813 988.469 760.813H1000.66C1000.78 760.813 1000.9 760.763 1000.99 760.675C1001.08 760.587 1001.12 760.468 1001.12 760.344V759.406C1001.12 759.282 1001.08 759.163 1000.99 759.075C1000.9 758.987 1000.78 758.938 1000.66 758.938ZM989.559 771.682C989.581 772.039 989.739 772.374 989.999 772.619C990.26 772.864 990.604 773 990.962 773H998.163C998.521 773 998.865 772.864 999.126 772.619C999.386 772.374 999.544 772.039 999.566 771.682L1000.19 761.75H988.937L989.559 771.682Z" fill="#444444"/>
<path fill-rule="evenodd" clip-rule="evenodd" d="M390 1029C401.046 1029 410 1020.05 410 1009C410 997.954 401.046 989 390 989C378.954 989 370 997.954 370 1009C370 1020.05 378.954 1029 390 1029ZM394.75 1004C394.75 1006.76 392.512 1009 389.75 1009C386.988 1009 384.75 1006.76 384.75 1004C384.75 1001.24 386.988 999 389.75 999C392.512 999 394.75 1001.24 394.75 1004ZM392.598 1010.25H393.25C396.148 1010.25 398.5 1012.6 398.5 1015.5V1017.12C398.5 1018.16 397.66 1019 396.625 1019H382.875C381.84 1019 381 1018.16 381 1017.12V1015.5C381 1012.6 383.352 1010.25 386.25 1010.25H386.902C387.773 1010.65 388.734 1010.88 389.75 1010.88C390.766 1010.88 391.73 1010.65 392.598 1010.25Z" fill="#444444"/>
<rect x="439" y="1004" width="185" height="10" rx="3" fill="#999999"/>
<rect x="664" y="1004" width="110" height="10" rx="3" fill="#999999"/>
<rect x="814" y="1004" width="110" height="10" rx="3" fill="#999999"/>
<path d="M962.797 1004.44L965.44 1007.08C965.552 1007.19 965.552 1007.37 965.44 1007.48L959.041 1013.88L956.321 1014.18C955.958 1014.23 955.65 1013.92 955.691 1013.55L955.993 1010.83L962.393 1004.44C962.504 1004.32 962.686 1004.32 962.797 1004.44ZM967.544 1003.76L966.114 1002.33C965.669 1001.89 964.945 1001.89 964.497 1002.33L963.459 1003.37C963.348 1003.48 963.348 1003.66 963.459 1003.78L966.103 1006.42C966.214 1006.53 966.396 1006.53 966.507 1006.42L967.544 1005.38C967.99 1004.93 967.99 1004.21 967.544 1003.76ZM962.252 1012.14V1015.12H952.875V1005.75H959.609C959.703 1005.75 959.791 1005.71 959.858 1005.65L961.03 1004.47C961.253 1004.25 961.095 1003.87 960.781 1003.87H952.407C951.63 1003.87 951 1004.5 951 1005.28V1015.59C951 1016.37 951.63 1017 952.407 1017H962.721C963.498 1017 964.128 1016.37 964.128 1015.59V1010.97C964.128 1010.66 963.75 1010.5 963.527 1010.72L962.355 1011.89C962.29 1011.96 962.252 1012.05 962.252 1012.14Z" fill="#444444"/>
<path d="M1000.66 1002.94H997.141L996.865 1002.39C996.807 1002.27 996.717 1002.17 996.606 1002.11C996.494 1002.04 996.366 1002 996.235 1002H992.887C992.756 1002 992.628 1002.04 992.517 1002.1C992.406 1002.17 992.317 1002.27 992.26 1002.39L991.984 1002.94H988.469C988.344 1002.94 988.225 1002.99 988.137 1003.07C988.049 1003.16 988 1003.28 988 1003.41V1004.34C988 1004.47 988.049 1004.59 988.137 1004.68C988.225 1004.76 988.344 1004.81 988.469 1004.81H1000.66C1000.78 1004.81 1000.9 1004.76 1000.99 1004.68C1001.08 1004.59 1001.12 1004.47 1001.12 1004.34V1003.41C1001.12 1003.28 1001.08 1003.16 1000.99 1003.07C1000.9 1002.99 1000.78 1002.94 1000.66 1002.94ZM989.559 1015.68C989.581 1016.04 989.739 1016.37 989.999 1016.62C990.26 1016.86 990.604 1017 990.962 1017H998.163C998.521 1017 998.865 1016.86 999.126 1016.62C999.386 1016.37 999.544 1016.04 999.566 1015.68L1000.19 1005.75H988.937L989.559 1015.68Z" fill="#444444"/>
<path fill-rule="evenodd" clip-rule="evenodd" d="M390 725C401.046 725 410 716.046 410 705C410 693.954 401.046 685 390 685C378.954 685 370 693.954 370 705C370 716.046 378.954 725 390 725ZM394.75 700C394.75 702.762 392.512 705 389.75 705C386.988 705 384.75 702.762 384.75 700C384.75 697.238 386.988 695 389.75 695C392.512 695 394.75 697.238 394.75 700ZM392.598 706.25H393.25C396.148 706.25 398.5 708.602 398.5 711.5V713.125C398.5 714.16 397.66 715 396.625 715H382.875C381.84 715 381 714.16 381 713.125V711.5C381 708.602 383.352 706.25 386.25 706.25H386.902C387.773 706.648 388.734 706.875 389.75 706.875C390.766 706.875 391.73 706.648 392.598 706.25Z" fill="#444444"/>
<rect x="439" y="700" width="185" height="10" rx="3" fill="#999999"/>
<rect x="664" y="700" width="110" height="10" rx="3" fill="#999999"/>
<rect x="814" y="700" width="110" height="10" rx="3" fill="#999999"/>
<path d="M962.797 700.435L965.44 703.078C965.552 703.189 965.552 703.371 965.44 703.483L959.041 709.882L956.321 710.184C955.958 710.225 955.65 709.917 955.691 709.554L955.993 706.835L962.393 700.435C962.504 700.324 962.686 700.324 962.797 700.435ZM967.544 699.764L966.114 698.334C965.669 697.889 964.945 697.889 964.497 698.334L963.459 699.371C963.348 699.483 963.348 699.664 963.459 699.776L966.103 702.419C966.214 702.53 966.396 702.53 966.507 702.419L967.544 701.382C967.99 700.933 967.99 700.209 967.544 699.764ZM962.252 708.142V711.125H952.875V701.748H959.609C959.703 701.748 959.791 701.71 959.858 701.645L961.03 700.473C961.253 700.25 961.095 699.872 960.781 699.872H952.407C951.63 699.872 951 700.502 951 701.279V711.593C951 712.37 951.63 713 952.407 713H962.721C963.498 713 964.128 712.37 964.128 711.593V706.97C964.128 706.656 963.75 706.501 963.527 706.72L962.355 707.893C962.29 707.96 962.252 708.048 962.252 708.142Z" fill="#444444"/>
<path d="M1000.66 698.938H997.141L996.865 698.39C996.807 698.273 996.717 698.174 996.606 698.105C996.494 698.036 996.366 698 996.235 698H992.887C992.756 698 992.628 698.036 992.517 698.105C992.406 698.174 992.317 698.272 992.26 698.39L991.984 698.938H988.469C988.344 698.938 988.225 698.987 988.137 699.075C988.049 699.163 988 699.282 988 699.406V700.344C988 700.468 988.049 700.587 988.137 700.675C988.225 700.763 988.344 700.813 988.469 700.813H1000.66C1000.78 700.813 1000.9 700.763 1000.99 700.675C1001.08 700.587 1001.12 700.468 1001.12 700.344V699.406C1001.12 699.282 1001.08 699.163 1000.99 699.075C1000.9 698.987 1000.78 698.938 1000.66 698.938ZM989.559 711.682C989.581 712.039 989.739 712.374 989.999 712.619C990.26 712.864 990.604 713 990.962 713H998.163C998.521 713 998.865 712.864 999.126 712.619C999.386 712.374 999.544 712.039 999.566 711.682L1000.19 701.75H988.937L989.559 711.682Z" fill="#444444"/>
<path fill-rule="evenodd" clip-rule="evenodd" d="M390 969C401.046 969 410 960.046 410 949C410 937.954 401.046 929 390 929C378.954 929 370 937.954 370 949C370 960.046 378.954 969 390 969ZM394.75 944C394.75 946.762 392.512 949 389.75 949C386.988 949 384.75 946.762 384.75 944C384.75 941.238 386.988 939 389.75 939C392.512 939 394.75 941.238 394.75 944ZM392.598 950.25H393.25C396.148 950.25 398.5 952.602 398.5 955.5V957.125C398.5 958.16 397.66 959 396.625 959H382.875C381.84 959 381 958.16 381 957.125V955.5C381 952.602 383.352 950.25 386.25 950.25H386.902C387.773 950.648 388.734 950.875 389.75 950.875C390.766 950.875 391.73 950.648 392.598 950.25Z" fill="#444444"/>
<rect x="439" y="944" width="185" height="10" rx="3" fill="#999999"/>
<rect x="664" y="944" width="110" height="10" rx="3" fill="#999999"/>
<rect x="814" y="944" width="110" height="10" rx="3" fill="#999999"/>
<path d="M962.797 944.435L965.44 947.078C965.552 947.189 965.552 947.371 965.44 947.483L959.041 953.882L956.321 954.184C955.958 954.225 955.65 953.917 955.691 953.554L955.993 950.835L962.393 944.435C962.504 944.324 962.686 944.324 962.797 944.435ZM967.544 943.764L966.114 942.334C965.669 941.889 964.945 941.889 964.497 942.334L963.459 943.371C963.348 943.483 963.348 943.664 963.459 943.776L966.103 946.419C966.214 946.53 966.396 946.53 966.507 946.419L967.544 945.382C967.99 944.933 967.99 944.209 967.544 943.764ZM962.252 952.142V955.125H952.875V945.748H959.609C959.703 945.748 959.791 945.71 959.858 945.645L961.03 944.473C961.253 944.25 961.095 943.872 960.781 943.872H952.407C951.63 943.872 951 944.502 951 945.279V955.593C951 956.37 951.63 957 952.407 957H962.721C963.498 957 964.128 956.37 964.128 955.593V950.97C964.128 950.656 963.75 950.501 963.527 950.72L962.355 951.893C962.29 951.96 962.252 952.048 962.252 952.142Z" fill="#444444"/>
<path d="M1000.66 942.938H997.141L996.865 942.39C996.807 942.273 996.717 942.174 996.606 942.105C996.494 942.036 996.366 942 996.235 942H992.887C992.756 942 992.628 942.036 992.517 942.105C992.406 942.174 992.317 942.272 992.26 942.39L991.984 942.938H988.469C988.344 942.938 988.225 942.987 988.137 943.075C988.049 943.163 988 943.282 988 943.406V944.344C988 944.468 988.049 944.587 988.137 944.675C988.225 944.763 988.344 944.813 988.469 944.813H1000.66C1000.78 944.813 1000.9 944.763 1000.99 944.675C1001.08 944.587 1001.12 944.468 1001.12 944.344V943.406C1001.12 943.282 1001.08 943.163 1000.99 943.075C1000.9 942.987 1000.78 942.938 1000.66 942.938ZM989.559 955.682C989.581 956.039 989.739 956.374 989.999 956.619C990.26 956.864 990.604 957 990.962 957H998.163C998.521 957 998.865 956.864 999.126 956.619C999.386 956.374 999.544 956.039 999.566 955.682L1000.19 945.75H988.937L989.559 955.682Z" fill="#444444"/>
<path fill-rule="evenodd" clip-rule="evenodd" d="M390 845C401.046 845 410 836.046 410 825C410 813.954 401.046 805 390 805C378.954 805 370 813.954 370 825C370 836.046 378.954 845 390 845ZM394.75 820C394.75 822.762 392.512 825 389.75 825C386.988 825 384.75 822.762 384.75 820C384.75 817.238 386.988 815 389.75 815C392.512 815 394.75 817.238 394.75 820ZM392.598 826.25H393.25C396.148 826.25 398.5 828.602 398.5 831.5V833.125C398.5 834.16 397.66 835 396.625 835H382.875C381.84 835 381 834.16 381 833.125V831.5C381 828.602 383.352 826.25 386.25 826.25H386.902C387.773 826.648 388.734 826.875 389.75 826.875C390.766 826.875 391.73 826.648 392.598 826.25Z" fill="#444444"/>
<rect x="439" y="820" width="185" height="10" rx="3" fill="#999999"/>
<rect x="664" y="820" width="110" height="10" rx="3" fill="#999999"/>
<rect x="814" y="820" width="110" height="10" rx="3" fill="#999999"/>
<path d="M962.797 820.435L965.44 823.078C965.552 823.189 965.552 823.371 965.44 823.483L959.041 829.882L956.321 830.184C955.958 830.225 955.65 829.917 955.691 829.554L955.993 826.835L962.393 820.435C962.504 820.324 962.686 820.324 962.797 820.435ZM967.544 819.764L966.114 818.334C965.669 817.889 964.945 817.889 964.497 818.334L963.459 819.371C963.348 819.483 963.348 819.664 963.459 819.776L966.103 822.419C966.214 822.53 966.396 822.53 966.507 822.419L967.544 821.382C967.99 820.933 967.99 820.209 967.544 819.764ZM962.252 828.142V831.125H952.875V821.748H959.609C959.703 821.748 959.791 821.71 959.858 821.645L961.03 820.473C961.253 820.25 961.095 819.872 960.781 819.872H952.407C951.63 819.872 951 820.502 951 821.279V831.593C951 832.37 951.63 833 952.407 833H962.721C963.498 833 964.128 832.37 964.128 831.593V826.97C964.128 826.656 963.75 826.501 963.527 826.72L962.355 827.893C962.29 827.96 962.252 828.048 962.252 828.142Z" fill="#444444"/>
<path d="M1000.66 818.938H997.141L996.865 818.39C996.807 818.273 996.717 818.174 996.606 818.105C996.494 818.036 996.366 818 996.235 818H992.887C992.756 818 992.628 818.036 992.517 818.105C992.406 818.174 992.317 818.272 992.26 818.39L991.984 818.938H988.469C988.344 818.938 988.225 818.987 988.137 819.075C988.049 819.163 988 819.282 988 819.406V820.344C988 820.468 988.049 820.587 988.137 820.675C988.225 820.763 988.344 820.813 988.469 820.813H1000.66C1000.78 820.813 1000.9 820.763 1000.99 820.675C1001.08 820.587 1001.12 820.468 1001.12 820.344V819.406C1001.12 819.282 1001.08 819.163 1000.99 819.075C1000.9 818.987 1000.78 818.938 1000.66 818.938ZM989.559 831.682C989.581 832.039 989.739 832.374 989.999 832.619C990.26 832.864 990.604 833 990.962 833H998.163C998.521 833 998.865 832.864 999.126 832.619C999.386 832.374 999.544 832.039 999.566 831.682L1000.19 821.75H988.937L989.559 831.682Z" fill="#444444"/>
<path fill-rule="evenodd" clip-rule="evenodd" d="M390 1089C401.046 1089 410 1080.05 410 1069C410 1057.95 401.046 1049 390 1049C378.954 1049 370 1057.95 370 1069C370 1080.05 378.954 1089 390 1089ZM394.75 1064C394.75 1066.76 392.512 1069 389.75 1069C386.988 1069 384.75 1066.76 384.75 1064C384.75 1061.24 386.988 1059 389.75 1059C392.512 1059 394.75 1061.24 394.75 1064ZM392.598 1070.25H393.25C396.148 1070.25 398.5 1072.6 398.5 1075.5V1077.12C398.5 1078.16 397.66 1079 396.625 1079H382.875C381.84 1079 381 1078.16 381 1077.12V1075.5C381 1072.6 383.352 1070.25 386.25 1070.25H386.902C387.773 1070.65 388.734 1070.88 389.75 1070.88C390.766 1070.88 391.73 1070.65 392.598 1070.25Z" fill="#444444"/>
<rect x="439" y="1064" width="185" height="10" rx="3" fill="#999999"/>
<rect x="664" y="1064" width="110" height="10" rx="3" fill="#999999"/>
<rect x="814" y="1064" width="110" height="10" rx="3" fill="#999999"/>
<path d="M962.797 1064.44L965.44 1067.08C965.552 1067.19 965.552 1067.37 965.44 1067.48L959.041 1073.88L956.321 1074.18C955.958 1074.23 955.65 1073.92 955.691 1073.55L955.993 1070.83L962.393 1064.44C962.504 1064.32 962.686 1064.32 962.797 1064.44ZM967.544 1063.76L966.114 1062.33C965.669 1061.89 964.945 1061.89 964.497 1062.33L963.459 1063.37C963.348 1063.48 963.348 1063.66 963.459 1063.78L966.103 1066.42C966.214 1066.53 966.396 1066.53 966.507 1066.42L967.544 1065.38C967.99 1064.93 967.99 1064.21 967.544 1063.76ZM962.252 1072.14V1075.12H952.875V1065.75H959.609C959.703 1065.75 959.791 1065.71 959.858 1065.65L961.03 1064.47C961.253 1064.25 961.095 1063.87 960.781 1063.87H952.407C951.63 1063.87 951 1064.5 951 1065.28V1075.59C951 1076.37 951.63 1077 952.407 1077H962.721C963.498 1077 964.128 1076.37 964.128 1075.59V1070.97C964.128 1070.66 963.75 1070.5 963.527 1070.72L962.355 1071.89C962.29 1071.96 962.252 1072.05 962.252 1072.14Z" fill="#444444"/>
<path d="M1000.66 1062.94H997.141L996.865 1062.39C996.807 1062.27 996.717 1062.17 996.606 1062.11C996.494 1062.04 996.366 1062 996.235 1062H992.887C992.756 1062 992.628 1062.04 992.517 1062.1C992.406 1062.17 992.317 1062.27 992.26 1062.39L991.984 1062.94H988.469C988.344 1062.94 988.225 1062.99 988.137 1063.07C988.049 1063.16 988 1063.28 988 1063.41V1064.34C988 1064.47 988.049 1064.59 988.137 1064.68C988.225 1064.76 988.344 1064.81 988.469 1064.81H1000.66C1000.78 1064.81 1000.9 1064.76 1000.99 1064.68C1001.08 1064.59 1001.12 1064.47 1001.12 1064.34V1063.41C1001.12 1063.28 1001.08 1063.16 1000.99 1063.07C1000.9 1062.99 1000.78 1062.94 1000.66 1062.94ZM989.559 1075.68C989.581 1076.04 989.739 1076.37 989.999 1076.62C990.26 1076.86 990.604 1077 990.962 1077H998.163C998.521 1077 998.865 1076.86 999.126 1076.62C999.386 1076.37 999.544 1076.04 999.566 1075.68L1000.19 1065.75H988.937L989.559 1075.68Z" fill="#444444"/>
<rect x="338" y="674" width="703" height="1" fill="#EEEEEE"/>
<rect x="338" y="918" width="703" height="1" fill="#EEEEEE"/>
<rect x="338" y="735" width="703" height="1" fill="#EEEEEE"/>
<rect x="338" y="979" width="703" height="1" fill="#EEEEEE"/>
<rect x="338" y="795" width="703" height="1" fill="#EEEEEE"/>
<rect x="338" y="1039" width="703" height="1" fill="#EEEEEE"/>
<rect x="338" y="855" width="703" height="1" fill="#EEEEEE"/>
<rect x="834" y="120" width="207" height="207" fill="#CCCCCC"/>
<g clip-path="url(#clip1)">
<path d="M898.938 170.445C898.953 170.297 899 170.156 899 170.008C899 167.25 896.758 165.008 894 165.008C893.016 165.008 892.109 165.305 891.336 165.789C889.961 162.758 886.922 160.633 883.375 160.633C878.547 160.633 874.625 164.547 874.625 169.383C874.625 169.617 874.68 169.836 874.695 170.062C870.82 170.352 867.75 173.555 867.75 177.508C867.75 181.648 871.109 185.008 875.25 185.008H896.5C900.641 185.008 904 181.648 904 177.508C904 174.219 901.875 171.461 898.938 170.445ZM865.313 168.68C861.898 165.266 861.898 159.719 865.313 156.312C868.727 152.898 874.273 152.898 877.688 156.312C878.445 157.07 879.008 157.945 879.43 158.867C880.195 158.578 881 158.398 881.828 158.281L884.156 151.336C884.469 150.406 883.586 149.531 882.656 149.836L875.797 152.125L872.555 145.656C872.125 144.781 870.875 144.781 870.438 145.656L867.203 152.125L860.336 149.836C859.414 149.531 858.531 150.414 858.836 151.336L861.125 158.195L854.656 161.438C853.781 161.875 853.781 163.117 854.656 163.555L861.125 166.789L858.836 173.648C858.523 174.578 859.406 175.453 860.336 175.148L866.281 173.172C866.758 172.203 867.375 171.32 868.125 170.555C867.102 170.133 866.141 169.508 865.313 168.68ZM864.938 162.492C864.938 165.68 867.227 168.336 870.242 168.922C870.867 168.555 871.516 168.234 872.211 168.008C872.633 164.547 874.633 161.562 877.477 159.805C876.445 157.531 874.156 155.938 871.5 155.938C867.883 155.938 864.938 158.875 864.938 162.492Z" fill="#444444"/>
</g>
<path d="M966.122 180H984.787V175.474H973.793V175.295L977.615 171.55C982.997 166.641 984.442 164.186 984.442 161.207C984.442 156.669 980.734 153.46 975.122 153.46C969.625 153.46 965.854 156.746 965.866 161.885H971.121C971.108 159.379 972.693 157.845 975.084 157.845C977.385 157.845 979.098 159.277 979.098 161.578C979.098 163.662 977.82 165.094 975.442 167.382L966.122 176.011V180ZM998.271 153.46C992.416 153.435 988.466 157.27 988.491 162.537C988.504 167.42 991.892 170.962 996.532 170.962C999.409 170.962 1001.97 169.568 1003.13 167.267H1003.31C1003.3 172.457 1001.49 175.615 998.079 175.615C996.072 175.615 994.627 174.516 994.206 172.611H988.747C989.258 177.021 992.838 180.358 998.079 180.358C1004.56 180.358 1008.74 175.116 1008.73 166.232C1008.72 156.746 1003.65 153.486 998.271 153.46ZM998.309 157.807C1000.85 157.807 1002.73 159.878 1002.76 162.371C1002.77 164.876 1000.79 166.947 998.258 166.947C995.701 166.947 993.873 164.953 993.86 162.384C993.835 159.827 995.74 157.807 998.309 157.807ZM1018.71 166.206C1022.19 166.206 1024.99 163.393 1024.99 159.929C1024.99 156.452 1022.19 153.639 1018.71 153.639C1015.25 153.639 1012.44 156.452 1012.44 159.929C1012.44 163.393 1015.25 166.206 1018.71 166.206ZM1018.71 162.575C1017.26 162.575 1016.07 161.386 1016.07 159.929C1016.07 158.459 1017.26 157.27 1018.71 157.27C1020.18 157.27 1021.36 158.459 1021.36 159.929C1021.36 161.386 1020.18 162.575 1018.71 162.575Z" fill="#444444"/>
<path fill-rule="evenodd" clip-rule="evenodd" d="M1041 272.658V327H834V252.878C842.557 255.444 850.57 270.612 858.175 285.005C865.635 299.125 872.701 312.5 879.5 312.5C888.378 312.5 893.851 302.89 899.397 293.15C905.095 283.144 910.872 273 920.5 273C930.195 273 935.464 279.249 940.625 285.37C945.577 291.244 950.43 297 959 297C966.473 297 970.026 285.784 974.096 272.932C979.558 255.689 985.952 235.5 1004 235.5C1016.85 235.5 1021.29 245.41 1025.6 255.042C1029.21 263.093 1032.73 270.949 1041 272.658Z" fill="#444444"/>
<rect x="340" y="120" width="454" height="454" fill="#CCCCCC"/>
<path d="M553.421 360.018V255.163C553.421 250.943 549.735 247.474 545.583 248.066C493.222 255.507 453.2 301.512 455.062 356.647C456.978 413.27 505.455 459.703 561.783 458.992C583.927 458.714 604.389 451.537 621.213 439.536C624.684 437.061 624.912 431.922 621.902 428.895L553.421 360.018Z" fill="#555555"/>
<path d="M582.35 233.016C634.615 236.655 676.379 278.818 679.984 331.58C680.26 335.608 676.9 339 672.901 339H575V240.171C575 236.134 578.36 232.738 582.35 233.016Z" fill="#999999"/>
<path d="M583 360H686.902C691.084 360 694.521 363.71 693.935 367.892C690.515 392.321 678.859 414.053 661.913 430.174C659.194 432.761 654.841 432.544 652.197 429.873L583 360Z" fill="#666666"/>
<rect x="370" y="246" width="110" height="10" rx="3" fill="#999999"/>
<rect x="619" y="208" width="110" height="10" rx="3" fill="#999999"/>
<rect x="440" y="523" width="254" height="10" rx="3" fill="#999999"/>
<rect x="380" y="493" width="374" height="10" rx="3" fill="#999999"/>
<rect x="694" y="425" width="60" height="10" rx="3" fill="#999999"/>
<rect y="80" width="300" height="1000" fill="#CCCCCC"/>
<rect x="20" y="120" width="220" height="10" rx="3" fill="#999999"/>
<path d="M279.151 125.663L271.56 133.254C271.194 133.621 270.6 133.621 270.234 133.254L269.349 132.369C268.983 132.004 268.982 131.411 269.347 131.045L275.363 125L269.347 118.955C268.982 118.589 268.983 117.997 269.349 117.631L270.234 116.746C270.6 116.379 271.194 116.379 271.56 116.746L279.151 124.337C279.517 124.703 279.517 125.297 279.151 125.663Z" fill="#444444"/>
<rect width="300" height="1" transform="matrix(1 0 0 -1 0 166)" fill="#EEEEEE"/>
<rect x="20" y="282" width="220" height="10" rx="3" fill="#999999"/>
<path d="M279.151 287.663L271.56 295.254C271.194 295.621 270.6 295.621 270.234 295.254L269.349 294.369C268.983 294.004 268.982 293.411 269.347 293.045L275.363 287L269.347 280.955C268.982 280.589 268.983 279.997 269.349 279.631L270.234 278.746C270.6 278.379 271.194 278.379 271.56 278.746L279.151 286.337C279.517 286.703 279.517 287.297 279.151 287.663Z" fill="#444444"/>
<rect width="300" height="1" transform="matrix(1 0 0 -1 0 328)" fill="#EEEEEE"/>
<rect x="20" y="201" width="220" height="10" rx="3" fill="#999999"/>
<path d="M279.151 206.663L271.56 214.254C271.194 214.621 270.6 214.621 270.234 214.254L269.349 213.369C268.983 213.004 268.982 212.411 269.347 212.045L275.363 206L269.347 199.955C268.982 199.589 268.983 198.997 269.349 198.631L270.234 197.746C270.6 197.379 271.194 197.379 271.56 197.746L279.151 205.337C279.517 205.703 279.517 206.297 279.151 206.663Z" fill="#444444"/>
<rect width="300" height="1" transform="matrix(1 0 0 -1 0 247)" fill="#EEEEEE"/>
<rect x="20" y="363" width="220" height="10" rx="3" fill="#999999"/>
<path d="M279.151 368.663L271.56 376.254C271.194 376.621 270.6 376.621 270.234 376.254L269.349 375.369C268.983 375.004 268.982 374.411 269.347 374.045L275.363 368L269.347 361.955C268.982 361.589 268.983 360.997 269.349 360.631L270.234 359.746C270.6 359.379 271.194 359.379 271.56 359.746L279.151 367.337C279.517 367.703 279.517 368.297 279.151 368.663Z" fill="#444444"/>
<rect width="300" height="1" transform="matrix(1 0 0 -1 0 409)" fill="#EEEEEE"/>
<rect x="95" y="1040" width="110" height="10" rx="3" fill="#999999"/>
<rect width="1080" height="80" fill="#444444"/>
<rect x="878" y="35" width="120" height="10" rx="3" fill="#999999"/>
<g clip-path="url(#clip2)">
<path d="M1030.59 45.1514L1023 37.5598C1022.63 37.1937 1022.63 36.6001 1023 36.234L1023.88 35.3486C1024.25 34.9831 1024.84 34.9824 1025.21 35.347L1031.25 41.3634L1037.29 35.347C1037.66 34.9824 1038.25 34.9831 1038.62 35.3486L1039.5 36.234C1039.87 36.6001 1039.87 37.1937 1039.5 37.5598L1031.91 45.1513C1031.55 45.5175 1030.95 45.5175 1030.59 45.1514Z" fill="#EEEEEE"/>
</g>
<path d="M21.517 49H25.2074V43.3409H28.3097C32.3239 43.3409 34.6591 40.946 34.6591 37.4602C34.6591 33.9915 32.3665 31.5455 28.4034 31.5455H21.517V49ZM25.2074 40.3835V34.5625H27.696C29.8267 34.5625 30.858 35.7216 30.858 37.4602C30.858 39.1903 29.8267 40.3835 27.7131 40.3835H25.2074ZM42.7429 49.2557C45.9815 49.2557 48.1634 47.679 48.6747 45.25L45.3168 45.0284C44.9503 46.0256 44.0128 46.5455 42.8026 46.5455C40.9872 46.5455 39.8366 45.3438 39.8366 43.392V43.3835H48.7514V42.3864C48.7514 37.9375 46.0582 35.7386 42.598 35.7386C38.7457 35.7386 36.2486 38.4744 36.2486 42.5142C36.2486 46.6648 38.7116 49.2557 42.7429 49.2557ZM39.8366 41.1335C39.9134 39.642 41.0469 38.4489 42.6577 38.4489C44.2344 38.4489 45.3253 39.5739 45.3338 41.1335H39.8366ZM58.0838 35.9091H55.6207V32.7727H51.9901V35.9091H50.2003V38.6364H51.9901V45.4545C51.973 48.0199 53.7202 49.2898 56.3537 49.179C57.2912 49.1449 57.956 48.9574 58.3224 48.8381L57.7514 46.1364C57.5724 46.1705 57.1889 46.2557 56.848 46.2557C56.1236 46.2557 55.6207 45.983 55.6207 44.9773V38.6364H58.0838V35.9091ZM66.2741 49.2557C69.5128 49.2557 71.6946 47.679 72.206 45.25L68.848 45.0284C68.4815 46.0256 67.544 46.5455 66.3338 46.5455C64.5185 46.5455 63.3679 45.3438 63.3679 43.392V43.3835H72.2827V42.3864C72.2827 37.9375 69.5895 35.7386 66.1293 35.7386C62.277 35.7386 59.7798 38.4744 59.7798 42.5142C59.7798 46.6648 62.2429 49.2557 66.2741 49.2557ZM63.3679 41.1335C63.4446 39.642 64.5781 38.4489 66.1889 38.4489C67.7656 38.4489 68.8565 39.5739 68.8651 41.1335H63.3679ZM74.652 49H78.2827V41.5938C78.2827 39.983 79.4588 38.875 81.0611 38.875C81.5639 38.875 82.2543 38.9602 82.5952 39.071V35.8494C82.2713 35.7727 81.8196 35.7216 81.4531 35.7216C79.9872 35.7216 78.7855 36.5739 78.3082 38.1932H78.1719V35.9091H74.652V49ZM87.9134 31.5455H85.1861V33.4034C85.1861 34.8438 84.6747 35.892 84.1037 36.7955L85.706 37.7415C86.9077 36.7358 87.9134 34.946 87.9134 33.3864V31.5455ZM99.5831 39.642C99.2592 37.2301 97.3161 35.7386 94.0092 35.7386C90.6598 35.7386 88.4524 37.2898 88.4609 39.8125C88.4524 41.7727 89.6882 43.0426 92.245 43.554L94.5121 44.0057C95.6541 44.2358 96.174 44.6534 96.1911 45.3097C96.174 46.0852 95.3303 46.6392 94.0604 46.6392C92.7649 46.6392 91.9041 46.0852 91.6825 45.0199L88.1115 45.2074C88.4524 47.7131 90.5831 49.2557 94.0518 49.2557C97.4439 49.2557 99.8729 47.5256 99.8814 44.9432C99.8729 43.0511 98.6371 41.9176 96.0973 41.3977L93.728 40.9205C92.5092 40.6562 92.0575 40.2386 92.0661 39.608C92.0575 38.8239 92.9439 38.3125 94.0689 38.3125C95.3303 38.3125 96.0803 39.0028 96.2592 39.8466L99.5831 39.642ZM107.594 37H110.322V35.142C110.322 33.804 110.765 32.7557 111.404 31.75L109.802 30.804C108.617 31.767 107.594 33.5994 107.594 35.1591V37ZM113.603 49H117.293V43.3409H120.396C124.41 43.3409 126.745 40.946 126.745 37.4602C126.745 33.9915 124.452 31.5455 120.489 31.5455H113.603V49ZM117.293 40.3835V34.5625H119.782C121.913 34.5625 122.944 35.7216 122.944 37.4602C122.944 39.1903 121.913 40.3835 119.799 40.3835H117.293ZM137.469 43.4261C137.477 45.1818 136.276 46.1023 134.972 46.1023C133.599 46.1023 132.713 45.1392 132.705 43.5966V35.9091H129.074V44.2443C129.082 47.304 130.872 49.1705 133.506 49.1705C135.474 49.1705 136.889 48.1562 137.477 46.6222H137.614V49H141.099V35.9091H137.469V43.4261ZM150.967 35.9091H148.504V32.7727H144.873V35.9091H143.083V38.6364H144.873V45.4545C144.856 48.0199 146.603 49.2898 149.237 49.179C150.174 49.1449 150.839 48.9574 151.205 48.8381L150.634 46.1364C150.455 46.1705 150.072 46.2557 149.731 46.2557C149.006 46.2557 148.504 45.983 148.504 44.9773V38.6364H150.967V35.9091ZM159.157 49.2557C162.396 49.2557 164.577 47.679 165.089 45.25L161.731 45.0284C161.364 46.0256 160.427 46.5455 159.217 46.5455C157.401 46.5455 156.251 45.3438 156.251 43.392V43.3835H165.165V42.3864C165.165 37.9375 162.472 35.7386 159.012 35.7386C155.16 35.7386 152.663 38.4744 152.663 42.5142C152.663 46.6648 155.126 49.2557 159.157 49.2557ZM156.251 41.1335C156.327 39.642 157.461 38.4489 159.072 38.4489C160.648 38.4489 161.739 39.5739 161.748 41.1335H156.251ZM167.535 49H171.165V41.5938C171.165 39.983 172.342 38.875 173.944 38.875C174.447 38.875 175.137 38.9602 175.478 39.071V35.8494C175.154 35.7727 174.702 35.7216 174.336 35.7216C172.87 35.7216 171.668 36.5739 171.191 38.1932H171.055V35.9091H167.535V49ZM188.247 39.642C187.923 37.2301 185.98 35.7386 182.673 35.7386C179.324 35.7386 177.116 37.2898 177.125 39.8125C177.116 41.7727 178.352 43.0426 180.909 43.554L183.176 44.0057C184.318 44.2358 184.838 44.6534 184.855 45.3097C184.838 46.0852 183.994 46.6392 182.724 46.6392C181.429 46.6392 180.568 46.0852 180.347 45.0199L176.776 45.2074C177.116 47.7131 179.247 49.2557 182.716 49.2557C186.108 49.2557 188.537 47.5256 188.545 44.9432C188.537 43.0511 187.301 41.9176 184.761 41.3977L182.392 40.9205C181.173 40.6562 180.722 40.2386 180.73 39.608C180.722 38.8239 181.608 38.3125 182.733 38.3125C183.994 38.3125 184.744 39.0028 184.923 39.8466L188.247 39.642ZM202.642 49C207.96 49 211.182 45.7102 211.182 40.2557C211.182 34.8182 207.96 31.5455 202.693 31.5455H196.455V49H202.642ZM200.145 45.8381V34.7074H202.497C205.77 34.7074 207.5 36.3778 207.5 40.2557C207.5 44.1506 205.77 45.8381 202.489 45.8381H200.145ZM217.58 49.2472C219.515 49.2472 220.768 48.4034 221.407 47.1847H221.509V49H224.952V40.1705C224.952 37.0511 222.31 35.7386 219.396 35.7386C216.259 35.7386 214.197 37.2386 213.694 39.625L217.052 39.8977C217.299 39.0284 218.075 38.3892 219.379 38.3892C220.614 38.3892 221.322 39.0114 221.322 40.0852V40.1364C221.322 40.9801 220.427 41.0909 218.151 41.3125C215.56 41.5511 213.234 42.4205 213.234 45.3438C213.234 47.9347 215.083 49.2472 217.58 49.2472ZM218.62 46.7415C217.504 46.7415 216.702 46.2216 216.702 45.2244C216.702 44.2017 217.546 43.6989 218.825 43.5199C219.617 43.4091 220.913 43.2216 221.347 42.9318V44.321C221.347 45.6932 220.214 46.7415 218.62 46.7415ZM238.661 39.642C238.337 37.2301 236.394 35.7386 233.087 35.7386C229.738 35.7386 227.531 37.2898 227.539 39.8125C227.531 41.7727 228.766 43.0426 231.323 43.554L233.59 44.0057C234.732 44.2358 235.252 44.6534 235.269 45.3097C235.252 46.0852 234.408 46.6392 233.138 46.6392C231.843 46.6392 230.982 46.0852 230.761 45.0199L227.19 45.2074C227.531 47.7131 229.661 49.2557 233.13 49.2557C236.522 49.2557 238.951 47.5256 238.96 44.9432C238.951 43.0511 237.715 41.9176 235.175 41.3977L232.806 40.9205C231.587 40.6562 231.136 40.2386 231.144 39.608C231.136 38.8239 232.022 38.3125 233.147 38.3125C234.408 38.3125 235.158 39.0028 235.337 39.8466L238.661 39.642ZM244.876 41.4318C244.885 39.7443 245.916 38.7557 247.399 38.7557C248.874 38.7557 249.743 39.7017 249.734 41.3125V49H253.365V40.6648C253.374 37.5966 251.567 35.7386 248.839 35.7386C246.854 35.7386 245.524 36.6761 244.928 38.2188H244.774V31.5455H241.246V49H244.876V41.4318ZM256.29 49H259.87V46.9034H260.032C260.535 47.9943 261.634 49.2131 263.748 49.2131C266.731 49.2131 269.058 46.8523 269.058 42.4716C269.058 37.9716 266.629 35.7386 263.756 35.7386C261.566 35.7386 260.518 37.0426 260.032 38.108H259.921V31.5455H256.29V49ZM259.844 42.4545C259.844 40.1193 260.833 38.6278 262.597 38.6278C264.396 38.6278 265.35 40.1875 265.35 42.4545C265.35 44.7386 264.379 46.3239 262.597 46.3239C260.85 46.3239 259.844 44.7898 259.844 42.4545ZM277.395 49.2557C281.366 49.2557 283.838 46.5369 283.838 42.5057C283.838 38.4489 281.366 35.7386 277.395 35.7386C273.423 35.7386 270.952 38.4489 270.952 42.5057C270.952 46.5369 273.423 49.2557 277.395 49.2557ZM277.412 46.4432C275.58 46.4432 274.642 44.7642 274.642 42.4801C274.642 40.196 275.58 38.5085 277.412 38.5085C279.21 38.5085 280.148 40.196 280.148 42.4801C280.148 44.7642 279.21 46.4432 277.412 46.4432ZM289.932 49.2472C291.866 49.2472 293.119 48.4034 293.759 47.1847H293.861V49H297.304V40.1705C297.304 37.0511 294.662 35.7386 291.747 35.7386C288.611 35.7386 286.548 37.2386 286.045 39.625L289.403 39.8977C289.651 39.0284 290.426 38.3892 291.73 38.3892C292.966 38.3892 293.673 39.0114 293.673 40.0852V40.1364C293.673 40.9801 292.778 41.0909 290.503 41.3125C287.912 41.5511 285.585 42.4205 285.585 45.3438C285.585 47.9347 287.435 49.2472 289.932 49.2472ZM290.972 46.7415C289.855 46.7415 289.054 46.2216 289.054 45.2244C289.054 44.2017 289.898 43.6989 291.176 43.5199C291.969 43.4091 293.264 43.2216 293.699 42.9318V44.321C293.699 45.6932 292.565 46.7415 290.972 46.7415ZM300.121 49H303.751V41.5938C303.751 39.983 304.928 38.875 306.53 38.875C307.033 38.875 307.723 38.9602 308.064 39.071V35.8494C307.74 35.7727 307.288 35.7216 306.922 35.7216C305.456 35.7216 304.254 36.5739 303.777 38.1932H303.641V35.9091H300.121V49ZM314.156 49.2131C316.269 49.2131 317.369 47.9943 317.871 46.9034H318.025V49H321.604V31.5455H317.982V38.108H317.871C317.386 37.0426 316.337 35.7386 314.147 35.7386C311.275 35.7386 308.846 37.9716 308.846 42.4716C308.846 46.8523 311.173 49.2131 314.156 49.2131ZM315.306 46.3239C313.525 46.3239 312.553 44.7386 312.553 42.4545C312.553 40.1875 313.508 38.6278 315.306 38.6278C317.07 38.6278 318.059 40.1193 318.059 42.4545C318.059 44.7898 317.053 46.3239 315.306 46.3239Z" fill="#EEEEEE"/>
</g>
<defs>
<clipPath id="clip0">
<rect width="1080" height="1080" fill="white"/>
</clipPath>
<clipPath id="clip1">
<rect width="50" height="40" fill="white" transform="translate(854 145)"/>
</clipPath>
<clipPath id="clip2">
<rect width="12.5" height="20" fill="white" transform="translate(1041.25 34) rotate(90)"/>
</clipPath>
</defs>
</svg>
