<svg width="1080" height="1080" viewBox="0 0 1080 1080" fill="none" xmlns="http://www.w3.org/2000/svg">
<g clip-path="url(#clip0)">
<rect width="1080" height="1080" fill="#EEEEEE"/>
<rect x="340" y="120" width="207" height="207" fill="#CCCCCC"/>
<rect x="369" y="258" width="149" height="10" rx="3" fill="#999999"/>
<rect x="368" y="288" width="149" height="10" rx="3" fill="#999999"/>
<path fill-rule="evenodd" clip-rule="evenodd" d="M518 223C518 181.579 484.421 148 443 148C401.579 148 368 181.579 368 223L405.003 223C405.001 222.834 405 222.667 405 222.5C405 201.789 421.789 185 442.5 185C463.211 185 480 201.789 480 222.5C480 222.667 479.999 222.834 479.997 223L518 223Z" fill="#999999"/>
<path fill-rule="evenodd" clip-rule="evenodd" d="M430.584 149.023L440.242 185.067C420.583 186.235 405 202.548 405 222.5C405 222.667 405.001 222.834 405.003 223L368 223C368 185.808 395.071 154.939 430.584 149.023Z" fill="#444444"/>
<path d="M418.151 228.932H426.528V232H430.057V228.932H432.222V225.974H430.057V214.545H425.438L418.151 226.026V228.932ZM426.597 225.974H421.866V225.838L426.46 218.568H426.597V225.974ZM441.055 232.239C444.942 232.239 447.584 229.707 447.575 226.179C447.584 222.838 445.249 220.435 442.104 220.435C440.57 220.435 439.249 221.074 438.635 221.935H438.533L438.984 217.562H446.612V214.545H435.942L435.115 223.75L438.396 224.338C438.933 223.614 439.973 223.162 441.004 223.162C442.76 223.17 444.021 224.44 444.021 226.273C444.021 228.088 442.786 229.341 441.055 229.341C439.589 229.341 438.405 228.42 438.32 227.065H434.74C434.808 230.082 437.442 232.239 441.055 232.239ZM459.703 228.727C459.712 230.824 461.05 232.605 463.547 232.605C466.018 232.605 467.399 230.824 467.391 228.727V227.807C467.399 225.693 466.053 223.929 463.547 223.929C461.084 223.929 459.712 225.71 459.703 227.807V228.727ZM450.746 218.739C450.754 220.835 452.092 222.599 454.581 222.599C457.061 222.599 458.442 220.852 458.433 218.739V217.818C458.442 215.705 457.095 213.94 454.581 213.94C452.143 213.94 450.754 215.705 450.746 217.818V218.739ZM451.581 232H453.805L465.805 214.545H463.581L451.581 232ZM462.183 227.807C462.192 226.972 462.524 226.111 463.547 226.111C464.621 226.111 464.902 226.972 464.893 227.807V228.727C464.902 229.562 464.587 230.406 463.547 230.406C462.507 230.406 462.192 229.537 462.183 228.727V227.807ZM453.243 217.818C453.251 217.009 453.567 216.122 454.581 216.122C455.655 216.122 455.945 216.983 455.936 217.818V218.739C455.945 219.574 455.621 220.418 454.581 220.418C453.575 220.418 453.251 219.574 453.243 218.739V217.818Z" fill="#444444"/>
<rect x="340" y="614" width="701" height="673" fill="#CCCCCC"/>
<path fill-rule="evenodd" clip-rule="evenodd" d="M390 665C401.046 665 410 656.046 410 645C410 633.954 401.046 625 390 625C378.954 625 370 633.954 370 645C370 656.046 378.954 665 390 665ZM394.75 640C394.75 642.762 392.512 645 389.75 645C386.988 645 384.75 642.762 384.75 640C384.75 637.238 386.988 635 389.75 635C392.512 635 394.75 637.238 394.75 640ZM392.598 646.25H393.25C396.148 646.25 398.5 648.602 398.5 651.5V653.125C398.5 654.16 397.66 655 396.625 655H382.875C381.84 655 381 654.16 381 653.125V651.5C381 648.602 383.352 646.25 386.25 646.25H386.902C387.773 646.648 388.734 646.875 389.75 646.875C390.766 646.875 391.73 646.648 392.598 646.25Z" fill="#444444"/>
<rect x="439" y="640" width="185" height="10" rx="3" fill="#999999"/>
<rect x="664" y="640" width="110" height="10" rx="3" fill="#999999"/>
<rect x="814" y="640" width="110" height="10" rx="3" fill="#999999"/>
<path d="M962.797 640.435L965.44 643.078C965.552 643.189 965.552 643.371 965.44 643.483L959.041 649.882L956.321 650.184C955.958 650.225 955.65 649.917 955.691 649.554L955.993 646.835L962.393 640.435C962.504 640.324 962.686 640.324 962.797 640.435ZM967.544 639.764L966.114 638.334C965.669 637.889 964.945 637.889 964.497 638.334L963.459 639.371C963.348 639.483 963.348 639.664 963.459 639.776L966.103 642.419C966.214 642.53 966.396 642.53 966.507 642.419L967.544 641.382C967.99 640.933 967.99 640.209 967.544 639.764ZM962.252 648.142V651.125H952.875V641.748H959.609C959.703 641.748 959.791 641.71 959.858 641.645L961.03 640.473C961.253 640.25 961.095 639.872 960.781 639.872H952.407C951.63 639.872 951 640.502 951 641.279V651.593C951 652.37 951.63 653 952.407 653H962.721C963.498 653 964.128 652.37 964.128 651.593V646.97C964.128 646.656 963.75 646.501 963.527 646.72L962.355 647.893C962.29 647.96 962.252 648.048 962.252 648.142Z" fill="#444444"/>
<path d="M1000.66 638.938H997.141L996.865 638.39C996.807 638.273 996.717 638.174 996.606 638.105C996.494 638.036 996.366 638 996.235 638H992.887C992.756 638 992.628 638.036 992.517 638.105C992.406 638.174 992.317 638.272 992.26 638.39L991.984 638.938H988.469C988.344 638.938 988.225 638.987 988.137 639.075C988.049 639.163 988 639.282 988 639.406V640.344C988 640.468 988.049 640.587 988.137 640.675C988.225 640.763 988.344 640.813 988.469 640.813H1000.66C1000.78 640.813 1000.9 640.763 1000.99 640.675C1001.08 640.587 1001.12 640.468 1001.12 640.344V639.406C1001.12 639.282 1001.08 639.163 1000.99 639.075C1000.9 638.987 1000.78 638.938 1000.66 638.938ZM989.559 651.682C989.581 652.039 989.739 652.374 989.999 652.619C990.26 652.864 990.604 653 990.962 653H998.163C998.521 653 998.865 652.864 999.126 652.619C999.386 652.374 999.544 652.039 999.566 651.682L1000.19 641.75H988.937L989.559 651.682Z" fill="#444444"/>
<path fill-rule="evenodd" clip-rule="evenodd" d="M390 909C401.046 909 410 900.046 410 889C410 877.954 401.046 869 390 869C378.954 869 370 877.954 370 889C370 900.046 378.954 909 390 909ZM394.75 884C394.75 886.762 392.512 889 389.75 889C386.988 889 384.75 886.762 384.75 884C384.75 881.238 386.988 879 389.75 879C392.512 879 394.75 881.238 394.75 884ZM392.598 890.25H393.25C396.148 890.25 398.5 892.602 398.5 895.5V897.125C398.5 898.16 397.66 899 396.625 899H382.875C381.84 899 381 898.16 381 897.125V895.5C381 892.602 383.352 890.25 386.25 890.25H386.902C387.773 890.648 388.734 890.875 389.75 890.875C390.766 890.875 391.73 890.648 392.598 890.25Z" fill="#444444"/>
<rect x="439" y="884" width="185" height="10" rx="3" fill="#999999"/>
<rect x="664" y="884" width="110" height="10" rx="3" fill="#999999"/>
<rect x="814" y="884" width="110" height="10" rx="3" fill="#999999"/>
<path d="M962.797 884.435L965.44 887.078C965.552 887.189 965.552 887.371 965.44 887.483L959.041 893.882L956.321 894.184C955.958 894.225 955.65 893.917 955.691 893.554L955.993 890.835L962.393 884.435C962.504 884.324 962.686 884.324 962.797 884.435ZM967.544 883.764L966.114 882.334C965.669 881.889 964.945 881.889 964.497 882.334L963.459 883.371C963.348 883.483 963.348 883.664 963.459 883.776L966.103 886.419C966.214 886.53 966.396 886.53 966.507 886.419L967.544 885.382C967.99 884.933 967.99 884.209 967.544 883.764ZM962.252 892.142V895.125H952.875V885.748H959.609C959.703 885.748 959.791 885.71 959.858 885.645L961.03 884.473C961.253 884.25 961.095 883.872 960.781 883.872H952.407C951.63 883.872 951 884.502 951 885.279V895.593C951 896.37 951.63 897 952.407 897H962.721C963.498 897 964.128 896.37 964.128 895.593V890.97C964.128 890.656 963.75 890.501 963.527 890.72L962.355 891.893C962.29 891.96 962.252 892.048 962.252 892.142Z" fill="#444444"/>
<path d="M1000.66 882.938H997.141L996.865 882.39C996.807 882.273 996.717 882.174 996.606 882.105C996.494 882.036 996.366 882 996.235 882H992.887C992.756 882 992.628 882.036 992.517 882.105C992.406 882.174 992.317 882.272 992.26 882.39L991.984 882.938H988.469C988.344 882.938 988.225 882.987 988.137 883.075C988.049 883.163 988 883.282 988 883.406V884.344C988 884.468 988.049 884.587 988.137 884.675C988.225 884.763 988.344 884.813 988.469 884.813H1000.66C1000.78 884.813 1000.9 884.763 1000.99 884.675C1001.08 884.587 1001.12 884.468 1001.12 884.344V883.406C1001.12 883.282 1001.08 883.163 1000.99 883.075C1000.9 882.987 1000.78 882.938 1000.66 882.938ZM989.559 895.682C989.581 896.039 989.739 896.374 989.999 896.619C990.26 896.864 990.604 897 990.962 897H998.163C998.521 897 998.865 896.864 999.126 896.619C999.386 896.374 999.544 896.039 999.566 895.682L1000.19 885.75H988.937L989.559 895.682Z" fill="#444444"/>
<path fill-rule="evenodd" clip-rule="evenodd" d="M390 785C401.046 785 410 776.046 410 765C410 753.954 401.046 745 390 745C378.954 745 370 753.954 370 765C370 776.046 378.954 785 390 785ZM394.75 760C394.75 762.762 392.512 765 389.75 765C386.988 765 384.75 762.762 384.75 760C384.75 757.238 386.988 755 389.75 755C392.512 755 394.75 757.238 394.75 760ZM392.598 766.25H393.25C396.148 766.25 398.5 768.602 398.5 771.5V773.125C398.5 774.16 397.66 775 396.625 775H382.875C381.84 775 381 774.16 381 773.125V771.5C381 768.602 383.352 766.25 386.25 766.25H386.902C387.773 766.648 388.734 766.875 389.75 766.875C390.766 766.875 391.73 766.648 392.598 766.25Z" fill="#444444"/>
<rect x="439" y="760" width="185" height="10" rx="3" fill="#999999"/>
<rect x="664" y="760" width="110" height="10" rx="3" fill="#999999"/>
<rect x="814" y="760" width="110" height="10" rx="3" fill="#999999"/>
<path d="M962.797 760.435L965.44 763.078C965.552 763.189 965.552 763.371 965.44 763.483L959.041 769.882L956.321 770.184C955.958 770.225 955.65 769.917 955.691 769.554L955.993 766.835L962.393 760.435C962.504 760.324 962.686 760.324 962.797 760.435ZM967.544 759.764L966.114 758.334C965.669 757.889 964.945 757.889 964.497 758.334L963.459 759.371C963.348 759.483 963.348 759.664 963.459 759.776L966.103 762.419C966.214 762.53 966.396 762.53 966.507 762.419L967.544 761.382C967.99 760.933 967.99 760.209 967.544 759.764ZM962.252 768.142V771.125H952.875V761.748H959.609C959.703 761.748 959.791 761.71 959.858 761.645L961.03 760.473C961.253 760.25 961.095 759.872 960.781 759.872H952.407C951.63 759.872 951 760.502 951 761.279V771.593C951 772.37 951.63 773 952.407 773H962.721C963.498 773 964.128 772.37 964.128 771.593V766.97C964.128 766.656 963.75 766.501 963.527 766.72L962.355 767.893C962.29 767.96 962.252 768.048 962.252 768.142Z" fill="#444444"/>
<path d="M1000.66 758.938H997.141L996.865 758.39C996.807 758.273 996.717 758.174 996.606 758.105C996.494 758.036 996.366 758 996.235 758H992.887C992.756 758 992.628 758.036 992.517 758.105C992.406 758.174 992.317 758.272 992.26 758.39L991.984 758.938H988.469C988.344 758.938 988.225 758.987 988.137 759.075C988.049 759.163 988 759.282 988 759.406V760.344C988 760.468 988.049 760.587 988.137 760.675C988.225 760.763 988.344 760.813 988.469 760.813H1000.66C1000.78 760.813 1000.9 760.763 1000.99 760.675C1001.08 760.587 1001.12 760.468 1001.12 760.344V759.406C1001.12 759.282 1001.08 759.163 1000.99 759.075C1000.9 758.987 1000.78 758.938 1000.66 758.938ZM989.559 771.682C989.581 772.039 989.739 772.374 989.999 772.619C990.26 772.864 990.604 773 990.962 773H998.163C998.521 773 998.865 772.864 999.126 772.619C999.386 772.374 999.544 772.039 999.566 771.682L1000.19 761.75H988.937L989.559 771.682Z" fill="#444444"/>
<path fill-rule="evenodd" clip-rule="evenodd" d="M390 1029C401.046 1029 410 1020.05 410 1009C410 997.954 401.046 989 390 989C378.954 989 370 997.954 370 1009C370 1020.05 378.954 1029 390 1029ZM394.75 1004C394.75 1006.76 392.512 1009 389.75 1009C386.988 1009 384.75 1006.76 384.75 1004C384.75 1001.24 386.988 999 389.75 999C392.512 999 394.75 1001.24 394.75 1004ZM392.598 1010.25H393.25C396.148 1010.25 398.5 1012.6 398.5 1015.5V1017.12C398.5 1018.16 397.66 1019 396.625 1019H382.875C381.84 1019 381 1018.16 381 1017.12V1015.5C381 1012.6 383.352 1010.25 386.25 1010.25H386.902C387.773 1010.65 388.734 1010.88 389.75 1010.88C390.766 1010.88 391.73 1010.65 392.598 1010.25Z" fill="#444444"/>
<rect x="439" y="1004" width="185" height="10" rx="3" fill="#999999"/>
<rect x="664" y="1004" width="110" height="10" rx="3" fill="#999999"/>
<rect x="814" y="1004" width="110" height="10" rx="3" fill="#999999"/>
<path d="M962.797 1004.44L965.44 1007.08C965.552 1007.19 965.552 1007.37 965.44 1007.48L959.041 1013.88L956.321 1014.18C955.958 1014.23 955.65 1013.92 955.691 1013.55L955.993 1010.83L962.393 1004.44C962.504 1004.32 962.686 1004.32 962.797 1004.44ZM967.544 1003.76L966.114 1002.33C965.669 1001.89 964.945 1001.89 964.497 1002.33L963.459 1003.37C963.348 1003.48 963.348 1003.66 963.459 1003.78L966.103 1006.42C966.214 1006.53 966.396 1006.53 966.507 1006.42L967.544 1005.38C967.99 1004.93 967.99 1004.21 967.544 1003.76ZM962.252 1012.14V1015.12H952.875V1005.75H959.609C959.703 1005.75 959.791 1005.71 959.858 1005.65L961.03 1004.47C961.253 1004.25 961.095 1003.87 960.781 1003.87H952.407C951.63 1003.87 951 1004.5 951 1005.28V1015.59C951 1016.37 951.63 1017 952.407 1017H962.721C963.498 1017 964.128 1016.37 964.128 1015.59V1010.97C964.128 1010.66 963.75 1010.5 963.527 1010.72L962.355 1011.89C962.29 1011.96 962.252 1012.05 962.252 1012.14Z" fill="#444444"/>
<path d="M1000.66 1002.94H997.141L996.865 1002.39C996.807 1002.27 996.717 1002.17 996.606 1002.11C996.494 1002.04 996.366 1002 996.235 1002H992.887C992.756 1002 992.628 1002.04 992.517 1002.1C992.406 1002.17 992.317 1002.27 992.26 1002.39L991.984 1002.94H988.469C988.344 1002.94 988.225 1002.99 988.137 1003.07C988.049 1003.16 988 1003.28 988 1003.41V1004.34C988 1004.47 988.049 1004.59 988.137 1004.68C988.225 1004.76 988.344 1004.81 988.469 1004.81H1000.66C1000.78 1004.81 1000.9 1004.76 1000.99 1004.68C1001.08 1004.59 1001.12 1004.47 1001.12 1004.34V1003.41C1001.12 1003.28 1001.08 1003.16 1000.99 1003.07C1000.9 1002.99 1000.78 1002.94 1000.66 1002.94ZM989.559 1015.68C989.581 1016.04 989.739 1016.37 989.999 1016.62C990.26 1016.86 990.604 1017 990.962 1017H998.163C998.521 1017 998.865 1016.86 999.126 1016.62C999.386 1016.37 999.544 1016.04 999.566 1015.68L1000.19 1005.75H988.937L989.559 1015.68Z" fill="#444444"/>
<path fill-rule="evenodd" clip-rule="evenodd" d="M390 725C401.046 725 410 716.046 410 705C410 693.954 401.046 685 390 685C378.954 685 370 693.954 370 705C370 716.046 378.954 725 390 725ZM394.75 700C394.75 702.762 392.512 705 389.75 705C386.988 705 384.75 702.762 384.75 700C384.75 697.238 386.988 695 389.75 695C392.512 695 394.75 697.238 394.75 700ZM392.598 706.25H393.25C396.148 706.25 398.5 708.602 398.5 711.5V713.125C398.5 714.16 397.66 715 396.625 715H382.875C381.84 715 381 714.16 381 713.125V711.5C381 708.602 383.352 706.25 386.25 706.25H386.902C387.773 706.648 388.734 706.875 389.75 706.875C390.766 706.875 391.73 706.648 392.598 706.25Z" fill="#444444"/>
<rect x="439" y="700" width="185" height="10" rx="3" fill="#999999"/>
<rect x="664" y="700" width="110" height="10" rx="3" fill="#999999"/>
<rect x="814" y="700" width="110" height="10" rx="3" fill="#999999"/>
<path d="M962.797 700.435L965.44 703.078C965.552 703.189 965.552 703.371 965.44 703.483L959.041 709.882L956.321 710.184C955.958 710.225 955.65 709.917 955.691 709.554L955.993 706.835L962.393 700.435C962.504 700.324 962.686 700.324 962.797 700.435ZM967.544 699.764L966.114 698.334C965.669 697.889 964.945 697.889 964.497 698.334L963.459 699.371C963.348 699.483 963.348 699.664 963.459 699.776L966.103 702.419C966.214 702.53 966.396 702.53 966.507 702.419L967.544 701.382C967.99 700.933 967.99 700.209 967.544 699.764ZM962.252 708.142V711.125H952.875V701.748H959.609C959.703 701.748 959.791 701.71 959.858 701.645L961.03 700.473C961.253 700.25 961.095 699.872 960.781 699.872H952.407C951.63 699.872 951 700.502 951 701.279V711.593C951 712.37 951.63 713 952.407 713H962.721C963.498 713 964.128 712.37 964.128 711.593V706.97C964.128 706.656 963.75 706.501 963.527 706.72L962.355 707.893C962.29 707.96 962.252 708.048 962.252 708.142Z" fill="#444444"/>
<path d="M1000.66 698.938H997.141L996.865 698.39C996.807 698.273 996.717 698.174 996.606 698.105C996.494 698.036 996.366 698 996.235 698H992.887C992.756 698 992.628 698.036 992.517 698.105C992.406 698.174 992.317 698.272 992.26 698.39L991.984 698.938H988.469C988.344 698.938 988.225 698.987 988.137 699.075C988.049 699.163 988 699.282 988 699.406V700.344C988 700.468 988.049 700.587 988.137 700.675C988.225 700.763 988.344 700.813 988.469 700.813H1000.66C1000.78 700.813 1000.9 700.763 1000.99 700.675C1001.08 700.587 1001.12 700.468 1001.12 700.344V699.406C1001.12 699.282 1001.08 699.163 1000.99 699.075C1000.9 698.987 1000.78 698.938 1000.66 698.938ZM989.559 711.682C989.581 712.039 989.739 712.374 989.999 712.619C990.26 712.864 990.604 713 990.962 713H998.163C998.521 713 998.865 712.864 999.126 712.619C999.386 712.374 999.544 712.039 999.566 711.682L1000.19 701.75H988.937L989.559 711.682Z" fill="#444444"/>
<path fill-rule="evenodd" clip-rule="evenodd" d="M390 969C401.046 969 410 960.046 410 949C410 937.954 401.046 929 390 929C378.954 929 370 937.954 370 949C370 960.046 378.954 969 390 969ZM394.75 944C394.75 946.762 392.512 949 389.75 949C386.988 949 384.75 946.762 384.75 944C384.75 941.238 386.988 939 389.75 939C392.512 939 394.75 941.238 394.75 944ZM392.598 950.25H393.25C396.148 950.25 398.5 952.602 398.5 955.5V957.125C398.5 958.16 397.66 959 396.625 959H382.875C381.84 959 381 958.16 381 957.125V955.5C381 952.602 383.352 950.25 386.25 950.25H386.902C387.773 950.648 388.734 950.875 389.75 950.875C390.766 950.875 391.73 950.648 392.598 950.25Z" fill="#444444"/>
<rect x="439" y="944" width="185" height="10" rx="3" fill="#999999"/>
<rect x="664" y="944" width="110" height="10" rx="3" fill="#999999"/>
<rect x="814" y="944" width="110" height="10" rx="3" fill="#999999"/>
<path d="M962.797 944.435L965.44 947.078C965.552 947.189 965.552 947.371 965.44 947.483L959.041 953.882L956.321 954.184C955.958 954.225 955.65 953.917 955.691 953.554L955.993 950.835L962.393 944.435C962.504 944.324 962.686 944.324 962.797 944.435ZM967.544 943.764L966.114 942.334C965.669 941.889 964.945 941.889 964.497 942.334L963.459 943.371C963.348 943.483 963.348 943.664 963.459 943.776L966.103 946.419C966.214 946.53 966.396 946.53 966.507 946.419L967.544 945.382C967.99 944.933 967.99 944.209 967.544 943.764ZM962.252 952.142V955.125H952.875V945.748H959.609C959.703 945.748 959.791 945.71 959.858 945.645L961.03 944.473C961.253 944.25 961.095 943.872 960.781 943.872H952.407C951.63 943.872 951 944.502 951 945.279V955.593C951 956.37 951.63 957 952.407 957H962.721C963.498 957 964.128 956.37 964.128 955.593V950.97C964.128 950.656 963.75 950.501 963.527 950.72L962.355 951.893C962.29 951.96 962.252 952.048 962.252 952.142Z" fill="#444444"/>
<path d="M1000.66 942.938H997.141L996.865 942.39C996.807 942.273 996.717 942.174 996.606 942.105C996.494 942.036 996.366 942 996.235 942H992.887C992.756 942 992.628 942.036 992.517 942.105C992.406 942.174 992.317 942.272 992.26 942.39L991.984 942.938H988.469C988.344 942.938 988.225 942.987 988.137 943.075C988.049 943.163 988 943.282 988 943.406V944.344C988 944.468 988.049 944.587 988.137 944.675C988.225 944.763 988.344 944.813 988.469 944.813H1000.66C1000.78 944.813 1000.9 944.763 1000.99 944.675C1001.08 944.587 1001.12 944.468 1001.12 944.344V943.406C1001.12 943.282 1001.08 943.163 1000.99 943.075C1000.9 942.987 1000.78 942.938 1000.66 942.938ZM989.559 955.682C989.581 956.039 989.739 956.374 989.999 956.619C990.26 956.864 990.604 957 990.962 957H998.163C998.521 957 998.865 956.864 999.126 956.619C999.386 956.374 999.544 956.039 999.566 955.682L1000.19 945.75H988.937L989.559 955.682Z" fill="#444444"/>
<path fill-rule="evenodd" clip-rule="evenodd" d="M390 845C401.046 845 410 836.046 410 825C410 813.954 401.046 805 390 805C378.954 805 370 813.954 370 825C370 836.046 378.954 845 390 845ZM394.75 820C394.75 822.762 392.512 825 389.75 825C386.988 825 384.75 822.762 384.75 820C384.75 817.238 386.988 815 389.75 815C392.512 815 394.75 817.238 394.75 820ZM392.598 826.25H393.25C396.148 826.25 398.5 828.602 398.5 831.5V833.125C398.5 834.16 397.66 835 396.625 835H382.875C381.84 835 381 834.16 381 833.125V831.5C381 828.602 383.352 826.25 386.25 826.25H386.902C387.773 826.648 388.734 826.875 389.75 826.875C390.766 826.875 391.73 826.648 392.598 826.25Z" fill="#444444"/>
<rect x="439" y="820" width="185" height="10" rx="3" fill="#999999"/>
<rect x="664" y="820" width="110" height="10" rx="3" fill="#999999"/>
<rect x="814" y="820" width="110" height="10" rx="3" fill="#999999"/>
<path d="M962.797 820.435L965.44 823.078C965.552 823.189 965.552 823.371 965.44 823.483L959.041 829.882L956.321 830.184C955.958 830.225 955.65 829.917 955.691 829.554L955.993 826.835L962.393 820.435C962.504 820.324 962.686 820.324 962.797 820.435ZM967.544 819.764L966.114 818.334C965.669 817.889 964.945 817.889 964.497 818.334L963.459 819.371C963.348 819.483 963.348 819.664 963.459 819.776L966.103 822.419C966.214 822.53 966.396 822.53 966.507 822.419L967.544 821.382C967.99 820.933 967.99 820.209 967.544 819.764ZM962.252 828.142V831.125H952.875V821.748H959.609C959.703 821.748 959.791 821.71 959.858 821.645L961.03 820.473C961.253 820.25 961.095 819.872 960.781 819.872H952.407C951.63 819.872 951 820.502 951 821.279V831.593C951 832.37 951.63 833 952.407 833H962.721C963.498 833 964.128 832.37 964.128 831.593V826.97C964.128 826.656 963.75 826.501 963.527 826.72L962.355 827.893C962.29 827.96 962.252 828.048 962.252 828.142Z" fill="#444444"/>
<path d="M1000.66 818.938H997.141L996.865 818.39C996.807 818.273 996.717 818.174 996.606 818.105C996.494 818.036 996.366 818 996.235 818H992.887C992.756 818 992.628 818.036 992.517 818.105C992.406 818.174 992.317 818.272 992.26 818.39L991.984 818.938H988.469C988.344 818.938 988.225 818.987 988.137 819.075C988.049 819.163 988 819.282 988 819.406V820.344C988 820.468 988.049 820.587 988.137 820.675C988.225 820.763 988.344 820.813 988.469 820.813H1000.66C1000.78 820.813 1000.9 820.763 1000.99 820.675C1001.08 820.587 1001.12 820.468 1001.12 820.344V819.406C1001.12 819.282 1001.08 819.163 1000.99 819.075C1000.9 818.987 1000.78 818.938 1000.66 818.938ZM989.559 831.682C989.581 832.039 989.739 832.374 989.999 832.619C990.26 832.864 990.604 833 990.962 833H998.163C998.521 833 998.865 832.864 999.126 832.619C999.386 832.374 999.544 832.039 999.566 831.682L1000.19 821.75H988.937L989.559 831.682Z" fill="#444444"/>
<path fill-rule="evenodd" clip-rule="evenodd" d="M390 1089C401.046 1089 410 1080.05 410 1069C410 1057.95 401.046 1049 390 1049C378.954 1049 370 1057.95 370 1069C370 1080.05 378.954 1089 390 1089ZM394.75 1064C394.75 1066.76 392.512 1069 389.75 1069C386.988 1069 384.75 1066.76 384.75 1064C384.75 1061.24 386.988 1059 389.75 1059C392.512 1059 394.75 1061.24 394.75 1064ZM392.598 1070.25H393.25C396.148 1070.25 398.5 1072.6 398.5 1075.5V1077.12C398.5 1078.16 397.66 1079 396.625 1079H382.875C381.84 1079 381 1078.16 381 1077.12V1075.5C381 1072.6 383.352 1070.25 386.25 1070.25H386.902C387.773 1070.65 388.734 1070.88 389.75 1070.88C390.766 1070.88 391.73 1070.65 392.598 1070.25Z" fill="#444444"/>
<rect x="439" y="1064" width="185" height="10" rx="3" fill="#999999"/>
<rect x="664" y="1064" width="110" height="10" rx="3" fill="#999999"/>
<rect x="814" y="1064" width="110" height="10" rx="3" fill="#999999"/>
<path d="M962.797 1064.44L965.44 1067.08C965.552 1067.19 965.552 1067.37 965.44 1067.48L959.041 1073.88L956.321 1074.18C955.958 1074.23 955.65 1073.92 955.691 1073.55L955.993 1070.83L962.393 1064.44C962.504 1064.32 962.686 1064.32 962.797 1064.44ZM967.544 1063.76L966.114 1062.33C965.669 1061.89 964.945 1061.89 964.497 1062.33L963.459 1063.37C963.348 1063.48 963.348 1063.66 963.459 1063.78L966.103 1066.42C966.214 1066.53 966.396 1066.53 966.507 1066.42L967.544 1065.38C967.99 1064.93 967.99 1064.21 967.544 1063.76ZM962.252 1072.14V1075.12H952.875V1065.75H959.609C959.703 1065.75 959.791 1065.71 959.858 1065.65L961.03 1064.47C961.253 1064.25 961.095 1063.87 960.781 1063.87H952.407C951.63 1063.87 951 1064.5 951 1065.28V1075.59C951 1076.37 951.63 1077 952.407 1077H962.721C963.498 1077 964.128 1076.37 964.128 1075.59V1070.97C964.128 1070.66 963.75 1070.5 963.527 1070.72L962.355 1071.89C962.29 1071.96 962.252 1072.05 962.252 1072.14Z" fill="#444444"/>
<path d="M1000.66 1062.94H997.141L996.865 1062.39C996.807 1062.27 996.717 1062.17 996.606 1062.11C996.494 1062.04 996.366 1062 996.235 1062H992.887C992.756 1062 992.628 1062.04 992.517 1062.1C992.406 1062.17 992.317 1062.27 992.26 1062.39L991.984 1062.94H988.469C988.344 1062.94 988.225 1062.99 988.137 1063.07C988.049 1063.16 988 1063.28 988 1063.41V1064.34C988 1064.47 988.049 1064.59 988.137 1064.68C988.225 1064.76 988.344 1064.81 988.469 1064.81H1000.66C1000.78 1064.81 1000.9 1064.76 1000.99 1064.68C1001.08 1064.59 1001.12 1064.47 1001.12 1064.34V1063.41C1001.12 1063.28 1001.08 1063.16 1000.99 1063.07C1000.9 1062.99 1000.78 1062.94 1000.66 1062.94ZM989.559 1075.68C989.581 1076.04 989.739 1076.37 989.999 1076.62C990.26 1076.86 990.604 1077 990.962 1077H998.163C998.521 1077 998.865 1076.86 999.126 1076.62C999.386 1076.37 999.544 1076.04 999.566 1075.68L1000.19 1065.75H988.937L989.559 1075.68Z" fill="#444444"/>
<rect x="338" y="674" width="703" height="1" fill="#EEEEEE"/>
<rect x="338" y="918" width="703" height="1" fill="#EEEEEE"/>
<rect x="338" y="735" width="703" height="1" fill="#EEEEEE"/>
<rect x="338" y="979" width="703" height="1" fill="#EEEEEE"/>
<rect x="338" y="795" width="703" height="1" fill="#EEEEEE"/>
<rect x="338" y="1039" width="703" height="1" fill="#EEEEEE"/>
<rect x="338" y="855" width="703" height="1" fill="#EEEEEE"/>
<rect x="587" y="120" width="454" height="454" fill="#CCCCCC"/>
<g clip-path="url(#clip1)">
<path d="M729.423 230.639C729.458 230.313 729.56 230.005 729.56 229.679C729.56 223.63 724.643 218.713 718.594 218.713C716.435 218.713 714.448 219.364 712.751 220.426C709.736 213.778 703.07 209.117 695.291 209.117C684.702 209.117 676.1 217.702 676.1 228.308C676.1 228.822 676.22 229.302 676.254 229.799C667.756 230.433 661.022 237.458 661.022 246.128C661.022 255.21 668.39 262.578 677.471 262.578H724.077C733.159 262.578 740.527 255.21 740.527 246.128C740.527 238.915 735.866 232.866 729.423 230.639ZM655.676 226.766C648.188 219.278 648.188 207.113 655.676 199.642C663.164 192.154 675.329 192.154 682.817 199.642C684.479 201.304 685.713 203.223 686.638 205.245C688.317 204.611 690.082 204.217 691.898 203.96L697.005 188.727C697.69 186.688 695.754 184.769 693.715 185.437L678.67 190.458L671.56 176.27C670.617 174.351 667.876 174.351 666.916 176.27L659.822 190.458L644.761 185.437C642.739 184.769 640.803 186.705 641.471 188.727L646.492 203.771L632.304 210.882C630.385 211.842 630.385 214.566 632.304 215.526L646.492 222.62L641.471 237.664C640.786 239.703 642.722 241.622 644.761 240.954L657.8 236.619C658.846 234.494 660.199 232.558 661.844 230.878C659.6 229.953 657.492 228.582 655.676 226.766ZM654.853 213.195C654.853 220.186 659.874 226.012 666.488 227.297C667.858 226.492 669.281 225.789 670.806 225.293C671.731 217.702 676.117 211.156 682.354 207.301C680.093 202.315 675.072 198.819 669.246 198.819C661.313 198.819 654.853 205.262 654.853 213.195Z" fill="#444444"/>
</g>
<path d="M784.122 209.831H802.787V205.305H791.793V205.126L795.615 201.381C800.997 196.472 802.442 194.017 802.442 191.038C802.442 186.5 798.734 183.291 793.122 183.291C787.625 183.291 783.854 186.577 783.866 191.716H789.121C789.108 189.21 790.693 187.676 793.084 187.676C795.385 187.676 797.098 189.108 797.098 191.409C797.098 193.493 795.82 194.925 793.442 197.213L784.122 205.842V209.831ZM816.271 183.291C810.416 183.266 806.466 187.101 806.491 192.368C806.504 197.251 809.892 200.793 814.532 200.793C817.409 200.793 819.966 199.399 821.129 197.098H821.308C821.295 202.288 819.493 205.446 816.079 205.446C814.072 205.446 812.627 204.347 812.206 202.442H806.747C807.258 206.852 810.838 210.189 816.079 210.189C822.561 210.189 826.741 204.947 826.728 196.062C826.716 186.577 821.653 183.317 816.271 183.291ZM816.309 187.638C818.853 187.638 820.733 189.709 820.758 192.202C820.771 194.707 818.789 196.778 816.258 196.778C813.701 196.778 811.873 194.784 811.86 192.214C811.835 189.658 813.74 187.638 816.309 187.638ZM836.713 196.037C840.19 196.037 842.99 193.224 842.99 189.76C842.99 186.283 840.19 183.47 836.713 183.47C833.248 183.47 830.436 186.283 830.436 189.76C830.436 193.224 833.248 196.037 836.713 196.037ZM836.713 192.406C835.255 192.406 834.066 191.217 834.066 189.76C834.066 188.29 835.255 187.101 836.713 187.101C838.183 187.101 839.359 188.29 839.359 189.76C839.359 191.217 838.183 192.406 836.713 192.406Z" fill="#444444"/>
<path fill-rule="evenodd" clip-rule="evenodd" d="M1024.99 408.223C1024.26 408.951 1024.26 410.131 1024.99 410.859C1025.72 411.587 1026.9 411.587 1027.62 410.859L1038.48 400L1041 400V408.027L1019.45 429.577C1018.72 430.305 1018.72 431.485 1019.45 432.213C1020.18 432.941 1021.36 432.941 1022.09 432.213L1041 413.298V423.842L1040.8 424.038C1040.08 424.766 1040.08 425.946 1040.8 426.674C1040.87 426.737 1040.93 426.794 1041 426.845V439.657L1035.26 445.392C1034.54 446.12 1034.54 447.3 1035.26 448.028C1035.99 448.756 1037.17 448.756 1037.9 448.028L1041 444.929V455.473L1036.45 460.02C1033.34 459.799 1030.25 459.359 1027.2 458.732L1028.54 457.387C1029.27 456.659 1029.27 455.479 1028.54 454.751C1027.81 454.023 1026.63 454.023 1025.91 454.751L1022.92 457.733C1020.22 457.026 1017.55 456.182 1014.89 455.226L1034.08 436.033C1034.81 435.305 1034.81 434.125 1034.08 433.397C1033.35 432.67 1032.17 432.67 1031.44 433.397L1011.07 453.771C1008.61 452.783 1006.17 451.706 1003.74 450.558L1012.73 441.572C1013.45 440.844 1013.45 439.664 1012.73 438.936C1012 438.208 1010.82 438.208 1010.09 438.936L1000.2 448.829C997.768 447.609 995.356 446.326 992.961 445.001C993.344 444.945 993.713 444.769 994.008 444.474L1018.26 420.218C1018.99 419.49 1018.99 418.31 1018.26 417.582C1017.54 416.854 1016.36 416.854 1015.63 417.582L991.372 441.838C990.817 442.394 990.686 443.212 990.977 443.892C988.388 442.43 985.819 440.925 983.267 439.4L996.911 425.757C997.639 425.029 997.639 423.849 996.911 423.121C996.183 422.393 995.003 422.393 994.275 423.121L979.977 437.419C977.969 436.201 975.972 434.978 973.986 433.762L973.985 433.762L973.983 433.761L973.983 433.761L973.98 433.758C970.479 431.615 967.013 429.492 963.579 427.458L981.096 409.941C981.824 409.213 981.824 408.033 981.096 407.305C980.368 406.577 979.188 406.577 978.46 407.305L960.254 425.511C957.949 424.181 955.659 422.9 953.383 421.69C953.714 420.997 953.593 420.141 953.019 419.567C952.291 418.839 951.111 418.839 950.383 419.567L950.006 419.944C947.588 418.732 945.185 417.611 942.798 416.608L959.406 400L969.95 400L959.742 410.208C959.014 410.936 959.014 412.116 959.742 412.844C960.47 413.572 961.65 413.572 962.378 412.844L975.222 400L987.424 400C987.514 400.211 987.646 400.409 987.819 400.582C988.547 401.31 989.727 401.31 990.455 400.582L991.037 400L1017.4 400L1003.63 413.762C1002.91 414.489 1002.91 415.67 1003.63 416.397C1004.36 417.125 1005.54 417.125 1006.27 416.397L1022.67 400L1033.21 400L1024.99 408.223ZM764.003 418.798C763.275 418.07 763.275 416.89 764.003 416.162L780.165 400L769.618 400C769.593 400.027 769.568 400.054 769.542 400.08L745.285 424.337C744.558 425.065 743.377 425.065 742.65 424.337C741.922 423.609 741.922 422.429 742.65 421.701L764.35 400L753.807 400L750.824 402.983C750.096 403.711 748.916 403.711 748.188 402.983C747.46 402.255 747.46 401.075 748.188 400.347L748.535 400L737.991 400L729.47 408.521C728.742 409.249 727.562 409.249 726.834 408.521C726.106 407.793 726.106 406.613 726.834 405.885L732.72 400L722.176 400L701.393 420.783C700.665 421.511 699.485 421.511 698.757 420.783C698.029 420.055 698.029 418.875 698.757 418.147L716.904 400L704.686 400C704.984 400.682 704.854 401.507 704.296 402.065L680.039 426.322C679.311 427.049 678.131 427.049 677.403 426.322C676.675 425.594 676.675 424.414 677.403 423.686L701.089 400L690.546 400L685.578 404.968C684.85 405.696 683.67 405.696 682.942 404.968C682.214 404.24 682.214 403.06 682.942 402.332L685.274 400L674.73 400L664.224 410.506C663.496 411.234 662.316 411.234 661.588 410.506C660.86 409.778 660.86 408.598 661.588 407.87L669.458 400L658.915 400L636.147 422.768C635.419 423.496 634.239 423.496 633.511 422.768C632.783 422.04 632.783 420.86 633.511 420.132L653.643 400L627.284 400L620.332 406.952C619.604 407.68 618.424 407.68 617.696 406.952C616.968 406.225 616.968 405.044 617.696 404.317L622.012 400H611.469L598.978 412.491C598.25 413.219 597.07 413.219 596.342 412.491C595.614 411.763 595.614 410.583 596.342 409.855L606.197 400H595.513C595.425 400.179 595.306 400.347 595.157 400.496L587 408.653L587 419.197C587.729 418.486 588.896 418.492 589.619 419.214C590.346 419.942 590.346 421.122 589.619 421.85L587 424.468V435.012L608.337 413.675C609.064 412.948 610.245 412.948 610.972 413.675C611.7 414.403 611.7 415.583 610.972 416.311L587 440.284V450.828L602.798 435.029C603.526 434.302 604.706 434.302 605.434 435.029C606.162 435.757 606.162 436.937 605.434 437.665L587 456.099L587 472.613C589.72 473.029 592.663 473.361 595.862 473.596L618.614 450.845C619.341 450.117 620.522 450.117 621.249 450.845C621.977 451.573 621.977 452.753 621.249 453.481L600.857 473.874C603.003 473.957 605.255 474 607.62 474C615.367 474 622.26 473.521 628.433 472.656L634.429 466.66C635.157 465.932 636.337 465.932 637.065 466.66C637.793 467.388 637.793 468.568 637.065 469.296L634.773 471.588C640.273 470.495 645.142 469.072 649.501 467.404L655.783 461.122C656.511 460.394 657.691 460.394 658.419 461.122C658.949 461.652 659.093 462.421 658.851 463.082C669.242 457.37 676.257 450.204 682.748 443.574C690.025 436.14 696.643 429.38 706.621 426.099L717.475 415.244C718.203 414.517 719.383 414.517 720.111 415.244C720.839 415.972 720.839 417.152 720.111 417.88L713.488 424.504C715.718 424.182 718.104 424.011 720.675 424.011C721.975 424.011 723.241 424.028 724.474 424.061L738.829 409.706C739.557 408.978 740.737 408.978 741.465 409.706C742.193 410.434 742.193 411.614 741.465 412.342L729.513 424.294C738.396 424.885 745.546 426.351 751.94 428.226L754.644 425.521C755.372 424.793 756.552 424.793 757.28 425.521C758.008 426.249 758.008 427.429 757.28 428.157L755.955 429.482C758.618 430.365 761.177 431.307 763.713 432.268L782.721 413.26C783.449 412.532 784.629 412.532 785.357 413.26C786.085 413.988 786.085 415.168 785.357 415.896L767.526 433.727C773.656 436.078 779.889 438.432 787.37 440.242L798.537 429.075C799.265 428.347 800.445 428.347 801.173 429.075C801.9 429.803 801.9 430.983 801.173 431.711L791.689 441.194C794.527 441.759 797.549 442.242 800.807 442.62L819.891 423.537C820.618 422.809 821.799 422.809 822.526 423.537C823.254 424.264 823.254 425.445 822.526 426.172L805.616 443.083C809.245 443.364 813.154 443.519 817.401 443.519C823 443.519 828.081 443.077 832.761 442.297L835.706 439.352C836.434 438.624 837.614 438.624 838.342 439.352C838.802 439.812 838.971 440.454 838.849 441.047C845.2 439.492 850.807 437.313 856.037 434.836L863.783 427.09C864.511 426.362 865.691 426.362 866.419 427.09C866.987 427.659 867.112 428.503 866.792 429.192C868.005 428.512 869.21 427.827 870.414 427.143L870.419 427.14C878.233 422.7 885.988 418.294 895.226 415.28C894.959 415.192 894.708 415.041 894.496 414.829C893.768 414.101 893.768 412.921 894.496 412.193L906.688 400L896.145 400L875.778 420.367C875.05 421.095 873.87 421.095 873.142 420.367C872.414 419.639 872.414 418.459 873.142 417.731L890.873 400L864.514 400L859.962 404.552C859.234 405.28 858.054 405.28 857.326 404.552C856.599 403.824 856.599 402.644 857.326 401.916L859.242 400L848.699 400L831.886 416.813C831.158 417.541 829.978 417.541 829.25 416.813C828.522 416.086 828.522 414.905 829.25 414.178L843.427 400L832.884 400L810.532 422.352C809.804 423.08 808.624 423.08 807.896 422.352C807.168 421.624 807.168 420.444 807.896 419.716L827.612 400L817.068 400L816.07 400.998C815.342 401.726 814.162 401.726 813.434 400.998C813.152 400.716 812.979 400.366 812.916 400L801.253 400L794.716 406.537C793.988 407.264 792.808 407.264 792.08 406.537C791.352 405.809 791.352 404.629 792.08 403.901L795.981 400L785.437 400L766.639 418.798C765.911 419.526 764.731 419.526 764.003 418.798ZM911.96 400L897.336 414.624C901.405 413.422 905.769 412.496 910.55 411.954L913.214 409.29C913.942 408.562 915.122 408.562 915.85 409.29C916.451 409.891 916.555 410.8 916.164 411.509C917.544 411.445 918.957 411.412 920.407 411.412C922.419 411.412 924.44 411.563 926.471 411.848L934.567 403.751C935.295 403.024 936.475 403.024 937.203 403.751C937.931 404.479 937.931 405.66 937.203 406.387L930.916 412.675C933.598 413.292 936.298 414.119 939.017 415.118L954.134 400L927.776 400L925.209 402.567C924.481 403.295 923.301 403.295 922.573 402.567C921.867 401.862 921.845 400.732 922.507 400L911.96 400ZM587 400H590.382L587 403.382L587 400ZM627.972 444.122C627.245 443.394 627.245 442.214 627.972 441.486L652.229 417.229C652.957 416.501 654.137 416.501 654.865 417.229C655.593 417.957 655.593 419.137 654.865 419.865L630.608 444.122C629.88 444.85 628.7 444.85 627.972 444.122ZM612.157 428.306C611.429 427.578 611.429 426.398 612.157 425.67L636.414 401.414C637.141 400.686 638.322 400.686 639.049 401.414C639.777 402.142 639.777 403.322 639.049 404.05L614.793 428.306C614.065 429.034 612.885 429.034 612.157 428.306ZM643.788 459.937C643.06 459.209 643.06 458.029 643.788 457.301L668.044 433.045C668.772 432.317 669.952 432.317 670.68 433.045C671.408 433.773 671.408 434.953 670.68 435.681L646.424 459.937C645.696 460.665 644.516 460.665 643.788 459.937ZM823.711 435.531C822.983 436.259 822.983 437.439 823.711 438.167C824.439 438.895 825.619 438.895 826.347 438.167L850.603 413.911C851.331 413.183 851.331 412.003 850.603 411.275C849.875 410.547 848.695 410.547 847.967 411.275L823.711 435.531ZM845.065 429.993C844.337 430.721 844.337 431.901 845.065 432.629C845.793 433.357 846.973 433.357 847.701 432.629L871.957 408.372C872.685 407.644 872.685 406.464 871.957 405.736C871.229 405.008 870.049 405.008 869.321 405.736L845.065 429.993ZM975.557 426.023C974.829 426.751 974.829 427.931 975.557 428.659C976.285 429.387 977.465 429.387 978.193 428.659L1002.45 404.403C1003.18 403.675 1003.18 402.495 1002.45 401.767C1001.72 401.039 1000.54 401.039 999.814 401.767L975.557 426.023ZM615.711 472.199C614.983 471.471 614.983 470.291 615.711 469.563L639.967 445.306C640.695 444.578 641.875 444.578 642.603 445.306C643.331 446.034 643.331 447.214 642.603 447.942L618.347 472.199C617.619 472.927 616.439 472.927 615.711 472.199ZM599.896 456.383C599.168 455.655 599.168 454.475 599.896 453.747L624.152 429.491C624.88 428.763 626.06 428.763 626.788 429.491C627.516 430.219 627.516 431.399 626.788 432.127L602.531 456.383C601.804 457.111 600.623 457.111 599.896 456.383ZM649.326 438.583C648.598 437.855 648.598 436.675 649.326 435.947L673.583 411.691C674.311 410.963 675.491 410.963 676.219 411.691C676.947 412.419 676.947 413.599 676.219 414.327L651.962 438.583C651.234 439.311 650.054 439.311 649.326 438.583ZM779.819 434.614C779.091 433.886 779.091 432.706 779.819 431.978L804.075 407.721C804.803 406.993 805.983 406.993 806.711 407.721C807.439 408.449 807.439 409.629 806.711 410.357L782.455 434.614C781.727 435.341 780.547 435.341 779.819 434.614ZM665.142 454.399C664.414 453.671 664.414 452.491 665.142 451.763L689.398 427.506C690.126 426.778 691.306 426.778 692.034 427.506C692.762 428.234 692.762 429.414 692.034 430.142L667.778 454.399C667.05 455.126 665.87 455.126 665.142 454.399Z" fill="#999999"/>
<path fill-rule="evenodd" clip-rule="evenodd" d="M1041 291.496V410.681H587V248.115C605.767 253.741 623.343 287.008 640.021 318.577C656.383 349.545 671.881 378.879 686.792 378.879C706.265 378.879 718.267 357.803 730.431 336.441C742.929 314.494 755.598 292.246 776.715 292.246C797.979 292.246 809.535 305.952 820.853 319.377C831.715 332.26 842.358 344.884 861.155 344.884C877.546 344.884 885.337 320.285 894.265 292.097C906.243 254.278 920.267 210 959.85 210C988.038 210 997.772 231.736 1007.23 252.859C1015.14 270.517 1022.86 287.747 1041 291.496Z" fill="#444444"/>
<path d="M617.383 505.909V519H620.068V510.447H620.176L623.564 518.936H625.392L628.78 510.479H628.889V519H631.573V505.909H628.16L624.555 514.705H624.401L620.796 505.909H617.383ZM638.239 519.192C641.217 519.192 643.071 517.153 643.071 514.129C643.071 511.087 641.217 509.054 638.239 509.054C635.26 509.054 633.406 511.087 633.406 514.129C633.406 517.153 635.26 519.192 638.239 519.192ZM638.251 517.082C636.877 517.082 636.174 515.823 636.174 514.11C636.174 512.397 636.877 511.131 638.251 511.131C639.6 511.131 640.303 512.397 640.303 514.11C640.303 515.823 639.6 517.082 638.251 517.082Z" fill="#444444"/>
<path d="M615.452 551H624.784V548.737H619.287V548.648L621.198 546.775C623.889 544.32 624.612 543.093 624.612 541.604C624.612 539.335 622.758 537.73 619.952 537.73C617.203 537.73 615.317 539.373 615.324 541.942H617.951C617.945 540.69 618.737 539.923 619.933 539.923C621.083 539.923 621.94 540.638 621.94 541.789C621.94 542.831 621.3 543.547 620.112 544.691L615.452 549.006V551ZM631.571 551.179C634.486 551.179 636.467 549.281 636.461 546.634C636.467 544.129 634.716 542.326 632.357 542.326C631.206 542.326 630.216 542.805 629.756 543.451H629.679L630.018 540.172H635.738V537.909H627.736L627.116 544.812L629.577 545.254C629.979 544.71 630.759 544.371 631.532 544.371C632.849 544.378 633.795 545.33 633.795 546.705C633.795 548.066 632.868 549.006 631.571 549.006C630.471 549.006 629.583 548.315 629.519 547.299H626.834C626.885 549.562 628.861 551.179 631.571 551.179ZM641.466 544.103C643.204 544.103 644.604 542.697 644.604 540.964C644.604 539.226 643.204 537.82 641.466 537.82C639.733 537.82 638.327 539.226 638.327 540.964C638.327 542.697 639.733 544.103 641.466 544.103ZM641.466 542.288C640.737 542.288 640.143 541.693 640.143 540.964C640.143 540.229 640.737 539.635 641.466 539.635C642.201 539.635 642.789 540.229 642.789 540.964C642.789 541.693 642.201 542.288 641.466 542.288Z" fill="#444444"/>
<path d="M681.697 508.191H685.705V519H688.44V508.191H692.448V505.909H681.697V508.191ZM699.128 514.82C699.134 516.136 698.233 516.827 697.255 516.827C696.226 516.827 695.561 516.104 695.555 514.947V509.182H692.832V515.433C692.838 517.728 694.18 519.128 696.156 519.128C697.632 519.128 698.693 518.367 699.134 517.217H699.237V519H701.851V509.182H699.128V514.82Z" fill="#444444"/>
<path d="M677.4 551H686.732V548.737H681.235V548.648L683.146 546.775C685.837 544.32 686.56 543.093 686.56 541.604C686.56 539.335 684.706 537.73 681.9 537.73C679.151 537.73 677.266 539.373 677.272 541.942H679.899C679.893 540.69 680.685 539.923 681.881 539.923C683.031 539.923 683.888 540.638 683.888 541.789C683.888 542.831 683.249 543.547 682.06 544.691L677.4 549.006V551ZM689.256 551H692.113L697.546 540.204V537.909H688.361V540.172H694.682V540.261L689.256 551ZM702.517 544.103C704.256 544.103 705.656 542.697 705.656 540.964C705.656 539.226 704.256 537.82 702.517 537.82C700.785 537.82 699.379 539.226 699.379 540.964C699.379 542.697 700.785 544.103 702.517 544.103ZM702.517 542.288C701.789 542.288 701.194 541.693 701.194 540.964C701.194 540.229 701.789 539.635 702.517 539.635C703.253 539.635 703.841 540.229 703.841 540.964C703.841 541.693 703.253 542.288 702.517 542.288Z" fill="#444444"/>
<path d="M743.408 519H746.105L748.592 510.441H748.694L751.187 519H753.884L757.63 505.909H754.607L752.44 515.024H752.325L749.94 505.909H747.352L744.961 515.005H744.852L742.685 505.909H739.662L743.408 519ZM762.48 519.192C764.909 519.192 766.545 518.009 766.929 516.188L764.41 516.021C764.136 516.769 763.432 517.159 762.525 517.159C761.163 517.159 760.3 516.258 760.3 514.794V514.788H766.986V514.04C766.986 510.703 764.967 509.054 762.371 509.054C759.482 509.054 757.609 511.106 757.609 514.136C757.609 517.249 759.457 519.192 762.48 519.192ZM760.3 513.1C760.358 511.982 761.208 511.087 762.416 511.087C763.599 511.087 764.417 511.93 764.423 513.1H760.3Z" fill="#444444"/>
<path d="M738.452 551H747.784V548.737H742.287V548.648L744.198 546.775C746.889 544.32 747.612 543.093 747.612 541.604C747.612 539.335 745.758 537.73 742.952 537.73C740.203 537.73 738.317 539.373 738.324 541.942H740.951C740.945 540.69 741.737 539.923 742.933 539.923C744.083 539.923 744.94 540.638 744.94 541.789C744.94 542.831 744.3 543.547 743.112 544.691L738.452 549.006V551ZM754.571 551.179C757.486 551.179 759.467 549.281 759.461 546.634C759.467 544.129 757.716 542.326 755.357 542.326C754.206 542.326 753.216 542.805 752.756 543.451H752.679L753.018 540.172H758.738V537.909H750.736L750.116 544.812L752.577 545.254C752.979 544.71 753.759 544.371 754.532 544.371C755.849 544.378 756.795 545.33 756.795 546.705C756.795 548.066 755.868 549.006 754.571 549.006C753.471 549.006 752.583 548.315 752.519 547.299H749.834C749.885 549.562 751.861 551.179 754.571 551.179ZM764.466 544.103C766.204 544.103 767.604 542.697 767.604 540.964C767.604 539.226 766.204 537.82 764.466 537.82C762.733 537.82 761.327 539.226 761.327 540.964C761.327 542.697 762.733 544.103 764.466 544.103ZM764.466 542.288C763.737 542.288 763.143 541.693 763.143 540.964C763.143 540.229 763.737 539.635 764.466 539.635C765.201 539.635 765.789 540.229 765.789 540.964C765.789 541.693 765.201 542.288 764.466 542.288Z" fill="#444444"/>
<path d="M804.011 508.191H808.019V519H810.755V508.191H814.763V505.909H804.011V508.191ZM819.205 513.324C819.212 512.058 819.985 511.317 821.097 511.317C822.203 511.317 822.855 512.026 822.849 513.234V519H825.572V512.749C825.578 510.447 824.223 509.054 822.177 509.054C820.688 509.054 819.691 509.757 819.244 510.914H819.128V505.909H816.482V519H819.205V513.324Z" fill="#444444"/>
<path d="M800.4 551H809.732V548.737H804.235V548.648L806.146 546.775C808.837 544.32 809.56 543.093 809.56 541.604C809.56 539.335 807.706 537.73 804.9 537.73C802.151 537.73 800.266 539.373 800.272 541.942H802.899C802.893 540.69 803.685 539.923 804.881 539.923C806.031 539.923 806.888 540.638 806.888 541.789C806.888 542.831 806.249 543.547 805.06 544.691L800.4 549.006V551ZM812.256 551H815.113L820.546 540.204V537.909H811.361V540.172H817.682V540.261L812.256 551ZM825.517 544.103C827.256 544.103 828.656 542.697 828.656 540.964C828.656 539.226 827.256 537.82 825.517 537.82C823.785 537.82 822.379 539.226 822.379 540.964C822.379 542.697 823.785 544.103 825.517 544.103ZM825.517 542.288C824.789 542.288 824.194 541.693 824.194 540.964C824.194 540.229 824.789 539.635 825.517 539.635C826.253 539.635 826.841 540.229 826.841 540.964C826.841 541.693 826.253 542.288 825.517 542.288Z" fill="#444444"/>
<path d="M866.317 519H869.085V513.592H874.41V511.31H869.085V508.191H874.985V505.909H866.317V519ZM876.637 519H879.36V513.445C879.36 512.237 880.243 511.406 881.444 511.406C881.821 511.406 882.339 511.47 882.595 511.553V509.137C882.352 509.08 882.013 509.041 881.738 509.041C880.639 509.041 879.738 509.68 879.38 510.895H879.277V509.182H876.637V519ZM884.003 519H886.726V509.182H884.003V519ZM885.371 507.916C886.182 507.916 886.847 507.296 886.847 506.536C886.847 505.781 886.182 505.161 885.371 505.161C884.565 505.161 883.9 505.781 883.9 506.536C883.9 507.296 884.565 507.916 885.371 507.916Z" fill="#444444"/>
<path d="M861.294 551H870.626V548.737H865.129V548.648L867.04 546.775C869.731 544.32 870.453 543.093 870.453 541.604C870.453 539.335 868.6 537.73 865.794 537.73C863.045 537.73 861.159 539.373 861.166 541.942H863.793C863.786 540.69 864.579 539.923 865.774 539.923C866.925 539.923 867.781 540.638 867.781 541.789C867.781 542.831 867.142 543.547 865.953 544.691L861.294 549.006V551ZM872.152 548.699H878.435V551H881.082V548.699H882.705V546.481H881.082V537.909H877.617L872.152 546.519V548.699ZM878.487 546.481H874.939V546.379L878.384 540.926H878.487V546.481ZM887.624 544.103C889.363 544.103 890.762 542.697 890.762 540.964C890.762 539.226 889.363 537.82 887.624 537.82C885.892 537.82 884.485 539.226 884.485 540.964C884.485 542.697 885.892 544.103 887.624 544.103ZM887.624 542.288C886.895 542.288 886.301 541.693 886.301 540.964C886.301 540.229 886.895 539.635 887.624 539.635C888.359 539.635 888.947 540.229 888.947 540.964C888.947 541.693 888.359 542.288 887.624 542.288Z" fill="#444444"/>
<path d="M935.621 509.674H938.274C938.236 507.341 936.318 505.73 933.403 505.73C930.533 505.73 928.43 507.315 928.443 509.693C928.437 511.624 929.798 512.729 932.01 513.26L933.435 513.618C934.861 513.963 935.653 514.372 935.66 515.254C935.653 516.213 934.745 516.865 933.339 516.865C931.901 516.865 930.866 516.2 930.776 514.89H928.098C928.168 517.722 930.194 519.185 933.371 519.185C936.567 519.185 938.446 517.658 938.453 515.261C938.446 513.081 936.804 511.924 934.528 511.413L933.352 511.131C932.214 510.869 931.262 510.447 931.281 509.508C931.281 508.664 932.029 508.044 933.384 508.044C934.707 508.044 935.519 508.645 935.621 509.674ZM943.063 519.185C944.514 519.185 945.454 518.553 945.933 517.638H946.01V519H948.592V512.378C948.592 510.038 946.611 509.054 944.425 509.054C942.072 509.054 940.525 510.179 940.148 511.969L942.667 512.173C942.852 511.521 943.434 511.042 944.412 511.042C945.339 511.042 945.869 511.509 945.869 512.314V512.352C945.869 512.985 945.198 513.068 943.491 513.234C941.548 513.413 939.803 514.065 939.803 516.258C939.803 518.201 941.19 519.185 943.063 519.185ZM943.843 517.306C943.006 517.306 942.405 516.916 942.405 516.168C942.405 515.401 943.038 515.024 943.996 514.89C944.591 514.807 945.562 514.666 945.888 514.449V515.491C945.888 516.52 945.038 517.306 943.843 517.306Z" fill="#444444"/>
<path d="M923.302 551H932.635V548.737H927.138V548.648L929.049 546.775C931.74 544.32 932.462 543.093 932.462 541.604C932.462 539.335 930.608 537.73 927.802 537.73C925.054 537.73 923.168 539.373 923.174 541.942H925.802C925.795 540.69 926.588 539.923 927.783 539.923C928.934 539.923 929.79 540.638 929.79 541.789C929.79 542.831 929.151 543.547 927.962 544.691L923.302 549.006V551ZM939.524 551.179C942.477 551.179 944.599 549.6 944.605 547.478C944.599 545.842 943.34 544.506 941.767 544.244V544.154C943.135 543.873 944.113 542.69 944.12 541.252C944.113 539.226 942.17 537.73 939.524 537.73C936.871 537.73 934.928 539.226 934.934 541.252C934.928 542.684 935.893 543.873 937.286 544.154V544.244C935.688 544.506 934.442 545.842 934.448 547.478C934.442 549.6 936.571 551.179 939.524 551.179ZM939.524 549.146C938.207 549.146 937.325 548.366 937.325 547.261C937.325 546.129 938.252 545.311 939.524 545.311C940.789 545.311 941.723 546.129 941.723 547.261C941.723 548.373 940.834 549.146 939.524 549.146ZM939.524 543.298C938.418 543.298 937.632 542.575 937.632 541.54C937.632 540.517 938.405 539.814 939.524 539.814C940.636 539.814 941.416 540.523 941.416 541.54C941.416 542.575 940.623 543.298 939.524 543.298ZM949.615 544.103C951.354 544.103 952.754 542.697 952.754 540.964C952.754 539.226 951.354 537.82 949.615 537.82C947.883 537.82 946.477 539.226 946.477 540.964C946.477 542.697 947.883 544.103 949.615 544.103ZM949.615 542.288C948.886 542.288 948.292 541.693 948.292 540.964C948.292 540.229 948.886 539.635 949.615 539.635C950.35 539.635 950.938 540.229 950.938 540.964C950.938 541.693 950.35 542.288 949.615 542.288Z" fill="#444444"/>
<path d="M995.243 509.674H997.896C997.858 507.341 995.94 505.73 993.025 505.73C990.155 505.73 988.052 507.315 988.065 509.693C988.059 511.624 989.42 512.729 991.632 513.26L993.057 513.618C994.483 513.963 995.275 514.372 995.282 515.254C995.275 516.213 994.368 516.865 992.961 516.865C991.523 516.865 990.488 516.2 990.398 514.89H987.72C987.79 517.722 989.816 519.185 992.993 519.185C996.189 519.185 998.069 517.658 998.075 515.261C998.069 513.081 996.426 511.924 994.15 511.413L992.974 511.131C991.836 510.869 990.884 510.447 990.903 509.508C990.903 508.664 991.651 508.044 993.006 508.044C994.329 508.044 995.141 508.645 995.243 509.674ZM1006.18 514.82C1006.19 516.136 1005.29 516.827 1004.31 516.827C1003.28 516.827 1002.61 516.104 1002.61 514.947V509.182H999.885V515.433C999.892 517.728 1001.23 519.128 1003.21 519.128C1004.69 519.128 1005.75 518.367 1006.19 517.217H1006.29V519H1008.9V509.182H1006.18V514.82Z" fill="#444444"/>
<path d="M989.924 551.179C992.865 551.179 994.968 549.562 994.961 547.325C994.968 545.695 993.932 544.531 992.008 544.288V544.186C993.472 543.924 994.482 542.888 994.475 541.418C994.482 539.354 992.673 537.73 989.963 537.73C987.278 537.73 985.258 539.303 985.22 541.565H987.872C987.904 540.568 988.818 539.923 989.95 539.923C991.068 539.923 991.816 540.6 991.81 541.585C991.816 542.614 990.941 543.31 989.681 543.31H988.46V545.343H989.681C991.164 545.343 992.091 546.085 992.085 547.139C992.091 548.181 991.196 548.897 989.931 548.897C988.71 548.897 987.796 548.258 987.745 547.299H984.958C985.002 549.587 987.048 551.179 989.924 551.179ZM1002.65 537.909H1000.04L996.804 539.961V542.415L999.802 540.536H999.878V551H1002.65V537.909ZM1008.83 544.103C1010.57 544.103 1011.97 542.697 1011.97 540.964C1011.97 539.226 1010.57 537.82 1008.83 537.82C1007.1 537.82 1005.69 539.226 1005.69 540.964C1005.69 542.697 1007.1 544.103 1008.83 544.103ZM1008.83 542.288C1008.1 542.288 1007.51 541.693 1007.51 540.964C1007.51 540.229 1008.1 539.635 1008.83 539.635C1009.57 539.635 1010.16 540.229 1010.16 540.964C1010.16 541.693 1009.57 542.288 1008.83 542.288Z" fill="#444444"/>
<rect x="338" y="367" width="207" height="207" fill="#CCCCCC"/>
<path d="M432.647 478.251V417.074C432.647 414.612 430.487 412.588 428.055 412.934C397.387 417.276 373.944 444.116 375.036 476.284C376.158 509.32 404.551 536.411 437.544 535.996C450.515 535.833 462.5 531.646 472.354 524.644C474.387 523.2 474.521 520.202 472.758 518.436L432.647 478.251Z" fill="#555555"/>
<path d="M449.324 404.009C480.067 406.134 504.634 430.744 506.754 461.543C506.917 463.894 504.94 465.874 502.588 465.874H445V408.186C445 405.829 446.976 403.847 449.324 404.009Z" fill="#999999"/>
<path d="M449.761 478.251H510.828C513.286 478.251 515.306 480.414 514.961 482.853C512.951 497.097 506.1 509.768 496.141 519.168C494.543 520.676 491.985 520.55 490.43 518.993L449.761 478.251Z" fill="#666666"/>
<rect y="80" width="300" height="1000" fill="#CCCCCC"/>
<rect x="20" y="120" width="220" height="10" rx="3" fill="#999999"/>
<path d="M279.151 125.663L271.56 133.254C271.194 133.621 270.6 133.621 270.234 133.254L269.349 132.369C268.983 132.004 268.982 131.411 269.347 131.045L275.363 125L269.347 118.955C268.982 118.589 268.983 117.997 269.349 117.631L270.234 116.746C270.6 116.379 271.194 116.379 271.56 116.746L279.151 124.337C279.517 124.703 279.517 125.297 279.151 125.663Z" fill="#444444"/>
<rect width="300" height="1" transform="matrix(1 0 0 -1 0 166)" fill="#EEEEEE"/>
<rect x="20" y="282" width="220" height="10" rx="3" fill="#999999"/>
<path d="M279.151 287.663L271.56 295.254C271.194 295.621 270.6 295.621 270.234 295.254L269.349 294.369C268.983 294.004 268.982 293.411 269.347 293.045L275.363 287L269.347 280.955C268.982 280.589 268.983 279.997 269.349 279.631L270.234 278.746C270.6 278.379 271.194 278.379 271.56 278.746L279.151 286.337C279.517 286.703 279.517 287.297 279.151 287.663Z" fill="#444444"/>
<rect width="300" height="1" transform="matrix(1 0 0 -1 0 328)" fill="#EEEEEE"/>
<rect x="20" y="201" width="220" height="10" rx="3" fill="#999999"/>
<path d="M279.151 206.663L271.56 214.254C271.194 214.621 270.6 214.621 270.234 214.254L269.349 213.369C268.983 213.004 268.982 212.411 269.347 212.045L275.363 206L269.347 199.955C268.982 199.589 268.983 198.997 269.349 198.631L270.234 197.746C270.6 197.379 271.194 197.379 271.56 197.746L279.151 205.337C279.517 205.703 279.517 206.297 279.151 206.663Z" fill="#444444"/>
<rect width="300" height="1" transform="matrix(1 0 0 -1 0 247)" fill="#EEEEEE"/>
<rect x="20" y="363" width="220" height="10" rx="3" fill="#999999"/>
<path d="M279.151 368.663L271.56 376.254C271.194 376.621 270.6 376.621 270.234 376.254L269.349 375.369C268.983 375.004 268.982 374.411 269.347 374.045L275.363 368L269.347 361.955C268.982 361.589 268.983 360.997 269.349 360.631L270.234 359.746C270.6 359.379 271.194 359.379 271.56 359.746L279.151 367.337C279.517 367.703 279.517 368.297 279.151 368.663Z" fill="#444444"/>
<rect width="300" height="1" transform="matrix(1 0 0 -1 0 409)" fill="#EEEEEE"/>
<rect x="95" y="1040" width="110" height="10" rx="3" fill="#999999"/>
<rect width="1080" height="80" fill="#444444"/>
<rect x="878" y="35" width="120" height="10" rx="3" fill="#999999"/>
<g clip-path="url(#clip2)">
<path d="M1030.59 45.1514L1023 37.5598C1022.63 37.1937 1022.63 36.6001 1023 36.234L1023.88 35.3486C1024.25 34.9831 1024.84 34.9824 1025.21 35.347L1031.25 41.3634L1037.29 35.347C1037.66 34.9824 1038.25 34.9831 1038.62 35.3486L1039.5 36.234C1039.87 36.6001 1039.87 37.1937 1039.5 37.5598L1031.91 45.1513C1031.55 45.5175 1030.95 45.5175 1030.59 45.1514Z" fill="#EEEEEE"/>
</g>
<path d="M21.517 49H25.2074V43.3409H28.3097C32.3239 43.3409 34.6591 40.946 34.6591 37.4602C34.6591 33.9915 32.3665 31.5455 28.4034 31.5455H21.517V49ZM25.2074 40.3835V34.5625H27.696C29.8267 34.5625 30.858 35.7216 30.858 37.4602C30.858 39.1903 29.8267 40.3835 27.7131 40.3835H25.2074ZM42.7429 49.2557C45.9815 49.2557 48.1634 47.679 48.6747 45.25L45.3168 45.0284C44.9503 46.0256 44.0128 46.5455 42.8026 46.5455C40.9872 46.5455 39.8366 45.3438 39.8366 43.392V43.3835H48.7514V42.3864C48.7514 37.9375 46.0582 35.7386 42.598 35.7386C38.7457 35.7386 36.2486 38.4744 36.2486 42.5142C36.2486 46.6648 38.7116 49.2557 42.7429 49.2557ZM39.8366 41.1335C39.9134 39.642 41.0469 38.4489 42.6577 38.4489C44.2344 38.4489 45.3253 39.5739 45.3338 41.1335H39.8366ZM58.0838 35.9091H55.6207V32.7727H51.9901V35.9091H50.2003V38.6364H51.9901V45.4545C51.973 48.0199 53.7202 49.2898 56.3537 49.179C57.2912 49.1449 57.956 48.9574 58.3224 48.8381L57.7514 46.1364C57.5724 46.1705 57.1889 46.2557 56.848 46.2557C56.1236 46.2557 55.6207 45.983 55.6207 44.9773V38.6364H58.0838V35.9091ZM66.2741 49.2557C69.5128 49.2557 71.6946 47.679 72.206 45.25L68.848 45.0284C68.4815 46.0256 67.544 46.5455 66.3338 46.5455C64.5185 46.5455 63.3679 45.3438 63.3679 43.392V43.3835H72.2827V42.3864C72.2827 37.9375 69.5895 35.7386 66.1293 35.7386C62.277 35.7386 59.7798 38.4744 59.7798 42.5142C59.7798 46.6648 62.2429 49.2557 66.2741 49.2557ZM63.3679 41.1335C63.4446 39.642 64.5781 38.4489 66.1889 38.4489C67.7656 38.4489 68.8565 39.5739 68.8651 41.1335H63.3679ZM74.652 49H78.2827V41.5938C78.2827 39.983 79.4588 38.875 81.0611 38.875C81.5639 38.875 82.2543 38.9602 82.5952 39.071V35.8494C82.2713 35.7727 81.8196 35.7216 81.4531 35.7216C79.9872 35.7216 78.7855 36.5739 78.3082 38.1932H78.1719V35.9091H74.652V49ZM87.9134 31.5455H85.1861V33.4034C85.1861 34.8438 84.6747 35.892 84.1037 36.7955L85.706 37.7415C86.9077 36.7358 87.9134 34.946 87.9134 33.3864V31.5455ZM99.5831 39.642C99.2592 37.2301 97.3161 35.7386 94.0092 35.7386C90.6598 35.7386 88.4524 37.2898 88.4609 39.8125C88.4524 41.7727 89.6882 43.0426 92.245 43.554L94.5121 44.0057C95.6541 44.2358 96.174 44.6534 96.1911 45.3097C96.174 46.0852 95.3303 46.6392 94.0604 46.6392C92.7649 46.6392 91.9041 46.0852 91.6825 45.0199L88.1115 45.2074C88.4524 47.7131 90.5831 49.2557 94.0518 49.2557C97.4439 49.2557 99.8729 47.5256 99.8814 44.9432C99.8729 43.0511 98.6371 41.9176 96.0973 41.3977L93.728 40.9205C92.5092 40.6562 92.0575 40.2386 92.0661 39.608C92.0575 38.8239 92.9439 38.3125 94.0689 38.3125C95.3303 38.3125 96.0803 39.0028 96.2592 39.8466L99.5831 39.642ZM107.594 37H110.322V35.142C110.322 33.804 110.765 32.7557 111.404 31.75L109.802 30.804C108.617 31.767 107.594 33.5994 107.594 35.1591V37ZM113.603 49H117.293V43.3409H120.396C124.41 43.3409 126.745 40.946 126.745 37.4602C126.745 33.9915 124.452 31.5455 120.489 31.5455H113.603V49ZM117.293 40.3835V34.5625H119.782C121.913 34.5625 122.944 35.7216 122.944 37.4602C122.944 39.1903 121.913 40.3835 119.799 40.3835H117.293ZM137.469 43.4261C137.477 45.1818 136.276 46.1023 134.972 46.1023C133.599 46.1023 132.713 45.1392 132.705 43.5966V35.9091H129.074V44.2443C129.082 47.304 130.872 49.1705 133.506 49.1705C135.474 49.1705 136.889 48.1562 137.477 46.6222H137.614V49H141.099V35.9091H137.469V43.4261ZM150.967 35.9091H148.504V32.7727H144.873V35.9091H143.083V38.6364H144.873V45.4545C144.856 48.0199 146.603 49.2898 149.237 49.179C150.174 49.1449 150.839 48.9574 151.205 48.8381L150.634 46.1364C150.455 46.1705 150.072 46.2557 149.731 46.2557C149.006 46.2557 148.504 45.983 148.504 44.9773V38.6364H150.967V35.9091ZM159.157 49.2557C162.396 49.2557 164.577 47.679 165.089 45.25L161.731 45.0284C161.364 46.0256 160.427 46.5455 159.217 46.5455C157.401 46.5455 156.251 45.3438 156.251 43.392V43.3835H165.165V42.3864C165.165 37.9375 162.472 35.7386 159.012 35.7386C155.16 35.7386 152.663 38.4744 152.663 42.5142C152.663 46.6648 155.126 49.2557 159.157 49.2557ZM156.251 41.1335C156.327 39.642 157.461 38.4489 159.072 38.4489C160.648 38.4489 161.739 39.5739 161.748 41.1335H156.251ZM167.535 49H171.165V41.5938C171.165 39.983 172.342 38.875 173.944 38.875C174.447 38.875 175.137 38.9602 175.478 39.071V35.8494C175.154 35.7727 174.702 35.7216 174.336 35.7216C172.87 35.7216 171.668 36.5739 171.191 38.1932H171.055V35.9091H167.535V49ZM188.247 39.642C187.923 37.2301 185.98 35.7386 182.673 35.7386C179.324 35.7386 177.116 37.2898 177.125 39.8125C177.116 41.7727 178.352 43.0426 180.909 43.554L183.176 44.0057C184.318 44.2358 184.838 44.6534 184.855 45.3097C184.838 46.0852 183.994 46.6392 182.724 46.6392C181.429 46.6392 180.568 46.0852 180.347 45.0199L176.776 45.2074C177.116 47.7131 179.247 49.2557 182.716 49.2557C186.108 49.2557 188.537 47.5256 188.545 44.9432C188.537 43.0511 187.301 41.9176 184.761 41.3977L182.392 40.9205C181.173 40.6562 180.722 40.2386 180.73 39.608C180.722 38.8239 181.608 38.3125 182.733 38.3125C183.994 38.3125 184.744 39.0028 184.923 39.8466L188.247 39.642ZM202.642 49C207.96 49 211.182 45.7102 211.182 40.2557C211.182 34.8182 207.96 31.5455 202.693 31.5455H196.455V49H202.642ZM200.145 45.8381V34.7074H202.497C205.77 34.7074 207.5 36.3778 207.5 40.2557C207.5 44.1506 205.77 45.8381 202.489 45.8381H200.145ZM217.58 49.2472C219.515 49.2472 220.768 48.4034 221.407 47.1847H221.509V49H224.952V40.1705C224.952 37.0511 222.31 35.7386 219.396 35.7386C216.259 35.7386 214.197 37.2386 213.694 39.625L217.052 39.8977C217.299 39.0284 218.075 38.3892 219.379 38.3892C220.614 38.3892 221.322 39.0114 221.322 40.0852V40.1364C221.322 40.9801 220.427 41.0909 218.151 41.3125C215.56 41.5511 213.234 42.4205 213.234 45.3438C213.234 47.9347 215.083 49.2472 217.58 49.2472ZM218.62 46.7415C217.504 46.7415 216.702 46.2216 216.702 45.2244C216.702 44.2017 217.546 43.6989 218.825 43.5199C219.617 43.4091 220.913 43.2216 221.347 42.9318V44.321C221.347 45.6932 220.214 46.7415 218.62 46.7415ZM238.661 39.642C238.337 37.2301 236.394 35.7386 233.087 35.7386C229.738 35.7386 227.531 37.2898 227.539 39.8125C227.531 41.7727 228.766 43.0426 231.323 43.554L233.59 44.0057C234.732 44.2358 235.252 44.6534 235.269 45.3097C235.252 46.0852 234.408 46.6392 233.138 46.6392C231.843 46.6392 230.982 46.0852 230.761 45.0199L227.19 45.2074C227.531 47.7131 229.661 49.2557 233.13 49.2557C236.522 49.2557 238.951 47.5256 238.96 44.9432C238.951 43.0511 237.715 41.9176 235.175 41.3977L232.806 40.9205C231.587 40.6562 231.136 40.2386 231.144 39.608C231.136 38.8239 232.022 38.3125 233.147 38.3125C234.408 38.3125 235.158 39.0028 235.337 39.8466L238.661 39.642ZM244.876 41.4318C244.885 39.7443 245.916 38.7557 247.399 38.7557C248.874 38.7557 249.743 39.7017 249.734 41.3125V49H253.365V40.6648C253.374 37.5966 251.567 35.7386 248.839 35.7386C246.854 35.7386 245.524 36.6761 244.928 38.2188H244.774V31.5455H241.246V49H244.876V41.4318ZM256.29 49H259.87V46.9034H260.032C260.535 47.9943 261.634 49.2131 263.748 49.2131C266.731 49.2131 269.058 46.8523 269.058 42.4716C269.058 37.9716 266.629 35.7386 263.756 35.7386C261.566 35.7386 260.518 37.0426 260.032 38.108H259.921V31.5455H256.29V49ZM259.844 42.4545C259.844 40.1193 260.833 38.6278 262.597 38.6278C264.396 38.6278 265.35 40.1875 265.35 42.4545C265.35 44.7386 264.379 46.3239 262.597 46.3239C260.85 46.3239 259.844 44.7898 259.844 42.4545ZM277.395 49.2557C281.366 49.2557 283.838 46.5369 283.838 42.5057C283.838 38.4489 281.366 35.7386 277.395 35.7386C273.423 35.7386 270.952 38.4489 270.952 42.5057C270.952 46.5369 273.423 49.2557 277.395 49.2557ZM277.412 46.4432C275.58 46.4432 274.642 44.7642 274.642 42.4801C274.642 40.196 275.58 38.5085 277.412 38.5085C279.21 38.5085 280.148 40.196 280.148 42.4801C280.148 44.7642 279.21 46.4432 277.412 46.4432ZM289.932 49.2472C291.866 49.2472 293.119 48.4034 293.759 47.1847H293.861V49H297.304V40.1705C297.304 37.0511 294.662 35.7386 291.747 35.7386C288.611 35.7386 286.548 37.2386 286.045 39.625L289.403 39.8977C289.651 39.0284 290.426 38.3892 291.73 38.3892C292.966 38.3892 293.673 39.0114 293.673 40.0852V40.1364C293.673 40.9801 292.778 41.0909 290.503 41.3125C287.912 41.5511 285.585 42.4205 285.585 45.3438C285.585 47.9347 287.435 49.2472 289.932 49.2472ZM290.972 46.7415C289.855 46.7415 289.054 46.2216 289.054 45.2244C289.054 44.2017 289.898 43.6989 291.176 43.5199C291.969 43.4091 293.264 43.2216 293.699 42.9318V44.321C293.699 45.6932 292.565 46.7415 290.972 46.7415ZM300.121 49H303.751V41.5938C303.751 39.983 304.928 38.875 306.53 38.875C307.033 38.875 307.723 38.9602 308.064 39.071V35.8494C307.74 35.7727 307.288 35.7216 306.922 35.7216C305.456 35.7216 304.254 36.5739 303.777 38.1932H303.641V35.9091H300.121V49ZM314.156 49.2131C316.269 49.2131 317.369 47.9943 317.871 46.9034H318.025V49H321.604V31.5455H317.982V38.108H317.871C317.386 37.0426 316.337 35.7386 314.147 35.7386C311.275 35.7386 308.846 37.9716 308.846 42.4716C308.846 46.8523 311.173 49.2131 314.156 49.2131ZM315.306 46.3239C313.525 46.3239 312.553 44.7386 312.553 42.4545C312.553 40.1875 313.508 38.6278 315.306 38.6278C317.07 38.6278 318.059 40.1193 318.059 42.4545C318.059 44.7898 317.053 46.3239 315.306 46.3239Z" fill="#EEEEEE"/>
</g>
<defs>
<clipPath id="clip0">
<rect width="1080" height="1080" fill="white"/>
</clipPath>
<clipPath id="clip1">
<rect width="109.662" height="87.7295" fill="white" transform="translate(630.865 174.831)"/>
</clipPath>
<clipPath id="clip2">
<rect width="12.5" height="20" fill="white" transform="translate(1041.25 34) rotate(90)"/>
</clipPath>
</defs>
</svg>
