<svg width="1920" height="1080" viewBox="0 0 1920 1080" fill="none" xmlns="http://www.w3.org/2000/svg">

<path d="M1536 540C1544.82 540 1552 532.825 1552 524C1552 515.175 1544.82 508 1536 508C1527.18 508 1520 515.175 1520 524C1520 532.825 1527.18 540 1536 540ZM1648 540C1656.82 540 1664 532.825 1664 524C1664 515.175 1656.82 508 1648 508C1639.18 508 1632 515.175 1632 524C1632 532.825 1639.18 540 1648 540ZM1656 548H1640C1635.6 548 1631.62 549.775 1628.72 552.65C1638.8 558.175 1645.95 568.15 1647.5 580H1664C1668.43 580 1672 576.425 1672 572V564C1672 555.175 1664.82 548 1656 548ZM1592 548C1607.48 548 1620 535.475 1620 520C1620 504.525 1607.48 492 1592 492C1576.52 492 1564 504.525 1564 520C1564 535.475 1576.52 548 1592 548ZM1611.2 556H1609.12C1603.93 558.5 1598.15 560 1592 560C1585.85 560 1580.1 558.5 1574.88 556H1572.8C1556.9 556 1544 568.9 1544 584.8V592C1544 598.625 1549.38 604 1556 604H1628C1634.62 604 1640 598.625 1640 592V584.8C1640 568.9 1627.1 556 1611.2 556ZM1555.28 552.65C1552.38 549.775 1548.4 548 1544 548H1528C1519.18 548 1512 555.175 1512 564V572C1512 576.425 1515.57 580 1520 580H1536.48C1538.05 568.15 1545.2 558.175 1555.28 552.65Z" fill="black"/>
<path d="M865.879 537.879C864.707 539.05 864.707 540.95 865.879 542.121L884.971 561.213C886.142 562.385 888.042 562.385 889.213 561.213C890.385 560.042 890.385 558.142 889.213 556.971L872.243 540L889.213 523.029C890.385 521.858 890.385 519.958 889.213 518.787C888.042 517.615 886.142 517.615 884.971 518.787L865.879 537.879ZM1421.12 542.121C1422.29 540.95 1422.29 539.05 1421.12 537.879L1402.03 518.787C1400.86 517.615 1398.96 517.615 1397.79 518.787C1396.62 519.958 1396.62 521.858 1397.79 523.029L1414.76 540L1397.79 556.971C1396.62 558.142 1396.62 560.042 1397.79 561.213C1398.96 562.385 1400.86 562.385 1402.03 561.213L1421.12 542.121ZM868 543L1419 543L1419 537L868 537L868 543Z" fill="black"/>
<path d="M640.757 549.412C642.32 550.975 644.853 550.975 646.415 549.412L649.243 546.585C650.805 545.022 650.805 542.49 649.243 540.928L640.312 532L649.24 523.07C650.802 521.507 650.802 518.975 649.24 517.412L646.412 514.585C644.85 513.022 642.318 513.022 640.755 514.585L626.17 529.17C624.607 530.732 624.607 533.265 626.17 534.827L640.757 549.412ZM664.76 546.588L667.588 549.415C669.15 550.978 671.683 550.978 673.245 549.415L687.83 534.83C689.393 533.268 689.393 530.735 687.83 529.173L673.245 514.587C671.683 513.025 669.15 513.025 667.588 514.587L664.76 517.415C663.198 518.978 663.198 521.51 664.76 523.072L673.688 532L664.76 540.93C663.198 542.493 663.198 545.025 664.76 546.588ZM733 588H672.385C672.2 592.952 668.707 596 664.2 596H649C644.327 596 640.745 591.632 640.807 588H581C578.8 588 577 589.8 577 592V596C577 604.8 584.2 612 593 612H721C729.8 612 737 604.8 737 596V592C737 589.8 735.2 588 733 588ZM721 496C721 489.4 715.6 484 709 484H605C598.4 484 593 489.4 593 496V580H721V496ZM705 564H609V500H705V564Z" fill="black"/>
<path d="M352 524H240C235.582 524 232 520.418 232 516V500C232 495.582 235.582 492 240 492H352C356.418 492 360 495.582 360 500V516C360 520.418 356.418 524 352 524ZM340 502C336.686 502 334 504.686 334 508C334 511.314 336.686 514 340 514C343.314 514 346 511.314 346 508C346 504.686 343.314 502 340 502ZM324 502C320.686 502 318 504.686 318 508C318 511.314 320.686 514 324 514C327.314 514 330 511.314 330 508C330 504.686 327.314 502 324 502ZM352 564H240C235.582 564 232 560.418 232 556V540C232 535.582 235.582 532 240 532H352C356.418 532 360 535.582 360 540V556C360 560.418 356.418 564 352 564ZM340 542C336.686 542 334 544.686 334 548C334 551.314 336.686 554 340 554C343.314 554 346 551.314 346 548C346 544.686 343.314 542 340 542ZM324 542C320.686 542 318 544.686 318 548C318 551.314 320.686 554 324 554C327.314 554 330 551.314 330 548C330 544.686 327.314 542 324 542ZM352 604H240C235.582 604 232 600.418 232 596V580C232 575.582 235.582 572 240 572H352C356.418 572 360 575.582 360 580V596C360 600.418 356.418 604 352 604ZM340 582C336.686 582 334 584.686 334 588C334 591.314 336.686 594 340 594C343.314 594 346 591.314 346 588C346 584.686 343.314 582 340 582ZM324 582C320.686 582 318 584.686 318 588C318 591.314 320.686 594 324 594C327.314 594 330 591.314 330 588C330 584.686 327.314 582 324 582Z" fill="black"/>
<g clip-path="url(#clip0)">
<path d="M489.737 548.254C489.732 558.822 481.184 567.225 470.802 567.254C470.781 567.254 470.758 567.254 470.737 567.254L458.858 567.254C448.38 567.254 439.858 558.731 439.858 548.254C439.857 537.778 448.381 529.254 458.858 529.255L465.417 529.255C467.157 529.255 468.077 531.33 466.892 532.604C465.383 534.228 464.09 536.083 463.089 538.121C462.75 538.811 462.055 539.255 461.286 539.255L458.973 539.255C454.018 539.255 449.907 543.211 449.859 548.165C449.81 553.168 453.866 557.254 458.858 557.254L470.736 557.255C475.72 557.255 479.737 553.217 479.737 548.254C479.736 547.601 479.66 547.018 479.58 546.583C479.523 546.276 479.539 545.96 479.626 545.66C479.712 545.36 479.868 545.084 480.08 544.855C480.979 543.886 482.273 543.254 483.749 543.254L487.471 543.254C488.447 543.254 489.272 543.96 489.443 544.921C489.639 546.021 489.737 547.137 489.737 548.254V548.254ZM514.652 548.254C514.652 537.778 506.129 529.254 495.652 529.254L483.772 529.254C483.751 529.254 483.728 529.254 483.708 529.255C473.326 529.284 464.778 537.687 464.773 548.254C464.773 549.372 464.871 550.487 465.066 551.588C465.237 552.548 466.063 553.254 467.039 553.254L470.761 553.254C472.237 553.254 473.53 552.622 474.429 551.653C474.641 551.424 474.797 551.149 474.884 550.849C474.971 550.548 474.986 550.232 474.929 549.925C474.849 549.49 474.773 548.907 474.773 548.254C474.773 543.291 478.79 539.253 483.773 539.253L495.652 539.254C500.644 539.254 504.7 543.34 504.651 548.343C504.603 553.298 500.491 557.253 495.537 557.253L493.223 557.253C492.454 557.253 491.76 557.697 491.421 558.387C490.419 560.425 489.127 562.28 487.617 563.904C486.433 565.178 487.353 567.254 489.092 567.254L495.652 567.254C506.129 567.255 514.653 558.731 514.652 548.254V548.254Z" fill="black"/>
</g>
<defs>
<clipPath id="clip0">
<rect width="64" height="64" fill="white" transform="translate(477.255 503) rotate(45)"/>
</clipPath>
</defs>
</svg>
