<svg width="1920" height="1080" viewBox="0 0 1920 1080" fill="none" xmlns="http://www.w3.org/2000/svg">

<path d="M1689 160H1601C1594.38 160 1589 165.375 1589 172V260C1589 266.625 1594.38 272 1601 272H1689C1695.62 272 1701 266.625 1701 260V172C1701 165.375 1695.62 160 1689 160ZM1620.75 248.125C1619.38 250.525 1616.3 251.325 1613.92 249.95C1611.52 248.575 1610.73 245.5 1612.1 243.125L1615.67 236.95C1619.7 235.725 1623 236.675 1625.58 239.8L1620.75 248.125ZM1655.47 234.65H1610C1607.25 234.65 1605 232.4 1605 229.65C1605 226.9 1607.25 224.65 1610 224.65H1622.75L1639.1 196.35L1633.97 187.5C1632.6 185.1 1633.42 182.05 1635.8 180.675C1638.2 179.3 1641.25 180.125 1642.62 182.5L1644.85 186.35L1647.08 182.5C1648.45 180.1 1651.53 179.3 1653.9 180.675C1656.3 182.05 1657.1 185.125 1655.72 187.5L1634.28 224.65H1649.8C1654.85 224.65 1657.67 230.575 1655.47 234.65ZM1680 234.65H1672.75L1677.65 243.125C1679.03 245.525 1678.2 248.575 1675.82 249.95C1673.42 251.325 1670.38 250.5 1669 248.125C1660.78 233.9 1654.62 223.2 1650.5 216.1C1646.33 208.85 1649.3 201.6 1652.28 199.15C1655.55 204.825 1660.45 213.325 1667 224.65H1680C1682.75 224.65 1685 226.9 1685 229.65C1685 232.425 1682.75 234.65 1680 234.65Z" fill="black"/>
<path d="M1541.76 541.412C1543.32 542.975 1545.85 542.975 1547.42 541.412L1550.24 538.585C1551.81 537.022 1551.81 534.49 1550.24 532.928L1541.31 524L1550.24 515.07C1551.8 513.507 1551.8 510.975 1550.24 509.412L1547.41 506.585C1545.85 505.022 1543.32 505.022 1541.76 506.585L1527.17 521.17C1525.61 522.732 1525.61 525.265 1527.17 526.827L1541.76 541.412ZM1565.76 538.588L1568.59 541.415C1570.15 542.978 1572.68 542.978 1574.25 541.415L1588.83 526.83C1590.39 525.268 1590.39 522.735 1588.83 521.173L1574.25 506.587C1572.68 505.025 1570.15 505.025 1568.59 506.587L1565.76 509.415C1564.2 510.978 1564.2 513.51 1565.76 515.072L1574.69 524L1565.76 532.93C1564.2 534.493 1564.2 537.025 1565.76 538.588ZM1634 580H1573.39C1573.2 584.952 1569.71 588 1565.2 588H1550C1545.33 588 1541.74 583.632 1541.81 580H1482C1479.8 580 1478 581.8 1478 584V588C1478 596.8 1485.2 604 1494 604H1622C1630.8 604 1638 596.8 1638 588V584C1638 581.8 1636.2 580 1634 580ZM1622 488C1622 481.4 1616.6 476 1610 476H1506C1499.4 476 1494 481.4 1494 488V572H1622V488ZM1606 556H1510V492H1606V556Z" fill="black"/>
<path d="M1612.4 856.65C1613.42 853.975 1614 851.05 1614 848C1614 834.75 1603.25 824 1590 824C1585.07 824 1580.48 825.5 1576.68 828.05C1569.75 816.05 1556.82 808 1542 808C1519.9 808 1502 825.9 1502 848C1502 848.675 1502.02 849.35 1502.05 850.025C1488.05 854.95 1478 868.3 1478 884C1478 903.875 1494.12 920 1514 920H1606C1623.68 920 1638 905.675 1638 888C1638 872.525 1627 859.6 1612.4 856.65Z" fill="black"/>
<path d="M403 516H291C286.582 516 283 512.418 283 508V492C283 487.582 286.582 484 291 484H403C407.418 484 411 487.582 411 492V508C411 512.418 407.418 516 403 516ZM391 494C387.686 494 385 496.686 385 500C385 503.314 387.686 506 391 506C394.314 506 397 503.314 397 500C397 496.686 394.314 494 391 494ZM375 494C371.686 494 369 496.686 369 500C369 503.314 371.686 506 375 506C378.314 506 381 503.314 381 500C381 496.686 378.314 494 375 494ZM403 556H291C286.582 556 283 552.418 283 548V532C283 527.582 286.582 524 291 524H403C407.418 524 411 527.582 411 532V548C411 552.418 407.418 556 403 556ZM391 534C387.686 534 385 536.686 385 540C385 543.314 387.686 546 391 546C394.314 546 397 543.314 397 540C397 536.686 394.314 534 391 534ZM375 534C371.686 534 369 536.686 369 540C369 543.314 371.686 546 375 546C378.314 546 381 543.314 381 540C381 536.686 378.314 534 375 534ZM403 596H291C286.582 596 283 592.418 283 588V572C283 567.582 286.582 564 291 564H403C407.418 564 411 567.582 411 572V588C411 592.418 407.418 596 403 596ZM391 574C387.686 574 385 576.686 385 580C385 583.314 387.686 586 391 586C394.314 586 397 583.314 397 580C397 576.686 394.314 574 391 574ZM375 574C371.686 574 369 576.686 369 580C369 583.314 371.686 586 375 586C378.314 586 381 583.314 381 580C381 576.686 378.314 574 375 574Z" fill="black"/>
<path d="M1490 210.575L1434.82 155.25L1505.02 195.55L1490 210.575ZM1420.42 152C1417.17 153.7 1415 156.8 1415 160.825V271.15C1415 275.175 1417.17 278.275 1420.42 279.975L1484.57 215.975L1420.42 152ZM1526.72 208.4L1512 199.875L1495.57 216L1512 232.125L1527.02 223.6C1531.52 220.025 1531.53 211.975 1526.72 208.4ZM1434.82 276.75L1505.02 236.45L1490 221.425L1434.82 276.75Z" fill="black"/>
<path d="M1004.46 500.495L983.486 479.524C981.236 477.275 978.187 476 975.013 476H923.998C917.374 476.025 912 481.399 912 488.023V592.002C912 598.626 917.374 604 923.998 604H995.984C1002.61 604 1007.98 598.626 1007.98 592.002V508.994C1007.98 505.819 1006.71 502.745 1004.46 500.495ZM995.009 508.019H975.988V488.997L995.009 508.019ZM923.998 592.002V488.023H963.99V514.018C963.99 517.342 966.664 520.016 969.989 520.016H995.984V592.002H923.998Z" fill="black"/>
<path d="M941.06 553.788C942.596 553.788 943.832 553.278 944.768 552.258C945.704 551.226 946.196 549.828 946.244 548.064V532.476C946.196 530.724 945.704 529.332 944.768 528.3C943.832 527.268 942.596 526.752 941.06 526.752C939.536 526.752 938.306 527.268 937.37 528.3C936.434 529.32 935.936 530.712 935.875 532.476V548.064C935.948 549.84 936.446 551.238 937.37 552.258C938.294 553.278 939.524 553.788 941.06 553.788ZM941.06 550.008C940.652 550.008 940.334 549.834 940.106 549.486C939.878 549.138 939.764 548.664 939.764 548.064V532.476C939.764 531.18 940.196 530.532 941.06 530.532C941.924 530.532 942.356 531.18 942.356 532.476V548.064C942.356 548.664 942.242 549.138 942.014 549.486C941.786 549.834 941.468 550.008 941.06 550.008ZM948.854 553.5H952.742V542.916C954.974 542.916 956.672 542.196 957.836 540.756C959 539.304 959.582 537.372 959.582 534.96C959.582 532.416 958.988 530.46 957.8 529.092C956.624 527.724 954.938 527.04 952.742 527.04H948.854V553.5ZM952.742 538.956V531C954.026 531 954.83 531.336 955.154 532.008C955.49 532.68 955.658 533.712 955.658 535.104C955.658 536.496 955.49 537.486 955.154 538.074C954.818 538.662 954.014 538.956 952.742 538.956ZM961.51 553.5H970.402V549.504H965.398V542.232H968.998V537.984H965.398V531.036H970.402V527.04H961.51V553.5ZM972.549 553.5H976.113V538.488H976.329L976.653 539.712L980.433 553.5H983.889V527.04H980.325V542.052H980.109L979.785 540.828L976.005 527.04H972.549V553.5Z" fill="black"/>
<path d="M943.907 583H947.687L948.407 577.6H952.151L952.871 583H956.651L952.655 556.54H947.903L943.907 583ZM948.947 573.496L950.063 565.144L950.171 564.46H950.387L950.495 565.144L951.611 573.496H948.947ZM958.452 583H962.34V572.416C964.572 572.416 966.27 571.696 967.434 570.256C968.598 568.804 969.18 566.872 969.18 564.46C969.18 561.916 968.586 559.96 967.398 558.592C966.222 557.224 964.536 556.54 962.34 556.54H958.452V583ZM962.34 568.456V560.5C963.624 560.5 964.428 560.836 964.752 561.508C965.088 562.18 965.256 563.212 965.256 564.604C965.256 565.996 965.088 566.986 964.752 567.574C964.416 568.162 963.612 568.456 962.34 568.456ZM971.108 583H974.996V556.54H971.108V583Z" fill="black"/>
<path d="M1387.43 233.598C1387.76 232.257 1386.94 230.903 1385.6 230.573L1363.75 225.191C1362.41 224.861 1361.06 225.68 1360.73 227.021C1360.4 228.361 1361.21 229.716 1362.56 230.046L1381.97 234.83L1377.19 254.249C1376.86 255.59 1377.68 256.944 1379.02 257.274C1380.36 257.605 1381.72 256.786 1382.05 255.445L1387.43 233.598ZM1090.29 414.139L1386.29 235.139L1383.71 230.861L1087.71 409.861L1090.29 414.139Z" fill="black"/>
<path d="M466.232 537.732C465.255 538.709 465.255 540.291 466.232 541.268L482.141 557.178C483.118 558.154 484.701 558.154 485.677 557.178C486.653 556.201 486.653 554.618 485.677 553.642L471.535 539.5L485.677 525.358C486.653 524.382 486.653 522.799 485.677 521.822C484.701 520.846 483.118 520.846 482.141 521.822L466.232 537.732ZM824.001 537L467.999 537L467.999 542L824.001 542L824.001 537Z" fill="#FF0000"/>
<path d="M1416.77 543.762C1417.75 542.783 1417.74 541.2 1416.76 540.227L1400.8 524.366C1399.82 523.392 1398.24 523.397 1397.27 524.377C1396.29 525.356 1396.3 526.939 1397.28 527.912L1411.46 542.011L1397.37 556.196C1396.39 557.176 1396.4 558.759 1397.38 559.732C1398.36 560.705 1399.94 560.7 1400.91 559.721L1416.77 543.762ZM1089.01 545.5L1415.01 544.5L1414.99 539.5L1088.99 540.5L1089.01 545.5Z" fill="black"/>
<path d="M1415.6 866.426C1416.94 866.092 1417.76 864.736 1417.43 863.396L1411.99 841.563C1411.65 840.223 1410.3 839.407 1408.96 839.741C1407.62 840.075 1406.8 841.431 1407.14 842.771L1411.97 862.178L1392.56 867.011C1391.22 867.345 1390.41 868.702 1390.74 870.042C1391.07 871.381 1392.43 872.197 1393.77 871.863L1415.6 866.426ZM1087.71 670.143L1413.71 866.143L1416.29 861.857L1090.29 665.857L1087.71 670.143Z" fill="black"/>
</svg>
